<?xml version="1.0" encoding="UTF-8" standalone="no"?>
<svg
   xmlns:dc="http://purl.org/dc/elements/1.1/"
   xmlns:cc="http://creativecommons.org/ns#"
   xmlns:rdf="http://www.w3.org/1999/02/22-rdf-syntax-ns#"
   xmlns:svg="http://www.w3.org/2000/svg"
   xmlns="http://www.w3.org/2000/svg"
   xmlns:sodipodi="http://sodipodi.sourceforge.net/DTD/sodipodi-0.dtd"
   xmlns:inkscape="http://www.inkscape.org/namespaces/inkscape"
   inkscape:version="1.0 (4035a4fb49, 2020-05-01)"
   sodipodi:docname="bubs-as-the-wheelchair.svg"
   viewBox="0 0 585.59998 479.20001"
   height="479.20001"
   width="585.59998"
   id="svg885"
   version="1.1">
  <metadata
     id="metadata891">
    <rdf:RDF>
      <cc:Work
         rdf:about="">
        <dc:format>image/svg+xml</dc:format>
        <dc:type
           rdf:resource="http://purl.org/dc/dcmitype/StillImage" />
        <dc:title></dc:title>
      </cc:Work>
    </rdf:RDF>
  </metadata>
  <defs
     id="defs889" />
  <sodipodi:namedview
     inkscape:current-layer="layer1"
     inkscape:window-maximized="0"
     inkscape:window-y="34"
     inkscape:window-x="10"
     inkscape:cy="255.89146"
     inkscape:cx="477.21221"
     inkscape:zoom="1.2824757"
     showgrid="false"
     id="namedview887"
     inkscape:window-height="1034"
     inkscape:window-width="1898"
     inkscape:pageshadow="2"
     inkscape:pageopacity="0"
     guidetolerance="10"
     gridtolerance="10"
     objecttolerance="10"
     borderopacity="1"
     bordercolor="#666666"
     pagecolor="#ffffff" />
  <g
     inkscape:label="Image 1"
     id="layer1"
     inkscape:groupmode="layer">
    <path
       d="M 431.28906 4.109375 L 335.48438 9.5253906 L 298.65234 21.121094 L 295.41406 27.333984 L 294.83789 70.015625 L 302.16797 145.4375 L 310.82031 181.24414 L 309.68359 183.82812 L 273.28711 183.8125 L 212.62891 178.66797 L 179.78125 175.43945 L 83.978516 176.32617 L 76.677734 179.37305 L 78.486328 187.22656 L 89.142578 196.84766 L 105.21484 204.50586 L 128.55273 204.29688 L 159.87891 198.20312 L 222.82031 199.65234 L 302.49414 203.53516 L 310.87109 207.07812 L 270.92969 211.85938 L 191.16016 212.78711 L 134.33594 223.09375 L 133.15234 227.18555 L 141.29102 233.95117 L 178.18555 236.98633 L 190.14453 273.88477 L 149.81836 279.19141 L 108.51758 288.37891 L 56.957031 301.10938 L 7.1992188 323.58594 L 3.9902344 329.50781 L 9.7402344 347.38086 L 58.013672 384.47266 L 139.63281 413.44141 L 180.7793 421.13281 L 206.45703 417.02148 C 206.45703 417.02148 248.28121 397.77945 250.3457 397.05469 C 252.41019 396.32992 254.88971 404.12409 255.31445 406.33203 C 255.73919 408.53998 253.8125 409.69141 253.8125 409.69141 C 253.8125 409.69141 250.22225 414.81906 245.1875 422.39453 C 240.15275 429.97001 197.70703 468.63281 197.70703 468.63281 L 196.91797 471.62891 L 198.07422 473.4375 L 218.79102 475.84766 L 234.99023 473.70898 L 244.27734 468.75586 L 252.41016 452.70312 L 259.50977 428.33594 L 263.05664 409.00195 L 259.42188 403.3125 L 256.71484 394.34766 L 268.18359 388.1543 L 274.81641 378.04297 L 315.68945 378.95703 L 393.38477 380.67383 L 402.35156 388.77539 L 424.34375 413.03906 L 453.29297 437.08789 L 482.15234 452.83008 L 503.90625 459.23242 L 522.57031 461.23047 L 533.61328 457.54492 L 548.86914 462.08398 L 561.23242 461.71289 L 569.62109 449.87109 L 577.07227 416.41992 L 578.4707 385.27148 L 569.20703 347.56836 L 560.64453 319.48047 L 544.91016 290.68945 L 521.35352 258.24609 L 499.28711 238.41406 L 471.80859 220.08008 L 437.13477 200.94922 L 418.49023 193.88281 L 417.73633 118.6875 L 420.29492 81.439453 L 428.13477 68.951172 L 451.81836 58.318359 L 481.17188 57.294922 L 512.69727 62.441406 L 551.87305 77.09375 L 553.57617 73.251953 L 552.26758 36.126953 L 534.41406 33.041016 L 504.91211 34.3125 L 505.48438 23.03125 L 500.52148 15.132812 L 495.66602 11.970703 L 479.57031 8.5507812 L 431.28906 4.109375 z M 371.85156 18.251953 L 422.17578 22.740234 L 478.50391 37.931641 L 479.30664 40.162109 L 409.88086 58.5625 L 400.33789 67.507812 L 398.23633 145.7793 L 336.57812 129.04297 L 334.02344 123.12891 L 326.61328 87.554688 L 328.26758 46.849609 L 334.29492 20.410156 L 371.85156 18.251953 z "
       style="fill:#ffffff;fill-opacity:0.988215;stroke-width:1.6;stroke-linecap:round"
       id="path902" />
  </g>
  <g
     id="g893"
     inkscape:label="Image"
     inkscape:groupmode="layer">
    <path
       id="path897"
       d="m 197.85105,476.03983 c -2.59227,-1.58062 -4.25106,-3.85453 -4.25106,-5.82748 0,-0.60105 6.73755,-7.19472 14.97231,-14.65259 21.94132,-19.87126 35.46981,-34.26157 43.42769,-46.19417 1.36095,-2.0407 2.50863,-2.9297 3.59183,-2.78225 2.8429,0.38696 2.11656,2.49104 -3.36198,9.73914 -9.15666,12.11426 -17.85705,21.27172 -36.21845,38.12122 -16.12518,14.7974 -17.57173,16.33867 -16.41695,17.49177 1.06643,1.06489 3.69294,1.26454 16.63596,1.26454 15.11463,0 15.43679,-0.0354 19.42036,-2.13786 5.0149,-2.64668 9.16754,-7.15925 12.30163,-13.36784 4.40677,-8.72976 10.65664,-32.32117 11.79659,-44.52862 0.35688,-3.82179 0.11656,-5.63888 -1.11356,-8.41978 -1.78353,-4.03197 -1.59893,-5.5459 0.67622,-5.5459 1.11054,0 2.0696,1.11061 3.2359,3.74725 2.14723,4.85416 1.72171,13.5106 -1.32982,27.05275 -4.93341,21.89353 -10.68503,35.11244 -17.80213,40.91448 -7.13894,5.81986 -10.77396,6.68598 -28.04561,6.68253 -13.41175,-0.002 -15.23531,-0.16477 -17.51893,-1.55719 z M 543.76633,463.2432 c -6.09349,-1.98879 -7.43013,-2.1774 -10,-1.411 -1.63149,0.48655 -7.82635,0.88102 -13.76635,0.87659 -8.45984,-0.006 -12.3601,-0.39421 -18,-1.79025 -17.76217,-4.39667 -40.73786,-15.891 -57.6,-28.81627 -9.07676,-6.95758 -25.62303,-22.25753 -39.1142,-36.16802 l -13.51422,-13.93424 -57.52214,-0.28219 -57.52215,-0.28219 -4.6442,4.68219 c -4.75487,4.79376 -11.10976,8.65389 -28.48308,17.30143 -10.42004,5.18654 -23.93001,11.05921 -29.8,12.95377 -2.31,0.74556 -4.2,1.54812 -4.2,1.78346 0,0.7809 9.16117,-0.70215 11.35944,-1.83892 3.22147,-1.66588 4.79879,-1.44068 4.4962,0.64194 -0.62981,4.33474 -10.32668,6.20521 -32.25564,6.22193 -16.2977,0.0124 -23.68166,-1.26044 -53.55545,-9.23199 C 87.580917,400.05673 65.495503,391.08858 37.736688,372.56804 23.475569,363.0531 15.746193,356.3092 9.7107061,348.11531 3.8094039,340.10359 2.1077173,336.31878 2.0498945,331.07653 1.9617321,323.08365 6.0984815,319.64015 25.999999,311.14007 47.404328,301.99813 83.033837,291.78185 126,282.46643 c 19.66762,-4.2641 32.49959,-6.42062 50.37191,-8.46541 6.14456,-0.70301 11.279,-1.38526 11.40986,-1.51612 0.47568,-0.47569 -3.96902,-14.68437 -7.09268,-22.67369 -1.98562,-5.07853 -3.00881,-8.80387 -2.69212,-9.80167 0.48863,-1.53956 0.1626,-1.60954 -7.49949,-1.60954 -12.48671,0 -28.0686,-1.54056 -31.70646,-3.13477 -4.18271,-1.83298 -8.39102,-6.08025 -8.39102,-8.4687 0,-3.07029 3.27901,-4.78148 14.26156,-7.44252 28.56464,-6.92113 37.19546,-7.76235 92.13843,-8.98039 37.73561,-0.83657 64.54075,-2.32966 60.8,-3.38665 -1.1,-0.31081 -5.99218,-0.57004 -10.87151,-0.57605 -8.11971,-0.01 -31.77975,-1.8788 -35.82808,-2.82992 -5.50152,-1.29252 -41.07922,-3.69256 -60.90041,-4.1083 -27.14368,-0.56932 -37.33837,0.39992 -54.39999,5.17198 -16.85193,4.7134 -29.0732,3.89641 -42.379827,-2.83307 -6.8724,-3.47554 -13.16264,-8.15897 -15.30384,-11.39454 -2.418543,-3.65467 -3.287767,-8.65452 -1.941809,-11.16947 1.904857,-3.55926 5.282657,-4.13718 29.168036,-4.99051 22.12651,-0.79049 87.46002,-0.41268 95.25743,0.55085 2.2,0.27186 6.7,0.82681 10,1.23322 26.95086,3.31919 44.62586,4.73048 69.11698,5.51876 14.91434,0.48003 27.30305,0.68672 27.53047,0.45931 0.22741,-0.22742 -0.54729,-4.46478 -1.72157,-9.41635 -2.89973,-12.22732 -4.95566,-24.9221 -6.51092,-40.20288 -0.71652,-7.04 -2.17628,-20.74847 -3.24392,-30.46326 -3.05946,-27.839062 -3.7339,-41.9583 -2.7483,-57.535828 1.17129,-18.512742 1.90424,-22.83523 4.16269,-24.548964 4.0069,-3.040471 25.79267,-8.855558 46.21457,-12.3356503 12.11395,-2.0643373 24.19943,-2.8430419 66.4,-4.278356 27.91084,-0.9492957 46.05272,0.092274 69.37327,3.9828882 16.90064,2.8195681 20.42887,3.9039931 24.11914,7.4131961 3.74567,3.561886 5.05036,7.040777 4.81385,12.835901 l -0.19876,4.869978 3.94624,-0.369952 c 8.57299,-0.8037 32.7874,-0.323124 36.96991,0.733729 6.53572,1.651477 6.83626,2.612399 7.22937,23.114168 0.35579,18.555888 -0.10471,21.413263 -3.59207,22.288534 -3.69475,0.927323 -8.72478,-0.6173 -21.06096,-6.467399 -14.62271,-6.93443 -17.48233,-7.813195 -33.24553,-10.216425 -8.99855,-1.371906 -15.41616,-1.822559 -25.95447,-1.822559 -15.82835,0 -21.80071,1.157695 -33.89945,6.571145 -10.40144,4.654007 -11.2734,5.528838 -13.99873,14.044824 -4.03254,12.60072 -4.17797,14.612016 -4.41573,61.06906 -0.15495,30.27717 -0.49081,43.8397 -1.10076,44.44965 -0.48278,0.48278 -1.43807,0.66277 -2.12287,0.39999 -1.1124,-0.42687 -1.20705,-5.31902 -0.88813,-45.90623 0.35264,-44.877838 0.38098,-45.532062 2.33802,-53.977942 1.08958,-4.702232 2.99503,-10.64223 4.23435,-13.200002 2.12706,-4.38994 2.63296,-4.848039 9.02955,-8.176347 16.55613,-8.614579 36.62115,-12.270753 53.22375,-9.698232 2.64,0.40906 9.76655,1.492917 15.83676,2.408572 13.48687,2.034411 21.2113,4.4091 32.7287,10.061639 8.73096,4.285002 17.05611,7.398975 17.79789,6.657194 0.21052,-0.210516 0.484,-7.924883 0.60776,-17.143038 0.16453,-12.255957 -0.0425,-17.228467 -0.7702,-18.502362 -0.75162,-1.315692 -2.12179,-1.901187 -5.59806,-2.392144 -5.90074,-0.833367 -29.8971,-0.642488 -34.5987,0.275215 -3.14502,0.613874 -3.64902,1.000095 -4.01988,3.080441 l -0.42403,2.378567 -9.36563,-0.264238 c -8.70546,-0.245611 -10.08564,-0.06436 -19.58012,2.571306 -5.61797,1.559549 -21.91449,5.757593 -36.21449,9.328988 -26.55184,6.631269 -32.76503,8.869284 -36.93041,13.302477 l -1.86958,1.989785 -0.27506,57.010071 c -0.15129,31.35555 -0.59104,57.51668 -0.97723,58.13585 -0.53819,0.86286 -1.03443,0.91872 -2.12494,0.23916 -1.2858,-0.80126 -1.44341,-2.65092 -1.63706,-19.21295 l -0.21428,-18.32634 -8.58572,-1.3489 c -9.89944,-1.5553 -39.8433,-9.60987 -44.43562,-11.9527 -1.70783,-0.87127 -3.25784,-1.43143 -3.44447,-1.2448 -0.18662,0.18663 2.18362,9.63023 5.26722,20.98578 6.49411,23.91502 7.16231,27.58048 5.30829,29.11918 -1.84933,1.53481 -3.68113,-0.23554 -3.68113,-3.55766 0,-3.00317 -3.55069,-17.28735 -9.6385,-38.77501 -2.30619,-8.14 -5.41548,-19.12 -6.90953,-24.4 -5.8578,-20.701662 -7.00555,-35.012358 -5.1163,-63.792893 1.15841,-17.647071 4.96089,-31.687279 9.03814,-33.372224 6.11686,-2.527829 34.18689,-3.232395 51.02619,-1.280773 5.5,0.637433 14.68,1.561873 20.4,2.054311 13.89592,1.196308 23.68174,3.161988 41.32524,8.301012 8.10597,2.361024 20.59611,5.462174 27.75587,6.891443 l 13.01775,2.598671 6.81952,-1.495173 c 3.75073,-0.822345 7.13996,-1.693221 7.53162,-1.93528 0.39166,-0.242059 0.80809,-2.944129 0.92539,-6.0046 0.43638,-11.384737 -4.40477,-13.686577 -37.7754,-17.961201 -18.95872,-2.4285258 -33.02111,-2.7809136 -67.08999,-1.6811999 -42.92528,1.3855903 -59.4306,3.3809139 -83.48397,10.0923549 -14.72885,4.109686 -15.58153,4.540451 -16.16329,8.165492 -3.15785,19.677171 -2.80512,38.018565 1.549,80.54468 3.89076,38.00062 6.253,54.07184 10.05244,68.39046 1.33028,5.01328 2.23134,9.60328 2.00236,10.2 -0.32196,0.83901 -2.82467,1.08137 -11.04144,1.06924 -21.72656,-0.0321 -51.92671,-1.60585 -69.06263,-3.59899 -27.37724,-3.18434 -38.87756,-4.20095 -53.56247,-4.73483 -14.82784,-0.53909 -92.223505,0.76925 -95.824241,1.61986 -5.91998,1.39848 -3.721207,8.24259 4.403296,13.7061 15.797155,10.62316 29.481845,12.36959 49.820955,6.35813 13.26107,-3.91947 19.62334,-4.53543 46.77901,-4.52893 23.76092,0.006 50.40762,1.82638 77.22098,5.27626 6.31673,0.81273 19.62727,1.3834 38.91883,1.66857 l 29.31884,0.43341 1.39184,-2.93309 c 1.04576,-2.20378 1.81188,-2.87313 3.08116,-2.69194 1.32086,0.18853 1.6391,0.72099 1.45905,2.44113 l -0.23028,2.2 6.23028,0.0122 c 6.84436,0.0134 8.5344,0.6152 8.09901,2.88362 -0.23977,1.24925 -1.63439,1.70749 -8.22976,2.70414 l -7.94107,1.2 -0.68993,2.66987 c -0.37946,1.46843 -0.58149,4.34843 -0.44895,6.4 l 0.24098,3.73013 17.45357,0.21576 17.45358,0.21575 -0.25358,1.78425 c -0.2524,1.77598 -0.33467,1.78524 -17.77037,2.00017 l -17.51679,0.21593 0.53297,8.2438 c 1.24323,19.2298 5.51519,38.24905 13.95387,62.12435 8.63964,24.44383 24.52283,52.81259 41.25273,73.68093 l 6.79906,8.48095 5.97448,0.45185 c 6.86384,0.51911 9.32048,1.54843 9.32048,3.90525 0,1.52551 -0.31352,1.61843 -3.8,1.12628 -2.09,-0.29501 -4.43,-0.72015 -5.2,-0.94474 -0.77,-0.22459 -1.4,-0.0947 -1.4,0.28867 0,1.08294 30.73696,31.38953 38.8,38.25671 18.53315,15.78448 38.70573,27.35121 59.21042,33.95062 6.89064,2.21774 9.49697,2.62883 18.94877,2.9887 14.27231,0.54342 15.24216,0.1469 8.60827,-3.5194 -8.46553,-4.67857 -22.20541,-14.06366 -31.16747,-21.28908 -21.31205,-17.18229 -53.68345,-53.13877 -72.29746,-80.30432 -14.75524,-21.534 -28.68951,-48.15114 -34.42911,-65.76624 -7.09644,-21.77932 -12.8959,-58.4664 -11.08233,-70.10619 0.51472,-3.30353 0.9354,-4.04451 2.41607,-4.25564 1.76682,-0.25192 1.79284,-0.12388 1.79284,8.82389 0,15.00773 3.41997,37.79198 8.49276,56.5798 3.85543,14.2791 14.52289,38.20087 16.66791,37.37775 0.59133,-0.22691 4.26208,0.78609 8.15723,2.25113 10.23915,3.85112 28.46006,8.14268 42.26357,9.9543 6.58981,0.86487 12.12404,1.42994 12.29828,1.2557 0.17424,-0.17424 -0.62276,-3.66258 -1.77112,-7.75187 -2.42936,-8.651 -4.50864,-18.33652 -4.50864,-21.00177 0,-1.02416 0.49614,-2.05248 1.10252,-2.28518 1.37733,-0.52853 2.89748,0.92194 2.89748,2.76468 0,0.76603 0.35458,1.61193 0.78796,1.87977 0.72586,0.44861 0.60486,-1.38691 -0.42139,-6.39255 -0.18047,-0.88027 -2.49589,-2.98912 -5.14729,-4.68808 -3.10305,-1.98835 -4.81928,-3.62648 -4.81928,-4.6 0,-2.05203 2.71117,-1.96896 5.72256,0.17535 1.30326,0.928 2.53517,1.52166 2.73759,1.31925 0.87523,-0.87524 -6.88491,-31.18717 -8.40349,-32.82488 -0.31535,-0.3401 -1.93914,-0.0477 -3.6084,0.64975 -3.47014,1.44992 -5.24826,1.08413 -5.24826,-1.07966 0,-1.05835 0.9523,-1.78379 3.2423,-2.46989 1.78326,-0.53428 3.42102,-1.43717 3.63947,-2.00644 0.48327,-1.25937 -3.02173,-10.21351 -9.35283,-23.89352 -2.60091,-5.61997 -4.72894,-10.69474 -4.72894,-11.27729 0,-1.24164 -17.02106,-9.47509 -28.10859,-13.59673 -22.43898,-8.34139 -44.17996,-10.54361 -59.8914,-6.06662 -9.46341,2.69661 -11.2,2.83922 -11.2,0.91972 0,-1.26289 1.06559,-1.97393 4.89753,-3.268 2.69364,-0.90966 5.33247,-2.24873 5.86406,-2.97573 0.8525,-1.16587 3.31834,-1.3266 20.90246,-1.36254 16.46077,-0.0336 22.02775,0.26405 31.93595,1.70771 23.99764,3.49655 31.46256,6.15589 56.24884,20.0384 4.97687,2.78749 9.15724,4.94014 9.28971,4.78367 0.13248,-0.15646 2.08694,-3.88448 4.34325,-8.28448 5.53667,-10.79692 13.64968,-22.325 15.94418,-22.65564 1.58888,-0.22896 1.77401,0.0919 1.77401,3.0749 0,2.6269 -0.32889,3.41654 -1.55676,3.73764 -2.05084,0.5363 -8.51712,9.99566 -13.14213,19.22527 l -3.69925,7.38216 2.19907,1.3519 c 21.95922,13.49953 36.90778,26.36994 50.39328,43.3876 l 1.50866,1.90382 3.2821,-2.0719 c 5.10156,-3.22047 7.03895,-3.45342 8.62243,-1.03673 1.82094,2.77911 2.54278,8.46653 1.18135,9.30795 -1.7276,1.0677 -3.00205,0.039 -3.54636,-2.86238 -0.58248,-3.10489 -1.81324,-3.43441 -4.55008,-1.21824 l -1.88496,1.52634 2.59487,3.47366 c 6.99725,9.36698 18.59829,27.64076 22.71819,35.78534 5.52507,10.92246 8.63771,19.30793 12.24999,33.00156 l 2.69975,10.23437 6.46493,6.2935 c 6.37963,6.21048 7.66394,8.54899 5.21187,9.48994 -0.81708,0.31355 -2.37597,-0.68779 -4.48049,-2.87796 -1.77508,-1.84733 -3.35982,-3.2264 -3.52164,-3.06458 -0.16181,0.16182 0.41874,2.6156 1.29012,5.45285 5.50173,17.91397 5.44497,41.71912 -0.16205,67.95864 -3.06179,14.32841 -9.33795,26.71874 -15.06041,29.73213 -3.89144,2.04918 -8.83363,1.79145 -17.04613,-0.88894 z m 16.08899,-3.71191 c 5.59588,-3.9195 11.14821,-18.95305 14.15688,-38.33128 1.54809,-9.97097 2.3598,-31.33486 1.4134,-37.2 -0.5937,-3.67938 -0.79376,-1.84506 -1.22154,11.2 -0.59045,18.00577 -1.8937,26.42801 -5.76585,37.26184 -4.77707,13.36565 -11.07197,21.5018 -19.23224,24.85768 -1.98,0.81426 -3.60134,1.72544 -3.60299,2.02484 -0.009,1.68008 11.89761,1.83624 14.25234,0.18692 z m -9.91497,-7.50424 c 9.61418,-5.98026 16.45025,-20.38402 18.99696,-40.02704 1.43676,-11.08189 1.21761,-36.83615 -0.40843,-48 -1.10514,-7.58757 -1.65408,-9.46083 -3.13202,-10.68822 -2.35106,-1.95248 -10.13245,-5.85812 -16.2863,-8.17442 -5.13851,-1.93412 -18.55741,-4.7572 -19.26222,-4.05239 -0.22473,0.22472 0.16746,2.70554 0.87152,5.51292 1.48136,5.90676 1.63489,14.21475 0.43894,23.75264 -1.03501,8.25438 -1.48598,9.1265 -5.56271,10.75768 -6.67172,2.6695 -13.07094,1.65081 -19.68418,-3.13351 -1.6369,-1.18421 -1.70322,-1.11072 -2.18779,2.42461 -1.90733,13.91547 -15.28999,36.23243 -17.8019,29.6865 -0.23516,-0.61281 1.0426,-3.04281 2.83948,-5.4 6.05428,-7.9422 11.19339,-21.02908 11.22646,-28.58853 0.01,-2.22197 -0.87756,-3.64947 -4.98818,-8.02521 -12.06229,-12.84029 -20.56014,-24.25036 -23.69196,-31.81124 l -0.96524,-2.33032 -14.1714,-1.75802 c -15.74606,-1.95335 -29.3402,-5.01096 -41.32266,-9.29431 -4.37319,-1.56328 -8.05409,-2.7395 -8.17977,-2.61382 -0.38137,0.38138 11.88272,21.30221 16.49352,28.13564 7.3999,10.96701 17.07231,23.52718 27.72309,36 12.30936,14.41512 36.50238,38.82249 45.91442,46.32125 9.2611,7.37849 26.18702,18.55979 34.19829,22.59145 l 6.59828,3.32059 4.94208,-1.53815 c 2.71814,-0.84598 6.04892,-2.22663 7.40172,-3.0681 z m -375.4562,-35.52564 c -0.50147,-0.60423 -0.71534,-1.61046 -0.47528,-2.23607 0.48631,-1.26728 16.70784,-11.60764 25.99112,-16.56794 3.3,-1.76327 9.06,-4.10736 12.8,-5.20909 l 6.8,-2.00314 -14.36627,-0.0426 -14.36626,-0.0426 -2.99808,2.92754 c -2.55171,2.49168 -3.18473,2.77264 -4.25175,1.88709 -1.13566,-0.94251 -1.13639,-1.21947 -0.008,-2.94195 1.58484,-2.41879 2.18896,-2.25523 -14.12972,-3.82557 -24.52111,-2.35967 -49.72859,-7.42062 -64.52106,-12.95402 -11.235221,-4.20288 -29.708644,-12.85055 -32.927629,-15.41404 -7.93889,-6.32226 -8.34422,-16.89148 -1.214894,-31.67909 5.401199,-11.20314 14.705198,-20.1297 27.18367,-26.08091 8.501373,-4.05445 15.753603,-5.30649 36.400003,-6.28417 37.05307,-1.75458 46.12667,-1.92439 46.77499,-0.87537 1.59577,2.58201 -1.36822,3.09518 -23.175,4.0124 -40.26047,1.6934 -44.25596,2.05682 -52.322,4.7592 -9.291649,3.11298 -16.192209,7.49928 -22.773577,14.47588 -8.787911,9.31565 -14.645121,24.04299 -12.593032,31.66387 1.409653,5.23506 4.948993,7.78167 21.014968,15.12064 17.950661,8.1999 28.534311,11.36376 50.772651,15.17793 16.49659,2.82938 45.41073,6.09971 46.52595,5.26232 0.31628,-0.23749 1.93966,-2.13022 3.60752,-4.20607 4.5043,-5.60611 7.13348,-11.95943 7.59009,-18.34114 0.42915,-5.99791 1.68205,-8.0236 3.84987,-6.22447 1.01159,0.83954 1.1667,1.96658 0.7567,5.49795 -0.86331,7.4357 -2.68468,12.52981 -6.44242,18.01856 -1.9727,2.88141 -3.58672,5.44911 -3.58672,5.706 0,0.79594 37.08679,-0.14107 39.09271,-0.98769 1.71754,-0.72491 1.484,-0.89029 -2.52368,-1.78717 -10.03323,-2.24534 -15.21328,-8.30853 -18.5459,-21.70776 -3.42388,-13.76611 -9.4177,-35.56024 -9.93837,-36.13687 -0.26661,-0.29528 -12.72476,-0.92993 -27.68476,-1.41034 -26.10668,-0.83836 -48.39871,-2.07462 -52.19999,-2.89487 -1.13019,-0.24388 -1.8,-0.97813 -1.8,-1.97316 0,-1.90659 0.45786,-1.92445 20.17308,-0.78711 18.19386,1.04958 59.21023,2.4857 59.60882,2.08711 0.17213,-0.17214 -1.37353,-6.02163 -3.43482,-12.99887 -2.06128,-6.97724 -4.74499,-16.63064 -5.9638,-21.452 l -2.21601,-8.7661 -3.88364,0.20255 c -18.98109,0.98995 -57.6961,8.37502 -99.883633,19.05325 -27.032118,6.84219 -47.230595,13.72203 -66.397525,22.61578 -14.5820585,6.76631 -15.9681791,11.01074 -7.650184,23.42561 13.527017,20.18951 48.255944,41.72548 90.447712,56.08811 8.73691,2.97416 47.57403,13.83941 60.79999,17.00968 9.10905,2.18345 13.4503,2.48472 12.08416,0.83863 z m -59.01549,-53.75518 c -0.26462,-0.68957 -0.16331,-1.5587 0.22511,-1.93141 1.02868,-0.98703 21.10579,-7.80386 29.50623,-10.01832 16.42962,-4.33105 34.56693,-6.79649 49.99917,-6.79649 6.73627,0 8.72575,0.25045 9.06768,1.14151 0.82036,2.13782 -1.46061,2.64036 -14.26686,3.14323 -21.53786,0.84573 -36.86905,3.82925 -59.93044,11.66273 -6.56175,2.22889 -12.42305,4.05253 -13.02511,4.05253 -0.60206,0 -1.31116,-0.5642 -1.57578,-1.25378 z m 90.0082,51.95046 c 16.95489,-4.88547 53.7391,-22.56675 61.32313,-29.47654 l 3.2,-2.91551 -12,0.43734 c -6.6,0.24054 -12.99,0.442 -14.2,0.44768 -1.42716,0.006 -2.2,0.43603 -2.2,1.22211 0,0.66646 -1.17,1.95262 -2.6,2.85813 l -2.6,1.64637 9.58103,-0.25813 c 8.60041,-0.23172 9.6094,-0.11508 9.85821,1.13954 0.41611,2.09818 -2.94321,3.00233 -11.15497,3.00233 -17.1968,0 -31.82256,2.98409 -42.68427,8.70886 -9.59958,5.05955 -22,12.80395 -22,13.73959 0,1.34165 20.44231,0.89892 25.47687,-0.55177 z m 63.72313,-36.96625 c 4.70694,-0.52015 4.8349,-0.59964 6.6,-4.09994 2.41454,-4.78819 2.34925,-6.43049 -0.25564,-6.43049 -1.67419,0 -2.0082,-0.33402 -1.8,-1.8 0.22618,-1.59259 0.71657,-1.8 4.25564,-1.8 3.88826,0 4.00675,0.0693 4.24183,2.48132 0.13302,1.36472 -0.48845,4.40326 -1.38101,6.75231 -0.89257,2.34905 -1.50886,4.38499 -1.36954,4.52431 0.13932,0.13933 24.6357,0.16079 54.4364,0.0477 l 54.18309,-0.20562 -4.06829,-5.06906 C 353.3542,333.89355 331.0803,279.27488 328.201,235.2 l -0.60101,-9.2 -10,0.14765 c -11.38818,0.16815 -24.44012,1.63851 -45.2,5.09201 -27.76371,4.61862 -55.44264,7.15187 -78.2,7.15709 -7.81,0.002 -14.2,0.16268 -14.2,0.35753 0,0.19484 0.69467,1.54485 1.5437,3 3.95113,6.7718 9.1864,22.94341 13.28782,41.04573 1.19628,5.28 5.14148,19.5 8.76712,31.6 3.62563,12.1 8.52447,29.37386 10.88629,38.38636 4.70444,17.9517 6.28216,21.10113 12.35228,24.65749 3.12485,1.8308 3.36915,1.84681 20.36279,1.33502 9.46,-0.28491 19.36,-0.7567 22,-1.04844 z m 254.36662,-0.26078 c 2.87766,-1.31116 3.72892,-5.28551 3.89398,-18.18021 0.12479,-9.74864 -0.0475,-11.29437 -1.64448,-14.75468 l -1.78387,-3.86523 -10.72995,0.56862 -10.72994,0.56862 -1.37414,-2.0972 c -2.31483,-3.53287 0.36931,-6.25633 3.28872,-3.33691 0.92539,0.92539 2.55807,1.07148 7.74285,0.69282 3.61361,-0.26391 7.04155,-0.72787 7.61764,-1.03101 1.91991,-1.01027 -9.27806,-10.42115 -26.93264,-22.63447 -19.02001,-13.15792 -21.4198,-14.13258 -21.8665,-8.88103 -0.20751,2.43955 -1.67255,4.35049 -3.61213,4.71152 -0.20573,0.0383 2.30657,9.66708 4.11453,15.76951 l 1.36284,4.6 h 13.45764 c 10.5136,0 13.54768,0.23463 13.86921,1.07254 1.00472,2.61825 -0.75171,3.09898 -12.89528,3.5294 l -12.05247,0.42719 2.26692,4.49076 c 3.00401,5.9509 8.69674,13.46939 16.01623,21.15291 5.55992,5.83643 6.02874,6.15431 6.73668,4.56775 1.31956,-2.95723 3.18668,-1.58383 4.07181,2.99511 0.84164,4.35389 2.76801,6.56544 8.17577,9.38612 2.69486,1.40564 8.19375,1.52947 11.00658,0.24787 z m 38.01715,-34.30145 c -2.15109,-4.21648 -12.70169,-23.2294 -15.76151,-28.40334 -7.007,-11.84836 -25.30536,-37.09777 -27.40786,-37.81939 -1.04154,-0.35748 -8.63642,4.92209 -19.28794,13.40793 -4.99467,3.97916 -10.62004,7.86748 -12.50084,8.64072 -1.88079,0.77323 -3.42098,1.6541 -3.42263,1.95748 -0.002,0.30339 6.52741,5.13051 14.50903,10.72694 15.23151,10.67982 22.59177,16.7441 26.51001,21.84218 2.24605,2.92237 2.60768,3.08082 8.08851,3.54413 6.80441,0.57518 17.71238,3.6072 24.68417,6.86132 2.7529,1.28492 5.2826,2.36719 5.62154,2.40503 0.33894,0.0378 -0.12568,-1.38551 -1.03248,-3.163 z m -2.02388,-16.84737 c -5.00442,-14.15771 -14.49674,-30.82912 -28.12563,-49.39717 l -4.70703,-6.41288 -2.56128,1.62169 -2.56128,1.62169 2.04808,2.52292 c 11.98751,14.76681 22.11706,29.76452 31.58769,46.76843 3.26106,5.85503 6.03791,10.31941 6.17077,9.92083 0.13285,-0.39857 -0.70024,-3.38905 -1.85132,-6.64551 z m -74.3599,-31.32949 c 1.76,-0.88737 7.7,-5.08272 13.2,-9.32302 5.5,-4.24028 11.52231,-8.78032 13.38292,-10.08897 1.86061,-1.30864 3.39061,-2.59019 3.4,-2.8479 0.009,-0.25769 -4.39292,-4.83585 -9.78292,-10.17367 -9.71668,-9.62262 -20.44013,-18.95418 -26.6,-23.14735 -1.76,-1.19807 -4.77399,-3.3496 -6.69775,-4.78117 -1.92377,-1.43158 -3.7949,-2.41922 -4.15809,-2.19475 -0.36318,0.22446 -1.61258,3.54852 -2.77644,7.3868 -1.16386,3.83828 -2.8367,8.15617 -3.71744,9.59531 l -1.60132,2.61663 2.88535,10.18337 c 2.93149,10.34626 6.83321,26.79944 6.87313,28.98338 0.0121,0.66 1.72532,2.35148 3.80725,3.75884 4.22429,2.85557 6.17537,2.86096 11.78531,0.0325 z m 36.61764,-26.39532 2.21764,-1.79602 -5.47931,-6.4 C 511.74737,252.44739 501.69573,242.96277 493.3157,236.5836 485.62378,230.72824 473.77894,223.2 472.25811,223.2 c -0.87778,0 -2.65813,2.96192 -2.65813,4.42228 0,0.17496 2.25,1.83432 5,3.68748 12.09345,8.14945 31.40761,24.75257 39.44856,33.91133 2.50076,2.8484 4.77287,5.17712 5.04914,5.17494 0.27626,-0.002 1.50024,-0.81218 2.71994,-1.8 z m -59.76512,-32.6108 c 1.13542,-3.59423 1.94759,-6.65179 1.80481,-6.79456 C 463.37225,228.7056 446.39866,218.4 446.08482,218.4 c -0.17165,0 2.11526,5.67 5.08203,12.6 2.96676,6.93 5.65565,13.32001 5.97531,14.20001 0.54633,1.50399 0.64915,1.47159 1.71358,-0.53991 0.6228,-1.17694 2.06134,-5.08063 3.19676,-8.67487 z m -242.05251,-2.76037 c 20.19074,-1.43021 33.58395,-2.97269 49.2,-5.66629 18.68984,-3.2238 34.17061,-5.11091 46.63057,-5.68428 6.28681,-0.2893 11.56913,-0.75021 11.73848,-1.02422 0.16936,-0.27403 0.39783,-3.00739 0.50772,-6.07415 l 0.19979,-5.57592 -4.33828,0.25552 c -2.38606,0.14053 -14.23828,1.14927 -26.33828,2.24164 -15.98339,1.44297 -31.51718,2.19473 -56.8,2.74886 -43.40398,0.95129 -58.64555,1.7897 -70.61564,3.88443 -12.05917,2.11033 -33.54367,7.21568 -34.58435,8.21827 -1.075,1.03564 3.14904,4.43456 6.8,5.47168 8.25272,2.34435 51.93597,3.02237 77.59999,1.20446 z m 247.06023,-10.7678 0.81676,-2.34294 -10.5385,-5.96454 c -12.59734,-7.12979 -17.37779,-9.57694 -17.8283,-9.12644 -0.18412,0.18412 0.15788,1.50639 0.75999,2.93839 0.8774,2.08671 3.38144,3.9979 12.61228,9.6262 6.33465,3.86242 11.93232,7.06525 12.43927,7.11742 0.50696,0.0522 1.28928,-0.95947 1.7385,-2.24809 z M 434.1305,204.68318 c -1.07231,-2.90035 -3.07239,-3.9115 -12.22819,-6.18205 -11.9964,-2.97498 -15.63556,-2.82291 -7.10232,0.29679 2.2,0.80432 7.42,3.01648 11.6,4.91594 4.18,1.89946 7.83872,3.4609 8.13051,3.46986 0.29177,0.009 0.11177,-1.11628 -0.4,-2.50054 z M 397.1198,109.8 c 0.28456,-17.929998 0.73128,-35.087076 0.99271,-38.126837 0.43545,-5.063062 0.7192,-5.750538 3.3814,-8.192676 5.82768,-5.345929 10.90582,-7.242078 37.05343,-13.835554 28.23293,-7.119322 37.68803,-9.613647 38.13457,-10.060193 0.16878,-0.168779 -0.54561,-0.482139 -1.58753,-0.696357 -7.92207,-1.628769 -15.47379,-3.518919 -25.0944,-6.280974 -22.64191,-6.500448 -32.82754,-8.388363 -55.19999,-10.23137 -5.72,-0.471205 -13.1,-1.176323 -16.4,-1.566929 -11.41563,-1.351214 -31.98151,-0.736882 -40.59512,1.212635 -2.10083,0.475479 -3.64174,3.725464 -5.86891,12.378256 -2.24671,8.72869 -3.76416,42.402599 -2.47019,54.816233 0.90495,8.681608 3.58211,20.763176 7.28594,32.880256 l 1.74124,5.6965 3.59984,-0.40576 c 3.1744,-0.3578 3.65247,-0.20452 4.0451,1.29691 0.33651,1.28684 1.74167,2.08681 5.75367,3.27567 11.47739,3.40102 31.23215,8.30954 37.30843,9.27013 3.52,0.55646 6.62554,1.04737 6.90121,1.09091 0.27567,0.0435 0.73404,-14.59085 1.0186,-32.52085 z"
       style="fill:#000000;stroke-width:0.8" />
  </g>
</svg>
