<?xml version="1.0" encoding="UTF-8" standalone="no"?>
<svg
   xmlns:dc="http://purl.org/dc/elements/1.1/"
   xmlns:cc="http://creativecommons.org/ns#"
   xmlns:rdf="http://www.w3.org/1999/02/22-rdf-syntax-ns#"
   xmlns:svg="http://www.w3.org/2000/svg"
   xmlns="http://www.w3.org/2000/svg"
   xmlns:sodipodi="http://sodipodi.sourceforge.net/DTD/sodipodi-0.dtd"
   xmlns:inkscape="http://www.inkscape.org/namespaces/inkscape"
   width="210mm"
   height="297mm"
   viewBox="0 0 210 297"
   version="1.1"
   id="svg8"
   inkscape:version="1.0.1 (3bc2e813f5, 2020-09-07)"
   sodipodi:docname="buildings.svg">
  <defs
     id="defs2" />
  <sodipodi:namedview
     id="base"
     pagecolor="#ffffff"
     bordercolor="#666666"
     borderopacity="1.0"
     inkscape:pageopacity="0.0"
     inkscape:pageshadow="2"
     inkscape:zoom="0.41828931"
     inkscape:cx="62.988862"
     inkscape:cy="502.4224"
     inkscape:document-units="mm"
     inkscape:current-layer="layer1"
     inkscape:document-rotation="0"
     showgrid="false"
     inkscape:window-width="943"
     inkscape:window-height="1034"
     inkscape:window-x="10"
     inkscape:window-y="34"
     inkscape:window-maximized="0" />
  <metadata
     id="metadata5">
    <rdf:RDF>
      <cc:Work
         rdf:about="">
        <dc:format>image/svg+xml</dc:format>
        <dc:type
           rdf:resource="http://purl.org/dc/dcmitype/StillImage" />
        <dc:title></dc:title>
      </cc:Work>
    </rdf:RDF>
  </metadata>
  <g
     inkscape:label="Layer 1"
     inkscape:groupmode="layer"
     id="layer1">
    <path
       style="fill:#000000;stroke-width:0.264583"
       d="m 67.506734,132.6747 c -0.274471,-0.27447 -0.207391,-1.14653 0.08819,-1.14653 0.145521,0 0.264584,0.29766 0.264584,0.66146 0,0.6927 -0.06112,0.77673 -0.352777,0.48507 z m 21.497516,-0.0704 c -0.01206,-0.0825 -0.003,-2.8654 0.02013,-6.18414 0.02588,-3.71513 -0.06007,-6.1571 -0.223663,-6.35422 -0.2682,-0.32316 -0.171358,-3.1259 0.536442,-15.52526 0.1786,-3.1287 0.330521,-7.057758 0.337604,-8.731248 l 0.01288,-3.042708 -2.906507,-0.321411 c -1.598578,-0.176776 -2.983415,-0.236307 -3.077419,-0.132292 -0.094,0.104016 -0.235132,7.849269 -0.313626,17.211679 -0.07849,9.36241 -0.211699,17.09155 -0.296019,17.17587 -0.488508,0.48851 -0.4807,1.04162 -0.26013,-18.43007 l 0.181038,-15.98164 -0.897003,0.189846 c -0.49335,0.104415 -1.294286,0.258956 -1.779855,0.343421 l -0.882857,0.153578 0.08911,8.570795 0.0891,8.57079 -2.116667,0.0607 c -2.726373,0.0781 -2.894029,0.18883 -2.634917,1.73939 0.281395,1.68389 0.284089,4.8577 0.009,10.55837 -0.205578,4.2596 -0.403566,5.44968 -0.834882,5.01836 -0.06508,-0.0651 0.0159,-3.07027 0.179991,-6.6782 0.225835,-4.96586 0.223578,-6.79195 -0.0093,-7.51493 -0.230058,-0.71426 -0.234971,-1.68886 -0.0195,-3.86548 0.15847,-1.60073 0.358969,-4.82559 0.445553,-7.16635 l 0.157425,-4.255939 -2.080654,-0.355907 c -1.14436,-0.195749 -2.555942,-0.364172 -3.13685,-0.374271 l -1.056196,-0.01836 -0.188907,1.289334 c -0.103897,0.709133 -0.249814,7.019443 -0.32426,14.022913 -0.07444,7.00347 -0.141751,13.29913 -0.149567,13.99036 -0.0078,0.69122 -0.133532,1.25677 -0.27937,1.25677 -0.303856,0 -0.172501,-27.45674 0.140144,-29.29398 l 0.189886,-1.115857 -1.421498,0.151247 c -0.781825,0.08319 -1.778688,0.235722 -2.21525,0.338965 l -0.79375,0.18772 v 9.772715 c 0,5.375 -0.09632,9.92156 -0.214053,10.10346 -0.118311,0.1828 -0.739604,0.33073 -1.389062,0.33073 h -1.175024 l -0.0084,2.84427 c -0.0076,2.55868 -0.04742,2.7927 -0.396875,2.33068 -0.306697,-0.40549 -0.388462,-1.47424 -0.388462,-5.07762 0,-2.75728 -0.104739,-4.62876 -0.264583,-4.72754 -0.336646,-0.20806 -0.340258,-4.20455 -0.0071,-7.80521 0.326294,-3.52598 0.470598,-13.639923 0.198555,-13.91632 -0.214685,-0.218122 -7.756874,-0.601252 -8.320242,-0.422653 -0.177943,0.05641 -0.384166,0.478023 -0.458273,0.936916 -0.183928,1.138931 -0.402921,14.828737 -0.406158,25.390067 -0.002,6.52175 -0.07906,8.6335 -0.309845,8.49087 -0.230856,-0.14268 -0.266208,-4.49158 -0.142279,-17.50259 0.155037,-16.276847 0.137797,-17.301534 -0.28813,-17.125477 -0.249168,0.102991 -0.813021,0.273981 -1.253007,0.37997 -0.439986,0.105992 -1.063717,0.333862 -1.386068,0.506381 l -0.586093,0.313666 -0.06914,10.64177 -0.06914,10.64177 -0.859895,0.0829 c -0.918899,0.0886 -1.193971,-0.3307 -0.360018,-0.54878 0.752127,-0.19669 0.835336,-1.56404 0.759926,-12.48761 l -0.0675,-9.778476 2.512704,-0.883518 2.512704,-0.883515 4.233334,0.159477 c 2.328333,0.08771 4.492906,0.223229 4.810162,0.301147 0.855705,0.210158 0.984773,2.277401 0.600559,9.618951 -0.178959,3.419534 -0.402124,7.705614 -0.495923,9.524624 -0.134897,2.61601 -0.09421,3.40046 0.19468,3.75304 0.25821,0.31513 0.338408,1.01286 0.273706,2.38125 l -0.09152,1.9355 0.956161,0.08 c 0.938894,0.0785 0.959464,0.0594 1.139054,-1.05833 0.100592,-0.62607 0.159958,-5.28316 0.131926,-10.3491 -0.03122,-5.64182 0.04804,-9.309795 0.20455,-9.466307 0.140535,-0.140536 1.734488,-0.440309 3.542122,-0.666162 2.664637,-0.332931 3.731927,-0.35446 5.639782,-0.113766 3.507621,0.442524 3.335364,0.227026 3.335364,4.172646 0,1.842559 -0.132075,4.702709 -0.293497,6.355869 -0.161422,1.65317 -0.23835,3.06091 -0.170947,3.12831 0.0674,0.0674 0.990674,0.0419 2.051719,-0.0567 l 1.929172,-0.1793 -0.17712,-8.62354 c -0.09742,-4.74294 -0.08097,-8.767422 0.03655,-8.943288 0.117517,-0.175865 1.275662,-0.56738 2.573655,-0.870032 2.107173,-0.491328 2.666328,-0.521673 5.219668,-0.28327 1.572827,0.146851 3.079467,0.38463 3.348094,0.528394 0.443759,0.237492 0.482393,0.594963 0.422621,3.910316 -0.03618,2.006913 -0.197702,5.67299 -0.358931,8.14684 -0.161229,2.47386 -0.304628,5.15276 -0.318667,5.95313 -0.01405,0.80036 -0.140554,3.34348 -0.281149,5.65137 -0.215167,3.53203 -0.193773,4.32768 0.135168,5.02708 0.326819,0.69491 0.353232,1.56721 0.161348,5.32884 -0.367572,7.20582 -0.384093,6.96413 0.472842,6.91818 1.196179,-0.0641 1.084181,0.47788 -0.132291,0.64023 -0.618464,0.0825 -1.134346,0.0825 -1.146408,0 z M 64.949094,97.132369 c 0.590325,-0.189056 0.554757,-0.214673 -0.330729,-0.23821 -0.545703,-0.0145 -0.992188,0.09269 -0.992188,0.23821 0,0.302887 0.377151,0.302887 1.322917,0 z m 9.392709,0 c -0.08994,-0.145521 -0.424387,-0.256215 -0.74322,-0.245986 -0.558895,0.01794 -0.56071,0.02676 -0.05053,0.245986 0.72826,0.312944 0.98716,0.312944 0.79375,0 z m -1.918229,-0.439812 c -0.181902,-0.0734 -0.479558,-0.0734 -0.661459,0 -0.181901,0.0734 -0.03307,0.133453 0.330729,0.133453 0.363802,0 0.512631,-0.06005 0.33073,-0.133453 z m 8.824537,-4.715515 c 1.789261,-0.466045 2.268381,-0.792478 0.766609,-0.522304 -1.012542,0.182161 -2.847319,0.848524 -2.460305,0.893549 0.102042,0.01188 0.864203,-0.155192 1.693696,-0.371245 z m 8.186386,-0.117822 c -0.08364,-0.135337 -0.834808,-0.316621 -1.669259,-0.402854 -0.834451,-0.08623 -2.0232,-0.21135 -2.641664,-0.278038 -0.618463,-0.06669 -1.124479,-0.01886 -1.124479,0.106291 0,0.125148 1.041797,0.343612 2.315104,0.485474 3.250478,0.36214 3.289724,0.363262 3.120298,0.08913 z m -29.77707,-0.812268 c 0,-0.148069 -0.611698,-0.246279 -1.389062,-0.223017 l -1.389063,0.04157 1.322917,0.181449 c 0.727604,0.0998 1.352682,0.200155 1.389062,0.223017 0.03638,0.02286 0.06615,-0.0775 0.06615,-0.223017 z m -5.619311,-0.446373 c -0.252965,-0.06622 -0.729215,-0.06862 -1.058334,-0.0053 -0.329118,0.06329 -0.122147,0.11747 0.459936,0.120407 0.582084,0.0029 0.851363,-0.04885 0.598398,-0.115068 z m 28.638062,40.149491 c 0,-0.28245 0.119063,-0.58714 0.264584,-0.67708 0.150061,-0.0927 0.264583,0.12955 0.264583,0.51356 0,0.37239 -0.119063,0.67707 -0.264583,0.67707 -0.145521,0 -0.264584,-0.2311 -0.264584,-0.51355 z M 71.065814,115.05789 c -0.02746,-1.33453 -0.09629,-1.52135 -0.56047,-1.52135 -0.566314,0 -0.605425,0.12098 -0.534569,1.65364 0.02522,0.5457 -0.06927,0.99219 -0.210003,0.99219 -0.288761,0 -0.488614,-1.3499 -0.362333,-2.4474 0.07551,-0.65624 0.18579,-0.7276 1.124479,-0.7276 1.031833,0 1.040492,0.009 1.009457,0.99219 -0.01722,0.5457 -0.122195,1.34937 -0.233281,1.78593 -0.166227,0.65327 -0.207515,0.5245 -0.23328,-0.7276 z m 14.997446,-4.98781 c -0.09188,-1.94941 -0.546248,-2.2573 -0.741248,-0.50229 -0.180721,1.6265 -0.662763,1.51383 -0.566034,-0.1323 0.08996,-1.53095 0.270026,-1.79783 1.130829,-1.67604 0.573564,0.0811 0.632495,0.22992 0.70562,1.78146 0.04388,0.93111 -0.03927,1.81198 -0.184793,1.9575 -0.17639,0.17639 -0.291179,-0.29972 -0.344374,-1.42833 z m -33.361809,-0.17157 c -0.0801,-0.69122 -0.03626,-1.36967 0.09742,-1.50765 0.359192,-0.37079 2.130329,-0.25263 2.39155,0.15954 0.314984,0.49701 0.290641,2.3403 -0.03091,2.3403 -0.145521,0 -0.264583,-0.46823 -0.264583,-1.0405 0,-0.80657 -0.118438,-1.0781 -0.526799,-1.2077 -0.810661,-0.2573 -1.060701,0.0581 -1.060701,1.33778 0,1.56167 -0.422143,1.50471 -0.605976,-0.0818 z m 3.71483,1.10546 c -0.332576,-0.33764 -0.221064,-2.41095 0.14606,-2.71563 0.189473,-0.15725 0.606192,-0.21747 0.926041,-0.13383 0.51973,0.13591 0.576631,0.31051 0.53532,1.64257 -0.03995,1.28821 -0.05983,1.34068 -0.146497,0.38662 -0.105325,-1.15948 -0.747291,-2.05406 -0.985514,-1.37332 -0.06939,0.19829 -0.160096,0.8183 -0.201569,1.37779 -0.04147,0.55949 -0.1647,0.9266 -0.273841,0.8158 z m 14.281807,-1.0894 c -0.112273,-0.17307 -0.137885,-0.76839 -0.05692,-1.32292 0.14809,-1.01424 -0.196334,-1.96197 -0.575297,-1.583 -0.112014,0.11201 -0.180594,0.73364 -0.152403,1.3814 0.06004,1.37955 -0.366995,1.58012 -0.609706,0.28635 -0.284776,-1.51798 -0.07848,-2.14104 0.740064,-2.23519 0.450075,-0.0518 0.78463,0.0608 0.874189,0.29421 0.21967,0.57246 0.01437,3.54031 -0.21993,3.17915 z m 1.244772,-0.69436 c -0.08044,-0.20962 -0.109363,-0.9613 -0.06428,-1.67042 0.07483,-1.177 0.139581,-1.2893 0.743429,-1.2893 0.627653,0 0.665514,0.0857 0.740847,1.67745 0.0531,1.12203 -0.0126,1.62059 -0.198438,1.50574 -0.152805,-0.0944 -0.277826,-0.75999 -0.277826,-1.47901 0,-0.79461 -0.117131,-1.3073 -0.298669,-1.3073 -0.204814,0 -0.24434,0.40955 -0.125783,1.30328 0.166261,1.25335 -0.190034,2.11757 -0.519282,1.25956 z M 57.276177,103.2334 c 0,-1.2486 -0.08776,-1.60311 -0.396875,-1.60311 -0.293981,0 -0.396875,0.30868 -0.396875,1.19062 0,0.65484 -0.119063,1.19063 -0.264583,1.19063 -0.145521,0 -0.264584,-0.58258 -0.264584,-1.29461 0,-1.33812 0.231072,-1.61581 1.344556,-1.61581 0.447783,0 0.507528,0.20061 0.507528,1.70417 0,0.9373 -0.119063,1.77777 -0.264584,1.8677 -0.165269,0.10215 -0.264583,-0.43822 -0.264583,-1.43959 z m 28.843635,0.0349 c -0.0026,-1.04454 -0.103071,-1.60807 -0.268634,-1.50574 -0.14552,0.0899 -0.264583,0.68525 -0.264583,1.32291 0,1.11983 -0.486817,1.98023 -0.570217,1.00781 -0.200713,-2.34021 -0.17272,-2.69048 0.227275,-2.84397 0.977299,-0.37503 1.401466,0.0874 1.397225,1.52327 -0.0021,0.75417 -0.119468,1.54982 -0.260533,1.7681 -0.180599,0.27946 -0.257678,-0.097 -0.260533,-1.27238 z m -33.364806,0.56039 c -0.11578,-2.38304 -0.133177,-2.30893 0.602759,-2.56802 1.064481,-0.37477 1.537162,0.15564 1.537162,1.72491 0,0.70978 -0.119063,1.29052 -0.264583,1.29052 -0.145521,0 -0.264584,-0.52875 -0.264584,-1.17501 0,-1.27939 -0.331979,-1.69927 -0.942747,-1.19238 -0.269621,0.22377 -0.340539,0.58979 -0.229232,1.18311 0.09514,0.50713 0.04303,0.93211 -0.127176,1.0373 -0.165488,0.10228 -0.298253,-0.0257 -0.311599,-0.30043 z m 17.948776,-0.49815 c -0.109141,-0.11053 -0.198438,-0.71691 -0.198438,-1.3475 0,-1.14358 -0.328665,-1.52149 -0.63315,-0.72801 -0.08833,0.23018 -0.1606,0.76596 -0.1606,1.19063 0,0.42465 -0.125285,0.77211 -0.27841,0.77211 -0.169627,0 -0.247163,-0.54275 -0.198438,-1.38907 0.07463,-1.29633 0.128649,-1.39466 0.809083,-1.47292 0.453088,-0.0521 0.784611,0.0608 0.875721,0.2982 0.211187,0.55034 0.0205,2.91583 -0.215768,2.67656 z m 1.076735,-0.4435 c -0.0465,-0.32743 -0.04165,-1.04836 0.01077,-1.60209 0.09021,-0.95269 0.139955,-1.00244 0.926042,-0.92604 0.456893,0.0444 0.80095,0.17003 0.764569,0.27917 -0.03638,0.10914 -0.06615,0.80078 -0.06615,1.53697 0,0.82498 -0.101513,1.27579 -0.264584,1.17501 -0.145521,-0.0899 -0.264583,-0.69228 -0.264583,-1.33854 10e-6,-0.64625 -0.119052,-1.175 -0.264573,-1.175 -0.258019,0 -0.372107,0.8509 -0.274936,2.05052 0.02652,0.32742 -0.07108,0.59531 -0.216893,0.59531 -0.145814,0 -0.303165,-0.26789 -0.349665,-0.59531 z m 14.335245,-5.373412 c 0,-0.913172 -0.100314,-1.408824 -0.264584,-1.307301 -0.14552,0.08994 -0.264583,0.639771 -0.264583,1.221854 0,0.638183 -0.105037,0.993418 -0.264583,0.894813 -0.145521,-0.08994 -0.264584,-0.759717 -0.264584,-1.488398 0,-1.289227 0.01958,-1.322623 0.727605,-1.241155 0.697312,0.08024 0.730885,0.152567 0.806375,1.737365 0.04889,1.026375 -0.02638,1.653646 -0.198437,1.653646 -0.159978,0 -0.277209,-0.622006 -0.277209,-1.470824 z M 57.54076,97.270965 c 0,-1.424998 -0.02084,-1.468974 -0.559629,-1.180626 -0.454526,0.243255 -0.532334,0.467701 -0.414296,1.195086 0.07993,0.492569 0.04466,0.9578 -0.07838,1.033846 -0.123044,0.07604 -0.306438,-0.351367 -0.407543,-0.949801 -0.206977,-1.225084 0.07136,-1.650741 1.261414,-1.929085 l 0.727604,-0.17018 v 1.576924 c 0,0.86731 -0.119062,1.650511 -0.264583,1.740448 -0.164345,0.101571 -0.264584,-0.397229 -0.264584,-1.316612 z m -2.976562,0.768168 c -0.109141,-0.110665 -0.198438,-0.657614 -0.198438,-1.215446 0,-0.725154 -0.113119,-1.014235 -0.396875,-1.014235 -0.287593,0 -0.396875,0.295717 -0.396875,1.073949 0,0.648589 -0.104793,1.009182 -0.264583,0.910426 -0.145521,-0.08994 -0.264584,-0.692277 -0.264584,-1.338532 0,-1.13188 0.02944,-1.17501 0.802054,-1.17501 0.44113,0 0.86536,0.164973 0.942734,0.366607 0.205551,0.535657 0.01004,2.628974 -0.223433,2.392241 z"
       id="path847"
       sodipodi:nodetypes="sssssssssscssssscssccccssssssscsscssssscsscsssccssscssssssssscccssscccssssssccssssssssccsssssssssssccssssssssssssssssssssssssssscsssscccccscssssssssssssssscsssccsssssccssssssssssssscssssssscssssssssssssssccssscscssssssssssssssssssssssscssssssssssssssssssssscsssssssssssss" />
  </g>
</svg>
