<?xml version="1.0" encoding="UTF-8" standalone="no"?>
<svg
   xmlns:dc="http://purl.org/dc/elements/1.1/"
   xmlns:cc="http://creativecommons.org/ns#"
   xmlns:rdf="http://www.w3.org/1999/02/22-rdf-syntax-ns#"
   xmlns:svg="http://www.w3.org/2000/svg"
   xmlns="http://www.w3.org/2000/svg"
   xmlns:sodipodi="http://sodipodi.sourceforge.net/DTD/sodipodi-0.dtd"
   xmlns:inkscape="http://www.inkscape.org/namespaces/inkscape"
   sodipodi:docname="cathy.svg"
   inkscape:version="1.0 (4035a4fb49, 2020-05-01)"
   id="svg1157"
   version="1.1"
   viewBox="0 0 90.52887 57.504189"
   height="57.504189mm"
   width="90.52887mm">
  <defs
     id="defs1151" />
  <sodipodi:namedview
     inkscape:window-maximized="0"
     inkscape:window-y="34"
     inkscape:window-x="965"
     inkscape:window-height="1034"
     inkscape:window-width="943"
     fit-margin-bottom="0"
     fit-margin-right="0"
     fit-margin-left="0"
     fit-margin-top="0"
     showgrid="false"
     inkscape:document-rotation="0"
     inkscape:current-layer="layer1"
     inkscape:document-units="mm"
     inkscape:cy="128.66933"
     inkscape:cx="193.93533"
     inkscape:zoom="0.35"
     inkscape:pageshadow="2"
     inkscape:pageopacity="0.0"
     borderopacity="1.0"
     bordercolor="#666666"
     pagecolor="#ffffff"
     id="base" />
  <metadata
     id="metadata1154">
    <rdf:RDF>
      <cc:Work
         rdf:about="">
        <dc:format>image/svg+xml</dc:format>
        <dc:type
           rdf:resource="http://purl.org/dc/dcmitype/StillImage" />
        <dc:title></dc:title>
      </cc:Work>
    </rdf:RDF>
  </metadata>
  <g
     transform="translate(-54.521277,-114.12291)"
     id="layer1"
     inkscape:groupmode="layer"
     inkscape:label="Layer 1">
    <path
       style="fill:#000000;stroke-width:0.264583"
       d="m 78.193187,171.24159 c -0.0682,-0.21828 -0.17595,-0.56548 -0.23947,-0.77157 -0.0635,-0.20608 -0.002,-1.18835 0.13775,-2.18281 0.26022,-1.85811 1.26346,-4.27005 3.0295,-7.28333 0.879991,-1.50148 0.949441,-1.76449 0.794131,-3.00757 -0.323951,-2.59276 -0.1762,-10.77219 0.25301,-14.0068 0.70766,-5.333 2.432338,-12.11574 4.074628,-16.0245 0.44672,-1.06323 0.769422,-1.97594 0.717111,-2.02825 -0.12746,-0.12746 -1.183299,1.70626 -2.47269,4.29443 -1.292698,2.59479 -2.633721,5.97487 -4.30384,10.84791 l -1.26951,3.70416 -0.29335,7.80521 c -0.16773,4.46254 -0.4544,8.59838 -0.66939,9.65729 -0.44504,2.19195 -1.68617,6.24579 -2.01973,6.59694 -0.53152,0.55956 -0.44461,-0.13767 0.30943,-2.48245 1.35143,-4.20244 1.70097,-6.9831 1.94736,-15.49157 0.084,-2.90038 0.0421,-4.30997 -0.11783,-3.96875 -0.13645,0.29104 -0.71866,1.71979 -1.2938,3.175 -0.57514,1.45521 -1.283,3.24114 -1.57302,3.96875 -0.29001,0.7276 -0.65013,2.14973 -0.80024,3.1603 -0.19625,1.32108 -0.65757,2.59802 -1.64175,4.54435 -1.32991,2.63004 -1.36581,2.76017 -1.26305,4.57876 0.0989,1.74936 -0.0424,2.25167 -0.44843,1.5947 -0.0942,-0.1524 -0.17125,-1.10545 -0.17125,-2.11788 0,-1.67433 0.10629,-2.03809 1.17529,-4.02239 1.20403,-2.23495 1.6209,-3.33418 1.88086,-4.95972 l 0.1481,-0.92604 -0.71888,0.90205 c -0.39539,0.49613 -1.47338,1.80582 -2.39554,2.91042 -2.11387,2.5321 -2.71214,3.69301 -2.74955,5.3354 -0.0163,0.71674 -0.12042,1.30317 -0.23131,1.30317 -0.3223,0 -0.53583,-0.9531 -0.38026,-1.69729 0.0786,-0.37618 0.20398,-0.97843 0.27854,-1.33833 0.0745,-0.3599 1.31866,-2.13745 2.76467,-3.95011 l 2.62913,-3.29574 -1.04565,-0.94468 c -0.57511,-0.51957 -1.14542,-0.94468 -1.26737,-0.94468 -0.12194,0 -0.37265,0.67446 -0.55713,1.4988 -0.18448,0.82434 -0.93353,2.64004 -1.66456,4.0349 -1.10641,2.11109 -1.35142,2.83538 -1.46203,4.32203 -0.13665,1.83647 -0.55979,2.45761 -0.63085,0.92604 -0.085,-1.83181 0.11246,-2.5382 1.46065,-5.22552 0.76657,-1.52797 1.54732,-3.5065 1.73501,-4.39673 0.32572,-1.54494 0.31446,-1.64943 -0.24758,-2.29583 -0.32386,-0.37247 -0.96186,-0.82043 -1.41778,-0.99546 -0.4589,-0.17619 -2.50285,-2.02256 -4.57876,-4.13616 -3.67584,-3.74259 -3.76793,-3.81451 -4.66849,-3.64556 -1.3141,0.24653 -1.99523,-0.20981 -2.19705,-1.47194 -0.10105,-0.63189 -0.31247,-1.04999 -0.53096,-1.04999 -1.2341,0 -1.83691,-2.23974 -1.02289,-3.80055 0.5151,-0.98765 0.4997,-1.1375 -0.13392,-1.30319 -0.39715,-0.10386 -0.52917,-0.3609 -0.52917,-1.03032 0,-2.12959 2.851,-4.59964 6.19946,-5.37109 1.09689,-0.25271 1.3497,-0.42862 1.5875,-1.10466 0.15556,-0.44224 0.4912,-1.00914 0.74586,-1.25978 0.25466,-0.25063 0.46302,-0.5608 0.46302,-0.68926 0,-0.52233 2.47286,-2.10989 3.28647,-2.10989 2.46614,0 2.81609,2.29419 0.76094,4.98862 l -0.69871,0.91606 2.36055,2.20791 c 1.2983,1.21435 3.09533,2.73276 3.99341,3.37427 l 1.63286,1.16636 0.31711,-1.32187 c 0.71135,-2.96521 3.46422,-9.14066 5.42779,-12.17604 2.275511,-3.51758 4.894741,-6.03574 7.790409,-7.48981 0.80037,-0.4019 1.514743,-0.80639 1.5875,-0.89886 0.304472,-0.38694 2.795892,-0.82081 4.71338,-0.82081 1.132981,0 2.173071,-0.11011 2.31131,-0.24469 0.138243,-0.13459 1.144321,-0.36583 2.235732,-0.51389 1.544732,-0.20954 2.453332,-0.18299 4.101042,0.11984 4.43982,0.81599 5.28877,0.92822 5.88656,0.77818 0.57059,-0.14321 2.6752,0.31026 2.97699,0.64143 0.0728,0.0798 0.80008,0.47839 1.61627,0.88565 1.96186,0.97892 4.71279,3.68618 5.87179,5.77855 1.86108,3.35988 3.24879,7.43854 4.00509,11.77147 0.21979,1.25919 0.44524,2.33504 0.501,2.3908 0.26309,0.26309 4.94674,-2.91667 7.55711,-5.13059 l 0.89814,-0.76174 -1.36116,-0.97789 c -1.11567,-0.80153 -1.36116,-1.12022 -1.36116,-1.76705 0,-0.94728 0.62359,-1.19209 3.04271,-1.19452 1.97675,-0.002 3.01918,0.50389 3.70417,1.79755 0.42923,0.81065 0.6291,0.96317 1.05833,0.80764 0.70429,-0.2552 3.1949,-0.25919 4.43111,-0.007 0.7302,0.1489 1.10114,0.41415 1.40739,1.00638 0.55196,1.06737 0.56253,2.27715 0.0246,2.81508 -0.405,0.405 -0.38218,0.49333 0.32068,1.24079 1.05376,1.12064 1.39036,2.2363 0.93622,3.10306 -0.19643,0.3749 -0.53766,0.75091 -0.75828,0.83558 -0.31233,0.11984 -0.36491,0.41823 -0.23752,1.34767 0.15091,1.10097 0.0971,1.25587 -0.69201,1.99303 l -0.85563,0.79928 -0.73176,-0.52106 c -0.72829,-0.51859 -0.73695,-0.51856 -1.82226,0.006 -0.59977,0.28978 -1.28275,0.8203 -1.51775,1.17894 -0.23499,0.35865 -0.86142,0.91641 -1.39206,1.23947 -1.71532,1.04432 -4.75352,3.41068 -5.14383,4.00637 -0.20886,0.31876 -0.72324,0.75232 -1.14307,0.96346 -0.41983,0.21114 -1.3133,0.77435 -1.98548,1.25157 l -1.22214,0.86768 0.636,2.45028 c 0.69075,2.66119 1.12398,3.43545 3.34503,5.97809 1.60616,1.83872 2.21907,3.5016 1.82039,4.93885 -0.23279,0.83917 -1.10818,1.27251 -1.10818,0.54858 0,-0.22895 0.11906,-0.41627 0.26458,-0.41627 0.42382,0 0.30511,-2.06433 -0.17192,-2.98971 -0.24007,-0.46571 -1.08456,-1.56113 -1.87664,-2.43425 -1.70637,-1.88098 -2.31914,-2.99788 -2.86711,-5.22591 -0.22364,-0.90929 -0.45692,-1.80573 -0.5184,-1.99209 -0.0753,-0.2282 -0.54501,-0.0122 -1.43861,0.66146 -1.55027,1.16875 -1.56476,1.39596 -0.26448,4.148 0.98372,2.08204 2.70395,4.26366 4.15471,5.26903 0.95314,0.66053 1.65953,1.64436 1.65953,2.31133 0,0.52943 -0.47942,0.22176 -0.63781,-0.40932 -0.0913,-0.3638 -0.28984,-0.66146 -0.44117,-0.66146 -0.15134,0 -0.20727,0.10985 -0.12429,0.24412 0.40753,0.65939 0.63885,2.95304 0.37436,3.71178 -0.45592,1.30784 -0.76287,0.92524 -0.58938,-0.73462 0.20814,-1.99139 -0.40724,-3.44255 -2.28028,-5.37719 -0.75398,-0.77878 -1.76324,-1.95175 -2.2428,-2.60659 -1.13079,-1.54412 -4.44296,-7.87953 -5.18717,-9.92187 -0.96962,-2.66094 -1.12425,-2.4389 -0.95335,1.3689 0.21979,4.89698 0.84825,6.63126 4.32491,11.9349 0.79005,1.20522 1.60841,2.6787 1.81859,3.27441 0.48111,1.36361 0.51964,3.75234 0.058,3.59847 -0.20194,-0.0673 -0.29534,-0.50657 -0.24777,-1.1653 0.10412,-1.44217 -0.45767,-2.71898 -3.04636,-6.92357 -2.99018,-4.85669 -3.27742,-5.83686 -3.50358,-11.95552 -0.17755,-4.80366 -0.20699,-4.99332 -1.5814,-10.18646 -1.87593,-7.08804 -4.10379,-13.9607 -5.10321,-15.7427 -1.71125,-3.0512 -4.78716,-6.40166 -6.91123,-7.52814 -1.37484,-0.72913 -1.77194,-0.82087 -1.77194,-0.40936 0,0.14552 0.2199,0.26458 0.48868,0.26458 0.47603,0 0.97899,0.35499 2.50284,1.76652 3.25518,3.01523 6.90225,13.35185 7.53715,21.362 l 0.18696,2.35873 0.75921,0.0326 c 1.18871,0.0511 2.01891,1.20817 2.01891,2.81377 0,1.37813 -0.51725,2.93685 -1.23936,3.73477 -0.39633,0.43795 -0.34393,0.55724 0.76604,1.74387 1.26657,1.35407 1.78687,3.02251 1.32876,4.26091 -0.14275,0.38589 -0.007,1.69141 0.38364,3.68562 0.69054,3.52652 0.80094,3.82587 2.21822,6.01531 1.10052,1.70009 1.76239,4.07454 1.46549,5.25745 -0.3169,1.26264 -0.68946,0.69074 -0.68946,-1.05837 0,-0.95545 -0.13056,-1.99725 -0.29013,-2.3151 -0.52021,-1.03619 -1.95392,-3.09043 -2.15726,-3.09094 -0.3503,-8e-4 -0.21197,1.05578 0.22565,1.72367 0.42323,0.64593 1.69247,4.46207 1.69254,5.08884 2e-5,0.18189 -0.10499,0.33072 -0.23336,0.33072 -0.12837,0 -0.55492,-1.03121 -0.94789,-2.2916 -0.72466,-2.32423 -1.26598,-3.40618 -1.99007,-3.97758 -0.34908,-0.27546 -0.31269,-0.40499 0.28334,-1.00856 l 0.68385,-0.69252 -0.69808,-3.09246 c -0.69663,-3.08612 -0.69959,-3.09231 -1.43659,-3.01239 -0.92902,0.10078 -1.95071,-0.55409 -2.31371,-1.483 -0.15341,-0.39257 -0.35646,-1.5086 -0.45121,-2.48006 l -0.17228,-1.76628 -0.88982,0.79711 c -0.65346,0.58538 -0.81158,0.87531 -0.59531,1.09159 0.45373,0.45373 0.35499,1.14522 -0.36696,2.56992 -0.3638,0.71792 -0.66146,1.38207 -0.66146,1.47587 0,0.0938 0.41113,0.0934 0.91362,-8e-4 0.78214,-0.14673 0.97607,-0.0761 1.34764,0.49102 0.4607,0.7031 0.44566,0.96545 -0.28157,4.91315 -0.20106,1.09141 -0.48418,3.16262 -0.62917,4.60269 -0.14498,1.44008 -0.3891,2.74381 -0.54248,2.89719 -0.19544,0.19544 -0.2773,0.12452 -0.27361,-0.23707 0.0114,-1.11907 0.79154,-7.45644 1.04063,-8.45343 0.14542,-0.58209 0.26724,-1.62388 0.27071,-2.31511 0.006,-1.09575 -0.0637,-1.25677 -0.54024,-1.25677 -0.30061,0 -0.78964,0.13009 -1.08674,0.2891 -1.0505,0.56221 -1.16386,-0.12219 -0.35361,-2.13489 0.41211,-1.0237 0.68496,-1.9256 0.60634,-2.00422 -0.0786,-0.0786 -0.66336,0.0934 -1.29942,0.3823 -0.63606,0.28888 -1.5307,0.67494 -1.98808,0.85792 -0.90309,0.36127 -0.91451,0.74233 -0.0511,1.70497 0.27151,0.30271 0.8652,1.6124 1.31931,2.91041 0.77461,2.21414 0.82542,2.59004 0.82177,6.08065 -0.004,3.88121 -0.18655,5.40744 -0.64663,5.40744 -0.15941,0 -0.20234,-0.2785 -0.1036,-0.67197 0.30382,-1.21045 0.20329,-7.96336 -0.13536,-9.09367 -0.17834,-0.59525 -0.4099,-1.08227 -0.51457,-1.08227 -0.39256,0 -0.90736,0.8883 -0.83496,1.44077 0.0413,0.3154 -0.15689,0.86843 -0.44048,1.22896 -0.34131,0.43391 -0.46922,0.8983 -0.37835,1.37365 0.15651,0.8188 -0.45093,1.92162 -1.18717,2.15529 -0.35218,0.11178 -0.4833,0.41644 -0.4833,1.12294 0,0.83059 -0.1877,1.13465 -1.30969,2.12163 -0.72033,0.63366 -1.43938,1.53635 -1.59789,2.00599 -0.35396,1.0488 -0.7416,1.10232 -0.85465,0.11801 -0.0593,-0.51601 -0.3854,-0.92582 -1.09152,-1.37158 -1.178784,-0.74413 -2.131263,-1.87273 -2.131263,-2.52536 0,-0.32337 -0.211809,-0.46041 -0.71161,-0.46041 -0.83952,0 -1.66964,-0.90252 -1.66964,-1.81525 0,-0.48922 -0.142229,-0.63214 -0.62906,-0.63214 -0.847791,0 -1.31314,-0.62812 -1.336201,-1.80357 -0.01429,-0.73178 -0.207471,-1.13469 -0.77519,-1.61735 -0.639321,-0.54353 -0.736269,-0.79041 -0.62784,-1.5988 0.0918,-0.68427 -0.01288,-1.13036 -0.368409,-1.56934 l -0.496631,-0.61332 v 1.43101 c 0,0.78706 0.311071,2.85407 0.691261,4.59337 0.380199,1.73931 0.913929,4.1744 1.18608,5.41133 0.611039,2.77719 0.6287,3.22994 0.0986,2.52912 -0.213651,-0.28248 -0.388461,-0.76095 -0.388461,-1.06328 0,-0.30233 -0.343127,-1.91792 -0.7625,-3.5902 -1.357498,-5.41308 -1.731618,-8.10636 -1.368348,-9.85068 0.183189,-0.87965 0.602811,-1.86321 0.99246,-2.32628 0.37129,-0.44125 0.627229,-0.85012 0.568748,-0.9086 -0.0585,-0.0585 -0.921059,0.30374 -1.916858,0.80493 -0.995799,0.50118 -2.027301,0.91124 -2.292242,0.91124 -0.863989,0 -0.7962,0.46587 0.148931,1.02351 1.154452,0.68114 1.174261,1.21788 0.0658,1.78089 -1.48761,0.75555 -1.542288,0.85255 -0.991299,1.75859 0.63328,1.04134 1.384689,3.54431 2.116609,7.05046 0.31573,1.51245 0.636031,2.91144 0.71179,3.10885 0.0758,0.19742 0.003,0.35895 -0.1617,0.35895 -0.42666,0 -0.73065,-0.93821 -1.35205,-4.17287 -0.546249,-2.84344 -0.9197,-4.0156 -1.924,-6.03884 -0.654989,-1.31954 -0.50764,-1.78111 0.779431,-2.44141 l 0.99143,-0.50864 -0.863721,-0.44665 c -0.475039,-0.24566 -1.00448,-0.39567 -1.17651,-0.33336 -0.17204,0.0623 -0.636561,-0.073 -1.032258,-0.30075 -0.395701,-0.22772 -0.761342,-0.36077 -0.812523,-0.29565 -0.0864,0.10993 -0.83507,2.04289 -1.634209,4.21942 -0.24629,0.6708 -0.2765,1.40007 -0.109591,2.64583 0.38957,2.90776 -0.169608,8.20209 -0.866298,8.20209 -0.180552,0 -0.215921,-0.26703 -0.0964,-0.72761 0.30875,-1.18956 0.479322,-7.76758 0.208441,-8.03846 -0.311171,-0.31117 -2.581281,3.86868 -3.140151,5.7818 -0.22194,0.75976 -0.40352,2.15874 -0.40352,3.10886 0,1.68853 -0.12295,2.12816 -0.37211,1.33061 z m 24.039203,-2.84427 c 0.35163,-0.32742 0.95236,-0.85419 1.33495,-1.1706 0.79337,-0.65614 0.94344,-1.93236 0.2909,-2.47392 -0.55247,-0.45851 -1.71195,0.0691 -1.71195,0.77896 0,0.70722 -0.42302,0.91511 -0.84404,0.4148 -0.87349,-1.03801 -1.08645,-1.18726 -1.694081,-1.18726 -0.842571,0 -1.301793,0.93144 -0.934942,1.89634 0.225321,0.59264 2.178333,2.24607 2.733433,2.31414 0.10252,0.0126 0.4741,-0.24503 0.82573,-0.57246 z m -4.215452,-3.52737 c 0.322408,-0.84019 0.149961,-1.44975 -0.49303,-1.74272 -0.499782,-0.22772 -0.748871,-0.21876 -1.05833,0.0381 -0.483471,0.40125 -0.529921,1.36296 -0.0872,1.80567 0.453612,0.45361 1.449292,0.39223 1.638573,-0.10102 z m 5.055392,-0.94633 c 0.39872,-0.0714 0.5494,-0.33861 0.61124,-1.08396 0.0552,-0.6651 0.25695,-1.0828 0.61583,-1.27486 0.31665,-0.16947 0.47237,-0.44566 0.38283,-0.67901 -0.16464,-0.42904 0.5166,-1.94732 0.87375,-1.94732 0.1216,0 0.16406,-0.29834 0.0944,-0.66298 -0.0697,-0.36464 -0.009,-0.81112 0.13415,-0.99219 0.14348,-0.18106 0.26882,-0.72399 0.27851,-1.2065 0.01,-0.48251 0.0983,-1.24453 0.19688,-1.69337 0.15883,-0.72316 0.12314,-0.7931 -0.31353,-0.61428 -0.27102,0.11099 -1.7404,0.36941 -3.26529,0.57426 -3.185599,0.42796 -5.53805,0.21897 -7.54924,-0.67068 -0.690189,-0.3053 -1.340519,-0.55509 -1.445181,-0.55509 -0.104661,0 0.02561,0.62507 0.289582,1.38906 0.263929,0.76398 0.483758,1.70946 0.488508,2.10105 0.005,0.39159 0.11734,0.77917 0.2502,0.86128 0.132861,0.0821 0.32598,0.64898 0.42917,1.25971 0.11783,0.69744 0.42159,1.29447 0.816772,1.60532 0.346038,0.27219 0.630528,0.75415 0.632198,1.07101 0.0021,0.40828 0.306461,0.72145 1.044641,1.07503 0.61568,0.29492 1.074251,0.71504 1.121439,1.02745 0.0589,0.3902 0.312261,0.54644 0.967891,0.597 0.48842,0.0377 1.07782,0.25827 1.30978,0.49023 0.38593,0.38593 0.46779,0.37936 0.96404,-0.0773 0.29827,-0.27449 0.78043,-0.5417 1.07147,-0.59382 z m 2.74717,-0.27893 c 0.27219,-0.7358 0.0773,-1.53122 -0.37514,-1.53122 -1.04689,0 -1.42871,0.63517 -1.0208,1.69815 0.23739,0.61864 1.14551,0.51004 1.39594,-0.16693 z m -10.270402,-1.01136 c 0.583329,-0.31219 0.681879,-1.37222 0.16727,-1.79931 -0.473621,-0.39307 -1.456561,-0.0919 -1.64577,0.50427 -0.17472,0.5505 0.27581,1.56893 0.694061,1.56893 0.149958,0 0.502959,-0.12325 0.784439,-0.27389 z m 11.068872,-1.90892 c 0.26578,-0.71499 0.10026,-1.25677 -0.38394,-1.25677 -0.47919,0 -1.17111,1.03124 -0.99676,1.48558 0.22287,0.58079 1.136,0.42946 1.3807,-0.22881 z m -12.219024,-1.05834 c 0.140243,-0.1819 0.17921,-0.62838 0.0866,-0.99218 -0.131699,-0.51747 -0.337749,-0.66146 -0.946539,-0.66146 -0.943321,0 -1.188162,0.71785 -0.50305,1.47489 0.532548,0.58846 0.99989,0.64975 1.36298,0.17875 z m 13.172764,-1.25914 c 0.24471,-0.39594 -0.11662,-1.32054 -0.51606,-1.32054 -0.50767,0 -1.02389,0.72426 -0.84622,1.18725 0.17286,0.45048 1.1096,0.54214 1.36228,0.13329 z m -23.981903,-2.58797 c 0.284149,-0.9899 0.453281,-2.19016 0.38231,-2.71307 -0.106609,-0.7855 0.0669,-1.22741 1.068781,-2.72142 l 1.19606,-1.78363 -0.50619,-1.11504 c -1.19516,-2.63268 -0.22071,-5.74525 1.79865,-5.74525 0.448041,0 0.5328,-0.36349 0.82749,-3.54883 0.53907,-5.82666 2.23955,-12.18704 4.179679,-15.63345 0.73471,-1.30513 3.792931,-4.742 5.311301,-5.96893 0.619059,-0.50023 1.001929,-0.95073 0.850828,-1.00109 -0.46691,-0.15564 -4.020809,1.67371 -5.433168,2.79669 -2.656991,2.11261 -6.12943,8.20513 -8.045201,14.11562 -0.942398,2.90747 -2.266839,9.41431 -2.646069,12.99988 -0.29804,2.81793 -0.36126,9.81861 -0.10277,11.38225 0.0897,0.54282 0.263391,0.92498 0.38593,0.84925 0.122528,-0.0757 0.452098,-0.93657 0.732369,-1.91298 z m 10.037911,0.0444 c 0.0565,-0.58103 -0.0515,-0.87674 -0.364271,-0.99675 -0.585099,-0.22452 -1.171329,0.28467 -1.171329,1.01742 0,0.74779 0.240099,0.97939 0.915149,0.88277 0.39011,-0.0558 0.56238,-0.30669 0.620451,-0.90344 z m 13.677952,0.42925 c 0.0899,-0.14552 -0.0291,-0.26459 -0.26459,-0.26459 -0.23546,0 -0.35452,0.11907 -0.26458,0.26459 0.0899,0.14553 0.209,0.26458 0.26458,0.26458 0.0556,0 0.17465,-0.11905 0.26459,-0.26458 z m -32.782223,-5.08553 c 0.18291,-2.07791 0.46112,-4.61145 0.61824,-5.6301 0.89449,-5.79908 0.90749,-6.01029 0.38789,-6.30108 -0.26682,-0.14932 -0.75433,-0.54069 -1.08335,-0.86972 -0.32903,-0.32902 -1.04745,-0.93249 -1.59649,-1.34104 -0.54903,-0.40854 -2.02928,-1.67857 -3.28943,-2.82229 -2.25923,-2.05049 -2.67883,-2.27947 -2.7453,-1.49815 -0.30809,3.6213 -2.67465,9.0027 -4.61566,10.49568 -0.22111,0.17007 -0.62439,0.47637 -0.89617,0.68066 -0.46148,0.34689 -0.28059,0.58851 2.73703,3.65592 1.77715,1.80647 3.38885,3.28611 3.58157,3.28809 0.19272,0.002 1.04465,0.56504 1.89318,1.25125 3.46657,2.80342 4.19705,3.31352 4.43227,3.09507 0.13401,-0.12445 0.39331,-1.92639 0.57622,-4.00429 z m 48.521383,1.36895 c -0.28238,-1.37562 -0.63781,-3.92988 -0.78984,-5.67613 -0.15203,-1.74625 -0.38431,-3.88938 -0.51618,-4.7625 -0.13187,-0.87313 -0.31171,-2.30188 -0.39965,-3.175 -0.54594,-5.42058 -2.97474,-12.73833 -5.58843,-16.83735 -1.39679,-2.19058 -3.72599,-4.50788 -5.29397,-5.26693 -1.48018,-0.71654 -1.84648,-0.45907 -0.66375,0.46656 1.337,1.04636 3.8689,4.36462 4.76844,6.24944 2.29579,4.81041 3.92221,11.79421 4.15529,17.8427 0.13974,3.62618 0.21516,4.0694 1.0907,6.40912 0.89235,2.38466 3.46112,7.54093 3.65845,7.34359 0.0508,-0.0508 -0.13867,-1.21787 -0.42106,-2.5935 z m -36.373744,1.33208 c 0.562401,-0.62144 0.947121,-4.75925 0.442503,-4.75925 -0.472303,0 -2.429801,2.94877 -2.429801,3.66026 0,0.71005 0.672409,1.6314 1.190619,1.6314 0.17317,0 0.53168,-0.23958 0.796679,-0.53241 z m 6.439712,0.12027 c 0.15344,-0.13552 -0.238392,-0.64619 -0.495821,-0.64619 -0.13181,0 -0.373128,0.24939 -0.53626,0.5542 -0.270129,0.50474 -0.24144,0.53723 0.321421,0.36401 0.33991,-0.10461 0.65971,-0.22702 0.71066,-0.27202 z m 23.218692,-0.2549 c 0.87135,-1.32985 0.21098,-3.14933 -1.73834,-4.78958 l -0.87086,-0.73277 0.11155,2.55054 c 0.0879,2.00863 0.21619,2.66615 0.60401,3.0947 0.6618,0.73128 1.36381,0.68572 1.89364,-0.12289 z m -14.3155,-0.12902 c 4.60393,-0.50763 6.6236,-1.34768 9.41818,-3.9173 1.21558,-1.11773 1.33987,-1.3276 1.07704,-1.81868 -0.24243,-0.453 -0.19494,-0.68504 0.25814,-1.26104 l 0.55525,-0.70588 0.58046,0.54532 c 0.75553,0.70978 0.85353,0.69248 1.33331,-0.2353 0.52523,-1.01568 0.52073,-3.16786 -0.008,-3.92302 -0.48868,-0.6977 -0.73161,-0.72966 -1.29137,-0.1699 -0.77241,0.77241 -0.96576,0.28869 -1.06776,-2.67127 -0.15444,-4.48158 -1.08841,-8.62058 -3.2529,-14.41561 -1.71411,-4.58925 -2.81989,-6.33394 -5.19112,-8.19051 -0.69626,-0.54513 -1.32527,-0.80532 -1.94691,-0.80532 -0.85454,0 -0.90647,-0.0473 -0.74738,-0.68117 0.14986,-0.5971 0.0963,-0.67058 -0.43434,-0.59531 -0.45732,0.0649 -0.58506,0.23139 -0.52252,0.68116 0.068,0.48884 -0.043,0.59532 -0.62062,0.59532 -0.386873,0 -1.078962,0.25657 -1.537993,0.57016 -1.217049,0.83146 -4.00042,3.82519 -5.187849,5.57995 -2.542241,3.75689 -4.443291,11.35087 -4.550921,18.17913 -0.0333,2.11046 -0.136448,2.92283 -0.371279,2.92283 -0.178869,0 -0.39375,-0.17859 -0.477509,-0.39687 -0.242642,-0.6323 -1.173412,-0.46041 -1.678152,0.30991 -0.479208,0.73137 -0.585888,2.07639 -0.262649,3.31134 0.168039,0.64201 0.27564,0.6963 1.111271,0.56069 0.896739,-0.14552 1.091139,0.0223 0.944459,0.81523 -0.076,0.41071 1.112391,1.49936 3.09471,2.83503 1.057831,0.71276 2.01128,1.29592 2.11877,1.29592 0.10749,0 0.763421,0.30236 1.457619,0.67192 1.03796,0.55254 2.43995,0.90524 4.554442,1.14573 0.145518,0.0166 1.336151,-0.0881 2.645831,-0.23246 z m -1.83855,-4.03258 c -0.0562,-0.1819 -0.17529,-1.34276 -0.264683,-2.57969 -0.286549,-3.9655 -0.94198,-7.4582 -1.674321,-8.92227 -0.380108,-0.7599 -0.605207,-1.46753 -0.500229,-1.57251 0.104982,-0.10498 0.61799,0.24887 1.140021,0.78633 1.455872,1.49889 2.932882,1.35245 3.815872,-0.37835 0.2878,-0.56413 0.69945,-1.0257 0.91477,-1.0257 0.49105,0 0.4935,-0.0328 -0.12254,1.64372 -0.68971,1.87709 -1.02801,4.00736 -1.17279,7.38493 -0.0928,2.16428 -0.24861,3.06207 -0.67742,3.9026 -0.54127,1.06099 -1.25155,1.43151 -1.45868,0.76094 z m -2.914382,-15.38363 c -1.09383,-1.1598 -1.40122,-2.69835 -0.96905,-4.85029 0.977228,-4.86599 4.002552,-7.40188 6.005292,-5.03375 2.50768,2.96519 3.30901,8.44827 1.44882,9.91346 -0.6882,0.54207 -1.60201,0.37768 -2.41394,-0.43425 -0.42537,-0.42537 -0.77339,-0.61716 -0.77339,-0.42619 0,0.57523 -0.878752,1.4304 -1.660004,1.61545 -0.614169,0.14548 -0.881448,0.0175 -1.637728,-0.78443 z m 2.0457,-0.22675 c 0.52642,-0.39874 0.982632,-3.01162 0.985442,-5.64383 0.002,-1.72861 -0.0492,-1.90091 -0.659462,-2.22753 -0.363799,-0.1947 -0.66145,-0.45294 -0.66145,-0.57387 0,-1.00704 -1.357451,1.27728 -1.83469,3.08742 -0.896001,3.39847 0.43117,6.67506 2.17016,5.35781 z m 4.116192,-0.53958 c 0.92564,-1.11532 0.79094,-4.28161 -0.27194,-6.39245 -0.83576,-1.65979 -0.96332,-1.76335 -1.55157,-1.25967 -0.43939,0.37621 -0.51128,0.79331 -0.51001,2.95884 7.9e-4,1.38648 0.12456,2.96407 0.275,3.50575 0.37041,1.33374 1.42992,1.94495 2.05852,1.18753 z m -8.420412,-10.12304 c 0,-0.90457 0.712959,-2.23582 1.197419,-2.23582 0.499801,0 0.499901,0.37322 2.01e-4,0.78794 -0.214431,0.17796 -0.465801,0.72832 -0.558609,1.22302 -0.197163,1.05097 -0.639011,1.20645 -0.639011,0.22486 z m 11.293302,-0.55572 c -0.0994,-0.0994 -0.1808,-0.43211 -0.1808,-0.73928 0,-0.30717 -0.19347,-0.8347 -0.42992,-1.1723 -0.40386,-0.57658 -0.40048,-0.60813 0.0558,-0.52026 0.58891,0.11341 1.37317,1.97523 0.99243,2.35597 -0.14117,0.14117 -0.33803,0.17531 -0.43747,0.0759 z m -16.966273,30.21617 c 0.496062,-0.36983 0.479732,-0.41708 -0.4786,-1.38466 l -0.992179,-1.00176 v 1.38466 c 0,1.15949 0.0778,1.38465 0.478588,1.38465 0.263232,0 0.709721,-0.1723 0.992191,-0.38289 z m 36.713763,-1.3026 c 1.19043,-0.92702 2.78182,-2.0636 3.53643,-2.52574 0.75461,-0.46215 1.40945,-1.02812 1.45521,-1.25772 0.0458,-0.2296 1.86207,-1.63166 4.03624,-3.11568 2.17418,-1.48402 3.99489,-2.82377 4.04604,-2.97721 0.0512,-0.15344 -0.31189,-0.51788 -0.80676,-0.80986 -1.61132,-0.9507 -5.18284,-6.94399 -5.20167,-8.72881 -0.003,-0.32742 -0.10646,-0.59531 -0.2289,-0.59531 -0.12245,0 -1.37727,0.8632 -2.7885,1.91823 -1.41123,1.05502 -3.36488,2.43266 -4.34144,3.06142 -0.97656,0.62877 -2.23643,1.54679 -2.79972,2.04006 l -1.02416,0.89684 0.29309,2.06099 c 0.16121,1.13354 0.40894,3.31114 0.55052,4.83911 0.30325,3.27271 0.82262,6.87917 0.99068,6.87917 0.0652,0 1.09251,-0.75847 2.28294,-1.68549 z m -49.178913,-3.01086 c 1.24222,-3.19778 1.5623,-4.35656 1.77231,-6.41615 0.96037,-9.41882 6.115051,-20.54935 11.538681,-24.91554 1.17222,-0.94367 0.73211,-1.1297 -0.879491,-0.37174 -1.604931,0.75482 -5.04017,4.18369 -6.697088,6.68469 -1.592072,2.4031 -3.571982,6.44251 -4.397822,8.97238 -0.9416,2.88452 -1.58844,6.27866 -2.36472,12.40834 -0.95436,7.53585 -0.95481,7.54062 -0.70992,7.54062 0.12212,0 0.90424,-1.75617 1.73805,-3.9026 z m 14.312539,3.35583 c 0.163322,-0.26425 -0.564927,-1.01374 -1.00307,-1.03232 -0.336378,-0.0143 -0.218879,0.99758 0.132292,1.13928 0.527518,0.21286 0.68508,0.1935 0.870778,-0.10696 z m -2.116669,-1.81688 c -0.0959,-0.1552 -0.301019,-0.28218 -0.455769,-0.28218 -0.17544,0 -0.155371,0.15181 0.0533,0.40327 0.362889,0.43725 0.687218,0.33967 0.402449,-0.12109 z m -29.30915,-7.01765 c 0.53436,-0.44963 0.8573,-0.56529 1.04744,-0.37515 1.02875,1.02875 4.34908,-4.55953 5.0943,-8.57395 0.18315,-0.98667 0.26608,-2.1286 0.18428,-2.53763 -0.11259,-0.56294 0.0312,-0.96289 0.59145,-1.64563 2.05946,-2.50952 2.11315,-4.20925 0.13296,-4.20925 -1.15853,0 -3.37292,2.08548 -3.81774,3.59547 -0.29583,1.00422 -0.41534,1.10669 -1.66396,1.4267 -2.9764,0.76283 -5.31905,2.31804 -6.01212,3.99124 -0.47865,1.15557 -0.0732,1.36426 1.40358,0.72253 0.6952,-0.30208 1.338289,-0.47496 1.42908,-0.38417 0.0908,0.0908 -0.37184,0.73908 -1.02808,1.44065 -1.38988,1.4859 -1.98045,2.92304 -1.53965,3.7467 0.39389,0.73599 1.0235,0.68114 1.907929,-0.16619 0.979421,-0.93835 1.244841,-0.59551 0.527321,0.68115 -0.76192,1.35565 -0.75477,2.3537 0.0191,2.66475 0.8533,0.34299 0.87344,0.33858 1.72412,-0.37722 z m 58.286953,-3.91921 c -0.65856,-7.07669 -2.80053,-14.02339 -5.56091,-18.03478 -1.01156,-1.47 -4.93091,-5.1772 -5.47347,-5.1772 -0.29417,0 0.038,0.50434 1.00202,1.52135 1.60683,1.69518 3.58831,4.40799 4.39657,6.01927 0.71097,1.41734 3.00872,8.72925 4.03253,12.83229 1.10576,4.4315 1.61006,6.15001 1.76057,5.9995 0.0688,-0.0688 -0.002,-1.49102 -0.15731,-3.16043 z m -36.908972,-2.17761 c 3.28558,-9.23671 7.355028,-15.54687 13.476539,-20.89696 l 0.79375,-0.69372 -0.926039,0.17423 c -3.379311,0.63581 -7.68028,5.19635 -10.840341,11.49458 -1.3887,2.76778 -3.06639,7.69208 -3.70361,10.87069 -0.9366,4.67206 -0.74611,4.52139 1.199701,-0.94882 z m 61.710092,4.04812 c 0.43873,-0.43873 0.39811,-1.85603 -0.071,-2.4762 -0.56551,-0.74766 -0.49771,-0.91047 0.37915,-0.91047 1.56608,0 1.68456,-2.01273 0.17274,-2.93459 -0.45369,-0.27665 -1.15232,-0.50345 -1.5525,-0.50399 -0.98448,-0.001 -0.91822,-0.44338 0.1323,-0.8825 1.43477,-0.59974 1.65497,-1.05052 1.08399,-2.21908 -0.40975,-0.83859 -0.65964,-1.02893 -1.54701,-1.17833 -1.47006,-0.24749 -3.2649,-0.043 -4.03143,0.4592 -0.76174,0.49911 -0.69377,0.5545 -1.1567,-0.94278 -0.28556,-0.92354 -0.57586,-1.2944 -1.29417,-1.65323 -1.09714,-0.54808 -3.40143,-0.61084 -4.08467,-0.11125 -0.44401,0.32467 -0.36181,0.4435 1.05233,1.52135 1.44543,1.10168 1.55293,1.26252 1.86218,2.78611 0.37583,1.85163 1.0007,3.18525 2.69435,5.75043 1.05083,1.5916 3.12459,3.55017 3.43271,3.24205 0.0913,-0.0913 0.20324,-0.52173 0.31452,-1.20954 0.0111,-0.0688 0.37073,0.25861 0.79909,0.72761 0.82934,0.90801 1.30187,1.04742 1.81407,0.53521 z m -66.393523,-4.06523 c 0.74761,-4.05744 3.06203,-9.70919 5.408011,-13.20624 0.674929,-1.00608 1.171089,-1.8853 1.10258,-1.95381 -0.164261,-0.16426 -0.120221,-0.22147 -1.7032,2.21258 -3.150851,4.84485 -6.562141,13.59916 -5.653321,14.50798 0.38656,0.38656 0.53897,0.10542 0.84593,-1.56051 z m 47.079853,0.2455 c 0.16478,-0.0743 -0.80884,-4.81099 -1.46095,-7.10755 -0.79703,-2.80695 -2.42851,-6.62419 -3.49148,-8.16917 -0.76795,-1.11617 -2.79273,-3.17732 -3.9914,-4.06311 -0.7868,-0.58141 -2.11667,-1.18381 -2.11667,-0.95879 0,0.0875 0.7069,0.91472 1.57088,1.83832 0.86399,0.92361 2.04414,2.48659 2.62256,3.4733 1.96342,3.34936 4.42127,10.44487 4.929,14.22944 0.282,2.10199 0.31944,2.14903 1.13707,1.4287 0.39638,-0.34922 0.75683,-0.65124 0.80099,-0.67114 z m -39.337171,-16.6987 c 0.329109,-0.41964 0.319748,-0.429 -0.0999,-0.0999 -0.44073,0.34564 -0.58089,0.56292 -0.36313,0.56292 0.0549,0 0.2633,-0.20836 0.463021,-0.46303 z"
       id="path1023" />
  </g>
</svg>
