<?xml version="1.0" encoding="UTF-8" standalone="no"?>
<svg
   xmlns:dc="http://purl.org/dc/elements/1.1/"
   xmlns:cc="http://creativecommons.org/ns#"
   xmlns:rdf="http://www.w3.org/1999/02/22-rdf-syntax-ns#"
   xmlns:svg="http://www.w3.org/2000/svg"
   xmlns="http://www.w3.org/2000/svg"
   xmlns:sodipodi="http://sodipodi.sourceforge.net/DTD/sodipodi-0.dtd"
   xmlns:inkscape="http://www.inkscape.org/namespaces/inkscape"
   width="1888.7891"
   height="3080.813"
   viewBox="0 0 499.74212 815.13173"
   version="1.1"
   id="svg879"
   inkscape:export-filename="/home/lump/cranksaw.png"
   inkscape:export-xdpi="99.987953"
   inkscape:export-ydpi="99.987953"
   inkscape:version="1.0.1 (3bc2e813f5, 2020-09-07)"
   sodipodi:docname="cranksaw.svg">
  <defs
     id="defs873" />
  <sodipodi:namedview
     id="base"
     pagecolor="#ffffff"
     bordercolor="#666666"
     borderopacity="1.0"
     inkscape:pageopacity="0.0"
     inkscape:pageshadow="2"
     inkscape:zoom="0.075402611"
     inkscape:cx="3752.4503"
     inkscape:cy="-259.89933"
     inkscape:document-units="mm"
     inkscape:current-layer="svg879"
     inkscape:document-rotation="0"
     showgrid="false"
     fit-margin-top="0"
     fit-margin-left="0"
     fit-margin-right="0"
     fit-margin-bottom="0"
     units="px"
     inkscape:window-width="1898"
     inkscape:window-height="1034"
     inkscape:window-x="10"
     inkscape:window-y="34"
     inkscape:window-maximized="0" />
  <metadata
     id="metadata876">
    <rdf:RDF>
      <cc:Work
         rdf:about="">
        <dc:format>image/svg+xml</dc:format>
        <dc:type
           rdf:resource="http://purl.org/dc/dcmitype/StillImage" />
        <dc:title></dc:title>
      </cc:Work>
    </rdf:RDF>
  </metadata>
  <path
     style="fill:#ffffff;fill-opacity:1;stroke:#d3d300;stroke-width:6.42555;stroke-linecap:square;stroke-opacity:0;paint-order:markers stroke fill"
     d="M 93.858713,763.90959 116.22432,565.69513 91.886353,448.69558 79.728913,434.1393 l -4.70034,24.43714 -20.68608,0.43036 -10.7646,-12.36367 1.79742,-16.68496 3.87435,-2.65956 1.45482,-8.69106 8.17251,-5.22346 13.19835,-37.24941 -14.69193,-51.47317 62.190447,-145.42299 4.56912,-66.45928 -5.25995,-6.75821 -3.1828,-22.573387 7.84035,-18.89779 -7.15728,-34.69728 2.44269,-10.8399 12.42059,-9.1995204 40.51881,-3.35521 29.59289,4.6992504 12.09079,10.17447 3.38645,76.81354 10.22891,103.956257 97.32421,65.91451 -27.82875,33.40498 -15.28972,93.84054 15.40351,362.82745 -37.27666,0.002 -0.34596,-71.57918 -37.49861,-224.58984 -50.47088,11.07391 -37.63127,171.36482 -4.96459,104.32044 z"
     id="path1497" />
  <path
     style="fill:#f5d8b9;fill-opacity:1;stroke:#d3d300;stroke-width:6.42555;stroke-linecap:square;stroke-opacity:0;paint-order:markers stroke fill"
     d="m 54.299113,463.32636 14.81782,5.20783 0.54671,25.05541 -4.88331,34.65092 -10.70757,28.03691 -9.35689,46.01278 -5.25955,49.75376 -1.70379,13.97246 -18.24924,-4.596 -3.63913,-14.75809 3.67101,-41.83484 c 0,0 7.84089,-35.99941 7.84089,-38.58241 0,-2.58306 13.15732,-46.47274 13.15732,-46.47274 l 8.60257,-28.19975 z"
     id="path1495" />
  <path
     style="fill:#8c9ba4;fill-opacity:1;stroke:#d3d300;stroke-width:6.42555;stroke-linecap:square;stroke-opacity:0;paint-order:markers stroke fill"
     d="m 54.180383,368.57215 17.13698,10.66329 4.10356,-3.48875 c 0,0 12.15685,11.76149 18.4591,6.91998 6.302247,-4.84152 10.763267,1.76736 10.763267,1.76736 l -8.066227,0.0831 1.33616,10.91467 -1.65581,13.3164 -1.71738,5.49531 -1.93397,4.5984 -0.55289,3.42244 -1.06786,1.91337 -7.9091,9.85944 -19.13384,-14.74745 -23.95492,-18.92959 9.32604,-32.28942 z"
     id="path1493" />
  <path
     style="fill:#f5d8b9;fill-opacity:1;stroke:#d3d300;stroke-width:6.42555;stroke-linecap:square;stroke-opacity:0;paint-order:markers stroke fill"
     d="m 205.6908,275.55835 5.11033,-27.67639 9.32458,-8.72126 6.20116,0.48624 5.16469,6.03197 17.10118,4.08495 4.54521,-0.11374 10.775,-8.44462 -2.83689,6.41724 10.69807,4.94908 8.76892,13.15277 -0.54072,11.91076 -17.25385,12.25625 -45.37458,-1.19837 c 0,0 -13.30768,-4.29887 -13.30768,-5.26537 0,-0.96649 1.6246,-7.86951 1.6246,-7.86951 z"
     id="path1491" />
  <path
     style="fill:#f5d8b9;fill-opacity:1;stroke:#d3d300;stroke-width:6.42555;stroke-linecap:square;stroke-opacity:0;paint-order:markers stroke fill"
     d="m 98.225083,380.0993 -7.02903,-1.91995 0.10909,-15.43584 4.81524,-14.63696 6.271947,-10.19076 10.14635,3.53319 4.88406,-4.93444 7.41817,-19.30062 12.74007,0.93596 10.5276,3.28928 -1.31365,11.10936 -5.00541,35.51929 -1.51011,13.06337 -11.68196,4.74713 -14.62413,-3.12763 -13.02077,0.35985 z"
     id="path1489" />
  <path
     style="fill:#8c9ba4;fill-opacity:1;stroke:#d3d300;stroke-width:6.42555;stroke-linecap:square;stroke-opacity:0;paint-order:markers stroke fill"
     d="m 243.13453,376.93209 -6.00231,-26.63453 0.97129,-9.56231 51.94578,-14.96895 45.57709,-8.67251 70.71479,-7.68799 37.82378,1.427 36.33253,9.32011 8.75326,13.07149 -8.76982,16.58006 -17.53978,11.74061 -48.33129,13.54935 -53.31902,2.28919 -33.1892,2.61472 -73.60235,-1.29296 z"
     id="path1487" />
  <path
     style="fill:#ee4331;fill-opacity:1;stroke:#d3d300;stroke-width:6.42555;stroke-linecap:square;stroke-opacity:0;paint-order:markers stroke fill"
     d="m 98.670013,69.708783 0.34243,-5.79331 13.306547,-6.97133 28.38292,-1.42892 39.72932,2.76372 19.80209,-1.09713 4.04644,-3.80724 1.95313,-37.94179 5.01067,1.75007 8.07725,8.06414 3.57312,8.29801 -1.58003,21.69078 1.34207,5.3672 5.27661,4.13504 3.98518,8.01239 0.70767,8.86993 -14.16076,3.68791 c 0,0 -12.7951,-3.32213 -13.66424,-3.95417 -0.86915,-0.63192 -19.52994,2.81321 -19.52994,2.81321 l -22.07406,-9.95343 -18.14212,-7.07962 -27.75729,0.11308 z"
     id="path1485" />
  <path
     style="fill:#f5d8b9;fill-opacity:1;stroke:#d3d300;stroke-width:6.42555;stroke-linecap:square;stroke-opacity:0;paint-order:markers stroke fill"
     d="m 119.18674,127.58396 8.77109,-11.84072 20.25806,-1.80713 50.35837,-0.70063 6.88167,-8.34804 2.37486,-23.515597 10.07675,5.84958 14.25325,-2.63215 7.65109,3.18697 5.92619,14.543507 -3.78531,22.76303 -13.38194,3.63104 -5.31032,-3.35492 -5.72189,8.80002 c 0,0 -9.2814,12.00215 -9.59192,12.62256 -0.3105,0.6206 -6.22502,17.28894 -6.22502,17.28894 0,0 -4.62579,0.34988 -4.70039,-0.33658 -0.0746,-0.68632 -0.46017,-21.70149 -0.46017,-21.70149 l -14.34252,-16.15169 c 0,0 -19.5557,0.22083 -20.73639,0.55874 -1.18069,0.33791 -20.52657,8.77228 -20.52657,8.77228 0,0 -7.04011,12.53789 -7.75758,12.58013 -0.71745,0.0399 -13.72723,-11.43763 -14.27643,-14.22589 -0.54923,-2.78834 0.26514,-5.98189 0.26514,-5.98189 z"
     id="path1483" />
  <path
     style="fill:#8c9ba4;fill-opacity:1;stroke:#d3d300;stroke-width:6.42555;stroke-linecap:square;stroke-opacity:0;paint-order:markers stroke fill"
     d="m 132.77598,148.36312 8.58172,-13.14572 5.97544,-9.42521 1.74232,-17.03877 6.64963,-15.996577 6.94487,-1.2863 5.66554,6.10447 9.24785,17.707867 3.92141,12.43272 11.83203,11.13384 c 0,0 3.81518,18.82701 4.68344,20.05046 0.86826,1.22352 5.47782,3.59027 5.47782,3.59027 l 6.81971,-20.43281 13.73769,-14.21179 c 0,0 16.44661,5.03149 15.97301,4.79469 -0.4736,-0.2368 -0.0459,10.77033 -0.0459,10.77033 l -4.20035,18.79103 -16.72097,19.43977 -12.66207,2.46546 -4.88388,-6.17253 -2.96095,-12.68269 -6.45216,12.14856 c 0,0 -4.8515,4.52529 -6.01161,4.64369 -1.16012,0.1184 -20.40679,2.6688 -20.40679,2.6688 l -13.82496,-3.36723 -14.42443,-13.36762 z"
     id="path1481" />
  <path
     style="fill:#8c9ba4;fill-opacity:1;stroke:#d3d300;stroke-width:6.42555;stroke-linecap:square;stroke-opacity:0;paint-order:markers stroke fill"
     d="m 111.38248,121.77795 12.66499,12.42068 8.04171,15.86274 3.53363,16.95389 2.2539,13.16109 -8.49232,2.53264 -18.15926,-16.09609 -10.70365,-36.23894 4.85891,-8.04918 z"
     id="path1477" />
  <path
     style="fill:#fffa9a;fill-opacity:1;stroke:#d3d300;stroke-width:6.42555;stroke-linecap:square;stroke-opacity:0;paint-order:markers stroke fill"
     d="m 141.8405,373.69224 0.27997,-20.33263 7.59318,-22.09427 18.33811,-20.74351 9.16383,0.0466 49.4347,-7.49801 24.26481,4.77167 5.09755,13.19029 -0.13131,16.76212 -16.70259,3.86239 -2.37726,10.51363 5.86592,25.82921 13.87795,1.44588 25.65287,1.4975 c 0,0 5.52547,7.28869 5.80532,8.12181 0.27984,0.83306 1.54369,6.97985 1.54369,6.97985 l -2.80296,8.27393 -10.76525,3.68465 c 0,0 -1.92754,15.4856 -2.49261,15.84898 -0.56506,0.36318 -22.3793,12.13785 -22.3793,12.13785 l -42.15759,5.50476 -38.19946,-10.32872 -18.01036,-22.88037 -4.9602,-7.2944 -27.05917,4.56447 -0.51305,-17.49647 14.23529,-3.53352 7.36145,-7.56786 z"
     id="path1475" />
  <path
     style="fill:#ee4331;fill-opacity:1;stroke:#d3d300;stroke-width:6.42555;stroke-linecap:square;stroke-opacity:0;paint-order:markers stroke fill"
     d="m 107.65069,452.99685 5.37511,-11.67789 6.37592,-27.78681 1.12416,-6.60462 27.56374,-6.33775 13.92581,22.57492 0.47806,33.11543 -9.51335,11.33805 -41.06849,-2.7717 z"
     id="path1473" />
  <path
     style="fill:#ee4331;fill-opacity:1;stroke:#d3d300;stroke-width:6.42555;stroke-linecap:square;stroke-opacity:0;paint-order:markers stroke fill"
     d="m 212.40038,443.16854 5.31725,17.05766 73.74517,-10.15558 15.47777,-7.73607 1.95356,-15.43657 -4.98927,-28.01257 -7.40256,-15.40571 -8.09703,-1.07119 2.00826,15.3624 -5.55173,6.69895 -5.95802,2.40033 -8.67754,22.43844 -31.90389,9.39953 z"
     id="path1471" />
  <path
     style="fill:#ee4331;fill-opacity:1;stroke:#d3d300;stroke-width:6.42555;stroke-linecap:square;stroke-opacity:0;paint-order:markers stroke fill"
     d="m 271.755,240.60425 -9.52379,2.91419 -8.6645,5.15541 -6.24088,1.85809 -12.35116,-5.44004 -9.1957,-3.55341 -8.01079,-10.81157 -4.51823,-45.11679 17.89088,-21.25695 24.16105,5.71223 9.4297,9.95362 23.91677,4.60971 13.83793,8.8211 25.21339,8.65794 21.77479,16.63727 8.13897,11.036 -0.0199,6.8482 10.77917,11.37823 -0.30931,19.63094 -11.49456,22.24832 -33.35855,11.62694 -23.22236,-4.35535 1.11881,23.45182 -18.85168,6.44379 -25.52783,8.717 -0.014,-10.85453 14.24333,-16.10573 23.74217,-13.60808 0.38094,-19.55591 -4.05828,-13.24796 -8.35699,-12.40751 c 0,0 -7.49988,-5.1298 -7.51379,-5.38004 -0.014,-0.2501 -3.39394,-4.00693 -3.39394,-4.00693 z"
     id="path1469" />
  <path
     style="fill:#ee4331;fill-opacity:1;stroke:#d3d300;stroke-width:6.42555;stroke-linecap:square;stroke-opacity:0;paint-order:markers stroke fill"
     d="m 159.85878,276.32982 c 0,0 -0.89014,-12.05544 -1.47479,-22.35602 -0.58468,-10.30051 -7.02849,-75.46125 -7.02849,-75.46125 l -10.04166,-3.50359 -6.79896,7.65912 -10.61244,-5.07958 -11.81593,-10.6345 -12.483417,8.26549 -24.80259,15.63818 -8.79122,6.64167 -8.21269,11.69884 -12.93046,3.40701 -12.79888,22.9546 -16.41768,22.31232 -12.41281,32.09392 0.90248,22.63539 18.59836,30.31692 23.58818,17.03777 -0.32374,10.7549 6.49442,-3.15751 21.48558,15.33999 0.97055,-19.50376 3.1098,-10.9768 10.27622,-16.78181 10.65889,-9.60201 c 0,0 10.232297,4.41361 7.868847,8.26316 -2.36345,3.84954 5.12148,5.57433 5.12148,5.57433 l 4.0718,-1.97828 7.03132,-18.36213 6.40483,-2.39774 22.93494,5.31139 4.68321,-40.91317 z"
     id="path1465" />
  <g
     inkscape:label="Layer 1"
     inkscape:groupmode="layer"
     id="layer1"
     transform="translate(371.66393,593.79036)">
    <path
       style="fill:#000000;stroke-width:1.75993"
       d="m -296.52628,146.1821 -5.31146,-2.23331 -5.3114,-2.23325 1.10492,-15.37431 c 0.60797,-8.45592 2.26631,-23.06994 3.68585,-32.475667 1.47136,-9.748821 3.39936,-44.176835 4.48452,-80.07694 1.04691,-34.636612 2.70884,-67.727499 3.69303,-73.535244 0.98426,-5.807812 2.08904,-21.647209 2.45508,-35.198682 0.6818,-25.240137 1.8573,-37.883647 4.45865,-47.958197 0.8719,-3.37648 0.81403,-5.71975 -0.14102,-5.71975 -0.88993,0 -1.62761,1.38595 -1.63925,3.07988 -0.0133,1.69392 -1.86474,6.30323 -4.11787,10.24284 -3.42198,5.98329 -4.29661,10.76574 -5.31053,29.03886 -1.11137,20.027254 -4.96059,42.167953 -8.08683,46.515049 -9.51574,13.231725 -20.56338,71.885153 -21.49714,114.131061 -0.3113,14.072369 -0.73129,15.828488 -4.35654,18.203816 -3.93509,2.578404 -14.89699,2.083716 -19.19799,-0.86632 -9.39282,-6.442518 -9.7254,-36.900922 -0.84942,-77.7906121 5.87546,-27.0668939 5.99832,-27.5757499 7.65193,-31.6787939 0.58536,-1.451936 2.35963,-6.995742 3.94327,-12.319509 1.58364,-5.323833 3.52049,-11.263615 4.30413,-13.19953 5.25253,-12.976765 8.09933,-23.658622 12.40259,-46.537731 4.48452,-23.84267 4.43004,-26.99778 -0.50287,-29.16205 -3.59412,-1.57679 -3.94001,-2.86822 -3.74538,-13.98164 0.12904,-7.34648 1.00866,-12.50908 2.19992,-12.90619 1.09201,-0.36385 1.98547,-2.60122 1.98547,-4.97169 0,-2.77756 1.32036,-4.79828 3.71372,-5.68369 3.589,-1.32762 3.54463,-1.48433 -1.31997,-4.66585 -2.76851,-1.81066 -6.00949,-4.26414 -7.20214,-5.45214 -1.19272,-1.188 -3.10329,-2.47158 -4.24586,-2.85239 -1.513,-0.5042 -1.04345,-4.74606 1.72852,-15.61357 4.21858,-16.53942 4.68294,-21.977 2.01719,-23.6245 -0.98372,-0.60797 -1.35448,-1.80787 -0.82388,-2.66647 0.53081,-0.85854 -1.23841,-2.96068 -3.93116,-4.67143 -2.69275,-1.71076 -7.10277,-5.6213 -9.80004,-8.69014 -2.69727,-3.06883 -7.29241,-6.5689 -10.21138,-7.77798 -3.57736,-1.4818 -4.97668,-3.05979 -4.29308,-4.84125 0.55808,-1.45354 -0.0599,-3.91427 -1.37285,-5.46825 -6.17678,-7.31109 -10.01735,-21.06105 -10.01735,-35.86418 0,-13.73792 0.49755,-15.77508 7.01131,-28.71266 3.8562,-7.65912 10.19195,-17.39158 14.07942,-21.62779 3.88752,-4.23614 7.06818,-8.08097 7.06818,-8.54406 0,-0.46296 1.95593,-4.73602 4.34649,-9.49552 5.94903,-11.84431 13.18723,-19.2071 19.34751,-19.68063 3.81124,-0.29268 5.96227,-2.00184 8.7218,-6.92909 3.9452,-7.04444 8.16039,-10.61741 15.07565,-12.77875 4.79947,-1.50003 20.61493,-12.70564 24.44339,-17.31867 1.32735,-1.59934 3.50432,-2.90786 4.83772,-2.90786 3.11733,0 3.19462,0.41972 -2.1479,-11.66059 -6.15803,-13.9241 -7.56979,-27.672 -3.32353,-32.36406 3.84861,-4.2527 10.88333,-4.5209 15.23702,-0.58069 3.07362,2.78155 3.21843,2.54867 3.21843,-5.17597 0,-4.44873 -0.79196,-8.57805 -1.75991,-9.1763 -0.96796,-0.59799 -1.75991,-5.74602 -1.75991,-11.43956 0,-10.15311 -2.12263,-14.97933 -4.20336,-9.55712 -0.72111,1.87918 -2.83862,2.56837 -6.72794,2.18982 -6.87468,-0.6691 -13.92317,-9.72741 -12.42135,-15.96319 1.97144,-8.1856 15.27148,-18.9079 23.45349,-18.9079 2.88997,0 3.51396,-0.73395 2.61525,-3.07595 -2.66993,-6.95763 -4.66086,-19.93413 -4.14555,-27.02 0.51418,-7.06845 1.09807,-7.83752 9.05305,-11.92094 9.35065,-4.79974 8.70297,-4.67515 33.73478,-6.49187 11.81916,-0.8578 18.0616,-2.0609 19.00674,-3.66323 2.18941,-3.71166 7.25928,-2.82093 11.4631,2.01387 2.10407,2.41996 5.63454,4.39984 7.8455,4.39984 2.2109,0 5.97264,1.36779 8.35934,3.0395 2.38677,1.67178 5.46365,3.20453 6.83763,3.40621 9.1521,1.34318 17.61375,23.25061 14.07078,36.42932 -1.61458,6.00557 -1.39101,7.20274 1.92134,10.28861 4.333,4.03685 7.05268,10.3635 7.05268,16.40638 0,2.58147 1.53941,5.04334 3.95984,6.3327 2.1779,1.16013 4.89606,3.3659 6.04029,4.90172 3.77897,5.0722 4.32767,18.02921 1.19903,28.31143 -1.67144,5.49305 -2.79106,14.37489 -2.58864,20.53524 0.21618,6.59012 -0.71353,13.41704 -2.36695,17.37428 -1.49803,3.58528 -2.72368,6.81794 -2.72368,7.18372 0,0.36584 2.70772,0.66517 6.01714,0.66517 7.23368,0 15.94157,4.67137 18.85476,10.11473 1.44934,2.70805 3.73294,3.96469 7.20493,3.96469 9.088509,0 20.739986,3.86857 23.952632,7.95279 1.981413,2.51894 7.177134,5.0263 14.079885,6.79473 14.826587,3.79839 36.723435,18.04111 33.181729,21.58289 -0.575374,0.57537 -4.347561,-1.77887 -8.38196,-5.23218 -6.8659,-5.87699 -24.833626,-13.49885 -31.821985,-13.49885 -1.708825,0 -4.920939,-1.93539 -7.138022,-4.30074 -5.356826,-5.71528 -12.000027,-8.01884 -23.125489,-8.01884 -8.33493,0 -9.47377,-0.48757 -12.29696,-5.26709 -3.8818,-6.57137 -7.45697,-8.52165 -16.61179,-9.06184 -5.74156,-0.33857 -7.88348,0.41374 -10.54942,3.70594 l -3.34508,4.13105 8.50967,8.20223 c 6.53365,6.29764 8.50967,9.45335 8.50967,13.59012 0,5.99133 -2.20684,8.50036 -8.9691,10.19761 l -4.54958,1.1419 3.29473,6.6593 c 3.66044,7.39837 2.35138,14.57131 -3.03671,16.63886 -2.33242,0.89506 -2.6819,0.47427 -1.62654,-1.95986 3.18125,-7.33671 2.87953,-13.71171 -0.80685,-17.04781 -6.81821,-6.17033 -3.94381,-11.57106 6.15835,-11.57106 6.92224,0 5.44217,-6.90255 -3.32506,-15.50701 l -7.58096,-7.44021 -4.01843,4.27745 c -3.83199,4.0789 -3.92937,4.85143 -2.09868,16.65051 1.05589,6.80524 1.91975,17.09298 1.91975,22.86175 0,10.12145 0.21551,10.6158 6.15982,14.12298 3.38785,1.99884 6.15975,4.453 6.15975,5.45361 0,1.00062 2.19966,1.81931 4.88815,1.81931 2.68856,0 6.62877,1.21906 8.75598,2.70905 3.49881,2.45069 4.29169,2.43133 8.31132,-0.20221 2.44398,-1.60127 4.44355,-3.64601 4.44355,-4.54372 0,-0.89779 4.69711,-3.85368 10.43807,-6.56871 l 10.438137,-4.93643 -5.937521,-13.6581 c -3.265596,-7.51199 -7.170746,-15.02097 -8.678156,-16.68663 -1.50735,-1.66566 -2.74071,-3.95604 -2.74071,-5.08983 0,-3.92876 3.06411,-2.0283 7.83918,4.86221 2.96713,4.28157 5.744886,6.56025 7.279171,5.97151 1.700976,-0.65253 2.484149,0.35187 2.490868,3.19608 0.0133,6.29658 3.452772,17.34761 5.396669,17.34761 0.946672,0 2.199722,-2.39236 2.784541,-5.31638 1.450739,-7.25377 4.12852,-8.4389 4.12852,-1.82723 0,5.60407 2.422555,7.26181 4.125793,2.82332 2.746493,-7.15725 28.156292,-13.45243 33.243257,-8.23589 1.823967,1.8704 0.740802,2.06822 -5.956477,1.08762 -10.760261,-1.57539 -14.889646,-0.0665 -17.092827,6.25594 -0.997624,2.86177 -3.835711,6.12437 -6.306823,7.25031 -2.471179,1.126 -4.493101,2.58492 -4.493101,3.24211 0,1.79436 -8.425595,5.27607 -12.842267,5.30674 -2.132407,0.0133 -5.065015,0.78011 -6.516952,1.70064 -2.154224,1.36566 -0.955319,3.28162 6.515821,10.41306 10.690969,10.2048 15.747337,23.37453 13.844947,36.06035 l -1.107045,7.38234 12.404983,2.12721 c 18.990361,3.25648 23.001279,2.75308 37.187991,-4.6673 11.469419,-5.99912 13.575086,-7.9049 17.9865036,-16.27941 4.0954611,-7.77459 4.8504307,-11.05076 4.1869887,-18.16923 -0.7002926,-7.51411 -1.7823271,-9.53004 -8.0292193,-14.95944 -5.958739,-5.17889 -6.899491,-6.82366 -5.385627,-9.41544 1.480871,-2.53543 0.793749,-4.11242 -3.56685,-8.1858 -5.493718,-5.13193 -6.963747,-8.91303 -3.465211,-8.91303 1.06474,0 4.71314,2.77722 8.10751,6.17159 4.845043,4.84505 5.938651,7.09965 5.087963,10.48916 -0.807651,3.21797 -0.187578,4.79708 2.433863,6.20013 8.77826859,4.69797 12.4591948,21.52775 7.8874709,36.06254 -3.4572955,10.99156 -10.5995079,18.37038 -24.8839999,25.70835 -6.99102,3.59126 -10.787353,4.24486 -24.656046,4.24486 h -16.392667 l 7.98e-4,7.47972 c 7.99e-4,8.39486 2.690087,9.73937 7.920464,3.95983 3.746292,-4.13963 6.97131,-4.65347 5.523298,-0.87996 -1.480073,3.857 3.589598,3.30498 8.081568,-0.87995 4.501814,-4.19411 6.634288,-4.47694 6.634288,-0.87996 0,3.64195 2.374529,3.30271 6.159821,-0.88002 3.787619,-4.18532 7.440409,-4.55988 8.230633,-0.84403 0.461629,2.17045 1.820308,1.82283 7.193231,-1.84 5.596554,-3.81523 6.786213,-4.09387 7.6680307,-1.7959 1.4408281,3.75476 4.7839801,3.40229 8.692395,-0.91647 3.1525139,-3.48344 3.3891154,-3.50233 5.6224953,-0.44766 2.2359741,3.05779 2.5538596,3.06092 7.753239,0.0772 3.919324,-2.24941 6.045611,-2.59384 7.673286,-1.24294 1.635457,1.35728 4.016705,0.87729 8.701375,-1.75393 6.779494,-3.80784 10.264262,-3.44259 8.597475,0.90098 -1.254447,3.26892 1.033344,3.22169 5.441302,-0.11241 4.56188,-3.45045 9.991808,-3.41533 8.659802,0.0532 -0.557414,1.452 -0.233475,2.63993 0.719715,2.63993 0.952992,0 2.718623,-1.18793 3.923648,-2.63993 1.204958,-1.45194 3.731213,-2.63987 5.613848,-2.63987 2.703323,0 3.170074,0.79675 2.220209,3.78962 l -1.202763,3.78961 6.093969,-3.76626 c 6.257335,-3.86725 8.873854,-3.5916 7.204406,0.75896 -1.074784,2.80083 2.165666,3.39989 3.829393,0.70787 1.763636,-2.85358 10.22362,-2.1962 9.109191,0.70788 -1.498498,3.90515 0.867916,4.84823 4.321886,1.72239 3.818816,-3.45596 8.979479,-2.03037 7.414399,2.0482 -0.898712,2.34207 -0.0333,2.74716 4.83959,2.26657 4.94821,-0.48824 5.93892,-6e-4 5.96386,2.9346 0.02,2.62131 1.27334,3.56532 4.90105,3.69789 6.19355,0.22616 7.63783,1.69253 4.9077,4.98214 -2.85604,3.44139 -0.68226,6.7016 3.56872,5.35243 2.3986,-0.76129 3.37175,-0.22616 3.37175,1.8531 0,1.60779 -1.58391,3.33744 -3.51982,3.8437 -4.19158,1.09613 -4.45991,2.81866 -0.89938,5.77369 3.41226,2.8319 1.78366,5.29583 -3.50047,5.29583 -4.95825,0 -7.36092,3.02274 -4.59846,5.78513 3.4106,3.41066 2.14904,4.77446 -4.41674,4.77446 -4.98945,0 -5.96772,0.4909 -4.50048,2.25893 2.61013,3.14506 0.0772,6.8192 -3.25016,4.71487 -4.920676,-3.11188 -7.133435,-1.98534 -5.883445,2.9952 1.030617,4.1063 0.761355,4.51904 -2.166331,3.3202 -8.357215,-3.42211 -9.551065,-3.28788 -9.079525,1.02071 0.473603,4.32321 -0.919599,4.7007 -8.663992,2.34805 -3.257012,-0.98944 -3.69383,-0.60531 -2.874671,2.52725 0.744526,2.847 0.154985,3.6939 -2.570822,3.6939 -1.945227,0 -3.992692,-1.18793 -4.54984,-2.63987 -1.355154,-3.53139 -4.619882,-3.33756 -7.410742,0.43968 -1.823102,2.46759 -2.718889,2.64253 -4.505872,0.87996 -2.995068,-2.95416 -5.046257,-2.7753 -5.046257,0.43968 0,2.98868 -2.755939,3.53991 -4.399844,0.87995 -2.028507,-3.28209 -7.919731,-1.97296 -7.919731,1.75998 0,4.67822 -4.78265,4.52376 -8.672507,-0.28004 -3.26546,-4.03267 -7.692842,-3.13841 -6.021731,1.21633 1.315443,3.42803 -3.568712,3.3852 -6.424958,-0.0532 -2.85618,-3.44153 -7.7403353,-3.48443 -6.424892,-0.0532 1.633262,4.2563 -1.6548138,4.64908 -6.5677042,0.78463 -2.5337049,-1.99298 -4.70568943,-3.17014 -4.82668413,-2.61592 -0.12106122,0.55409 -0.31928233,1.93166 -0.44034357,3.06099 -0.298662,2.78514 -4.0248864,3.85294 -5.4423669,1.55949 -0.6299174,-1.01917 -2.7290657,-1.85296 -4.6649812,-1.85296 -2.217748,0 -3.054135,0.75364 -2.260851,2.03715 0.895587,1.44914 0.03326,1.65568 -2.975978,0.71546 -8.847646,-2.76133 -14.450718,-3.28382 -13.180905,-1.2291 0.762885,1.23435 -0.109754,1.99637 -2.285995,1.99637 -1.935916,0 -4.009322,-0.79195 -4.607577,-1.75997 -1.752527,-2.83556 -6.668943,-2.10534 -5.544936,0.82361 1.58364,4.12699 -1.614505,4.69345 -5.052244,0.89486 -3.797664,-4.19637 -11.818083,-4.85063 -10.278497,-0.83845 1.335532,3.48031 -3.514813,3.48031 -6.403253,0 -1.205025,-1.45194 -3.836311,-2.63993 -5.847257,-2.63993 -2.843875,0 -3.187103,0.46961 -1.544462,2.11192 2.890569,2.89057 2.649445,4.92779 -0.583355,4.92779 -1.482335,0 -3.150984,-1.18793 -3.708132,-2.63987 -0.557414,-1.45194 -2.066488,-2.63993 -3.353994,-2.63993 -1.671843,0 -2.067886,1.68275 -1.385619,5.88736 1.463111,9.01581 -3.996218,18.13843 -10.313618,17.23446 -0.669495,-0.0958 -1.772416,3.57224 -2.450957,8.15128 -0.909157,6.13528 -2.722481,9.73718 -6.893239,13.69196 -6.729211,6.38092 -13.851401,8.71461 -35.636831,11.67715 -16.14558,2.1956 -16.27941,2.2544 -16.27941,7.15971 0,2.96799 1.1586,5.39055 2.89702,6.05765 7.24864,2.78155 76.796517,-9.81427 81.796412,-14.81417 1.732573,-1.73257 -1.081036,-26.06208 -3.858992,-33.36859 -2.402001,-6.31774 -1.998508,-11.11721 0.934699,-11.11721 1.535149,0 3.388051,3.01542 4.596202,7.47972 2.533239,9.36109 6.70757,38.72715 5.744222,40.4103 -0.393782,0.68852 -3.523813,1.77847 -6.954967,2.42215 -3.431221,0.64389 -6.608812,2.1352 -7.061262,3.31442 -0.824014,2.14731 1.103986,18.96164 4.445475,38.76992 2.79811,16.58685 6.935078,56.218102 8.064872,77.259806 0.566726,10.550086 1.369655,19.731648 1.784788,20.4034047 0.415067,0.6718232 2.368789,23.0354883 4.341355,49.6970933 3.826266,51.718017 4.512391,87.635216 1.889952,98.944396 l -1.612442,6.95384 13.97399,13.36788 c 7.685657,7.35234 13.973989,14.32081 13.973989,15.48533 0,1.27034 23.7426328,19.40864 15.773878,34.38178 -2.567895,4.82509 -16.884581,8.42513 -23.846266,9.92809 -10.568378,2.28154 -26.981133,-5.22965 -39.493156,-10.12212 -18.939542,-7.40568 -39.287419,-33.38921 -39.837779,-34.27023 -3.65997,-5.85877 -5.18827,-26.82171 -2.34286,-32.1383 2.30914,-4.31476 -0.99576,-39.39358 -6.29904,-66.857983 -1.49524,-7.743661 -3.86272,-22.791105 -5.26111,-33.438705 -2.35118,-17.902958 -5.99153,-41.9329447 -9.59823,-63.357587 -0.81477,-4.839855 -4.38328,-19.887232 -7.92997,-33.438771 -3.54676,-13.551473 -7.42525,-28.598917 -8.61883,-33.438705 -1.19352,-4.839788 -3.6047,-11.544983 -5.35802,-14.900379 l -3.1879,-6.10075 -5.10626,6.10075 c -2.80842,3.355396 -5.58372,8.080641 -6.16727,10.500535 -0.58336,2.419894 -2.56244,7.396575 -4.39745,11.059342 -6.2729,12.520856 -24.57004,76.710307 -31.46261,110.376035 -10.81569,52.827922 -14.1345,71.821698 -16.14445,92.396518 l -2.23504,22.8791 -4.83985,0.55675 c -4.60239,0.52948 -4.83979,1.01539 -4.83979,9.90474 0,5.14124 -1.19857,12.21641 -2.66355,15.72246 l -2.66348,6.37474 -15.98696,11.03313 -22.19671,15.3187 -21.17966,9.96134 -18.91586,5.01772 -4.55229,-0.26673 c -10.64157,-0.6246 -30.52161,-7.24837 -23.60081,-24.69622 4.79434,-12.08683 28.39444,-20.81741 36.42933,-31.57117 z m 208.13237,7.90317 c 2.00935,-1.29855 1.301009,-1.71248 -2.965335,-1.73304 -3.082871,-0.0133 -7.555284,-0.76834 -9.938665,-1.6745 -5.07346,-1.92893 -7.25575,-0.55741 -4.46456,2.80563 2.26271,2.72647 13.479568,3.11513 17.36856,0.60198 z m -158.84383,-3.87689 c 2.54888,-2.11537 2.92802,-4.9228 0.66451,-4.9228 -4.04112,0 -14.31063,5.58971 -13.29339,7.23561 1.2621,2.04201 9.11405,0.60397 12.62862,-2.31281 z m -89.1689,-83.679837 c 1.05503,-10.103556 0.85116,-25.347758 -0.34855,-26.089424 -0.85188,-0.526151 -1.54892,-1.749201 -1.54892,-2.717159 0,-0.968024 0.70515,-1.324157 1.56695,-0.791554 1.81957,1.124539 4.38368,-10.570973 2.85864,-13.038559 -0.56407,-0.91215 -0.26208,-3.076552 0.67036,-4.809856 0.93244,-1.73337 2.9964,-10.2792278 4.58649,-18.99091273 1.59016,-8.71168497 6.42616,-26.89255227 10.74671,-40.40191927 7.72144,-24.143399 11.73655,-43.429914 13.75821,-66.087319 0.94122,-10.54876 0.70887,-11.64522 -2.94325,-13.88885 -3.95445,-2.42927 -3.95611,-2.42568 -0.60265,1.34411 5.02943,5.6539 2.1066,6.51775 -3.09012,0.91328 -2.46606,-2.65955 -4.01398,-5.68129 -3.4398,-6.71497 0.70089,-1.26176 0.43369,-1.30107 -0.81284,-0.11973 -1.02124,0.96796 -3.52661,10.07562 -5.56755,20.23924 -2.04088,10.163623 -6.53411,27.586926 -9.98496,38.718505 -3.45084,11.131579 -6.93049,23.011143 -7.73248,26.398995 -0.80207,3.387918 -2.66408,10.911606 -4.13784,16.719419 -1.47375,5.807745 -3.86817,18.0321344 -5.3209,27.1652055 -2.53304,15.9251375 -2.49739,16.8987495 0.86991,23.7590625 1.93112,3.934423 4.64682,9.925423 6.03497,13.313275 2.2073,5.38729 2.20391,5.745219 -0.0266,2.854317 -1.40285,-1.81798 -3.97307,-6.764794 -5.71156,-10.992957 -1.73849,-4.228163 -3.62944,-7.690514 -4.20216,-7.694172 -0.57271,-0.0035 -1.09567,3.599243 -1.16232,8.006403 -0.0845,5.608195 1.69612,11.946215 5.93433,21.119196 5.2661,11.397714 9.14957,16.162405 9.60654,11.786241 z m -7.74486,-14.922458 c -4.61289,-11.040251 -4.84637,-14.724104 -0.31994,-5.044129 2.44656,5.231774 4.08934,9.871212 3.65066,10.309826 -0.43902,0.438349 -1.93758,-1.930926 -3.33098,-5.265697 z m 2.8806,-30.835755 c -0.60265,-1.693926 -1.49238,-3.796267 -1.97663,-4.671766 -0.48424,-0.875565 -0.0599,-1.085892 0.93889,-0.467616 1.83335,1.133054 4.33725,8.219059 2.90427,8.219059 -0.42371,0 -1.26369,-1.385951 -1.86653,-3.079877 z m 4.06386,-26.0270977 c -1.69832,-4.4256523 -1.19731,-5.5676183 0.87736,-1.9998382 1.02729,1.766496 1.49704,3.5826138 1.04392,4.0357286 -0.45298,0.4529818 -1.3177,-0.4629593 -1.92128,-2.0358904 z m -8.50388,65.6255567 c -1.069,-3.145862 -3.09319,-7.303717 -4.49823,-9.239632 -2.41397,-3.326124 -2.49133,-3.243376 -1.40517,1.503288 1.04618,4.571724 5.8402,13.456154 7.26101,13.456154 0.32261,0 -0.28868,-2.573882 -1.35761,-5.71981 z m 47.41901,-202.091279 c 1.19571,-2.34347 2.18569,-7.47833 2.19992,-11.41082 l 0.0266,-7.14986 -10.11959,0.11042 c -5.56582,0.0599 -11.90158,-0.5368 -14.07949,-1.32835 -3.7666,-1.36833 -3.95983,-1.01379 -3.95983,7.2642 0,9.79199 1.10153,11.13458 12.31951,15.01592 9.47191,3.27723 10.78868,3.03524 13.61353,-2.50125 z m 34.80277,-3.41592 c 4.03646,-7.80573 9.66148,-37.45734 9.66148,-50.92953 v -11.85854 l -12.0716,0.65187 c -13.51528,0.72976 -15.04398,-0.20222 -16.55824,-10.09205 -1.28472,-8.39088 1.28631,-21.27345 6.53245,-32.73263 3.52527,-7.70009 5.09774,-9.39967 8.69672,-9.39967 2.4163,0 4.88275,0.79195 5.48101,1.75991 1.96618,3.18132 4.31437,1.84312 5.40432,-3.07988 2.63767,-11.91335 4.84783,-16.58419 8.50528,-17.97473 3.7505,-1.42593 14.49615,-0.11507 20.84907,2.54315 2.81181,1.17656 3.08048,-0.22083 3.08646,-16.0589 0.0133,-28.03079 5.07233,-32.71181 39.12047,-36.17868 l 18.88781,-1.92314 1.06514,-6.34228 c 1.66579,-9.91917 2.5341,-12.26709 5.71283,-15.44635 2.52984,-2.53031 2.88358,-6.20944 2.41217,-25.08947 -0.61994,-24.83538 -1.21852,-28.28409 -4.9079,-28.28409 -3.57656,0 -11.42146,-5.3531 -10.36058,-7.06971 0.4776,-0.77273 0.22284,-3.14919 -0.56539,-5.28113 -1.4258,-3.85447 -1.45161,-3.84915 -4.58889,0.93882 -2.10121,3.20693 -2.52559,5.20404 -1.27054,5.97963 2.70937,1.6745 12.40319,23.61272 11.25743,25.477 -0.52948,0.86093 -2.62903,-2.35411 -4.66638,-7.14454 -4.60265,-10.82201 -7.56912,-15.78173 -8.73929,-14.61149 -0.49422,0.49422 -1.59668,6.82366 -2.44916,14.06479 -1.69187,14.37096 -1.08569,14.59991 -8.46857,-3.19875 -1.72585,-4.16058 -3.76773,-7.95405 -4.53753,-8.42978 -0.76987,-0.4756 -3.95278,3.65864 -7.0731,9.18768 -3.12039,5.52897 -5.98621,9.11431 -6.36855,7.96742 -0.38248,-1.14695 1.35602,-5.58518 3.86285,-9.86276 5.04339,-8.60592 5.39806,-8.10006 -7.50473,-10.70401 -5.26337,-1.06221 -5.77975,-0.82667 -4.81964,2.19853 1.89474,5.96971 6.27643,51.93493 6.29592,66.04581 0.0266,20.20432 -2.9831,16.53536 -4.333,-5.2798 -0.64388,-10.40561 -2.31892,-28.67255 -3.72223,-40.59316 -1.40331,-11.92067 -2.09602,-22.41089 -1.53927,-23.31166 0.55675,-0.90078 -0.95639,-2.53464 -3.36231,-3.63091 -3.6504,-1.66319 -5.12694,-1.40132 -8.91989,1.58224 -5.72107,4.50022 -9.47955,3.53619 -19.04718,-4.88555 l -7.54544,-6.6418 -11.39459,8.59175 c -6.26698,4.72551 -15.14509,9.84408 -19.72919,11.37464 -7.79055,2.60108 -10.82327,5.48314 -16.42202,15.60598 -2.14464,3.87755 -5.0408,5.66447 -11.32195,6.98557 -4.54192,0.95532 -14.07948,15.30959 -14.07948,21.19003 0,1.59928 -2.86623,5.83841 -6.36949,9.4203 -10.32073,10.55248 -14.57477,16.8603 -19.3833,28.74099 -10.22514,25.26428 -4.11475,46.70323 20.41744,71.63672 14.81816,15.06061 33.67485,31.94453 35.69417,31.95989 0.72604,0.005 1.31199,-2.16779 1.30214,-4.82974 -0.0399,-10.37495 7.64841,-27.4352 16.29318,-36.16239 4.60006,-4.64396 8.36373,-9.1026 8.36373,-9.90819 0,-1.8529 -18.58382,-15.96704 -21.02354,-15.96704 -0.99849,0 -3.38852,-1.34704 -5.31133,-2.99334 -3.44412,-2.94897 -3.41832,-3.02607 1.73982,-5.19486 2.87966,-1.21081 5.23577,-3.3049 5.23577,-4.65361 0,-5.82982 -15.19737,-12.80761 -24.81908,-11.39545 -3.24391,0.47626 -4.94043,0.0466 -4.51785,-1.13964 0.93849,-2.63813 13.91027,-1.80294 19.94989,1.28452 3.42597,1.75133 6.28734,2.06017 9.14019,0.98665 3.62758,-1.36507 4.00713,-2.34014 3.00013,-7.70781 -0.67236,-3.58401 -0.44234,-6.14506 0.55209,-6.14506 4.23588,0 13.26272,-10.33197 18.25111,-20.88997 6.43074,-13.61061 8.17376,-11.91748 3.64733,3.54303 -2.1334,7.28682 -5.1161,12.80948 -8.92414,16.52366 -3.26333,3.18285 -5.71981,7.36352 -5.71981,9.73459 0,2.28579 -1.89481,5.76963 -4.21067,7.74193 -3.47698,2.96114 -4.05462,4.75478 -3.31481,10.29313 0.73821,5.52651 2.17644,7.50613 8.17057,11.24612 4.001,2.49645 10.44252,7.76548 14.31435,11.70901 l 7.03971,7.17002 -6.77543,1.13465 c -7.32627,1.22684 -12.55179,6.24729 -19.1006,18.35095 -2.88851,5.3386 -3.92378,10.65452 -4.28417,21.99915 -0.26142,8.22771 -0.51219,15.55338 -0.55675,16.27934 -0.20621,3.33132 -5.63746,0.59932 -14.86971,-7.47972 -5.5307,-4.83978 -10.64727,-8.79962 -11.37018,-8.79962 -0.99842,0 -5.81998,21.61788 -6.32126,28.3423 -0.0466,0.58468 5.46452,5.24913 12.24022,10.3651 6.77577,5.11597 15.29396,12.1284 18.92939,15.5831 6.19754,5.8895 6.79479,6.0963 9.57488,3.31628 1.6308,-1.6308 2.61618,-3.26273 2.18981,-3.62651 -0.42638,-0.36385 -5.12043,-3.55055 -10.43135,-7.08168 -11.27021,-7.49336 -8.82869,-8.60493 3.57982,-1.62981 4.68699,2.63475 9.15954,4.11023 9.93899,3.27897 0.77945,-0.83134 0.42704,-1.86501 -0.78278,-2.29717 -3.63097,-1.29676 -2.48242,-4.01219 1.69706,-4.01219 3.39124,0 3.56259,-0.31861 1.31996,-2.45255 -1.41734,-1.34883 -7.4734,-4.96517 -13.45781,-8.0362 -11.78565,-6.04807 -19.75354,-12.81167 -10.09458,-8.56881 2.82478,1.24081 8.93265,4.45246 13.57309,7.13696 9.52559,5.51055 11.80214,5.97058 11.80214,2.3849 0,-1.37278 0.40509,-3.55135 0.89998,-4.84131 0.54145,-1.4119 -1.24966,-3.29686 -4.50089,-4.73602 -6.41817,-2.84095 -5.91583,-4.62075 0.60464,-2.14172 3.69397,1.40444 4.67716,1.16963 5.31971,-1.27068 0.4337,-1.6465 0.88009,0.68486 0.99237,5.18069 0.24346,9.74882 -5.42387,29.15486 -10.33936,35.40389 l -3.51237,4.46523 7.02794,8.50481 c 3.86538,4.67762 7.02793,9.5371 7.02793,10.79886 0,3.8115 6.64021,-0.75171 9.69781,-6.66442 z m -35.77918,-41.52147 c -6.11711,-3.46695 -10.69057,-6.73493 -10.16335,-7.26221 1.23083,-1.23077 23.92522,10.36097 23.92522,12.22046 0,2.37732 -2.24808,1.56734 -13.76187,-4.95825 z m 13.76187,-8.0082 c -7.59174,-4.38355 -10.22076,-6.75316 -7.49229,-6.75316 2.97857,0 14.53207,7.13423 14.53207,8.9735 0,1.94868 0.39777,2.07414 -7.03978,-2.22034 z m -3.36796,-21.51338 c -4.4667,-5.4111 2.0321,-31.81695 9.31892,-37.86442 1.8529,-1.53781 1.51858,0.10775 -1.09873,5.40797 -2.43027,4.92167 -4.1105,12.54747 -4.747,21.54431 -0.87157,12.31997 -1.27214,13.57855 -3.47319,10.91214 z m 54.71854,-141.84743 c -4.57665,-4.18014 -5.55658,-6.16601 -4.57259,-9.26637 1.21467,-3.82713 5.53316,-8.18946 8.21992,-8.3034 0.72597,-0.0333 1.31997,-0.95825 1.31997,-2.06104 0,-1.36579 -2.74443,-1.68009 -8.60779,-0.98565 -11.83014,1.40112 -15.56341,-1.33021 -12.77016,-9.34306 2.34074,-6.71458 10.1899,-17.58508 12.69753,-17.58508 0.93496,0 -0.29334,3.93349 -2.72947,8.74115 -5.74083,11.32887 -5.60633,12.37805 1.5863,12.37805 3.3087,0 7.2686,0.48092 8.79969,1.06826 3.88806,1.49198 3.47372,8.32143 -0.73601,12.1312 -4.45273,4.02961 -4.42073,5.85398 0.18891,10.76042 5.89302,6.27283 3.04023,8.34404 -3.39604,2.46552 z m 46.69244,-8.16604 c -1.37338,-1.37338 0.51884,-5.93985 2.46147,-5.93985 2.01095,0 2.05638,4.77254 0.0599,6.00809 -0.83293,0.51485 -1.96632,0.48425 -2.51861,-0.0685 z m -24.7505,214.4918 c 1.87732,-17.8363 1.63812,-19.0406 -5.09534,-25.6516 -3.14573,-3.08859 -6.56106,-7.1349 -7.58961,-8.99179 -1.75885,-3.1754 -2.52632,-3.23686 -12.90632,-1.03408 -12.34273,2.61925 -12.97238,3.42617 -15.13698,19.39807 -0.72158,5.32383 -2.79838,13.46693 -4.61516,18.09585 -2.50171,6.37408 -2.77024,8.59103 -1.10671,9.1366 5.63513,1.84818 10.49002,2.29245 27.12543,2.48229 l 17.88912,0.20421 z m 86.77888,-9.19546 c 3.06105,-1.63825 2.90201,-2.39275 -2.69202,-12.77222 -3.26985,-6.0671 -5.93798,-11.82303 -5.92914,-12.79099 0.0266,-2.6994 4.82955,4.25331 10.03438,14.51943 3.02347,5.96353 5.80209,9.23964 7.83665,9.23964 3.96383,0 3.94467,-0.31862 -0.56007,-9.30975 -7.84909,-15.66711 -12.90985,-22.36266 -16.9052,-22.36586 -2.14385,-0.002 -4.6554,-1.41854 -5.58119,-3.14845 -1.65528,-3.09298 -10.76008,-54.78672 -10.76008,-61.09208 0,-7.50367 2.00762,0.12705 6.89111,26.19246 2.85658,15.24706 6.08765,28.79893 7.18006,30.11517 1.30826,1.57639 4.05156,2.05811 8.037,1.41136 6.49966,-1.05476 8.30773,1.77974 3.47293,5.44437 -2.19846,1.66638 -1.74514,3.291 3.07988,11.03832 3.11174,4.99637 7.0564,11.61649 8.76596,14.7114 2.47743,4.48518 3.60323,5.21627 5.5476,3.60257 2.0317,-1.68615 1.43471,-3.69317 -3.57171,-12.00708 -3.3061,-5.49033 -6.79253,-10.76387 -7.74752,-11.71893 -0.95505,-0.95498 -1.73643,-2.49273 -1.73643,-3.41712 0,-3.28807 7.1486,4.85702 10.9591,12.4868 4.58071,9.17205 6.64021,10.90762 6.64021,5.59582 0,-2.12795 -2.48289,-7.90429 -5.51753,-12.83621 -3.03465,-4.93191 -4.30592,-7.96157 -2.82512,-6.7326 3.83758,3.18491 7.31962,1.92288 8.34265,-3.02367 1.40597,-6.79799 4.943223,-6.36875 6.281082,0.76229 1.43983,7.67495 4.884089,9.48242 9.72361,5.10273 3.970143,-3.59293 3.368562,-9.89722 -1.455129,-15.24986 -3.329117,-3.69416 -6.010556,-4.0471 -4.694714,-0.61794 1.559827,4.06473 -2.117972,4.7454 -5.492587,1.01651 -3.100102,-3.42563 -10.809232,-5.03076 -8.837272,-1.84006 2.23944,3.62339 -3.31222,3.98238 -6.2117,0.40176 -4.05761,-5.01087 -5.4719,-4.80473 -4.11542,0.59999 1.21846,4.85482 -1.16392,5.84852 -4.47028,1.86454 -1.15727,-1.39447 -3.09977,-2.15323 -4.31657,-1.68628 -1.48619,0.57006 -2.94345,-2.49732 -4.43902,-9.34426 -1.22458,-5.60633 -2.94298,-12.01247 -3.81862,-14.23593 -2.0891,-5.30468 -2.08398,-28.49788 0.005,-25.1985 1.2164,1.92075 2.00775,1.54746 3.73134,-1.75991 3.1142,-5.97597 3.25908,-6.03962 5.80782,-2.55399 2.19859,3.00671 2.43885,3.00857 5.40671,0.0399 2.32863,-2.32863 2.82053,-4.62653 1.96578,-9.18276 -3.06045,-16.3136 -5.90639,-18.04072 -29.62348,-17.97759 -16.5494,0.0466 -24.36603,1.2285 -42.14986,6.38684 l -10.14559,2.94285 1.04305,6.31321 c 1.60819,9.73326 2.34866,11.15879 5.22346,10.05567 4.46683,-1.71395 9.62524,5.16386 9.62524,12.83309 0,9.59909 -1.46398,12.46345 -6.37015,12.46345 h -4.23362 l 4.39592,6.96361 c 8.31132,13.16594 10.24617,31.82154 4.47447,43.1423 -1.92128,3.76852 -3.23472,7.11028 -2.91877,7.42624 1.50655,1.50661 30.38836,4.10417 34.81727,3.13142 4.85456,-1.0662 5.03848,-1.49158 5.17244,-11.96523 0.15233,-11.89853 0.76129,-11.67283 2.45382,0.90935 0.90337,6.71564 1.82889,8.36088 4.97821,8.84984 2.8041,0.43503 1.25013,1.49843 -5.6471,3.86345 -7.32427,2.51136 -12.49206,3.03777 -22.43917,2.28547 -11.63458,-0.87996 -12.92341,-0.66119 -12.92341,2.1912 0,4.2561 2.75354,6.25634 13.19953,9.58805 9.56363,3.05035 36.88276,2.62863 43.0358,-0.6645 z m -37.42608,-25.8199 c -2.10706,-2.10713 -1.31185,-4.14315 1.6183,-4.14315 1.96691,0 2.47111,-0.93796 1.65561,-3.07988 -0.88295,-2.31938 -0.67142,-2.58286 0.85674,-1.06693 1.11609,1.10718 1.75699,3.41745 1.4242,5.13399 -0.65852,3.39776 -3.62671,5.08404 -5.55485,3.15597 z m -13.52945,-3.20799 c 0,-1.57 1.03241,-2.18848 2.62982,-1.57552 1.44635,0.55475 2.19161,1.71814 1.65601,2.58466 -1.53575,2.48494 -4.28583,1.8374 -4.28583,-1.00914 z m -125.99134,25.7164 c 0.51218,-0.82907 -2.12216,-3.96143 -5.8545,-6.96082 -6.37887,-5.12621 -6.95131,-5.27102 -9.53836,-2.41231 -3.63204,4.01338 -1.40724,7.34815 6.08186,9.11617 8.24074,1.9455 8.26702,1.94616 9.311,0.25676 z m 111.91185,-10.81216 c -1.45193,-0.93836 -5.01579,-1.70604 -7.91966,-1.70604 -4.0509,0 -4.66538,0.39711 -2.63994,1.70604 1.45194,0.93829 5.01586,1.70603 7.91974,1.70603 4.05089,0 4.66531,-0.39711 2.63986,-1.70603 z m -8.95287,-16.70446 c 5.48427,-11.49123 0.97627,-34.19028 -7.5628,-38.08093 -6.08945,-2.7745 -9.58313,-0.9208 -12.80715,6.79539 -2.36821,5.66786 -2.45768,8.33679 -0.62327,18.60039 2.40526,13.45921 6.86324,19.31099 14.06831,18.46689 2.88379,-0.33791 5.28293,-2.3408 6.92511,-5.78174 z m 7.19296,-1.10258 c 0,-0.96796 -0.79195,-1.27048 -1.75991,-0.67229 -0.96796,0.59799 -1.75998,1.87971 -1.75998,2.84766 0,0.96796 0.79202,1.27048 1.75998,0.67223 0.96796,-0.59799 1.75991,-1.87965 1.75991,-2.8476 z m -40.91842,-1.92647 c 9.89369,-2.0041 10.0681,-2.30223 8.14569,-13.92557 l -1.05523,-6.38006 -4.71301,4.93172 c -3.24364,3.39417 -6.84162,5.10891 -11.54079,5.5001 -6.20552,0.51684 -6.85539,1.04957 -7.13104,5.84819 -0.39045,6.80098 0.56939,8.42546 4.15287,7.02847 1.59601,-0.62194 7.05966,-1.97343 12.14151,-3.00285 z m 47.95813,-6.66549 c 0,-0.96796 -1.18793,-1.75998 -2.63987,-1.75998 -1.45193,0 -2.63993,0.79202 -2.63993,1.75998 0,0.96796 1.188,1.75991 2.63993,1.75991 1.45194,0 2.63987,-0.79195 2.63987,-1.75991 z m -2.44896,-16.24448 c -3.68545,-12.57081 -9.85299,-18.95613 -18.30146,-18.94761 l -6.52853,0.007 5.62416,3.42922 c 7.31329,4.45925 11.18127,10.54151 12.37804,19.46418 0.67309,5.01799 1.6751,6.92916 3.30504,6.3037 1.28651,-0.49355 2.90547,0.02 3.59771,1.13878 2.65351,4.29341 2.61054,-2.23471 -0.0752,-11.39486 z m -48.28766,4.53214 c 4.47554,-4.05029 4.28344,-11.16683 -0.30133,-11.16683 -1.95547,0 -3.51988,-1.1733 -3.51988,-2.63987 0,-1.45193 1.09567,-2.63993 2.43472,-2.63993 1.33913,0 2.81554,-1.99179 3.2809,-4.42625 0.67628,-3.53785 0.0133,-4.63591 -3.31469,-5.47057 -5.40731,-1.35715 -5.37305,-4.1826 0.0532,-4.1826 4.07364,0 6.34806,-2.88911 6.34806,-8.06367 0,-1.37279 -1.0366,-2.49593 -2.30355,-2.49593 -1.26696,0 -3.84084,-1.22405 -5.71975,-2.72008 -3.18903,-2.53916 -2.94059,-2.64965 3.73567,-1.6606 6.49015,0.96137 7.34722,0.63124 9.26205,-3.57158 2.67805,-5.87765 1.71302,-7.33059 -6.35798,-9.57208 -13.44411,-3.73387 -14.94992,-2.99866 -19.42713,9.48521 -4.04065,11.26668 -9.10819,18.4214 -9.10819,12.8597 0,-1.45759 -1.60985,-3.0711 -3.57736,-3.58561 -4.70729,-1.23097 -7.89359,3.74837 -11.04018,17.25302 -2.65949,11.41401 -2.33689,18.45372 0.93849,20.47797 3.52235,2.17697 4.87936,-0.13902 4.87936,-8.32755 0,-7.16689 3.84449,-20.0788 5.97843,-20.0788 0.48291,0 0.0266,2.44963 -1.01944,5.4437 -1.86321,5.34472 -0.98678,23.75414 1.23669,25.97761 0.6226,0.6226 2.21488,-0.34922 3.53851,-2.15942 2.34287,-3.20399 2.56078,-3.19615 8.2158,0.29667 7.21398,4.45605 11.63578,4.72691 15.79017,0.96723 z m 267.59469,-7.42391 c 41.963144,-4.93744 59.109071,-10.80824 74.42465,-25.48312 16.90081,-16.19387 7.1023,-28.31968 -26.885972,-33.27181 -43.761967,-6.37614 -121.918889,2.21954 -179.565428,19.74861 -12.2945,3.73853 -24.63576,7.30365 -27.42502,7.92252 -5.04573,1.11948 -5.06542,1.17589 -3.89564,11.1532 0.64654,5.51533 2.05185,12.95674 3.12271,16.53643 2.50756,8.38269 0.61395,8.18334 71.841763,7.56227 44.301089,-0.38647 64.2293619,-1.32616 88.382937,-4.1681 z m -255.52496,-2.52679 c 0.0878,-3.57563 10.40249,-13.68198 15.93053,-15.60905 l 5.25698,-1.83261 -5.66846,-2.88678 c -3.11765,-1.58776 -6.90647,-5.44276 -8.41967,-8.56661 -1.51313,-3.12391 -3.31448,-5.69786 -4.00294,-5.71981 -0.68845,-0.0199 -2.47038,4.0636 -3.95983,9.07913 -3.06138,10.30876 -3.72589,30.43618 -0.94813,28.71944 0.96795,-0.59799 1.78312,-2.0309 1.81152,-3.18371 z m 31.62718,-25.85515 c 0,-1.95547 -1.1733,-3.51989 -2.63987,-3.51989 -2.67937,0 -3.61008,3.72297 -1.46663,5.86642 2.23125,2.23125 4.1065,1.15966 4.1065,-2.34653 z m 85.91914,-17.17732 c 0.67415,-4.72545 -1.07205,-5.07779 -4.27226,-0.862 -3.22588,4.24958 -3.01143,6.08486 0.62992,5.39089 1.69399,-0.32261 3.33297,-2.3609 3.64228,-4.52889 z m 20.41099,-5.46578 c 0.518169,-0.83819 3.024868,-1.12574 5.570812,-0.63923 5.378111,1.02809 8.018177,-2.04574 6.821334,-7.94208 -0.44367,-2.18596 -1.217796,-5.95442 -1.7202,-8.37431 -1.294092,-6.23273 -9.063029,-6.16255 -11.445341,0.1031 -2.919038,7.67761 -4.112223,18.37603 -2.04946,18.37603 1.034542,0 2.30482,-0.6858 2.822855,-1.52391 z m -22.85755,-16.33908 1.16697,-8.18334 -8.44102,-0.98638 c -4.64264,-0.54278 -16.2427,-1.49371 -25.778,-2.11378 -14.07542,-0.91541 -18.00439,-1.79497 -20.88492,-4.67549 -4.53547,-4.53547 -15.21832,-3.61128 -27.25587,2.35797 -7.58748,3.76254 -8.49464,4.85129 -8.98573,10.78475 -0.30066,3.62991 -0.17295,6.59977 0.28336,6.59977 0.45631,0 8.62162,-2.10327 18.14555,-4.67403 12.88989,-3.47924 21.58994,-4.68766 34.03556,-4.72731 20.38451,-0.0665 29.09627,2.9964 31.96794,11.23429 2.3742,6.81055 4.23329,4.99344 5.74635,-5.61645 z m -15.76716,-19.53562 c 0.39444,-1.20995 1.90565,-6.15975 3.35791,-10.99961 l 2.64047,-8.79962 -0.23414,10.5596 -0.23481,10.5596 h 5.18096 c 4.67835,0 5.37013,-0.76834 7.13037,-7.91973 1.93485,-7.86087 2.58958,-8.2917 10.370224,-6.8238 2.963938,0.55941 3.431554,-0.15299 2.960612,-4.51152 -0.307309,-2.84661 -2.042808,-7.25909 -3.856066,-9.8055 -3.64308,-5.1163 -16.87074,-11.89193 -18.9218,-9.69241 -0.71612,0.76794 -0.25875,1.76756 1.01605,2.22134 1.27493,0.45365 4.44281,2.72727 7.03977,5.05218 l 4.72166,4.22709 -8.50562,-3.53319 c -4.67808,-1.94323 -9.53091,-3.53319 -10.78409,-3.53319 -1.25318,0 -3.2936,-1.22318 -4.53434,-2.71816 -1.58071,-1.90458 -3.81895,-2.37479 -7.47846,-1.571 -4.35375,0.95625 -5.88484,0.31662 -9.20258,-3.84429 -3.66549,-4.59687 -4.32781,-4.80513 -8.38203,-2.63541 -6.3621,3.40495 -8.60951,9.671 -9.63208,26.8557 -0.8608,14.46695 -0.71812,15.26609 2.93261,16.42475 5.84746,1.85596 8.93192,-1.94104 9.07207,-11.1679 0.0679,-4.47926 0.81364,-9.72813 1.65701,-11.66405 1.01752,-2.33575 1.41995,0.92067 1.19625,9.67965 -0.33392,13.06576 -0.29002,13.20498 4.32388,13.73911 4.34377,0.50287 4.74094,-0.0399 5.83601,-8.00387 0.64655,-4.69891 1.93326,-9.69355 2.86004,-11.09919 1.11277,-1.6878 1.28292,0.67429 0.50088,6.95537 -1.00275,8.05503 -0.68819,9.87374 2.05498,11.87956 4.03619,2.9513 5.991,2.999 6.91406,0.16829 z m 45.810292,-10.77611 c 0,-11.13903 -5.811537,-21.15844 -16.954291,-29.23023 -6.066561,-4.39459 -7.795881,-4.90537 -10.929571,-3.22828 -3.70972,1.98541 -3.70753,1.99904 0.62793,3.9142 9.242223,4.08243 18.996231,18.33612 19.380301,28.32081 0.17361,4.50661 0.414402,4.76436 1.644504,1.75998 0.792818,-1.93592 1.111967,-5.89581 0.709272,-8.79969 -0.722043,-5.20709 -0.705148,-5.2192 1.226843,-0.87995 1.097666,2.46546 1.525704,8.20934 0.973678,13.0647 -0.776788,6.83158 -0.529477,8.20935 1.167908,6.51176 1.184271,-1.1842 2.15316,-6.32917 2.15316,-11.4333 z m -16.943848,-23.54255 c -2.234311,-2.84893 -2.151497,-2.88631 1.104451,-0.49821 1.935915,1.42001 3.84988,2.80596 4.253173,3.07988 0.403094,0.27405 -0.09379,0.49821 -1.10445,0.49821 -1.010795,0 -2.924693,-1.38595 -4.253174,-3.07988 z m -89.508074,-58.07785 c 0.0133,-1.69393 0.50886,-4.89028 1.10179,-7.10304 1.00248,-3.74219 0.7704,-3.88314 -3.32247,-2.01833 -3.98604,1.81619 -4.21911,2.48482 -2.4759,7.1031 2.14166,5.67392 4.6596,6.75595 4.69658,2.01827 z m -4.35614,-13.55434 c 7.11015,-2.97079 9.61186,-8.20416 9.61186,-20.10707 0,-9.1642 -2.50504,-12.96705 -12.68715,-19.25991 -8.81798,-5.44981 -18.83606,-6.51555 -29.1246,-3.09823 -13.98091,4.64369 -16.67146,15.61124 -7.30052,29.75884 4.95433,7.47959 10.39377,10.86112 10.39377,6.46148 0,-0.96796 1.2738,-1.75991 2.8307,-1.75991 2.1189,0 2.56078,1.07545 1.75718,4.27705 -0.86918,3.46321 -0.31928,4.42226 2.88911,5.04014 8.31398,1.601 15.73457,1.15074 21.62965,-1.31239 z m -15.10518,-3.69895 c -1.5893,-1.91503 -1.6914,-3.24038 -0.35254,-4.57911 2.25559,-2.25559 5.71056,-0.49289 5.71056,2.91312 0,3.76102 -2.87673,4.65547 -5.35782,1.66599 z m 9.54647,-8.62142 c -0.53945,-1.40557 -0.46761,-3.38552 0.15898,-4.39984 2.04979,-3.31668 4.45193,-1.93772 4.45193,2.55565 0,4.77094 -3.02387,5.98036 -4.61104,1.84419 z m -14.73095,-1.82337 c -1.76497,-2.12668 -1.61783,-2.83237 0.78271,-3.75356 3.46753,-1.33061 7.16476,1.69206 5.45453,4.45931 -1.62408,2.62783 -3.66203,2.39721 -6.23724,-0.70575 z m -17.6019,-6.13428 c -1.8714,-1.18307 -2.08226,-2.20265 -0.73429,-3.55062 2.3887,-2.38869 7.7593,-0.44233 7.7593,2.81262 0,2.81693 -3.20427,3.15357 -7.02501,0.738 z m 10.98484,-2.24621 c 0.40309,-1.21002 1.78924,-2.19993 3.07988,-2.19993 1.29063,0 2.67658,0.98991 3.07987,2.19993 0.43635,1.30865 -0.81151,2.19985 -3.07987,2.19985 -2.26837,0 -3.5161,-0.8912 -3.07988,-2.19985 z m 18.33266,1.02662 c -2.14352,-2.14351 -1.21274,-5.86648 1.46657,-5.86648 1.46663,0 2.63993,1.56442 2.63993,3.51989 0,3.50618 -1.87532,4.57778 -4.1065,2.34659 z m -11.92773,-7.18645 c -0.52681,-3.56924 0.67642,-10.30543 2.10614,-11.79149 2.32963,-2.42149 5.90233,1.65102 4.03406,4.59846 -1.46477,2.31088 -1.76523,3.23081 -2.20551,6.75309 -0.25409,2.0335 -3.64354,2.41251 -3.93469,0.44034 z m 16.03423,-2.89156 c 0,-1.34837 1.18793,-2.90747 2.63987,-3.46461 1.79563,-0.68906 2.63993,0.0951 2.63993,2.45162 0,1.90638 -1.18733,3.46461 -2.63993,3.46461 -1.45194,0 -2.63987,-1.10325 -2.63987,-2.45162 z m -26.10133,-0.88428 c -1.77674,-1.09807 -1.75299,-1.76577 0.1184,-3.31854 1.28824,-1.06913 3.34309,-1.32529 4.5664,-0.56939 1.77674,1.09807 1.753,1.7657 -0.1184,3.31854 -1.28824,1.06913 -3.34315,1.32529 -4.5664,0.56939 z m 67.41254,27.83051 c 10.27577,-9.47184 18.52649,-24.19156 18.52649,-33.05211 0,-8.07385 -3.79427,-12.46564 -7.85674,-9.09409 -4.93245,4.09353 -23.82205,37.63401 -23.82205,42.29846 0,9.23936 3.00138,9.20457 13.1523,-0.15233 z m -83.5496,0.41507 c 0,-4.0664 -4.11382,-12.41457 -12.27481,-24.90948 -10.54669,-16.1475 -16.69521,-24.50199 -18.08409,-24.5723 -3.32758,-0.16829 -0.97534,15.61517 3.84596,25.80646 8.68681,18.36213 26.51294,34.28035 26.51294,23.67532 z m 76.66241,-22.70956 c 2.66182,-4.59786 7.18838,-11.36612 10.05906,-15.04059 7.24671,-9.27595 5.16526,-9.73565 -3.44965,-0.76195 -4.03034,4.19816 -8.3475,11.08721 -9.90307,15.80254 -1.51679,4.5978 -2.48515,8.35968 -2.1519,8.35968 0.33325,0 2.78375,-3.76188 5.44556,-8.35968 z m 2.49958,-18.61063 5.70784,-6.50079 -4.35381,-5.70817 -4.35375,-5.7081 -15.64204,0.39178 c -13.92756,0.34922 -15.57798,0.73542 -15.05835,3.52441 0.32061,1.72273 2.89529,4.97196 5.72081,7.22051 7.11926,5.66553 13.93148,17.92331 13.95203,25.1053 l 0.02,6.0051 4.15114,-8.91476 c 2.28313,-4.90311 6.71963,-11.84012 9.85897,-15.41555 z m -82.68188,18.35055 c 0,-3.3091 -19.0565,-29.22824 -20.45861,-27.82612 -0.63591,0.6359 18.86453,30.93234 20.0186,31.10156 0.24212,0.0333 0.44034,-1.43844 0.44034,-3.27544 z m 60.96264,-8.37604 c -3.56652,-6.72242 -11.17029,-14.57584 -15.81672,-16.33595 -4.91788,-1.86288 -19.43199,-0.37648 -26.93479,2.75834 -6.86477,2.86828 -8.04937,4.9077 -1.37717,2.37093 12.80834,-4.86978 31.15072,0.0978 40.39574,10.94054 6.13407,7.19397 7.45856,7.28842 3.73294,0.26607 z m -51.2987,-13.95457 c 3.26646,-2.14032 4.41555,-4.4347 4.41555,-8.81691 v -5.92369 l -8.35968,1.11816 c -4.59786,0.61528 -8.65668,1.88676 -9.01966,2.82624 -0.36318,0.93943 -2.17358,3.22163 -4.02349,5.0716 -3.31142,3.31143 -3.27424,3.4879 2.4008,11.39027 l 5.76438,8.02669 2.20325,-5.3996 c 1.21181,-2.96979 4.19031,-6.70153 6.61885,-8.29276 z m 98.62904,-9.63847 c 3.75104,-7.25376 3.83784,-20.55865 0.18027,-27.6086 -4.90944,-9.46254 -11.85602,-6.41432 -17.147,7.52428 -3.11938,8.21766 -3.12371,8.74614 -0.11108,13.50405 l 3.13515,4.95167 3.86299,-3.59891 c 2.12469,-1.97942 3.86298,-4.70928 3.86298,-6.06637 0,-3.65312 -3.31109,-5.0394 -6.23685,-2.61126 -2.06622,1.71481 -2.56277,1.56887 -2.56277,-0.75311 0,-3.36982 7.25496,-15.0966 9.3595,-15.12846 0.79188,-0.0133 -0.19823,2.27841 -2.19993,5.08969 -4.47966,6.29106 -4.48412,6.57669 -0.11973,7.71799 2.64233,0.69098 3.51311,2.3875 3.49289,6.80504 -0.0333,6.77124 -1.32323,9.18462 -5.80436,10.8403 -4.25557,1.57233 -2.08724,4.72385 3.2501,4.72385 2.9624,0 5.09561,-1.63373 7.03818,-5.39016 z m -70.89438,0.15233 c 3.62985,-0.0266 6.5997,-0.55475 6.5997,-1.18128 0,-2.56942 -7.42058,-21.09359 -9.65396,-24.09943 -3.207,-4.31603 -8.77861,-2.45395 -11.18446,3.73806 -2.56065,6.59026 -5.53889,18.26315 -5.55073,21.7553 -0.007,2.44458 1.01605,2.6563 6.58992,1.36194 3.62984,-0.84297 9.56963,-1.55151 13.19953,-1.57459 z m -19.9743,-16.79525 c 2.11292,-8.3914 7.19762,-14.92558 11.61463,-14.92558 1.45193,0 2.63986,-0.83872 2.63986,-1.86375 0,-1.02509 -0.67614,-1.44595 -1.50255,-0.93516 -0.82648,0.51085 -2.39342,-1.0265 -3.48217,-3.41599 -1.98062,-4.34696 -7.91215,-5.92196 -9.94079,-2.6396 -0.57937,0.93782 -4.56614,1.44216 -8.85896,1.12081 -6.60848,-0.49488 -8.22172,0.0532 -10.52281,3.56346 -1.62116,2.47424 -2.52679,7.09366 -2.24449,11.44907 0.29667,4.5789 -0.33724,7.58747 -1.69998,8.06873 -2.49319,0.88035 -2.33309,-18.06347 0.18625,-22.06441 1.89807,-3.01396 0.59533,-4.21147 -3.0564,-2.81008 -3.83764,1.47262 -5.29337,7.84363 -3.89098,17.02919 1.50209,9.83842 8.91456,15.3769 20.57987,15.3769 h 8.17556 z m -12.1445,-11.55237 c 0,-4.28902 4.11256,-3.68278 4.96883,0.73249 0.33658,1.73663 -0.56074,2.93407 -2.19985,2.93407 -1.6326,0 -2.76898,-1.50475 -2.76898,-3.66656 z m 57.34178,17.74598 c 7.44054,0 11.29561,-5.78473 11.29561,-16.94963 v -9.90986 l -6.59977,1.28185 c -7.59593,1.47542 -9.06303,1.50316 -19.73857,0.37383 -4.32248,-0.45698 -8.15034,-1.70517 -8.50634,-2.77324 -1.02975,-3.08932 -3.53679,-2.25659 -4.75418,1.57919 -0.70282,2.21429 0.25077,5.44223 2.56842,8.69758 2.02731,2.84707 4.83966,7.93749 6.24962,11.31211 2.4777,5.92994 7.26507,8.53847 12.88544,7.02095 1.2891,-0.34788 4.25903,-0.63258 6.59977,-0.63258 z m -13.34348,-17.59931 c 0,-1.93591 0.79202,-3.51988 1.75998,-3.51988 0.96796,0 1.75991,1.58397 1.75991,3.51988 0,1.93592 -0.79195,3.51989 -1.75991,3.51989 -0.96796,0 -1.75998,-1.58397 -1.75998,-3.51989 z m 30.01174,12.75952 c 1.16917,-3.62984 2.89124,-7.56526 3.8268,-8.7454 1.15999,-1.46318 0.52748,-3.63776 -1.98926,-6.83704 l -3.69031,-4.69152 -0.0133,8.59708 c -0.005,4.72837 -1.14695,10.77491 -2.53557,13.4368 -2.09941,4.02468 -2.12056,4.83985 -0.12571,4.83985 1.3195,0 3.35565,-2.96992 4.52483,-6.59977 z m -47.61105,-25.03386 c 0,-2.06775 -2.10247,-4.56188 -5.19239,-6.15975 -5.97251,-3.08853 -9.59537,-3.49501 -7.98938,-0.89646 0.60797,0.98373 1.7955,1.36214 2.63887,0.84091 1.59854,-0.98791 8.78299,5.77023 8.78299,8.2619 0,0.78544 0.39578,1.42806 0.87996,1.42806 0.48424,0 0.87995,-1.56355 0.87995,-3.47466 z m 59.8377,-0.86326 c 0,-1.41788 -1.5839,-3.42563 -3.51982,-4.4617 -6.79366,-3.6359 -3.44206,-5.31166 3.51982,-1.75998 l 7.03978,3.59139 v -3.63562 c 0,-3.85015 -7.28336,-12.27528 -10.61175,-12.27528 -1.40165,0 -1.6141,-4.57545 -0.73461,-15.81784 1.20003,-15.34026 1.095,-16.0045 -3.47732,-21.99916 -2.5931,-3.39975 -5.36048,-6.1813 -6.14978,-6.1813 -0.78929,0 -1.84372,7.72171 -2.34313,17.15929 -0.49954,9.43766 -1.47375,18.52377 -2.1652,20.19142 -1.88942,4.55716 -11.42984,5.55944 -36.87152,3.87343 -41.0784,-2.72222 -56.67301,-1.41602 -65.29623,5.46917 -3.34222,2.66867 -3.30903,2.71689 0.93436,1.35595 2.4199,-0.77605 12.31951,-1.34983 21.99916,-1.27507 16.84121,0.13038 18.47114,0.49622 37.83854,8.4995 16.34387,6.75375 21.67668,8.20901 27.70772,7.56114 8.35961,-0.89805 19.77961,-8.49045 19.86402,-13.20632 0.0466,-2.61552 0.296,-2.57248 1.9894,0.34323 1.48985,2.56557 1.26994,4.46111 -0.95433,8.22664 -2.70871,4.58543 -2.69547,4.94369 0.2102,5.70172 6.60136,1.72213 11.02043,1.17642 11.02043,-1.36074 z m -76.81986,-8.02543 c 3.53007,-3.22202 -6.02066,-3.26193 -13.11964,-0.0532 l -7.73674,3.49528 9.67964,-1.03701 c 5.32377,-0.57005 10.35333,-1.65188 11.17674,-2.40346 z m 55.11352,-17.99548 c 0.75929,-1.20995 1.68169,-10.15125 2.04973,-19.86947 0.5328,-14.06146 0.13702,-18.11142 -1.93838,-19.83362 -5.18468,-4.30293 -29.77022,-6.45096 -50.44967,-4.40789 -30.56277,3.01961 -35.18518,7.77432 -31.25894,32.15392 l 1.71302,10.63709 15.15667,0.15432 c 8.33619,0.0851 19.11649,0.77094 23.95635,1.52478 14.94288,2.32743 39.21958,2.11365 40.77122,-0.3592 z"
       id="path1448"
       sodipodi:nodetypes="ccccsssssscssssssssscsscssssssssssssccssssscsssssssscssssssssssssscsssssscssssssssssssscscssscsscssscsssssssssscssssscsssssscsscssscsssssssssscssscsssssssssscsssssssssscssssssscssssssssssssscsssssssssssccsssssscsssssssscscsssssssssssssssssssscssssssssssssscssssscssscccccssccscsssssssssccsscssssssssssssssssssscscccsccccscsccssssssssscccccsscccscsssssssscscssssscsscsssssssssscsssssscssssssssscssssssscsssssssssssscssscsscssssssscsssssssssssscssccssssssssssssssscsssscscscsscscccsssssssscscscsscssssssssssssssssssssssssssscssssscscscsssscsssssscssssccsssssssssscsssccssssscsscsccssssssscscscsssssssscssscsscsssscsssssssssssssscsscccssssssssscscsscsscsssssssssccsssscccccssscsscscccscccssccsssscsssssssssscscssscccssccsssssccsscssscssssssssssssssssssscssssssssssscssscsssssssssssssssssssssssssssssssssssssccccccsccscccscccssssssssscccsscsscssscssssccscsscccssscsccsssscccsscsssccscsscscscsscssccssssscscccssccssssssscsscsssssssssscsscsssccccccccsccssccsss" />
  </g>
</svg>
