<?xml version="1.0" encoding="UTF-8" standalone="no"?>
<svg
   xmlns:dc="http://purl.org/dc/elements/1.1/"
   xmlns:cc="http://creativecommons.org/ns#"
   xmlns:rdf="http://www.w3.org/1999/02/22-rdf-syntax-ns#"
   xmlns:svg="http://www.w3.org/2000/svg"
   xmlns="http://www.w3.org/2000/svg"
   xmlns:sodipodi="http://sodipodi.sourceforge.net/DTD/sodipodi-0.dtd"
   xmlns:inkscape="http://www.inkscape.org/namespaces/inkscape"
   inkscape:version="1.0 (4035a4fb49, 2020-05-01)"
   sodipodi:docname="heathcliffacab.svg"
   viewBox="0 0 229.33333 229.33333"
   height="229.33333"
   width="229.33333"
   id="svg16770"
   version="1.1">
  <metadata
     id="metadata16776">
    <rdf:RDF>
      <cc:Work
         rdf:about="">
        <dc:format>image/svg+xml</dc:format>
        <dc:type
           rdf:resource="http://purl.org/dc/dcmitype/StillImage" />
        <dc:title></dc:title>
      </cc:Work>
    </rdf:RDF>
  </metadata>
  <defs
     id="defs16774" />
  <sodipodi:namedview
     inkscape:current-layer="g16778"
     inkscape:window-maximized="0"
     inkscape:window-y="10"
     inkscape:window-x="10"
     inkscape:cy="132.41881"
     inkscape:cx="119.17474"
     inkscape:zoom="1.6914029"
     showgrid="false"
     id="namedview16772"
     inkscape:window-height="1036"
     inkscape:window-width="1898"
     inkscape:pageshadow="2"
     inkscape:pageopacity="0"
     guidetolerance="10"
     gridtolerance="10"
     objecttolerance="10"
     borderopacity="1"
     bordercolor="#666666"
     pagecolor="#ffffff" />
  <g
     id="g16778"
     inkscape:label="Image"
     inkscape:groupmode="layer">
    <g
       id="g16836">
      <path
         id="path16842"
         d="M 0,114.66667 C 0,0 0,0 114.66667,0 c 114.66666,0 114.66666,0 114.66666,114.66667 0,114.66666 0,114.66666 -114.66666,114.66666 C 0,229.33333 0,229.33333 0,114.66667 Z m 71.973422,93.66459 c 2.552048,-1.2822 5.891501,-4.20596 7.421005,-6.49724 2.693282,-4.03469 2.900416,-4.10336 6.573012,-2.17909 2.08565,1.09277 6.246198,1.95083 9.24566,1.90677 2.999461,-0.044 8.099521,0.51059 11.333471,1.23254 3.99328,0.89145 6.32485,0.86766 7.26666,-0.0741 0.96013,-0.96014 0.38179,-1.39305 -1.8799,-1.40718 -1.79666,-0.0107 -4.03084,-0.50542 -4.96484,-1.09818 -1.29718,-0.82324 -1.06104,-1.65434 1,-3.51956 2.57995,-2.33482 3.47464,-1.61282 2.85607,2.30482 -0.29407,1.86248 9.35214,1.01377 11.36591,-1 1.1,-1.1 4.29295,-2 7.09545,-2 3.06339,0 5.37264,-0.72235 5.7905,-1.81132 0.3823,-0.99623 3.29648,-2.27258 6.47599,-2.83634 5.07403,-0.89966 5.37496,-1.13349 2.46103,-1.91228 -1.88672,-0.50425 -2.6961,-1.27281 -1.87487,-1.78034 0.79476,-0.4912 3.48871,-0.35439 5.98656,0.30401 5.09195,1.34216 12.51439,1.17453 14.00521,-0.31631 0.53943,-0.53941 0.24675,-0.98076 -0.6504,-0.98076 -1.15266,0 -1.02229,-0.86926 0.44446,-2.96334 3.0735,-4.38804 2.53862,-7.46094 -1.75296,-10.0708 -3.82858,-2.3283 -3.82858,-2.3283 -0.66667,-6.94279 2.21048,-3.22599 3.16189,-6.47739 3.16189,-10.80563 0,-8.22478 -3.60705,-12.91166 -10.36844,-13.47237 C 147.33333,142 147.33333,142 146.19842,133.52745 c -1.13489,-8.47254 -1.13489,-8.47254 3.66799,-12.43149 2.6416,-2.17742 6.35939,-6.61491 8.26177,-9.86107 3.62442,-6.1846 5.23024,-6.42929 7.25439,-1.10537 0.66995,1.7621 1.76875,3.20381 2.44177,3.20381 2.54883,0 2.59182,-3.95885 0.0777,-7.15504 -1.62139,-2.06126 -2.09631,-3.6462 -1.24942,-4.16961 0.75143,-0.4644 1.72618,0.0937 2.16612,1.24014 1.2939,3.37182 3.5496,2.38511 2.85494,-1.24882 -0.4273,-2.235216 -0.0392,-3.333335 1.17789,-3.333335 0.99825,0 1.81505,-0.9 1.81505,-2 0,-1.371709 -1.36129,-1.993586 -4.33333,-1.979582 -5.05925,0.02384 -8.37364,1.75699 -7.14907,3.73838 0.47258,0.76465 0.24944,1.767147 -0.49585,2.227757 -0.77348,0.47804 -1.35508,-0.52996 -1.35508,-2.348561 0,-1.752328 -1.47943,-6.108306 -3.28763,-9.67995 -1.8082,-3.571644 -3.1582,-6.554926 -3,-6.629517 7.73826,-3.648664 10.26782,-9.257946 10.28019,-22.796229 0.0133,-14.18516 -4.11759,-22.086634 -15.27811,-29.225926 -3.7998,-2.430707 -11.28372,-5.748325 -16.63092,-7.372488 -7.96547,-2.41944 -11.80265,-2.829495 -21.23619,-2.269381 -14.343226,0.851626 -24.878257,4.495037 -34.560964,11.952488 -16.073663,12.379649 -25.318997,29.746223 -23.938821,44.96704 0.698892,7.707505 5.702359,21.415969 7.816639,21.415969 1.794214,0 1.415424,-2.8667 -1.497525,-11.333333 -3.717142,-10.804062 -3.498712,-21.14005 0.621483,-29.408205 3.896485,-7.819225 16.363606,-20.689554 24.510609,-25.303321 7.875832,-4.460198 19.486179,-7.288473 29.919919,-7.288473 20.04275,0 43.41595,12.920238 40.99219,22.659665 -1.2266,4.928884 -4.51382,4.782532 -6.94183,-0.309063 -1.51479,-3.176553 -3.09277,-4.490028 -5.64832,-4.701532 -3.78772,-0.313481 -4.07307,0.118854 -5.51163,8.35093 -0.932,5.333333 -0.932,5.333333 -3.31777,-0.180823 -2.57196,-5.944504 -4.8731,-8.134603 -6.62258,-6.303001 -1.30495,1.366218 6.68198,18.045177 9.0133,18.822283 1.87701,0.625668 3.61863,-3.22979 5.27247,-11.671793 1.17545,-6 1.17545,-6 4.3445,0 1.74298,3.3 3.52392,8.1 3.95764,10.666667 0.48684,2.881045 1.5452,4.666666 2.76596,4.666666 1.50159,0 1.87206,-1.338402 1.53962,-5.562232 -0.33404,-4.244393 0.21878,-6.218779 2.33333,-8.333333 C 160,50.666666 160,50.666666 160.18637,54.999999 c 0.27811,6.466439 -0.29305,13.869871 -1.38503,17.952919 -0.9701,3.627365 -0.9701,3.627365 -17.55238,3.256189 -27.33999,-0.611976 -50.085831,3.200741 -47.176663,7.907874 0.453168,0.73324 0.15939,2.133899 -0.652838,3.112575 -1.037082,1.249607 -1.071259,2.846016 -0.114787,5.361727 1.510709,3.973468 1.819159,13.999257 0.533752,17.348977 -1.331501,3.46984 -8.300876,6.40067 -13.000401,5.46706 -5.182747,-1.02961 -9.180521,-4.29035 -12.04028,-9.82051 -4.186892,-8.096558 -7.423205,-3.54131 -3.343031,4.70546 2.750307,5.55886 10.636594,11.04106 15.882853,11.04106 1.705192,0 5.124526,2.21547 8.012915,5.19175 5.038425,5.19176 5.038425,5.19176 -2.051409,14.49745 -7.829779,10.27689 -15.299072,24.08019 -15.299072,28.27277 0,2.16899 -0.868345,2.7047 -4.384147,2.7047 -5.755013,0 -15.933969,5.20553 -17.59869,9 -0.792103,1.80546 -2.486205,3 -4.254644,3 -1.61616,0 -3.265116,0.52852 -3.664347,1.17449 -0.39923,0.64596 2.715359,1.46099 6.921311,1.81116 4.205951,0.35017 9.447184,1.44389 11.647184,2.43049 4,1.79382 4,1.79382 -0.502878,2.28596 -2.476581,0.27068 -5.146581,-0.15156 -5.933333,-0.93832 -1.805878,-1.80588 -10.230456,-1.88585 -10.230456,-0.0971 0,0.73334 1.35,1.34218 3,1.35299 2.944319,0.0193 2.938351,0.0508 -0.321522,1.70016 -3.952215,1.99959 -4.890483,5.48035 -2.620574,9.72172 3.534294,6.60388 19.082877,9.3274 27.915519,4.88973 z M 133.66666,100.45029 c -3.35622,-1.354265 -1.73294,-4.450291 2.33334,-4.450291 3.1111,0 4,0.592592 4,2.666666 0,2.607105 -2.52808,3.319075 -6.33334,1.783625 z m -50.361968,4.05454 c 2.832067,-2.83207 2.066751,-6.399881 -1.481944,-6.908661 -3.172854,-0.454894 -4.989602,2.727401 -3.763132,6.591661 0.967494,3.04831 2.425641,3.13643 5.245076,0.317 z m 5.905519,-30.373774 c 1.65661,-1.763381 3.337712,-5.657618 3.74131,-8.666666 0.633315,-4.721714 0.391939,-5.463714 -1.775964,-5.459407 -1.37989,0.0028 -4.48859,1.211983 -6.908222,2.687204 -5.035613,3.070155 -4.672741,6.042864 0.45258,3.707612 1.810244,-0.824803 3.670093,-1.120903 4.132996,-0.657999 1.2054,1.205399 -3.249251,7.591532 -5.295476,7.591532 -2.577286,0 -5.848743,-2.974869 -6.797801,-6.181516 -0.961183,-3.24761 4.300005,-10.462066 8.632258,-11.83707 3.560009,-1.129903 3.297188,-3.324487 -0.391893,-3.272343 -3.473086,0.04909 -5.885196,1.765339 -10.031317,7.137408 -3.712936,4.810795 -3.786903,10.087033 -0.205243,14.640376 3.656471,4.648449 10.238762,4.790089 14.446772,0.310869 z m 11.766909,-6.954013 c -0.7023,-3.673863 0.15584,-3.951581 3.76804,-1.219448 3.19661,2.417793 7.25484,2.620924 7.25484,0.363133 0,-0.923598 -1.24561,-2.457166 -2.76802,-3.407928 -2.16407,-1.351486 -2.43397,-2.131161 -1.23699,-3.573433 2.44421,-2.945092 1.05911,-9.085477 -2.44089,-10.820877 -3.99649,-1.981575 -7.591275,-1.011145 -10.027471,2.706959 -1.671517,2.551058 -1.680041,3.920394 -0.06345,10.194062 1.027091,3.985935 2.163811,8.035184 2.526044,8.998331 1.098048,2.919608 3.638737,0.163866 2.987897,-3.240799 z m -1.468477,-8.112844 c -0.463088,-0.463088 -0.841978,-2.283708 -0.841978,-4.045824 0,-2.556105 0.603774,-3.117704 2.986375,-2.777777 3.82204,0.545291 4.61948,4.496273 1.26938,6.289194 -1.41449,0.757011 -2.950689,0.997494 -3.413777,0.534407 z m 17.824687,5.747011 c 0,-2.359594 6.59014,-4.087735 8.45953,-2.218351 1.87918,1.879183 4.8738,1.792099 4.8738,-0.141733 0,-2.1233 -9.64282,-18.451127 -10.89679,-18.451127 -1.988,0 -3.67073,5.090571 -4.56363,13.805781 -0.64207,6.266927 -0.4636,8.860886 0.60963,8.860886 0.8346,0 1.51746,-0.834955 1.51746,-1.855456 z m 1.33333,-8.107701 c 0,-2.660894 2.24541,-3.724487 3.10944,-1.472863 0.3972,1.035097 -0.13993,2.212821 -1.19362,2.617161 -1.10715,0.424851 -1.91582,-0.05816 -1.91582,-1.144298 z"
         style="fill:#fdfdfd;stroke-width:1.33333" />
      <path
         id="path16840"
         d="m 51.666666,203.23737 c -5.866829,-3.18281 -4.638952,-5.58056 3.128233,-6.10869 3.737195,-0.25411 7.289625,-0.156 7.894288,0.21801 0.604664,0.37401 1.512003,2.32401 2.016311,4.33333 0.882229,3.51508 0.722273,3.6513 -4.227622,3.59992 -2.829498,-0.0293 -6.794543,-0.94852 -8.81121,-2.04257 z m 15.4248,-2.89148 c -0.858574,-2.74308 -1.376816,-5.17165 -1.151652,-5.39681 1.124508,-1.12451 4.726852,4.3216 4.726852,7.14616 0,4.80484 -1.799342,3.92442 -3.5752,-1.74935 z m 6.286225,-0.0256 c -0.0244,-1.65719 -1.244359,-4.04053 -2.711025,-5.29633 -3.015839,-2.58224 -3.430426,-5.72687 -1.066667,-8.09063 2.354156,-2.35416 5.667939,-1.95223 8.351379,1.01295 2.762265,3.05226 2.082032,7.44957 -1.890107,12.21845 -2.63922,3.1686 -2.63922,3.1686 -2.68358,0.15555 z m 27.955639,0.32236 c 0,-1.07924 3.82114,-1.57724 5.26326,-0.68596 1.07938,0.66709 0.43478,1.04331 -1.78757,1.04331 -1.91163,0 -3.47569,-0.16082 -3.47569,-0.35735 z m -12.333331,-5.52063 c -3.670624,-1.5225 -5,-2.86729 -5,-5.05798 0,-1.64124 -1.2,-4.07006 -2.666667,-5.39738 -3.545997,-3.20908 -3.36737,-4.17778 1,-5.42306 3.666667,-1.0455 3.666667,-1.0455 -0.719136,-1.81122 -5.039036,-0.87977 -5.843529,-3.21941 -1.333679,-3.87862 5.425082,-0.79299 5.89859,-2.8871 0.652815,-2.8871 -2.713333,0 -4.933333,-0.6 -4.933333,-1.33333 0,-0.73333 2.135411,-1.33333 4.745356,-1.33333 2.824045,0 4.411714,-0.53984 3.92131,-1.33334 -0.453225,-0.73333 -2.288634,-1.33333 -4.078689,-1.33333 -4.179938,0 -4.100184,-1.71492 0.412023,-8.85937 2.73899,-4.33682 4.76301,-6.01208 8,-6.62154 5.005333,-0.94238 5.69753,-2.76668 1.333333,-3.51401 -2.342516,-0.40113 -1.904192,-0.7462 2,-1.57445 2.75,-0.5834 5,-1.66395 5,-2.40119 0,-0.73725 -1.286431,-1.00405 -2.858733,-0.59288 -1.611086,0.42131 -2.338476,0.24749 -1.666667,-0.39825 0.655636,-0.63022 2.692067,-1.42047 4.5254,-1.75614 3.262748,-0.59738 3.271608,-0.63082 0.418448,-1.57949 -2.844699,-0.94584 -2.861457,-1.08123 -0.696024,-5.62218 2.218863,-4.65301 2.218863,-4.65301 -2.097133,-8.20009 -6.197524,-5.0934 -5.298396,-6.102 2.098324,-2.3538 10.856633,5.50148 20.741263,7.73718 32.275683,7.30012 5.79655,-0.21964 10.96803,0.0295 11.49217,0.55363 0.52413,0.52413 -0.29795,0.95297 -1.82687,0.95297 -4.53752,0 -6.99793,1.45652 -6.99793,4.14266 0,1.65924 0.94061,2.52401 2.74536,2.52401 1.50994,0 2.37453,0.6 1.9213,1.33333 -0.46736,0.75622 0.65283,1.33334 2.58798,1.33334 3.24424,0 3.41202,0.35832 3.41202,7.28642 0,6.00944 0.48484,7.5459 2.76648,8.767 1.6151,0.86436 4.94464,1.11258 8,0.59638 3.10382,-0.52439 5.23352,-0.3572 5.23352,0.41082 0,1.53002 -4.51901,2.89562 -9.66666,2.92118 -2.01667,0.0107 -3.66667,0.65496 -3.66667,1.43322 0,0.92792 2.13084,1.0955 6.18985,0.48682 4.4724,-0.67068 5.93036,-0.50838 5.25464,0.58496 C 156.26346,163.31906 154.11344,164 152,164 c -2.11344,0 -4.16172,0.5163 -4.55174,1.14736 -1.27402,2.06142 0.67314,2.63168 4.87311,1.42713 4.12065,-1.18179 4.12065,-1.18179 0.56631,2.52816 -4.50306,4.70016 -4.47971,6.37601 0.1048,7.52667 5.42408,1.36136 7.37582,3.32025 5.5273,5.54758 -1.97561,2.38047 -4.45321,2.31324 -6.51985,-0.1769 -0.91292,-1.1 -2.25057,-2 -2.97257,-2 -0.722,0 -0.96738,0.9 -0.54526,2 0.44898,1.17001 0.0193,2 -1.03517,2 -0.99145,0 -2.11604,-1.1984 -2.49907,-2.66311 -0.38302,-1.46472 -2.05222,-3.16467 -3.7093,-3.77765 -2.78262,-1.02936 -2.98954,-1.83479 -2.70724,-10.53824 0.36549,-11.26924 -0.94131,-19.32564 -3.02399,-18.64287 -0.82907,0.2718 -1.69368,2.06093 -1.92137,3.97585 -0.27962,2.35179 -1.32748,3.61652 -3.22889,3.89718 -1.54821,0.22853 -3.06014,1.16014 -3.35984,2.07026 -0.38652,1.17376 0.74582,1.47023 3.89556,1.01991 4.44054,-0.63485 4.44054,-0.63485 0.10721,0.87145 -5.45345,1.89567 -5.71044,4.30156 -0.33334,3.12055 2.39645,-0.52635 4,-0.33543 4,0.47625 0,0.74514 -1.95,1.5428 -4.33333,1.7726 -2.38333,0.2298 -4.03333,0.99567 -3.66667,1.70194 0.36667,0.70626 2.31131,1.11161 4.32143,0.90076 3.6004,-0.37766 3.6426,-0.2946 2.83679,5.58445 -0.56467,4.11968 -0.17972,7.24725 1.24304,10.09924 2.02046,4.05011 1.99742,4.13143 -1.17011,4.13143 -2.02643,0 -3.23115,-0.76882 -3.23115,-2.06202 0,-1.1341 -1.74917,-3.0659 -3.88705,-4.29288 -3.83949,-2.20356 -3.89251,-2.39725 -4.33333,-15.83005 -0.24546,-7.47955 -0.92891,-14.08039 -1.51878,-14.66851 -1.53661,-1.53205 -3.38855,2.01842 -2.60857,5.00106 0.54182,2.07193 -0.0788,2.51906 -3.49676,2.51906 -5.53978,0 -5.36969,2.64042 0.17783,2.76039 3.63137,0.0785 3.90135,0.27933 1.66666,1.23961 -4.54202,1.95178 -6.84933,1.45616 -8.32786,-1.78886 -0.78241,-1.7172 -3.66504,-4.18632 -6.40583,-5.48691 -4.199162,-1.99264 -5.792286,-2.12233 -10.12479,-0.82428 -6.974264,2.08953 -6.974553,5.42549 -3.89e-4,4.49007 5.143253,-0.68986 10.858879,1.23497 10.858879,3.65689 0,0.70753 -3.300005,1.28643 -7.333338,1.28643 -4.033333,0 -7.333333,0.57742 -7.333333,1.28316 0,0.76692 3.620941,0.99132 9,0.55774 6.573171,-0.52981 8.460701,-0.34202 7.000001,0.69642 -1.1,0.78201 -4.214591,1.43104 -6.921312,1.44226 -2.706721,0.0107 -5.334091,0.68831 -5.838599,1.50462 -0.658868,1.06608 1.384927,1.21701 7.254644,0.53576 5.100877,-0.59203 8.171937,-0.45663 8.171937,0.36028 0,1.46209 -4.43141,2.90716 -9.000005,2.93489 -1.65,0.0107 -3,0.68632 -3,1.50292 0,1.00409 1.942351,1.19345 6.000005,0.58497 5.02255,-0.75317 6,-0.54613 6,1.27091 0,1.19387 -1.5,4.13725 -3.33334,6.54088 -3.953399,5.18317 -4.186229,6.56892 -0.93006,5.53545 1.32181,-0.41952 3.47599,0.0216 4.78707,0.9803 2.15914,1.57881 2.18538,1.90773 0.27842,3.49037 -1.74699,1.44988 -3.01578,1.38303 -7.45373,-0.39268 -3.421118,-1.36887 -5.348365,-1.61845 -5.348365,-0.69263 0,0.79604 1.2,1.76116 2.666667,2.14471 1.466667,0.38355 2.666667,1.22737 2.666667,1.87517 0,1.7927 -5.412295,1.28419 -11,-1.03348 z m -39.666666,-2.2921 c 0,-0.27687 0.8,-1.16735 1.777777,-1.97883 1.345665,-1.1168 1.777779,-0.99444 1.777779,0.50341 0,1.08835 -0.8,1.97883 -1.777779,1.97883 -0.977777,0 -1.777777,-0.22653 -1.777777,-0.50341 z m 64.162517,-0.70127 c -1.01062,-0.64012 -1.44828,-1.7936 -0.97257,-2.56331 0.4757,-0.7697 -0.5258,-2.44849 -2.22557,-3.73062 -3.04982,-2.30048 -3.05961,-2.39172 -0.7436,-6.93443 1.29079,-2.53181 2.51916,-5.0408 2.72972,-5.57555 0.21056,-0.53473 1.81913,-1.41938 3.5746,-1.96588 3.14749,-0.97984 3.17943,-0.90062 2.30248,5.71016 -0.88929,6.7038 -0.88929,6.7038 3.80823,8.25412 4.33343,1.43016 5.88237,3.71424 3.87803,5.71858 -0.45072,0.45072 -2.26944,-0.13054 -4.04161,-1.29174 -3.69836,-2.42325 -5.66453,-1.45985 -3.16564,1.55112 1.40929,1.6981 1.27611,2.02887 -0.81,2.01182 -1.37312,-0.0107 -3.32346,-0.54415 -4.33407,-1.18427 z m 28.83748,-2.34503 c 0.91667,-0.36988 2.41667,-0.36988 3.33333,0 0.91667,0.36988 0.16667,0.67252 -1.66666,0.67252 -1.83334,0 -2.58334,-0.30264 -1.66667,-0.67252 z m 9.33333,-1.33333 c 0.91667,-0.36988 2.41667,-0.36988 3.33334,0 0.91666,0.36988 0.16666,0.67252 -1.66667,0.67252 -1.83333,0 -2.58333,-0.30264 -1.66667,-0.67252 z m -84.999994,-2.87501 c 0,-1.6114 2.5296,-3.49012 3.454262,-2.56547 0.335599,0.3356 -0.30432,1.36915 -1.422041,2.29677 -1.267179,1.05167 -2.032221,1.15283 -2.032221,0.2687 z m -20.333333,-1.12499 c 0.916666,-0.36988 2.416666,-0.36988 3.333333,0 0.916667,0.36988 0.166667,0.67252 -1.666667,0.67252 -1.833333,0 -2.583333,-0.30264 -1.666666,-0.67252 z m 91.611837,-0.539 c -1.43503,-2.32192 0.19936,-2.81365 2.02808,-0.61019 1.05167,1.26719 1.15283,2.03223 0.26869,2.03223 -0.77984,0 -1.81338,-0.63992 -2.29677,-1.42204 z m -81.281771,-1.7488 c -2.373625,-1.73564 -2.285621,-1.94463 1.683131,-3.99695 2.30324,-1.19105 6.467505,-2.11397 9.253922,-2.05094 4.965611,0.11226 4.989943,0.13744 1.225283,1.26462 -2.112513,0.63252 -5.149717,2.37958 -6.749345,3.88235 -2.5366,2.383 -3.228602,2.49819 -5.412991,0.90092 z m 54.003271,-13.53617 c 0,-1.66575 6.40351,-4.00059 7.62417,-2.77992 1.23289,1.23288 -0.94256,3.1732 -4.27114,3.8095 -2.13876,0.40884 -3.35303,0.036 -3.35303,-1.02958 z m 36.52401,-16.06871 C 147.63581,151.39764 148,149.89764 148,149.22428 c 0,-2.06615 6.34368,-1.3568 8.66994,0.96948 1.77198,1.77196 1.85438,2.40893 0.42858,3.3129 -0.97086,0.61555 -3.77938,1.12836 -6.24118,1.13959 -3.53806,0.0161 -4.3064,-0.42152 -3.66666,-2.08864 z M 136.3587,133.74268 c 1.2973,-0.33806 3.0973,-0.31583 4,0.0493 0.90271,0.36524 -0.1587,0.64183 -2.3587,0.61465 -2.2,-0.0272 -2.93859,-0.326 -1.6413,-0.66405 z M 118,125.30398 c -7.4793,-1.50124 -20.147231,-6.40486 -21.851619,-8.45852 -1.042753,-1.25645 -0.692506,-3.13095 1.298523,-6.94965 3.259796,-6.25213 2.738496,-13.640581 -1.568696,-22.23341 -1.561065,-3.114321 -2.080363,-4.940484 -1.153995,-4.05814 1.029576,0.980645 2.51193,1.170411 3.81338,0.488172 3.223257,-1.689675 11.029677,-2.602743 30.230147,-3.535833 17.43442,-0.847264 17.43442,-0.847264 21.58136,5.631401 2.28083,3.563265 4.79272,8.187139 5.58199,10.275273 2.18491,5.780467 -0.52273,13.837627 -6.54913,19.488387 -7.70327,7.22311 -8.78798,7.8989 -14.96507,9.32358 -6.57855,1.51728 -8.97996,1.52148 -16.41689,0.0287 z m 2.59628,-12.08453 c -0.4293,-0.69462 -1.34887,-0.9117 -2.0435,-0.4824 -0.69462,0.4293 -0.9117,1.34887 -0.4824,2.04349 0.4293,0.69463 1.34888,0.91171 2.0435,0.48241 0.69462,-0.4293 0.9117,-1.34888 0.4824,-2.0435 z m 16.32217,-2.44361 c 0.36784,-1.40662 2.37272,-3.26329 4.45529,-4.12592 4.24363,-1.75776 6.79564,-7.294124 5.21966,-11.323497 -0.57218,-1.462867 -2.88976,-4.360618 -5.15019,-6.439446 -2.26044,-2.078828 -4.10988,-4.328828 -4.10988,-5 0,-0.671172 -0.6,-1.220312 -1.33333,-1.220312 -0.73334,0 -1.33334,0.942858 -1.33334,2.095239 0,2.252845 -1.90224,4.364039 -6.04626,6.710408 -1.43017,0.809772 -3.13621,3.340887 -3.7912,5.624699 -1.45374,5.068869 1.53095,10.485529 6.13795,11.139279 2.03275,0.28846 2.90366,1.1998 2.64106,2.76371 -0.53376,3.17893 2.47357,2.97528 3.31024,-0.22416 z m -1.89308,-15.699829 c 1.29729,-0.338058 3.09729,-0.315826 4,0.0494 0.90271,0.36523 -0.15871,0.641824 -2.35871,0.61465 -2.2,-0.02717 -2.93858,-0.325997 -1.64129,-0.664056 z M 116,109.33333 C 116,108.6 115.1,108 114,108 c -1.1,0 -2,0.6 -2,1.33333 0,0.73334 0.9,1.33334 2,1.33334 1.1,0 2,-0.6 2,-1.33334 z m 6.66666,0 C 122.66666,108.6 122.06666,108 121.33333,108 120.6,108 120,108.6 120,109.33333 c 0,0.73334 0.6,1.33334 1.33333,1.33334 0.73333,0 1.33333,-0.6 1.33333,-1.33334 z m -2.06175,-17.233417 c 0.92495,-1.496589 -1.91664,-8.099914 -3.4856,-8.099914 -0.61562,0 -1.11931,1.135806 -1.11931,2.524014 0,1.388208 -0.93803,2.883971 -2.08451,3.323916 -1.14648,0.439947 -1.71107,1.40414 -1.25464,2.142652 1.04102,1.68442 6.9206,1.765339 7.94406,0.109332 z M 94.976003,102.66667 c 0,-2.56667 0.274393,-3.616671 0.609764,-2.33334 0.335369,1.28334 0.335369,3.38334 0,4.66667 -0.335371,1.28333 -0.609764,0.23333 -0.609764,-2.33333 z m 72.706207,-7.609686 c 1.65855,-0.318924 4.05855,-0.306816 5.33333,0.02691 1.27479,0.333722 -0.0823,0.594661 -3.01554,0.579862 -2.93334,-0.0148 -3.97634,-0.287846 -2.31779,-0.606769 z M 56.259931,72.666666 c 0.02717,-2.2 0.325998,-2.938582 0.664056,-1.641291 0.338058,1.297289 0.315826,3.097289 -0.0494,4 -0.365236,0.902709 -0.641829,-0.158709 -0.614656,-2.358709 z M 160.21052,63.999999 c 0,-1.833333 0.30264,-2.583333 0.67252,-1.666667 0.36988,0.916667 0.36988,2.416667 0,3.333334 -0.36988,0.916666 -0.67252,0.166666 -0.67252,-1.666667 z M 65.333332,48.916121 c 0,-0.229467 1.95,-2.179467 4.333334,-4.333334 4.333333,-3.916121 4.333333,-3.916121 0.417212,0.417212 -3.650375,4.039274 -4.750546,4.946203 -4.750546,3.916122 z M 155.89908,34.999999 c -3.23242,-3.666666 -3.23242,-3.666666 0.43425,-0.434248 3.42705,3.021183 4.27812,4.100915 3.23241,4.100915 -0.23882,0 -1.88882,-1.65 -3.66666,-3.666667 z"
         style="fill:#d3a632;stroke-width:1.33333" />
      <path
         sodipodi:nodetypes="ssssssssssssscssssssssssssssssssssssssccsssssssssssssssssssssssscsssssssssscsssssscssssssssssscsssssssssssssssssssssssssscsssssssssssssssssssssssssssssssssssssssscscsssscsssssssssssssssssssssssssssssssssssssssssssssssssssssssscsssssssssssscsccsccsssssssssssssssssscssssssssssssssssssssssssssssssssss"
         id="path16838"
         d="m 51.171069,208.75077 c -4.219406,-1.83639 -8.504403,-6.68292 -8.504403,-9.61888 0,-2.70497 4.005199,-5.79856 7.507261,-5.79856 1.824231,0 2.993718,-0.52273 2.598858,-1.16163 -0.39486,-0.6389 -2.530271,-0.95061 -4.745356,-0.6927 -2.215087,0.2579 -4.02743,-0.11936 -4.02743,-0.83838 0,-1.96461 7.029519,-1.57145 10.077816,0.56367 2.608818,1.82728 9.922184,1.47201 9.922184,-0.48201 0,-1.543 -9.801957,-4.05562 -15.82136,-4.05562 -3.031585,0 -5.511973,-0.585 -5.511973,-1.3 0,-0.74757 1.787889,-0.94242 4.207321,-0.45853 3.088827,0.61776 3.944423,0.41608 3.218406,-0.75864 -2.850643,-4.61244 11.342877,-13.17865 18.753975,-11.31859 2.64807,0.66463 3.153799,0.28742 3.154683,-2.35302 0.0015,-4.29018 6.701701,-17.97492 11.984742,-24.47788 2.383059,-2.93334 5.766563,-7.58 7.518899,-10.32592 3.186067,-4.99259 3.186067,-4.99259 -2.356959,-10 -3.048664,-2.75408 -6.504085,-4.86054 -7.678713,-4.68103 -1.174628,0.17951 -4.535688,-1.03574 -7.469021,-2.70056 -6.134168,-3.48146 -10.972699,-11.19825 -9.451383,-15.07366 0.871588,-2.22028 1.342448,-1.8946 3.620872,2.50448 4.88789,9.4373 15.919708,13.07005 22.934453,7.55225 4.526103,-3.56023 5.752914,-10.29966 3.255704,-17.885052 -2.058356,-6.252355 -0.946308,-11.277271 1.635571,-7.390509 1.717656,2.585761 3.987811,10.565772 3.997347,14.051411 0.0041,1.49494 -1.180455,5.04806 -2.632322,7.89581 -1.925208,3.77618 -2.253242,5.64344 -1.21186,6.89824 1.91538,2.30789 14.838969,7.05693 23.625739,8.68178 7.6433,1.41339 18.57514,-0.14016 22.45613,-3.1913 7.71705,-6.06698 12.33545,-11.67603 13.65801,-16.58767 1.71496,-6.368875 0.77319,-9.698642 -5.5269,-19.54119 -4.13472,-6.459586 -4.13472,-6.459586 -22.91471,-5.552271 -16.50371,0.797344 -21.61087,1.393171 -30.113318,3.513175 -1.1,0.274275 -2,-0.387285 -2,-1.470133 0,-3.092381 12.324818,-5.248049 35.614188,-6.229089 15.6472,-0.65912 21.44428,-0.470112 22.9108,0.746985 1.6028,1.330203 2.3278,1.062156 3.94857,-1.459853 2.57683,-4.009664 4.06849,-14.448422 2.93105,-20.511541 -0.77437,-4.12778 -0.16301,-4.625257 -1.76708,-8.199301 -1.80202,-4.252923 -1.83449,-2.630258 -4.01356,-5.638711 C 151.66612,36.93623 139.68924,29.752454 131.42466,27.291378 118.68038,23.496305 98.394601,25.31324 86.666665,31.300213 77.816972,35.817878 66.007898,47.431454 61.319534,56.227727 c -3.69975,6.941439 -4.475673,9.821337 -4.426148,16.427957 0.03663,4.886387 1.173982,10.871267 2.915994,15.344315 3.612183,9.27517 3.703587,12.507111 0.226251,8 C 56.146983,90.959767 52.814025,77.144303 53.782359,70.07953 56.012394,53.809653 71.280064,34.053548 87.365617,26.623365 c 8.79792,-4.063904 20.411513,-6.632149 29.879263,-6.60754 13.7621,0.03577 31.36684,7.343441 39.84257,16.538533 5.95595,6.461429 8.23101,12.757584 8.23101,22.778974 0,9.611504 -2.16332,16.01859 -6.6965,19.833019 -3.96671,3.337753 -3.96671,3.337753 -0.62767,9.61762 1.83647,3.453926 3.33904,7.671672 3.33904,9.372768 0,2.362771 0.53491,2.887641 2.26592,2.223391 1.41729,-0.543871 1.66697,-1.069169 0.66667,-1.402603 -3.71983,-1.239942 -1.1517,-2.977528 4.40074,-2.977528 3.3,0 6,0.6 6,1.333333 0,0.733333 -0.96504,1.333333 -2.14454,1.333333 -1.66852,0 -1.9423,0.805843 -1.23336,3.630465 0.90461,3.60423 0.89114,3.61232 -1.86363,1.11928 -3.64969,-3.30293 -4.89065,-1.87512 -2.08795,2.40234 1.21931,1.86091 2.01726,4.41914 1.7732,5.68495 -0.33641,1.74491 -1.24984,1.11807 -3.77705,-2.59199 -1.83333,-2.69142 -3.63333,-4.873 -4,-4.84795 -0.36667,0.0251 -2.09084,3.07946 -3.83149,6.78758 -1.98266,4.22366 -5.0785,8.06309 -8.28799,10.27868 -2.81775,1.94515 -4.89849,4.19258 -4.62391,4.99428 0.2746,0.8017 0.92334,4.8517 1.44163,9 0.93939,7.51859 0.95677,7.54236 5.516,7.54236 10.62101,0 14.82036,12.84042 7.65332,23.40166 -3.28163,4.83573 -3.33893,5.19985 -1.07849,6.85272 1.313,0.96009 2.83217,1.74562 3.37592,1.74562 2.20217,0 2.62297,5.6163 0.64677,8.63235 -1.56293,2.38533 -1.67264,3.33183 -0.44391,3.82945 0.89768,0.36356 -2.41785,0.70838 -7.36785,0.76627 -5.82816,0.0681 -9,-0.42217 -9,-1.39132 0,-1.01443 -0.66391,-0.9456 -2.06068,0.21361 -1.13337,0.94062 -1.7522,2.51408 -1.37517,3.49659 0.4549,1.18547 -0.38504,1.78639 -2.49695,1.78639 -1.75033,0 -4.18181,0.38349 -5.40328,0.85221 -1.77158,0.67983 -1.86107,1.08028 -0.44239,1.97959 1.13491,0.71941 -0.23761,1.13476 -3.79296,1.14778 -3.14985,0.012 -6.44071,0.8897 -7.57143,2.02042 -1.1,1.1 -3.84285,2 -6.09523,2 -3.93076,0 -5.02882,-1.59014 -4.14329,-6 0.14726,-0.73334 -1.13169,-0.0583 -2.8421,1.50005 -6.80955,6.20417 -14.510619,7.5122 -23.099667,3.92347 -4.528154,-1.89199 -4.596466,-1.86835 -7.316111,2.53213 -4.730001,7.65331 -18.015012,10.93323 -27.523003,6.79512 z m 13.534429,-7.07075 c -0.504308,-2.00932 -1.411647,-3.95932 -2.016311,-4.33333 -0.604663,-0.37401 -4.157093,-0.47212 -7.894288,-0.21801 -4.64362,0.31574 -6.7949,1.041 -6.7949,2.29076 0,2.70134 6.596367,5.79948 12.477877,5.8605 4.949895,0.0513 5.109851,-0.0848 4.227622,-3.59992 z m 5.961168,0.41522 c 0,-2.82456 -3.602344,-8.27067 -4.726852,-7.14616 -0.752255,0.75225 2.69805,10.38425 3.719772,10.38425 0.553894,0 1.00708,-1.45715 1.00708,-3.23809 z m 8.841608,-8.31756 c 1.462482,-5.827 -5.864416,-10.8882 -9.908275,-6.84435 -2.363759,2.36376 -1.949172,5.50839 1.066667,8.09063 1.466666,1.2558 2.686628,3.63914 2.711025,5.29632 0.04436,3.01305 0.04436,3.01305 2.68358,-0.15555 1.451571,-1.74273 3.002723,-4.61691 3.447003,-6.38705 z m 20.491725,2.37782 c 0,-0.6478 -1.2,-1.49162 -2.666667,-1.87517 -1.466667,-0.38355 -2.666667,-1.34867 -2.666667,-2.14471 0,-0.92582 1.927247,-0.67624 5.348365,0.69263 4.43795,1.77571 5.70674,1.84256 7.45373,0.39268 1.90696,-1.58264 1.88072,-1.91156 -0.27842,-3.49037 -1.31108,-0.95868 -3.46526,-1.39982 -4.78707,-0.9803 -3.256169,1.03347 -3.023339,-0.35228 0.93006,-5.53545 1.83334,-2.40363 3.33334,-5.34701 3.33334,-6.54088 0,-1.81704 -0.97745,-2.02408 -6,-1.27091 -4.057654,0.60848 -6.000005,0.41912 -6.000005,-0.58497 0,-0.8166 1.35,-1.49291 3,-1.50292 4.568595,-0.0277 9.000005,-1.4728 9.000005,-2.93489 0,-0.81691 -3.07106,-0.95231 -8.171937,-0.36028 -5.869717,0.68125 -7.913512,0.53032 -7.254644,-0.53576 0.504508,-0.81631 3.131878,-1.49339 5.838599,-1.50462 2.706721,-0.0107 5.821312,-0.66025 6.921312,-1.44226 1.4607,-1.03844 -0.42683,-1.22623 -7.000001,-0.69642 -5.379059,0.43358 -9,0.20918 -9,-0.55774 0,-0.70574 3.3,-1.28316 7.333333,-1.28316 4.033333,0 7.333338,-0.5789 7.333338,-1.28643 0,-2.42192 -5.715626,-4.34675 -10.858879,-3.65689 -6.974164,0.93542 -6.973875,-2.40054 3.89e-4,-4.49007 4.332504,-1.29805 5.925628,-1.16836 10.12479,0.82428 2.74079,1.30059 5.62342,3.76971 6.40583,5.48691 1.47853,3.24502 3.78584,3.74064 8.32786,1.78886 2.23469,-0.96028 1.96471,-1.16109 -1.66666,-1.23961 -5.54752,-0.11997 -5.71761,-2.76039 -0.17783,-2.76039 3.41791,0 4.03858,-0.44713 3.49676,-2.51906 -0.77998,-2.98264 1.07196,-6.53311 2.60857,-5.00106 0.58987,0.58812 1.27332,7.18896 1.51878,14.66851 0.44082,13.4328 0.49384,13.62649 4.33333,15.83005 2.13788,1.22698 3.88705,3.15878 3.88705,4.29288 0,1.2932 1.20472,2.06202 3.23115,2.06202 3.16753,0 3.19057,-0.0813 1.17011,-4.13143 -1.42276,-2.85199 -1.80771,-5.97956 -1.24304,-10.09924 0.80581,-5.87905 0.76361,-5.96211 -2.83679,-5.58445 -2.01012,0.21085 -3.95476,-0.1945 -4.32143,-0.90076 -0.36666,-0.70627 1.28334,-1.47214 3.66667,-1.70194 2.38333,-0.2298 4.33333,-1.02746 4.33333,-1.7726 0,-0.81168 -1.60355,-1.0026 -4,-0.47625 -5.3771,1.18101 -5.12011,-1.22488 0.33334,-3.12055 4.33333,-1.5063 4.33333,-1.5063 -0.10715,-0.87145 -3.14974,0.45032 -4.28208,0.15385 -3.89556,-1.01991 0.2997,-0.91012 1.81163,-1.84173 3.35984,-2.07026 1.90142,-0.28066 2.94927,-1.54539 3.22889,-3.89718 0.22769,-1.91492 1.09231,-3.70405 1.92137,-3.97585 2.08268,-0.68277 3.38948,7.37363 3.02399,18.64287 -0.28229,8.70345 -0.0753,9.50888 2.70724,10.53824 1.65708,0.61298 3.32628,2.31293 3.70931,3.77765 0.38302,1.46471 1.50761,2.66311 2.49906,2.66311 1.05456,0 1.48415,-0.82999 1.03518,-2 -0.42212,-1.1 -0.17675,-2 0.54525,-2 0.722,0 2.05965,0.9 2.97257,2 2.06664,2.49014 4.54424,2.55737 6.51986,0.1769 1.84852,-2.22733 -0.1032,-4.18622 -5.52731,-5.54758 -4.58457,-1.15066 -4.60792,-2.82651 -0.1048,-7.52667 3.55435,-3.70995 3.55435,-3.70995 -0.56631,-2.52816 -4.19997,1.20455 -6.14713,0.63429 -4.8731,-1.42713 C 147.83828,164.5163 149.88656,164 152,164 c 2.11344,0 4.26346,-0.68094 4.77782,-1.5132 0.67572,-1.09334 -0.78224,-1.25564 -5.25464,-0.58496 -4.05901,0.60868 -6.18985,0.4411 -6.18985,-0.48682 0,-0.77826 1.65,-1.42321 3.66667,-1.43322 5.14765,-0.0256 9.66666,-1.39116 9.66666,-2.92118 0,-0.76802 -2.1297,-0.93521 -5.23352,-0.41082 -3.05536,0.5162 -6.3849,0.26798 -8,-0.59638 -2.28164,-1.2211 -2.76648,-2.75756 -2.76648,-8.767 0,-6.9281 -0.16778,-7.28642 -3.41202,-7.28642 -1.93515,0 -3.05534,-0.57712 -2.58798,-1.33334 0.45323,-0.73333 -0.41136,-1.33333 -1.9213,-1.33333 -1.80475,0 -2.74536,-0.86477 -2.74536,-2.52401 0,-2.68614 2.46041,-4.14266 6.99793,-4.14266 1.52892,0 2.351,-0.42884 1.82687,-0.95297 -0.52414,-0.52414 -5.69562,-0.77327 -11.49217,-0.55363 -11.53442,0.43706 -21.41905,-1.79864 -32.275683,-7.30012 -7.39672,-3.7482 -8.295848,-2.7396 -2.098324,2.3538 4.315996,3.54708 4.315996,3.54708 2.097133,8.20009 -2.165433,4.54095 -2.148675,4.67634 0.696024,5.62218 2.85316,0.94867 2.8443,0.98211 -0.418448,1.57949 -1.833333,0.33567 -3.869764,1.12592 -4.5254,1.75614 -0.671809,0.64574 0.05559,0.81956 1.666667,0.39825 1.572302,-0.41117 2.858733,-0.14437 2.858733,0.59288 0,0.73724 -2.25,1.81779 -5,2.40119 -3.904192,0.82825 -4.342516,1.17332 -2,1.57445 4.364197,0.74733 3.672,2.57163 -1.333333,3.51401 -3.23699,0.60946 -5.26101,2.28472 -8,6.62154 -4.512207,7.14445 -4.591961,8.85937 -0.412023,8.85937 1.790055,0 3.625464,0.6 4.078689,1.33333 C 85.157069,167.46016 83.5694,168 80.745355,168 c -2.609945,0 -4.745356,0.6 -4.745356,1.33333 0,0.73333 2.22,1.33333 4.933333,1.33333 5.245775,0 4.772267,2.09411 -0.652815,2.8871 -4.50985,0.65921 -3.705357,2.99885 1.333679,3.87862 4.385803,0.76572 4.385803,0.76572 0.719136,1.81122 -4.36737,1.24528 -4.545997,2.21398 -1,5.42306 1.466667,1.32732 2.666667,3.75614 2.666667,5.39738 0,2.19069 1.329376,3.53548 5,5.05798 5.587705,2.31767 11,2.82618 11,1.03348 z m 18.639921,-4.8544 c -2.49889,-3.01097 -0.53272,-3.97437 3.16564,-1.55112 1.77217,1.16118 3.59089,1.74246 4.04161,1.29174 2.00434,-2.00434 0.4554,-4.28842 -3.87803,-5.71858 -4.69752,-1.55032 -4.69752,-1.55032 -3.80823,-8.25412 0.87695,-6.61078 0.84501,-6.69 -2.30248,-5.71016 -1.75547,0.5465 -3.36404,1.43115 -3.5746,1.96588 -0.21056,0.53475 -1.43893,3.04374 -2.72972,5.57555 -2.31601,4.54271 -2.30622,4.63395 0.7436,6.93443 1.69977,1.28213 2.70127,2.96092 2.22557,3.73062 -1.03927,1.68158 1.84616,3.71927 5.30664,3.74758 2.08611,0.0171 2.21929,-0.31372 0.81,-2.01182 z m -48.518992,-8.29129 c -0.924662,-0.92465 -3.454262,0.95407 -3.454262,2.56547 0,0.88413 0.765042,0.78297 2.032221,-0.2687 1.117721,-0.92762 1.75764,-1.96117 1.422041,-2.29677 z m 69.852322,0.29129 c -0.92763,-1.11772 -1.96117,-1.75764 -2.29677,-1.42204 -0.92466,0.92467 0.95406,3.45427 2.56546,3.45427 0.88414,0 0.78298,-0.76504 -0.26869,-2.03223 z m -71.147515,-5.92188 c 3.76466,-1.12718 3.740328,-1.15229 -1.225283,-1.26462 -2.786417,-0.0631 -6.950682,0.85989 -9.253922,2.05094 -3.968752,2.05232 -4.056756,2.26131 -1.683131,3.99695 2.184389,1.59727 2.876391,1.48208 5.412991,-0.90092 1.599628,-1.50277 4.636832,-3.24983 6.749345,-3.88235 z m 49.327485,-9.62713 c 1.23996,-2.00631 -0.22415,-2.61909 -3.99589,-1.67244 -4.57184,1.14747 -4.69887,4.44819 -0.13763,3.57625 1.84417,-0.35254 3.70425,-1.20925 4.13352,-1.90381 z m 38.9453,-14.24543 c 1.4258,-0.90397 1.3434,-1.54094 -0.42858,-3.3129 C 154.34368,147.86748 148,147.15813 148,149.22428 c 0,0.67336 -0.36419,2.17336 -0.80932,3.33333 -0.63974,1.66712 0.12853,2.10477 3.66666,2.08864 2.4618,-0.0107 5.27032,-0.52404 6.24118,-1.13959 z M 140.3587,133.79208 c -0.9027,-0.36523 -2.7027,-0.38746 -4,-0.0493 -1.29729,0.33806 -0.5587,0.63688 1.6413,0.66406 2.2,0.0272 3.26141,-0.24942 2.3587,-0.61466 z m -33.38401,69.2415 c -2.39726,-0.29681 -4.08368,-0.98456 -3.74761,-1.52833 0.84191,-1.36224 10.10625,-0.16385 10.10625,1.30729 0,0.6531 -0.45,1.09143 -1,0.97407 -0.55,-0.11733 -2.96139,-0.45623 -5.35864,-0.75303 z m 11.09569,-88.25304 c -0.4293,-0.69462 -0.21222,-1.61419 0.4824,-2.04349 0.69463,-0.4293 1.6142,-0.21222 2.0435,0.4824 0.4293,0.69462 0.21222,1.6142 -0.4824,2.0435 -0.69462,0.4293 -1.6142,0.21222 -2.0435,-0.48241 z M 133.60821,111 c 0.2626,-1.56391 -0.60831,-2.47525 -2.64106,-2.76371 -4.607,-0.65375 -7.59169,-6.07041 -6.13795,-11.139279 0.65499,-2.283812 2.36103,-4.814927 3.7912,-5.624699 4.14402,-2.346369 6.04626,-4.457563 6.04626,-6.710408 0,-1.152381 0.6,-2.095239 1.33334,-2.095239 0.73333,0 1.33333,0.54914 1.33333,1.220312 0,0.671172 1.84944,2.921172 4.10988,5 2.26043,2.078828 4.57801,4.976579 5.15019,6.439446 1.57598,4.029373 -0.97603,9.565737 -5.21966,11.323497 -2.08257,0.86263 -4.08745,2.7193 -4.45529,4.12592 -0.83667,3.19944 -3.844,3.40309 -3.31024,0.22416 z M 140,97.911436 c 0,-2.946368 -0.50955,-3.363268 -3.66667,-3 -2.62535,0.302079 -3.78767,1.273889 -4.09273,3.421896 -0.36246,2.552088 0.18499,2.999998 3.66666,2.999998 3.50495,0 4.09274,-0.49145 4.09274,-3.421894 z M 112,109.33333 C 112,108.6 112.9,108 114,108 c 1.1,0 2,0.6 2,1.33333 0,0.73334 -0.9,1.33334 -2,1.33334 -1.1,0 -2,-0.6 -2,-1.33334 z m 8,0 C 120,108.6 120.6,108 121.33333,108 c 0.73333,0 1.33333,0.6 1.33333,1.33333 0,0.73334 -0.6,1.33334 -1.33333,1.33334 -0.73333,0 -1.33333,-0.6 -1.33333,-1.33334 z m -41.099144,-4.89574 c -1.115136,-2.08365 -1.019145,-3.33606 0.402648,-5.253405 1.703603,-2.29738 2.054259,-2.333069 4.010085,-0.408153 1.96776,1.936658 1.934794,2.366788 -0.402648,5.253398 -2.530244,3.12472 -2.554881,3.12723 -4.010085,0.40816 z m 3.765809,-3.10426 c 0,-0.73333 -0.6,-1.333331 -1.333333,-1.333331 -0.733333,0 -1.333333,0.600001 -1.333333,1.333331 0,0.73334 0.6,1.33334 1.333333,1.33334 0.733333,0 1.333333,-0.6 1.333333,-1.33334 z m 29.994185,-9.342749 c -0.45643,-0.738512 0.10816,-1.702705 1.25464,-2.142652 C 115.06197,89.407984 116,87.912221 116,86.524013 c 0,-1.388208 0.50369,-2.524014 1.11931,-2.524014 1.56896,0 4.41055,6.603325 3.4856,8.099914 -1.02346,1.656007 -6.90304,1.575088 -7.94406,-0.109332 z"
         style="fill:#18150d;stroke-width:1.33333" />
    </g>
    <path
       sodipodi:nodetypes="csscssssssccc"
       id="path16844"
       d="m 94.594033,68.845265 c 0,0 5.027477,-29.638856 6.178547,-30.45453 1.15107,-0.815674 15.05242,20.953652 15.50241,23.016943 0.44999,2.06329 -2.12196,0.835228 -2.12196,0.835228 0,0 -2.73764,-7.417976 -5.11358,-7.005307 -2.31339,0.401803 -1.00857,0.05612 -2.71562,0.628256 -0.9071,0.304026 -5.05595,1.727487 -6.22622,1.595016 -1.032026,-0.116822 0.53102,-2.596383 0.59785,-2.820872 0.14262,-0.479049 6.43009,-1.684116 6.48438,-2.347254 0.0543,-0.663138 -4.11944,-7.390128 -5.03433,-7.355955 -0.9149,0.03417 -1.30702,11.865632 -1.30702,11.865632 l -0.82858,8.217387 c 0,0 -1.96312,5.15886 -5.415877,3.825456 z"
       style="fill:#000000;fill-opacity:1;stroke:#000000;stroke-width:1px;stroke-linecap:butt;stroke-linejoin:miter;stroke-opacity:1" />
    <path
       id="path16846"
       d="m 124.63634,39.671462 c 0,0 -2.26698,-5.607956 -7.35668,-4.743142 -5.0897,0.864815 -4.82919,5.692682 -4.53504,8.473505 0.29416,2.780824 3.27698,14.424998 5.59945,15.722473 2.32246,1.297476 4.17494,3.767787 6.68417,1.468893 2.50923,-2.298894 3.98023,-6.117796 3.17904,-7.784736 -0.8012,-1.666941 -1.44124,-2.251369 -2.18271,0.383784 -0.74147,2.635153 -3.38892,5.129144 -4.38273,4.417145 -0.99381,-0.711998 -5.34114,-7.799495 -5.5734,-9.619322 -0.23226,-1.819827 -1.78959,-8.902819 0.10818,-9.610354 1.89778,-0.707535 3.4498,-1.736767 5.49743,0.848965 2.04763,2.585733 2.96229,0.442789 2.96229,0.442789 z"
       style="fill:#000000;stroke:#000000;stroke-width:1px;stroke-linecap:butt;stroke-linejoin:miter;stroke-opacity:1" />
    <path
       id="path16848"
       d="m 131.85482,60.629502 c 0,0 -2.11545,-24.919825 -1.51888,-25.848909 0.59656,-0.929085 3.25611,0.858643 3.25611,0.858643 0,0 8.6548,11.761092 10.62274,17.665781 1.96794,5.904689 1.59733,8.109364 1.59733,8.109364 l -2.1374,-1.536446 -3.6582,-10.092677 -6.30588,1.19647 c 0,0 1.28459,11.122082 0.51527,11.199885 -0.76933,0.0778 -2.20348,-0.05203 -2.37109,-1.552111 z"
       style="fill:#000000;stroke:#000000;stroke-width:1px;stroke-linecap:butt;stroke-linejoin:miter;stroke-opacity:1" />
    <path
       id="path16850"
       d="m 148.53445,62.330201 c -6.81491,-27.320319 -7.06263,-26.683503 -6.99229,-27.320319 0.0703,-0.636815 5.68467,-0.925407 7.01752,1.777937 1.33285,2.703343 6.67225,8.887509 4.55795,10.482316 -2.11429,1.594807 0.0891,2.372894 0.0891,2.372894 0,0 4.13828,1.303779 3.83086,4.543923 -0.30741,3.240144 -2.0987,8.082789 -3.36121,8.215134 -1.26252,0.132344 -4.0084,0.500887 -5.14189,-0.07188 z"
       style="fill:#1a1a1a;stroke:#000000;stroke-width:1px;stroke-linecap:butt;stroke-linejoin:miter;stroke-opacity:1" />
    <path
       id="path16852"
       d="m 133.93562,41.706858 c 0.32905,4.515889 -1.05273,6.868522 0.36077,6.756416 1.41349,-0.112106 4.10657,-0.911434 4.10657,-0.911434 0,0 -2.84721,-6.999339 -4.46734,-5.844982 z"
       style="fill:#ffffff;stroke:#000000;stroke-width:1px;stroke-linecap:butt;stroke-linejoin:miter;stroke-opacity:1" />
    <path
       sodipodi:nodetypes="ccssc"
       id="path16854"
       d="m 144.58765,37.119189 3.77344,10.620568 c 0,0 3.48716,-1.499251 3.27679,-2.735018 -0.21036,-1.235767 -2.75552,-5.334113 -3.63987,-6.614377 -1.18931,-1.721756 -3.41036,-1.271173 -3.41036,-1.271173 z"
       style="fill:#ffffff;stroke:#000000;stroke-width:1px;stroke-linecap:butt;stroke-linejoin:miter;stroke-opacity:1" />
    <path
       sodipodi:nodetypes="ccsc"
       id="path16856"
       d="m 148.95833,50.62133 2.44072,10.195586 c 0,0 5.48173,-4.581299 4.38709,-7.684386 -0.63058,-1.787583 -4.98753,-4.808141 -6.82781,-2.5112 z"
       style="fill:#ffffff;stroke:#000000;stroke-width:1px;stroke-linecap:butt;stroke-linejoin:miter;stroke-opacity:1" />
  </g>
</svg>
