<?xml version="1.0" encoding="UTF-8" standalone="no"?>
<svg
   xmlns:dc="http://purl.org/dc/elements/1.1/"
   xmlns:cc="http://creativecommons.org/ns#"
   xmlns:rdf="http://www.w3.org/1999/02/22-rdf-syntax-ns#"
   xmlns:svg="http://www.w3.org/2000/svg"
   xmlns="http://www.w3.org/2000/svg"
   xmlns:sodipodi="http://sodipodi.sourceforge.net/DTD/sodipodi-0.dtd"
   xmlns:inkscape="http://www.inkscape.org/namespaces/inkscape"
   version="1.1"
   id="svg3414"
   width="969.27966"
   height="851.28101"
   viewBox="0 0 969.27966 851.28101"
   sodipodi:docname="nancyblankbw.svg"
   inkscape:version="1.0 (4035a4fb49, 2020-05-01)">
  <metadata
     id="metadata3420">
    <rdf:RDF>
      <cc:Work
         rdf:about="">
        <dc:format>image/svg+xml</dc:format>
        <dc:type
           rdf:resource="http://purl.org/dc/dcmitype/StillImage" />
        <dc:title></dc:title>
      </cc:Work>
    </rdf:RDF>
  </metadata>
  <defs
     id="defs3418" />
  <sodipodi:namedview
     inkscape:document-rotation="0"
     pagecolor="#ffffff"
     bordercolor="#666666"
     borderopacity="1"
     objecttolerance="10"
     gridtolerance="10"
     guidetolerance="10"
     inkscape:pageopacity="0"
     inkscape:pageshadow="2"
     inkscape:window-width="1898"
     inkscape:window-height="1034"
     id="namedview3416"
     showgrid="false"
     showguides="false"
     fit-margin-top="0"
     fit-margin-left="0"
     fit-margin-right="0"
     fit-margin-bottom="0"
     inkscape:zoom="0.82079294"
     inkscape:cx="437.88204"
     inkscape:cy="331.53209"
     inkscape:window-x="10"
     inkscape:window-y="34"
     inkscape:window-maximized="0"
     inkscape:current-layer="g3422" />
  <g
     inkscape:groupmode="layer"
     inkscape:label="Image"
     id="g3422"
     transform="translate(40.90744,-392.19701)"
     style="display:inline">
    <path
       id="path3987"
       style="fill:#000000;stroke-width:0.944385"
       d="m 766.62891,392.28711 c -45.36605,83.54302 -89.51526,157.12254 -142.12305,244.17773 -1.98963,5.30821 -4.6095,8.25044 -6.33398,7.11328 -0.41937,-0.27652 -1.7162,0.57966 -2.88086,1.90235 -1.19769,1.36021 -4.46154,3.10582 -7.51368,4.01953 -4.75968,1.42488 -6.06172,2.40851 -11.03906,8.33984 -3.10366,3.69852 -5.97612,7.68446 -6.38281,8.85743 -0.68466,4.45441 15.96167,26.65493 19.68359,31.5039 1.36651,1.70899 2.12843,2.43013 4.13282,4.14063 10.75622,9.48651 27.81787,30.34186 37.8496,26.13086 3.21566,-1.45604 3.35704,-1.7302 3.9336,-7.63477 1.21828,-12.47631 1.68624,-13.26388 9.74414,-16.40625 5.85896,-2.28486 5.38672,-2.24561 5.38672,-0.44922 0,0.80476 -0.64005,1.46289 -1.42188,1.46289 -3.26341,8.00147 4.69537,13.32164 1.78711,23.79883 -1.50414,4.73553 -6.3066,18.52781 -11.96484,14.75 -8.37288,-8.7846 -41.6737,11.02203 -44.32422,5.53516 -13.50156,-10.61279 -42.03872,-32.00534 -58.81836,-32.43164 -3.12068,0.97349 -4.96839,-0.0735 -5.50391,-3.11914 -0.56989,-3.24105 -7.56221,-12.43555 -9.45703,-12.43555 -0.57227,0 -1.03906,-0.43809 -1.03906,-0.97461 0,-0.53651 -0.56706,-0.97656 -1.25977,-0.97656 -0.69271,0 -1.77243,-0.65813 -2.39843,-1.46289 -0.69209,-0.88972 -2.79651,-1.49191 -5.36914,-1.53711 -5.28967,-0.0928 -10.54181,-2.052 -10.91016,-4.07032 -0.15397,-0.84362 0.83483,-2.34144 2.19727,-3.32812 4.75748,-3.44534 13.77994,-13.97663 19.08789,-22.2793 1.14985,-1.79859 1.48316,-1.84267 4.29101,-0.58008 3.58664,1.61278 7.79136,1.75989 9.14063,0.32032 0.52692,-0.56218 1.23831,-2.48984 1.58007,-4.28321 0.70263,-3.6868 4.02383,-5.03306 5.88477,-2.38476 1.17245,1.6685 5.93003,2.39137 7.76758,1.17969 0.79721,-0.52567 0.9838,-2.03582 0.59375,-4.82422 -0.77035,-5.50724 2.35413,-10.74397 6.67969,-11.19336 2.08967,-0.2171 2.94336,0.10316 2.94336,1.10547 0,2.05269 3.37913,2.68412 4.76562,0.89062 0.7846,-1.01491 1.10243,-4.05022 0.95508,-9.11328 -0.23233,-7.98344 0.1411,-8.83091 4.14258,-9.41797 3.98432,-0.58455 6.62038,-2.15323 7.64257,-4.54687 0.88469,-2.07158 0.68692,-2.83485 -1.42578,-5.51368 l -2.45117,-3.10937 1.8711,-1.85938 c 1.02918,-1.023 1.87109,-2.48486 1.87109,-3.24804 0,-0.78651 1.53823,-1.83003 3.55078,-2.40821 5.23116,-1.50288 6.3348,-3.35395 4.00586,-6.71484 -3.71655,-5.36331 -0.38499,-15.55514 6.28711,-19.23633 2.37053,-1.30788 2.68796,-1.91551 2.16406,-4.14258 -0.33769,-1.43549 -0.68268,-2.6123 -0.76758,-2.61328 -0.0848,-10e-4 -0.97865,-0.4836 -1.98437,-1.07422 -2.65714,-1.56044 -2.98976,-6.84887 -0.48438,-7.69726 2.37691,-0.80489 5.27409,-5.28315 4.00391,-6.18945 -0.49978,-0.35659 -1.16644,-1.39149 -1.48047,-2.30079 -0.31404,-0.90929 -1.99178,-1.93754 -3.72851,-2.28515 -2.4624,-0.49287 -3.25802,-1.19294 -3.61329,-3.17578 -0.66366,-3.70404 0.78072,-6.87891 3.99219,-8.77735 5.31334,-3.14094 5.58184,-3.48629 4.69336,-6.04882 -0.63782,-1.83961 -1.84712,-2.61458 -5.29297,-3.39454 -3.19202,-0.72251 -4.56062,-1.53299 -4.79687,-2.84179 -0.48758,-2.70129 1.6027,-6.22071 4.08984,-6.88672 1.99126,-0.53322 2.12575,-0.93448 1.58399,-4.70899 -0.64571,-4.49879 -1.27519,-5.77777 -1.91016,-3.88086 -0.49126,1.4676 -3.81446,1.58154 -7.11133,0.24414 -2.01677,-0.81808 -2.35765,-1.48347 -2.11719,-4.14453 0.19075,-2.11084 0.93607,-3.47638 2.22852,-4.08203 2.76409,-1.29525 3.81266,-3.52548 3.32422,-7.07617 -0.33115,-2.40719 -0.85519,-3.06033 -2.38867,-2.97851 -9.01677,0.48122 -10.79748,-1.59652 -5.66602,-6.61133 2.71721,-2.65536 3.26472,-3.76055 2.75,-5.55078 -1.18371,-4.11697 -2.37936,-4.91098 -6.625,-4.40039 -5.37304,0.64614 -6.91582,0.0841 -8.7207,-3.17579 -2.00666,-3.62432 -1.93442,-6.15987 0.23633,-8.25586 3.82409,-3.69235 -1.28965,-7.32816 -6.83204,-4.85742 -3.5568,1.58559 -6.82031,1.08604 -6.82031,-1.04492 0,-0.72745 1.02997,-2.62668 2.28711,-4.2207 2.99011,-3.79136 2.89259,-5.02576 -0.63281,-8.11719 l -2.93164,-2.57227 -3.42969,2.94141 c -2.07949,1.78296 -4.00165,2.70417 -4.88672,2.3418 -1.63186,-0.66812 -4.11914,-6.32832 -4.11914,-9.37305 0,-2.67253 -3.54211,-2.63955 -6.76172,0.0625 -1.33974,1.12437 -3.06006,1.78863 -3.82226,1.47656 -1.69565,-0.69421 -4.04495,-6.44341 -4.04492,-9.89648 0,-2.18312 -0.28589,-2.43945 -2.05079,-1.8418 -1.8223,0.61709 -1.9118,0.51564 -0.80273,-0.91015 1.11807,-1.43734 0.90969,-1.60352 -2.01758,-1.60352 -1.79658,0 -3.59592,0.57432 -3.99805,1.27734 -2.18117,3.8132 -8.72004,5.97099 -9.71484,3.20508 -0.27125,-0.75417 -1.719,-1.66027 -3.21875,-2.01172 -2.91586,-0.68329 -6.07492,-5.94029 -5.13672,-8.54882 0.57795,-1.60691 -3.08367,-3.67579 -6.5039,-3.67579 -2.30513,0 -2.54765,0.35081 -3.52735,5.1211 -0.5406,2.63235 -0.6769,2.68164 -7.32812,2.68164 -7.29254,0 -6.86205,0.32377 -8.22852,-6.19727 -0.5478,-2.61426 -0.78911,-2.74111 -3.96484,-2.10547 -4.50142,0.90099 -4.76563,1.14057 -4.76563,4.33594 0,2.29617 -0.46912,2.84779 -2.85742,3.35742 -5.9894,1.27805 -7.53741,0.76452 -9.875,-3.27929 -2.55551,-4.42078 -3.40506,-4.94201 -6.23828,-3.81836 -1.49573,0.5932 -2.05859,1.60074 -2.05859,3.69336 0,5.02771 -0.77961,5.96484 -4.9668,5.96484 -3.99707,0 -6.34435,-1.78402 -8.66406,-6.58398 -1.68075,-3.4778 -5.28046,-2.90776 -7.08203,1.12304 -1.62642,3.63889 -4.46463,5.46094 -8.50977,5.46094 -1.85944,0 -3.60006,-1.10254 -5.98438,-3.78711 -2.50111,-2.81608 -3.86998,-3.65056 -5.33593,-3.25586 -2.58479,0.69595 -3.31113,1.97295 -3.32813,5.84766 -0.0121,2.75918 -0.3851,3.27368 -2.73633,3.77539 -1.4973,0.3195 -3.18501,1.17741 -3.75195,1.90625 -1.16165,1.49338 -3.87209,0.40791 -6.32617,-2.53516 -2.21402,-2.65518 -5.40313,-4.06121 -7.57617,-3.33789 -2.76405,0.92006 -3.36446,2.16233 -3.38086,6.9961 -0.0113,3.33636 -0.33574,4.14453 -1.66016,4.14453 -0.90514,0 -2.18919,-0.54812 -2.85547,-1.21875 -0.96915,-0.97548 -1.29562,-0.97548 -1.63086,0 -0.5904,1.71792 -3.67735,1.51903 -4.63086,-0.29883 -0.56172,-1.07091 -2.26084,-1.53663 -5.75976,-1.57813 -9.17951,-0.10879 -9.86727,0.077 -13.25196,3.58399 -1.81231,1.87778 -3.8545,3.41406 -4.5371,3.41406 -1.55749,0 -4.0879,3.76366 -4.0879,6.08008 10e-6,0.9589 -0.8224,2.49531 -1.82812,3.41406 -1.3076,1.19453 -1.82815,2.87642 -1.82812,5.90625 0,5.64822 -1.16351,7.66102 -4.85743,8.40039 -1.6932,0.3389 -4.02074,1.68682 -5.17187,2.99414 l -2.09375,2.37695 2.40429,3.04688 c 1.32214,1.67643 2.4043,3.47831 2.4043,4.00391 0,1.94763 -5.9274,6.69924 -8.35742,6.69921 -5.93743,10e-6 -8.30399,3.38861 -5.40234,7.73633 2.23669,3.35137 2.4147,6.47649 0.43554,7.65821 -0.79123,0.47243 -1.93926,1.92086 -2.55078,3.21875 -0.85418,1.81294 -1.84475,2.35937 -4.27539,2.35937 -2.97389,0 -3.17983,0.21021 -3.43945,3.52149 -0.20664,2.63557 0.31094,4.26894 2.05664,6.48242 1.28334,1.62724 2.33203,3.32118 2.33203,3.76562 0,0.44442 -1.73726,2.40561 -3.86133,4.35742 -3.55847,3.26989 -3.77751,3.74407 -2.80078,6.03125 0.58302,1.36522 2.32029,3.27681 3.86133,4.24805 4.35542,2.745 3.70997,7.08876 -1.3125,8.83399 -5.05675,1.75714 -3.28321,8.97632 3.01562,12.27734 3.18513,1.66925 2.94025,4.69951 -0.74023,9.17187 -3.01453,3.66314 -3.58988,8.05043 -1.36719,10.42188 1.07771,1.14984 2.0567,1.25352 4.6543,0.48828 4.97943,-1.4669 5.66591,-0.75616 6.01367,6.23242 0.28092,5.64507 0.14503,6.20896 -1.48047,6.16016 -1.13928,-0.0342 -2.11016,0.90138 -2.67187,2.57226 -1.22364,3.63983 0.55087,5.66602 4.95703,5.66602 4.33478,0 6.36133,0.80065 6.36133,2.50977 0,0.72849 0.8958,1.83601 1.99023,2.46093 l 1.99023,1.13477 -2.44726,1.36914 c -3.62714,2.02764 -3.05634,4.55316 1.78906,7.91602 l 4.23633,2.93945 c -10.04423,3.49592 -12.82448,31.65145 -12.86664,36.90589 2.3308,12.52777 4.01376,28.12723 24.75922,45.1859 3.38694,1.25973 3.71645,0.67362 -7.8711,13.91993 -1.74435,1.99405 -3.72327,4.95854 -4.39843,6.58593 -0.67518,1.6274 -1.53786,2.95704 -1.91797,2.95704 -0.3801,0 -0.69141,0.80476 -0.69141,1.7871 0,2.72043 -3.81032,4.44208 -7.92773,3.58204 -4.11107,-0.85868 -29.78028,-1.47677 -32.28711,-0.77735 -0.94612,0.26398 -2.78193,2.19224 -4.08008,4.28516 -1.29815,2.09292 -2.90823,3.80469 -3.57812,3.80469 -2.01061,0 -6.4791,-2.71425 -8.79102,-5.33985 -1.19321,-1.35513 -2.66448,-2.46289 -3.26953,-2.46289 -0.60506,0 -1.64694,-0.70379 -2.31641,-1.56445 -2.50694,-3.22284 -10.01359,-4.64075 -12.20312,-2.30469 -1.30126,1.38835 -2.07456,1.17344 -4.0918,-1.13672 -0.99839,-1.14336 -2.76157,-2.56962 -3.91992,-3.16992 -1.91258,-0.99118 -6.19456,-8.92415 -9.82617,-18.20508 -3.13418,-8.00974 -7.57266,-14.33461 -14.19532,-20.22851 -7.08977,-6.30963 -8.88938,-9.96875 -4.90039,-9.96875 1.84425,0 4.08389,2.2857 13.22852,13.49804 1.985,2.43382 3.78975,3.47937 7.15625,4.15039 4.33505,0.86408 4.61638,0.7795 7.58398,-2.27929 11.09093,-23.35814 15.36744,-36.20422 24.10743,-57.35156 1.56578,-5.5759 0.45589,-9.94613 -2.9336,-11.54688 -2.70919,-1.27946 -4.54638,-1.21926 -15.48828,0.50781 -2.83269,0.4471 -3.76466,-0.0141 -7.77148,-3.84375 -2.50402,-2.39333 -7.63873,-7.08581 -11.41016,-10.42773 -3.77143,-3.34192 -7.52605,-7.16423 -8.34375,-8.49414 C 179.59767,541.20811 97.125064,459.89605 39.811879,415.41184 c -32.2899939,13.54341 -56.541906,78.34592 -67.527033,107.95465 -11.04365,29.76647 -17.864881,102.6479 -9.391306,130.02305 14.884981,0.90758 121.029839,10.46296 176.99123,15.30187 1.25715,0.49477 7.84033,1.1134 14.6289,1.37304 6.78857,0.25965 12.42047,0.54191 12.51367,0.62891 0.0931,0.087 -2.30297,2.08927 -5.32422,4.44922 -4.21333,3.29112 -5.38457,4.73393 -5.02734,6.1914 -3.23522,10.26782 -5.18485,18.82137 -5.06836,39.41016 0.14619,25.83841 12.96815,76.33858 74.63281,53.78125 2.32012,-0.84871 3.2461,-0.74973 3.2461,2.0957 3.17352,12.47725 16.74462,22.43454 25.38476,30.66993 3.44107,3.31686 9.19103,7.02578 17.58594,11.34375 10.45957,5.37994 10.53522,5.44345 10.19727,8.40429 -0.17453,1.52911 -0.76792,3.36468 -1.31836,4.08008 -12.24364,71.89741 -35.42639,197.90276 -48.85742,294.75586 -0.25614,1.8777 -0.89374,3.9808 -1.41602,4.6738 -0.52227,0.6931 -0.88429,3.5475 -0.80469,6.3418 0.18169,6.3781 2.91082,9.4688 8.36133,9.4688 1.95066,0 4.7055,0.5062 6.12109,1.123 1.4156,0.6168 5.45461,1.2287 8.97461,1.3614 9.01996,0.3394 20.68409,1.9934 29.32618,4.1582 4.85596,1.2163 9.94371,1.7616 14.85742,1.5918 6.92813,-0.2403 9.76655,0.7922 5.87304,2.1347 -3.55317,1.225 -10.90643,5.7757 -13.48632,8.3477 -1.50858,1.504 -3.04596,2.7402 -3.41797,2.7402 -0.37201,0 -2.19973,2.4513 -4.06055,5.4414 -6.95437,12.8514 -5.7113,30.5808 8.39258,40.9395 3.2781,2.3285 10.79383,4.5615 16.42773,4.8808 11.13265,6.3867 57.79251,7.4674 68.56836,9.0742 0.59621,1.9634 6.26871,5.5063 10.31836,6.4434 1.63428,0.3781 2.97266,1.1046 2.97266,1.6133 0,0.567 11.89047,7.223 31.46091,7.257 37.63136,0.065 97.50476,0.7079 124.24807,-27.6164 2.79357,-5.672 3.37696,-7.8588 3.37696,-12.6562 0,-3.1895 -0.55345,-7.7571 -1.22852,-10.1504 -1.3897,-4.9266 -6.45823,-13.7597 -11.69727,-20.3887 -1.94324,-2.4587 -3.5332,-4.9908 -3.5332,-5.627 18.98606,1.6393 46.00742,4.8447 73.67578,7.1294 1.14533,0.7812 2.40237,0.9698 3.15625,0.4727 0.6891,-0.4548 1.54729,-0.6332 1.90625,-0.3965 0.35895,0.2367 1.66609,0.019 2.90625,-0.4844 4.1097,-1.6671 6.70825,-13.9796 3.8125,-18.0644 -3.86919,-54.2761 -22.59729,-280.56896 -23.11653,-294.45564 17.92796,18.7798 69.65996,-13.20261 111.13997,-44.94085 4.28947,-4.47606 4.73756,-5.32808 4.25391,-8.10352 -0.50198,-2.8807 -0.26181,-3.25433 3.38672,-5.24023 2.1606,-1.17603 6.00672,-3.52536 8.54687,-5.2207 2.54015,-1.69535 5.82154,-3.7278 7.29102,-4.51563 1.48758,-0.79754 3.63277,-3.37822 4.83984,-5.82226 2.54004,-5.14303 3.10208,-5.48001 5.91797,-3.55469 2.95163,2.01814 15.06814,1.96428 18.05469,-0.0801 3.87124,-2.64996 8.42163,-7.4777 9.8789,-10.48047 0.79025,-1.62835 1.47189,-5.76026 1.55469,-9.42969 0.13373,-5.93192 0.45569,-6.95566 3.52734,-11.16211 1.87478,-2.56742 3.39115,-5.75593 3.40235,-7.15429 0.011,-1.38736 0.88272,-4.49781 1.93554,-6.91211 7.77562,-20.05876 -3.42159,-44.63397 -17.40039,-60.69727 -5.31733,-5.98504 -7.64982,-7.88576 -10.92382,-8.90429 -2.28927,-0.7122 -4.31829,-1.79533 -4.50977,-2.40821 -0.19148,-0.61288 2.87264,-2.70562 6.80859,-4.65039 58.18099,-26.72976 116.95932,-60.35462 176.21401,-89.69848 C 923.15014,525.45401 893.3446,475.85523 877.12954,455.15669 860.97342,434.53338 797.428,389.92705 766.62891,392.28711 Z m 0.69921,14.66406 c 17.14685,29.74449 29.18321,57.3364 60.69149,94.73884 31.20936,37.0476 55.21896,47.60728 84.33,68.16937 -59.36534,32.00125 -117.93664,61.66801 -178.49023,90.08031 -2.4345,0.85345 -6.37283,2.83072 -8.75196,4.39258 -5.7659,3.78524 -9.9334,4.76954 -10.73633,2.53711 -0.32912,-0.91508 -0.0788,-3.19338 0.55469,-5.0625 1.51095,-4.45811 -0.0191,-6.44297 -4.08008,-5.29297 -3.5671,1.01016 -4.21624,5.58145 -1.375,9.68164 2.23205,3.22106 1.72448,5.65924 -1.34961,6.48242 -3.05822,0.81893 -5.03515,-0.26333 -5.03515,-2.75585 0,-3.10294 -2.17169,-5.88882 -4.00391,-5.13868 -2.43147,0.99548 -2.75947,3.44494 -0.94531,7.03907 1.65473,3.27827 1.65171,3.36907 -0.18164,5.1914 -1.02647,1.02032 -2.746,2.15379 -3.82031,2.51758 -1.62219,0.54932 -2.18437,0.0687 -3.32032,-2.83203 -0.7523,-1.92102 -1.637,-5.01834 -1.96484,-6.88281 -0.62682,-3.56485 -0.99663,-3.87743 -2.99023,-2.5293 -1.01892,0.68901 -0.98168,1.85679 0.22656,6.88867 2.63262,10.96384 -0.62352,14.83413 -4.53711,5.39258 -1.22947,-2.96612 -2.23438,-6.05307 -2.23438,-6.85938 0,-1.99716 -2.46972,-2.86273 -4.08593,-1.43164 -0.9029,0.79948 -1.05521,1.68124 -0.48633,2.79297 1.46772,2.86824 3.53617,12.04539 3.03125,13.44922 -0.65475,1.82044 -4.7854,2.84458 -6.58594,1.63281 -0.79453,-0.53471 -1.96575,-2.9027 -2.60156,-5.26367 -1.88894,-7.01423 -1.83542,-6.93497 -3.88672,-5.76367 -2.53706,1.44866 -2.32274,5.0999 0.50976,8.69141 3.19317,4.04884 2.74831,7.41015 -0.98046,7.41015 -2.45423,0 -2.87623,-0.46094 -4.00586,-4.38867 -0.69435,-2.4143 -1.55764,-5.04875 -1.91993,-5.85351 -0.68903,-1.53058 -7.33203,-2.66833 -7.33203,-1.25586 0,0.44666 1.26287,2.44711 2.80664,4.44531 3.65147,4.72635 3.34066,7.64406 -0.97656,9.13281 -1.76,0.60692 -3.23524,1.48507 -3.27734,1.95117 -0.0421,0.4661 -0.58983,2.1639 -1.2168,3.77344 -0.75504,1.93829 -0.93691,4.98532 -0.53711,9.02344 0.58944,5.95347 0.55372,6.0957 -1.57422,6.0957 -1.30811,0 -3.4387,-1.40159 -5.33008,-3.50781 -12.89728,-11.78971 -24.81531,-26.54287 -33.20507,-36.07617 -5.26329,-5.98381 -6.18964,-7.5339 -5.71289,-9.56055 0.98385,-4.18233 7.55775,-9.501 13.39062,-10.83398 1.74668,-0.39919 3.75399,-1.22216 4.45899,-1.83008 0.70497,-0.60791 2.53748,-1.54474 4.07421,-2.08203 3.45913,-1.2094 7.41285,-7.17164 8.96485,-13.51758 32.63304,-54.94971 109.47722,-186.37794 134.49218,-232.79102 z M 236.10156,607.04883 c 4.86348,5.47989 17.34268,14.5811 20.42578,20.5039 1.17358,2.42133 1.8708,2.78125 5.38477,2.78125 2.22027,0 4.2627,-0.3901 4.53906,-0.86718 0.84038,-1.45075 7.2008,-1.8699 8.4317,-0.77998 -4.02024,17.8361 -12.37163,31.62927 -18.84381,47.72529 -0.59812,2.00444 -1.39907,3.84955 -1.78125,4.10156 -1.20869,0.797 -7.24471,-4.21324 -7.84961,-6.51562 -1.01744,-3.87262 -2.56745,-6.59571 -3.7539,-6.59571 -0.6334,0 -1.80739,-0.69914 -2.60742,-1.55273 -1.18558,-1.26491 -1.98428,-1.35568 -4.31641,-0.48828 -3.99054,1.48421 -4.41602,1.36964 -4.41602,-1.19141 0,-1.2409 1.23362,-3.51656 2.74219,-5.05859 2.76093,-2.82216 3.5177,-6.45405 1.9082,-9.16602 -0.62373,-1.05099 -1.14342,-0.67324 -2.27343,1.65821 -0.80507,1.66102 -1.16699,1.51016 -1.16699,2.87808 0.27359,2.30065 -2.02607,5.28045 -2.54004,6.92856 -0.39603,1.33104 -1.1577,1.68538 -2.8711,1.33593 -3.2633,-0.66558 -8.54024,2.38076 -8.58594,4.95703 -0.008,0.43405 0.35453,0.54684 0.80469,0.25 0.99379,-0.65528 1.92578,1.69645 1.92578,4.86329 0,1.81528 -0.35213,2.18375 -1.59765,1.67382 -1.45577,-0.59602 -1.44318,-0.39741 0.15429,2.22657 0.96417,1.58372 2.4499,3.40932 3.30078,4.05859 0.85089,0.64927 2.04582,2.46392 2.6543,4.03125 0.99716,2.56844 0.77374,3.55337 -2.26172,9.98438 -3.1445,6.66205 -3.33451,7.5585 -2.84375,13.51562 0.32563,3.95265 1.03916,6.77956 1.875,7.43164 2.56418,2.00047 3.36542,9.31078 3.09571,28.23828 l -0.26368,18.53321 -3.41992,1.7832 c -4.79276,2.49876 -29.42429,3.91557 -32.42578,1.86523 -1.10933,-0.75775 -2.45592,-1.08799 -2.99219,-0.73437 -1.91611,1.26347 -10.12079,-2.56193 -13.25,-6.17774 -5.49575,-6.35037 -6.88281,-8.23177 -6.88281,-9.33593 0,-0.59649 -0.79213,-2.66166 -1.75977,-4.58789 -0.43973,-8.85182 -7.97006,-64.60203 8.64844,-66.21485 0.83388,0 1.33985,0.95884 1.33985,2.54102 0,1.39796 1.028,3.84737 2.28515,5.4414 2.85745,3.62316 2.85745,4.80067 0,8.42383 -2.90143,3.67892 -3.06713,8.78371 -0.36523,11.25195 1.56205,1.42698 1.81108,2.42308 1.33008,5.3379 -1.92616,11.67208 -1.43588,16.13954 2.27539,20.70507 1.96369,2.41567 2.2881,4.38267 0.875,5.31446 -1.49764,0.98754 -1.04076,7.81714 0.83593,12.48828 2.55224,6.35261 5.34091,7.52059 17.81836,7.46289 12.38663,-0.0572 15.52954,-1.35454 18.64063,-7.69336 2.05291,-4.1828 2.07521,-4.47071 0.66992,-9.05469 -0.38694,-10.07187 -1.78989,-20.88458 -1.69532,-28.85742 0.0856,-6.27696 -0.28776,-12.78231 -0.82813,-14.45703 -0.88417,-2.74028 -0.67538,-3.50211 2.08789,-7.60742 l 3.07227,-4.5625 -5.5293,-5.5625 c -6.01298,-6.0498 -12.07108,-9.95118 -15.44922,-9.95118 -1.17995,0 -2.3982,-0.43809 -2.70898,-0.9746 -0.31079,-0.53651 -1.46661,-0.99072 -2.56836,-1.00782 -5.1573,-0.0799 -6.79077,-5.53405 -3.10742,-10.3789 5.23884,-6.89087 6.37161,-10.3679 3.73047,-11.44922 -2.26253,-0.92633 -3.73581,0.98654 -4.40039,5.71484 -0.59066,4.2024 -5.13409,12.24219 -6.91797,12.24219 -0.4997,0 -0.90821,-1.53627 -0.90821,-3.41406 0,-1.87779 0.41121,-3.41407 0.91407,-3.41407 0.50285,0 0.91406,-1.97437 0.91406,-4.38867 0,-5.09024 -1.41569,-5.85295 -2.26172,-1.21875 -0.31834,1.74366 -1.23536,4.81621 -2.03906,6.82813 -1.27363,3.18824 -1.85543,3.6582 -4.52344,3.6582 -3.37606,0 -4.11522,-2.01316 -1.76172,-4.80078 1.89054,-2.23925 2.95643,-7.28139 1.42383,-6.73633 -0.6556,0.23316 -1.28631,1.11356 -1.40234,1.95703 -0.42745,3.10731 -1.46748,5.67774 -2.29688,5.67774 -0.46897,0 -3.5973,2.97136 -3.5973,3.7659 C 116.2721,659.47471 24.712726,648.8685 -27.877511,645.58 -8.930684,613.55878 7.4562173,578.62881 17.07739,545.69779 29.526318,503.08804 42.852052,473.91163 45.890615,429.57812 108.86329,492.04826 180.20765,548.04903 236.10156,607.04883 Z M 483.09375,438.84375 c 2.80907,-0.0845 5.86526,0.71025 7.47852,2.31836 1.03813,1.0348 2.28481,1.88086 2.76953,1.88086 0.48471,0 1.6698,2.74251 2.63281,6.0957 2.25538,7.85326 3.14703,38.76092 1.375,47.66992 -1.16085,5.83625 -3.98772,10.06036 -7.75,11.58594 -2.22633,0.90275 -17.5197,0.3361 -19.03125,-0.70508 -1.42302,-0.98021 -10.45296,-3.0492 -13.6543,-3.1289 -1.5846,-0.0395 -2.51367,-0.59736 -2.51367,-1.50782 0,-2.11513 -4.29766,-2.93938 -7.09375,-1.36132 -1.30972,0.73918 -3.68554,2.77001 -5.2793,4.51367 -1.59377,1.74366 -3.06109,3.07908 -3.26172,2.96875 -0.20062,-0.11032 -3.96523,-0.34657 -8.36523,-0.52539 -4.4,-0.17882 -8,-0.7461 -8,-1.26172 0,-0.51563 -0.66135,-0.9375 -1.46875,-0.9375 -1.82537,0 -5.93243,-3.63759 -10.05664,-8.9043 -3.02541,-3.86353 -3.12781,-4.25479 -2.72266,-10.48047 0.23147,-3.55672 0.64417,-7.53659 0.91602,-8.8457 0.55056,-2.65121 9.65495,-12.00236 13.56055,-13.92773 1.38286,-0.68171 2.51367,-1.52373 2.51367,-1.8711 0,-0.34739 1.08583,-0.92219 2.41211,-1.27734 1.78089,-0.47689 4.04586,0.25391 8.66601,2.79687 3.44076,1.89383 6.77929,3.20163 7.41797,2.90625 0.63866,-0.29539 2.60133,-2.42687 4.36133,-4.73828 1.76,-2.31141 4.43479,-4.98978 5.94336,-5.95117 1.50857,-0.96139 4.35971,-3.20797 6.33594,-4.99219 4.24523,1.06112 12.53257,-10.90529 15.25195,-9.51758 0.45437,0.29961 1.46951,-0.14149 2.25586,-0.98046 1.08731,-1.16008 3.12181,-1.75658 5.30664,-1.82227 z m -110.83984,11.45508 c 5.23912,0.0312 11.84208,4.04271 23.86132,14.02734 5.51436,4.5809 6.13983,5.9241 3.88477,8.33008 -0.75428,0.80476 -1.37109,1.8849 -1.37109,2.40234 0,2.07092 -3.20691,2.24264 -4.45508,0.23829 -1.57535,-2.52979 -9.25977,-2.98682 -9.25977,-0.55079 0,0.86314 0.84315,1.46857 2.05664,1.47657 3.02684,0.0196 6.17188,1.06426 6.17188,2.05078 0,0.47394 -0.84236,0.86133 -1.87305,0.86133 -2.22708,0 -7.661,2.83496 -6.92969,3.61523 0.28046,0.29923 0.0657,1.4288 -0.47656,2.50977 -0.88798,1.77025 -0.77054,1.89684 1.17578,1.2832 1.1885,-0.37471 3.70414,-0.93516 5.58985,-1.24609 4.13417,-0.68168 4.69249,1.12343 0.91406,2.95507 -4.73387,2.29481 -8.44516,5.02831 -8.15235,6.00391 0.50012,1.66616 5.16248,1.68198 9.0293,0.0312 3.44693,-1.47149 3.81198,-1.46354 5.45313,0.12109 1.15189,1.11221 1.66509,2.6964 1.48633,4.58985 -0.24503,2.59515 -0.87485,3.11956 -6.14844,5.13867 -3.60671,1.3809 -7.21035,3.64293 -9.33594,5.85742 -1.90418,1.98383 -5.02096,4.18487 -6.92578,4.89258 -4.45301,1.66011 -11.84506,-1.36659 -15.54492,-8.90625 -0.76824,-1.62068 -2.06736,-3.75911 -2.88672,-4.75391 -2.28458,-2.77373 -2.2008,-31.77254 0.0996,-34.48828 0.87403,-1.03183 1.84043,-3.21111 2.14648,-4.84375 0.30605,-1.63264 1.54541,-4.19672 2.75391,-5.69726 1.20849,-1.50054 2.19726,-3.06511 2.19726,-3.47657 0,-0.41145 1.38581,-1.23545 3.08008,-1.83203 1.1137,-0.39215 2.24996,-0.59705 3.45899,-0.58984 z M 602.9707,500.625 c 0.50286,0 0.29725,0.42522 -0.45703,0.94531 -0.75429,0.52008 -1.78229,0.94727 -2.28515,0.94727 -0.50285,0 -0.29726,-0.42719 0.45703,-0.94727 0.75428,-0.52009 1.78229,-0.94531 2.28515,-0.94531 z M 462.125,542.32617 c 2.25957,-0.0113 4.50749,0.19459 5.75977,0.6211 2.54957,0.86835 2.70128,2.51953 0.23046,2.51953 -2.03666,0 -2.41488,1.91197 -0.73242,3.70703 1.4455,1.54222 8.47637,1.50674 9.67383,-0.0488 0.51625,-0.67064 1.08196,-2.31692 1.25586,-3.6582 0.27334,-2.10829 0.84443,-2.47859 4.21094,-2.73828 6.57782,-0.50743 6.16583,4.85791 -0.65821,8.57226 -5.39027,2.93396 -5.6766,5.53843 -1.07421,9.76758 3.65977,3.36297 4.47979,5.70354 3.2246,9.19336 -0.30522,0.84866 -1.01155,1.54297 -1.57031,1.54297 -1.50362,0 -5.1875,4.91355 -5.1875,6.91797 0,3.577 1.87602,6.85844 4.47266,7.82422 2.12076,0.78876 2.7302,1.67475 3.0293,4.4082 0.20592,1.88191 -0.14739,4.37919 -0.78321,5.54883 -0.63582,1.16964 -1.53716,3.0051 -2.0039,4.07812 -0.46674,1.07303 -1.71783,2.78656 -2.78125,3.80859 -3.00142,2.88464 -2.34495,4.16381 3.07421,5.98243 3.91533,1.31394 5.41212,2.40987 6.85743,5.02343 2.44884,4.42822 2.33058,6.70641 -0.50196,9.72852 -3.02469,3.22713 -3.172,7.41693 -0.37304,10.5957 2.79113,3.16986 4.19895,3.04896 5.92383,-0.50976 2.90496,-5.99354 6.61633,-1.69718 4.87109,5.63867 -0.71665,3.01235 -0.64116,4.5888 0.32422,6.70898 1.22668,2.69409 1.4343,2.76274 7.40429,2.44141 l 6.14258,-0.33008 v 5.64258 c 0,4.79415 0.36957,6.05425 2.45703,8.37891 3.03893,3.38424 3.97842,3.40957 6.60743,0.18359 1.73998,-2.13508 2.6059,-2.45979 5.30664,-1.99219 1.77508,0.30733 3.41523,0.75926 3.64453,1.00391 0.7326,0.78164 -2.63448,5.49023 -3.92578,5.49023 -0.68353,0 -1.87858,1.31349 -2.65625,2.91797 -0.77766,1.60448 -2.53777,3.65697 -3.91016,4.5625 -1.37239,0.90554 -3.94107,3.09311 -5.70898,4.86133 -26.60144,21.19904 -59.61189,35.61495 -89.12891,35.31641 -33.21988,-0.37372 -79.92004,-27.54756 -80,-63.24024 0.48462,-6.75806 2.4867,-17.26199 5.51172,-23.48633 0.5167,-1.03008 1.31285,-3.74536 1.76953,-6.0332 1.70004,-8.51679 2.59992,-11.39699 4.40234,-14.09766 1.76996,-2.65204 1.77989,-2.86056 0.24805,-4.8789 -1.427,-1.88022 -1.59325,-3.55196 -1.01367,-10.1875 0.0297,-0.33981 0.8771,-0.84831 1.88281,-1.12891 1.39497,-0.38921 1.82813,-1.32941 1.82813,-3.96875 0,-2.96663 -0.43791,-3.68189 -3.06836,-5.01367 -2.28726,-1.158 -3.34581,-2.54427 -4.16211,-5.45117 -0.99309,-3.53651 -0.86997,-4.40402 1.32031,-9.34375 2.31033,-5.21046 2.3558,-5.62035 1.05078,-9.4707 -1.78388,-5.26322 -2.47494,-10.70269 -1.56055,-12.28126 1.03934,-1.79421 2.94199,-0.22294 2.3086,1.90626 -0.36779,1.23635 0.2903,2.39826 2.16211,3.82031 4.17162,3.16925 6.24009,2.65204 9.07031,-2.26367 2.52377,-4.38347 5.23081,-5.85146 7.87695,-4.27149 0.80222,0.47899 1.45899,1.6951 1.45899,2.70313 0,3.18319 2.25623,4.67678 6.06836,4.01562 2.95309,-0.51214 3.54618,-1.0406 4.03711,-3.60156 0.89918,-4.69075 1.58828,-5.26953 6.27929,-5.26953 4.08516,0 4.36326,0.15632 3.99024,2.23828 -0.22881,1.27703 0.31945,3.18844 1.27929,4.45312 1.44709,1.90668 2.0352,2.07319 4.20899,1.19141 1.38954,-0.56366 2.78463,-1.79915 3.09961,-2.74609 1.31942,-3.9667 3.21127,-5.13672 8.3125,-5.13672 4.55791,0 5.25335,0.3026 7.98828,3.48828 2.33183,2.71614 3.57314,3.4201 5.60156,3.17187 1.75055,-0.21424 2.71332,-0.96081 2.93555,-2.27148 0.57716,-3.40414 2.6552,-5.05465 5.85547,-4.6543 5.90659,0.7389 7.07613,1.31645 8.46484,4.18164 0.78599,1.62166 2.1532,2.91211 3.08398,2.91211 2.05881,0 6.50977,-4.2588 6.50977,-6.22851 0,-0.79423 0.85451,-1.73244 1.89844,-2.08594 1.29712,-0.43925 3.5666,-0.6684 5.82617,-0.67969 z m -22.06055,32.72461 c -2.16519,-0.20779 -9.43554,7.71568 -9.43554,10.42774 0,2.60206 1.75198,2.4352 5.51562,-0.52735 2.79726,-2.20188 3.85585,-2.43255 10.02344,-2.17773 5.38279,0.22238 7.52692,0.76359 9.76367,2.46289 2.84418,2.16078 7.61133,2.97791 7.61133,1.30469 0,-1.07399 -4.1436,-5.6849 -7.76367,-8.63868 -2.12221,-1.73162 -3.8863,-2.19531 -8.35938,-2.19531 -3.11829,0 -6.34136,-0.2753 -7.16211,-0.61133 -0.0588,-0.0241 -0.12351,-0.0382 -0.19336,-0.0449 z m -55.58789,0.008 c -1.04661,-0.007 -2.26519,0.10967 -3.78906,0.30079 -4.05824,0.50887 -5.58585,1.25769 -8.1543,3.99804 -3.22389,3.43965 -3.62977,4.30597 -2.55273,5.45508 1.10126,1.17498 4.63,0.67812 5.79101,-0.81445 1.47491,-1.89602 8.36148,-1.91348 14.20508,-0.0371 6.60347,2.12036 7.72368,0.4592 2.86328,-4.24414 -3.63212,-3.51476 -5.22343,-4.63861 -8.36328,-4.65821 z m 52.38451,22.8045 c -2.32211,2.05615 -3.67631,6.45121 -3.67631,8.43308 0,1.07167 1.08166,3.74334 3.57204,6.40035 2.49034,2.65701 5.79365,2.44029 6.55136,2.44029 2.39964,0 7.78062,-2.66139 9.40138,-5.58874 1.88196,-3.39913 1.74778,-4.70398 -1.68097,-9.8786 -1.66556,-2.51363 -2.60074,-3.52986 -4.26454,-3.9085 -4.17133,-0.73047 -6.12884,-0.8559 -9.90296,2.10212 z m -52.18138,-1.99786 c -0.59395,0.009 -1.20317,0.0419 -1.79688,0.0996 -3.61635,0.35144 -4.84191,1.03868 -7.54297,4.22852 -1.77376,2.09473 -1.61248,4.99382 -1.61048,5.66291 0.006,1.94234 3.01907,6.70421 4.80018,7.45532 2.45052,1.0334 5.68566,2.08232 9.80318,0.0876 3.06385,-1.48427 4.66091,-6.77804 4.66091,-8.03239 0,-1.08072 -2.58383,-7.12632 -3.82672,-7.78084 -0.63219,-0.33289 -2.70539,-1.74823 -4.48722,-1.72072 z m 22.79297,25.76368 c -6.22531,0.0329 -12.22945,0.25036 -13.14454,0.625 -1.21073,0.4957 -0.63664,4.59483 0.42204,5.72437 4.92105,0.0105 9.26329,0.30341 13.4432,0.34794 14.57491,0.17622 16.94922,-0.29374 16.94922,-3.35547 0,-1.76949 -0.65364,-2.35416 -3.19727,-2.86328 -1.80003,-0.36029 -8.24735,-0.51142 -14.47265,-0.47851 z m -161.63477,23.48242 c -0.49992,-0.0413 -1.14161,1.69464 -2.07617,5.53906 -0.89612,3.68627 -2.41726,7.42246 -3.38086,8.30273 -0.96359,0.88027 -1.75195,2.30149 -1.75195,3.15626 0,0.85472 0.49343,1.37699 1.09765,1.1621 2.74509,-0.97626 7.85383,-15.14762 6.43555,-17.85156 -0.10217,-0.19479 -0.20885,-0.29906 -0.32422,-0.30859 z m 138.30859,8.9355 c -7.53657,3.53589 -7.97954,14.94043 0.1543,20.74023 12.49273,8.90789 49.35661,15.56077 56.81641,-1.07422 3.05251,-6.80694 3.15189,-9.28645 -4.41602,-15.75781 -15.97095,-13.65684 -44.90207,-7.49854 -52.55469,-3.9082 z m -156.95507,-2.91597 c -0.2959,-0.0791 -0.44922,0.87351 -0.44922,2.85937 0,1.92332 -0.26892,4.24614 -0.59766,5.16016 -0.55159,1.5336 -0.4533,1.5286 1.27344,-0.0488 1.52726,-1.3952 1.72721,-2.24771 1.08398,-4.64062 -0.57515,-2.13968 -1.01465,-3.25094 -1.31054,-3.33008 z m 504.40234,20.81641 5.87695,3.09179 c 3.23283,1.70086 6.67351,3.09375 7.64649,3.09375 2.80959,0 11.34079,9.54044 16.07617,17.97852 6.47341,11.53509 7.70887,15.90605 7.79687,27.60937 0.0642,8.52864 -0.20799,10.49664 -1.83007,13.29688 -1.04718,1.80777 -1.90235,4.22336 -1.90235,5.36719 0,1.33981 -0.57586,2.08007 -1.61914,2.08007 -1.25665,0 -1.85809,-1.33271 -2.67969,-5.94531 -0.89884,-5.04625 -1.60006,-6.43804 -4.64062,-9.21484 -4.20381,-3.83912 -7.51758,-12.33915 -7.51758,-19.2793 0,-4.25507 -0.37241,-5.71008 -3.33594,-13.03516 -1.55887,-3.85314 -5.82459,-7.7628 -9.3789,-8.5957 -2.79855,-0.6558 -4.36283,-2.14926 -5.99805,-5.73242 -0.52478,-1.14993 -2.27928,-2.74992 -3.90039,-3.55469 -4.04447,-2.00779 -3.7274,-3.43978 1.20898,-5.45117 z m -544.67773,4.58203 c 0.82937,-0.002 1.95228,0.23879 3.46289,0.66406 5.04152,1.41931 18.33472,7.7401 19.20703,9.13281 -0.0312,4.94876 -12.93372,1.59096 -15.4961,1.57617 -8.42781,-0.0168 -9.40429,-0.76452 -9.40429,-7.20898 0,-2.97798 0.40584,-4.15947 2.23047,-4.16406 z m 519.70312,8.54297 c 0.25462,-0.009 0.47918,0.006 0.66992,0.0449 1.92954,0.39647 3.84672,6.13124 3.95508,11.83203 0.0586,3.08289 -0.54615,4.33998 -3.64062,7.57617 -2.04079,2.13426 -4.30935,5.40901 -5.04102,7.27734 -0.73167,1.86833 -1.479,3.39649 -1.66211,3.39649 -1.52841,0 -9.89385,-20.2511 -9.25391,-22.40234 0.69415,-2.33342 11.15334,-7.59303 14.97266,-7.72461 z m -471.80859,9.86328 c 0.66626,0.14725 2.03824,2.88557 3.04883,6.08593 1.01057,3.20034 2.59857,6.38797 3.52734,7.08204 0.92876,0.69407 2.31865,3.56108 3.08984,6.37304 1.09414,3.9896 2.71471,6.53665 7.37696,11.59571 5.99106,6.50096 7.1258,8.93253 4.64257,9.94921 -6.59317,8.30117 -13.08741,18.01259 -19.03125,22.09961 -0.80453,0 -0.75766,1.36724 -0.66796,-19.625 l 0.0742,-17.18554 -3.32421,-7.06641 c -3.46582,-7.36806 -3.55624,-8.60352 -1.15821,-15.89453 0.68921,-2.09546 1.73246,-3.56645 2.42188,-3.41406 z m -46.76367,4.1914 c 1.41788,-0.043 3.34736,0.025 5.89257,0.13282 11.04735,0.46785 12.68946,1.18942 12.68946,5.58203 v 3.22851 l -8,-0.004 c -10.08995,-0.007 -10.41153,-0.10291 -12.34375,-3.70118 -2.14161,-3.98816 -2.49197,-5.10921 1.76172,-5.23828 z m 542.93359,1.44141 c 3.57009,0 4.22623,0.34562 5.45312,2.87695 0.76719,1.58289 1.39453,4.39139 1.39453,6.24024 0,3.80431 -3.52704,7.76362 -10.31054,11.57226 -4.79493,2.69215 -16.10698,3.22619 -16.3457,0.77149 -0.53499,-5.5007 3.1626,-13.07636 7.17773,-14.70508 1.31814,-0.5347 3.78651,-2.27474 5.48437,-3.86524 2.43027,-2.27661 3.95102,-2.89062 7.14649,-2.89062 z m -47.50195,6.20312 c 0.18932,0.0236 0.38517,0.076 0.58593,0.15821 1.68754,0.69091 8.17058,20.28256 8.54688,25.82812 1.15757,17.059 12.97906,38.09761 26.24609,46.70899 4.19998,2.72612 4.32781,4.4452 0.49024,6.5625 -4.6726,3.43957 -7.52137,8.14116 -13.5,8.83984 -2.58599,0.28029 -3.53315,-0.12058 -4.81836,-2.04297 -0.88,-1.31629 -1.60157,-2.67055 -1.60157,-3.00781 -9.13209,-11.14831 -15.23208,-23.88606 -24.85546,-35.11133 -2.65476,-3.03119 -3.18663,-4.39062 -1.71875,-4.39062 0.46897,0 1.13477,-0.98621 1.48046,-2.19336 1.1551,-4.03366 6.36688,-8.81864 7.33594,-15.42578 0.85618,-5.83748 0.46528,-13.50043 -0.0996,-16.95118 -0.67097,-4.09883 -0.93168,-9.32906 1.90821,-8.97461 z m -157.23243,1.11914 c 0.94608,0.0161 2.18215,0.37865 3.125,0.96094 1.25715,0.77638 3.41791,1.90609 4.80079,2.51172 3.20389,1.40315 3.22892,4.15128 0.0527,5.69531 -4.16231,2.0234 -12.6585,9.18387 -14.98633,12.62891 -1.2148,1.79785 -2.93055,4.10226 -3.81055,5.12109 -1.75224,2.02868 -9.25476,2.65505 -10.29492,0.85938 -1.56929,-2.70909 15.58272,-26.10876 20.28516,-27.67383 0.22925,-0.0763 0.51276,-0.10886 0.82812,-0.10352 z m -157.01757,1.45704 c 0.45859,0 1.35578,0.67154 1.99414,1.49218 1.66351,2.13856 0.15635,5.14667 -6.62891,13.23243 -4.38105,5.22076 -6.21445,6.73632 -8.1543,6.73632 -3.37652,0 -3.89547,-1.28604 -2.05273,-5.09375 1.63195,-3.37216 13.4163,-16.36718 14.8418,-16.36718 z m 106.88671,6.82226 c 2.27107,0.01 1.07209,2.0871 -1.99218,3.45313 -1.7234,0.76827 -3.40062,2.29813 -3.72852,3.40039 -0.3279,1.10227 -2.19265,3.07926 -4.14258,4.39258 -3.76022,2.53258 -5.46865,5.04411 -4.79492,7.04882 0.22538,0.67064 0.2731,1.12403 0.10547,1.00586 -0.16761,-0.11818 -6.09687,-0.34942 -13.17578,-0.51367 l -12.8711,-0.29883 -1.52929,-3.42187 c -2.60936,-5.83811 -2.39908,-6.03791 6.92773,-6.61914 10.81555,-0.67402 14.69862,-1.34877 20.34375,-3.53516 7.28851,-2.82288 13.62065,-4.91711 14.85742,-4.91211 z m -284.6289,2.52539 c 1.76994,-0.009 3.88282,0.0973 6.34179,0.31836 6.53928,0.58793 7.39826,0.91355 9.36719,3.53906 1.19221,1.58978 2.16888,3.42245 2.17188,4.07422 0.01,2.59571 -6.17545,3.43418 -8.7461,1.18555 -0.53866,-0.47118 -3.02407,-0.59877 -5.52148,-0.2832 -4.01953,0.50791 -4.87665,0.27158 -7.47656,-2.0625 -5.02969,-4.51545 -3.80649,-6.73162 3.86328,-6.77149 z m 196.61523,0.46094 c 1.63637,-0.0785 3.68829,0.55207 5.23438,1.84961 1.63392,1.37127 4.00921,1.98303 8.50586,2.19336 3.67729,0.172 6.38466,0.75494 6.58984,1.41797 0.44819,1.44822 -3.86031,6.0539 -6.76562,7.23242 -2.72195,1.10419 -7.41031,1.07254 -9.89454,-0.0664 -1.00571,-0.4611 -2.96089,-0.86855 -4.34375,-0.90625 -2.35378,-0.0642 -2.51367,-0.34418 -2.51367,-4.3789 0,-2.37042 0.24946,-5.00488 0.55469,-5.85352 0.33763,-0.93872 1.36008,-1.42725 2.63281,-1.48828 z m 313.39649,5.79883 c 0.63505,0 1.56025,0.95687 2.05664,2.12695 0.49638,1.17008 2.21334,2.81636 3.81445,3.6582 2.95791,1.55522 3.91119,3.46954 3.93359,7.89844 0.0188,3.70641 2.39476,6.6074 6.48243,7.91406 2.77836,0.88813 3.51681,1.54211 3.0625,2.71094 -1.50024,3.85972 -1.42667,5.39043 0.45312,9.40625 1.30855,2.79547 3.08345,4.83676 5.08399,5.84961 3.56198,1.80339 4.18303,3.00231 3.125,6.03906 -1.21885,3.49838 -3.16183,2.63128 -9.84766,-4.39062 -5.3801,-5.65054 -7.07735,-8.35683 -11.96484,-19.08203 -3.75531,-8.24071 -5.52899,-13.22358 -5.20704,-14.63086 0.26854,-1.17384 -0.10535,-2.98786 -0.83007,-4.0293 -1.62357,-2.33312 -1.67611,-3.4707 -0.16211,-3.4707 z m 40.39453,0.0488 c 0.91687,-0.0729 1.05786,0.83395 0.54492,2.74218 -1.18185,4.39663 -2.51226,6.55248 -5.20312,8.4336 -4.56241,3.18946 -13.87679,3.71584 -16.48633,0.93164 -1.09808,-1.17156 -0.80314,-1.57929 2.06836,-2.85938 1.84198,-0.82113 3.65959,-1.49414 4.03711,-1.49414 1.18204,0 8.56228,-3.75614 11.43164,-5.81836 1.71058,-1.22939 2.8943,-1.87886 3.60742,-1.93554 z m -191.94531,0.1914 c 21.99919,3.33379 45.51487,20.0532 63.83789,35.58399 5.26955,5.31343 20.37465,-6.16808 32.35351,-7.9668 19.15801,-8.37541 33.57336,30.5479 49.4043,52.04102 l 2.51367,2.02343 -3.41406,3.17969 C 669.62731,832.07165 640.87616,853.42429 608,858.03922 c -2.61407,0.37019 -3.55822,0.10869 -8.875,-2.44531 -7.17765,-3.44789 -13.5127,-8.50718 -17.18164,-13.72266 -2.01143,-2.85929 -5.30061,-6.93513 -7.30859,-9.05664 -3.23518,-3.41813 -3.63304,-4.34227 -3.4961,-8.11718 0.085,-2.34295 0.55454,-4.78248 1.04297,-5.42188 2.90378,-19.08789 4.96641,-40.02132 6.45703,-60.66601 l 0.98438,-13.65821 -3.33594,-3.16992 -3.33399,-3.16992 -20.64843,-0.0156 c -11.35622,-0.008 -21.24813,-0.41852 -21.98242,-0.91406 -1.13904,-0.76869 -1.07202,-1.2329 0.45703,-3.15625 3.32443,-4.18167 5.94254,-6.07327 10.27734,-7.42578 3.67515,-1.14669 6.6361,-1.78168 8.89063,-1.9043 z m -279.98243,8.62696 2.66211,1.46875 c 1.46384,0.80765 5.41888,3.58938 8.78907,6.18164 3.37021,2.59225 7.66897,5.23755 9.55468,5.8789 3.20371,1.08961 4.36178,1.35818 3.80791,4.46138 -1.87016,18.90269 -8.10067,41.78238 -9.63749,57.9839 -0.2813,3.35766 -3.76929,3.95035 -4.89112,2.01371 -0.33163,-0.57251 -2.11715,-1.92257 -3.96875,-2.99805 -1.85159,-1.07547 -5.75895,-3.37192 -8.68164,-5.10547 -5.95129,-3.52991 -19.94896,-17.96372 -25.0293,-25.80859 l -3.30078,-5.09961 3.73633,-6.11914 c 4.07715,-6.67687 6.96728,-10.30947 18.99805,-23.87891 z m 480.75391,4.78906 c 1.62977,0 0.41515,7.25012 -1.58984,9.49023 -0.93527,1.04494 -2.11238,2.64771 -2.61524,3.5625 -0.50286,0.9148 -2.55888,2.28278 -4.57031,3.04102 -7.29529,2.75007 -12.97541,1.30092 -12.17969,-3.10742 0.20066,-1.11165 1.46472,-1.96173 3.50391,-2.35743 5.08132,-0.98601 9.73475,-3.53111 13.18554,-7.21289 1.76045,-1.87826 3.67979,-3.41601 4.26563,-3.41601 z m -552.77148,0.33789 c 2.53618,0.0713 5.40357,0.73701 8.0332,2.06836 2.51554,1.2736 3.39062,2.31871 3.39062,4.04492 0,2.00212 -0.44029,2.32814 -3.14648,2.32812 -1.73032,1e-5 -3.40016,0.44006 -3.71094,0.97657 -1.57771,2.72364 -11.88476,-1.98023 -11.88476,-5.42383 0,-2.44055 2.6831,-3.8458 6.2539,-3.98828 0.34716,-0.0138 0.70214,-0.016 1.06446,-0.006 z m 108.79492,0.15039 9.60156,0.0586 c 8.80659,0.0545 19.19922,1.15949 19.19922,2.04102 0,0.2008 -0.47562,1.347 -1.05664,2.54687 -0.58101,1.19987 -1.32176,2.79906 -1.64649,3.55469 -0.9078,2.11233 1.0593,7.84993 3.75586,10.95508 2.96042,3.40897 6.40383,3.61805 13.8125,0.83984 2.86143,-1.07302 5.7872,-1.94922 6.50196,-1.94922 1.81987,0 6.82773,-6.32504 7.54492,-9.52929 1.14568,-5.11865 1.08332,-5.10352 21.31836,-5.10352 10.40607,0 21.29575,0.46794 24.20117,1.04102 2.90544,0.57304 17.89506,1.49853 33.31055,2.05664 27.34313,0.98996 45.0539,1.66539 45.74023,1.74219 0.18729,0.0209 -0.21811,0.75709 -0.90234,1.63671 -1.91267,2.45886 -3.48038,10.17864 -2.58008,12.70508 1.26507,3.55011 6.85931,5.9574 13.19922,5.67969 7.04175,-0.30845 11.52437,-2.34473 14.2207,-6.46094 1.18196,-1.80436 2.5358,-3.56366 3.00781,-3.91015 0.47202,-0.34651 1.11969,-2.32284 1.43946,-4.39063 0.56625,-3.6616 0.67656,-3.75599 4.21484,-3.60937 1.99816,0.0828 13.46,0.1827 25.4707,0.2207 l 21.83594,0.0684 -0.61719,9.53515 c -16.81462,150.39674 -31.53624,265.41327 -47.99414,415.08987 -108.40063,-14.5026 -194.10433,-24.6295 -274.37695,-37.1348 -2.87448,-1.508 -3.1965,-2.0742 -3.1543,-5.5625 18.6402,-106.3866 31.39043,-212.33702 48.82223,-298.21874 0.47814,-2.28787 1.32904,-7.2327 1.88867,-10.98828 5.31927,-26.63747 8.21158,-51.59062 12.52539,-78.52539 z m 43.61328,2.10351 c 2.10441,0.0471 4.3878,0.52276 4.37305,1.17774 -0.0401,1.7793 -1.90387,3.1819 -5.97657,4.5 -2.48829,0.80531 -4.6055,1.46861 -4.70507,1.47461 -0.86688,0.0506 2.09703,-6.07815 3.25,-6.7207 0.59887,-0.33376 1.79594,-0.45992 3.05859,-0.43165 z m 154.04687,6.1875 c 3.00746,0 2.61895,1.68036 -1.26757,5.47852 -4.4074,4.3072 -5.91591,4.34795 -4.78907,0.13086 0.9827,-3.67769 3.06782,-5.60935 6.05664,-5.60938 z M 760,754.24023 c 1.73035,-0.0518 -1.10424,14.5189 -3.49805,17.98047 -1.01672,1.47021 -2.62015,1.96778 -7.02343,2.1836 -7.46327,0.36581 -9.82227,-0.7168 -9.82227,-4.51172 0,-3.33737 1.97609,-4.86756 5.56641,-4.31055 1.86808,0.28981 3.59976,-0.86206 8.22851,-5.47656 3.22441,-3.21447 6.17169,-5.85394 6.54883,-5.86524 z M 584.25,859.56055 c 0.53877,-0.0213 0.92568,0.21186 1.01367,0.74218 0.0668,0.40239 0.23128,4.1622 0.36524,8.35547 7.40778,94.33736 13.89039,195.2371 21.91409,289.4082 0.71865,1.3413 1.32204,2.7675 1.33984,3.1699 -26.02664,0.3732 -49.05985,-5.2388 -74.48242,-5.6093 l -0.0742,-9.754 c 0.2476,-22.932 7.77134,-47.7665 7.84571,-69.125 -10e-6,-7.3946 0.29538,-8.6938 3.67773,-16.1562 3.08313,-16.8576 18.54769,-37.555 21.38867,-53.3203 9.04422,-30.49095 9.65129,-61.49725 10.0332,-89.66017 0.5459,-42.34341 1.26102,-53.14717 3.70899,-56.03321 1.05257,-1.2409 2.37157,-1.98212 3.26953,-2.01757 z m -24.56836,108.28711 c 2.40098,0 2.90406,6.23323 1.17969,14.63281 -1.18256,5.34199 -1.60276,11.34599 -4.03516,16.04492 -1.02034,1.93821 -1.86876,4.93681 -1.88476,6.66411 -0.0309,3.3339 -2.16664,7.3112 -3.08008,5.7343 -0.29881,-0.5159 0.11408,-4.3311 0.91797,-8.4785 1.0812,-5.57801 1.21011,-8.1301 0.49414,-9.80663 -1.6718,-3.91478 0.52434,-17.34738 3.73242,-22.82812 0.63182,-1.07941 1.83522,-1.96289 2.67578,-1.96289 z m -8.69531,47.12114 c 0.22767,-0.025 0.30764,0.5565 0.31445,1.8398 0.008,1.4437 -0.39753,2.8951 -0.90039,3.2266 -1.16745,0.7699 -1.16745,-2.4613 0,-4.3887 0.25995,-0.4292 0.44933,-0.663 0.58594,-0.6777 z m -223.99805,146.2285 c 2.36836,-0.039 3.00516,0.6329 5.10547,3.164 1.5787,1.9026 3.37928,3.459 4,3.459 1.34584,0 8.5918,7.2446 8.5918,8.5899 0,0.9637 4.215,2.1956 4.92383,1.4394 1.01409,-1.082 -1.56289,-6.8567 -4.48438,-10.0488 -3.75604,-4.104 -3.6251,-6.8019 0.29297,-6.0371 3.58483,0.6997 7.40355,3.8619 8.06641,6.6797 0.57152,2.4296 4.29974,4.7761 5.90624,3.7168 1.19408,-0.7874 1.0365,-4.7138 -0.24414,-6.0801 -1.79431,-1.9144 -0.0601,-2.5429 3.69727,-1.3418 1.9473,0.6224 6.01222,1.1308 9.03516,1.1308 3.36401,0 5.87534,0.488 6.47265,1.2559 5.19185,2.5917 18.37992,-0.2019 18.44922,4.9473 0,1.2023 0.51401,2.8026 1.14258,3.5547 0.94492,1.1306 0.90538,1.184 -0.22852,0.3144 -8.24567,-2.2262 -28.45462,24.7648 -27.21875,34.9082 0.21971,1.5972 0.12053,3.0875 -0.2207,3.3125 -19.67059,2.699 -74.38207,-0.8819 -79.83398,-20.2344 -1.53423,-5.7728 -1.55518,-6.5885 -0.25977,-9.8965 2.3119,-5.9032 10.2083,-14.8464 14.56445,-16.4941 2.10412,-0.7959 6.08852,-2.3753 8.85352,-3.5117 2.76501,-1.1364 7.41164,-2.3052 10.32617,-2.5957 1.29249,-0.1288 2.27305,-0.2194 3.0625,-0.2324 z m 94.80274,14.0742 c 1.3708,-0.088 6.98357,1.6358 9.02343,2.8847 0.79208,0.4853 3.13975,3.1873 5.21875,6.004 4.30437,5.8317 7.84058,7.0853 6.8711,2.4375 -0.91159,-4.3704 -1.27854,-5.9959 -1.77539,-7.8848 -0.38458,-1.4622 0.0754,-1.8013 2.51562,-1.8633 1.64157,-0.042 4.8348,0.5245 7.09766,1.2598 24.7353,3.4356 44.54795,4.9692 69.31466,8.3971 6.55297,0.01 10.2556,2.7429 9.71463,0.4427 -0.3107,-1.3207 -0.0926,-2.6334 0.50196,-3.0254 0.62779,-0.414 1.25012,0.127 1.54883,1.3457 0.27475,1.121 0.80197,1.8396 1.17187,1.5957 0.94925,-0.6259 2.28994,2.8296 4.02539,10.3789 1.92737,8.3843 1.88679,9.8128 -0.42773,14.7559 -23.46046,16.8446 -115.69041,27.8634 -142.97657,13.4004 -0.30233,-0.5219 -2.28056,-1.4376 -4.39648,-2.0352 -5.94634,-1.6795 -8.875,-5.1992 -8.875,-10.664 1.16,-11.4929 24.82782,-36.1329 31.53906,-31.8028 1.22334,0.8552 2.86452,1.5547 3.64649,1.5547 1.65983,0 7.74665,3.9379 9.42968,6.1016 1.7967,2.3097 6.51058,4.1208 7.62696,2.9297 1.47699,-1.5759 -1.34918,-6.4139 -6.52344,-11.168 -2.51678,-2.3125 -4.57592,-4.512 -4.57617,-4.8887 -6e-5,-0.093 0.10886,-0.1437 0.30469,-0.1562 z"
       sodipodi:nodetypes="ccssssccccssscccccssssssssssssssssssssscccsssssssssssssssssssssssssssssssscccssssssssssssssssssssssssssssssssssssssssssssscccsssssssssssssssssssssscccccccsssssssssssssssssssccssssccsccssscssccssccsssscscsscccccssscssscccsscccsssssssssssccssccsccsccssssssssssssssssssssssssssssssssssccsssscccccssccsssssssssccsssssssscccssssccssssssssssssscccsscsssssssssssssssssccsccsssssssssssssssssssssssssccsssscsssssssssssssssssccsssssssssssssssssssssssssssssssccssssssssscscssccccsssssssssssssssssssssssssssssssssssssssssssssssssssssscsscssccssssssssssssccssssssssssssssssssssssssccsssssscsssssssssccssssssssssssssccccssssssssssssssssssssssssssccsccssssssssccssscssscsssssssssssssssssssssssssssssssssssssssssssssssssssssssssccccsccsssscccccccssssssssccssccsssssssssssccssssscccssssssssssssssssssscsscccccccsssssssssssssssssssscccccccccssssccsssssscssssscsssssscccsccccccsssssssscssccsssssccsccssssss" />
  </g>
</svg>
