<?xml version="1.0" encoding="UTF-8" standalone="no"?>
<svg
   xmlns:dc="http://purl.org/dc/elements/1.1/"
   xmlns:cc="http://creativecommons.org/ns#"
   xmlns:rdf="http://www.w3.org/1999/02/22-rdf-syntax-ns#"
   xmlns:svg="http://www.w3.org/2000/svg"
   xmlns="http://www.w3.org/2000/svg"
   xmlns:sodipodi="http://sodipodi.sourceforge.net/DTD/sodipodi-0.dtd"
   xmlns:inkscape="http://www.inkscape.org/namespaces/inkscape"
   width="4000mm"
   height="1369.5439mm"
   viewBox="0 0 4000 1369.5439"
   version="1.1"
   id="svg8"
   inkscape:version="1.0.1 (3bc2e813f5, 2020-09-07)"
   sodipodi:docname="raytheonlogo.svg">
  <defs
     id="defs2" />
  <sodipodi:namedview
     id="base"
     pagecolor="#ffffff"
     bordercolor="#666666"
     borderopacity="1.0"
     inkscape:pageopacity="0.0"
     inkscape:pageshadow="2"
     inkscape:zoom="0.091129417"
     inkscape:cx="2812.1313"
     inkscape:cy="2942.1993"
     inkscape:document-units="mm"
     inkscape:current-layer="layer1"
     inkscape:document-rotation="0"
     showgrid="false"
     fit-margin-top="0"
     fit-margin-left="0"
     fit-margin-right="0"
     fit-margin-bottom="0"
     inkscape:window-width="1898"
     inkscape:window-height="1034"
     inkscape:window-x="10"
     inkscape:window-y="34"
     inkscape:window-maximized="0" />
  <metadata
     id="metadata5">
    <rdf:RDF>
      <cc:Work
         rdf:about="">
        <dc:format>image/svg+xml</dc:format>
        <dc:type
           rdf:resource="http://purl.org/dc/dcmitype/StillImage" />
        <dc:title></dc:title>
      </cc:Work>
    </rdf:RDF>
  </metadata>
  <g
     inkscape:label="Layer 1"
     inkscape:groupmode="layer"
     id="layer1"
     transform="translate(0.83339509,-63.214116)">
    <path
       style="fill:#cd1026;fill-opacity:1;stroke-width:5.00076"
       d="m 2248.2599,1429.8425 c -13.4823,-2.0424 -13.7522,-2.7646 -13.7522,-36.8156 v -34.7321 l 20.2683,3.241 c 17.7251,2.8344 22.1095,1.4762 34.9429,-10.8184 25.8346,-24.751 24.754,-31.6164 -29.4872,-187.3342 -27.3047,-78.3869 -51.2545,-146.4598 -53.2218,-151.273 -3.2643,-7.9868 0.756,-8.7515 46.0154,-8.7515 h 49.5921 l 18.803,68.7607 c 32.5272,118.9493 34.0039,123.4262 38.207,115.8365 2.1535,-3.8886 11.1033,-35.1993 19.8885,-69.5796 8.7853,-34.3802 19.2931,-74.3238 23.3508,-88.7634 l 7.3774,-26.2542 h 44.6521 c 24.5586,0 44.652,1.3968 44.652,3.1039 0,8.5893 -111.7836,347.4338 -120.6833,365.8216 -24.8216,51.2849 -62.4756,67.8791 -130.605,57.5583 z M 2006.973,1310.213 c -8.2514,-0.9318 -30.192,-4.1746 -48.7575,-7.206 -33.4011,-5.4538 -33.7546,-5.6772 -33.7117,-21.3098 0.019,-8.6891 1.4346,-27.3759 3.1347,-41.5261 l 3.0912,-25.728 35.6212,12.4698 c 45.0895,15.7844 77.7947,14.0879 96.9092,-5.0266 14.8097,-14.8097 16.9069,-36.6057 5.23,-54.3582 -4.2133,-6.4054 -31.5528,-23.5584 -60.7544,-38.118 -70.413,-35.1068 -88.276,-59.2796 -88.276,-119.457 0,-44.99532 22.5269,-82.37431 61.8884,-102.69161 26.0084,-13.42485 87.4277,-17.47297 137.3497,-9.0526 l 35.7977,6.03815 v 36.22039 c 0,19.92115 -1.3079,37.52944 -2.9082,39.12899 -1.599,1.59898 -11.1636,-0.63317 -21.2532,-4.9629 -10.6399,-4.56542 -33.7488,-8.0622 -55.0198,-8.32587 -32.7936,-0.40636 -37.6886,0.79383 -46.257,11.35109 -12.4002,15.27729 -12.4168,42.86866 -0.038,55.25186 5.2519,5.2519 29.4423,18.8714 53.7567,30.2654 50.4149,23.6253 69.2557,39.2059 81.8693,67.7023 27.8907,63.0107 6.1612,133.7916 -49.8456,162.3641 -17.7823,9.0721 -69.5359,20.8932 -84.996,19.4144 -4.3082,-0.412 -14.5838,-1.512 -22.8352,-2.4438 z m -1346.45564,-7.784 -26.25395,-4.7881 v -37.1242 c 0,-20.4184 1.04141,-37.1244 2.31531,-37.1244 1.27389,0 13.73349,4.5008 27.68926,10.0016 27.50234,10.8404 64.90382,13.0865 80.341,4.8248 10.8782,-5.8218 12.95896,-26.1058 3.42175,-33.3561 -3.438,-2.6135 -17.50263,-8.8086 -31.25465,-13.7665 -53.08135,-19.1378 -75.7427,-41.3362 -83.2566,-81.5556 -13.93838,-74.6081 52.46501,-125.48639 144.91331,-111.03298 53.27584,8.32908 50.86035,6.34108 50.86035,41.86048 0,17.2341 -1.24365,32.5787 -2.76477,34.0994 -1.52149,1.5215 -13.13,-0.3553 -25.79864,-4.1672 -32.39398,-9.7493 -58.10643,-8.767 -72.14801,2.7561 -16.3325,13.4029 -8.89383,24.2357 28.52769,41.5433 75.00255,34.6891 82.89068,42.7912 86.19979,88.5403 2.70636,37.4154 -0.50276,50.3171 -17.55821,70.5862 -21.44301,25.4834 -47.15112,34.5371 -96.47316,33.9754 -23.37843,-0.2665 -54.32066,-2.6391 -68.76047,-5.2725 z m 249.96145,0.8921 c -11.73155,-2.4325 -23.54589,-5.7922 -26.25415,-7.4659 -5.21238,-3.2216 -6.97731,-63.7426 -2.00383,-68.716 1.60654,-1.6066 15.46044,1.3948 30.78743,6.6677 37.05391,12.7484 68.30705,12.5893 81.31004,-0.4139 14.8428,-14.8428 12.2545,-24.6113 -8.75132,-33.0287 -59.51093,-23.8466 -81.2367,-37.6578 -94.29809,-59.9453 -11.36205,-19.3877 -12.8378,-26.6835 -11.05643,-54.6599 2.25294,-35.3825 11.38851,-52.3225 37.98494,-70.4362 23.48182,-15.99226 67.27886,-22.90097 106.1255,-16.74053 52.7585,8.36653 50.0077,5.88453 50.0077,45.11853 0,19.0676 -0.5632,34.6441 -1.2493,34.6143 -0.688,-0.038 -12.2971,-3.4054 -25.7986,-7.5011 -34.8101,-10.5601 -60.80131,-9.6107 -73.08117,2.6691 -7.73485,7.7347 -8.94939,12.2963 -5.15946,19.3776 5.01109,9.3633 38.54723,27.3799 61.85363,33.2294 6.9719,1.7502 21.5273,10.7578 32.3454,20.0177 46.9901,40.2216 38.1235,120.9049 -16.4139,149.3595 -15.6544,8.1676 -30.3312,10.6366 -67.51024,11.3564 -26.12903,0.5065 -57.10584,-1.0698 -68.8374,-3.5029 z m 645.62449,0.6029 c -68.9269,-17.7727 -105.4153,-76.7266 -100.6312,-162.5888 3.8288,-68.721 29.1886,-110.4326 81.0743,-133.3511 46.7762,-20.66172 107.0592,-12.57683 140.3485,18.8224 27.2413,25.6949 38.9606,56.0994 41.5592,107.8209 l 2.1981,43.7566 h -88.125 -88.125 v 11.8275 c 0,14.7591 16.3618,36.0403 35.1987,45.7812 20.0241,10.3549 59.935,9.2157 91.0169,-2.5978 14.4691,-5.4995 27.9955,-10.0001 30.0583,-10.0016 2.0628,0 3.7506,15.6441 3.7506,34.7679 v 34.7701 l -18.7529,5.6331 c -23.9192,7.1851 -108.8646,10.6988 -129.5705,5.3596 z m 78.2939,-191.8002 c -0.019,-20.192 -15.9471,-47.1324 -32.2494,-54.5601 -27.2946,-12.4363 -57.7456,15.5447 -57.7456,53.0617 v 17.751 h 45.0069 45.0068 l -0.019,-16.2526 z m 932.6613,193.7944 c -2.7506,-0.9337 -13.4396,-3.1076 -23.7538,-4.8326 l -18.7527,-3.1366 v -37.279 c 0,-20.5035 0.5633,-37.278 1.2494,-37.2767 0.6879,0 13.0888,4.5021 27.5579,10.0016 46.9764,17.8547 93.976,9.2194 90.2446,-16.5809 -1.168,-8.0703 -11.1155,-14.5519 -41.5408,-27.0642 -73.6408,-30.2849 -99.7507,-80.4304 -72.7939,-139.8047 18.3048,-40.3176 76.1595,-61.96895 137.6181,-51.50146 55.6352,9.47536 50.9518,5.28286 48.6099,43.51296 -1.1435,18.6516 -2.4837,34.3918 -2.9806,34.9786 -0.4971,0.5859 -11.8452,-2.2263 -25.2184,-6.2509 -45.1581,-13.5906 -77.7341,-7.3941 -77.7341,14.7864 0,13.4698 11.5465,22.0012 47.5074,35.1017 39.5146,14.3954 56.0242,26.5835 67.1554,49.5775 18.319,37.8421 10.2628,88.707 -18.1142,114.3686 -17.0303,15.4007 -50.8505,23.9042 -93.4266,23.4905 -22.3453,-0.2173 -42.8779,-1.1586 -45.6283,-2.0908 z m 282.6428,-6.2734 c -9.5716,-4.8091 -22.5111,-16.39 -28.7545,-25.7357 -10.799,-16.1653 -11.3513,-21.5793 -11.3513,-111.267 v -94.2749 h -25.0039 -25.0039 v -32.231 -32.2309 l 23.7538,-1.5234 23.7536,-1.5233 1.4856,-31.16624 1.4856,-31.1662 41.2782,-12.59058 c 22.7029,-6.92477 42.762,-12.59058 44.5757,-12.59058 1.8145,0 3.9481,19.69056 4.7427,43.75678 l 1.444,43.75682 28.7543,1.4988 28.7545,1.5007 v 32.2554 32.2554 h -30.0046 -30.0045 v 74.7325 c 0,71.4612 0.5197,75.3373 11.8795,88.5435 11.0009,12.7894 13.1994,13.4057 29.725,8.334 9.8149,-3.0124 19.0964,-4.226 20.6254,-2.6971 1.5291,1.529 2.7799,15.9626 2.7799,32.0749 0,26.8448 -1.0735,29.7027 -12.8274,34.1718 -21.6485,8.2307 -82.5941,5.9132 -102.0904,-3.882 z m 249.9383,4.4174 c -27.5964,-9.1639 -55.0712,-26.4284 -66.6301,-41.8694 -27.3752,-36.5679 -30.7,-48.0462 -30.795,-106.3122 -0.076,-50.2733 1.1208,-57.4725 13.9673,-83.634 30.5568,-62.2264 93.7562,-89.2186 162.6731,-69.4768 29.5181,8.4555 62.9696,40.2261 73.3295,69.6448 4.5431,12.9013 9.5272,42.0221 11.0753,64.7131 l 2.8149,41.2563 h -88.8432 -88.8434 l 3.1849,15.9244 c 8.9091,44.5463 64.1811,61.9293 124.2807,39.0865 14.4693,-5.4995 27.9955,-10.0001 30.0583,-10.0016 2.0628,0 3.7506,15.5298 3.7506,34.5136 0,34.3928 -0.057,34.5373 -16.2524,40.4379 -19.9791,7.2795 -116.6269,11.4102 -133.7705,5.7174 z m 77.9917,-196.3152 c -4.1747,-26.1078 -10.215,-37.3364 -25.4563,-47.3229 -27.9016,-18.2817 -62.478,8.9286 -62.5182,49.1994 l -0.019,18.7529 h 45.646 45.6461 z m 654.6201,198.4449 c -2.7504,-1.083 -13.4396,-3.3813 -23.7536,-5.1063 l -18.7529,-3.1366 v -37.279 c 0,-20.5035 0.5632,-37.278 1.2512,-37.2767 0.6879,0 13.0886,4.5021 27.5577,10.0016 46.6835,17.7434 94.0391,9.2038 90.2447,-16.274 -1.1341,-7.6114 -11.992,-14.7577 -41.5409,-27.3394 -46.06,-19.6119 -60.1802,-30.9963 -73.0609,-58.9048 -12.433,-26.9385 -11.8064,-55.7206 1.7993,-82.7031 19.9671,-39.5959 75.2691,-59.45976 138.1662,-49.62809 54.556,8.52789 51.9993,6.33399 49.6876,42.63709 -1.1133,17.4908 -3.1539,32.9304 -4.5339,34.3103 -1.3797,1.3798 -13.4507,-0.7843 -26.824,-4.8086 -34.0867,-10.2587 -59.2784,-9.4208 -69.9085,2.3253 -15.0661,16.6481 -5.9682,28.1257 36.149,45.6037 21.196,8.7961 44.5513,20.2455 51.9008,25.4432 31.874,22.5413 38.5966,91.9459 12.2513,126.4862 -21.4549,28.1289 -38.6907,34.6601 -95.6245,36.2353 -27.5042,0.7617 -52.258,0.4971 -55.0084,-0.5859 z M -0.83337619,1100.8737 V 898.34252 H 70.857805 142.54898 l 7.85719,28.75449 c 4.32147,15.81482 18.62013,72.09604 31.77483,125.06909 13.15469,52.9729 25.46603,94.6043 27.35854,92.5141 1.89251,-2.0902 11.83769,-35.3053 22.10043,-73.8111 10.26276,-38.5058 24.87739,-92.51407 32.47701,-120.01848 l 13.81747,-50.00756 70.64812,-1.3873 70.64808,-1.3873 v 202.66824 202.6681 h -44.93459 -44.93458 l -1.32247,-153.7733 -1.32247,-153.77345 -26.59806,92.51405 c -14.62893,50.8829 -32.12903,112.7673 -38.88912,137.521 -6.7601,24.7538 -14.68835,52.4187 -17.61839,61.4773 l -5.32732,16.4705 -32.80206,-1.4686 -32.80205,-1.4686 -9.08667,-32.5049 c -4.99768,-17.8776 -23.2224,-84.2629 -40.49942,-147.5225 l -31.412735,-115.0174 -1.324548,148.7726 -1.324548,148.7726 H 44.099055 -0.83339509 Z M 489.24123,1153.3816 v -150.0229 h 45.00687 45.00686 v 150.0229 150.0229 H 534.2481 489.24123 Z m 655.09997,0 v -150.0229 h 45.0068 45.0069 v 150.0229 150.0229 h -45.0069 -45.0068 z m 160.0244,-67.5102 V 868.33795 h 45.0069 45.0069 v 217.53345 217.5331 h -45.0069 -45.0069 z m 2010.3068,67.5102 v -150.0229 h 42.5065 42.5065 v 14.7073 c 0,18.3913 7.7602,23.8288 14.9185,10.4529 8.6187,-16.104 44.2388,-31.58957 72.6629,-31.58957 29.5632,0 51.9027,10.28097 68.5446,31.54537 l 11.9839,15.3126 6.4625,-12.0753 c 10.0658,-18.8081 42.8735,-34.69989 72.5213,-35.12836 36.8941,-0.533 62.0812,13.88266 77.8952,44.58346 12.2196,23.7228 12.6055,27.6364 14.1399,143.3132 l 1.5782,118.9242 h -47.5588 -47.5588 l -1.5253,-107.9275 c -1.4157,-100.0915 -2.2306,-108.4425 -11.233,-115.0176 -13.8495,-10.1155 -36.1317,-8.7583 -47.8016,2.9116 -9.3664,9.3666 -10.0014,16.6692 -10.0014,115.0175 v 105.016 h -47.5073 -47.5074 v -103.9032 c 0,-115.7383 -2.4797,-126.1318 -30.0932,-126.1318 -17.4196,0 -32.6361,14.8514 -36.8611,35.9767 -1.6802,8.4047 -3.0562,55.5059 -3.0562,104.6698 v 89.3885 h -47.5072 -47.5074 z M 489.24123,910.84446 v -42.50651 h 45.00687 45.00686 v 42.50651 42.50651 H 534.2481 489.24123 Z m 655.09997,0 v -42.50651 h 45.0068 45.0069 v 42.50651 42.50651 h -45.0069 -45.0068 z M 994.3183,725.7608 c 0,-1.4062 11.4254,-32.34786 25.3896,-68.76047 17.5976,-45.8863 24.641,-70.8089 22.9507,-81.20683 -1.9218,-11.82096 -78.93098,-220.01352 -98.03695,-265.04042 -12.29101,-28.96618 -45.31777,-118.28833 -45.31777,-122.56363 0,-3.09987 35.58003,-4.95571 95.01442,-4.95571 77.7204,0 95.0146,1.26255 95.0146,6.94159 0,3.81809 5.3472,25.75895 11.8828,48.75748 6.5354,22.99872 18.2737,65.97056 26.0848,95.49298 7.8112,29.52262 15.935,51.94449 18.053,49.8265 2.118,-2.11799 8.3557,-20.64693 13.8618,-41.17535 5.5059,-20.52861 17.5886,-64.32867 26.8501,-97.3337 l 16.8394,-60.00915 78.2345,-1.37785 78.2348,-1.37785 V 123.09625 63.214116 h 97.5148 97.5149 v 60.009144 60.00915 h 32.5049 32.505 v 54.76974 54.76974 l -31.2549,1.48936 -31.2546,1.48936 -1.3269,143.7719 -1.3268,143.77185 h -97.4382 -97.438 v -148.5225 c 0,-84.63936 -1.8731,-146.47921 -4.3553,-143.7719 -2.3952,2.61281 -14.5502,31.75476 -27.0107,64.7598 -12.4606,33.00503 -38.7988,102.76571 -58.5292,155.0237 -19.7305,52.25786 -38.7629,101.7655 -42.2945,110.01671 -3.5317,8.25121 -13.99,35.818 -23.2408,61.25942 l -16.8198,46.25694 h -96.4028 c -53.0215,0 -96.40271,-1.15104 -96.40271,-2.55592 z M 571.75391,583.909 c -38.24842,-10.04978 -64.83313,-34.31597 -76.82116,-70.12111 -3.13031,-9.34933 -5.65447,-36.35345 -5.60911,-60.0091 0.0756,-35.27744 2.10401,-46.58014 11.32784,-62.86558 21.5069,-37.97266 67.75382,-57.62693 135.7698,-57.70007 22.19185,-0.0189 52.16297,-1.4629 66.60259,-3.19703 l 26.25396,-3.15336 v -37.0968 -37.09662 l -21.25307,1.5385 -21.25325,1.5385 -1.52339,23.75361 -1.52338,23.75361 h -92.80797 -92.80798 l 3.4244,-23.75361 c 6.50253,-45.10325 41.78848,-80.61922 101.56156,-102.22308 35.10129,-12.68678 140.36603,-18.26697 180.84111,-9.58653 61.93852,13.28328 108.51563,49.91759 126.41329,99.42788 7.30297,20.20258 8.57347,44.86794 8.75132,169.90565 l 0.2079,146.2722 H 826.7943 734.28004 v -23.43891 -23.43911 l -13.75202,12.88732 c -25.4813,23.87911 -55.71495,35.53015 -96.26469,37.09738 -20.62822,0.7976 -44.2567,-0.3232 -52.50791,-2.49223 z M 726.77748,435.77227 v -45.00686 l -21.25326,-1.5385 -21.25325,-1.53851 v 48.08236 48.08211 l 21.25325,-1.53851 21.25326,-1.5385 z M 2244.5093,582.66591 c -39.3755,-6.38554 -86.3391,-30.7982 -105.2986,-54.73628 -63.846,-80.61217 -55.0107,-265.86277 15.561,-326.26959 34.3076,-29.36611 64.4016,-35.92894 164.749,-35.92894 79.709,0 90.271,1.04709 118.4346,11.73666 41.4676,15.73959 67.9117,39.44046 86.1769,77.23678 14.3437,29.68118 25.4235,84.77695 25.4235,126.42104 v 17.14088 h -125.019 -125.019 v 47.50721 47.50715 h 22.5034 22.5035 v -27.50398 -27.50422 h 100.0151 c 113.0136,0 106.6038,-2.98231 89.847,41.80411 -20.8144,55.6316 -68.8122,92.15364 -135.2844,102.93903 -37.802,6.13341 -115.7012,5.95707 -154.593,-0.34966 z m 100.0153,-289.41546 v -40.00617 h -22.5035 -22.5034 v 36.6723 c 0,20.16969 1.5007,38.17244 3.3339,40.00617 1.8333,1.83335 11.96,3.33386 22.5033,3.33386 h 19.1697 z m 375.0572,292.11918 c -78.2633,-13.81873 -114.6859,-38.92921 -136.8791,-94.3667 -15.705,-39.23005 -22.0994,-120.19968 -14.0008,-177.28133 6.4642,-45.56103 29.9746,-95.48353 53.3706,-113.32865 34.5571,-26.35791 63.6609,-33.52234 146.4571,-36.05236 137.3616,-4.19762 190.2796,16.44137 223.7931,87.28279 18.7143,39.55897 26.3276,110.70053 18.5077,172.94504 -10.3618,82.47897 -45.7574,132.29583 -107.6913,151.56869 -25.3889,7.9006 -154.3613,14.38764 -183.5573,9.23252 z m 90.0137,-212.10705 v -120.0183 h -20.0032 -20.003 v 120.0183 120.01824 h 20.003 20.0032 z M 9.1681549,323.25502 V 63.215439 H 184.00723 c 164.28451,0 176.50098,0.621827 202.36878,10.300027 86.5467,32.381314 111.83144,157.926694 44.33629,220.141534 l -21.94609,20.22922 24.75852,23.43721 c 16.4709,15.59199 26.58268,30.13329 30.20817,43.44039 2.99725,11.00161 5.46225,61.07174 5.47737,111.26692 l 0.0189,91.26381 H 364.21326 259.19725 v -97.51478 -97.5149 h -22.50387 -22.50343 v 97.5149 97.51478 H 111.67433 9.1587046 Z M 259.20626,220.73936 v -57.5088 H 236.70283 214.1994 v 54.17494 c 0,29.79629 1.50014,55.67526 3.33385,57.5088 1.83354,1.83335 11.96015,3.33386 22.50343,3.33386 h 19.16958 z M 1644.4175,323.25502 V 63.215439 h 97.5148 97.515 v 70.545621 c 0,54.5709 1.4157,69.92228 6.2509,67.79295 74.5505,-32.8302 116.8769,-40.01901 156.3783,-26.55958 31.5937,10.76498 55.2949,29.50636 67.4521,53.33651 9.3543,18.33596 9.9555,29.64225 9.9555,187.23894 v 167.72467 h -97.4382 -97.4383 l -1.3268,-143.77185 -1.3268,-143.7719 h -20.003 -20.0033 l -1.3268,143.7719 -1.3268,143.77185 h -97.4383 -97.4381 z m 1395.213,55.00845 V 173.23215 h 90.1388 90.1387 l 3.0004,15.00229 c 3.5547,17.77329 4.3903,17.92865 25.8981,4.81585 20.9304,-12.76069 66.5255,-24.81884 93.8466,-24.81884 53.86,0 112.8835,38.93885 125.9517,83.09273 4.2177,14.25024 6.092,68.48603 6.092,176.27683 V 583.29455 H 3372.1812 3269.6655 V 437.97059 292.64676 l -18.7527,1.55174 -18.7529,1.55173 -1.3268,143.7719 -1.3269,143.77185 h -94.9376 -94.9379 z"
       id="path849" />
  </g>
</svg>
