<?xml version="1.0" encoding="UTF-8" standalone="no"?>
<svg
   xmlns:dc="http://purl.org/dc/elements/1.1/"
   xmlns:cc="http://creativecommons.org/ns#"
   xmlns:rdf="http://www.w3.org/1999/02/22-rdf-syntax-ns#"
   xmlns:svg="http://www.w3.org/2000/svg"
   xmlns="http://www.w3.org/2000/svg"
   xmlns:sodipodi="http://sodipodi.sourceforge.net/DTD/sodipodi-0.dtd"
   xmlns:inkscape="http://www.inkscape.org/namespaces/inkscape"
   inkscape:version="1.0 (4035a4fb49, 2020-05-01)"
   inkscape:export-ydpi="1544.1899"
   inkscape:export-xdpi="1544.1899"
   inkscape:export-filename="/home/lump/top of the world ma.png"
   sodipodi:docname="topotheworldma.jpg.svg"
   viewBox="0 0 124.33707 194.12758"
   height="194.12758"
   width="124.33707"
   id="svg1088"
   version="1.1">
  <metadata
     id="metadata1094">
    <rdf:RDF>
      <cc:Work
         rdf:about="">
        <dc:format>image/svg+xml</dc:format>
        <dc:type
           rdf:resource="http://purl.org/dc/dcmitype/StillImage" />
        <dc:title></dc:title>
      </cc:Work>
    </rdf:RDF>
  </metadata>
  <defs
     id="defs1092" />
  <sodipodi:namedview
     inkscape:current-layer="layer1"
     inkscape:window-maximized="0"
     inkscape:window-y="34"
     inkscape:window-x="10"
     inkscape:cy="90.641054"
     inkscape:cx="47.806838"
     inkscape:zoom="3.3294604"
     fit-margin-bottom="0"
     fit-margin-right="0"
     fit-margin-left="0"
     fit-margin-top="0"
     showgrid="false"
     id="namedview1090"
     inkscape:window-height="1034"
     inkscape:window-width="1898"
     inkscape:pageshadow="2"
     inkscape:pageopacity="0"
     guidetolerance="10"
     gridtolerance="10"
     objecttolerance="10"
     borderopacity="1"
     bordercolor="#666666"
     pagecolor="#ffffff" />
  <g
     transform="translate(-284.62761,-2.7799588)"
     style="display:none"
     id="g1096"
     inkscape:label="Image"
     inkscape:groupmode="layer" />
  <g
     style="display:inline"
     inkscape:label="Image 2"
     id="layer2"
     inkscape:groupmode="layer">
    <rect
       y="2.7303369"
       x="2.9613173"
       height="188.84581"
       width="117.19566"
       id="rect1317"
       style="fill:#eddb9f;fill-opacity:1;stroke:#d3d300;stroke-width:4.54958;stroke-linecap:square;stroke-opacity:0;paint-order:markers stroke fill" />
    <path
       sodipodi:nodetypes="cssccccccccccccccccccccccccccccccccccscccccccccccccccccccscccccccccccccccccccccccccccccccccccccccccccccccccccccssscccccccccccccc"
       id="path1311"
       d="m 94.62486,123.51482 c 0,0 0.812936,1.72067 1.853136,-2.41708 1.0402,-4.13776 6.298764,-3.27567 6.655694,-4.53475 0.35692,-1.25908 -1.21374,-31.645534 -1.21374,-31.645534 l 1.63773,-4.13946 2.57095,-5.096347 0.47703,-2.071797 -0.0687,-1.870889 -2.37717,-8.371941 -1.06996,-2.959604 -0.0382,-2.650661 -0.32311,-4.683289 -0.37577,0.329963 -0.80223,2.097403 -1.07336,4.916129 -1.480182,2.854333 -0.676204,0.358713 -0.821977,-0.214592 0.593943,-9.044531 -1.360188,-1.781143 -1.585225,-0.696893 0.296214,1.16894 0.301715,4.17413 -3.255284,4.293621 -1.271947,-0.579462 -1.04317,-1.706282 -0.329759,-4.28911 2.748005,-4.557179 3.710772,-3.455888 1.200619,-4.453791 -0.233416,-4.720615 -1.681007,-3.309353 -1.398842,0.131637 0.260874,2.211652 -0.727707,2.700354 -1.40943,2.646684 -1.398866,0.919164 c 0,0 -1.280178,0.130826 -1.431317,-0.281373 -0.151139,-0.412199 -1.137661,-3.41335 -1.137661,-3.41335 l -1.11495,1.487587 -0.575154,7.586585 -1.469661,3.492008 -2.898033,2.228758 -0.919079,-0.44885 -0.219443,-1.341061 1.542627,-7.747829 -5.689137,6.30589 -2.349991,3.304775 -2.330145,0.491777 -0.385501,-2.049237 -0.163348,-4.218615 1.293046,-4.676284 -1.237166,0.438259 -4.583925,0.989016 0.48337,3.530756 -0.757588,2.851398 -2.474283,2.948817 c 0,0 -1.438645,0.907682 -1.754664,0.591664 -0.31602,-0.316018 -1.690965,-3.477457 -1.690965,-3.477457 l 0.510306,-5.376936 -2.741832,3.094135 -0.762814,3.422126 0.832894,3.071029 -1.597818,-0.9926 -2.697403,-3.156222 -1.275667,0.834809 -0.683159,2.497571 -0.934294,2.166091 -1.211345,-0.310675 -0.72598,-2.788604 -0.360365,-2.024462 1.16374,-3.758849 1.166313,-1.580571 -0.84264,-1.573085 -3.78987,-0.02557 -1.698112,3.19804 -1.435401,4.323479 0.641984,4.96748 0.04122,2.758126 -3.526264,1.078798 -1.557217,-3.888639 -0.532397,-1.247315 -1.47026,3.028087 -0.57708,5.147322 0.24732,2.503485 1.30177,3.202817 -0.123661,3.040351 -2.825876,4.177773 -1.921987,0.591233 -2.177362,-0.511205 -0.603114,-2.872586 -0.748972,-3.942995 -1.928604,-3.042583 -1.168703,-0.382501 -0.513191,1.093612 -0.170661,8.876756 -1.427062,1.445356 -1.37036,0.162275 -1.113232,-2.054007 -1.088641,2.745078 -4.476009,4.250301 -0.772106,3.098924 -0.931584,3.781987 -2.853521,0.665792 -1.520737,-1.448159 -0.04815,-3.149828 L 10.583667,85.52776 7.9783004,88.785404 6.0781613,91.173015 3.7411861,95.70107 3.622767,96.856789 c 0,0 -0.5947187,2.934889 -0.4815729,5.652711 0.099331,2.38597 -5.449e-4,1.35815 -0.340854,4.52793 -0.3403092,3.16978 -0.1022474,9.21478 0.7106404,10.50346 0.8128882,1.28869 7.6634175,-0.83967 7.6634175,-0.83967 l 7.235723,0.68407 2.309091,1.54262 1.581917,-1.04911 4.727686,-2.12107 4.901038,-0.80168 5.864848,1.68491 3.553791,1.93952 26.953343,0.91996 8.241917,3.12017 3.021647,3.40229 2.371017,4.11185 8.351345,-1.5567 z"
       style="fill:#f8c11b;fill-opacity:1;stroke:#d3d300;stroke-width:3.65102;stroke-linecap:square;stroke-opacity:0;paint-order:markers stroke fill" />
    <path
       id="path1299"
       d="m 43.040559,101.61318 -0.971619,9.09011 -1.347119,15.30403 2.580665,-1.0146 2.154136,-0.64422 0.17029,1.74538 3.242307,1.75944 7.011428,-5.50524 10.849191,-3.2095 8.191013,2.41335 3.579203,-2.43582 2.690181,-5.52468 4.269644,-0.12163 2.532767,-1.88639 2.439972,-4.61094 -5.71722,-0.54424 -23.778268,-3.02206 -14.032755,-1.58212 z"
       style="fill:#b2572b;fill-opacity:1;stroke:#d3d300;stroke-width:3.65102;stroke-linecap:square;stroke-opacity:0;paint-order:markers stroke fill" />
    <path
       id="path1301"
       d="m 120.15553,88.59909 -20.639367,4.525706 0.222813,3.393526 v 1.010745 l 0.631194,1.240226 0.0724,1.304257 -1.173531,1.76542 -1.16925,0.99522 1.014949,3.44711 0.0076,1.53873 1.473612,2.65028 -0.48981,2.27856 -0.194809,4.31887 2.520839,1.32482 0.99414,2.11689 2.5309,3.0942 3.98441,2.13625 0.39704,0.91961 -1.82815,0.66275 0.16556,0.81682 1.96504,1.18949 1.38096,3.55673 8.3708,1.26341 -0.2494,-43.782884 z"
       style="fill:#b2572b;fill-opacity:1;stroke:#d3d300;stroke-width:3.65102;stroke-linecap:square;stroke-opacity:0;paint-order:markers stroke fill" />
    <path
       id="path1303"
       d="m 105.65526,132.97009 -3.50322,-4.36524 -2.577296,-0.9185 -2.824398,-0.16644 -1.924743,-4.35508 -1.539367,-0.91611 -2.950763,1.84491 -1.647187,-0.57146 0.32652,-1.40342 -2.812965,-2.72694 -1.570999,-1.92378 -4.001517,0.0494 0.569227,0.55225 1.468997,2.67625 0.767207,0.45557 0.478785,3.39404 -4.354292,0.4982 4.701216,11.36044 5.923991,2.102 3.904586,3.09329 4.590473,-5.65449 z"
       style="fill:#b2572b;fill-opacity:1;stroke:#d3d300;stroke-width:3.65102;stroke-linecap:square;stroke-opacity:0;paint-order:markers stroke fill" />
    <path
       id="path1305"
       d="m 97.574602,122.98873 c 0,0 0.551748,1.92387 1.960486,1.75003 1.408742,-0.17384 1.706422,-0.81724 1.706422,-0.81724 0,0 0.52419,-1.1723 0.44888,-1.13174 -0.0753,0.0406 -1.64476,-0.83636 -2.880068,-0.59521 -1.235313,0.24115 -0.11285,-0.0142 -0.11285,-0.0142 l -1.126374,0.0188 z"
       style="fill:#b2572b;fill-opacity:1;stroke:#d3d300;stroke-width:3.65102;stroke-linecap:square;stroke-opacity:0;paint-order:markers stroke fill" />
    <path
       id="path1307"
       d="m 96.004507,118.83838 c -0.198552,-0.0395 -2.124617,-2.26408 -2.124617,-2.26408 l -0.88582,-1.2528 -3.092027,-0.1219 0.280409,1.97791 1.434113,1.78265 z"
       style="fill:#b2572b;fill-opacity:1;stroke:#d3d300;stroke-width:3.65102;stroke-linecap:square;stroke-opacity:0;paint-order:markers stroke fill" />
    <path
       id="path1309"
       d="m 97.838674,113.76736 c 0,0 1.484541,-3.20753 0.03058,-3.18122 -1.453962,0.0263 -2.914316,0.91009 -2.914316,0.91009 l 0.708154,2.57729 z"
       style="fill:#b2572b;fill-opacity:1;stroke:#d3d300;stroke-width:3.65102;stroke-linecap:square;stroke-opacity:0;paint-order:markers stroke fill" />
    <path
       id="path1313"
       d="m 31.843256,98.01104 1.31457,3.04823 9.493989,0.38916 18.999698,2.19384 28.473815,3.54461 0.684649,-0.76786 2.727822,-1.15023 1.207168,-3.53298 L 93.47386,100.48765 77.051294,98.106624 44.806351,94.900889 33.4214,94.037731 32.36842,95.337632 Z"
       style="fill:#ddcab3;fill-opacity:1;stroke:#d3d300;stroke-width:3.65102;stroke-linecap:square;stroke-opacity:0;paint-order:markers stroke fill" />
    <path
       id="path1315"
       d="m 120.13735,81.025596 -20.592869,5.341832 0.07298,5.005309 -0.921586,0.955717 0.648678,0.979159 20.956167,-4.891431 z"
       style="fill:#ddcab3;fill-opacity:1;stroke:#d3d300;stroke-width:3.65102;stroke-linecap:square;stroke-opacity:0;paint-order:markers stroke fill" />
    <path
       id="path1319"
       d="m 57.126485,53.911514 0.714664,-8.317428 7.744402,-0.179619 16.116632,-4.032099 6.725303,-6.330635 2.769179,-5.748587 0.380345,-6.370551 -0.986755,-6.273616 -2.181093,-5.194106 -5.3903,-6.001617 -6.52542,-2.6806921 -7.617357,0.080353 -40.039412,0.098253 -2.291949,1.7234589 -6.021172,2.2785727 -5.886561,8.4213795 -0.570389,7.170863 1.812344,8.313654 4.800862,5.28926 9.158613,5.331444 10.926616,2.623021 10.226944,1.272881 6.091884,8.661233 z"
       style="fill:#f1dcc8;fill-opacity:1;stroke:#d3d300;stroke-width:3.65102;stroke-linecap:square;stroke-opacity:0;paint-order:markers stroke fill" />
    <path
       id="path1321"
       d="m 99.700048,2.4776312 0.126504,13.2823988 1.642378,-0.818258 1.97883,0.978641 -0.29564,-1.383154 3.03742,-1.526384 1.75888,0.08652 2.01539,1.012321 1.88705,1.906697 1.37946,0.573704 1.4348,-1.903606 1.45023,0.140541 0.75361,0.338928 1.82096,2.458136 1.77061,-0.65494 -0.15383,-14.6492782 z"
       style="fill:#753322;fill-opacity:1;stroke:#d3d300;stroke-width:3.65102;stroke-linecap:square;stroke-opacity:0;paint-order:markers stroke fill" />
    <path
       id="path1323"
       d="m 91.112456,43.05536 3.350884,-12.354041 1.572966,-7.80309 2.084052,0.599696 2.214202,-0.659436 3.5419,-1.613143 2.69891,-0.933672 2.05039,2.591602 3.55025,0.135771 0.86857,0.84912 1.61059,3.605744 0.70512,0.401295 1.81511,-1.230772 2.87413,-0.357355 0.19269,11.164589 -15.10956,-3.108412 -3.7312,17.958461 18.83929,3.537319 -0.006,25.344362 -18.40689,4.643087 0.22027,-1.421056 4.37756,-9.754716 5e-4,-2.539672 -1.9737,-7.768831 -1.55133,-5.043335 0.005,-4.640858 -0.48004,-1.399682 -1.01752,1.849862 -0.68364,4.81153 -1.795657,3.201942 -0.925209,0.609596 c 0,0 -0.370518,-1.037293 -0.501238,-1.422574 -0.13072,-0.38528 0.0536,-5.440341 0.0536,-5.440341 l 0.371777,-1.710742 -0.977906,-2.371208 -1.953432,-0.820673 0.867151,3.894846 -0.564159,2.274364 c 0,0 -2.79043,3.555189 -3.04499,3.47951 -0.254559,-0.07568 -1.402762,-1.337524 -1.402762,-1.337524 l -0.856407,-3.119827 0.856719,-4.217044 4.806881,-5.1441 1.777499,-6.149755 -0.348478,-3.026894 -0.998347,-3.522189 -1.194163,-0.436896 -0.359734,1.090928 c 0,0 -0.533106,3.407099 -0.732626,3.737339 -0.19952,0.33024 -1.309383,2.326265 -1.363906,2.435573 -0.05452,0.109308 -0.791351,0.780453 -0.791351,0.780453 z"
       style="fill:#753322;fill-opacity:1;stroke:#d3d300;stroke-width:3.65102;stroke-linecap:square;stroke-opacity:0;paint-order:markers stroke fill" />
    <path
       id="path1325"
       d="m 120.47575,37.6231 -15.31237,-3.420421 -4.13573,18.114185 19.49327,4.234002 z"
       style="fill:#efe3c7;fill-opacity:1;stroke:#d3d300;stroke-width:3.65102;stroke-linecap:square;stroke-opacity:0;paint-order:markers stroke fill" />
    <path
       id="path1327"
       d="m 93.562131,97.530688 3.507843,-0.77473 -1.267055,-3.096169 -3.899892,-1.010742 -0.336205,2.453241 z"
       style="fill:#b2572b;fill-opacity:1;stroke:#d3d300;stroke-width:3.65102;stroke-linecap:square;stroke-opacity:0;paint-order:markers stroke fill" />
    <path
       id="path1329"
       d="m 89.148671,90.244501 0.710014,-2.626013 -3.080402,-1.065356 -2.474374,2.747752 3.239378,1.489699 z"
       style="fill:#b2572b;fill-opacity:1;stroke:#d3d300;stroke-width:3.65102;stroke-linecap:square;stroke-opacity:0;paint-order:markers stroke fill" />
    <path
       id="path1331"
       d="m 111.07525,20.09778 0.6013,-1.619977 -2.75862,0.48662 0.44357,1.267743 z"
       style="fill:#753322;fill-opacity:1;stroke:#d3d300;stroke-width:3.65102;stroke-linecap:square;stroke-opacity:0;paint-order:markers stroke fill" />
    <path
       id="path1333"
       d="m 114.75919,20.195181 1.48307,1.121377 2.15228,-1.688179 -3.1643,0.10521 z"
       style="fill:#753322;fill-opacity:1;stroke:#d3d300;stroke-width:3.65102;stroke-linecap:square;stroke-opacity:0;paint-order:markers stroke fill" />
    <path
       id="path1335"
       d="m 116.59532,25.036157 0.31647,-1.303896 -1.27133,-0.23734 -0.30207,0.884896 z"
       style="fill:#753322;fill-opacity:1;stroke:#d3d300;stroke-width:3.65102;stroke-linecap:square;stroke-opacity:0;paint-order:markers stroke fill" />
    <path
       id="path1337"
       d="m 34.182954,69.474729 c 0,0 0.270261,-0.01357 0.443604,-2.399021 0.173342,-2.385451 0.562202,-3.298117 0.116345,-4.142898 -0.445857,-0.844781 -2.883911,-6.724689 -2.883911,-6.724689 l -1.190061,3.117121 0.311567,4.963592 2.836784,3.544029 0.429489,0.866238 z"
       style="fill:#f8a12b;fill-opacity:1;stroke:#d3d300;stroke-width:3.65102;stroke-linecap:square;stroke-opacity:0;paint-order:markers stroke fill" />
  </g>
  <g
     transform="translate(-284.62761,-2.7799588)"
     style="display:inline;opacity:1"
     inkscape:label="Image 1"
     id="layer1"
     inkscape:groupmode="layer">
    <path
       sodipodi:nodetypes="cssssssscccssssssssssccssssssssscc"
       id="path1101"
       d="m 339.60169,90.667987 c 0,0 -0.42314,-0.591404 0.32624,-1.361734 0.74939,-0.77033 1.95094,-1.125799 2.41699,-1.366972 1.31138,-0.678615 0.16062,-2.849283 -0.0762,-3.684923 -0.24219,-0.85464 0.30688,-2.476882 0.6743,-3.494255 0.3674,-1.017374 0.20495,-1.350631 -0.8643,-1.656674 -1.06926,-0.306043 -5.00575,-4.367821 -4.18281,-5.604172 0.82293,-1.236351 3.66863,0.03369 3.99531,1.622683 0.32668,1.588994 2.11279,1.549264 2.11279,1.549264 0,0 -2.0245,-2.583224 -1.20336,-3.335402 0.82088,-0.752178 1.3146,-1.588538 1.3146,-1.588538 0,0 -3.30351,-6.510632 -2.11824,-7.62229 1.18527,-1.111658 3.21157,1.344425 3.39601,2.025823 0.18444,0.681397 -0.20017,3.342105 0.35794,3.388539 0.55811,0.04643 1.03189,-0.542255 1.86793,-0.518474 0.83604,0.02378 1.13877,0.711634 1.6325,0.468573 0.49372,-0.243062 0.39259,-3.173778 1.22789,-3.876454 0.8353,-0.702676 2.05922,-3.713093 3.36297,-2.147755 1.30376,1.565338 -0.73184,5.085069 -1.37133,5.387665 -0.63949,0.302596 -1.89081,1.158062 -1.66498,1.713871 0.22584,0.555809 1.71557,1.634391 1.92698,2.785128 0.2114,1.150738 -1.37641,2.116286 -0.93026,2.769543 1.55201,-0.481508 2.73299,-3.38925 4.58508,-3.822919 1.097,-0.15478 2.27915,1.400726 1.4981,2.584469 -0.78104,1.183744 -3.75214,3.921005 -4.33106,3.95734 -0.57892,0.03633 -1.3307,0.944292 -0.95818,1.646201 0.37253,0.701909 1.2028,1.76463 0.90508,3.185393 -0.33596,1.603243 0.032,2.879683 0.15736,3.289195 0.24483,0.799912 4.29311,0.141553 3.78339,1.514726 -0.50973,1.373172 -4.91815,3.051022 -5.83371,2.552611 -0.91555,-0.498412 -2.12203,-4.166865 -3.06581,-4.275912 -0.94378,-0.109048 -1.4784,4.0793 -2.42442,4.293596 -0.94601,0.214295 -5.46495,-0.03778 -6.06293,-0.474219 z"
       style="fill:#000000;fill-opacity:1;stroke:#d3d300;stroke-width:3.65102;stroke-linecap:square;stroke-opacity:0;paint-order:markers stroke fill" />
    <path
       id="path1103"
       d="m 320.42258,14.395656 c -0.012,0.751444 0.59574,0.5693 1.5079,0.584074 0.91216,0.01477 0.72854,0.06493 0.76641,0.255699 0.0379,0.190772 -0.066,4.910762 0.1779,5.125436 0.24386,0.214674 1.12447,0.363963 1.25131,0.11965 0.12684,-0.244313 -0.0683,-5.10566 0.0141,-5.324055 0.0824,-0.218395 1.67004,0.09169 1.81646,-0.0294 0.14641,-0.121084 0.16292,-0.958489 0.0744,-1.068499 -0.0885,-0.110011 -5.49284,-0.270948 -5.57175,-0.175208 -0.0789,0.09574 -0.0368,0.512301 -0.0368,0.512301 z"
       style="fill:#000000;fill-opacity:1;stroke:#d3d300;stroke-width:3.65102;stroke-linecap:square;stroke-opacity:0;paint-order:markers stroke fill" />
    <path
       d="m 329.32812,14.322266 c -1.74357,0.0016 -2.84979,1.223956 -2.84179,3.328125 -0.0247,1.872737 1.19901,3.149285 3.33008,3.109375 2.13107,-0.03991 2.8738,-1.646685 2.8125,-3.708985 -0.0613,-2.062301 -1.5572,-2.730115 -3.30079,-2.728515 z m 0.60157,2.183593 c 0.49648,0.01977 0.88599,0.226535 0.89062,0.929688 0.006,0.937535 -0.16766,1.094635 -1.02343,1.361328 -0.85578,0.266692 -1.0719,-0.599348 -1.30079,-1.1875 -0.0315,-0.806555 0.19493,-0.979398 0.91211,-1.072266 0.1793,-0.02322 0.35599,-0.03784 0.52149,-0.03125 z"
       style="fill:#000000;fill-opacity:1;stroke:#d3d300;stroke-width:3.65102;stroke-linecap:square;stroke-opacity:0;paint-order:markers stroke fill"
       id="path1105" />
    <path
       d="m 335.57617,14.115234 c -0.77168,0.01132 -1.45473,0.133544 -1.69336,0.15625 -0.63633,0.06055 -0.32558,6.894882 0.58399,6.919922 0.84784,-0.0994 0.49938,-0.713335 0.59961,-1.779297 0.10022,-1.065963 3.62986,-0.996127 3.44336,-3.478515 -0.11657,-1.551493 -1.64747,-1.837229 -2.9336,-1.81836 z m 0.13672,1.169922 c 0.57119,-0.0066 1.57255,0.06905 1.5957,0.589844 0.0309,0.694394 -1.48731,1.457031 -1.8164,1.457031 -0.32909,0 -0.28321,-0.789062 -0.28321,-0.789062 -0.10881,-0.721757 -0.041,-1.208246 0.12891,-1.236328 0.0425,-0.007 0.18461,-0.01927 0.375,-0.02149 z"
       style="fill:#000000;fill-opacity:1;stroke:#d3d300;stroke-width:3.65102;stroke-linecap:square;stroke-opacity:0;paint-order:markers stroke fill"
       id="path1107" />
    <path
       d="m 346.23633,14.962891 c -2.46173,0.03437 -3.17446,0.766237 -3.13086,3.191406 0.17785,1.830563 1.97456,2.736678 3.35156,2.632812 1.377,-0.103865 2.60551,-0.735393 2.69141,-2.646484 0.0859,-1.911092 -0.45038,-3.212104 -2.91211,-3.177734 z m 0.23828,1.58789 c 0.43777,0.03875 0.98088,0.265944 1.08594,1.234375 0.14007,1.291245 -0.8227,1.267115 -1.20703,1.341797 -0.38433,0.07468 -1.36524,-0.197292 -1.34961,-1.066406 -0.0563,-1.365962 0.67875,-1.471709 1.08789,-1.505859 0.10228,-0.0085 0.23689,-0.01682 0.38281,-0.0039 z"
       style="fill:#000000;fill-opacity:1;stroke:#d3d300;stroke-width:3.65102;stroke-linecap:square;stroke-opacity:0;paint-order:markers stroke fill"
       id="path1109" />
    <path
       id="path1111"
       d="m 351.42823,12.978301 c 1.05284,0.475721 -0.72167,2.621782 -1.25462,2.592216 -0.53294,-0.02956 -0.43108,-3.226079 1.25462,-2.592216 z"
       style="fill:#000000;fill-opacity:1;stroke:#d3d300;stroke-width:3.65102;stroke-linecap:square;stroke-opacity:0;paint-order:markers stroke fill" />
    <path
       id="path1113"
       d="m 309.03805,22.495004 c -3.2e-4,-1.18081 0.6106,-1.035416 3.32067,-1.086117 2.71007,-0.0507 2.73053,0.107164 2.69357,1.095914 -0.037,0.98875 -1.68253,0.517436 -1.87381,0.745669 -0.19128,0.228234 0.32066,5.237164 0.003,5.686461 -0.3181,0.449297 -1.0313,0.558564 -1.39998,0.264985 -0.36867,-0.293579 -0.17279,-5.729548 -0.45405,-5.940712 -0.28126,-0.211165 -1.70839,0.199754 -2.02907,-0.01047 -0.32068,-0.210228 -0.2599,-0.755726 -0.2599,-0.755726 z"
       style="fill:#000000;fill-opacity:1;stroke:#d3d300;stroke-width:3.65102;stroke-linecap:square;stroke-opacity:0;paint-order:markers stroke fill" />
    <path
       id="path1115"
       d="m 316.33815,21.914472 c -0.36564,0.554608 -0.55495,6.853421 -0.24987,7.242001 0.30508,0.38858 1.13984,0.435235 1.29592,0.166911 0.15608,-0.268325 -0.094,-1.880342 -0.0392,-2.020935 0.0548,-0.140593 1.90684,-0.207373 1.97995,-0.0535 0.0731,0.153875 -0.0591,1.905039 0.072,2.034803 0.13112,0.129764 1.56388,0.288719 1.58731,0.07926 0.0234,-0.209463 0.38955,-6.832507 0.0737,-7.273689 -0.31584,-0.441182 -1.53707,-0.320998 -1.69303,0.0729 -0.15597,0.393897 0.0943,2.977629 -0.11249,3.102778 -0.20675,0.125149 -1.56859,0.204117 -1.67683,-0.02436 -0.10824,-0.22848 0.24506,-3.291567 0.24506,-3.291567 0,0 -1.25624,-0.195186 -1.48252,-0.0346 z"
       style="fill:#000000;fill-opacity:1;stroke:#d3d300;stroke-width:3.65102;stroke-linecap:square;stroke-opacity:0;paint-order:markers stroke fill" />
    <path
       id="path1117"
       d="m 322.55145,21.890546 c -0.3947,0.294901 -0.43745,7.336537 -0.25684,7.539333 0.18062,0.202797 3.73344,0.487508 4.00419,0.156688 0.27074,-0.33082 0.34866,-1.72922 0.15627,-1.805832 -0.19239,-0.07661 -2.57707,0.230519 -2.69425,0.06861 -0.11718,-0.161906 -0.16003,-1.304432 -0.0476,-1.419042 0.11242,-0.114609 2.08378,0.138379 2.25541,0.0071 0.17164,-0.131246 0.17513,-0.991986 0.0656,-1.210863 -0.10953,-0.218878 -2.28622,0.08692 -2.28622,-0.07732 0,-0.164239 -0.14341,-1.293963 0.15189,-1.327667 0.29529,-0.0337 2.57194,0.117525 2.64224,-0.127233 0.0703,-0.244757 0.13423,-1.852413 -0.11601,-1.864104 -0.25023,-0.01169 -3.76592,-0.08063 -3.87466,0.06029 z"
       style="fill:#000000;fill-opacity:1;stroke:#d3d300;stroke-width:3.65102;stroke-linecap:square;stroke-opacity:0;paint-order:markers stroke fill" />
    <path
       id="path1119"
       d="m 332.26637,21.872798 c -1.13576,0.302709 -0.81067,1.030785 0.13361,3.471399 0.94428,2.440614 0.61912,3.087478 1.32438,2.974828 0.70527,-0.11265 0.85583,0.495888 0.93395,-0.195006 0.0781,-0.690894 0.6162,-2.204746 0.79552,-2.214477 0.17931,-0.0097 0.18949,2.742807 0.75551,2.891819 0.56602,0.149013 1.04595,0.672242 1.26713,0.224124 0.22118,-0.448118 2.55682,-5.986823 1.87794,-6.026743 -0.67888,-0.03992 -1.79795,-0.435011 -1.65597,-0.07559 0.14198,0.359422 -0.53419,2.828112 -0.64028,2.687663 -0.10609,-0.140448 -0.28474,-2.923151 -0.81661,-2.957268 -0.53188,-0.03412 -1.37031,-0.412454 -1.42379,-0.0629 -0.0535,0.349554 -0.6428,2.5269 -0.81482,2.19064 -0.17202,-0.336259 -0.19672,-2.814628 -0.79779,-2.904566 -0.60108,-0.08994 -0.93878,-0.0039 -0.93878,-0.0039 z"
       style="fill:#000000;fill-opacity:1;stroke:#d3d300;stroke-width:3.65102;stroke-linecap:square;stroke-opacity:0;paint-order:markers stroke fill" />
    <path
       d="m 341.43359,22.994141 c -1.47889,-0.03999 -3.01491,1.026257 -3.07421,3.083984 -0.0316,2.323156 1.11616,3.359487 3.13281,3.564453 2.01666,0.204966 2.82032,-1.104801 2.96875,-3.527344 0.14843,-2.422543 -1.54847,-3.081103 -3.02735,-3.121093 z m -0.0137,2.072265 c 0.52671,0 1.28501,0.278215 1.28906,1.146485 0.004,0.868271 -0.27474,1.49276 -1.23046,1.529297 -0.95573,0.03654 -1.23856,-0.479385 -1.32227,-1.210938 0.094,-1.279795 0.73695,-1.464844 1.26367,-1.464844 z"
       style="fill:#000000;fill-opacity:1;stroke:#d3d300;stroke-width:3.65102;stroke-linecap:square;stroke-opacity:0;paint-order:markers stroke fill"
       id="path1121" />
    <path
       d="m 347.04883,22.017578 c -0.68429,0.01325 -1.3498,0.248619 -1.83008,0.789063 -1.53689,1.729418 -0.6752,6.522237 0.32031,6.523437 1.28263,0.585441 1,-1.344895 1.47656,-1.236328 0.47657,0.108567 1.62718,1.627181 2.14844,0.896484 0.52125,-0.730696 -1.04211,-1.645772 -1.03711,-2.05664 0.004,-0.410869 1.74299,-0.845795 1.90625,-2.654297 0.11224,-1.243345 -1.47895,-2.290868 -2.98437,-2.261719 z m -0.1211,1.626953 c 0.57336,0.02705 1.51603,0.263552 1.57227,0.554688 0.075,0.388182 -1.17116,1.891632 -2.10938,1.378906 -0.39242,-1.257599 -0.11546,-1.71107 0.13282,-1.884766 0.0621,-0.04342 0.21318,-0.05784 0.40429,-0.04883 z"
       style="fill:#000000;fill-opacity:1;stroke:#d3d300;stroke-width:3.65102;stroke-linecap:square;stroke-opacity:0;paint-order:markers stroke fill"
       id="path1123" />
    <path
       id="path1125"
       d="m 351.34752,21.948396 c -0.95386,0.03436 -0.72741,1.130395 -0.61244,2.969366 0.11498,1.838971 -0.043,3.921117 0.15368,4.181412 0.19665,0.260296 4.16058,0.596699 4.15728,0.133813 -0.003,-0.462885 0.37607,-1.591829 -0.17094,-1.529336 -0.547,0.06249 -2.4332,0.624194 -2.46287,0.0014 -0.0297,-0.622778 0.16869,-5.728723 0.0201,-5.744345 -0.14858,-0.01562 -1.08482,-0.01233 -1.08482,-0.01233 z"
       style="fill:#000000;fill-opacity:1;stroke:#d3d300;stroke-width:3.65102;stroke-linecap:square;stroke-opacity:0;paint-order:markers stroke fill" />
    <path
       d="m 356.72266,22.253906 c -0.3585,-0.01649 -0.59549,0.03107 -0.60157,0.07422 -0.0243,0.172603 0.35347,5.510087 0.50782,6.947266 0.0862,0.271902 3.77585,0.639712 3.51757,-3.355469 -0.19371,-2.996385 -2.34833,-3.616531 -3.42382,-3.666016 z m 0.75586,1.810547 c 0.56708,-0.09152 1.29729,0.848407 1.41992,1.859375 0.12263,1.010968 -1.00187,1.943581 -1.13672,1.863281 -0.13484,-0.0803 -0.6101,-3.444661 -0.2832,-3.722656 z"
       style="fill:#000000;fill-opacity:1;stroke:#d3d300;stroke-width:3.65102;stroke-linecap:square;stroke-opacity:0;paint-order:markers stroke fill"
       id="path1127" />
    <path
       id="path1129"
       d="m 363.45062,27.314986 c 1.0957,1.138993 -1.58558,2.481689 -1.94559,2.162364 -0.36001,-0.319324 1.05513,-2.959698 1.94559,-2.162364 z"
       style="fill:#000000;fill-opacity:1;stroke:#d3d300;stroke-width:3.65102;stroke-linecap:square;stroke-opacity:0;paint-order:markers stroke fill" />
    <path
       id="path1131"
       d="m 327.19508,36.598441 c -1.14191,-0.402543 -0.98624,-0.352892 -0.46826,-1.944143 0.51798,-1.591251 1.32105,-4.464313 1.22077,-4.770419 -0.10028,-0.306106 1.59388,-0.562777 1.65967,-0.175909 0.0658,0.386867 0.43556,3.610361 0.7052,3.564219 0.26964,-0.04614 0.25341,-3.455203 0.89064,-3.490402 0.63723,-0.0352 1.47239,-0.489861 1.72734,0.11587 0.25496,0.605731 1.27792,7.177752 0.98295,7.187005 -0.29497,0.0093 -1.82863,0.538617 -1.88059,0.23179 -0.052,-0.306827 -0.29453,-2.94714 -0.5499,-2.438222 -0.25538,0.508917 -0.43367,2.05311 -0.67316,2.165019 -0.2395,0.111909 -1.03321,-0.155254 -1.03321,-0.155254 0,0 -0.64176,-2.889734 -0.74703,-1.977073 -0.10526,0.912661 -0.24002,1.886192 -0.75282,1.865986 -0.51279,-0.0202 -1.0816,-0.178467 -1.0816,-0.178467 z"
       style="fill:#000000;fill-opacity:1;stroke:#d3d300;stroke-width:3.65102;stroke-linecap:square;stroke-opacity:0;paint-order:markers stroke fill" />
    <path
       d="m 338.09961,31.082031 c -0.35494,-0.01364 -0.73448,0.03516 -0.875,0.03516 -0.28104,0 -2.08176,5.690305 -2.16016,5.964843 -0.0784,0.274538 -0.23549,0.494205 0.90039,0.675781 0,0 0.52267,0.14564 0.75977,0.22461 0.23708,0.07897 0.13867,-0.878778 0.13867,-1.210938 0,-0.33216 1.30402,0.05816 1.54492,0.08008 0.24089,0.02192 0.14956,0.818783 0.34961,1.314454 0.20005,0.49567 1.17619,0.08047 1.61524,-0.115235 0.43904,-0.195702 -1.45683,-6.145781 -1.54493,-6.634765 -0.0441,-0.244493 -0.37357,-0.320341 -0.72851,-0.333985 z m -0.0508,2.324219 c 0.24855,0.09496 0.26582,1.46718 0.33398,1.892578 0.0779,0.486168 0.004,0.132336 -1.13086,-0.0918 0,10e-7 0.30973,-1.395662 0.67578,-1.755859 0.0458,-0.04503 0.0856,-0.05849 0.1211,-0.04492 z"
       style="fill:#000000;fill-opacity:1;stroke:#d3d300;stroke-width:3.65102;stroke-linecap:square;stroke-opacity:0;paint-order:markers stroke fill"
       id="path1133" />
    <path
       id="path1156"
       d="m 347.95439,30.253193 c 1.71417,0.941928 -0.18531,2.911479 -0.64946,3.686171 -0.46415,0.774691 -0.82254,1.447537 -1.29137,1.298896 -0.46884,-0.148642 -0.40728,-5.8752 1.94083,-4.985067 z"
       style="fill:#000000;fill-opacity:1;stroke:#d3d300;stroke-width:3.65102;stroke-linecap:square;stroke-opacity:0;paint-order:markers stroke fill" />
    <path
       id="path1158"
       d="m 344.74834,37.212962 c -0.31994,1.282826 1.32272,1.418726 1.72023,0.395131 0.39752,-1.023595 -1.35095,-1.663225 -1.72023,-0.395131 z"
       style="fill:#000000;fill-opacity:1;stroke:#d3d300;stroke-width:3.65102;stroke-linecap:square;stroke-opacity:0;paint-order:markers stroke fill" />
    <path
       id="path1160"
       d="m 341.79031,55.423789 0.20507,-7.340167 c 0,0 35.06413,0.577722 33.7523,-21.647546 C 374.43585,4.2108082 355.70936,5.9068098 355.70936,5.9068098 l 7.36809,0.024597 c 0,0 15.47798,3.3626419 13.94812,23.9097312 -1.52986,20.547089 -34.10218,19.095693 -34.10218,19.095693 z"
       style="fill:#000000;fill-opacity:1;stroke:#d3d300;stroke-width:3.65102;stroke-linecap:square;stroke-opacity:0;paint-order:markers stroke fill" />
    <path
       sodipodi:nodetypes="ccsccssc"
       id="path1162"
       d="m 340.527,55.247743 -4.75453,-7.666312 c 0,0 -36.59488,-0.333366 -36.416,-22.785753 C 299.53534,2.343291 327.1015,5.7281455 327.1015,5.7281455 l -14.10479,0.060165 c 0,0 -15.36116,3.2241165 -15.10967,19.4126045 0.25149,16.188488 19.92725,22.71358 37.32184,23.573015 0.36234,0.0179 5.31812,6.473813 5.31812,6.473813 z"
       style="fill:#000000;fill-opacity:1;stroke:#d3d300;stroke-width:3.65102;stroke-linecap:square;stroke-opacity:0;paint-order:markers stroke fill" />
    <path
       sodipodi:nodetypes="csccsssccsscssssscssscccscsssscsscsssscsc"
       id="path1166"
       d="m 288.8049,97.803901 c 0,0 0.33221,-2.281369 2.06238,-4.655906 1.77055,-2.429944 4.15517,-4.089663 4.53485,-6.191066 0.3047,4.970974 -0.29608,5.815195 1.81088,6.502122 1.48764,0.361481 2.94604,-0.617909 2.94604,-1.928222 0,-1.310312 0.75915,-4.681084 2.14642,-6.309628 1.38728,-1.628544 2.79325,-2.51615 3.13984,-3.361108 0.48082,-1.172202 1.00422,-3.90306 -0.22197,-4.152107 1.69012,-0.06129 1.17137,0.23547 2.5039,2.03651 1.57731,2.494361 1.45121,0.295829 1.7932,0.419509 0.34198,0.12368 0.95744,0.261369 1.2349,-1.656694 0.27746,-1.918063 -0.62863,-6.525203 1.3267,-10.527497 1.71251,5.752156 3.79828,2.695776 3.63586,7.379573 -0.10129,2.921115 0.63956,4.80942 2.21679,4.893863 1.57723,0.08444 4.80531,-2.720221 5.03451,-5.61541 0.2292,-2.895188 -2.46644,-4.46952 -2.10753,-9.097671 0.37222,-4.799727 1.20405,-5.771204 2.71344,-6.726722 1.24214,-0.786335 2.17355,0.01753 2.17355,0.01753 0,0 -1.34983,-0.475355 -1.31579,0.499289 0.0771,2.207058 0.81803,4.730233 2.85512,3.993843 2.08924,-0.755244 1.90382,-2.216121 1.47074,-3.424863 -1.8174,-5.072407 2.55663,-12.01722 2.55663,-12.01722 l 1.29082,0.03563 c 0,0 -3.00789,4.012699 -2.9385,8.49389 0.1637,4.440934 4.06669,6.656158 -2.78461,8.606373 -3.96722,1.129262 -3.22125,-5.070852 -3.22125,-5.070852 0,0 -2.40522,2.959826 -1.40162,7.80425 0.92677,4.473513 1.45507,4.538882 1.96017,6.197083 0.49398,1.621694 -3.60235,9.239176 -7.55069,7.33512 -2.918,-1.407184 -1.33763,-6.621538 -2.31776,-7.884154 -1.4781,-1.904115 -2.04647,0.519449 -2.23812,-2.640437 -0.95758,0.320213 -0.67225,6.187253 -0.60553,6.757781 0.3629,3.102783 -1.22124,4.065938 -1.89818,4.455244 -0.73884,0.424898 -1.52084,0.932559 -2.49879,-2.135424 -0.219,0.841881 0.5984,1.88081 -1.78567,3.681465 -2.38408,1.800655 -3.56685,3.642155 -3.83366,7.247074 -0.26681,3.604919 -1.32265,3.902013 -2.89554,4.142364 -1.41957,0.216922 -4.06626,-1.165535 -3.88163,-2.117787 0.39176,-2.020563 0.39086,-4.177028 0.39086,-4.177028 0,3e-6 -0.88264,2.833699 -1.89917,3.828276 -2.00414,1.960867 -3.64981,3.73275 -4.40159,5.363007 z"
       style="fill:#000000;fill-opacity:1;stroke:#d3d300;stroke-width:3.65102;stroke-linecap:square;stroke-opacity:0;paint-order:markers stroke fill" />
    <path
       sodipodi:nodetypes="cssscscscssscsscsscssssc"
       id="path1168"
       d="m 336.68882,49.55421 c 0,0 -0.84614,-1.724851 -2.60116,2.267842 -0.75167,1.710064 -0.81951,8.818765 1.68584,8.959287 2.50534,0.140522 1.83893,-3.100216 2.15829,-4.334531 0.31937,-1.234315 1.03237,-1.753612 1.03237,-1.753612 0,0 0.66211,2.262858 2.34526,3.721594 1.68316,1.458736 3.5514,1.023401 3.5514,1.023401 0,0 -2.18016,-3.5025 -1.55868,-5.574077 0.62147,-2.071576 2.50619,-3.551932 2.50619,-3.551932 0,0 -1.28868,2.800436 -0.59816,4.863383 0.69053,2.062946 3.41374,3.910949 3.95639,3.336002 0.54264,-0.574946 3.378,-4.156931 3.75852,-6.033227 1.32726,-6.544615 -0.87902,-4.454121 -0.87902,-4.454121 0,0 -0.77679,9.01764 -3.5835,8.943251 -2.80671,-0.07439 -2.40417,-7.817029 -1.39414,-8.35855 1.01003,-0.541522 -1.45807,-0.161424 -1.45807,-0.161424 0,0 -0.35595,1.369869 -1.20408,2.033168 -0.91047,0.712053 -2.67763,3.082058 -2.08009,5.240832 0.51974,1.877704 0.72428,2.512287 0.72428,2.512287 -1.40555,-0.15017 -4.06523,-3.869469 -3.75785,-4.612932 0.29493,-0.713352 -1.90494,1.334767 -2.12936,2.361926 -0.22442,1.027158 -0.162,3.846619 -1.12011,3.561776 -0.9581,-0.284843 -1.04262,-2.929451 -0.83546,-4.69029 0.20715,-1.76084 0.65932,-4.156638 1.48114,-5.300053 z"
       style="fill:#000000;fill-opacity:1;stroke:#d3d300;stroke-width:3.65102;stroke-linecap:square;stroke-opacity:0;paint-order:markers stroke fill" />
    <path
       sodipodi:nodetypes="cssscsscscsssscssssssssssscsssscscssscssscssscssscc"
       id="path1170"
       d="m 357.21659,47.218133 c 0,0 -0.48839,0.413906 -0.89666,2.414507 -0.26353,1.291357 -1.04684,11.081054 2.19852,9.431956 3.24535,-1.649099 3.66218,-4.150721 5.30882,-6.583836 1.72872,-2.554405 2.75004,-3.538972 2.75004,-3.538972 0,0 -2.74599,9.035399 0.0372,8.884357 2.78319,-0.151043 5.8299,-4.22764 5.52563,-6.827135 -0.30427,-2.599494 -0.42113,-6.235965 0.79208,-7.002529 -0.10731,2.724566 1.8584,4.214461 4.04452,1.854717 2.18609,-2.359745 2.54732,-5.353532 2.78617,-7.943919 3.66259,6.038666 1.19367,10.42866 0.0719,12.180239 -0.55327,0.863889 -6.86782,6.093425 -5.58639,11.338346 1.28142,5.244921 3.79715,3.953469 4.64925,2.65061 0.8521,-1.302859 2.07262,-3.058173 2.05772,-4.846213 -0.0149,-1.788041 -0.58891,-3.791921 -0.58891,-3.791921 0,0 1.22432,0.552729 1.688,1.815362 0.4935,1.343804 -0.77194,6.060102 -0.39942,7.907743 0.37251,1.847641 1.37147,2.958534 3.14461,0.15727 1.77314,-2.801264 2.19608,-8.42551 2.43228,-8.964653 0.44136,-1.007429 -0.0189,2.471516 0.0109,5.019476 0.0298,2.547959 4.06486,12.771714 3.67746,15.051465 -0.38741,2.279752 -4.63505,10.096415 -4.62014,11.720302 0.0149,1.623886 0.2544,-0.527068 0.86531,-1.733996 0.61092,-1.206927 3.74911,-6.911456 4.22593,-8.908101 0.47681,-1.996646 -1.47391,-9.069478 -1.94909,-10.48777 -0.47519,-1.418291 -1.62453,-3.650129 -1.47552,-6.822689 0.149,-3.17256 0.32348,-7.856275 0.32348,-7.856275 0,0 -0.17676,1.258513 -1.56678,3.529226 -1.51649,2.477314 -1.25732,5.209528 -2.0716,7.144418 -0.82493,1.960206 -1.8485,4.90202 -1.99751,1.772949 -0.149,-3.129071 1.14465,-5.859701 0.21627,-7.969525 -1.02447,-2.328205 -3.53055,-2.783797 -3.53055,-2.783797 0,0 0.57206,2.21619 0.47522,4.932901 -0.10172,2.85353 -3.65378,8.04527 -4.42522,2.11782 -0.0803,-5.45576 2.19403,-7.769689 4.55664,-9.701162 2.36262,-1.931474 3.21601,-6.21222 2.56139,-9.251882 -0.65462,-3.039662 -1.15388,-5.241769 -3.2534,-5.270807 -2.09951,-0.02904 -1.38463,0.718342 -1.38463,0.718342 0,0 0.7905,-0.334259 0.7905,0.547982 0,0.882241 -1.00864,6.505655 -2.85787,7.347145 -1.84922,0.84149 -2.72811,-1.587247 -2.14449,-3.147681 0.58362,-1.560433 0.59137,-1.560433 0.59137,-1.560433 0,0 -2.17011,0.08957 -2.84062,3.589096 -0.67052,3.499529 0.89476,5.997368 -1.30465,9.477368 -2.19941,3.48 -3.97544,2.9911 -3.19194,-0.619473 0.53953,-2.486286 0.17662,-5.997062 2.81293,-8.352986 -1.52041,0.09942 -6.12886,5.93812 -7.21203,7.374481 -1.43993,1.909439 -3.62807,6.319434 -4.84909,4.743026 -1.22102,-1.576407 -0.65839,-8.889982 0.60879,-9.846411 1.26718,-0.956429 -1.05672,0.09106 -1.05672,0.09106 z"
       style="fill:#000000;fill-opacity:1;stroke:#d3d300;stroke-width:3.65102;stroke-linecap:square;stroke-opacity:0;paint-order:markers stroke fill" />
    <path
       sodipodi:nodetypes="sscscscscscs"
       id="path1174"
       d="m 333.32637,178.19862 c -0.72931,-0.68537 2.33908,-9.21706 8.72391,-14.55147 6.39712,-5.34468 20.46314,0.95717 20.46314,0.95717 0,0 7.55466,-5.82047 15.09948,-6.82384 5.72574,-0.76145 16.60906,1.92542 16.60906,1.92542 0,0 -16.16877,-3.10132 -25.30945,2.33245 -9.86078,5.86184 -9.19078,14.70097 -9.19019,14.70134 0,0 -1.05047,-3.6206 -0.0309,-6.99443 0.8662,-2.86624 1.63924,-3.63775 1.63924,-3.63775 0,0 -12.71396,-6.12218 -18.50506,-1.58914 -5.79109,4.53305 -9.49927,13.68025 -9.49927,13.68025 z"
       style="fill:#000000;fill-opacity:1;stroke:#d3d300;stroke-width:3.65102;stroke-linecap:square;stroke-opacity:0;paint-order:markers stroke fill" />
    <path
       sodipodi:nodetypes="cscsscscsccscscscscscscscc"
       id="path1178"
       d="m 404.80331,137.52884 c 0,0 -14.55803,-4.43891 -21.602,1.84227 -7.66954,6.839 -7.71441,13.29926 -7.71441,13.29926 0,0 -0.15011,-5.21949 1.5252,-7.63595 0.97069,-1.40012 -5.17963,-7.42753 -12.02095,-4.63343 -6.84132,2.7941 -9.21009,6.81108 -9.21009,6.81108 0,0 -1.33368,-1.4639 3.26655,-5.01562 4.41067,-3.40537 8.44974,-3.7802 8.44974,-3.7802 0,0 -2.78379,-15.49495 -16.05493,-15.19009 -13.8697,0.31861 -22.29232,11.80564 -21.383,12.61877 0,0 9.85299,0.68606 11.43019,2.55469 -5.28681,-0.6233 -8.30745,-1.3252 -12.68223,-0.33171 -5.86935,1.33296 -7.76479,4.84731 -10.22382,7.67966 0.46873,-2.98995 4.22327,-6.17973 5.39637,-7.00509 1.21815,-0.85706 2.29736,-1.51217 2.29736,-1.51217 0,0 -2.87138,-8.32213 -17.32313,-4.09666 -14.21406,4.15598 -13.15842,12.50145 -13.15842,12.50145 0,0 -3.78174,-9.87009 12.40072,-14.37882 16.18247,-4.50874 19.74991,4.26434 19.74991,4.26434 0,0 4.26086,-10.84497 21.34683,-13.6447 17.08598,-2.79974 20.04899,16.37967 20.04899,16.37967 0,0 4.76718,0.42211 6.87212,2.63119 2.10495,2.20908 1.77775,2.41588 1.77775,2.41588 0,0 3.32625,-7.13453 12.84346,-8.13476 9.5172,-1.00022 13.78834,0.88696 13.78834,0.88696 z"
       style="fill:#000000;fill-opacity:1;stroke:#d3d300;stroke-width:3.65102;stroke-linecap:square;stroke-opacity:0;paint-order:markers stroke fill" />
    <path
       sodipodi:nodetypes="cscsccscscsc"
       id="path1180"
       d="m 323.2866,119.89523 c 0,0 -2.93763,-3.25022 -8.87959,-2.6469 -5.94195,0.60332 -8.67556,3.28765 -8.67556,3.28765 0,0 -2.19989,-2.28958 -9.12421,-2.11409 -6.92432,0.17549 -8.78487,1.89745 -8.78487,1.89745 l 0.44869,1.43361 c 0,0 7.35336,-3.43709 13.59542,-1.35147 6.7331,2.24968 9.97225,9.15169 9.97225,9.15169 0,0 -0.26575,-3.31967 -2.74247,-5.8682 -2.17766,-2.2408 -2.18619,-2.26422 -2.18619,-2.26422 0,0 4.55535,-2.80213 8.12959,-2.94591 3.57424,-0.14377 8.24694,1.42039 8.24694,1.42039 z"
       style="fill:#000000;fill-opacity:1;stroke:#d3d300;stroke-width:3.65102;stroke-linecap:square;stroke-opacity:0;paint-order:markers stroke fill" />
    <path
       sodipodi:nodetypes="ccccccccccccccccccccccccccccccccccccccccccccc"
       d="m 305.38672,45.011719 0.16992,6.421875 -8.51953,0.269531 -0.0371,-2.857422 -0.63867,-0.123047 -0.49805,-2.958984 -0.87695,0.07031 0.0605,6.003907 -6.8125,0.154297 -0.041,1.882812 6.85937,0.04687 0.63672,12.023437 -7.01562,0.269532 0.16015,2.990234 6.85743,-0.162109 0.4707,9.742187 -8.0957,0.480469 0.0684,0.230469 0.1582,2.65625 7.92773,-0.261719 0.34961,11.730469 1.93946,0.0098 -0.32032,-12.318359 7.82422,-0.466797 0.0215,-2.662109 -7.85938,0.46875 -0.33008,-9.65625 8.54492,-0.242188 0.7695,10.582136 1.7851,2.031719 -1.10928,-28.383386 10.29883,0.103516 0.0156,-1.621094 -0.75781,-0.214844 -0.22266,-0.851562 -9.8789,0.783203 -0.0293,-1.699219 -0.6582,-0.421875 -0.6543,-4.050781 z m 0.25781,8.05664 0.33985,12.664063 -8.4375,0.59375 -0.56641,-12.38086 z"
       style="fill:#000000;fill-opacity:1;stroke:#d3d300;stroke-width:3.65102;stroke-linecap:square;stroke-opacity:0;paint-order:markers stroke fill"
       id="path1182" />
    <path
       id="path1187"
       d="m 375.58208,45.712536 4.47221,-20.691842 c 0,0 3.10812,1.251204 4.06046,0.610352 0.95234,-0.640853 0.99422,-1.428826 2.05803,-1.450668 1.06381,-0.02184 1.47883,-0.07423 2.1454,-0.844108 0.66658,-0.76988 1.25766,-0.195981 1.95796,-0.76988 0.7003,-0.573898 1.45395,0.393199 2.13709,1.152807 0.68314,0.759607 0.45431,1.789626 2.25866,1.745943 1.80435,-0.04368 1.95329,-0.69208 2.40063,0.02184 0.44734,0.713923 0.43368,-0.11466 1.39577,2.020695 0.96209,2.135355 0.87546,3.050977 1.51888,2.858698 0.64342,-0.192278 0.66705,-0.236827 1.15795,-0.746956 0.4909,-0.510128 0.86833,-0.421932 1.78686,-0.421932 0.91853,0 0.1817,-0.793288 1.46187,-0.336011 1.28017,0.457276 1.48488,0.633679 1.48488,0.633679 0,0 -0.32977,0.202158 -0.73098,0.1132 -0.40121,-0.08896 -0.60155,-0.450833 -1.0847,-0.255693 -0.48316,0.195141 -0.0878,0.238043 -0.96066,0.445292 -0.87281,0.207248 -1.39306,-0.108199 -1.59835,0.247371 -0.2053,0.355569 -0.14508,0.822456 -1.23081,0.850944 -1.08573,0.02849 -1.45724,0.09669 -1.676,-0.415309 -0.21876,-0.512002 -0.44371,-1.463392 -0.75416,-2.13056 -0.31045,-0.667169 -0.0908,-1.384694 -1.24221,-1.643755 -1.15137,-0.25906 -1.06007,-0.612729 -1.37989,-0.509959 -0.31983,0.102771 -1.71651,0.43093 -1.99274,0.139498 -0.27622,-0.291432 -1.17876,-1.383633 -1.52993,-1.74056 -0.35117,-0.356928 -0.86829,-1.020804 -1.1331,-0.911423 -0.26482,0.109381 -1.14743,0.178463 -1.32014,0.247546 -0.1727,0.06908 -0.47904,0.257407 -1.21017,0.884908 -0.73112,0.627502 -1.60503,0.489336 -1.78668,0.489336 -0.18165,0 -0.76806,0.784971 -1.28011,1.135832 -0.51206,0.35086 -2.12399,0.632948 -2.29669,0.615677 -0.17271,-0.01727 -1.68428,-0.556511 -1.68428,-0.556511 L 376.81306,45.1334 Z"
       style="fill:#000000;fill-opacity:1;stroke:#d3d300;stroke-width:3.65102;stroke-linecap:square;stroke-opacity:0;paint-order:markers stroke fill" />
    <path
       d="m 389.09375,36.267578 -4.44922,19.431641 1.32422,-3.390625 1.25195,-1.107422 0.99805,-4.292969 7.41992,1.619141 -0.21484,4.09375 1.45508,-0.410156 c 0,0 -0.0102,-3.064337 0.2539,-3.111329 0.26414,-0.04699 1.4375,-0.04687 1.4375,-0.04687 l -0.0371,0.779297 3.10157,0.05273 c 0,0 0.30016,-0.208788 0.043,-0.28711 -0.25717,-0.07832 -1.99218,-0.322265 -1.99218,-0.322265 l 0.32226,-1.078125 -2.64258,-0.564454 2.08594,-7.419921 5.75,1.039062 0.40235,-1.59375 z m 1.22461,1.855469 7.60742,1.482422 -1.95508,7.537109 -7.36718,-1.753906 z"
       style="fill:#000000;fill-opacity:1;stroke:#d3d300;stroke-width:3.65102;stroke-linecap:square;stroke-opacity:0;paint-order:markers stroke fill"
       id="path1189" />
    <path
       id="path1194"
       d="m 387.49742,54.690116 -0.007,-2.097081 1.48542,0.3912 0.40542,2.356245 1.37424,-0.844677 1.00342,1.133207 7.93555,1.468559 -3.62846,1.304706 -8.54161,-2.092778 z"
       style="fill:#000000;fill-opacity:1;stroke:#d3d300;stroke-width:3.65102;stroke-linecap:square;stroke-opacity:0;paint-order:markers stroke fill" />
    <path
       id="path1196"
       d="m 384.05565,6.0678711 4.2e-4,13.0968899 1.7836,-0.03631 0.19803,-1.244151 c 0,0 -0.70998,0.485096 0.87901,0.934378 1.589,0.449283 1.59721,0.332856 1.65168,-0.01117 0.0545,-0.344023 -0.83206,-1.01017 0.24974,-1.584141 1.08179,-0.57397 2.58168,-1.084566 2.58168,-1.084566 l 2.43793,0.714529 c 0,0 0.99849,0.451762 1.56384,1.411679 0.56535,0.959918 0.36198,0.984744 0.58723,0.970855 0.22525,-0.01389 1.67348,0.499384 1.67348,0.499384 0,0 -0.0202,0.327576 0.79687,-0.761813 0.81704,-1.08939 1.92799,-1.204495 2.25477,-1.043068 0.32677,0.161428 0.53285,0.928734 1.36939,1.561661 0.83654,0.632927 0.35827,1.183416 1.40648,0.948002 1.04821,-0.235414 1.23197,-0.671838 1.49507,-0.581056 0.2631,0.09078 0.93534,0.04173 0.93534,0.04173 l -0.16553,-0.738401 -1.93037,-0.0039 c 0,0 -0.30875,0.906303 -0.78324,0.373006 -0.4745,-0.533297 -1.76324,-2.042527 -1.76324,-2.042527 0,0 -0.89566,-0.800076 -1.11079,-0.759598 -0.21513,0.04048 -2.38417,1.3014 -2.38417,1.3014 0,0 -0.27971,0.839902 -0.78583,0.647934 -0.50612,-0.191968 -1.48083,-1.457682 -1.48083,-1.457682 l -1.98287,-1.36259 c 0,0 -1.69584,-0.56544 -1.97878,-0.56544 -0.28294,0 -1.63825,0.01903 -2.23269,0.488175 -0.59444,0.469145 -1.64094,1.217299 -1.64094,1.217299 l -0.76827,0.994743 -1.10226,-0.833126 c 0,0 -1.01564,1.916807 -1.01564,0.309521 0,-1.607285 0.005,-11.6351641 0.005,-11.6351641 z"
       style="fill:#000000;fill-opacity:1;stroke:#d3d300;stroke-width:3.65102;stroke-linecap:square;stroke-opacity:0;paint-order:markers stroke fill" />
    <path
       d="m 319.09375,96.488281 c -0.33771,-0.105882 -2.55396,0.375468 -2.63672,0.826172 -0.0828,0.450704 -0.83117,3.677027 -0.43555,4.490237 0.39561,0.81321 1.14198,2.64481 1.57813,2.81836 0.43616,0.17355 5.63086,0.01 5.63086,0.01 l 3.99609,0.55469 -2.58984,24.43359 c 0,0 -0.16174,0.3826 1.2168,-0.32812 1.37854,-0.71071 1.33979,-0.0355 1.93945,-0.77735 0.59966,-0.74191 1.99414,-0.63867 1.99414,-0.63867 0,0 -0.25759,1.03058 0.70703,1.57617 0.96462,0.54561 2.05664,0.55665 2.05664,0.55665 0,0 0.93997,0.0425 -0.40039,-0.43555 -1.34037,-0.47803 -1.32219,-1.36256 -1.42969,-1.74414 -0.1075,-0.38157 -1.24204,-1.29904 -1.67187,-1.13086 -0.42983,0.16819 -1.07438,0.62147 -1.73047,1.03906 -0.65609,0.4176 -1.20394,0.75681 -1.56641,0.39453 -0.36246,-0.36227 2.60352,-23.09375 2.60352,-23.09375 0,0 2.90108,0.15888 3.38086,0.36719 0.47977,0.20831 1.86099,0.68776 3.66797,0.56055 1.80698,-0.12721 5.40188,0.18404 6.10547,0.33789 0.70358,0.15385 1.58203,0.54883 1.58203,0.54883 l -0.21094,3.02343 -11.1582,-0.57812 0.75976,0.72461 2.7461,0.31054 -0.28516,3.92579 -6.33789,-0.14063 0.41601,0.66602 5.63672,0.33007 c 0,0 1.07805,-0.0254 1.3418,0.15039 0.26374,0.17584 1.09961,0.69727 1.09961,0.69727 l 4.49023,0.1875 -0.24609,3.95703 -5.35352,-0.28711 4.32032,1.03907 1.99804,-0.0273 0.63868,0.41406 -0.043,1.23633 -2.01563,0.44727 1.30274,0.36523 0.0644,0.89649 3.62891,-1.36524 -0.75782,-0.59765 -1.6289,-0.27149 0.19531,-1.12695 -0.74414,-1.38281 c 0,0 -0.31231,-2.86133 0.0273,-2.86133 0.33966,0 8.00586,0.66992 8.00586,0.66992 l -0.25195,3.07226 c 0,0 0.61225,-1.29798 0.83203,-2.33593 0.21978,-1.03795 4.6378,-0.11865 5.43359,-0.14063 0.79578,-0.022 1.41797,0.0326 1.41797,-0.3789 0,-0.41152 0.13867,-3.62305 0.13867,-3.62305 0,0 -0.5576,-0.0195 -0.60156,0.72266 -0.0439,0.74217 0.49411,0.98233 -0.25586,1.30664 -0.74997,0.32431 -1.67263,0.38867 -2.16992,0.38867 -0.4973,0 -7.22017,-0.17321 -7.23437,-0.5293 -0.0142,-0.3561 -0.53019,-3.34979 0.17773,-3.70508 0.70793,-0.35529 3.8988,1.42639 4.96875,1.16407 1.06995,-0.26232 1.62695,-0.72071 1.62695,-0.72071 0,0 4.30028,0.26953 4.61524,0.26953 0.31496,0 4.26231,-0.73086 -1.26367,-1.08007 -5.52597,-0.34921 -11.57933,-0.74802 -12.14844,-0.83594 -0.56911,-0.0879 -1.6369,-0.25665 -2.13477,-1.04102 -0.49787,-0.78437 -0.0371,-2.79687 -0.0371,-2.79687 0,0 6.20954,0.6401 7.00196,0.75 0.79242,0.1099 4.22461,0.54833 5.21484,0.57031 0.99023,0.022 6.76314,0.51168 7.38867,0.66016 0.62554,0.14849 3.58872,0.62737 5.69141,0.86914 2.1027,0.24176 2.74023,0.78232 2.74023,0.21875 0,-0.56356 0.81055,-0.39453 0.81055,-0.39453 0,0 0.0556,-1.42578 -0.53516,-1.20313 -0.59081,0.22265 -2.62672,0.32422 -3.50586,0.32422 -0.87915,0 -7.43359,-1.12891 -7.43359,-1.12891 l -7.00391,-1.18554 c 0,0 -8.72059,-0.70558 -9.51562,-0.6836 -0.79502,0.022 -17.40211,-2.26562 -17.89844,-2.26562 -0.49633,0 -4.79585,-0.26714 -5.9375,-0.54492 -1.14165,-0.27778 -2.26307,0.0178 -2.73633,-0.60157 -0.47326,-0.6194 -1.89663,-0.74662 -1.36914,-2.33203 0.52748,-1.585414 1.18485,-2.514829 1.05664,-2.835936 -0.1282,-0.321107 1.73908,0.04492 2.39844,0.04492 0.65936,0 47.04845,4.484496 48.7832,4.986326 1.73474,0.50184 8.44578,1.66617 8.75196,1.81446 0.30617,0.14828 0.69922,1.43554 0.69922,1.43554 l -0.63282,1.47071 c 0,0 -0.29663,0.46965 -0.37109,0.79883 -0.0745,0.32919 -1.03583,0.55904 -1.42578,0.71289 -0.38996,0.15385 -1.33874,0.43097 -1.57813,0.76562 -0.23938,0.33465 -0.43689,1.33579 -1.03711,1.90234 -0.60021,0.56655 -1.47851,2.95704 -1.47851,2.95704 0,0 -0.34413,0.41706 -0.7793,0.75976 -0.43517,0.3427 -1.22119,0.96306 -1.61328,1.07617 -0.3921,0.11311 -4.534,0.19288 -4.81836,0.21485 -0.28436,0.022 -0.52487,1.88012 -0.69336,2.38672 -0.1685,0.5066 -2.02734,3.04687 -2.02734,3.04687 l -1.41992,1.32227 c 0,0 -0.21783,0.1095 0.0645,0.0762 0.28228,-0.0333 2.0625,0.0442 2.0625,-0.40039 0,-0.44455 0.91305,-1.22963 1.04492,-1.77539 0.13187,-0.54575 1.83008,-2.3711 1.83008,-2.3711 l 0.1543,-1.51171 c 0,0 3.5917,0.31104 4.28906,0.28906 0.69735,-0.022 1.80273,-1.00391 1.80273,-1.00391 0,0 1.18795,-1.64738 1.3418,-1.95508 0.15385,-0.3077 0.45117,-1.53711 0.45117,-1.53711 l 1.4082,-2.10546 c 0,0 0.12135,-1.30466 0.97852,-1.39258 0.85716,-0.0879 1.95703,-0.60157 1.95703,-0.60157 0,0 0.63055,-1.41487 0.75586,-1.71679 0.12532,-0.30192 0.79297,-2.49219 0.79297,-2.49219 0,0 -0.29332,-0.98414 -0.74414,-1.24414 -0.45082,-0.25999 -5.30719,-1.41801 -6.125,-1.33594 -0.81781,0.0821 -22.18837,-2.966797 -23.52344,-2.966797 -1.33507,0 -10.2369,-0.54021 -10.86328,-0.712891 -0.62639,-0.17268 -12.14258,-1.388671 -12.14258,-1.388672 0,0 -6.92596,-0.163649 -7.26367,-0.269531 z m 18.21875,14.333989 c 1.7773,-0.0625 4.99602,0.42773 5.50977,0.42773 0.68501,0 3.59267,0.19065 3.98828,1.06641 0.39562,0.87576 -0.12696,2.67382 -0.12696,2.67382 0,0 -0.39694,0.065 -1.16797,0.13086 -0.77102,0.0659 -8.18554,-0.3457 -8.18554,-0.3457 l -1.39844,-1.02734 0.23828,-2.64063 c 0.11851,-0.18184 0.55015,-0.26431 1.14258,-0.28515 z"
       style="fill:#000000;fill-opacity:1;stroke:#d3d300;stroke-width:3.65102;stroke-linecap:square;stroke-opacity:0;paint-order:markers stroke fill"
       id="path1198" />
    <path
       id="path1203"
       d="m 362.75523,112.64424 c 1.48419,-0.12071 1.85475,1.38389 2.02195,-0.34814 0.16721,-1.73203 0.49609,-1.94088 0.49609,-1.94088 0,0 0.7019,0.37152 0.74929,1.24603 0.0474,0.87451 0.83834,1.59772 1.16776,2.35434 0.32943,0.75662 -0.47157,0.34787 -1.62882,0.0541 -1.15725,-0.29381 -2.80627,-1.3654 -2.80627,-1.3654 z"
       style="fill:#000000;fill-opacity:1;stroke:#d3d300;stroke-width:3.65102;stroke-linecap:square;stroke-opacity:0;paint-order:markers stroke fill" />
    <path
       id="path1205"
       d="m 334.37298,120.24468 c -0.51008,1.06859 1.31615,2.18685 -0.72324,2.57934 -2.03939,0.39248 -2.69334,0.80113 -1.952,0.9927 0.74134,0.19157 2.53703,0.90967 3.14911,0.94246 0.61209,0.0328 1.78217,-0.66496 1.29479,-1.00476 -0.48737,-0.33981 -1.93438,-0.40212 -1.93438,-0.40212 0,0 1.27216,-0.5173 1.19017,-1.05441 -0.082,-0.53711 -0.82218,-2.17473 -0.82218,-2.17473 l -0.39497,-0.0656 z"
       style="fill:#000000;fill-opacity:1;stroke:#d3d300;stroke-width:3.65102;stroke-linecap:square;stroke-opacity:0;paint-order:markers stroke fill" />
    <path
       d="m 405.38086,83.294922 c 0,0 -2.25412,0.383731 -3.26367,0.798828 -1.00955,0.415097 -11.87226,2.899873 -12.66407,3.107422 -0.79179,0.207549 -4.50671,1.222409 -5.10546,1.384766 -0.59876,0.162355 -0.33336,2.467267 -0.31446,2.957031 0.0189,0.489763 3.4e-4,1.922431 -0.25,2.617187 -0.25034,0.694757 -1.14494,0.708797 -0.76758,1.425782 0.37737,0.716984 0.95899,1.630859 0.95899,1.630859 l -0.084,3.314453 c 1e-5,0 0.5028,0.32422 0.80469,1.32422 0.30189,1.00001 -0.0393,1.34032 -0.3789,1.9043 -0.33962,0.56397 -2.03321,0.75982 -2.03321,1.03711 0,0.27729 0.72237,2.98062 1.13477,3.92773 0.41215,0.9471 -0.008,1.33594 -0.008,1.33594 0,0 0.0658,1.53715 0.34961,1.59375 0.28379,0.0566 1.20883,0.47244 0.98242,2.08984 -0.22642,1.6174 -0.7732,0.73632 -0.88867,1.02148 -0.11548,0.28518 0.16406,2.73438 0.16406,2.73438 0,0 -0.095,1.96884 0.01,2.38672 0.10473,0.41788 1.19697,0.60686 1.72266,0.75781 0.5257,0.15094 0.78125,0.75942 0.78125,1.2168 0,0.45737 1.13086,1.0039 1.13086,1.0039 l 0.32617,1.19336 c 0,0 1.84996,2.09074 2.32031,2.61719 0.47035,0.52645 2.21863,0.62281 3.74414,1.95117 1.52551,1.32835 -1.875,0.97461 -1.875,0.97461 0,0 0.76113,1.8229 1.87891,2.3125 1.11778,0.48959 0.57565,0.21818 1.49805,0.86328 l 0.0156,0.31641 c 0,0 0.1972,-1.04574 -0.0273,-1.20898 -0.22453,-0.16323 -2.00586,-1.14063 -2.00586,-1.14063 0,0 0.076,-0.37172 1.42383,-0.41992 1.34779,-0.0482 -0.2461,-2.23828 -0.2461,-2.23828 l -2.49609,-1.39649 -2.8125,-2.12695 -1.33398,-1.75391 c 0,0 -0.0729,-1.44468 -0.875,-2.60351 -0.80213,-1.15882 -2.31055,-0.67774 -2.31055,-0.67774 0,0 -0.0187,-2.36119 0.0547,-2.9375 0.0734,-0.57631 0.13108,-1.67987 0.57617,-2.64648 0.44509,-0.96661 0.31224,-0.89132 -0.084,-1.9668 -0.39623,-1.07548 -0.80367,-1.61844 -1.19726,-2.0625 -0.39359,-0.44405 0.93555,-0.64453 0.93555,-0.64453 0,0 1.37057,0.26031 1.57812,1.07422 0.20754,0.81391 0.45331,1.75698 0.85352,1.83398 0.40021,0.077 -0.0926,-2.58696 0.93359,-3.17187 1.02618,-0.58491 5.32037,-1.31968 6.49219,-1.30078 1.17181,0.0189 0.69305,1.46644 0.65625,2.43945 -0.0368,0.97301 -3.50577,1.25676 -3.53907,1.49219 -0.0333,0.23543 0.78419,0.50298 2.64258,-0.2461 1.85838,-0.74907 4.71485,-1.00781 4.71485,-1.00781 0,0 0.99132,2.01742 1.01171,1.76758 0.0204,-0.24983 0.27866,-3.30872 0.0332,-3.93555 -0.24546,-0.62682 -0.50708,0.93983 -1.25977,1.39063 -0.75268,0.45077 -2.67773,-0.0469 -2.67773,-0.0469 0,0 0.11324,-2.49081 0.0566,-3.40039 -0.0566,-0.90959 -4.58123,0.50183 -6.3125,1.04492 -1.73126,0.54308 -0.30019,-1.53231 -0.33789,-2.13085 -0.0377,-0.59855 0.77509,-0.99293 1.81445,-1.125 1.03936,-0.13208 6.57813,-1.20704 6.57813,-1.20704 l -0.0469,2.06641 c 0,0 1.05385,1.26339 1.35156,1.03906 0.29772,-0.22433 -0.24741,-2.97847 -0.22851,-3.25 0.0189,-0.27153 1.5625,-0.89258 1.5625,-0.89258 l 1.21289,-0.94531 c 0,0 -4.75572,0.98969 -5.31445,1.08399 -0.55873,0.0943 -1.93867,0.23123 -2.09571,-0.32813 -0.15704,-0.55936 -0.0204,-2.318375 0.19727,-2.621092 0.21763,-0.302717 5.0957,-1.25 5.0957,-1.25 0,0 -0.3808,-0.468205 -1.14648,-0.447266 -0.76568,0.02095 -0.60352,-1.18164 -0.60352,-1.18164 0,0 -0.38672,0.712593 -0.38672,0.976562 0,0.263968 -0.33203,0.373047 -0.33203,0.373047 L 389.67969,99.25 c 0,0 -0.87309,-1.524253 -0.92969,-1.923828 -0.0566,-0.399575 -0.052,-1.281821 0.0801,-1.679688 0.13207,-0.397867 16.40234,-3.322265 16.40234,-3.322265 l -0.17969,-1.648438 c 0,0 -20.39213,5.078846 -20.94726,4.771485 -0.55512,-0.307361 0.51239,-0.647703 0.58789,-0.990235 0.0755,-0.342532 -0.0176,-3.333012 -0.0742,-3.640625 -0.0566,-0.307614 0.20573,-1.244493 0.67578,-1.283203 0.47006,-0.03871 19.7793,-4.792969 19.7793,-4.792969 z m -18.21094,13.023437 c 0.33173,-0.0097 0.68164,0.08789 0.68164,0.08789 0,0 0.11097,1.064319 0.29883,1.648438 0.18786,0.584118 -0.40132,1.238706 -1.05078,1.576171 -0.64946,0.337466 1.10006,0.02889 1.30273,0.07227 0.20267,0.04338 0.78342,0.511562 1.09375,1.078122 0.31029,0.56655 0.14765,0.10195 0.39649,-0.18555 0.24885,-0.2875 1.13297,-0.694345 1.71289,-0.884759 0.57991,-0.190416 1.867,0.347499 1.9043,0.664059 0.0373,0.31656 -0.15575,2.20044 -0.41602,2.44336 -0.26026,0.24292 -1.7221,0.64308 -2.65039,0.75586 -0.92828,0.11279 -0.89744,-1.29959 -1.09766,-1.7461 -0.20024,-0.44649 -0.0513,1.89099 -0.16406,2.14258 -0.11278,0.25159 -1.94362,0.59475 -3.1582,0.82032 -1.21458,0.22554 0.2535,0.19804 1.30273,0.0332 1.04922,-0.16482 1.55274,0.082 1.55274,0.082 0,0 -0.25172,1.78283 -0.0957,2.24219 0.15601,0.45936 -0.0475,0.87541 -0.87695,1.01953 -0.82951,0.14412 -0.78711,1.38086 -0.78711,1.38086 0,0 -0.99279,-0.8174 -1.48633,-1.04297 -0.49355,-0.22553 -1.60256,-0.12936 -1.80273,-0.16406 -0.20018,-0.0347 -0.44968,-1.27961 -0.48438,-1.41797 -0.0347,-0.13836 0.42433,-1.79556 0.91016,-2.14258 0.48583,-0.34703 1.03027,-1.30669 1.21094,-2.42187 0.18067,-1.11519 -0.16606,-1.42382 -0.65821,-2.03711 -0.49215,-0.613285 -0.22656,-1.125075 -0.22656,-1.746095 0,-0.621019 0.1441,-0.901287 0.1875,-1.394531 0.0102,-0.84544 1.71563,-0.671737 2.08789,-0.810547 0.0931,-0.0347 0.20193,-0.0495 0.3125,-0.05273 z"
       style="fill:#000000;fill-opacity:1;stroke:#d3d300;stroke-width:3.65102;stroke-linecap:square;stroke-opacity:0;paint-order:markers stroke fill"
       id="path1207" />
    <path
       id="path1212"
       d="m 391.29377,113.63043 c -1.25605,0.88487 -0.71178,2.17631 -0.51921,2.90298 0.19257,0.72666 0.23701,0.65391 0.46326,-0.21948 0.22626,-0.87338 0.24743,-1.64563 0.54046,-1.85304 0.29303,-0.20742 -0.48451,-0.83046 -0.48451,-0.83046 z"
       style="fill:#000000;fill-opacity:1;stroke:#d3d300;stroke-width:3.65102;stroke-linecap:square;stroke-opacity:0;paint-order:markers stroke fill" />
    <path
       id="path1214"
       d="m 383.99904,124.93111 c -1.14406,0.55282 -1.14669,-0.35934 -1.21371,0.61539 -0.067,0.97473 -0.83037,1.09296 -0.83037,1.09296 0,0 -0.48773,-1.51891 -0.18825,-1.7345 0.29947,-0.21559 1.98743,-0.16817 2.23233,0.0262 z"
       style="fill:#000000;fill-opacity:1;stroke:#d3d300;stroke-width:3.65102;stroke-linecap:square;stroke-opacity:0;paint-order:markers stroke fill" />
    <path
       id="path1216"
       d="m 385.97065,125.50291 c -0.42874,0.74669 0.6063,0.41329 -0.42874,1.25804 -1.03504,0.84474 -2.19387,0.68028 -1.56277,0.85591 0.6311,0.17564 1.88809,0.0118 2.06513,-0.1429 0.17704,-0.1547 0.14955,-0.89719 0.37415,-1.3463 0.22459,-0.44911 0.79704,-1.26545 -0.44777,-0.62475 z"
       style="fill:#000000;fill-opacity:1;stroke:#d3d300;stroke-width:3.65102;stroke-linecap:square;stroke-opacity:0;paint-order:markers stroke fill" />
    <path
       id="path1218"
       d="m 367.23845,121.09969 c -0.46917,-0.0112 -3.34445,-0.84868 -1.02769,-0.32395 2.31675,0.52474 2.37313,-0.59103 2.76665,0.021 0.39351,0.61201 1.08958,0.94946 0.73635,1.46872 -0.35323,0.51926 -1.3,0.73092 -1.9814,0.98784 -0.68141,0.25693 -1.52626,0.70259 -0.53065,0.72257 0.99561,0.02 0.63099,0.6074 0.84323,1.08685 0.21224,0.47945 0.72876,2.53335 0.72876,1.09235 0,-1.441 0.30782,-2.67911 1.21263,-2.6456 0.90482,0.0335 1.72056,0.68899 1.62003,-0.0371 -0.10054,-0.72608 0.28856,-1.50187 -0.29037,-1.37023 -0.57893,0.13165 -1.24253,-1.6448 -1.24253,-1.6448 0,0 -0.57813,-0.53449 -1.31228,-0.4563 -0.73416,0.0782 -2.39059,-0.14775 -3.15531,0.0645 -0.76472,0.21224 -0.44131,0.68321 -0.10464,1.01988 0.33667,0.33667 1.85198,0.33365 1.78925,0.14878 -0.0627,-0.18488 -0.052,-0.13447 -0.052,-0.13447 z"
       style="fill:#000000;fill-opacity:1;stroke:#d3d300;stroke-width:3.65102;stroke-linecap:square;stroke-opacity:0;paint-order:markers stroke fill" />
    <path
       id="path1220"
       d="m 372.60283,124.24565 c 0.57489,0.93265 0.7303,1.13395 0.17483,1.54462 -0.55547,0.41068 -2.80786,0.21545 -2.80786,0.21545 0,0 0.0472,0.60194 0.70594,0.90325 0.65876,0.3013 1.01408,1.37402 1.01408,1.37402 0,0 0.54696,-0.36711 0.54696,-0.60169 0,-0.23458 0.46052,-0.82538 0.79191,-0.79311 0.33138,0.0323 0.4898,1.39699 0.33021,1.59838 -0.15959,0.2014 -0.43012,1.58271 0.0284,1.23966 0.45856,-0.34305 0.83836,-1.28138 1.18465,-1.7282 0.34629,-0.44682 2.22294,-1.76495 2.882,-2.04421 0.65907,-0.27926 1.19445,-1.88131 0.65826,-1.23342 -0.53619,0.64789 -3.2537,1.61973 -3.52913,1.66441 -0.27543,0.0447 -0.90638,-0.24108 -0.66063,-1.07887 0.24576,-0.8378 -1.31966,-1.06029 -1.31966,-1.06029 z"
       style="fill:#000000;fill-opacity:1;stroke:#d3d300;stroke-width:3.65102;stroke-linecap:square;stroke-opacity:0;paint-order:markers stroke fill" />
    <path
       id="path1222"
       d="m 376.05321,129.53477 c 1.11967,0.36008 1.45944,0.44944 2.66586,0.46061 1.20642,0.0112 2.60346,-0.43709 2.03376,0.61294 -0.5697,1.05003 -0.7783,2.64742 -1.42983,2.78147 -0.65154,0.13405 -3.98729,-0.49093 -4.9703,-0.18932 -0.98301,0.3016 0.40988,-0.0783 1.56045,0.10041 1.15057,0.17873 2.67283,1.24409 2.53391,1.47207 -0.13892,0.22799 -2.39538,1.5908 -3.6018,1.5908 -1.20642,0 -4.12801,-0.3382 -3.58125,0.11919 0.54676,0.4574 2.66705,1.3973 2.66705,1.3973 0,0 -0.929,0.32386 -0.37591,1.28867 0.55309,0.96481 0.0504,2.29097 0.55309,0.53719 0.50267,-1.75378 0.72676,-2.23749 0.97063,-2.43604 0.24387,-0.19854 2.52535,-0.49481 2.60355,0.45469 0.0782,0.9495 -0.1634,1.95081 -0.58788,1.99549 -0.42449,0.0447 -1.94368,1.00805 -1.94368,1.00805 0,0 2.40822,-0.0703 2.66514,0.40345 0.25692,0.47375 2.49075,0.32583 2.95721,-0.14063 0.46647,-0.46647 0.45267,-0.89173 -0.17616,-0.88056 -0.62884,0.0112 -2.67305,-1.58751 -2.43847,-2.15435 0.23458,-0.56685 3.76448,-0.84611 4.44588,-0.8126 0.68141,0.0335 1.39723,-0.82356 1.41866,-1.3501 0.0214,-0.52653 -0.90241,-0.31461 -1.48328,-0.1694 -0.58087,0.14522 -3.61884,0.0221 -3.63002,-0.15597 -0.0112,-0.17805 0.91511,-1.24955 1.97631,-1.21603 1.06121,0.0335 3.29654,-0.7065 3.50775,-0.0261 0.21121,0.68037 0.41322,1.38466 0.60312,1.04955 0.1899,-0.33512 1.03166,-1.62092 1.03166,-1.62092 0,0 0.005,-0.70174 -1.79384,-0.47833 -1.79846,0.22341 -4.07662,0.61889 -3.32819,-0.37529 0.74843,-0.99418 1.00946,-0.55194 0.98712,-1.44558 -0.0223,-0.89365 1.40279,-1.45523 3.37998,-0.0366 1.97719,1.41866 4.65771,4.56835 4.65771,4.56835 0,0 1.84586,1.46385 -0.10628,-1.35929 -1.95214,-2.82315 -1.68749,-3.37634 -3.79199,-4.03971 -2.10449,-0.66337 -3.24604,0.53632 -4.30725,-0.80415 -1.0612,-1.34046 -1.47354,-2.08603 -1.70697,-2.78682 -0.23343,-0.70078 0.52573,-0.84282 -0.39341,-0.95453 -0.91914,-0.1117 -0.83325,-1.12952 -0.55398,0.31148 0.27926,1.441 0.0644,2.46043 -1.39893,2.30405 -1.46334,-0.15639 -2.35382,-0.0231 -2.55246,0.5324 -0.19864,0.5555 -0.87963,1.98491 -0.87963,1.98491 l 1.86422,-1.37806 z"
       style="fill:#000000;fill-opacity:1;stroke:#d3d300;stroke-width:3.65102;stroke-linecap:square;stroke-opacity:0;paint-order:markers stroke fill" />
    <path
       id="path1224"
       d="m 378.18571,121.01388 c -1.38716,0.21577 -2.05295,-0.052 -2.43753,-0.43597 -0.38458,-0.38391 -1.01973,-1.92792 -0.75502,-2.20049 0.26472,-0.27257 2.07385,-0.19503 2.47875,-0.0314 0.4049,0.16368 0.90928,1.76951 1.55414,1.94181 0.64486,0.1723 1.21952,1.2283 0.70262,0.005 -0.51689,-1.22332 -1.44591,-2.17432 -2.05756,-2.32077 -0.61166,-0.14645 -3.2909,-0.48243 -3.44597,-0.2326 -0.15507,0.24983 -1.57556,2.80584 0.48091,3.72547 2.05648,0.91962 4.13247,1.41003 5.08872,1.05681 0.95626,-0.35321 1.52798,-1.59881 0.83084,-1.37606 -0.69715,0.22276 -1.47658,0.28117 -1.6762,-0.0763 -0.19963,-0.35745 -0.45117,-0.55015 -1.04035,-0.6259 -0.58918,-0.0757 0.16273,0.0614 0.27665,0.57034 z"
       style="fill:#000000;fill-opacity:1;stroke:#d3d300;stroke-width:3.65102;stroke-linecap:square;stroke-opacity:0;paint-order:markers stroke fill" />
    <path
       id="path1226"
       d="m 382.85643,116.15198 c -1.11287,0.19225 -2.18973,0.96525 -2.1725,-0.5682 0.0172,-1.53346 0.93064,-1.51122 1.69713,-1.83498 0.7665,-0.32375 0.82068,-0.73057 -0.51504,-0.73057 -1.33572,0 -2.93809,-0.18091 -3.05009,1.10271 -0.11199,1.28362 1.05879,3.42777 2.26589,3.36747 1.20709,-0.0603 1.77461,-1.33643 1.77461,-1.33643 z"
       style="fill:#000000;fill-opacity:1;stroke:#d3d300;stroke-width:3.65102;stroke-linecap:square;stroke-opacity:0;paint-order:markers stroke fill" />
    <path
       id="path1228"
       d="m 378.81073,111.86615 c -0.6606,0.73338 -0.99929,2.29415 -1.6176,1.10548 -0.61831,-1.18867 -1.23858,-2.5825 -0.0411,-2.44466 1.19747,0.13784 1.65871,1.33918 1.65871,1.33918 z"
       style="fill:#000000;fill-opacity:1;stroke:#d3d300;stroke-width:3.65102;stroke-linecap:square;stroke-opacity:0;paint-order:markers stroke fill" />
    <path
       id="path1230"
       d="m 380.53365,108.54468 c -0.76159,0.69177 -1.46687,-0.10398 -0.97582,1.1021 0.49104,1.20609 0.83238,2.42186 1.41772,1.4242 0.58534,-0.99766 0.82448,-2.76865 -0.4419,-2.5263 z"
       style="fill:#000000;fill-opacity:1;stroke:#d3d300;stroke-width:3.65102;stroke-linecap:square;stroke-opacity:0;paint-order:markers stroke fill" />
    <path
       id="path1232"
       d="m 371.1654,130.70316 c -0.37012,-1.19542 -1.51197,-1.96377 -0.27643,-1.93659 1.23555,0.0272 0.99573,0.25535 0.95196,0.9933 -0.0438,0.73795 -0.42941,1.71069 0.39794,1.59373 0.82736,-0.11697 1.9663,-0.71924 1.00589,0.11233 -0.96041,0.83157 -1.8606,1.30129 -0.88848,1.7815 0.97212,0.4802 1.24203,-0.0799 1.74903,0.53876 0.507,0.61862 1.60996,1.34909 0.3159,1.30353 -1.29407,-0.0456 -1.89451,0.29067 -2.2958,-0.47147 -0.40128,-0.76215 -1.59594,-1.71085 -2.20498,-0.6216 -0.60904,1.08924 -0.552,2.27792 -0.89369,2.3599 -0.3417,0.082 -0.76027,0.55633 -0.95817,-0.14658 -0.1979,-0.70291 -0.794,-1.48965 -0.55976,-1.85273 0.23425,-0.36308 0.13907,-0.64448 1.5366,-1.38276 1.39752,-0.73828 1.71808,-1.39109 0.76566,-1.39109 -0.95242,0 -2.7719,-0.0469 -2.7719,-0.0469 0,0 0.39309,-0.66719 1.16713,-0.6789 0.77404,-0.0117 2.12351,-0.36689 0.74146,-0.55428 -1.38206,-0.1874 -2.58015,-0.13218 -2.05181,-0.72617 0.52833,-0.59398 1.41567,-0.37519 2.30077,-0.87379 0.88511,-0.4986 2.08432,-0.76218 -0.16038,-0.72704 -2.2447,0.0351 -2.81386,-0.28013 -3.13663,0.0351 -0.32278,0.31527 -0.30016,1.25428 -0.65569,1.33513 -0.35553,0.0809 -1.16102,-0.61478 -1.09075,-0.81014 0.0703,-0.19536 0.4685,-1.74138 1.75685,-1.88193 1.28835,-0.14055 4.41393,0.57943 4.41393,0.57943 l 0.23806,0.69876 c 0,0 -1.44875,0.53303 -1.09444,1.34555 0.35431,0.81252 1.69773,1.42487 1.69773,1.42487 z"
       style="fill:#000000;fill-opacity:1;stroke:#d3d300;stroke-width:3.65102;stroke-linecap:square;stroke-opacity:0;paint-order:markers stroke fill" />
    <path
       id="path1234"
       d="m 372.7917,92.393545 c -0.6411,0.130628 -1.24686,1.018795 -1.75631,-0.130728 -0.50944,-1.149523 0.60378,-2.344043 0.97318,-2.299046 0.3694,0.045 0.86549,1.042783 1.09337,1.571129 0.22788,0.528346 0.0796,0.797958 0.66088,0.203603 0.58129,-0.594355 1.45686,-1.253398 0.43107,-2.449267 -1.0258,-1.19587 -3.2334,-1.039117 -4.27842,0.136531 -1.04503,1.175649 -2.21414,3.004436 -0.19595,3.886171 2.0182,0.881736 3.87311,0.927456 4.23234,0.169816 0.35922,-0.75764 0.69479,-1.758121 0.20494,-1.56218 -0.48986,0.195941 -1.3651,0.473971 -1.3651,0.473971 z"
       style="fill:#000000;fill-opacity:1;stroke:#d3d300;stroke-width:3.65102;stroke-linecap:square;stroke-opacity:0;paint-order:markers stroke fill" />
    <path
       id="path1236"
       d="m 372.52724,97.285872 c -1.07543,-0.279951 -3.12992,0.227407 -3.18003,0.559381 -0.0501,0.331974 1.39054,3.250847 2.02317,3.401177 0.63263,0.15032 2.71843,0.48856 3.53897,-0.27561 0.82054,-0.76416 1.42331,-1.040112 0.9084,-1.697282 -0.51491,-0.657169 -1.66116,-2.035176 -1.97435,-2.367151 -0.31318,-0.331975 -1.71763,-0.329379 -1.31616,0.379485 z"
       style="fill:#000000;fill-opacity:1;stroke:#d3d300;stroke-width:3.65102;stroke-linecap:square;stroke-opacity:0;paint-order:markers stroke fill" />
    <path
       id="path1238"
       d="m 378.59595,98.706392 c -1.11493,-0.494829 -2.38862,-0.870871 -1.59313,-1.691411 0.79549,-0.820541 2.26745,-0.607576 2.50547,-0.181646 0.23802,0.425929 0.60804,2.006931 0.2067,2.073274 -0.40135,0.06634 -0.65615,-0.650581 -0.43671,0.398483 0.21944,1.049058 -0.10644,1.530988 0.66531,1.648518 0.77175,0.11753 2.87008,-0.34598 2.58195,-1.711464 -0.28813,-1.36548 0.33522,-2.505411 -1.96679,-3.100517 -2.30202,-0.595106 -4.46055,-1.789013 -4.80053,-0.651478 -0.33999,1.137535 0.25975,3.553738 1.11161,4.393069 0.85186,0.83933 1.68634,1.44487 1.85559,1.387 0.16925,-0.0579 0.58266,-0.41931 0.58266,-0.90313 0,-0.483816 0.85397,-1.046783 1.15178,-1.102925 0.29781,-0.05614 0.15591,-0.0438 -0.4972,-0.11896 -0.65312,-0.07516 -1.36671,-0.438813 -1.36671,-0.438813 z"
       style="fill:#000000;fill-opacity:1;stroke:#d3d300;stroke-width:3.65102;stroke-linecap:square;stroke-opacity:0;paint-order:markers stroke fill" />
    <path
       id="path1240"
       d="m 320.22963,111.78266 c -1.15386,0.6239 -1.63091,0.84048 -1.13785,1.68182 0.49306,0.84134 0.31396,1.60684 1.16851,1.22125 0.85455,-0.3856 0.5959,-1.39615 1.19295,-0.33887 0.59705,1.05727 -0.44374,1.69892 0.97291,2.34472 1.41665,0.64579 1.41666,1.41912 1.78982,0.43647 0.37316,-0.98264 0.17414,-3.59474 0.17414,-3.59474 0,0 -1.24689,0.14128 -2.17259,0.27785 -0.92569,0.13656 -1.09625,0.20421 -1.10869,-0.56698 -0.0124,-0.77119 0.43405,-2.4758 -0.8792,-1.46152 z"
       style="fill:#000000;fill-opacity:1;stroke:#d3d300;stroke-width:3.65102;stroke-linecap:square;stroke-opacity:0;paint-order:markers stroke fill" />
    <path
       id="path1242"
       d="m 324.82306,133.60792 c -0.11474,-3.13873 -1.19027,-3.08993 0.0288,-3.1014 1.21902,-0.0115 1.60944,-1.3656 2.93643,0.18254 1.32699,1.54815 2.43308,2.71239 2.67403,3.15505 0.24096,0.44266 -0.78286,1.36481 -0.89362,1.83877 -0.11076,0.47395 -1.07614,1.40023 -1.33666,1.40023 -0.26051,0 -2.14777,-1.86875 -2.25062,-2.06339 -0.10284,-0.19464 -1.15831,-1.4118 -1.15831,-1.4118 z"
       style="fill:#000000;fill-opacity:1;stroke:#d3d300;stroke-width:3.65102;stroke-linecap:square;stroke-opacity:0;paint-order:markers stroke fill" />
    <path
       id="path1244"
       d="m 288.13891,16.975358 6.00502,-0.223251 0.0827,-10.9824089 1.02701,0.2855679 -0.10681,12.04151 -7.04873,0.01116 z"
       style="fill:#000000;fill-opacity:1;stroke:#d3d300;stroke-width:3.65102;stroke-linecap:square;stroke-opacity:0;paint-order:markers stroke fill" />
    <path
       d="M 286.45312,4.6054688 V 195.08203 H 406.52344 V 4.6054688 Z M 288.36133,6.28125 H 404.41211 V 193.20703 H 288.36133 Z"
       style="fill:#000000;fill-opacity:1;stroke:#d3d300;stroke-width:3.65102;stroke-linecap:square;stroke-opacity:0;paint-order:markers stroke fill"
       id="rect1250" />
    <path
       id="path1262"
       d="m 319.41776,70.519638 c -0.85827,-1.24092 -0.0131,-2.293339 -0.44127,-4.326018 -0.42814,-2.03268 -2.5088,-5.124298 -2.6179,-6.335753 -0.10909,-1.211456 -1.30236,6.320189 0.2806,8.019178 1.58295,1.698989 2.31223,2.959847 2.26724,3.861921 -0.045,0.902073 -0.24973,1.34477 -0.24973,1.34477 0,0 0.34971,-1.562449 -0.36674,-2.194273 -0.71645,-0.631824 -3.41334,-2.99974 -3.5947,-5.07314 -0.18135,-2.073401 1.404,-6.428974 1.19103,-7.66383 -0.21297,-1.234857 1.41226,-2.149965 1.41226,-2.149965 0,0 -0.94964,2.511992 -0.0516,4.09144 0.89807,1.579448 2.7148,4.695167 2.79615,6.239237 0.0813,1.54407 -1.14698,2.899721 -0.62539,4.186433 z"
       style="fill:#000000;fill-opacity:1;stroke:#d3d300;stroke-width:3.65102;stroke-linecap:square;stroke-opacity:0;paint-order:markers stroke fill" />
    <path
       sodipodi:nodetypes="ccscscccccc"
       id="path1264"
       d="m 301.96322,35.389837 c -8.55826,0.0073 -12.23079,4.376061 -12.23079,4.376061 0,0 0.35513,-1.392149 2.92468,-3.208312 2.96023,-2.092303 4.43219,-2.129831 4.19936,-2.197175 0,0 -1.0999,-3.197936 -3.94789,-3.689898 -2.848,-0.491963 -4.8616,0.756169 -4.8616,0.756169 l 0.0103,-0.820235 c 0,0 4.0407,-1.153923 6.27415,0.05431 2.23346,1.20823 3.2785,3.552936 3.2785,3.552936 1.3947,-0.274901 1.90415,-0.214812 3.23486,-0.145213 z"
       style="fill:#000000;fill-opacity:1;stroke:#d3d300;stroke-width:3.65102;stroke-linecap:square;stroke-opacity:0;paint-order:markers stroke fill" />
    <path
       id="path1266"
       d="m 401.3669,27.392597 c 0,0 -0.31232,0.440761 -0.69257,0.108966 -0.38026,-0.331795 -0.98266,-0.727293 -0.24313,-0.921473 0.73954,-0.194181 1.3329,0.366222 1.07031,-0.02663 -0.2626,-0.392856 -1.29954,-0.920172 -1.56605,-0.147313 -0.26651,0.772859 -0.24868,1.095652 0.13733,1.432199 0.386,0.336548 1.40586,0.498066 1.29411,-0.445745 z"
       style="fill:#000000;fill-opacity:1;stroke:#d3d300;stroke-width:3.65102;stroke-linecap:square;stroke-opacity:0;paint-order:markers stroke fill" />
    <path
       id="path1268"
       d="m 402.2002,23.262912 c 0,0 -1.76175,0.289306 -1.96727,0.154741 -0.20551,-0.134566 -0.70306,-0.23376 -0.34278,-0.597817 0.36028,-0.364056 1.48757,-0.06986 2.33833,-0.223646 0.85077,-0.153783 1.1908,-0.21176 0.50588,-0.228847 -0.68493,-0.01709 -1.15222,-0.242707 -1.29488,-0.276881 -0.14265,-0.03417 -0.76794,-0.578663 -0.76794,-0.196058 0,0.382605 -0.1143,0.391781 -0.65492,0.458739 -0.54062,0.06696 -1.45027,-0.01994 -1.09144,0.766069 0.35883,0.786004 1.87784,1.799811 2.13414,1.278657 0.25631,-0.521155 1.14088,-1.134957 1.14088,-1.134957 z"
       style="fill:#000000;fill-opacity:1;stroke:#d3d300;stroke-width:3.65102;stroke-linecap:square;stroke-opacity:0;paint-order:markers stroke fill" />
    <path
       id="path1270"
       d="m 395.81654,22.207456 c 0,0 -0.7413,0.644237 -1.49791,0.287448 -0.75662,-0.35679 -0.0677,-0.727429 0.96608,-0.735972 1.03377,-0.0085 1.60442,-0.476472 0.73376,-0.559962 -0.87066,-0.08349 -2.44738,-0.585327 -2.72009,-0.26202 -0.27272,0.323307 -0.46268,1.366379 0.0308,1.876767 0.49351,0.510388 0.70184,1.251051 0.77018,0.832419 0.0683,-0.418632 0.97097,-0.440714 1.42178,-0.630506 0.45081,-0.189792 0.29538,-0.808174 0.29538,-0.808174 z"
       style="fill:#000000;fill-opacity:1;stroke:#d3d300;stroke-width:3.65102;stroke-linecap:square;stroke-opacity:0;paint-order:markers stroke fill" />
    <path
       id="path1272"
       d="m 391.91509,85.588828 c 0,0 0.52139,-0.927623 0.18938,-1.109617 -0.33201,-0.181994 -0.95378,-0.344549 -0.12898,-0.344549 0.8248,0 1.56948,0.179139 1.66183,-0.02936 0.0923,-0.208498 -0.12426,-0.421609 0.24063,-0.671975 0.36489,-0.250365 1.93179,0.434732 1.97257,-0.174246 0.0408,-0.608979 1.06759,-2.209053 0.0151,-2.402922 -1.05249,-0.19387 -4.59772,0.07306 -4.67915,-0.136081 -0.0814,-0.209145 -0.69408,-0.301689 -0.003,-0.39685 0.69141,-0.09516 2.35279,9.07e-4 2.35279,-0.173602 0,-0.174508 0.44421,-1.41937 0,-1.41937 -0.44421,0 -0.80507,-0.649735 -0.80507,-0.649735 0,0 2.27106,0.05295 2.27106,-0.128481 0,-0.181428 0.0408,-1.558892 0.0408,-1.558892 0,0 -0.0776,1.428909 0.32193,1.49688 0.39953,0.06797 1.03513,0.663087 0.63068,0.630902 -0.40445,-0.03219 -1.85703,-0.65801 -1.83817,0.03509 0.0189,0.693095 -0.76823,1.477985 0.0325,1.518769 0.80069,0.04078 2.99352,0.289687 3.00712,-0.203994 0.0136,-0.49368 -0.45391,-1.353398 0.0136,-1.176672 0.46751,0.176726 0.59463,0.77889 0.59463,1.031058 0,0.252169 -0.48911,0.652296 0.67811,0.408986 1.16722,-0.243309 1.56565,-0.314861 1.50038,-0.584041 -0.0653,-0.26918 0.41091,-0.673283 0.51915,-0.483938 0.10824,0.189344 0.60083,1.070813 0.60083,1.070813 0,0 0.28252,-0.587743 0.24103,-1.480951 -0.0415,-0.893208 0.29456,-1.897703 -0.15139,-2.03083 -0.44595,-0.133127 -1.52995,-0.605764 -1.51636,0.291685 0.0136,0.897449 -0.0707,1.640795 -0.0707,1.640795 0,0 -0.56905,0.223948 -0.4467,-0.465565 0.12235,-0.689514 -0.29555,-2.201731 -0.29555,-2.201731 0,0 -2.06224,-0.352343 -2.50974,0.02719 -0.4475,0.379531 -0.15338,1.049766 -0.47743,0.724757 -0.32404,-0.32501 -0.36342,-0.634047 -0.36342,-0.634047 l -0.43906,-0.309265 c 0,0 -0.50699,-0.571652 -0.25552,-1.06927 0.25147,-0.497617 0.89387,-0.225731 1.48498,-0.497617 0.59111,-0.271886 0.87708,-0.55583 0.74384,-0.88684 -0.13324,-0.331011 -0.32645,-0.4047 -0.31929,-0.616095 0.007,-0.211395 1.65611,-0.01832 2.04411,-0.327972 0.388,-0.309653 0.63154,-2.344292 0.90455,-1.430281 0.273,0.914012 0.0209,2.080327 0.0209,2.080327 0,0 -0.27142,-1.121457 -0.89296,-0.298902 -0.62153,0.822555 -0.30724,1.534386 0.12947,1.935048 0.43672,0.400662 1.08837,0.549549 1.1794,-0.06053 0.091,-0.61008 0.93655,-3.765665 1.15633,-2.51639 0.21978,1.249276 0.0668,2.763299 0.40679,2.337754 0.33998,-0.425546 0.99744,-0.987419 1.00086,-0.03923 0.003,0.948189 -0.72603,0.07679 -0.86102,0.686929 -0.135,0.610135 -0.75463,1.642194 0.0961,1.898363 0.85074,0.256169 1.361,0.207667 1.38819,0.823431 0.0272,0.615763 0.30969,0.367187 0.33688,-0.447344 0.0272,-0.81453 0.005,-2.41947 0.32392,-2.433064 0.31889,-0.01359 0.614,0.307152 0.27696,1.039051 -0.33705,0.731898 0.13292,2.847517 -0.20111,2.980185 -0.33402,0.132667 -0.27396,0.657175 -0.83065,-0.03524 -0.55668,-0.692417 -0.63848,-1.515519 -0.93637,-1.013237 -0.29789,0.502283 -0.4034,2.007354 -0.34018,2.390706 0.0632,0.383352 -0.8199,0.723102 -0.75193,1.392563 0.068,0.669461 -0.97472,1.112744 -1.11902,0.784947 -0.1443,-0.327796 0.1126,-1.595621 0.1126,-1.595621 0,0 -2.28273,-0.482105 -2.56553,0.21774 -0.28281,0.699845 -0.83577,0.368668 -0.83577,0.368668 0,0 -0.34675,0.598418 -0.0284,1.651641 0.3184,1.053224 2.36255,0.910211 1.88171,1.037741 -0.48083,0.12753 -3.82223,-0.363111 -4.26213,0.117174 -0.4399,0.480286 -1.15876,0.334101 -0.31092,0.614794 0.84783,0.280694 2.0934,0.23269 1.43565,0.506352 -0.65774,0.273662 -3.28395,-0.467561 -3.30078,-0.0304 -0.0168,0.437162 -0.27136,0.324416 -0.27136,0.324416 z"
       style="fill:#000000;fill-opacity:1;stroke:#d3d300;stroke-width:3.65102;stroke-linecap:square;stroke-opacity:0;paint-order:markers stroke fill" />
    <path
       id="path1274"
       d="m 397.96678,67.073963 c -0.35757,1.309702 0.4608,1.46259 -0.68393,1.751261 -1.14474,0.28867 -2.6494,0.455297 -2.6494,-0.266315 0,-0.721613 -0.95784,-2.094248 0.48551,-2.014614 1.44336,0.07963 2.28392,-0.08372 1.75481,-0.309545 -0.52911,-0.225827 -0.23045,-0.283515 0.48366,-0.14862 0.71411,0.134895 0.66913,-0.102574 0.46171,-0.463971 -0.20742,-0.361397 -0.734,-0.576597 -0.48047,-0.932782 0.25353,-0.356185 1.5156,-0.378412 2.00159,-0.437756 0.48599,-0.05934 1.28344,-0.867759 0.0292,-0.79808 -1.25423,0.06968 -3.20289,-0.40933 -3.30134,-0.530721 -0.0984,-0.121391 -0.0859,-0.897114 -0.85879,-1.084626 -0.77291,-0.187511 -2.77293,0.586622 -2.79283,-0.249833 -0.0199,-0.836456 -0.99433,-0.712998 1.14582,-0.653273 2.14015,0.05973 3.68551,0.87293 3.91446,0.289256 0.22894,-0.583675 -0.88516,-1.197511 -0.26309,-1.434515 0.62206,-0.237004 1.37814,0.05156 1.4748,-0.47312 0.0966,-0.524681 1.09022,-0.860018 -0.56562,-1.027708 -1.65585,-0.167689 -4.32605,-0.876271 -4.19692,-0.670956 0.12914,0.205315 1.40927,0.357312 1.93355,0.963429 0.52428,0.606117 0.95846,1.24783 0.21228,1.347372 -0.74619,0.09954 -3.12434,-0.0379 -4.10981,-0.535611 -0.98546,-0.497709 -2.11029,-1.592671 -2.29941,-0.338442 -0.18913,1.254228 -0.75844,1.964044 0.0406,2.033724 0.79906,0.06968 1.80189,-0.175636 1.18228,-0.463201 -0.61961,-0.287565 -0.84061,-1.410267 -0.32332,-1.189024 0.51729,0.221244 4.23192,0.932673 4.94799,1.099793 0.71608,0.167119 0.51807,0.647394 -0.383,0.325316 -0.90107,-0.322078 -3.43361,-0.621526 -3.42184,-0.331795 0.0118,0.289731 0.12398,0.309215 0.19179,0.888874 0.0678,0.579658 0.58781,0.819679 -0.4972,0.809725 -1.085,-0.01 -1.76349,-0.120823 -1.34363,0.449797 0.41985,0.57062 0.56531,0.620391 2.16794,0.52085 1.60262,-0.09954 1.89318,-0.427508 2.06639,-0.02267 0.1732,0.404838 0.99929,0.666203 1.20774,0.70602 0.20844,0.03982 1.08893,0.848548 0.44039,0.975524 -0.64854,0.126976 -2.41198,-0.300304 -3.04302,-0.200762 -0.63105,0.09954 -0.95372,0.200013 -0.45891,0.39509 0.49481,0.195078 0.92006,0.705718 0.70808,1.119658 -0.21197,0.41394 -2.02964,-0.40998 -1.51427,0.911135 0.51537,1.321116 0.84325,2.319851 1.05309,2.076172 0.20985,-0.243679 1.8101,-0.482578 1.6807,0.602066 -0.1294,1.084644 -0.006,3.296436 0.4302,2.432392 0.43592,-0.864044 1.99943,-2.062158 2.49897,-2.148135 0.49955,-0.08598 1.31719,-0.292879 1.41673,-0.969764 0.0995,-0.676886 0.92463,-2.570134 1.06399,-1.276088 0.13936,1.294045 -0.47319,2.341878 0.2018,2.570826 0.67499,0.228947 1.54582,-0.05598 1.76196,0.634674 0.21615,0.690658 -0.10025,1.210638 0.0468,1.494677 0.14703,0.284038 1.13746,1.059331 1.16733,0.402354 0.0299,-0.656976 -0.1845,-1.243503 0.56753,-1.243503 0.75204,0 1.37953,0.151192 1.22026,-0.177297 -0.15927,-0.328488 -0.6151,-0.698083 -1.08793,-0.560949 -0.47284,0.137134 -1.36831,0.514555 -1.36831,0.514555 0,0 0.23549,-1.145619 -0.0823,-1.345808 -0.3178,-0.200189 -1.36799,0.117817 -1.51618,-0.894762 -0.1482,-1.012579 -0.28424,-1.427757 0.73633,-1.248582 1.02058,0.179175 2.09221,0.377266 1.09282,0.04082 -0.99939,-0.336448 -2.13012,-1.057578 -2.4002,-1.057578 -0.27008,0 -0.58567,-0.223109 -0.90772,-0.193248 -0.32206,0.02986 -1.22449,0.01306 -1.23966,0.338298 z"
       style="fill:#000000;fill-opacity:1;stroke:#d3d300;stroke-width:3.65102;stroke-linecap:square;stroke-opacity:0;paint-order:markers stroke fill" />
    <path
       id="path1278"
       d="m 390.08414,33.38113 c 0,0 -7.54777,-1.946304 -7.48682,-1.469451 0.0609,0.476853 0.0609,0.476853 0.0609,0.476853 l -0.35571,1.671252 c 0,0 -2.30622,-0.851936 -2.17703,0.261508 0.12919,1.113443 1.1001,2.807829 0.9652,1.535121 -0.1349,-1.272708 -6.4e-4,-1.753399 0.62444,-1.117713 0.62507,0.635685 -0.10626,1.914958 0.39734,1.999969 0.5036,0.08501 1.49584,-0.309829 1.49584,-0.309829 0,0 -0.55754,-0.96738 1.19615,-0.787517 1.75369,0.179862 2.61164,-0.03203 1.7208,-0.47937 -0.89083,-0.447341 -4.0842,0.03316 -3.63203,-1.128204 0.45218,-1.16136 0.5296,-1.658132 1.01957,-1.392184 0.48997,0.265948 4.19747,1.027867 4.19747,1.027867 z"
       style="fill:#000000;fill-opacity:1;stroke:#d3d300;stroke-width:3.65102;stroke-linecap:square;stroke-opacity:0;paint-order:markers stroke fill" />
    <path
       id="path1280"
       d="m 391.88682,32.225959 c -1.60073,0.06745 -1.9297,-0.328055 -2.63844,-0.472176 -0.70874,-0.14412 -4.40521,-1.835562 -4.57927,-1.064307 -0.17406,0.771255 -0.0642,2.178425 -0.62625,0.829436 -0.56207,-1.34899 -1.49029,-2.796903 -0.86817,-3.089184 0.62211,-0.292281 1.53222,1.002111 1.53222,1.002111 0,0 3.74081,0.942085 3.27703,0.143507 -0.46378,-0.798578 -1.00495,-0.03993 -1.89081,-0.872432 -0.88587,-0.832505 0.86097,-0.953888 0.16416,-1.399677 -0.69682,-0.44579 -0.92167,-1.155151 -0.92167,-1.155151 l 1.84161,0.07744 c 0,0 1.62308,-1.871118 1.99591,-1.937701 0.37284,-0.06658 -0.0306,-0.190518 -0.27702,0.391691 -0.24645,0.582209 -1.17719,0.6689 -1.17969,1.539868 -0.002,0.870967 1.07558,0.05093 1.75007,0.995221 0.6745,0.944295 -1.25818,0.34797 -1.54296,0.332155 -0.28479,-0.01581 1.03168,0.752209 1.16035,1.132381 0.12867,0.380172 -0.78441,0.454074 -0.41584,1.355461 0.36857,0.901387 2.58518,0.87122 2.85497,1.387648 0.2698,0.516428 0.3638,0.803712 0.3638,0.803712 z"
       style="fill:#000000;fill-opacity:1;stroke:#d3d300;stroke-width:3.65102;stroke-linecap:square;stroke-opacity:0;paint-order:markers stroke fill" />
    <path
       id="path1282"
       d="m 395.50361,31.797082 c 0.78902,0.818869 2.06794,0.475897 3.40472,1.892206 1.33678,1.416309 1.27951,2.295048 1.58842,2.649881 0.3089,0.354834 0.79218,1.545454 0.22459,1.159073 -0.56759,-0.386381 -1.57486,-1.886987 -1.78383,-2.563531 -0.20898,-0.676545 -2.36656,-1.821227 -2.71925,-1.943151 -0.3527,-0.121925 -1.87203,-0.999444 -2.01183,-1.249678 -0.1398,-0.250234 1.36351,-0.552972 1.52931,-0.483074 0.1658,0.0699 2.3339,0.824081 1.50909,-0.55354 -0.82481,-1.377621 -1.71838,-2.253147 -1.71838,-2.253147 0,0 1.07341,-0.12038 1.93679,0.994642 0.86339,1.115022 1.04818,2.403818 0.64277,2.669434 -0.40542,0.265616 -2.6024,-0.319115 -2.6024,-0.319115 z"
       style="fill:#000000;fill-opacity:1;stroke:#d3d300;stroke-width:3.65102;stroke-linecap:square;stroke-opacity:0;paint-order:markers stroke fill" />
    <path
       sodipodi:nodetypes="csccsssssssssssscscsssssscsscscc"
       id="path1284"
       d="m 389.12853,11.483621 c -0.01,1.42248 -0.24947,2.11718 0.11622,2.617686 0.36569,0.500506 0.38391,0.800231 0.45234,0.321221 0.0684,-0.47901 0.41227,-0.200534 0.91084,0.0048 0.49856,0.20529 1.89493,0.62511 1.74829,-0.01031 -0.14664,-0.635422 0.3025,-0.413335 0.80729,-0.140707 0.50478,0.272629 -0.19949,0.279342 2.03915,0.220688 2.23864,-0.05865 4.02968,0.06488 3.52377,-0.434131 -0.84918,-0.837607 -2.84182,0.845474 -2.92003,-0.34928 -0.0782,-1.194755 -0.17302,-1.954874 0.9023,-1.798462 1.07533,0.156412 1.96076,-0.370747 1.88255,-0.671756 -0.0782,-0.301009 -0.43025,-0.520727 -0.93611,-0.210377 -0.50587,0.31035 -2.07716,-0.0198 -2.03806,-0.498807 0.0391,-0.479009 1.21719,-0.5475471 1.3242,-0.9282743 0.107,-0.3807272 -0.0504,-0.2481869 -0.12761,-0.8337406 -0.0772,-0.5855536 -0.78507,-0.5334025 -1.347,-0.4747484 -0.56193,0.058654 -0.49609,0.049704 -0.42766,0.5873688 0.0684,0.5376644 -0.50494,2.0323365 -1.14174,1.7987315 -0.6368,-0.233606 -1.50427,-1.2518523 -1.50427,-1.2518523 0,0 1.3103,-0.8523019 0.626,-0.989162 -0.6843,-0.1368601 -3.67463,-0.2947571 -3.61791,-0.054339 0.0567,0.2404184 1.03872,0.1213829 1.5275,0.268019 0.48879,0.146636 0.49452,1.8366923 0.54111,2.1667623 0.0466,0.33007 0.27,-0.822702 0.41346,-0.8297753 0.14346,-0.00707 0.58163,0.4393173 1.07019,0.9191773 0.48856,0.479861 1.46503,0.828065 1.52368,1.310359 0.0587,0.482294 0.36399,1.028081 0.0784,1.396721 -0.28558,0.36864 -1.06546,-0.09914 -1.88722,-0.320103 -0.82176,-0.220962 -0.95119,0.559307 -0.95119,0.559307 0,0 -1.1185,0.40864 -1.57796,-0.359023 -0.45946,-0.767664 -0.75241,-3.280374 -1.01055,-2.015949 z"
       style="fill:#000000;fill-opacity:1;stroke:#d3d300;stroke-width:3.65102;stroke-linecap:square;stroke-opacity:0;paint-order:markers stroke fill" />
    <path
       id="path1286"
       d="m 398.31562,8.4640525 c 0.59498,1.1117897 0.95333,-0.4416799 1.45732,0.4676811 0.50399,0.9093611 0.55204,2.0262814 1.06608,2.0881354 0.51405,0.06185 0.95385,0.163721 0.82106,-1.001855 -0.13279,-1.1655759 -1.91484,-2.6688653 -3.34446,-1.5539615 z"
       style="fill:#000000;fill-opacity:1;stroke:#d3d300;stroke-width:3.65102;stroke-linecap:square;stroke-opacity:0;paint-order:markers stroke fill" />
    <path
       id="path1288"
       d="m 387.67727,8.1441235 c -1.07186,0.2313672 -0.55758,1.0652813 -0.59614,2.5123185 -0.0386,1.447036 0.30324,2.7418 0.51322,2.045579 0.20997,-0.696222 1.2787,-4.1927973 0.0829,-4.5578975 z"
       style="fill:#000000;fill-opacity:1;stroke:#d3d300;stroke-width:3.65102;stroke-linecap:square;stroke-opacity:0;paint-order:markers stroke fill" />
    <path
       id="path1290"
       d="m 402.07823,32.204351 c -0.24161,0.39892 -0.42982,1.30423 -0.0712,2.343968 0.3586,1.039738 -0.42632,2.437009 0.14565,2.722804 0.57198,0.285795 0.59632,-0.613785 0.91044,-1.254634 0.31411,-0.64085 -0.02,-0.431665 -0.43422,-1.019407 -0.4142,-0.587742 0.05,-2.049511 0.05,-2.732156 0,-0.682646 -0.33916,-0.609583 -0.6007,-0.06058 z"
       style="fill:#000000;fill-opacity:1;stroke:#d3d300;stroke-width:3.65102;stroke-linecap:square;stroke-opacity:0;paint-order:markers stroke fill" />
    <path
       id="path1292"
       d="m 383.84797,38.134724 c 0,0 -2.85792,-0.180302 -0.5384,0 2.31953,0.180302 2.49134,0.25077 2.43725,1.475452 -0.0541,1.224682 0.39,4.264976 -0.12194,4.096517 -0.51194,-0.168458 -1.26829,-1.187629 -1.0339,-2.04619 0.2344,-0.858561 0.72765,-1.874897 -0.14648,-2.212556 -0.87412,-0.337659 -1.56072,-1.326378 -0.89174,-1.348704 0.66897,-0.02233 0.29521,0.03548 0.29521,0.03548 z"
       style="fill:#000000;fill-opacity:1;stroke:#d3d300;stroke-width:3.65102;stroke-linecap:square;stroke-opacity:0;paint-order:markers stroke fill" />
    <path
       id="path1294"
       d="m 298.77525,100.58831 c -0.0151,0.24797 0.10334,4.23917 0.35987,6.29143 0.25654,2.05226 0.8366,5.95168 0.50258,7.11375 -0.33402,1.16208 -0.47526,1.96933 -0.63092,1.213 -0.15567,-0.75633 -1.55591,-2.15475 -1.79271,-3.41768 -0.2368,-1.26293 -0.45387,-4.9584 -0.4144,-6.04373 0.0395,-1.08532 0.296,-5.968171 0.296,-5.968171 0,0 0.6701,-1.021894 1.27917,-0.228006 0.60907,0.793887 0.40041,1.039407 0.40041,1.039407 z"
       style="fill:#000000;fill-opacity:1;stroke:#d3d300;stroke-width:3.65102;stroke-linecap:square;stroke-opacity:0;paint-order:markers stroke fill" />
    <path
       id="path1296"
       d="m 308.61514,89.887769 c -0.0871,0.453877 -0.85669,4.183462 -0.46202,6.314648 0.39466,2.131187 1.71679,5.604243 1.65759,8.978623 -0.0592,3.37438 1.23925,6.19229 1.23925,6.19229 0,0 1.13085,-3.22794 1.32818,-4.037 0.19734,-0.80906 0.63147,-2.54559 -0.57226,-6.66984 -1.20373,-4.124241 -1.75078,-4.809477 -1.80998,-6.368406 -0.0592,-1.558928 -0.65389,-6.045895 -1.38076,-4.410315 z"
       style="fill:#000000;fill-opacity:1;stroke:#d3d300;stroke-width:3.65102;stroke-linecap:square;stroke-opacity:0;paint-order:markers stroke fill" />
  </g>
</svg>
