<?xml version="1.0" encoding="UTF-8" standalone="no"?>
<svg
   xmlns:osb="http://www.openswatchbook.org/uri/2009/osb"
   xmlns:dc="http://purl.org/dc/elements/1.1/"
   xmlns:cc="http://creativecommons.org/ns#"
   xmlns:rdf="http://www.w3.org/1999/02/22-rdf-syntax-ns#"
   xmlns:svg="http://www.w3.org/2000/svg"
   xmlns="http://www.w3.org/2000/svg"
   xmlns:sodipodi="http://sodipodi.sourceforge.net/DTD/sodipodi-0.dtd"
   xmlns:inkscape="http://www.inkscape.org/namespaces/inkscape"
   width="725.5293"
   height="1075.7971"
   viewBox="0 0 191.96297 284.638"
   version="1.1"
   id="svg3384"
   inkscape:version="1.0 (4035a4fb49, 2020-05-01)"
   sodipodi:docname="zzzzzzzzipclif.svg">
  <defs
     id="defs3378">
    <pattern
       inkscape:stockid="Polka dots, large"
       id="Polkadots-large"
       patternTransform="translate(0,0) scale(10,10)"
       height="10"
       width="10"
       patternUnits="userSpaceOnUse"
       inkscape:collect="always">
      <circle
         id="circle6104"
         r="0.45"
         cy="0.810"
         cx="2.567"
         style="fill:black;stroke:none" />
      <circle
         id="circle6106"
         r="0.45"
         cy="2.33"
         cx="3.048"
         style="fill:black;stroke:none" />
      <circle
         id="circle6108"
         r="0.45"
         cy="2.415"
         cx="4.418"
         style="fill:black;stroke:none" />
      <circle
         id="circle6110"
         r="0.45"
         cy="3.029"
         cx="1.844"
         style="fill:black;stroke:none" />
      <circle
         id="circle6112"
         r="0.45"
         cy="1.363"
         cx="6.08"
         style="fill:black;stroke:none" />
      <circle
         id="circle6114"
         r="0.45"
         cy="4.413"
         cx="5.819"
         style="fill:black;stroke:none" />
      <circle
         id="circle6116"
         r="0.45"
         cy="4.048"
         cx="4.305"
         style="fill:black;stroke:none" />
      <circle
         id="circle6118"
         r="0.45"
         cy="3.045"
         cx="5.541"
         style="fill:black;stroke:none" />
      <circle
         id="circle6120"
         r="0.45"
         cy="5.527"
         cx="4.785"
         style="fill:black;stroke:none" />
      <circle
         id="circle6122"
         r="0.45"
         cy="5.184"
         cx="2.667"
         style="fill:black;stroke:none" />
      <circle
         id="circle6124"
         r="0.45"
         cy="1.448"
         cx="7.965"
         style="fill:black;stroke:none" />
      <circle
         id="circle6126"
         r="0.45"
         cy="5.049"
         cx="7.047"
         style="fill:black;stroke:none" />
      <circle
         id="circle6128"
         r="0.45"
         cy="0.895"
         cx="4.340"
         style="fill:black;stroke:none" />
      <circle
         id="circle6130"
         r="0.45"
         cy="0.340"
         cx="7.125"
         style="fill:black;stroke:none" />
      <circle
         id="circle6132"
         r="0.45"
         cy="1.049"
         cx="9.553"
         style="fill:black;stroke:none" />
      <circle
         id="circle6134"
         r="0.45"
         cy="2.689"
         cx="7.006"
         style="fill:black;stroke:none" />
      <circle
         id="circle6136"
         r="0.45"
         cy="2.689"
         cx="8.909"
         style="fill:black;stroke:none" />
      <circle
         id="circle6138"
         r="0.45"
         cy="4.407"
         cx="9.315"
         style="fill:black;stroke:none" />
      <circle
         id="circle6140"
         r="0.45"
         cy="3.870"
         cx="7.820"
         style="fill:black;stroke:none" />
      <circle
         id="circle6142"
         r="0.45"
         cy="5.948"
         cx="8.270"
         style="fill:black;stroke:none" />
      <circle
         id="circle6144"
         r="0.45"
         cy="7.428"
         cx="7.973"
         style="fill:black;stroke:none" />
      <circle
         id="circle6146"
         r="0.45"
         cy="8.072"
         cx="9.342"
         style="fill:black;stroke:none" />
      <circle
         id="circle6148"
         r="0.45"
         cy="9.315"
         cx="8.206"
         style="fill:black;stroke:none" />
      <circle
         id="circle6150"
         r="0.45"
         cy="9.475"
         cx="9.682"
         style="fill:black;stroke:none" />
      <circle
         id="circle6152"
         r="0.45"
         cy="6.186"
         cx="9.688"
         style="fill:black;stroke:none" />
      <circle
         id="circle6154"
         r="0.45"
         cy="6.296"
         cx="3.379"
         style="fill:black;stroke:none" />
      <circle
         id="circle6156"
         r="0.45"
         cy="8.204"
         cx="2.871"
         style="fill:black;stroke:none" />
      <circle
         id="circle6158"
         r="0.45"
         cy="8.719"
         cx="4.59"
         style="fill:black;stroke:none" />
      <circle
         id="circle6160"
         r="0.45"
         cy="9.671"
         cx="3.181"
         style="fill:black;stroke:none" />
      <circle
         id="circle6162"
         r="0.45"
         cy="7.315"
         cx="5.734"
         style="fill:black;stroke:none" />
      <circle
         id="circle6164"
         r="0.45"
         cy="6.513"
         cx="6.707"
         style="fill:black;stroke:none" />
      <circle
         id="circle6166"
         r="0.45"
         cy="9.670"
         cx="5.730"
         style="fill:black;stroke:none" />
      <circle
         id="circle6168"
         r="0.45"
         cy="8.373"
         cx="6.535"
         style="fill:black;stroke:none" />
      <circle
         id="circle6170"
         r="0.45"
         cy="7.154"
         cx="4.37"
         style="fill:black;stroke:none" />
      <circle
         id="circle6172"
         r="0.45"
         cy="7.25"
         cx="0.622"
         style="fill:black;stroke:none" />
      <circle
         id="circle6174"
         r="0.45"
         cy="5.679"
         cx="0.831"
         style="fill:black;stroke:none" />
      <circle
         id="circle6176"
         r="0.45"
         cy="8.519"
         cx="1.257"
         style="fill:black;stroke:none" />
      <circle
         id="circle6178"
         r="0.45"
         cy="6.877"
         cx="1.989"
         style="fill:black;stroke:none" />
      <circle
         id="circle6180"
         r="0.45"
         cy="3.181"
         cx="0.374"
         style="fill:black;stroke:none" />
      <circle
         id="circle6182"
         r="0.45"
         cy="1.664"
         cx="1.166"
         style="fill:black;stroke:none" />
      <circle
         id="circle6184"
         r="0.45"
         cy="0.093"
         cx="1.151"
         style="fill:black;stroke:none" />
      <circle
         id="circle6186"
         r="0.45"
         cy="10.093"
         cx="1.151"
         style="fill:black;stroke:none" />
      <circle
         id="circle6188"
         r="0.45"
         cy="4.451"
         cx="1.302"
         style="fill:black;stroke:none" />
      <circle
         id="circle6190"
         r="0.45"
         cy="3.763"
         cx="3.047"
         style="fill:black;stroke:none" />
    </pattern>
    <linearGradient
       id="linearGradient6754"
       osb:paint="solid">
      <stop
         style="stop-color:#db6c30;stop-opacity:1;"
         offset="0"
         id="stop6752" />
    </linearGradient>
    <filter
       id="filter2581"
       inkscape:label="Drop Shadow"
       style="color-interpolation-filters:sRGB;">
      <feFlood
         id="feFlood2571"
         result="flood"
         flood-color="rgb(255,246,87)"
         flood-opacity="1" />
      <feComposite
         id="feComposite2573"
         result="composite1"
         operator="in"
         in2="SourceGraphic"
         in="flood" />
      <feGaussianBlur
         id="feGaussianBlur2575"
         result="blur"
         stdDeviation="0.5"
         in="composite1" />
      <feOffset
         id="feOffset2577"
         result="offset"
         dy="0"
         dx="0" />
      <feComposite
         id="feComposite2579"
         result="composite2"
         operator="over"
         in2="offset"
         in="SourceGraphic" />
    </filter>
  </defs>
  <sodipodi:namedview
     inkscape:snap-nodes="false"
     id="base"
     pagecolor="#ffffff"
     bordercolor="#666666"
     borderopacity="1.0"
     inkscape:pageopacity="0.0"
     inkscape:pageshadow="2"
     inkscape:zoom="0.83083442"
     inkscape:cx="151.39737"
     inkscape:cy="617.88918"
     inkscape:document-units="mm"
     inkscape:current-layer="g1340"
     inkscape:document-rotation="0"
     showgrid="false"
     inkscape:snap-global="true"
     fit-margin-top="0"
     fit-margin-left="0"
     fit-margin-right="0"
     fit-margin-bottom="0"
     units="px"
     inkscape:window-width="1898"
     inkscape:window-height="1034"
     inkscape:window-x="10"
     inkscape:window-y="34"
     inkscape:window-maximized="0" />
  <metadata
     id="metadata3381">
    <rdf:RDF>
      <cc:Work
         rdf:about="">
        <dc:format>image/svg+xml</dc:format>
        <dc:type
           rdf:resource="http://purl.org/dc/dcmitype/StillImage" />
        <dc:title></dc:title>
      </cc:Work>
    </rdf:RDF>
  </metadata>
  <g
     inkscape:label="Layer 1"
     inkscape:groupmode="layer"
     id="layer1"
     style="display:inline"
     transform="translate(-4.901144,-7.3673815)">
    <path
       style="opacity:1;fill:#7495b8;fill-opacity:1;stroke:#000000;stroke-width:0.423333;stroke-linecap:round;stroke-opacity:0"
       d="m 16.223725,40.262108 4.828092,46.044138 34.466507,-0.613489 3.740936,24.777483 -3.202202,2.68078 0.796423,6.6504 2.580589,2.73885 2.187332,5.58182 -9.10549,11.87564 -4.530714,4.03862 0.619773,7.96911 0.686917,2.05064 3.703611,1.70167 33.766431,9.35369 2.564749,43.07847 -41.742812,-4.34655 -1.741646,-9.49708 -22.884497,-0.3191 -5.361863,32.93631 66.032341,26.30918 17.228458,38.01646 76.94845,0.0439 3.24408,-65.81831 -6.55506,-21.61621 -4.20495,-7.59461 -5.81945,-9.06931 -9.96131,-5.88126 -3.02752,-0.90484 c 0,0 -2.56805,2.108 -2.6087,2.23891 -0.0406,0.13092 0.48421,3.69882 0.48421,3.69882 l -3.1521,0.22912 -3.34072,-1.47407 -2.27871,-0.82629 -3.28215,0.77697 -0.96065,-1.18765 -1.21487,-3.1731 0.008,-4.2472 -1.07489,-0.52216 -1.99168,0.3263 -0.74551,2.42861 c 0,0 -0.16892,4.92591 -0.16892,5.06539 0,0.13948 -0.83892,5.38464 -0.83892,5.38464 l -0.50134,0.50848 -3.08542,-6.12772 -2.00046,-4.94533 -1.81452,-0.64111 -7.90971,-1.23911 -2.36591,-0.36214 0.40018,6.34802 2.92407,2.35425 10.2693,3.48588 1.70068,3.62542 1.82437,3.12271 1.14698,2.17385 -1.04961,2.87458 -1.99953,6.28082 -1.13777,1.82696 -0.76896,0.60393 -0.88744,1.56926 -7.82933,0.91167 -3.89564,-0.0345 -7.44963,-9.86866 -2.23384,3.13225 -11.071403,-60.2548 c 0,0 -6.110348,-37.66598 -8.944655,-36.6474 -2.834304,1.01857 -23.431087,-2.28681 -23.431087,-2.28681 L 60.2455,77.501683 37.715494,64.085882 47.995974,43.090414 Z"
       id="path4666" />
    <path
       style="opacity:1;fill:#e9a39e;fill-opacity:1;stroke:#000000;stroke-width:0.423333;stroke-linecap:round;stroke-opacity:0"
       d="m 19.130437,96.123944 3.50188,38.918296 39.371884,-6.03977 -3.967075,-12.59303 c 0,0 -4.069432,-31.396258 -5.464418,-31.222847 -1.394984,0.173408 -32.855556,11.057789 -32.855556,11.057789 z"
       id="path4669" />
    <path
       style="opacity:1;fill:#edd540;fill-opacity:1;stroke:#000000;stroke-width:0.423333;stroke-linecap:round;stroke-opacity:0"
       d="m 21.342919,144.83669 0.07425,16.99006 14.244362,-5.07714 -16.234375,24.91704 25.794255,-3.83293 8.901245,-0.50783 -0.102325,-10.54858 -0.633743,-12.89293 -3.798846,-0.97043 0.345454,-7.23495 z"
       id="path4671" />
    <path
       style="opacity:1;fill:#f19a9c;fill-opacity:1;stroke:#000000;stroke-width:0.423333;stroke-linecap:round;stroke-opacity:0"
       d="m 41.883861,178.70113 12.336225,-1.35143 0.484367,-5.81001 26.843357,-4.37136 1.83079,30.94556 -0.308631,6.21007 -35.995829,-1.15565 z"
       id="path4673" />
    <path
       style="opacity:1;fill:#edd540;fill-opacity:1;stroke:#000000;stroke-width:0.423333;stroke-linecap:round;stroke-opacity:0"
       d="M 45.336391,62.01607 63.376066,108.41391 92.0796,104.04069 74.426227,53.6649 Z"
       id="path4675" />
    <path
       style="opacity:1;fill:#f2d1c1;fill-opacity:1;stroke:#000000;stroke-width:0.423333;stroke-linecap:round;stroke-opacity:0"
       d="m 103.88311,126.00088 -9.584661,22.54731 9.623761,52.92 2.93415,1.62754 6.33769,7.92001 c 0,0 2.38069,0.78403 2.60497,0.73419 0.22428,-0.0498 6.69471,-0.96314 6.69471,-0.96314 l 2.36903,-0.45592 2.94237,-2.98208 2.81436,-8.25503 0.14101,-2.14147 -1.42456,-2.8694 0.73901,-3.32087 0.0636,-1.34026 0.77427,-2.98287 0.42782,-8.36325 1.01804,-1.55788 2.01936,-0.61547 0.80803,0.43467 0.51241,6.47545 1.08238,1.69781 c 0,0 2.83554,-0.65481 3.08691,-0.65481 0.25138,0 1.58245,0.36318 1.58245,0.36318 l 1.63772,1.61918 4.04306,1.04619 2.13033,-0.17663 0.34346,-4.29047 3.62242,-2.82793 6.45425,0.25137 5.44405,0.0565 4.13636,-2.96215 3.61,-1.9637 7.37164,-4.05951 14.17108,-11.66142 -0.26003,-29.6446 -1.00943,-47.721817 -27.01292,3.617296 -7.83275,-6.748309 4.68239,-11.269308 -0.45694,-6.35967 3.75028,1.77822 3.48019,-3.192442 0.71243,-5.023114 -2.97561,-6.529658 -2.53191,-2.408663 -1.78275,1.673815 -0.36543,1.601385 -0.79927,-0.73946 -3.95837,-7.383883 -8.01901,-8.363275 -10.72516,-5.18377 -6.80765,-0.61387 -2.07916,1.232212 -4.04993,-0.01736 -3.585,4.016436 -2.5921,3.956595 -0.36221,8.428628 v 2.86771 l -0.8279,1.726528 -0.63392,0.82282 0.17244,5.053729 -1.58586,4.984464 -0.943,2.223233 1.85637,3.863194 2.72327,2.478517 2.5783,2.369788 4.18633,5.220554 2.84944,2.350244 7.55077,5.815896 0.59169,4.274322 -2.69755,3.328311 0.45496,2.278221 0.75229,5.757129 6.22815,14.513832 c 0,0 2.20423,-2.27292 2.20423,-2.55386 0,-0.28095 4.97816,-8.00854 4.97816,-8.00854 l 16.32071,-15.364689 8.68904,-3.426391 17.45324,-2.49193 1.25702,45.16344 -0.36829,1.21496 -10.73963,-3.62922 -8.06652,3.20177 2.7823,14.69579 -0.6752,4.99358 c 0,0 -2.53129,5.06412 -2.75956,5.27483 -0.22827,0.21071 -4.246,4.07798 -4.246,4.07798 l -4.2904,4.1541 -2.39353,1.38237 -6.18101,-2.26446 -2.22421,-0.47582 -9.33943,0.53178 -8.0053,8.01475 -1.83633,3.29968 -1.42709,0.22485 -6.16125,-0.80772 -8.68233,1.43562 -4.27647,1.24866 -2.18295,0.38715 0.66782,1.97627 5.3549,1.06989 4.95179,0.51807 1.52094,1.14287 3.4816,8.3352 0.7961,2.68873 -0.84488,2.97195 -0.2164,0.10603 -2.50141,-5.16613 -5.75804,-1.68041 -8.47336,-4.03182 0.18559,-8.31499 0.007,-6.09204 0.98271,-9.10162 1.50805,-10.3834 4.92433,-9.10656 1.37485,-4.65298 -1.5957,-3.07387 -5.75753,-4.87472 -8.94125,-1.78345 z"
       id="path4679" />
    <path
       style="opacity:1;fill:#fbf8f9;fill-opacity:1;stroke:#000000;stroke-width:0.423333;stroke-linecap:round;stroke-opacity:0"
       d="m 118.35572,57.920209 -0.0685,-3.089621 11.08043,-4.745323 2.90121,1.305808 3.35783,7.311597 -2.19316,3.864382 -2.17558,1.38022 -7.3268,1.372005 -5.69476,-4.811072 z"
       id="path4682" />
    <path
       style="opacity:1;fill:#fbf8f9;fill-opacity:1;stroke:#000000;stroke-width:0.423333;stroke-linecap:round;stroke-opacity:0"
       d="m 138.66751,51.127305 1.76786,5.866307 1.81438,3.622193 3.51919,-0.583168 5.47648,-0.647946 6.7353,-2.677088 0.67179,-2.430291 -2.48206,-4.880911 -1.70461,-2.371995 -1.20758,-0.924481 -1.70957,-0.356862 -7.58183,1.651132 -3.83303,1.007851 -1.53394,1.182317 z"
       id="path4684" />
    <path
       style="opacity:1;fill:#c09f6b;fill-opacity:1;stroke:#000000;stroke-width:0.423333;stroke-linecap:round;stroke-opacity:0"
       d="m 133.65206,26.728671 10.08223,1.915057 8.30385,5.828466 4.06364,4.251973 3.00694,3.97582 3.32956,6.526059 0.46312,-0.435652 1.31299,-2.580323 2.21181,0.379585 2.15144,4.184845 1.94882,5.143201 -1.26614,4.131818 -1.36398,2.200987 -1.86722,0.694261 -2.18123,-1.203928 -1.35744,-0.382929 0.67504,3.795671 -1.64019,8.198619 -2.82236,5.81007 10.19992,2.336007 17.38766,-2.005402 6.03703,-18.43293 -15.52128,-38.998366 -22.98479,-11.965883 -29.40699,3.036295 -18.64253,15.575937 -7.735325,26.861476 2.177525,28.13768 12.22963,2.014191 14.67254,4.92919 12.10239,-4.171635 -0.55407,-2.151157 -9.226,-6.272488 -8.04694,-9.588902 -2.69224,-0.519218 -2.8698,-6.383621 2.13783,-3.732834 0.30306,-3.994793 0.2457,-4.355116 1.11089,-1.30733 0.11624,-4.849595 -0.006,-7.953214 6.26858,-6.986884 1.15441,-0.546901 5.81962,-0.418529 z"
       id="path4686" />
    <path
       style="opacity:1;fill:#db6c30;fill-opacity:1;stroke:#000000;stroke-width:0.423333;stroke-linecap:round;stroke-opacity:0"
       d="m 118.60072,130.44682 -6.02838,-4.20469 -9.15995,-0.7474 19.17371,-29.906485 13.48469,-4.50183 -0.3674,1.055695 0.51133,1.888699 0.79677,6.013841 0.77422,2.11408 5.6364,12.32622 2.9103,-5.43363 5.12535,-6.53565 15.64084,-14.131191 24.99871,-1.662358 2.98427,42.820379 -6.79498,-3.03521 -5.06917,-0.90549 -8.40079,2.19615 1.03004,6.02097 1.64822,11.51924 -1.64102,4.98661 -4.01619,6.598 -8.50609,6.14445 -1.78662,-0.78984 -5.29341,-2.08374 -10.71228,0.39319 -4.36008,3.74553 -5.6385,7.31259 -0.0607,7.55219 0.13673,4.02202 1.73781,1.23324 6.4689,-1.16694 3.29892,3.26971 2.24638,-0.71614 0.68648,-4.36043 3.66742,-2.25585 6.94016,0.33865 2.96145,-0.0169 13.01601,-5.77505 2.09007,-1.34574 9.98121,17.86017 -3.24879,24.3668 -7.23031,0.93771 -4.5078,-12.5572 -4.36198,-9.79735 -6.66567,-6.77028 -8.9292,-5.4895 -2.00404,-0.0373 -1.54637,1.4309 -0.3966,3.46838 -0.26929,0.75515 -2.75315,0.32007 -2.66113,-1.92115 -3.33482,-0.9172 -3.25853,0.91285 -0.88076,-0.21853 -0.77741,-1.00768 -0.78469,-1.85422 -0.10567,-6.28397 -0.26614,-2.88197 -2.46956,-0.76996 -6.32273,-0.46963 -7.02513,1.20629 -5.09078,1.86801 -1.14864,0.32449 -0.77202,-0.10002 0.18756,-3.22614 0.0692,-5.04986 0.94793,-6.13661 2.05367,-12.75228 4.39341,-9.12481 2.48453,-4.17982 z"
       id="path4688"
       sodipodi:nodetypes="ccccccccccccccccccccccccccccccccccccccccccccccccccccccccccccccccccccccccc" />
  </g>
  <g
     inkscape:groupmode="layer"
     id="layer6"
     inkscape:label="Layer 3"
     transform="translate(-4.901144,-7.3673815)">
    <path
       style="opacity:1;mix-blend-mode:darken;fill:url(#Polkadots-large);fill-opacity:1;fill-rule:nonzero;stroke:#000000;stroke-width:2.03946;stroke-linecap:round;stroke-opacity:0"
       d="m 425.99637,655.32836 c -0.4227,-1.10155 -0.48861,-8.80007 -0.14645,-17.10781 l 0.62209,-15.105 12.61442,-26.54073 c 7.26817,-15.29225 14.46018,-28.6003 16.9695,-31.40029 5.36099,-5.98197 5.70961,-10.96735 1.11174,-15.89807 -6.35867,-6.81899 -7.09657,-11.76344 -1.75555,-11.76344 2.38479,0 3.10463,-1.05323 4.3208,-6.32197 2.00066,-8.66735 7.85408,-17.60674 13.68051,-20.89302 6.64645,-3.7488 6.73713,-5.34971 0.41802,-7.3799 -5.02468,-1.61432 -5.4976,-2.16928 -6.90778,-8.10627 -0.83261,-3.50532 -3.02096,-10.25818 -4.86301,-15.00637 -4.38243,-11.29644 -4.29514,-14.101 0.54619,-17.54833 4.67337,-3.32773 4.94686,-9.24741 0.45686,-9.88898 -2.02027,-0.28868 -3.38525,0.99029 -5.68647,5.32812 -2.94858,5.55814 -2.98662,6.01986 -1.44882,17.58778 0.8686,6.53389 1.91699,13.4572 2.32976,15.38513 0.43464,2.0301 0.20129,3.50532 -0.55449,3.50532 -0.71773,0 -6.62566,-3.96282 -13.12872,-8.80627 -12.21699,-9.09916 -22.5593,-13.37313 -36.92187,-15.25804 l -6.03174,-0.79159 5.79278,-10.19729 c 21.93575,-38.61451 40.69098,-68.24378 52.17032,-82.41802 5.5094,-6.8028 8.82508,-9.49937 16.70308,-13.58424 10.9181,-5.66121 33.05261,-13.76396 34.27102,-12.54555 0.43041,0.43041 1.87678,8.68222 3.21415,18.33734 2.29338,16.55698 2.97256,18.82264 11.94929,39.86134 5.23475,12.26862 10.61008,23.7258 11.94519,25.46042 2.33062,3.02798 2.52625,3.06445 4.90244,0.91404 1.36122,-1.23189 8.43169,-10.90949 15.71216,-21.50578 12.20982,-17.77066 15.4632,-21.42646 41.9171,-47.10185 l 28.67988,-27.83586 19.75726,-0.33734 c 34.42293,-0.58774 47.33912,0.0648 50.06207,2.52899 3.81122,3.44911 11.85459,21.50187 16.65059,37.37105 7.90752,26.16471 12.82056,55.62526 14.38981,86.28719 l 0.86512,16.90369 -5.89042,-2.60561 c -17.12216,-7.57395 -40.83118,-9.8629 -53.25668,-5.14158 -9.18259,3.48911 -15.15339,7.83016 -15.16382,11.02479 -0.005,1.46801 1.72098,11.20921 3.83505,21.64709 2.11408,10.43788 3.76387,21.56913 3.66621,24.7361 -0.0976,3.16698 0.10821,10.92051 0.45759,17.23009 l 0.63515,11.47195 -6.80546,12.10928 c -4.06827,7.23888 -9.51518,14.7338 -13.54264,18.63462 -11.21103,10.85849 -25.46911,22.15455 -27.96383,22.15455 -1.2931,0 -7.56713,-2.34864 -13.94226,-5.21922 l -11.59115,-5.21921 -21.68841,1.13034 -21.68841,1.13033 -14.28031,14.60483 c -7.85417,8.03266 -16.70154,17.90303 -19.66084,21.93414 -6.09307,8.29991 -5.84916,8.23949 -21.87072,5.41732 -20.4859,-3.60857 -33.9712,-2.10201 -50.87234,5.68341 -12.44292,5.73175 -13.87699,6.03308 -14.98396,3.14838 z"
       id="path4691"
       transform="scale(0.26458333)" />
    <path
       style="opacity:1;fill:url(#Polkadots-large);fill-opacity:1;stroke:#000000;stroke-width:2.03946;stroke-linecap:round;stroke-opacity:0"
       d="m 672.29071,796.58795 c -8.17965,-35.06081 -28.57997,-74.7468 -44.65276,-86.86572 -4.08929,-3.08333 -14.78252,-10.60091 -23.76275,-16.70575 l -16.32768,-11.09969 18.1163,0.13515 18.11631,0.13515 16.11191,-7.80906 c 8.86155,-4.29499 18.71605,-9.60076 21.8989,-11.79062 3.18285,-2.18986 6.32513,-3.98156 6.98283,-3.98156 0.65771,0 1.51497,2.37937 1.90503,5.28749 0.44234,3.29787 2.84607,8.45399 6.38801,13.70261 8.49764,12.5922 8.94935,13.81467 9.80829,26.5445 0.73346,10.87013 1.11547,12.15704 5.06911,17.07682 l 4.27587,5.32075 -2.15818,13.51505 c -2.91654,18.26398 -5.91137,42.60567 -5.91137,48.04697 0,7.55609 -6.66874,18.36653 -11.32994,18.36653 -1.7275,0 -2.74069,-2.20951 -4.52988,-9.87862 z"
       id="path6612"
       transform="scale(0.26458333)" />
    <path
       id="path2341"
       d="m 46.691957,195.67191 0.984218,9.09767 38.609637,-3.51436 10.117733,37.09587 -17.235461,33.97393 -60.624657,-21.99678 1.468286,-55.5995 z"
       style="fill:#000000;stroke:#000000;stroke-width:0.423333;stroke-linecap:round;stroke-opacity:0" />
  </g>
  <g
     style="display:inline"
     inkscape:groupmode="layer"
     id="layer5"
     inkscape:label="Layer 2"
     transform="translate(-4.901144,-7.3673815)">
    <path
       id="path3969"
       style="opacity:1;fill:#000000;stroke:#000000;stroke-width:1.6;stroke-linecap:round;stroke-opacity:0"
       d="m 573.22461,170.86719 c -5.57774,0.0726 -12.91396,1.73196 -22.82422,3.42383 -13.21368,2.25581 -28.93649,6.2912 -29.74414,12.86523 -0.80761,6.57402 1.89844,11.43359 1.89844,11.43359 0,0 -10.40514,1.93354 -12.54492,2.57227 -2.13978,0.63872 -7.47598,4.07883 -7.37696,9.14648 0.0991,5.06766 4.1835,4.59156 7.07813,3.90821 2.89459,-0.68336 2.46963,-6.06221 7.41601,-7.25977 4.94638,-1.19755 9.19336,2.38281 9.19336,2.38281 0,0 4.05269,14.37948 10.01172,22.98243 0,0 21.98749,-1.45718 36.10742,-4.19727 14.1199,-2.74009 27.28255,-11.63735 28.67383,-17.56445 1.39125,-5.9271 -2.54475,-13.84964 -5.98828,-20.94336 -3.44349,-7.09372 -10.88378,-16.69322 -16.87891,-18.23633 -1.49877,-0.38578 -3.16223,-0.53787 -5.02148,-0.51367 z m -1.88672,4.09179 c 1.37344,0.0307 2.77158,0.2224 4.41016,0.59766 6.55434,1.50107 12.27326,12.03263 14.36523,17.4082 2.09197,5.3756 7.29788,14.28867 5.48242,17.36133 -1.81542,3.07267 -13.4177,9.94716 -24.53711,12.52344 -11.11937,2.57629 -28.22098,4.73102 -29.83007,4.67969 -1.6091,-0.0513 -3.06641,-2.85938 -3.06641,-2.85938 0,0 -3.80265,-5.82397 -8.51172,-18.64844 -4.70906,-12.82447 -5.58738,-16.03806 -4.29883,-18.6914 1.28856,-2.65335 15.79097,-5.95147 28.46289,-8.89649 9.50395,-2.20877 13.40313,-3.56674 17.52344,-3.47461 z"
       transform="scale(0.26458333)" />
    <path
       style="opacity:1;fill:#000000;stroke:#000000;stroke-width:0.423333;stroke-linecap:round;stroke-opacity:0"
       d="m 146.036,56.351492 c 0,0 -0.52643,-2.196531 1.19468,-3.631306 1.72111,-1.434771 2.85658,-1.48885 3.15224,-0.541104 0.29565,0.947745 -3.94632,3.012665 -4.34692,4.17241 z"
       id="path3974" />
    <path
       style="opacity:1;fill:#000000;stroke:#000000;stroke-width:0.423333;stroke-linecap:round;stroke-opacity:0"
       d="m 125.37319,57.71661 c 0.14564,-1.563783 3.01446,-1.545394 3.78203,-0.502227 0.76757,1.043167 1.31835,2.427814 1.31835,2.427814 0,0 -3.53044,-0.516401 -5.10038,-1.925587 z"
       id="path3976" />
    <path
       id="path3980"
       style="opacity:1;fill:#000000;stroke:#000000;stroke-width:1.6;stroke-linecap:round;stroke-opacity:0"
       d="m 500.61914,96.888672 c -0.98206,-0.007 -1.68061,0.0068 -2.00586,0.04297 -2.60198,0.289175 -3.72851,5.328128 -3.72851,5.328128 -0.90857,3.26578 -8.26287,-0.14032 -11.90625,-2.06641 -3.64343,-1.926092 -5.11983,2.20172 -7.9375,4.27148 -2.81772,2.06978 -18.2115,20.11465 -22.02735,25.23828 -3.81585,5.12363 -4.2408,28.25308 -2.41797,42.52344 1.82283,14.27036 -5.61811,10.27793 -4.95703,13.2168 0.66108,2.93887 -0.27307,16.75695 -1.42969,23.20508 -1.15664,6.44812 -3.78283,10.69945 -5.41796,12.86133 -1.6351,2.16187 -1.0879,16.16211 -1.0879,16.16211 10e-6,0 8.78793,21.31026 12.10938,24.9707 3.32145,3.66046 8.55469,0.3164 8.55469,0.3164 0,0 8.75437,13.43476 11.66211,17.57813 2.9077,4.14337 41.91003,37.59166 51.67187,41.17969 9.76188,3.588 34.61305,5.55186 50.18164,1.52343 15.56859,-4.02842 23.24266,-17.26468 38.33594,-38.72461 15.09324,-21.45993 6.26172,-49.9414 6.26172,-49.9414 0,0 4.6487,7.38263 13.35351,7.20703 8.70479,-0.17561 14.52747,-18.62921 16.76563,-24.60352 2.23816,-5.97429 -3.51315,-22.3488 -9.5918,-33.22851 -6.07865,-10.87971 -10.98214,-12.84767 -14.55859,-13.06836 -3.57645,-0.22069 -7.97266,12.58398 -7.97266,12.58398 l -1.30468,-5.29492 c -1.30356,-5.29617 -19.91328,-33.81825 -31.41211,-46.10547 -11.4988,-12.28723 -44.93084,-29.30775 -49.4961,-31.82031 -3.99459,-2.1985 -24.77012,-3.306172 -31.64453,-3.355467 z m 12.27539,9.093748 c 8.47227,0.10056 20.23201,1.48511 30.28125,7.93555 16.07883,10.32072 42.54356,24.70511 56.24219,48.34765 13.69867,23.64257 15.82422,28.89063 15.82422,28.89063 0,0 3.24806,-11.95925 6.91015,-13.49219 3.6621,-1.53294 10.24291,6.6655 11.625,11.50196 1.38206,4.83646 8.86594,17.14669 5.91602,28.81836 -2.94988,11.67166 -4.21604,11.77807 -7.49414,13.76367 -3.27814,1.9856 -11.59438,1.9693 -16.50391,-3.16993 -4.90957,-5.1392 -4.43945,-3.35351 -4.43945,-3.35351 0,0 4.90507,26.16909 -0.49414,39.47656 -5.39925,13.30748 -8.6274,27.68798 -25.64453,40.15821 -17.0171,12.47024 -14.86017,13.12489 -30.50586,13.87695 -15.64573,0.75205 -34.55663,-5.25124 -41.88086,-10.08203 -7.3242,-4.83079 -28.84948,-23.08494 -32.83594,-28.40235 -3.98649,-5.31741 -16.33073,-25.21549 -18.19336,-25.65039 -1.86262,-0.4349 -4.88599,1.00431 -7.96679,-0.77734 -3.08081,-1.78165 -7.76752,-9.54333 -9.23829,-13.45899 -1.47072,-3.91564 -4.06787,-9.99855 -0.43945,-10.42968 3.62842,-0.43115 9.27323,5.99876 10.57422,10.27929 1.30099,4.28054 3.29111,3.31909 3.81836,7.22657 0.52728,3.90746 0.51978,5.19721 2.72461,3.98242 2.20482,-1.21479 -2.07481,-4.70115 0.39258,-5.37305 2.46742,-0.6719 5.94736,3.02566 10.46484,3.14453 4.51748,0.11887 16.51151,-3.52463 19.80469,-4.42187 3.29314,-0.89724 10.04883,-3.05274 10.04883,-3.05274 0,0 4.83458,4.95881 8.33007,4.82422 3.4955,-0.13459 7.33404,-1.99875 6.82422,-3.53906 -0.50986,-1.54032 -8.82509,-3.60673 -8.12304,-6.98047 0.70204,-3.37374 8.30651,-9.86928 8.83398,-13.53711 0.52743,-3.66783 0.39923,-4.22076 -2.38477,-4.26562 -2.784,-0.0449 -10.05438,3.42177 -12.04687,7.77929 -1.99245,4.35751 -5.27643,8.24679 -4.83789,9.85157 l 0.4375,1.60546 c 0,0 -18.23922,4.9078 -22.52539,5.61329 -4.28618,0.70547 -7.49414,0.85666 -12.22656,-2.67188 -4.73243,-3.52854 -6.63641,-4.98928 -9.125,-8.04687 -2.48856,-3.05759 -5.8125,-9.87891 -5.8125,-9.87891 h -0.002 c -0.192,-6.79508 -2.44587,-12.69587 1.92383,-14.93164 4.36966,-2.23576 25.19497,-11.97861 28.77539,-12.18555 3.58039,-0.20693 14.16968,-2.45027 18.39258,1.2832 4.2229,3.73346 8.79879,3.41739 5.21875,-0.5664 -3.58001,-3.98379 -3.50051,-9.41364 -8.57422,-9.09961 -5.07375,0.31404 -24.28721,4.84993 -28.75,7.81445 -4.46279,2.96451 -11.50105,8.83163 -14.14453,7.28321 -2.64348,-1.54842 -3.58814,-12.91086 -2.10547,-13.79688 1.48271,-0.88602 2.03491,1.90771 5.27344,3.14063 3.23852,1.23292 8.50394,-0.33999 13.87109,-3.92774 5.3672,-3.58773 14.60325,-6.70363 15.31641,-10.5039 0.71316,-3.80027 0.59642,-9.05665 -3.59375,-7.91211 -4.19014,1.14455 -21.06069,12.57736 -24.1582,13.96289 -3.09752,1.38551 -3.66407,1.54687 -3.66407,1.54687 0,0 2.17969,-4.7615 2.17969,-6.36914 0,-1.60764 -1.34321,-2.78417 -0.22266,-6.32422 1.12037,-3.54005 0.10769,-12.77831 0.19727,-19.6289 0.0896,-6.85059 0.39438,-16.2677 1.74023,-17.91602 1.34586,-1.64833 9.05099,-11.08886 13.58204,-16.20313 4.53104,-5.11424 8.49795,-11.16334 13.32421,-10.625 4.82627,0.53835 14.10078,-1.02142 18.46485,-1.14453 1.63652,-0.0462 5.53773,-0.449 10.62109,-0.38867 z"
       transform="scale(0.26458333)" />
    <path
       style="opacity:1;fill:#000000;stroke:#000000;stroke-width:0.423333;stroke-linecap:round;stroke-opacity:0"
       d="m 142.15788,45.135199 c 0,0 -0.93602,-1.656064 -0.88552,-2.0364 0.0505,-0.380333 4.89697,-1.231151 7.64453,-1.036148 2.74756,0.195006 4.05395,0.145809 4.4475,0.855572 0.39356,0.709761 1.5097,1.572734 0.0201,1.443199 -1.48964,-0.129534 -3.63947,-0.971087 -5.61486,-0.841552 -1.9754,0.129535 -3.29949,0.555887 -4.10789,1.123672 -0.80841,0.567788 -1.33143,0.69192 -1.50382,0.491657 z"
       id="path3985" />
    <path
       style="opacity:1;fill:#000000;stroke:#000000;stroke-width:0.423333;stroke-linecap:round;stroke-opacity:0"
       d="m 134.82875,73.419633 c -1.39466,0 -2.00882,-0.693251 -1.66149,-1.429959 0.34734,-0.736706 9.43419,-0.358513 10.02895,-0.633857 l 0.59475,-0.275344 c 0,0 1.13877,-4.113429 4.18045,-3.169171 3.04167,0.944258 3.15492,2.251166 2.39915,2.751405 -0.66916,0.442906 -0.42292,-1.595996 -1.52641,-1.403001 -1.10348,0.192997 -3.32945,1.285774 -2.79462,1.889614 0.53483,0.603838 4.017,-0.04586 4.67479,0.320646 0.65778,0.366498 0.21817,1.797545 -0.78932,1.988841 -1.00749,0.191297 -2.63054,-0.328543 -3.54301,-0.409868 -0.91247,-0.08133 -11.56324,0.370694 -11.56324,0.370694 z"
       id="path3987"
       sodipodi:nodetypes="csscsssssssc" />
    <path
       transform="scale(0.26458333)"
       id="rect3989"
       style="opacity:1;fill:#000000;stroke:#000000;stroke-width:1.6;stroke-linecap:round;stroke-opacity:0"
       d="m 19.498047,29.484375 -0.173908,1073.356725 619.995911,-1.0313 7.75459,-9.5649 -107.7747,0.104 c 0,0 -1.75868,-92.48104 -5.32924,-126.02253 -3.57059,-33.54153 -18.59738,-126.16492 -27.06836,-147.29297 -8.47101,-21.12805 -15.71289,-28.19336 -15.71289,-28.19336 0,0 10.66517,39.49367 8.39258,65.83985 -2.27255,26.34618 -14.59375,152.95701 -14.59375,152.95701 l -5.23633,82.666 H 401.4082 c 0,0 -20.7316,-93.81102 -16.44531,-156.37301 4.28625,-62.56196 10.14258,-144.82227 10.14258,-144.82227 0,0 1.36082,-13.31622 5.02148,-18.81054 3.6607,-5.49442 5.10352,-10.09961 5.10352,-10.09961 0,0 -7.28807,-16.35296 -8.63086,-24.59766 -1.34283,-8.2447 -1.92389,-9.45342 -2.48828,-14.52539 -0.56436,-5.07194 -4.81097,-18.00495 -4.92383,-23.16797 -0.11301,-5.16299 -24.91252,-142.11999 -23.99414,-147.12695 0.91838,-5.00697 27.07299,-67.57308 28.72461,-70.59961 1.65161,-3.02653 55.26341,-102.9366 74.56055,-115.65821 19.29717,-12.7216 47.98242,-18.64648 47.98242,-18.64648 l 25.15234,-6.36914 -3.5332,-20.11914 -19.7168,-2.16602 -21.10351,6.98242 c 0,0 -6.85101,-21.36611 -15.63868,-23.68945 -8.7877,-2.32334 -22.707,-8.73942 -18.43164,7.91016 4.27537,16.64957 2.54492,14.3457 2.54493,14.3457 0,0 -18.87141,-2.57727 -22.125,-17.2832 -3.25369,-14.70593 -6.73102,-17.49252 -10.70508,-12.68945 -3.9741,4.80296 -14.70469,9.35637 -29.14649,2.125 -14.44184,-7.23147 -16.78906,-15.13477 -16.78906,-15.13477 0,0 19.10847,7.64392 24.16211,-0.38281 5.05364,-8.02673 4.85771,-19.18821 -2.83008,-29.41407 -7.68778,-10.22585 -7.03125,-9.62109 -7.03125,-9.62109 0,0 15.90431,-12.80237 13.19141,-21.1582 -2.71291,-8.35582 -17.72461,-30.27539 -17.72461,-30.27539 0,0 20.04165,-20.79747 25.07617,-30.08399 5.03456,-9.28652 7.31796,-33.11574 11.25195,-42.01172 3.934,-8.89598 23.66602,-49.052731 23.66602,-49.052731 0,0 20.12788,-3.579387 25.41211,0.433594 5.28423,4.012982 5.65234,3.912109 5.65234,3.912109 0,0 15.55141,-22.509558 26.73242,-22.417968 11.18102,0.09158 38.50743,-10.199998 42.53516,-6.435547 4.02773,3.764451 55.3793,27.089408 65.45117,38.363281 10.07191,11.273877 63.34375,67.470702 63.34375,67.470702 0,0 -8.4853,15.72293 -7.24414,22.54102 1.24112,6.81809 14.48242,16.74218 14.48242,16.74218 0,0 -10.18583,28.21432 -3.23437,37.73047 6.95142,9.51615 26.8164,14.16602 26.8164,14.16602 0,0 -9.36013,14.78245 -21.89648,11.66601 -12.53635,-3.11644 -31.45421,-15.65478 -33.25391,-10.5996 -1.79973,5.05508 8.1526,23.32142 6.01172,30.19531 -2.14091,6.87388 -5.21094,10.41406 -5.21094,10.41406 0,0 -9.34646,-23.24992 -17.22265,-22.20703 -7.8762,1.04289 -7.26264,18.43984 -3.88477,26.44922 1.66098,3.93838 2.43638,5.41031 2.80078,5.90234 0.0131,-10e-4 0.31446,-0.0293 0.31446,-0.0293 0,0 0.0622,0.5379 -0.31446,0.0293 -0.97552,0.0956 -37.37628,3.6554 -39.04296,2.17969 -1.68919,-1.4956 -4.18946,-0.11719 -4.18946,-0.11719 l -9.91211,10.0332 c 0,0 12.77261,24.32631 14.4336,26.5918 1.66099,2.26548 6.39886,6.0332 11.07422,6.0332 4.67538,0 77.7486,-3.24896 81.50976,-0.14257 3.76116,3.10636 17.99495,23.99209 27.95703,81.46875 9.96208,57.47663 5.96094,181.49609 5.96094,181.49609 0,0 -13.23151,13.14022 -30.01367,25.13867 -16.78216,11.99845 -31.86914,23.125 -31.86914,23.125 0,0 -0.57726,12.67037 3.23633,20.15039 3.81358,7.47999 15.08784,18.65339 14.17187,28.36133 -0.91597,9.70794 0.87504,19.4652 5.93945,23.29492 5.06442,3.82972 3.55603,6.87515 1.32422,17.87305 -2.23181,10.99786 -2.51367,19.69727 -2.51367,19.69727 0,0 -2.94141,16.55103 -2.94141,25.82421 0,9.27315 0.92621,4.73318 -2.13671,10.83594 -3.06293,6.10273 -5.02964,11.05779 -8.37891,10.69141 -3.34923,-0.36624 -12.96094,5.99609 -12.96094,5.99609 0,0 -2.60396,17.00687 -6.10547,35.05859 -3.50146,18.05182 -13.67956,71.13264 -10.43359,72.74219 3.24597,1.60955 9.2793,7.69531 9.2793,7.69531 0,0 -22.98207,117.38488 -20.90235,141.36138 1.8804,21.6781 1.8153,30.7106 1.81224,32.3076 L 743.2531,1102.7757 742.92717,28.646149 Z M 159.2168,170.31055 c 0.25867,0.0112 0.45319,0.0361 0.58008,0.0742 4.06022,1.22023 -1.64202,10.32213 -3.68946,15.30664 -2.04744,4.98449 -44.96689,80.90692 -47.62695,85.77929 -2.66006,4.87236 -9.038699,21.80046 -5.8418,23.42969 3.19693,1.62922 46.84638,-10.56792 52.97266,-12.37305 6.12629,-1.80512 6.1896,-2.72725 7.70508,0.86328 1.51548,3.59062 -10.30269,5.88188 -19.12696,9.14258 -8.82427,3.26071 -50.965947,14.56107 -52.648434,10.01172 -1.682484,-4.54936 13.344704,-35.2955 16.123044,-44.61328 2.77834,-9.31778 45.1266,-76.92964 44.85156,-79.08203 -0.27495,-2.1524 -4.36583,-2.65481 -6.00976,-1.72852 -1.64393,0.92629 -61.421876,10.24024 -61.421876,10.24024 0,0 -0.394333,-0.23496 -3.125,-5.19531 0,0 69.238926,-12.20226 77.257816,-11.85547 z m 102.14843,68.08984 c 11.8321,0.17854 24.36161,3.45105 25.45118,5.68555 1.4304,2.93349 -38.74085,113.31137 -41.86524,119.44922 -3.12439,6.13785 -0.6542,11.88052 1.50195,15.32812 2.15622,3.44757 66.06153,-5.36232 69.95899,-6.38281 3.89745,-1.02049 3.64046,4.25474 3.71484,7.3125 0.0744,3.05779 -5.5243,2.17186 -24.84179,1.68555 -19.31751,-0.48635 -48.50195,8.53278 -55.25391,4.96679 -6.75197,-3.56598 -1.69283,-14.20455 -0.19531,-22.89258 1.49752,-8.68801 40.85816,-113.16633 38.27344,-115.54687 -2.58479,-2.38055 -26.15714,-1.98645 -51.66407,1.04297 -25.50691,3.02942 -44.19125,2.69156 -44.64258,-1.28906 1.72393,-10.18556 55.63388,-5.65345 69.03516,-8.49219 2.51274,-0.53227 5.29748,-0.79918 8.17383,-0.86133 0.77901,-0.0168 1.56471,-0.0178 2.35351,-0.006 z m -69.41015,116.32617 c 6.2219,-0.79423 10.85445,29.80065 12.39844,33.98047 1.54397,4.17986 -40.55082,24.17425 -66.08985,43.07813 -25.53904,18.90387 -18.03135,37.6096 -14.55273,41.07422 3.47862,3.46459 30.84629,-4.30142 42.86914,-7.12696 12.02285,-2.82614 51.30382,-5.30979 54.80859,-2.78711 3.50477,2.52265 6.35058,15.00937 4.70508,16.11133 -1.64549,1.10196 -48.50679,1.14347 -61.87695,1.6582 -13.37016,0.5147 -51.53116,16.40414 -55.09961,17.01563 -3.56844,0.61149 -13.105114,-28.97415 -14.535159,-34.66797 18.552779,-21.54133 34.858699,-41.03407 57.624999,-64.87109 9.72343,-6.64143 13.20881,-12.00652 10.375,-19.55469 -2.83381,-7.54817 -70.333477,5.58665 -77.078124,5.68945 -6.744642,0.10296 -3.823137,-2.42591 -4.417968,-10.27344 0.851241,-7.52099 104.647252,-18.53195 110.869142,-19.32617 z m 35.74804,91.72266 c 12.41853,-0.31929 91.85685,19.43716 94.55469,21.03516 2.8777,1.70447 -9.26212,29.51723 -10.28711,35.05273 -1.02497,5.53553 -90.21876,50.71345 -96.20508,50.72851 -5.98628,0.0144 -3.30126,8.76076 -1.38085,12.7793 1.92039,4.01855 85.66406,14.22337 88.56445,14.81446 2.9004,0.59103 -2.84257,13.51168 -3.91992,16.78906 -1.07734,3.27738 -95.86484,-15.58847 -105.43164,-18.90625 -9.5668,-3.31779 -4.22728,-29.55025 -3.37764,-34.28249 0.84965,-4.73219 88.28059,-52.13608 86.4831,-56.38548 -1.79744,-4.2494 -35.73763,-12.62208 -42.95703,-14.70899 -7.21937,-2.0869 -7.58984,-26.57226 -7.58984,-26.57226 0.18957,-0.21106 0.71902,-0.32247 1.54687,-0.34375 z m -61.7871,107.66016 c 7.52827,-0.008 18.73505,-1.89308 19.12166,-0.99248 1.54647,3.60246 -0.77823,25.29385 1.55676,27.16373 2.33499,1.86985 12.22818,2.84156 13.10183,5.40192 0.87366,2.56041 -59.93593,57.38813 -56.59666,60.35261 3.33928,2.96447 54.05997,-1.64844 55.73047,-1.64844 1.6705,0 4.42637,20.10801 2.875,22.23437 -1.55137,2.12637 -93.34531,1.35412 -97.60156,1.20899 -4.256279,-0.14495 -2.49828,-12.11259 -2.18946,-14.77149 0.30884,-2.65886 69.04909,-73.09806 66.13477,-76.91992 -2.91433,-3.82186 -71.25407,2.41637 -73.177736,1.82813 -1.923663,-0.58829 -1.985921,-16.94501 4.595703,-20.74219 0,0 43.864413,-3.08988 66.449223,-3.11523 z m 125.99609,85.29492 c 1.63782,0.01 2.72408,0.18845 3.12695,0.56836 4.29733,4.05233 6.66984,23.93913 5.71485,25.91601 -0.955,1.97688 -73.84844,56.80357 -75.51758,66.08594 -1.66915,9.28233 8.16717,12.17 25.72851,7.79297 17.56133,-4.37703 50.83446,-18.27736 53.29102,-14.3457 2.45655,3.93162 2.61504,26.79121 1.41602,27.85156 -1.19906,1.06034 -44.6333,-4.25828 -50.52344,-0.64649 -5.89014,3.61176 -70.83221,20.39311 -72.3533,15.1356 -6.8975,-23.84059 58.83297,-63.9512 56.17166,-73.85825 -2.66132,-9.90709 -67.63602,-1.03962 -69.95703,-2.90039 -2.32103,-1.86082 -5.02634,-11.67953 -2.02149,-12.33203 2.56945,-2.31221 39.73765,-4.96753 40.52734,-6.40235 0.78974,-1.43478 -0.52669,-12.85655 0.35157,-15.16992 0.79592,-2.09646 68.21265,-17.78785 84.04492,-17.69531 z m -191,113.86718 c 0,0 31.07168,5.36548 44.78125,6.4004 13.70958,1.03485 28.72063,-4.32344 28.72063,-4.32343 0,-10e-6 1.72258,1.03941 0.67053,13.6148 -0.26043,5.92955 7.42232,5.61443 18.4578,5.91757 7.23871,0.19886 18.50992,11.60505 11.40885,11.5098 -7.10107,-0.095 -106.270149,30.43872 -106.080076,39.55665 0.190091,9.11795 76.082936,20.72051 79.044926,24.92187 2.962,4.20132 -5.38544,14.98849 -8.89063,17.67774 -3.50519,2.68922 -82.695678,-23.90932 -87.001952,-26.28321 -4.306273,-2.37392 -0.5,-35.13093 -0.5,-40.29297 0,-5.162 54.969502,-8.32162 64.074222,-9.08203 9.10472,-0.76036 9.20475,-7.8937 8.33203,-15.16797 -0.87272,-7.27426 -46.29156,-13.51198 -52.58203,-13.55468 -6.29048,-0.0427 -4.13692,-3.39376 -0.43555,-10.89454 z m 157.05078,36.3086 c 0,0 8.85305,2.69577 19.01758,2.79101 10.16454,0.095 57.07917,1.94558 60.46875,39.61133 3.38958,37.66579 -48.52432,37.47151 -51.60547,39.04492 -3.08116,1.57342 4.46579,66.45734 3.125,67.98438 -1.3408,1.52708 -9.07517,-1.77086 -13.23047,-2.11328 -4.15529,-0.34224 -11.2573,-0.45572 -13.44336,-5.89453 -2.18606,-5.4389 1.23751,-111.44217 -1.23828,-115.31055 -2.47578,-3.86842 -3.94917,-20.90207 -3.09375,-26.11328 z m -45.18164,28.40039 c 0,0 15.84245,-0.11895 19.74414,3.01367 3.90169,3.13262 -2.18164,25.34702 -2.18164,31.57031 0,6.22334 -1.1875,51.89453 -1.1875,51.89453 0,0 -9.62976,-5.2802 -12.47852,-5.08593 -2.84875,0.19442 -8.04454,1.40553 -8.94335,-3.67578 -0.89883,-5.08131 3.13868,-75.86272 5.04687,-77.7168 z"
       sodipodi:nodetypes="cccccsscscccscscsssssscccccsscssscsscscsscscssscscscssscsscccsccsssscscsssscssscsscsccccscsssssssscsccsssssssssssscssssssscsssssscccsssscssssssscsssssssscssscsssssssssssscssscscsscsssssssscccssssssccsscsscss" />
    <path
       style="opacity:1;fill:#000000;fill-opacity:0;stroke:#000000;stroke-width:0.423333;stroke-linecap:round;stroke-opacity:0"
       d="m 76.60446,215.63129 c -0.924867,0.94187 -0.952085,7.56174 0.147854,9.08848 1.099936,1.52674 7.844422,-1.77094 6.54264,-5.61307 -1.301779,-3.84212 -6.690494,-3.47541 -6.690494,-3.47541 z"
       id="path4607" />
    <path
       style="display:inline;opacity:1;fill:#000000;fill-opacity:1;stroke:#000000;stroke-width:0.423333;stroke-linecap:round;stroke-opacity:0"
       d="m 140.70603,22.832795 c -0.15819,-1.06601 3.41308,-1.266719 6.79114,-0.807149 3.37807,0.45957 8.43833,4.455933 9.33382,5.155124 0.8955,0.69919 2.51209,8.00055 2.86595,8.542536 0.35386,0.541985 6.64274,2.613244 7.21532,3.292083 0.57258,0.678839 2.66826,4.715499 1.87045,4.871918 -0.79782,0.156422 -2.86082,-3.179569 -3.82311,-3.338996 -0.96229,-0.159428 -6.89925,-2.783414 -6.9233,-3.244818 -0.0241,-0.461405 -1.36854,-9.076084 -5.18863,-10.819903 -3.8201,-1.743817 -11.86103,-2.698192 -11.86103,-2.698192 z"
       id="path4619" />
    <path
       style="opacity:1;fill:#000000;fill-opacity:1;stroke:#000000;stroke-width:0.423333;stroke-linecap:round;stroke-opacity:0"
       d="m 136.52992,17.350528 c 1.43283,1.28911 4.20866,-0.572861 7.39875,-0.278063 3.19008,0.294798 11.07016,0.917005 15.63092,6.143171 4.56077,5.226164 7.11939,12.197038 8.98891,13.057098 1.86951,0.860057 5.95536,2.850743 6.44955,5.48917 0.49418,2.638428 -2.95521,5.360742 -1.11161,8.079473 1.8436,2.718729 3.36382,3.730696 4.48604,6.551596 1.12221,2.820903 0.28591,4.822651 1.89697,5.760501 1.61107,0.93785 3.23308,0.243435 1.89111,-0.298601 -1.34197,-0.542033 -2.0022,-3.370665 -1.71327,-4.582126 0.28893,-1.21146 -4.54725,-4.709951 -4.43912,-7.292432 0.10813,-2.582479 3.00547,-6.627548 0.22817,-9.378683 -2.7773,-2.751135 -8.40633,-6.193554 -8.88829,-8.437819 -0.48195,-2.244262 -4.08349,-8.344885 -5.77023,-9.495752 -1.68673,-1.150866 -7.80643,-6.544002 -11.38446,-6.897546 -3.57802,-0.353543 -13.51491,-1.343785 -13.66344,1.580013 z"
       id="path4622" />
    <path
       style="opacity:1;fill:#000000;fill-opacity:1;stroke:#000000;stroke-width:0.423333;stroke-linecap:round;stroke-opacity:0"
       d="m 171.35282,60.834849 c -1.45135,2.936454 -0.24968,6.433962 0.54875,5.649489 0.79842,-0.784474 3.10659,-6.306093 1.45782,-4.408604 -1.64877,1.897486 -2.00657,-1.240885 -2.00657,-1.240885 z"
       id="path4624" />
    <path
       style="opacity:1;fill:#000000;fill-opacity:1;stroke:#000000;stroke-width:0.423333;stroke-linecap:round;stroke-opacity:0"
       d="m 116.52491,59.111012 c 0,0 -1.44147,0.447389 -2.04481,1.756036 -0.60334,1.308651 -0.40624,6.549954 0.52042,7.283125 0.92666,0.733168 0.89442,0.673566 0.89442,0.673566 0,0 -1.38827,-3.458493 -0.7049,-4.648939 0.68337,-1.190445 1.83703,-3.386952 1.83703,-3.386952 z"
       id="path4626" />
    <path
       style="opacity:1;fill:#000000;fill-opacity:1;stroke:#000000;stroke-width:0.423333;stroke-linecap:round;stroke-opacity:0"
       d="m 120.47639,24.237701 c 1.03307,0.817372 -2.42086,5.710256 -2.7525,9.37034 -0.33165,3.660087 -0.15603,11.401526 -1.38751,12.722503 -1.23147,1.32098 -2.60625,3.251943 -2.28736,4.619318 0.31889,1.367377 1.46725,4.181329 1.01166,5.249325 -0.45559,1.067996 -3.99505,5.860839 -3.76393,7.333623 0.23112,1.472785 2.10157,6.449362 2.9051,7.165353 0.80352,0.715995 2.22394,1.908345 0.12508,3.53368 -2.09886,1.625333 -3.8446,2.139167 -3.8446,2.139167 0,0 3.72812,-2.136857 2.63083,-3.546626 -1.09729,-1.409769 -3.61309,-5.840992 -3.69121,-7.193648 -0.0781,-1.352653 0.47032,-4.604392 1.28254,-5.445048 0.81222,-0.840658 2.69912,-1.974956 2.60506,-3.46044 -0.0941,-1.485485 -2.92699,-4.556845 -2.33062,-6.317798 0.59636,-1.760953 2.91123,-3.100726 3.7047,-5.333066 0.79346,-2.232339 1.00083,-9.163936 1.15707,-10.335609 0.15624,-1.17167 -0.20154,-2.47659 0.48417,-3.619291 0.68571,-1.142698 2.6611,-6.542931 3.23664,-6.985571 0.57553,-0.44264 0.91488,0.103788 0.91488,0.103788 z"
       id="path4630" />
    <path
       style="opacity:1;fill:#000000;fill-opacity:1;stroke:#000000;stroke-width:0.423333;stroke-linecap:round;stroke-opacity:0"
       d="m 136.90662,92.672965 c 0,0 -0.48243,4.075165 1.93798,10.148165 2.42042,6.073 4.36295,10.42069 4.36295,10.42069 0,0 3.61966,-6.7754 7.84616,-11.11645 4.22651,-4.341047 13.69663,-12.779591 13.69663,-12.779591 l 2.0022,-0.211621 c 0,0 -14.54808,13.601552 -15.94898,15.494212 -1.40091,1.89267 -6.89152,10.40353 -7.77209,10.76587 -0.88056,0.36234 -5.70005,-11.92846 -6.09402,-12.90525 -0.39398,-0.97678 -1.60082,-10.532778 -1.60082,-10.532778 z"
       id="path4632" />
    <path
       style="opacity:1;fill:#000000;fill-opacity:1;stroke:#000000;stroke-width:0.423333;stroke-linecap:round;stroke-opacity:0"
       d="m 173.7271,127.90209 c 1.12249,-1.25474 4.68738,-3.8825 10.58821,-3.05444 5.90084,0.82806 9.51566,2.84398 10.15124,4.1179 0.63557,1.27392 1.09154,1.99902 -5.3e-4,1.75344 -1.09204,-0.24557 -8.57801,-4.73286 -11.72506,-4.37945 -3.14704,0.35341 -7.18201,3.29226 -8.18639,3.34489 -1.00437,0.0526 -0.8275,-1.78234 -0.8275,-1.78234 z"
       id="path4636" />
    <path
       style="opacity:1;fill:#000000;fill-opacity:1;stroke:#000000;stroke-width:0.423333;stroke-linecap:round;stroke-opacity:0"
       d="m 104.47248,127.5522 c 0,0 0.53127,-1.25492 1.27288,-1.23615 0.7416,0.0187 6.05014,0.57001 7.05787,1.26948 1.00773,0.69947 5.86613,4.20455 6.35211,5.53071 0.48597,1.32615 0.97836,2.59738 0.76489,3.16561 -0.21348,0.56823 -8.781,11.72525 -8.84116,12.41127 -0.0602,0.68602 1.41877,18.38532 1.41877,18.38532 0,0 0.38984,-3.28974 0.9103,-4.00326 0.52046,-0.71352 4.47864,-9.20946 4.81295,-10.01281 0.33431,-0.80336 1.11923,-2.14471 1.37676,-2.60581 0.25752,-0.46111 1.92911,-1.7986 2.06882,-2.55136 0.13971,-0.75277 -0.0179,-1.45088 -0.0179,-1.45088 0,0 -2.44753,-2.32673 -2.35372,-3.457 0.0938,-1.13027 1.14066,-1.1973 1.58211,-0.94243 0.44146,0.25486 0.53052,-2.28524 1.29976,-3.78618 0.76923,-1.50095 1.89142,-3.22283 2.93572,-3.40591 1.0443,-0.18309 1.56678,-1.22545 1.56678,-1.22545 0,0 -3.01979,-0.57849 -3.19158,-1.47358 -0.17179,-0.89509 0.12014,-1.06723 -1.4787,-1.01095 -1.59884,0.0563 -4.60014,-2.66782 -6.35613,-4.02429 -1.75599,-1.35648 -4.75235,-1.92559 -6.32062,-2.33592 -1.56828,-0.41032 -3.94196,-0.22745 -4.60251,0.42177 -0.66055,0.64921 -1.85668,2.47956 -1.85668,2.47956 z"
       id="path4640" />
    <path
       style="opacity:1;fill:#000000;fill-opacity:1;stroke:#000000;stroke-width:0.423333;stroke-linecap:round;stroke-opacity:0"
       d="m 177.25223,171.95797 c 0,0 -6.5092,3.86475 -7.67978,4.5426 -1.17057,0.67785 -5.76276,2.75898 -6.90044,2.79613 -1.13767,0.0372 -8.78866,-0.91353 -9.61301,-0.40525 -0.82435,0.50828 -4.94942,2.53452 -5.09099,3.34784 -0.14157,0.81331 0.71084,1.91222 0.79149,2.28748 0.0806,0.37526 -0.0204,1.26723 -0.34939,1.36384 -0.329,0.0966 -1.40156,0.31969 -1.66202,-0.22291 -0.26046,-0.5426 -1.31541,-2.74832 -1.36757,-3.13097 -0.0522,-0.38265 0.19029,-1.23151 0.30813,-1.64003 0.11784,-0.40851 6.0684,-6.0669 6.33086,-6.50293 0.26247,-0.43603 0.16056,-0.65931 -0.39831,-1.01286 -0.55886,-0.35354 -2.32209,0.89997 -2.97724,1.59085 -0.65515,0.69089 -3.95994,4.41317 -4.06982,5.02565 -0.10988,0.61247 0.74001,2.06037 -0.34978,2.36013 -1.0898,0.29977 -1.704,-0.40112 -1.8159,-1.04294 -0.11191,-0.64181 0.1895,-3.77878 0.66922,-4.60981 0.47973,-0.83103 4.4897,-4.00495 3.72374,-4.77489 -0.76596,-0.76994 -1.09631,-0.44995 -1.39803,-0.17082 -0.30172,0.27913 -2.68808,2.83627 -2.92134,3.31916 -0.23326,0.48291 -1.42926,3.176 -1.2071,4.09316 0.22216,0.91717 0.18526,1.66409 0.30298,2.09761 0.11771,0.43351 -0.0969,2.03115 -0.66513,1.95546 -0.56826,-0.0757 -1.82759,-0.51385 -1.94547,-0.92876 -0.11789,-0.41492 0.0841,-4.05364 0.33145,-4.71671 0.24734,-0.66307 2.05899,-5.16174 3.27352,-6.53873 1.21453,-1.37698 3.04146,-3.3005 2.30606,-4.05373 -0.73539,-0.75322 -2.07038,0.20373 -2.56867,1.05497 -0.49829,0.85123 -3.63861,6.19678 -3.91104,7.36112 -0.27243,1.16434 -0.65745,5.44395 -0.45877,6.17377 0.19869,0.72983 0.85086,2.15274 0.21426,2.2701 -0.63659,0.11737 -1.89998,0.30371 -2.23476,-2.02954 -0.33477,-2.33326 -0.27061,-6.23459 -0.003,-7.63941 0.26783,-1.40482 0.82895,-3.94511 1.85732,-4.73243 1.02836,-0.78733 5.9712,-6.55208 6.36516,-6.88428 0.39397,-0.33221 1.69664,-1.40907 2.41226,-1.46862 0.71562,-0.0596 8.72215,-0.40572 9.9943,-0.12451 1.27215,0.28122 5.44854,3.13305 6.9188,2.65299 1.47025,-0.48006 9.16567,-6.43129 9.58511,-7.12034 0.41945,-0.68905 6.60014,-10.96377 6.60014,-11.93903 0,-0.97526 -1.88085,-5.22218 -2.39403,-7.28786 -0.51317,-2.06569 -0.5686,-8.26099 -2.04857,-8.81619 -1.47998,-0.55519 -1.37865,-0.0535 -1.40463,0.30674 -0.026,0.36022 2.14695,10.42149 2.14595,11.22195 -0.001,0.80046 -0.304,0.73547 -0.37489,1.40729 -0.0709,0.67182 0.87013,1.16543 0.34871,2.56727 -0.52142,1.40185 0.61904,3.57361 0.0495,4.56391 -0.56955,0.99031 -2.86966,4.93115 -3.283,5.75793 -0.41334,0.82677 -7.9509,7.8072 -9.32268,8.04275 -1.37179,0.23556 -5.93253,-2.71075 -7.17573,-2.67303 -1.24321,0.0377 -10.0841,0.10009 -11.14776,0.61971 -1.06366,0.51963 -8.3632,8.37822 -8.78792,9.12661 -0.42472,0.74838 -1.24838,2.4878 -2.23338,2.49237 -0.985,0.005 -5.11089,-1.13138 -7.29064,-1.11894 -2.17975,0.0124 -4.28284,-0.0168 -6.23437,0.43942 -1.95153,0.4562 -5.59054,2.49245 -6.25692,2.64171 -0.66638,0.14925 -1.48657,0.54554 -1.74521,-0.30209 -0.25864,-0.84763 0.22289,-6.5613 0.0117,-7.48107 -0.2112,-0.91977 1.27693,-7.52298 1.27693,-7.52298 l 7.87064,-24.28401 c 0,0 1.95775,-2.25581 1.8454,-3.173 -0.11235,-0.91718 -1.37171,-3.87657 -1.67164,-4.6691 -0.29993,-0.79252 -0.93546,-2.44164 -0.55099,-3.25617 0.38446,-0.81452 2.08715,-1.65144 2.09436,-2.22429 0.007,-0.57284 -0.79003,-1.50319 -1.18939,-1.2629 -0.39937,0.24029 -1.43056,2.34632 -1.65083,2.70615 -0.22027,0.35984 0.13037,2.87582 0.40251,4.79809 0.27215,1.92227 1.02988,4.25693 0.8096,4.75784 -0.22028,0.50091 -3.4472,9.72154 -3.4472,9.72154 l -1.71937,4.12767 c 0,0 -4.49084,19.11078 -4.52688,19.50532 -0.0361,0.39456 -0.52755,3.82245 -0.37136,4.55533 0.15619,0.73289 -0.15729,4.54093 -0.005,4.96843 0.1518,0.4275 1.50886,1.02049 2.19218,0.6618 0.68333,-0.35869 3.10277,-1.61808 3.89904,-1.78628 0.79627,-0.1682 6.33582,-1.2692 8.12599,-1.28122 1.79016,-0.012 6.12919,0.23075 6.99592,0.45051 0.86672,0.21976 1.54547,1.07757 1.60421,1.58198 0.0587,0.50441 0.0345,2.14959 0.0253,2.67332 -0.009,0.52373 0.16016,4.91062 0.56866,6.08804 0.40849,1.17742 1.15502,2.51161 1.92803,2.53564 0.773,0.024 2.5058,0.007 3.0969,-0.49435 0.59111,-0.50155 0.96351,-0.33837 1.30891,0.21127 0.3454,0.54965 1.14658,1.30154 1.65495,1.40967 0.50838,0.10813 1.40154,-0.50949 2.26141,-0.13342 0.85987,0.37607 1.76251,0.83497 2.2551,0.83497 0.4926,0 2.50399,-0.26827 2.69117,-0.60901 0.18718,-0.34074 -0.11629,-2.31244 -0.008,-3.35771 0.10813,-1.04526 1.6578,-2.22741 1.98742,-2.10967 0.32963,0.11775 3.29399,1.32941 4.3902,1.86537 1.09621,0.53597 9.25946,6.25287 10.84497,9.22648 1.5855,2.97361 5.6551,10.09828 6.17289,12.60831 0.5178,2.51004 2.04526,8.54244 2.458,9.81876 0.41274,1.27633 3.17969,3.80615 3.00439,2.1082 -0.17529,-1.69795 -1.55586,-6.57025 -1.73116,-7.71406 -0.1753,-1.14381 -2.85786,-8.56089 -3.5128,-10.08521 -0.65495,-1.52431 -4.55335,-7.76948 -5.57207,-9.34535 -1.01873,-1.57587 -11.7448,-8.48485 -12.52077,-9.11853 -0.77597,-0.63368 -2.08286,-0.90196 -1.28969,-0.94207 0.79317,-0.0401 4.8754,0.70636 5.89392,0.6422 1.01852,-0.0642 3.86041,0.17354 5.20476,-0.56847 1.34437,-0.74201 7.00884,-3.24592 8.32149,-4.17117 1.31266,-0.92525 4.76365,-2.83188 4.8831,-3.2498 0.11946,-0.41793 -1.55411,-0.60996 -1.55411,-0.60996 z"
       id="path4642" />
    <path
       style="opacity:1;fill:#000000;fill-opacity:1;stroke:#000000;stroke-width:0.423333;stroke-linecap:round;stroke-opacity:0"
       d="m 111.62154,174.40766 c -0.007,5.07063 -0.59797,8.32484 0.30932,8.84793 0.90729,0.52309 7.84325,4.13038 9.55736,4.47435 1.7141,0.34397 3.86065,0.4398 4.67758,1.56844 0.81692,1.12865 1.57499,4.0809 1.95064,4.81327 0.37566,0.73236 2.08555,2.92027 2.03814,3.30232 -0.0474,0.38204 0.56014,0.87803 -0.35495,0.93703 -0.91508,0.059 -2.31243,-0.0921 -3.46257,-1.4357 -1.15015,-1.34362 -4.47895,-6.91274 -5.07053,-6.78148 -0.59159,0.13126 -0.98986,0.80515 -0.45241,1.53609 0.53745,0.73093 7.16768,8.4019 7.16768,9.03217 0,0.63027 1.21895,2.25131 0.30425,2.83807 -0.9147,0.58675 -2.9025,-0.1225 -5.29769,-2.33169 -2.3952,-2.20919 -5.74888,-5.59338 -6.18914,-4.83255 -0.44028,0.76085 4.24919,4.38557 5.07396,5.33903 0.82478,0.95347 4.83942,4.24791 4.72239,5.05113 -0.11703,0.80323 -0.029,1.13261 -0.91939,1.20786 -0.89036,0.0752 -9.50257,-4.32455 -9.68791,-3.69462 -0.18535,0.62992 3.61958,3.3322 4.68012,3.58897 1.06054,0.25676 4.47279,1.36691 4.34027,1.88374 -0.13252,0.51683 -1.73845,0.60073 -2.61916,0.40724 -0.88071,-0.19348 -5.64843,-2.78688 -6.44815,-2.96746 -0.79973,-0.18059 -1.55852,-0.18793 -1.39514,0.23799 0.16338,0.42592 2.63845,1.22685 3.24829,2.01942 0.60985,0.79259 1.11475,1.34438 0.39763,1.53511 -0.71713,0.19073 -3.99567,-0.006 -4.30543,-0.18757 -0.30975,-0.18119 -4.45569,-4.84832 -4.8226,-5.69672 -0.36691,-0.84839 -4.74983,-9.00653 -4.74983,-9.00653 0,0 -0.46923,2.29693 -0.29724,2.87737 0.17198,0.58045 2.59001,5.68814 2.81974,5.93262 0.22973,0.24448 3.8065,4.80731 4.57708,5.42754 0.77057,0.62023 1.56299,1.67267 2.60535,1.73423 1.04236,0.0616 3.89295,0.34871 4.79992,0.004 0.90697,-0.34467 4.45998,-0.28665 5.61527,-0.81615 1.15529,-0.52949 1.9981,-1.4627 2.16257,-2.05175 0.16447,-0.58904 1.65611,-0.98249 1.90134,-1.8552 0.24524,-0.87271 1.08654,-2.72995 1.16178,-3.21091 0.0753,-0.48097 0.33487,-1.27823 0.99,-2.60227 0.65513,-1.32403 0.99128,-4.06628 0.91722,-4.64286 -0.074,-0.57658 -1.44408,-1.68158 -2.07767,-2.46245 -0.63358,-0.78086 -1.81599,-4.78259 -2.20254,-5.25598 -0.38654,-0.47339 0.17376,-0.86033 -1.75208,-1.58984 -1.92584,-0.72951 -5.24581,-1.41564 -6.96005,-2.39015 -1.71423,-0.9745 -4.06129,-1.75889 -4.57367,-2.57824 -0.51237,-0.81935 -0.19849,-7.00637 -0.21955,-7.41567 -0.0211,-0.4093 -2.1602,-0.79017 -2.1602,-0.79017 z"
       id="path4644" />
    <path
       style="opacity:1;fill:#000000;fill-opacity:1;stroke:#000000;stroke-width:0.423333;stroke-linecap:round;stroke-opacity:0"
       d="m 130.10533,196.12355 c 0.37198,-3.29097 0.68242,-5.68638 -0.0799,-7.15036 -0.76228,-1.46398 -4.21417,-9.74175 -4.51822,-10.64238 -0.30406,-0.90062 -6.30738,-1.01861 -7.64981,-1.54968 -1.34243,-0.53107 -3.61801,-1.24495 -4.15633,-0.83927 -0.53831,0.40568 -0.47096,1.04598 -0.13523,1.11974 0.33574,0.0738 2.96896,1.47693 3.86262,1.55069 0.89366,0.0738 5.01438,-0.68451 5.8928,-0.18888 0.87841,0.49562 1.60194,1.96811 1.60194,1.96811 0,0 -2.61585,-0.58508 -3.68266,-0.65569 -1.0668,-0.0706 -1.49096,0.77634 -1.1612,1.43413 0.32976,0.6578 -0.19603,0.55174 0.406,0.10871 0.60202,-0.44303 1.73266,-0.43173 2.55808,0.12494 0.82542,0.55667 1.26927,1.18725 0.53824,1.4171 -0.73103,0.22984 -1.94232,-0.8066 -2.47875,-0.71623 -0.53644,0.0904 -0.64874,0.39775 -0.5343,0.62365 0.11443,0.2259 0.82496,1.10697 1.80718,1.4972 0.98223,0.39022 1.35221,0.22412 2.24928,-0.38307 0.89708,-0.60718 0.72117,-1.11039 1.94454,1.5591 1.22336,2.66949 2.18917,3.74631 2.20894,4.83823 0.0198,1.09193 -0.19834,3.13109 -0.0494,3.71003 0.14898,0.57894 1.37609,2.17393 1.37609,2.17393 z"
       id="path4646" />
    <path
       style="opacity:1;fill:#000000;fill-opacity:1;stroke:#000000;stroke-width:0.423333;stroke-linecap:round;stroke-opacity:0"
       d="m 76.60446,215.63129 c 0,0 -0.115398,8.96399 0.96225,9.61476 1.077645,0.65076 6.400696,-2.15961 5.548592,-5.78913 -0.852103,-3.62952 -6.510842,-3.82563 -6.510842,-3.82563 z"
       id="path4650" />
    <g
       transform="translate(-2.33618,-3.64381)"
       id="g2294">
      <path
         id="path4648"
         d="m 129.86025,189.11898 c 0,0 0.60408,-1.85929 0.7811,-3.59749 0.17703,-1.7382 0.0885,-4.47531 0.28029,-6.74159 0.19177,-2.26628 1.48196,-3.59843 1.48196,-3.59843 l 2.19222,0.43177 0.16886,1.13765 c 0,0 -0.48593,-0.55874 -1.27836,-0.042 -0.79242,0.51671 -1.4788,0.54831 -1.49355,1.76523 -0.0148,1.21693 -0.0502,5.33913 -0.12397,6.04288 -0.0737,0.70375 -1.68222,6.04766 -1.68222,6.04766 z"
         style="opacity:1;fill:#000000;fill-opacity:1;stroke:#000000;stroke-width:0.423333;stroke-linecap:round;stroke-opacity:0" />
      <g
         id="g1340"
         transform="matrix(2.0755026,-1.6127874,1.6127874,2.0755026,-407.88603,77.116671)">
        <path
           transform="translate(5.5873166,-0.88455857)"
           style="fill:#ffffff;stroke:#000000;stroke-width:0.423333;stroke-linecap:round;stroke-opacity:0"
           d="m 126.38327,157.13943 c 0,0 0.40014,-0.41877 0.40014,-0.52256 0,-0.10378 0.13181,-2.29187 0.13181,-2.29187 l 2.47573,-0.16358 0.0933,1.91152 -0.50502,1.61034 -0.56629,0.5633 -0.37916,-0.13435 -0.96559,-0.58683 z"
           id="path861-6" />
        <path
           sodipodi:nodetypes="ccccccccccccccccccccccccccc"
           style="fill:#fff6d5;stroke:#000000;stroke-width:0.423333;stroke-linecap:round;stroke-opacity:0"
           d="m 127.29338,154.4897 1.92727,-0.43325 0.34624,1.69691 0.56208,1.11689 0.25439,1.09184 0.0694,1.01703 1.04619,1.26216 0.11918,-0.8842 -0.12276,-0.89193 0.36242,-0.32079 0.91318,-1.22783 3.06982,-1.93505 1.45176,-0.78472 0.96919,-1.58974 -0.15921,-0.95678 -0.4325,-0.71269 -0.90743,-2.38033 -2.69947,-1.87754 -1.98245,0.61051 -2.43013,0.54976 -1.62872,1.57078 -0.0348,0.8032 -1.5822,0.76781 -0.74263,1.16789 0.43296,0.98619 -5.3e-4,0.40082 z"
           id="path863-7"
           transform="translate(5.5873166,-0.88455857)" />
        <path
           transform="translate(5.5873166,-0.88455857)"
           style="fill:#ffffff;stroke:#000000;stroke-width:0.423333;stroke-linecap:round;stroke-opacity:0"
           d="m 136.10481,154.71145 0.16797,-0.70315 0.83524,0.91628 0.604,0.29401 1.31749,-0.37371 -1.52842,1.13068 -1.37226,-0.75616 z"
           id="path865-5" />
        <path
           transform="translate(5.5873166,-0.88455857)"
           style="fill:#ffffff;stroke:#000000;stroke-width:0.423333;stroke-linecap:round;stroke-opacity:0"
           d="m 137.75762,151.46152 1.42591,-0.59371 0.75732,-1.08853 -0.45595,-1.3416 1.04417,2.36114 -1.0223,1.00276 -0.82739,0.20561 -0.29654,-0.0816 z"
           id="path867-3" />
        <path
           transform="translate(5.5873166,-0.88455857)"
           style="fill:#ffffff;stroke:#000000;stroke-width:0.423333;stroke-linecap:round;stroke-opacity:0"
           d="m 134.3619,146.63416 -0.79743,0.002 0.0426,-1.10928 1.11837,-0.84396 2.20067,-0.31703 0.96154,0.54296 -0.89711,0.51447 -1.2603,-0.0224 -0.73449,0.23664 -0.44833,0.51623 z"
           id="path869-5" />
        <path
           transform="translate(5.5873166,-0.88455857)"
           style="fill:#ffffff;stroke:#000000;stroke-width:0.423333;stroke-linecap:round;stroke-opacity:0"
           d="m 127.69586,149.69597 0.40569,-0.57669 -0.60798,-1.00291 0.16634,-1.31096 -1.01793,1.36906 0.26634,0.83541 z"
           id="path871-6" />
        <path
           transform="translate(5.5873166,-0.88455857)"
           style="fill:#ffffff;stroke:#000000;stroke-width:0.423333;stroke-linecap:round;stroke-opacity:0"
           d="m 128.61471,151.50692 0.16425,-0.48726 -0.0344,-0.64404 -0.67597,0.0683 -0.34108,0.76235 0.17268,0.41542 0.43,0.17369 z"
           id="path873-2" />
        <path
           transform="translate(5.5873166,-0.88455857)"
           style="fill:#000000;stroke-width:0.264583"
           d="m 134.01151,149.00088 c 0,-0.33142 -0.16096,-0.38581 -0.72761,-0.24586 -0.54859,0.13548 -0.65374,0.10448 -0.42739,-0.12601 0.42996,-0.43783 1.53044,-0.2127 1.63472,0.3344 0.0485,0.25467 -0.0396,0.46303 -0.19574,0.46303 -0.15619,0 -0.28398,-0.19151 -0.28398,-0.42556 z"
           id="path1224" />
        <path
           transform="translate(5.5873166,-0.88455857)"
           style="fill:#000000;stroke-width:0.264583"
           d="m 135.38831,151.5311 c -0.17762,-0.28442 -0.21562,-0.51713 -0.0844,-0.51713 0.23753,0 0.64661,0.79504 0.48978,0.95187 -0.0453,0.0453 -0.22772,-0.15032 -0.40535,-0.43474 z"
           id="path1222" />
        <path
           transform="translate(5.5873166,-0.88455857)"
           style="fill:#000000;stroke-width:0.264583"
           d="m 130.70688,152.60578 c -0.19514,-0.31575 0.0525,-0.79806 0.40983,-0.79806 0.32194,0 0.32403,0.71612 0.003,0.91474 -0.13547,0.0837 -0.32109,0.0312 -0.41249,-0.11668 z"
           id="path1220" />
        <path
           transform="translate(5.5873166,-0.88455857)"
           style="fill:#000000;stroke-width:0.264583"
           d="m 136.77567,153.41781 c 0.0822,-0.13309 0.0167,-0.28627 -0.14569,-0.3404 -0.18626,-0.0621 -0.13804,-0.22888 0.13064,-0.45187 0.37305,-0.3096 0.42589,-0.26737 0.42589,0.3404 0,0.38162 -0.12609,0.69386 -0.2802,0.69386 -0.15411,0 -0.2129,-0.10889 -0.13064,-0.24199 z"
           id="path1218" />
        <path
           transform="translate(5.5873166,-0.88455857)"
           style="fill:#000000;stroke-width:0.264583"
           d="m 131.96099,154.26023 c -0.53738,-0.18745 -0.37701,-0.56299 0.17839,-0.41775 0.93335,0.24407 1.89783,-2.77499 1.23114,-3.85374 -0.22802,-0.36892 -1.12222,-0.39097 -1.34339,-0.0331 -0.26193,0.42383 -0.61232,0.30703 -0.79375,-0.26458 -0.20434,-0.64384 -0.5936,-0.67259 -1.23593,-0.0913 -0.52924,0.47895 -0.68042,0.1291 -0.16636,-0.38496 0.44377,-0.44377 1.52084,-0.39659 1.70163,0.0745 0.11388,0.29678 0.27258,0.32666 0.65315,0.12298 0.58614,-0.31369 1.408,0.0274 1.66222,0.6899 0.31842,0.8298 0.15604,2.04346 -0.40758,3.04629 -0.59528,1.05916 -0.92341,1.30572 -1.47952,1.11173 z"
           id="path1216" />
        <path
           transform="translate(5.5873166,-0.88455857)"
           style="fill:#000000;stroke-width:0.264583"
           d="m 126.86776,157.71151 c 0,-0.13552 0.17481,-0.47752 0.38846,-0.76 0.32635,-0.43147 0.3898,-0.44473 0.39687,-0.083 0.005,0.23684 -0.17018,0.57884 -0.38846,0.76 -0.21828,0.18116 -0.39687,0.21849 -0.39687,0.083 z"
           id="path1214" />
        <path
           transform="translate(5.5873166,-0.88455857)"
           style="fill:#ffffff;stroke:#000000;stroke-width:0.423333;stroke-linecap:round;stroke-opacity:0"
           d="m 129.37121,161.40802 1.09281,-0.57435 -0.25003,-1.80971 -1.06553,-0.3046 -0.40896,0.45133 z"
           id="path875-1" />
        <path
           transform="matrix(0.07948469,0.06176427,-0.06176427,0.07948469,140.14076,77.047253)"
           d="m 429.08008,504.03906 c -5.37523,0.12714 -8.68411,1.99613 -14.49024,7.65821 -10.80655,10.53836 -14.26473,23.23318 -8.17187,30.0039 3.89683,4.33096 3.74532,5.76725 -0.99805,9.45313 -8.69797,6.75883 -16.24143,18.30434 -20.20117,30.91797 -4.42927,14.10914 -9.1452,15.2878 -15.47266,3.86914 -4.30931,-7.77658 -4.66206,-7.93518 -4.55859,-2.05469 0.14332,8.12883 1.97395,10.37727 10.62891,13.04687 7.22385,2.22841 9.03649,5.84245 3.24218,6.46485 -1.80214,0.19359 -4.64316,-1.40642 -6.3125,-3.55469 -1.66939,-2.14835 -4.41791,-3.75799 -6.10742,-3.57617 -5.74293,0.61694 3.53389,8.87411 11.02539,9.81445 l 7.45313,0.93359 -3.86719,9.76563 c -6.25203,15.78306 2.93865,31.609 18.23828,31.4043 6.12638,-0.0827 18.01838,15.11415 17.79492,22.73828 -0.0684,2.3416 0.73798,3.5878 1.79102,2.76953 4.05462,-3.15068 2.77603,-10.66015 -3.10352,-18.22656 -4.7532,-6.11692 -5.31825,-8.52382 -2.51953,-10.73633 1.98553,-1.56791 5.39324,-5.20045 7.57031,-8.07227 3.89462,-5.13643 4.07235,-5.03036 11.03125,6.50782 7.27344,12.05982 10.31857,26.62231 4.79688,22.9375 -1.63609,-1.09164 -2.78033,-0.67161 -2.59375,0.95117 0.18337,1.59809 2.50946,3.09078 5.16992,3.31836 3.9551,0.33838 4.70576,-1.65539 4.11328,-10.9375 -0.75786,-11.87173 2.71639,-13.24271 10.46289,-4.12696 3.25114,3.8261 2.86047,4.94494 -2.70507,7.72461 -5.90383,2.94857 -6.10467,4.03165 -2.16797,11.6836 2.38706,4.63868 5.74023,8.95595 7.45117,9.59375 13.32619,11.70674 18.87541,-0.21463 9.72265,-2.90039 -9.90414,-3.75781 -15.84809,-12.81182 -9.64453,-14.69141 2.30372,-0.69797 6.12069,1.8715 9.78711,6.58984 3.49766,4.50115 5.95376,6.9871 7.88867,7.51172 l 2.04493,-20.5332 c -5.2297,1.19213 -16.40972,-3.78507 -19.26953,-9.79102 -2.34569,-4.92624 -5.16448,-6.79476 -11.04688,-7.32226 -7.1619,-0.64214 -8.83836,-2.15573 -18.02148,-16.26563 -5.56924,-8.55687 -10.93978,-14.92611 -11.93555,-14.15234 -0.99569,0.77371 -0.48409,3.73107 1.13867,6.57226 4.17239,7.30538 -1.81496,18.34482 -11.57226,21.33399 -4.17302,1.2784 -9.15512,1.76378 -11.07032,1.07812 -5.3618,-1.91989 -11.83394,-11.27472 -11.21484,-16.20898 0.76973,-6.13378 7.53461,-10.86538 10.35156,-7.24023 3.33148,4.28728 8.56579,3.07453 9.74414,-2.25782 0.57769,-2.61498 2.13626,-4.14131 3.65235,-3.57617 3.95581,1.47377 11.55364,-6.04512 10.14453,-10.03906 -0.83993,-2.38036 -2.60522,-2.05999 -5.5918,1.01562 -3.10192,3.19481 -6.00596,3.60541 -10.04102,1.41797 -3.12266,-1.69279 -6.85725,-2.1612 -8.29882,-1.04101 -6.90403,5.36483 -7.40445,-12.18754 -0.75196,-26.375 2.79835,-5.96792 9.68121,-15.24474 15.29492,-20.61719 5.61388,-5.37257 9.08106,-10.18737 7.70704,-10.69922 -1.37395,-0.51191 -1.50774,-1.69928 -0.29883,-2.63867 1.2089,-0.93939 3.19892,-0.42148 4.42187,1.15234 1.2229,1.57375 5.95935,1.83729 10.52539,0.58399 9.22926,-2.53343 22.78891,0.66104 32.30079,7.60937 4.96225,3.62497 5.83184,5.68726 4.23437,10.03711 -1.10596,3.01151 -0.81597,7.01306 0.64453,8.89258 2.40611,3.09643 2.76826,2.78421 3.84961,-3.34375 2.34165,-13.27199 13.75956,-6.48513 13.46875,8.00586 -0.13649,6.80169 -0.9186,7.84875 -5.75195,7.69336 -10.07331,-0.32371 -6.4613,4.59867 4.5664,6.22265 12.46542,1.83586 18.43232,-1.87786 21.29297,-13.25195 2.39932,-9.53935 0.0536,-8.65177 -4.78125,1.80859 -2.3786,5.14631 -4.83558,7.48636 -8.03515,7.6543 -3.79372,0.19911 -4.26639,-0.34213 -2.67578,-3.06054 1.06276,-1.81621 0.71905,-8.26748 -0.76368,-14.33594 -1.72266,-7.0498 -1.14617,-14.26763 1.59571,-19.99024 2.36024,-4.92609 3.30596,-10.86459 2.10351,-13.19726 -1.74645,-3.38621 -2.42294,-2.35689 -3.35937,5.10742 -1.22124,9.73444 -5.27855,14.91217 -10.23828,13.06445 -1.59248,-0.59334 -1.27984,-2.33433 0.69531,-3.86914 4.84746,-3.76676 6.51451,-14.69528 2.94336,-19.29101 -3.69758,-4.75843 -15.4215,-10.9573 -17.56836,-9.28907 -0.90007,0.69941 2.25846,3.47316 7.01953,6.16407 8.03053,4.53861 8.58921,5.42719 7.72656,12.30273 -1.31177,10.45385 -8.19337,15.19882 -13.02539,8.98047 -5.55581,-7.1498 -22.61842,-11.89778 -35.16016,-9.78516 -12.06764,2.03284 -15.13512,0.0208 -13.98242,-9.16797 0.52487,-4.18204 3.46512,-7.8392 9.26758,-11.52148 4.67492,-2.96702 7.10833,-5.56991 5.4082,-5.7832 -1.69987,-0.21298 -6.95749,3.08896 -11.68554,7.33789 -6.70274,6.02379 -8.24957,9.10561 -7.01758,13.98828 1.9502,7.72988 -0.50745,10.11241 -4.77148,4.625 -6.39591,-8.23092 10.14182,-29.68864 25.38671,-32.93945 5.51496,-1.17617 5.23553,-1.38574 -2.41015,-1.80079 -0.86551,-0.0469 -1.67547,-0.0631 -2.44336,-0.0449 z m 72.03906,86.47656 c -0.51251,0.0424 -1.50907,0.69312 -3.10156,1.91407 -2.47169,1.89233 -7.89987,2.23177 -12.18946,0.76172 l -7.73242,-2.65039 -1.51172,9.45312 c -1.70464,10.66729 -8.09606,25.31751 -12.55859,28.78516 -1.69934,1.32048 -1.10325,7.54247 1.39258,14.54101 3.9579,11.0906 4.8426,12.21622 9.5,12.08008 0.74928,-0.0219 1.38525,0.0214 1.93555,0.10938 l 0.61132,-6.125 c -2.50192,0.13373 -5.09398,-3.08107 -6.72461,-9.02149 -1.46506,-5.33739 -0.1671,-11.01476 4.14258,-18.11719 3.4521,-5.68922 6.51231,-13.48559 6.80078,-17.32617 0.51907,-6.95567 0.55344,-6.98125 7.6543,-5.83398 8.03987,1.29891 9.3899,0.6418 11.58594,-5.63672 0.71251,-2.03718 0.85426,-2.98812 0.19531,-2.9336 z"
           style="fill:#000000;stroke-width:2.62846"
           id="path853-9" />
        <ellipse
           style="fill:#ffffff;fill-opacity:1;stroke:#000000;stroke-width:0.472333;stroke-linecap:round;stroke-opacity:0"
           id="path1307"
           cx="133.85355"
           cy="150.16956"
           rx="0.25826707"
           ry="0.46679404" />
        <path
           id="path2587"
           d="m 134.8238,160.96563 c 0,0 2.59241,-3.07447 3.20765,-3.44883 0.61523,-0.37436 1.14153,-0.46538 1.46251,-0.22176 0.32098,0.24362 0.7503,0.54087 0.7503,0.54087 l -0.57847,0.58071 c 0,0 -0.33368,-0.53055 -0.65095,-0.49549 -0.31728,0.0351 -1.62716,1.27712 -2.0085,1.70063 -0.38134,0.42351 -1.95203,2.10576 -2.33332,2.37019 -0.3813,0.26444 -0.5432,0.27649 -0.5432,0.27649 z"
           style="opacity:1;fill:#000000;stroke:#000000;stroke-width:0.161058;stroke-linecap:round;stroke-opacity:0" />
      </g>
    </g>
    <g
       style="filter:url(#filter2581)"
       transform="matrix(2.8497645,0.28541456,-0.28541456,2.8497645,-192.49684,-306.68272)"
       id="g2303">
      <path
         id="path965"
         d="m 93.238618,198.32497 -1.658057,-0.64001 -0.719547,-0.84144 0.213103,-1.41769 1.051954,-0.11274 1.855571,0.96308 1.125688,0.32655 0.37982,-0.47889 -1.195477,-1.66911 0.339997,-1.07727 c 0,0 1.933276,-0.2992 1.996213,-0.2992 0.06294,0 0.45344,-0.12633 0.45344,-0.12633 l 0.79334,-2.18567 1.516337,-2.24003 1.3986,-1.58828 0.43365,-1.2214 -0.80839,-1.57378 -0.25096,-1.73164 1.20144,-0.52597 -0.28351,-3.48523 8.34639,-1.74743 0.17637,0.89962 1.03668,1.24758 c 0,0 0.68685,1.7185 0.69169,1.90731 0.005,0.18881 -0.0876,1.92504 -0.0876,1.92504 l -0.78818,2.04678 -0.89742,0.94478 0.0423,1.66115 0.55121,1.30534 1.31419,-0.0493 1.17714,0.7667 0.52475,1.76669 -0.41857,1.19056 -1.01779,1.68059 1.37275,1.3323 -0.0916,0.29864 -1.11694,0.92051 -1.17192,0.15458 -1.85521,0.45627 c 0,0 -2.31661,0.68009 -2.42728,0.69461 -0.11067,0.0145 -1.89427,0.33579 -1.89427,0.33579 0,0 -1.43778,0.43546 -1.51675,0.4161 -0.079,-0.0194 -2.96511,-1.01595 -2.96511,-1.01595 l -1.6645,-0.33666 c 0,0 -0.86111,-0.61985 -0.999731,-0.11923 -0.138623,0.50061 -0.517054,1.09754 -0.923946,1.23639 -0.406892,0.13886 -1.419823,0.59446 -1.959221,0.47735 -0.539398,-0.11712 -1.280554,-0.47103 -1.280554,-0.47103 z"
         style="fill:#ff9a1b;fill-opacity:1;stroke:#000000;stroke-width:0.423333;stroke-linecap:round;stroke-opacity:0" />
      <path
         id="path967"
         d="m 107.15315,179.61561 -0.0131,1.08369 c 0,0 0.92419,0.16981 0.97034,0.0733 0.0462,-0.0965 -0.0625,-1.06359 -0.0625,-1.06359 z"
         style="fill:#ffffff;fill-opacity:1;stroke:#000000;stroke-width:0.423333;stroke-linecap:round;stroke-opacity:0" />
      <path
         id="path969"
         d="m 100.55197,183.65925 -0.29407,-0.88506 0.99248,-0.74326 -0.76936,-3.3714 5.65605,-1.96727 3.1762,-0.18113 0.55772,1.31375 1.00011,0.61382 0.38371,-0.7866 0.14267,-1.57712 -0.13473,-3.28549 -1.60749,-2.16048 -9.31932,0.60212 -4.317716,3.60344 -0.596455,3.48293 2.666069,3.34888 z"
         style="fill:#ffffff;fill-opacity:1;stroke:#000000;stroke-width:0.423333;stroke-linecap:round;stroke-opacity:0" />
      <path
         sodipodi:nodetypes="ccsssssssssssscsssssssscscsssscssscccssssssssssccsscssscssssscccssssssssscsssssssssssssssscssssscsscsssssssccsscsssssscscssssscssssssssssssssssscccsssssscssssssscssscsscssssssssscccssssssscsssssscsscsscsssssssssssssscssssssssssssssssssssscssscsssssssssscscssscsccscssscssccssssscsscccss"
         id="path853"
         d="m 93.83133,198.82974 c -1.509642,-0.34752 -1.751128,-0.58839 -2.509393,-1.05225 -0.430707,-0.4307 -0.702048,-0.99302 -0.702048,-1.4549 0,-1.59992 1.284562,-1.82831 3.070295,-0.54589 0.778087,0.55878 1.261017,0.75338 1.43582,0.57858 0.174803,-0.1748 0.03974,-0.47351 -0.401569,-0.8881 -1.243476,-1.16818 -0.499184,-2.82507 1.316181,-2.64912 1.057275,0.10247 0.680875,0.36559 1.285162,-1.35174 0.261873,-0.74422 0.925185,-1.84478 1.469185,-2.44739 1.395597,-1.54597 2.143677,-2.68379 2.143677,-3.26052 0,-0.62171 -0.74051,-1.26988 -1.736336,-1.51982 -0.946055,-0.23744 -3.099028,-2.52451 -3.878935,-4.12053 -0.793277,-1.62338 -0.790409,-4.33795 0.0067,-6.36021 0.7221,-1.83193 2.794687,-3.97154 4.802131,-4.95743 1.26185,-0.61972 1.78354,-0.71852 3.71684,-0.70394 2.80412,0.0211 4.59698,0.59607 6.16622,1.97737 1.43156,1.26011 2.03834,2.67369 2.22964,5.1943 0.1379,1.81707 0.11314,1.92552 -0.58799,2.57531 -0.66435,0.6157 -0.70292,0.74842 -0.41767,1.43708 0.80797,1.95062 0.34665,4.5191 -1.08572,6.04492 -0.49863,0.53116 -0.5156,0.67957 -0.21282,1.86097 0.31908,1.24497 0.35551,1.2807 1.20457,1.18157 2.03159,-0.23717 2.93304,2.356 1.59022,4.5745 l -0.63584,1.05048 0.65208,0.60433 c 0.35865,0.33239 0.58337,0.71554 0.49937,0.85145 -0.16778,0.52797 -1.06278,1.27287 -1.79598,1.34794 -1.24956,0.12794 -0.98855,-0.17315 -2.97588,0.63934 -0.40497,0.16557 -1.06958,0.2006 -1.4067,0.38179 -0.33713,0.18118 -0.99197,0.29932 -1.45521,0.26253 -0.46324,-0.0368 -1.19944,0.11948 -1.636,0.34726 -1.00329,0.11183 -1.09938,0.41584 -2.33214,-0.12878 -2.862179,-1.26449 -2.832895,-0.70024 -3.300677,-0.91337 -0.596889,-0.27196 -0.617352,0.0197 -0.923891,0.45735 -0.195647,0.27933 -0.884019,0.73334 -1.529716,1.00891 -0.763733,0.17362 -1.855286,0.0449 -2.063576,-0.022 z m 0.753258,-1.44755 c 0.0022,-0.1819 -0.101125,-0.33073 -0.229673,-0.33073 -0.279986,0 -0.566666,0.9635 -0.350884,1.17928 0.18349,0.18349 0.574923,-0.38863 0.580557,-0.84855 z m 1.886194,0.71152 c 0.972416,-0.52042 1.249177,-2.36516 0.354838,-2.36516 -0.518796,0 -1.876282,1.36241 -2.04311,2.05052 -0.12019,0.49574 -0.03493,0.59531 0.509752,0.59531 0.359745,0 0.890079,-0.1263 1.17852,-0.28067 z m 7.106028,0.0264 c 0.42105,-0.26628 0.4038,-0.301 -0.38921,-0.78327 l -0.52917,-0.32181 0.52917,0.12048 c 0.29104,0.0663 0.73752,0.20626 0.99219,0.3111 0.93952,0.38678 0.46354,-0.65278 -0.60885,-1.32975 l -1.07187,-0.67664 0.67499,-0.80219 c 0.37125,-0.44121 0.675,-0.90079 0.675,-1.0213 0,-0.12051 -0.50602,-0.17248 -1.12448,-0.11548 l -1.12448,0.10362 1.31951,-0.32839 c 0.85142,-0.21189 1.34988,-0.48604 1.4051,-0.77279 0.074,-0.38441 -0.122,-0.43008 -1.4518,-0.33824 -1.58028,0.10914 -1.49442,0.0166 0.24854,-0.26776 1.4498,-0.23657 1.21159,-0.66081 -0.39687,-0.70683 l -1.38907,-0.0397 1.19063,-0.15869 1.19062,-0.1587 -0.65418,-0.46303 c -0.74999,-0.53083 -2.13489,-0.61082 -2.59578,-0.14993 -0.1722,0.1722 -0.40418,0.222 -0.515522,0.11066 -0.450622,-0.45062 0.850572,-0.9883 2.045692,-0.84532 1.80579,0.21603 1.81976,0.22028 1.96469,0.59796 0.0745,0.19403 0.43677,0.35278 0.80513,0.35278 0.49978,0 0.66977,-0.13827 0.66977,-0.54478 0,-0.29963 0.11906,-0.4712 0.26458,-0.38126 0.14873,0.0919 0.26458,1.35906 0.26458,2.89393 v 2.73041 l 0.78086,0.32344 c 0.42946,0.17789 0.96799,0.60906 1.19672,0.95814 0.22873,0.34909 0.59172,0.6347 0.80665,0.6347 0.47286,0 0.50357,-0.31053 0.0733,-0.74083 -0.20686,-0.20686 -0.21815,-0.3175 -0.0324,-0.3175 0.1568,0 0.43223,0.17728 0.61206,0.39396 0.37291,0.44934 0.79617,0.29461 0.79617,-0.29105 0,-0.21726 -0.35719,-0.51954 -0.79375,-0.67172 -0.72054,-0.25118 -0.79375,-0.38461 -0.79375,-1.44649 0,-1.11565 -0.0306,-1.1621 -0.66146,-1.00376 -0.40757,0.10229 -0.66146,0.0534 -0.66146,-0.12726 0,-0.16129 0.29766,-0.29326 0.66146,-0.29326 0.36614,0 0.66146,-0.15347 0.66146,-0.34375 0,-0.23193 -0.32273,-0.32343 -0.99219,-0.28128 -0.98784,0.0622 -0.98838,0.0617 -0.12188,-0.11927 1.16536,-0.24336 1.09926,-0.67358 -0.13394,-0.8718 l -1.00095,-0.16089 1.01321,-0.0375 c 0.98279,-0.0364 1.00798,-0.0614 0.83887,-0.8313 -0.0959,-0.43656 -0.0663,-0.79375 0.0658,-0.79375 0.34909,0 0.86022,2.45265 0.86022,4.12778 0,1.30855 0.0634,1.46567 0.68706,1.70279 0.37788,0.14367 0.74896,0.49791 0.82461,0.7872 0.0756,0.28929 0.24975,0.52598 0.38688,0.52598 0.13714,0 0.17033,-0.12785 0.0737,-0.28411 -0.0966,-0.15627 0.0731,-0.12883 0.37699,0.061 0.47218,0.29488 0.62056,0.27612 1.01987,-0.12893 0.44681,-0.45323 0.44478,-0.49071 -0.0463,-0.85472 -0.28247,-0.20939 -0.66943,-0.38071 -0.85989,-0.38071 -0.47973,0 -0.4419,-0.15198 0.31515,-1.26608 0.3638,-0.53538 0.66146,-1.04422 0.66146,-1.13076 0,-0.0865 -0.38696,-0.11862 -0.8599,-0.0713 -0.93477,0.0935 -0.75662,-0.0375 0.39688,-0.29189 1.10692,-0.24413 0.86855,-0.67485 -0.39688,-0.71711 l -1.12448,-0.0375 1.03765,-0.16089 c 1.48226,-0.22983 1.55522,-0.81072 0.10888,-0.86683 l -1.14653,-0.0445 0.99219,-0.10378 c 1.10458,-0.11555 1.26872,-0.4344 0.44937,-0.8729 -0.92379,-0.4944 -1.68544,-0.21891 -1.84893,0.66876 -0.14032,0.7619 -0.15379,0.74864 -0.33556,-0.33073 -0.17525,-1.04069 -0.2532,-1.12743 -1.04613,-1.16412 -0.80031,-0.037 -0.80882,-0.0469 -0.12917,-0.14986 1.01147,-0.15323 0.91357,-0.60337 -0.13229,-0.6083 -0.65006,-0.003 -0.76305,-0.0661 -0.46302,-0.25854 0.21828,-0.13997 0.60523,-0.18966 0.8599,-0.11041 0.25466,0.0792 0.46302,0.017 0.46302,-0.13833 0,-0.15533 -0.44649,-0.30147 -0.99219,-0.32476 -0.97687,-0.0417 -0.97891,-0.044 -0.13229,-0.14906 0.57289,-0.0711 0.85989,-0.24996 0.85989,-0.53591 0,-0.23606 0.26175,-0.70782 0.58166,-1.04836 l 0.58167,-0.61914 -1.1441,0.40365 c -1.31182,0.46284 -2.55894,0.52485 -2.79735,0.13908 -0.0899,-0.14552 -0.51127,-0.26458 -0.9363,-0.26458 -0.89772,0 -2.72421,-0.66842 -3.73475,-1.36676 -0.8248,-0.56998 -1.35743,-0.66224 -0.60504,-0.10481 0.50769,0.37614 0.50755,0.38499 -0.0121,0.76985 -0.5127,0.37974 -0.51355,0.40271 -0.0348,0.93174 0.33277,0.36771 0.43803,0.75293 0.32681,1.19607 -0.13368,0.53261 -0.0537,0.67491 0.43166,0.76838 0.51127,0.0985 0.49257,0.11982 -0.13189,0.15075 -1.02159,0.0506 -0.9109,0.55672 0.1323,0.60493 0.72488,0.0335 0.67617,0.0647 -0.31019,0.19844 -0.64383,0.0873 -1.22423,0.32318 -1.29048,0.52441 -0.0901,0.27357 0.0845,0.33562 0.69309,0.24631 0.44742,-0.0657 0.75321,-0.0219 0.67955,0.0973 -0.0737,0.11919 -0.5847,0.21671 -1.13565,0.21671 -1.076354,0 -1.523652,0.3533 -2.24102,1.77005 l -0.42736,0.84401 0.990767,0.1037 0.990766,0.1037 -1.124479,0.0445 c -0.80338,0.0318 -1.124479,0.15781 -1.124479,0.44135 0,0.28928 0.298881,0.39688 1.102431,0.39688 1.197254,0 1.218338,0.31105 0.02676,0.39484 -1.330524,0.0936 -1.43882,0.13147 -1.32865,0.46505 0.06007,0.1819 0.51648,0.40435 1.014236,0.49434 l 0.90501,0.16361 -0.992188,0.0348 c -1.143691,0.0401 -1.165509,0.11578 -0.488797,1.69448 0.511018,1.19216 1.006847,1.40662 2.045499,1.40662 0.317794,0 0.992664,0.23129 1.499724,0.51398 1.02135,0.56942 1.70504,0.77113 2.29372,0.39883 z m -9.826271,-0.78456 c 0.121148,-0.82723 -0.913324,-1.87162 -1.853854,-1.87162 -0.560614,0 -0.747629,0.12696 -0.747629,0.50753 0,0.90228 0.326494,1.39589 1.164077,1.7599 1.026748,0.44624 1.326162,0.36379 1.437406,-0.39581 z m 12.363051,-0.16024 c -0.38479,-0.29104 -0.41465,-0.38846 -0.11906,-0.38846 0.21699,0 0.5374,0.14288 0.71203,0.3175 0.23313,0.23314 0.39574,0.23926 0.61194,0.0231 0.39933,-0.39933 0.15229,-0.72299 -0.95163,-1.24684 -0.83269,-0.39513 -0.93031,-0.55121 -0.93031,-1.48737 0,-0.64921 -0.12545,-1.05384 -0.33073,-1.06681 -0.26459,-0.0167 -0.26459,-0.0476 0,-0.15434 0.3803,-0.15346 0.45441,-1.14769 0.0855,-1.14769 -0.13486,0 -0.57563,0.68461 -0.9795,1.52135 -0.40387,0.83675 -0.76819,1.58089 -0.8096,1.65365 -0.0414,0.0728 0.33984,0.40128 0.84721,0.73004 0.54452,0.35283 0.92249,0.81356 0.92249,1.12447 0,0.40028 0.17469,0.52472 0.72761,0.51833 0.69693,-0.008 0.70595,-0.0248 0.21401,-0.39688 z m -9.562215,-1.60739 c 0.4323,-0.16589 0.583221,-0.63315 0.204501,-0.63315 -0.117708,0 -0.44513,0.1748 -0.727604,0.38846 -0.524324,0.39658 -0.23067,0.53394 0.523103,0.24469 z m -0.110652,-1.04865 c 0,-0.0728 -0.238125,-0.005 -0.529167,0.15091 -0.291042,0.15576 -0.529167,0.34274 -0.529167,0.4155 0,0.0728 0.238125,0.005 0.529167,-0.15091 0.291042,-0.15576 0.529167,-0.34274 0.529167,-0.4155 z M 96.69664,193.678 c 0.009,-0.34638 -0.972657,-0.44523 -1.689536,-0.17013 -0.398886,0.15306 -0.574775,0.91786 -0.279094,1.21354 0.23009,0.23009 1.95933,-0.68644 1.96863,-1.04341 z m 8.73987,-2.60174 c 0,-0.23041 -0.14139,-0.37179 -0.3142,-0.31419 -0.49059,0.16353 -0.57196,0.73311 -0.10473,0.73311 0.23041,0 0.41893,-0.18851 0.41893,-0.41892 z m 2.44739,-6.63547 c -0.1819,-0.0734 -0.47955,-0.0734 -0.66146,0 -0.1819,0.0734 -0.0331,0.13345 0.33073,0.13345 0.36381,0 0.51263,-0.0601 0.33073,-0.13345 z m 1.94192,-0.88974 c 1.01963,-0.28548 1.17548,-0.43131 1.32762,-1.24226 0.2142,-1.14179 -0.23812,-2.70705 -1.16938,-4.04666 -0.66571,-0.95762 -0.77864,-1.0142 -1.76943,-0.88649 -2.65394,0.34208 -6.48229,1.25406 -6.48229,1.54421 0,0.0452 0.23551,0.60115 0.52336,1.2355 0.62895,1.3861 0.66108,1.91551 0.14743,2.42916 -0.34033,0.34033 -0.29655,0.42523 0.35939,0.69693 1.72173,0.71316 5.02829,0.83938 7.0633,0.26961 z m -3.13254,-1.99678 c -0.90171,-0.48919 -0.70136,-1.73353 -0.0656,-2.29913 0.56024,-0.49837 0.51747,-0.85823 0.51747,-0.85823 0,0 0.43347,0.34739 0.8692,0.67898 0.97221,0.73984 1.1271,1.50977 0.19823,2.31741 -0.36491,0.31729 -0.71584,0.4162 -0.75112,0.41037 -0.0353,-0.006 -0.36804,-0.0323 -0.76822,-0.2494 z m 1.38906,-1.33219 c 0,-0.0572 -0.17859,-0.10398 -0.39688,-0.10398 -0.21828,0 -0.39687,0.11533 -0.39687,0.25628 0,0.14095 0.17859,0.18775 0.39687,0.10399 0.21829,-0.0838 0.39688,-0.19909 0.39688,-0.25629 z M 104.83,179.35772 c 0.23763,-0.38051 0.0708,-0.63245 0.3208,-0.42503 0.43596,0.36181 0.13528,0.92083 -0.5259,0.92083 -0.44508,0 -0.0728,-0.0508 0.2051,-0.4958 z m -4.15599,2.34788 c 0,-0.14552 -0.11907,-0.26458 -0.26459,-0.26458 -0.14552,0 -0.26458,0.11906 -0.26458,0.26458 0,0.14552 0.11906,0.26458 0.26458,0.26458 0.14552,0 0.26459,-0.11906 0.26459,-0.26458 z m -3.760896,-2.84427 c -0.733119,-1.28052 -0.737025,-1.2848 -0.737025,-0.80738 0,0.36933 0.954437,1.79957 1.200906,1.79957 0.05729,0 -0.151456,-0.44649 -0.463881,-0.99219 z m 14.159766,-1.25677 c 0.0287,-0.14552 -0.29824,-0.30448 -0.72651,-0.35323 -0.69304,-0.0789 -0.73936,-0.0413 -0.4212,0.34207 0.37639,0.45353 1.05917,0.46017 1.14771,0.0112 z m -10.78241,-0.8348 c -0.11461,-0.45664 -0.0552,-0.77932 0.16976,-0.92199 0.60156,-0.38152 1.20545,-0.2465 1.34877,0.30158 0.0761,0.29104 0.30648,0.52917 0.51192,0.52917 0.30777,0 0.2787,-0.36916 -0.16513,-2.09668 -0.57042,-2.22023 -1.00438,-2.57656 -0.88932,-0.73022 0.0666,1.06906 0.0417,1.10711 -0.72476,1.10711 -0.705146,0 -0.803133,-0.0978 -0.877844,-0.87584 -0.05843,-0.60851 -0.20402,-0.85079 -0.476997,-0.79375 -0.522426,0.10915 -0.522713,0.0678 0.01572,2.2649 0.323548,1.32026 0.59386,1.91823 0.867141,1.91823 0.2976,0 0.35289,-0.17598 0.22074,-0.70251 z m 3.87169,-1.34801 c 0.0658,-0.5715 0.23983,-0.74557 0.81133,-0.81133 0.51971,-0.0598 0.7276,0.0347 0.7276,0.33073 0,0.41152 0.30551,0.54991 0.58874,0.26668 0.0813,-0.0813 -0.25084,-0.80972 -0.73803,-1.61878 -0.48719,-0.80906 -0.93568,-1.60576 -0.99664,-1.77046 -0.0741,-0.20023 -0.20166,-0.21178 -0.38494,-0.0349 -0.38884,0.37534 -0.72691,4.36562 -0.36987,4.36562 0.15295,0 0.31577,-0.32742 0.36181,-0.7276 z m -0.0486,-2.21521 c 0,-0.70436 0.0585,-0.77759 0.39688,-0.49677 0.21828,0.18116 0.39687,0.55292 0.39687,0.82614 0,0.27323 -0.17859,0.49677 -0.39687,0.49677 -0.26804,0 -0.39688,-0.26818 -0.39688,-0.82614 z m 3.44364,0.87667 c 0.007,-1.16502 0.37393,-1.48885 0.79542,-0.70129 l 0.36513,0.68225 0.44197,-0.58594 0.44197,-0.58594 0.31916,0.96707 c 0.17554,0.53189 0.429,0.96707 0.56323,0.96707 0.31228,0 0.30899,-0.41735 -0.0113,-1.43642 -0.14047,-0.44689 -0.32134,-1.13996 -0.40192,-1.54014 -0.19291,-0.95807 -0.57997,-0.92598 -0.79788,0.0662 -0.22092,1.00585 -0.56509,1.00636 -1.13679,0.002 -0.57781,-1.01545 -0.79208,-1.00099 -0.95548,0.0645 -0.0725,0.47294 -0.1984,1.28513 -0.2797,1.80486 -0.0813,0.51972 -0.0703,1.0225 0.0245,1.11728 0.31246,0.31247 0.62761,-0.0971 0.63173,-0.82109 z"
         style="fill:#000000;stroke-width:0.264583" />
      <path
         id="path855"
         d="m 105.61413,182.00643 c 0,0 0.18092,-0.11819 0.21744,0.0837 0.0365,0.20191 -0.0896,0.21625 -0.19532,0.17081 -0.1057,-0.0454 -0.0221,-0.25454 -0.0221,-0.25454 z"
         style="fill:#000000;stroke:#000000;stroke-width:0.423333;stroke-linecap:round;stroke-opacity:0" />
      <path
         id="path857"
         d="m 104.62811,181.94839 c 0,0 -0.20658,-0.0672 -0.22514,0.0666 -0.0185,0.1338 0.23577,0.38085 0.3161,0.28389 0.0803,-0.0969 -0.15316,-0.37515 -0.15316,-0.37515 z"
         style="fill:#000000;stroke:#000000;stroke-width:0.423333;stroke-linecap:round;stroke-opacity:0" />
      <path
         id="path859"
         d="m 104.44649,182.80256 c -0.0269,0.0683 0.0915,0.44595 0.18587,0.29056 0.0943,-0.15539 0.14233,-0.20776 0.0409,-0.24483 -0.10139,-0.0371 -0.2268,-0.0457 -0.2268,-0.0457 z"
         style="fill:#000000;stroke:#000000;stroke-width:0.423333;stroke-linecap:round;stroke-opacity:0" />
    </g>
    <path
       id="path2356"
       d="m 36.193489,215.51765 5.617635,14.03695 32.975447,-4.74627 -2.355623,-13.43618 -10.929463,-1.77204 -25.656096,5.74935 z"
       style="opacity:1;fill:#000000;stroke:#000000;stroke-width:0.423333;stroke-linecap:round;stroke-opacity:0" />
    <path
       id="path2358"
       d="m 39.902105,216.10163 c 0,0 2.54975,-1.25858 5.105456,-1.40569 2.555703,-0.1471 3.213378,0.84946 3.095882,1.75106 -0.117499,0.9016 -5.369399,7.55942 -5.043901,7.99871 0.325499,0.43929 5.754405,-2.89402 6.615645,-1.84813 0.861239,1.04588 1.585483,1.86709 1.103373,2.05669 -0.482113,0.18959 -8.302829,3.03329 -8.478292,2.80884 -0.175462,-0.22444 -1.81161,-1.77633 -1.572655,-2.90735 0.238959,-1.13103 4.638593,-7.90535 4.224224,-7.66328 -0.414369,0.24207 -4.928095,2.48522 -5.195147,1.91614 -0.267054,-0.56909 -1.427032,-1.75446 -1.102746,-1.99726 0.324284,-0.2428 1.248161,-0.70973 1.248161,-0.70973 z"
       style="opacity:0.85;fill:#ffffff;stroke:#000000;stroke-width:0.423333;stroke-linecap:round;stroke-opacity:0" />
    <path
       id="path2360"
       d="m 52.153443,212.20445 c -0.264165,0.6156 3.08804,9.80937 3.635875,10.12848 0.547839,0.31911 3.859337,-0.20677 3.918427,-0.86912 0.05909,-0.66234 -2.421755,-10.21385 -3.205666,-10.82971 -0.783912,-0.61586 -4.006757,1.66113 -4.348636,1.57035 z"
       style="opacity:0.85;fill:#ffffff;stroke:#000000;stroke-width:0.423333;stroke-linecap:round;stroke-opacity:0" />
    <path
       transform="matrix(0.26458333,0,0,0.26458333,4.901144,7.3673815)"
       d="m 231.31836,762.5918 c -5.53817,0.0822 -10.58546,1.08314 -11.19141,1.76172 -1.21189,1.35711 -1.81848,1.15527 1.94922,49.20898 0,0 7.8726,3.6836 10.47071,2.42773 2.59809,-1.25589 -0.009,-19.38604 0.67773,-21.77539 0.68647,-2.38938 19.17548,-5.53587 19.95898,-9.72461 0.7835,-4.18877 -2.59303,-12.1552 -7.73047,-18.14843 -2.56871,-2.99662 -8.5966,-3.83221 -14.13476,-3.75 z m 4.5293,9.0332 c 2.56457,0.10705 5.81351,2.27398 6.77734,5.89453 1.28512,4.8274 -4.43484,6.82826 -5.83203,7.58594 -1.39719,0.75768 -2.79984,-0.74778 -3.12695,-8.72266 0,0 -2.41734,-2.377 -0.0449,-4.15625 0.59311,-0.44481 1.37171,-0.63724 2.22657,-0.60156 z"
       style="opacity:0.85;fill:#ffffff;stroke:#000000;stroke-width:1.6;stroke-linecap:round;stroke-opacity:0"
       id="path2362" />
  </g>
</svg>
