<?xml version="1.0" encoding="UTF-8" standalone="no"?>
<svg
   xmlns:osb="http://www.openswatchbook.org/uri/2009/osb"
   xmlns:dc="http://purl.org/dc/elements/1.1/"
   xmlns:cc="http://creativecommons.org/ns#"
   xmlns:rdf="http://www.w3.org/1999/02/22-rdf-syntax-ns#"
   xmlns:svg="http://www.w3.org/2000/svg"
   xmlns="http://www.w3.org/2000/svg"
   xmlns:sodipodi="http://sodipodi.sourceforge.net/DTD/sodipodi-0.dtd"
   xmlns:inkscape="http://www.inkscape.org/namespaces/inkscape"
   sodipodi:docname="zzzzzzzzip.svg"
   inkscape:version="1.0 (4035a4fb49, 2020-05-01)"
   id="svg3384"
   version="1.1"
   viewBox="0 0 191.96297 284.638"
   height="1075.7971"
   width="725.5293">
  <defs
     id="defs3378">
    <pattern
       inkscape:collect="always"
       patternUnits="userSpaceOnUse"
       width="10"
       height="10"
       patternTransform="translate(0,0) scale(10,10)"
       id="Polkadots-large"
       inkscape:stockid="Polka dots, large">
      <circle
         style="fill:black;stroke:none"
         cx="2.567"
         cy="0.810"
         r="0.45"
         id="circle6104" />
      <circle
         style="fill:black;stroke:none"
         cx="3.048"
         cy="2.33"
         r="0.45"
         id="circle6106" />
      <circle
         style="fill:black;stroke:none"
         cx="4.418"
         cy="2.415"
         r="0.45"
         id="circle6108" />
      <circle
         style="fill:black;stroke:none"
         cx="1.844"
         cy="3.029"
         r="0.45"
         id="circle6110" />
      <circle
         style="fill:black;stroke:none"
         cx="6.08"
         cy="1.363"
         r="0.45"
         id="circle6112" />
      <circle
         style="fill:black;stroke:none"
         cx="5.819"
         cy="4.413"
         r="0.45"
         id="circle6114" />
      <circle
         style="fill:black;stroke:none"
         cx="4.305"
         cy="4.048"
         r="0.45"
         id="circle6116" />
      <circle
         style="fill:black;stroke:none"
         cx="5.541"
         cy="3.045"
         r="0.45"
         id="circle6118" />
      <circle
         style="fill:black;stroke:none"
         cx="4.785"
         cy="5.527"
         r="0.45"
         id="circle6120" />
      <circle
         style="fill:black;stroke:none"
         cx="2.667"
         cy="5.184"
         r="0.45"
         id="circle6122" />
      <circle
         style="fill:black;stroke:none"
         cx="7.965"
         cy="1.448"
         r="0.45"
         id="circle6124" />
      <circle
         style="fill:black;stroke:none"
         cx="7.047"
         cy="5.049"
         r="0.45"
         id="circle6126" />
      <circle
         style="fill:black;stroke:none"
         cx="4.340"
         cy="0.895"
         r="0.45"
         id="circle6128" />
      <circle
         style="fill:black;stroke:none"
         cx="7.125"
         cy="0.340"
         r="0.45"
         id="circle6130" />
      <circle
         style="fill:black;stroke:none"
         cx="9.553"
         cy="1.049"
         r="0.45"
         id="circle6132" />
      <circle
         style="fill:black;stroke:none"
         cx="7.006"
         cy="2.689"
         r="0.45"
         id="circle6134" />
      <circle
         style="fill:black;stroke:none"
         cx="8.909"
         cy="2.689"
         r="0.45"
         id="circle6136" />
      <circle
         style="fill:black;stroke:none"
         cx="9.315"
         cy="4.407"
         r="0.45"
         id="circle6138" />
      <circle
         style="fill:black;stroke:none"
         cx="7.820"
         cy="3.870"
         r="0.45"
         id="circle6140" />
      <circle
         style="fill:black;stroke:none"
         cx="8.270"
         cy="5.948"
         r="0.45"
         id="circle6142" />
      <circle
         style="fill:black;stroke:none"
         cx="7.973"
         cy="7.428"
         r="0.45"
         id="circle6144" />
      <circle
         style="fill:black;stroke:none"
         cx="9.342"
         cy="8.072"
         r="0.45"
         id="circle6146" />
      <circle
         style="fill:black;stroke:none"
         cx="8.206"
         cy="9.315"
         r="0.45"
         id="circle6148" />
      <circle
         style="fill:black;stroke:none"
         cx="9.682"
         cy="9.475"
         r="0.45"
         id="circle6150" />
      <circle
         style="fill:black;stroke:none"
         cx="9.688"
         cy="6.186"
         r="0.45"
         id="circle6152" />
      <circle
         style="fill:black;stroke:none"
         cx="3.379"
         cy="6.296"
         r="0.45"
         id="circle6154" />
      <circle
         style="fill:black;stroke:none"
         cx="2.871"
         cy="8.204"
         r="0.45"
         id="circle6156" />
      <circle
         style="fill:black;stroke:none"
         cx="4.59"
         cy="8.719"
         r="0.45"
         id="circle6158" />
      <circle
         style="fill:black;stroke:none"
         cx="3.181"
         cy="9.671"
         r="0.45"
         id="circle6160" />
      <circle
         style="fill:black;stroke:none"
         cx="5.734"
         cy="7.315"
         r="0.45"
         id="circle6162" />
      <circle
         style="fill:black;stroke:none"
         cx="6.707"
         cy="6.513"
         r="0.45"
         id="circle6164" />
      <circle
         style="fill:black;stroke:none"
         cx="5.730"
         cy="9.670"
         r="0.45"
         id="circle6166" />
      <circle
         style="fill:black;stroke:none"
         cx="6.535"
         cy="8.373"
         r="0.45"
         id="circle6168" />
      <circle
         style="fill:black;stroke:none"
         cx="4.37"
         cy="7.154"
         r="0.45"
         id="circle6170" />
      <circle
         style="fill:black;stroke:none"
         cx="0.622"
         cy="7.25"
         r="0.45"
         id="circle6172" />
      <circle
         style="fill:black;stroke:none"
         cx="0.831"
         cy="5.679"
         r="0.45"
         id="circle6174" />
      <circle
         style="fill:black;stroke:none"
         cx="1.257"
         cy="8.519"
         r="0.45"
         id="circle6176" />
      <circle
         style="fill:black;stroke:none"
         cx="1.989"
         cy="6.877"
         r="0.45"
         id="circle6178" />
      <circle
         style="fill:black;stroke:none"
         cx="0.374"
         cy="3.181"
         r="0.45"
         id="circle6180" />
      <circle
         style="fill:black;stroke:none"
         cx="1.166"
         cy="1.664"
         r="0.45"
         id="circle6182" />
      <circle
         style="fill:black;stroke:none"
         cx="1.151"
         cy="0.093"
         r="0.45"
         id="circle6184" />
      <circle
         style="fill:black;stroke:none"
         cx="1.151"
         cy="10.093"
         r="0.45"
         id="circle6186" />
      <circle
         style="fill:black;stroke:none"
         cx="1.302"
         cy="4.451"
         r="0.45"
         id="circle6188" />
      <circle
         style="fill:black;stroke:none"
         cx="3.047"
         cy="3.763"
         r="0.45"
         id="circle6190" />
    </pattern>
    <linearGradient
       osb:paint="solid"
       id="linearGradient6754">
      <stop
         id="stop6752"
         offset="0"
         style="stop-color:#db6c30;stop-opacity:1;" />
    </linearGradient>
  </defs>
  <sodipodi:namedview
     inkscape:window-maximized="0"
     inkscape:window-y="34"
     inkscape:window-x="10"
     inkscape:window-height="1034"
     inkscape:window-width="1898"
     units="px"
     fit-margin-bottom="0"
     fit-margin-right="0"
     fit-margin-left="0"
     fit-margin-top="0"
     inkscape:snap-global="true"
     showgrid="false"
     inkscape:document-rotation="0"
     inkscape:current-layer="layer5"
     inkscape:document-units="mm"
     inkscape:cy="931.66719"
     inkscape:cx="-389.06117"
     inkscape:zoom="0.34480398"
     inkscape:pageshadow="2"
     inkscape:pageopacity="0.0"
     borderopacity="1.0"
     bordercolor="#666666"
     pagecolor="#ffffff"
     id="base" />
  <metadata
     id="metadata3381">
    <rdf:RDF>
      <cc:Work
         rdf:about="">
        <dc:format>image/svg+xml</dc:format>
        <dc:type
           rdf:resource="http://purl.org/dc/dcmitype/StillImage" />
        <dc:title></dc:title>
      </cc:Work>
    </rdf:RDF>
  </metadata>
  <g
     transform="translate(-4.901144,-7.3673815)"
     style="display:inline"
     id="layer1"
     inkscape:groupmode="layer"
     inkscape:label="Layer 1">
    <path
       id="path4666"
       d="m 16.223725,40.262108 4.828092,46.044138 34.466507,-0.613489 3.740936,24.777483 -3.202202,2.68078 0.796423,6.6504 2.580589,2.73885 2.187332,5.58182 -9.10549,11.87564 -4.530714,4.03862 0.619773,7.96911 0.686917,2.05064 3.703611,1.70167 33.766431,9.35369 2.564749,43.07847 -41.742812,-4.34655 -1.741646,-9.49708 -22.884497,-0.3191 -5.361863,32.93631 66.032341,26.30918 17.228458,38.01646 76.94845,0.0439 3.24408,-65.81831 -6.55506,-21.61621 -4.20495,-7.59461 -5.81945,-9.06931 -9.96131,-5.88126 -3.02752,-0.90484 c 0,0 -2.56805,2.108 -2.6087,2.23891 -0.0406,0.13092 0.48421,3.69882 0.48421,3.69882 l -3.1521,0.22912 -3.34072,-1.47407 -2.27871,-0.82629 -3.28215,0.77697 -0.96065,-1.18765 -1.21487,-3.1731 0.008,-4.2472 -1.07489,-0.52216 -1.99168,0.3263 -0.74551,2.42861 c 0,0 -0.16892,4.92591 -0.16892,5.06539 0,0.13948 -0.83892,5.38464 -0.83892,5.38464 l -0.50134,0.50848 -3.08542,-6.12772 -2.00046,-4.94533 -1.81452,-0.64111 -7.90971,-1.23911 -2.36591,-0.36214 0.40018,6.34802 2.92407,2.35425 10.2693,3.48588 1.70068,3.62542 1.82437,3.12271 1.14698,2.17385 -1.04961,2.87458 -1.99953,6.28082 -1.13777,1.82696 -0.76896,0.60393 -0.88744,1.56926 -7.82933,0.91167 -3.89564,-0.0345 -7.44963,-9.86866 -2.23384,3.13225 -11.071403,-60.2548 c 0,0 -6.110348,-37.66598 -8.944655,-36.6474 -2.834304,1.01857 -23.431087,-2.28681 -23.431087,-2.28681 L 60.2455,77.501683 37.715494,64.085882 47.995974,43.090414 Z"
       style="opacity:1;fill:#7495b8;fill-opacity:1;stroke:#000000;stroke-width:0.423333;stroke-linecap:round;stroke-opacity:0" />
    <path
       id="path4669"
       d="m 19.130437,96.123944 3.50188,38.918296 39.371884,-6.03977 -3.967075,-12.59303 c 0,0 -4.069432,-31.396258 -5.464418,-31.222847 -1.394984,0.173408 -32.855556,11.057789 -32.855556,11.057789 z"
       style="opacity:1;fill:#e9a39e;fill-opacity:1;stroke:#000000;stroke-width:0.423333;stroke-linecap:round;stroke-opacity:0" />
    <path
       id="path4671"
       d="m 21.342919,144.83669 0.07425,16.99006 14.244362,-5.07714 -16.234375,24.91704 25.794255,-3.83293 8.901245,-0.50783 -0.102325,-10.54858 -0.633743,-12.89293 -3.798846,-0.97043 0.345454,-7.23495 z"
       style="opacity:1;fill:#edd540;fill-opacity:1;stroke:#000000;stroke-width:0.423333;stroke-linecap:round;stroke-opacity:0" />
    <path
       id="path4673"
       d="m 41.883861,178.70113 12.336225,-1.35143 0.484367,-5.81001 26.843357,-4.37136 1.83079,30.94556 -0.308631,6.21007 -35.995829,-1.15565 z"
       style="opacity:1;fill:#f19a9c;fill-opacity:1;stroke:#000000;stroke-width:0.423333;stroke-linecap:round;stroke-opacity:0" />
    <path
       id="path4675"
       d="M 45.336391,62.01607 63.376066,108.41391 92.0796,104.04069 74.426227,53.6649 Z"
       style="opacity:1;fill:#edd540;fill-opacity:1;stroke:#000000;stroke-width:0.423333;stroke-linecap:round;stroke-opacity:0" />
    <path
       id="path4679"
       d="m 103.88311,126.00088 -9.584661,22.54731 9.623761,52.92 2.93415,1.62754 6.33769,7.92001 c 0,0 2.38069,0.78403 2.60497,0.73419 0.22428,-0.0498 6.69471,-0.96314 6.69471,-0.96314 l 2.36903,-0.45592 2.94237,-2.98208 2.81436,-8.25503 0.14101,-2.14147 -1.42456,-2.8694 0.73901,-3.32087 0.0636,-1.34026 0.77427,-2.98287 0.42782,-8.36325 1.01804,-1.55788 2.01936,-0.61547 0.80803,0.43467 0.51241,6.47545 1.08238,1.69781 c 0,0 2.83554,-0.65481 3.08691,-0.65481 0.25138,0 1.58245,0.36318 1.58245,0.36318 l 1.63772,1.61918 4.04306,1.04619 2.13033,-0.17663 0.34346,-4.29047 3.62242,-2.82793 6.45425,0.25137 5.44405,0.0565 4.13636,-2.96215 3.61,-1.9637 7.37164,-4.05951 14.17108,-11.66142 -0.26003,-29.6446 -1.00943,-47.721817 -27.01292,3.617296 -7.83275,-6.748309 4.68239,-11.269308 -0.45694,-6.35967 3.75028,1.77822 3.48019,-3.192442 0.71243,-5.023114 -2.97561,-6.529658 -2.53191,-2.408663 -1.78275,1.673815 -0.36543,1.601385 -0.79927,-0.73946 -3.95837,-7.383883 -8.01901,-8.363275 -10.72516,-5.18377 -6.80765,-0.61387 -2.07916,1.232212 -4.04993,-0.01736 -3.585,4.016436 -2.5921,3.956595 -0.36221,8.428628 v 2.86771 l -0.8279,1.726528 -0.63392,0.82282 0.17244,5.053729 -1.58586,4.984464 -0.943,2.223233 1.85637,3.863194 2.72327,2.478517 2.5783,2.369788 4.18633,5.220554 2.84944,2.350244 7.55077,5.815896 0.59169,4.274322 -2.69755,3.328311 0.45496,2.278221 0.75229,5.757129 6.22815,14.513832 c 0,0 2.20423,-2.27292 2.20423,-2.55386 0,-0.28095 4.97816,-8.00854 4.97816,-8.00854 l 16.32071,-15.364689 8.68904,-3.426391 17.45324,-2.49193 1.25702,45.16344 -0.36829,1.21496 -10.73963,-3.62922 -8.06652,3.20177 2.7823,14.69579 -0.6752,4.99358 c 0,0 -2.53129,5.06412 -2.75956,5.27483 -0.22827,0.21071 -4.246,4.07798 -4.246,4.07798 l -4.2904,4.1541 -2.39353,1.38237 -6.18101,-2.26446 -2.22421,-0.47582 -9.33943,0.53178 -8.0053,8.01475 -1.83633,3.29968 -1.42709,0.22485 -6.16125,-0.80772 -8.68233,1.43562 -4.27647,1.24866 -2.18295,0.38715 0.66782,1.97627 5.3549,1.06989 4.95179,0.51807 1.52094,1.14287 3.4816,8.3352 0.7961,2.68873 -0.84488,2.97195 -0.2164,0.10603 -2.50141,-5.16613 -5.75804,-1.68041 -8.47336,-4.03182 0.18559,-8.31499 0.007,-6.09204 0.98271,-9.10162 1.50805,-10.3834 4.92433,-9.10656 1.37485,-4.65298 -1.5957,-3.07387 -5.75753,-4.87472 -8.94125,-1.78345 z"
       style="opacity:1;fill:#f2d1c1;fill-opacity:1;stroke:#000000;stroke-width:0.423333;stroke-linecap:round;stroke-opacity:0" />
    <path
       id="path4682"
       d="m 118.35572,57.920209 -0.0685,-3.089621 11.08043,-4.745323 2.90121,1.305808 3.35783,7.311597 -2.19316,3.864382 -2.17558,1.38022 -7.3268,1.372005 -5.69476,-4.811072 z"
       style="opacity:1;fill:#fbf8f9;fill-opacity:1;stroke:#000000;stroke-width:0.423333;stroke-linecap:round;stroke-opacity:0" />
    <path
       id="path4684"
       d="m 138.66751,51.127305 1.76786,5.866307 1.81438,3.622193 3.51919,-0.583168 5.47648,-0.647946 6.7353,-2.677088 0.67179,-2.430291 -2.48206,-4.880911 -1.70461,-2.371995 -1.20758,-0.924481 -1.70957,-0.356862 -7.58183,1.651132 -3.83303,1.007851 -1.53394,1.182317 z"
       style="opacity:1;fill:#fbf8f9;fill-opacity:1;stroke:#000000;stroke-width:0.423333;stroke-linecap:round;stroke-opacity:0" />
    <path
       id="path4686"
       d="m 133.65206,26.728671 10.08223,1.915057 8.30385,5.828466 4.06364,4.251973 3.00694,3.97582 3.32956,6.526059 0.46312,-0.435652 1.31299,-2.580323 2.21181,0.379585 2.15144,4.184845 1.94882,5.143201 -1.26614,4.131818 -1.36398,2.200987 -1.86722,0.694261 -2.18123,-1.203928 -1.35744,-0.382929 0.67504,3.795671 -1.64019,8.198619 -2.82236,5.81007 10.19992,2.336007 17.38766,-2.005402 6.03703,-18.43293 -15.52128,-38.998366 -22.98479,-11.965883 -29.40699,3.036295 -18.64253,15.575937 -7.735325,26.861476 2.177525,28.13768 12.22963,2.014191 14.67254,4.92919 12.10239,-4.171635 -0.55407,-2.151157 -9.226,-6.272488 -8.04694,-9.588902 -2.69224,-0.519218 -2.8698,-6.383621 2.13783,-3.732834 0.30306,-3.994793 0.2457,-4.355116 1.11089,-1.30733 0.11624,-4.849595 -0.006,-7.953214 6.26858,-6.986884 1.15441,-0.546901 5.81962,-0.418529 z"
       style="opacity:1;fill:#c09f6b;fill-opacity:1;stroke:#000000;stroke-width:0.423333;stroke-linecap:round;stroke-opacity:0" />
    <path
       sodipodi:nodetypes="ccccccccccccccccccccccccccccccccccccccccccccccccccccccccccccccccccccccccc"
       id="path4688"
       d="m 118.60072,130.44682 -6.02838,-4.20469 -9.15995,-0.7474 19.17371,-29.906485 13.48469,-4.50183 -0.3674,1.055695 0.51133,1.888699 0.79677,6.013841 0.77422,2.11408 5.6364,12.32622 2.9103,-5.43363 5.12535,-6.53565 15.64084,-14.131191 24.99871,-1.662358 2.98427,42.820379 -6.79498,-3.03521 -5.06917,-0.90549 -8.40079,2.19615 1.03004,6.02097 1.64822,11.51924 -1.64102,4.98661 -4.01619,6.598 -8.50609,6.14445 -1.78662,-0.78984 -5.29341,-2.08374 -10.71228,0.39319 -4.36008,3.74553 -5.6385,7.31259 -0.0607,7.55219 0.13673,4.02202 1.73781,1.23324 6.4689,-1.16694 3.29892,3.26971 2.24638,-0.71614 0.68648,-4.36043 3.66742,-2.25585 6.94016,0.33865 2.96145,-0.0169 13.01601,-5.77505 2.09007,-1.34574 9.98121,17.86017 -3.24879,24.3668 -7.23031,0.93771 -4.5078,-12.5572 -4.36198,-9.79735 -6.66567,-6.77028 -8.9292,-5.4895 -2.00404,-0.0373 -1.54637,1.4309 -0.3966,3.46838 -0.26929,0.75515 -2.75315,0.32007 -2.66113,-1.92115 -3.33482,-0.9172 -3.25853,0.91285 -0.88076,-0.21853 -0.77741,-1.00768 -0.78469,-1.85422 -0.10567,-6.28397 -0.26614,-2.88197 -2.46956,-0.76996 -6.32273,-0.46963 -7.02513,1.20629 -5.09078,1.86801 -1.14864,0.32449 -0.77202,-0.10002 0.18756,-3.22614 0.0692,-5.04986 0.94793,-6.13661 2.05367,-12.75228 4.39341,-9.12481 2.48453,-4.17982 z"
       style="opacity:1;fill:#db6c30;fill-opacity:1;stroke:#000000;stroke-width:0.423333;stroke-linecap:round;stroke-opacity:0" />
  </g>
  <g
     transform="translate(-4.901144,-7.3673815)"
     inkscape:label="Layer 3"
     id="layer6"
     inkscape:groupmode="layer">
    <path
       transform="scale(0.26458333)"
       id="path4691"
       d="m 425.99637,655.32836 c -0.4227,-1.10155 -0.48861,-8.80007 -0.14645,-17.10781 l 0.62209,-15.105 12.61442,-26.54073 c 7.26817,-15.29225 14.46018,-28.6003 16.9695,-31.40029 5.36099,-5.98197 5.70961,-10.96735 1.11174,-15.89807 -6.35867,-6.81899 -7.09657,-11.76344 -1.75555,-11.76344 2.38479,0 3.10463,-1.05323 4.3208,-6.32197 2.00066,-8.66735 7.85408,-17.60674 13.68051,-20.89302 6.64645,-3.7488 6.73713,-5.34971 0.41802,-7.3799 -5.02468,-1.61432 -5.4976,-2.16928 -6.90778,-8.10627 -0.83261,-3.50532 -3.02096,-10.25818 -4.86301,-15.00637 -4.38243,-11.29644 -4.29514,-14.101 0.54619,-17.54833 4.67337,-3.32773 4.94686,-9.24741 0.45686,-9.88898 -2.02027,-0.28868 -3.38525,0.99029 -5.68647,5.32812 -2.94858,5.55814 -2.98662,6.01986 -1.44882,17.58778 0.8686,6.53389 1.91699,13.4572 2.32976,15.38513 0.43464,2.0301 0.20129,3.50532 -0.55449,3.50532 -0.71773,0 -6.62566,-3.96282 -13.12872,-8.80627 -12.21699,-9.09916 -22.5593,-13.37313 -36.92187,-15.25804 l -6.03174,-0.79159 5.79278,-10.19729 c 21.93575,-38.61451 40.69098,-68.24378 52.17032,-82.41802 5.5094,-6.8028 8.82508,-9.49937 16.70308,-13.58424 10.9181,-5.66121 33.05261,-13.76396 34.27102,-12.54555 0.43041,0.43041 1.87678,8.68222 3.21415,18.33734 2.29338,16.55698 2.97256,18.82264 11.94929,39.86134 5.23475,12.26862 10.61008,23.7258 11.94519,25.46042 2.33062,3.02798 2.52625,3.06445 4.90244,0.91404 1.36122,-1.23189 8.43169,-10.90949 15.71216,-21.50578 12.20982,-17.77066 15.4632,-21.42646 41.9171,-47.10185 l 28.67988,-27.83586 19.75726,-0.33734 c 34.42293,-0.58774 47.33912,0.0648 50.06207,2.52899 3.81122,3.44911 11.85459,21.50187 16.65059,37.37105 7.90752,26.16471 12.82056,55.62526 14.38981,86.28719 l 0.86512,16.90369 -5.89042,-2.60561 c -17.12216,-7.57395 -40.83118,-9.8629 -53.25668,-5.14158 -9.18259,3.48911 -15.15339,7.83016 -15.16382,11.02479 -0.005,1.46801 1.72098,11.20921 3.83505,21.64709 2.11408,10.43788 3.76387,21.56913 3.66621,24.7361 -0.0976,3.16698 0.10821,10.92051 0.45759,17.23009 l 0.63515,11.47195 -6.80546,12.10928 c -4.06827,7.23888 -9.51518,14.7338 -13.54264,18.63462 -11.21103,10.85849 -25.46911,22.15455 -27.96383,22.15455 -1.2931,0 -7.56713,-2.34864 -13.94226,-5.21922 l -11.59115,-5.21921 -21.68841,1.13034 -21.68841,1.13033 -14.28031,14.60483 c -7.85417,8.03266 -16.70154,17.90303 -19.66084,21.93414 -6.09307,8.29991 -5.84916,8.23949 -21.87072,5.41732 -20.4859,-3.60857 -33.9712,-2.10201 -50.87234,5.68341 -12.44292,5.73175 -13.87699,6.03308 -14.98396,3.14838 z"
       style="opacity:1;mix-blend-mode:darken;fill:url(#Polkadots-large);fill-opacity:1;fill-rule:nonzero;stroke:#000000;stroke-width:2.03946;stroke-linecap:round;stroke-opacity:0" />
    <path
       transform="scale(0.26458333)"
       id="path6612"
       d="m 672.29071,796.58795 c -8.17965,-35.06081 -28.57997,-74.7468 -44.65276,-86.86572 -4.08929,-3.08333 -14.78252,-10.60091 -23.76275,-16.70575 l -16.32768,-11.09969 18.1163,0.13515 18.11631,0.13515 16.11191,-7.80906 c 8.86155,-4.29499 18.71605,-9.60076 21.8989,-11.79062 3.18285,-2.18986 6.32513,-3.98156 6.98283,-3.98156 0.65771,0 1.51497,2.37937 1.90503,5.28749 0.44234,3.29787 2.84607,8.45399 6.38801,13.70261 8.49764,12.5922 8.94935,13.81467 9.80829,26.5445 0.73346,10.87013 1.11547,12.15704 5.06911,17.07682 l 4.27587,5.32075 -2.15818,13.51505 c -2.91654,18.26398 -5.91137,42.60567 -5.91137,48.04697 0,7.55609 -6.66874,18.36653 -11.32994,18.36653 -1.7275,0 -2.74069,-2.20951 -4.52988,-9.87862 z"
       style="opacity:1;fill:url(#Polkadots-large);fill-opacity:1;stroke:#000000;stroke-width:2.03946;stroke-linecap:round;stroke-opacity:0" />
  </g>
  <g
     transform="translate(-4.901144,-7.3673815)"
     inkscape:label="Layer 2"
     id="layer5"
     inkscape:groupmode="layer">
    <path
       transform="scale(0.26458333)"
       d="m 573.22461,170.86719 c -5.57774,0.0726 -12.91396,1.73196 -22.82422,3.42383 -13.21368,2.25581 -28.93649,6.2912 -29.74414,12.86523 -0.80761,6.57402 1.89844,11.43359 1.89844,11.43359 0,0 -10.40514,1.93354 -12.54492,2.57227 -2.13978,0.63872 -7.47598,4.07883 -7.37696,9.14648 0.0991,5.06766 4.1835,4.59156 7.07813,3.90821 2.89459,-0.68336 2.46963,-6.06221 7.41601,-7.25977 4.94638,-1.19755 9.19336,2.38281 9.19336,2.38281 0,0 4.05269,14.37948 10.01172,22.98243 0,0 21.98749,-1.45718 36.10742,-4.19727 14.1199,-2.74009 27.28255,-11.63735 28.67383,-17.56445 1.39125,-5.9271 -2.54475,-13.84964 -5.98828,-20.94336 -3.44349,-7.09372 -10.88378,-16.69322 -16.87891,-18.23633 -1.49877,-0.38578 -3.16223,-0.53787 -5.02148,-0.51367 z m -1.88672,4.09179 c 1.37344,0.0307 2.77158,0.2224 4.41016,0.59766 6.55434,1.50107 12.27326,12.03263 14.36523,17.4082 2.09197,5.3756 7.29788,14.28867 5.48242,17.36133 -1.81542,3.07267 -13.4177,9.94716 -24.53711,12.52344 -11.11937,2.57629 -28.22098,4.73102 -29.83007,4.67969 -1.6091,-0.0513 -3.06641,-2.85938 -3.06641,-2.85938 0,0 -3.80265,-5.82397 -8.51172,-18.64844 -4.70906,-12.82447 -5.58738,-16.03806 -4.29883,-18.6914 1.28856,-2.65335 15.79097,-5.95147 28.46289,-8.89649 9.50395,-2.20877 13.40313,-3.56674 17.52344,-3.47461 z"
       style="opacity:1;fill:#000000;stroke:#000000;stroke-width:1.6;stroke-linecap:round;stroke-opacity:0"
       id="path3969" />
    <path
       id="path3974"
       d="m 146.036,56.351492 c 0,0 -0.52643,-2.196531 1.19468,-3.631306 1.72111,-1.434771 2.85658,-1.48885 3.15224,-0.541104 0.29565,0.947745 -3.94632,3.012665 -4.34692,4.17241 z"
       style="opacity:1;fill:#000000;stroke:#000000;stroke-width:0.423333;stroke-linecap:round;stroke-opacity:0" />
    <path
       id="path3976"
       d="m 125.37319,57.71661 c 0.14564,-1.563783 3.01446,-1.545394 3.78203,-0.502227 0.76757,1.043167 1.31835,2.427814 1.31835,2.427814 0,0 -3.53044,-0.516401 -5.10038,-1.925587 z"
       style="opacity:1;fill:#000000;stroke:#000000;stroke-width:0.423333;stroke-linecap:round;stroke-opacity:0" />
    <path
       transform="scale(0.26458333)"
       d="m 500.61914,96.888672 c -0.98206,-0.007 -1.68061,0.0068 -2.00586,0.04297 -2.60198,0.289175 -3.72851,5.328128 -3.72851,5.328128 -0.90857,3.26578 -8.26287,-0.14032 -11.90625,-2.06641 -3.64343,-1.926092 -5.11983,2.20172 -7.9375,4.27148 -2.81772,2.06978 -18.2115,20.11465 -22.02735,25.23828 -3.81585,5.12363 -4.2408,28.25308 -2.41797,42.52344 1.82283,14.27036 -5.61811,10.27793 -4.95703,13.2168 0.66108,2.93887 -0.27307,16.75695 -1.42969,23.20508 -1.15664,6.44812 -3.78283,10.69945 -5.41796,12.86133 -1.6351,2.16187 -1.0879,16.16211 -1.0879,16.16211 10e-6,0 8.78793,21.31026 12.10938,24.9707 3.32145,3.66046 8.55469,0.3164 8.55469,0.3164 0,0 8.75437,13.43476 11.66211,17.57813 2.9077,4.14337 41.91003,37.59166 51.67187,41.17969 9.76188,3.588 34.61305,5.55186 50.18164,1.52343 15.56859,-4.02842 23.24266,-17.26468 38.33594,-38.72461 15.09324,-21.45993 6.26172,-49.9414 6.26172,-49.9414 0,0 4.6487,7.38263 13.35351,7.20703 8.70479,-0.17561 14.52747,-18.62921 16.76563,-24.60352 2.23816,-5.97429 -3.51315,-22.3488 -9.5918,-33.22851 -6.07865,-10.87971 -10.98214,-12.84767 -14.55859,-13.06836 -3.57645,-0.22069 -7.97266,12.58398 -7.97266,12.58398 l -1.30468,-5.29492 c -1.30356,-5.29617 -19.91328,-33.81825 -31.41211,-46.10547 -11.4988,-12.28723 -44.93084,-29.30775 -49.4961,-31.82031 -3.99459,-2.1985 -24.77012,-3.306172 -31.64453,-3.355467 z m 12.27539,9.093748 c 8.47227,0.10056 20.23201,1.48511 30.28125,7.93555 16.07883,10.32072 42.54356,24.70511 56.24219,48.34765 13.69867,23.64257 15.82422,28.89063 15.82422,28.89063 0,0 3.24806,-11.95925 6.91015,-13.49219 3.6621,-1.53294 10.24291,6.6655 11.625,11.50196 1.38206,4.83646 8.86594,17.14669 5.91602,28.81836 -2.94988,11.67166 -4.21604,11.77807 -7.49414,13.76367 -3.27814,1.9856 -11.59438,1.9693 -16.50391,-3.16993 -4.90957,-5.1392 -4.43945,-3.35351 -4.43945,-3.35351 0,0 4.90507,26.16909 -0.49414,39.47656 -5.39925,13.30748 -8.6274,27.68798 -25.64453,40.15821 -17.0171,12.47024 -14.86017,13.12489 -30.50586,13.87695 -15.64573,0.75205 -34.55663,-5.25124 -41.88086,-10.08203 -7.3242,-4.83079 -28.84948,-23.08494 -32.83594,-28.40235 -3.98649,-5.31741 -16.33073,-25.21549 -18.19336,-25.65039 -1.86262,-0.4349 -4.88599,1.00431 -7.96679,-0.77734 -3.08081,-1.78165 -7.76752,-9.54333 -9.23829,-13.45899 -1.47072,-3.91564 -4.06787,-9.99855 -0.43945,-10.42968 3.62842,-0.43115 9.27323,5.99876 10.57422,10.27929 1.30099,4.28054 3.29111,3.31909 3.81836,7.22657 0.52728,3.90746 0.51978,5.19721 2.72461,3.98242 2.20482,-1.21479 -2.07481,-4.70115 0.39258,-5.37305 2.46742,-0.6719 5.94736,3.02566 10.46484,3.14453 4.51748,0.11887 16.51151,-3.52463 19.80469,-4.42187 3.29314,-0.89724 10.04883,-3.05274 10.04883,-3.05274 0,0 4.83458,4.95881 8.33007,4.82422 3.4955,-0.13459 7.33404,-1.99875 6.82422,-3.53906 -0.50986,-1.54032 -8.82509,-3.60673 -8.12304,-6.98047 0.70204,-3.37374 8.30651,-9.86928 8.83398,-13.53711 0.52743,-3.66783 0.39923,-4.22076 -2.38477,-4.26562 -2.784,-0.0449 -10.05438,3.42177 -12.04687,7.77929 -1.99245,4.35751 -5.27643,8.24679 -4.83789,9.85157 l 0.4375,1.60546 c 0,0 -18.23922,4.9078 -22.52539,5.61329 -4.28618,0.70547 -7.49414,0.85666 -12.22656,-2.67188 -4.73243,-3.52854 -6.63641,-4.98928 -9.125,-8.04687 -2.48856,-3.05759 -5.8125,-9.87891 -5.8125,-9.87891 h -0.002 c -0.192,-6.79508 -2.44587,-12.69587 1.92383,-14.93164 4.36966,-2.23576 25.19497,-11.97861 28.77539,-12.18555 3.58039,-0.20693 14.16968,-2.45027 18.39258,1.2832 4.2229,3.73346 8.79879,3.41739 5.21875,-0.5664 -3.58001,-3.98379 -3.50051,-9.41364 -8.57422,-9.09961 -5.07375,0.31404 -24.28721,4.84993 -28.75,7.81445 -4.46279,2.96451 -11.50105,8.83163 -14.14453,7.28321 -2.64348,-1.54842 -3.58814,-12.91086 -2.10547,-13.79688 1.48271,-0.88602 2.03491,1.90771 5.27344,3.14063 3.23852,1.23292 8.50394,-0.33999 13.87109,-3.92774 5.3672,-3.58773 14.60325,-6.70363 15.31641,-10.5039 0.71316,-3.80027 0.59642,-9.05665 -3.59375,-7.91211 -4.19014,1.14455 -21.06069,12.57736 -24.1582,13.96289 -3.09752,1.38551 -3.66407,1.54687 -3.66407,1.54687 0,0 2.17969,-4.7615 2.17969,-6.36914 0,-1.60764 -1.34321,-2.78417 -0.22266,-6.32422 1.12037,-3.54005 0.10769,-12.77831 0.19727,-19.6289 0.0896,-6.85059 0.39438,-16.2677 1.74023,-17.91602 1.34586,-1.64833 9.05099,-11.08886 13.58204,-16.20313 4.53104,-5.11424 8.49795,-11.16334 13.32421,-10.625 4.82627,0.53835 14.10078,-1.02142 18.46485,-1.14453 1.63652,-0.0462 5.53773,-0.449 10.62109,-0.38867 z"
       style="opacity:1;fill:#000000;stroke:#000000;stroke-width:1.6;stroke-linecap:round;stroke-opacity:0"
       id="path3980" />
    <path
       id="path3985"
       d="m 142.15788,45.135199 c 0,0 -0.93602,-1.656064 -0.88552,-2.0364 0.0505,-0.380333 4.89697,-1.231151 7.64453,-1.036148 2.74756,0.195006 4.05395,0.145809 4.4475,0.855572 0.39356,0.709761 1.5097,1.572734 0.0201,1.443199 -1.48964,-0.129534 -3.63947,-0.971087 -5.61486,-0.841552 -1.9754,0.129535 -3.29949,0.555887 -4.10789,1.123672 -0.80841,0.567788 -1.33143,0.69192 -1.50382,0.491657 z"
       style="opacity:1;fill:#000000;stroke:#000000;stroke-width:0.423333;stroke-linecap:round;stroke-opacity:0" />
    <path
       sodipodi:nodetypes="csscsssssssc"
       id="path3987"
       d="m 134.82875,73.419633 c -1.39466,0 -2.00882,-0.693251 -1.66149,-1.429959 0.34734,-0.736706 9.43419,-0.358513 10.02895,-0.633857 l 0.59475,-0.275344 c 0,0 1.13877,-4.113429 4.18045,-3.169171 3.04167,0.944258 3.15492,2.251166 2.39915,2.751405 -0.66916,0.442906 -0.42292,-1.595996 -1.52641,-1.403001 -1.10348,0.192997 -3.32945,1.285774 -2.79462,1.889614 0.53483,0.603838 4.017,-0.04586 4.67479,0.320646 0.65778,0.366498 0.21817,1.797545 -0.78932,1.988841 -1.00749,0.191297 -2.63054,-0.328543 -3.54301,-0.409868 -0.91247,-0.08133 -11.56324,0.370694 -11.56324,0.370694 z"
       style="opacity:1;fill:#000000;stroke:#000000;stroke-width:0.423333;stroke-linecap:round;stroke-opacity:0" />
    <path
       sodipodi:nodetypes="cccccsscscccscscsssssscccccsscssscsscscsscscssscscscssscsscccsccsssscscsssscssscsscsccccscsssssssscsccsssssssssssscssssssscsssssscccsssscssssssscsssssssscssscsssssssssssscssscscsscsssssssscccssssssccsscsscss"
       transform="scale(0.26458333)"
       d="m 19.498047,29.484375 -0.173908,1073.356725 619.995911,-1.0313 7.75459,-9.5649 -107.7747,0.104 c 0,0 -1.75868,-92.48104 -5.32924,-126.02253 -3.57059,-33.54153 -18.59738,-126.16492 -27.06836,-147.29297 -8.47101,-21.12805 -15.71289,-28.19336 -15.71289,-28.19336 0,0 10.66517,39.49367 8.39258,65.83985 -2.27255,26.34618 -14.59375,152.95701 -14.59375,152.95701 l -5.23633,82.666 H 401.4082 c 0,0 -20.7316,-93.81102 -16.44531,-156.37301 4.28625,-62.56196 10.14258,-144.82227 10.14258,-144.82227 0,0 1.36082,-13.31622 5.02148,-18.81054 3.6607,-5.49442 5.10352,-10.09961 5.10352,-10.09961 0,0 -7.28807,-16.35296 -8.63086,-24.59766 -1.34283,-8.2447 -1.92389,-9.45342 -2.48828,-14.52539 -0.56436,-5.07194 -4.81097,-18.00495 -4.92383,-23.16797 -0.11301,-5.16299 -24.91252,-142.11999 -23.99414,-147.12695 0.91838,-5.00697 27.07299,-67.57308 28.72461,-70.59961 1.65161,-3.02653 55.26341,-102.9366 74.56055,-115.65821 19.29717,-12.7216 47.98242,-18.64648 47.98242,-18.64648 l 25.15234,-6.36914 -3.5332,-20.11914 -19.7168,-2.16602 -21.10351,6.98242 c 0,0 -6.85101,-21.36611 -15.63868,-23.68945 -8.7877,-2.32334 -22.707,-8.73942 -18.43164,7.91016 4.27537,16.64957 2.54492,14.3457 2.54493,14.3457 0,0 -18.87141,-2.57727 -22.125,-17.2832 -3.25369,-14.70593 -6.73102,-17.49252 -10.70508,-12.68945 -3.9741,4.80296 -14.70469,9.35637 -29.14649,2.125 -14.44184,-7.23147 -16.78906,-15.13477 -16.78906,-15.13477 0,0 19.10847,7.64392 24.16211,-0.38281 5.05364,-8.02673 4.85771,-19.18821 -2.83008,-29.41407 -7.68778,-10.22585 -7.03125,-9.62109 -7.03125,-9.62109 0,0 15.90431,-12.80237 13.19141,-21.1582 -2.71291,-8.35582 -17.72461,-30.27539 -17.72461,-30.27539 0,0 20.04165,-20.79747 25.07617,-30.08399 5.03456,-9.28652 7.31796,-33.11574 11.25195,-42.01172 3.934,-8.89598 23.66602,-49.052731 23.66602,-49.052731 0,0 20.12788,-3.579387 25.41211,0.433594 5.28423,4.012982 5.65234,3.912109 5.65234,3.912109 0,0 15.55141,-22.509558 26.73242,-22.417968 11.18102,0.09158 38.50743,-10.199998 42.53516,-6.435547 4.02773,3.764451 55.3793,27.089408 65.45117,38.363281 10.07191,11.273877 63.34375,67.470702 63.34375,67.470702 0,0 -8.4853,15.72293 -7.24414,22.54102 1.24112,6.81809 14.48242,16.74218 14.48242,16.74218 0,0 -10.18583,28.21432 -3.23437,37.73047 6.95142,9.51615 26.8164,14.16602 26.8164,14.16602 0,0 -9.36013,14.78245 -21.89648,11.66601 -12.53635,-3.11644 -31.45421,-15.65478 -33.25391,-10.5996 -1.79973,5.05508 8.1526,23.32142 6.01172,30.19531 -2.14091,6.87388 -5.21094,10.41406 -5.21094,10.41406 0,0 -9.34646,-23.24992 -17.22265,-22.20703 -7.8762,1.04289 -7.26264,18.43984 -3.88477,26.44922 1.66098,3.93838 2.43638,5.41031 2.80078,5.90234 0.0131,-10e-4 0.31446,-0.0293 0.31446,-0.0293 0,0 0.0622,0.5379 -0.31446,0.0293 -0.97552,0.0956 -37.37628,3.6554 -39.04296,2.17969 -1.68919,-1.4956 -4.18946,-0.11719 -4.18946,-0.11719 l -9.91211,10.0332 c 0,0 12.77261,24.32631 14.4336,26.5918 1.66099,2.26548 6.39886,6.0332 11.07422,6.0332 4.67538,0 77.7486,-3.24896 81.50976,-0.14257 3.76116,3.10636 17.99495,23.99209 27.95703,81.46875 9.96208,57.47663 5.96094,181.49609 5.96094,181.49609 0,0 -13.23151,13.14022 -30.01367,25.13867 -16.78216,11.99845 -31.86914,23.125 -31.86914,23.125 0,0 -0.57726,12.67037 3.23633,20.15039 3.81358,7.47999 15.08784,18.65339 14.17187,28.36133 -0.91597,9.70794 0.87504,19.4652 5.93945,23.29492 5.06442,3.82972 3.55603,6.87515 1.32422,17.87305 -2.23181,10.99786 -2.51367,19.69727 -2.51367,19.69727 0,0 -2.94141,16.55103 -2.94141,25.82421 0,9.27315 0.92621,4.73318 -2.13671,10.83594 -3.06293,6.10273 -5.02964,11.05779 -8.37891,10.69141 -3.34923,-0.36624 -12.96094,5.99609 -12.96094,5.99609 0,0 -2.60396,17.00687 -6.10547,35.05859 -3.50146,18.05182 -13.67956,71.13264 -10.43359,72.74219 3.24597,1.60955 9.2793,7.69531 9.2793,7.69531 0,0 -22.98207,117.38488 -20.90235,141.36138 1.8804,21.6781 1.8153,30.7106 1.81224,32.3076 L 743.2531,1102.7757 742.92717,28.646149 Z M 159.2168,170.31055 c 0.25867,0.0112 0.45319,0.0361 0.58008,0.0742 4.06022,1.22023 -1.64202,10.32213 -3.68946,15.30664 -2.04744,4.98449 -44.96689,80.90692 -47.62695,85.77929 -2.66006,4.87236 -9.038699,21.80046 -5.8418,23.42969 3.19693,1.62922 46.84638,-10.56792 52.97266,-12.37305 6.12629,-1.80512 6.1896,-2.72725 7.70508,0.86328 1.51548,3.59062 -10.30269,5.88188 -19.12696,9.14258 -8.82427,3.26071 -50.965947,14.56107 -52.648434,10.01172 -1.682484,-4.54936 13.344704,-35.2955 16.123044,-44.61328 2.77834,-9.31778 45.1266,-76.92964 44.85156,-79.08203 -0.27495,-2.1524 -4.36583,-2.65481 -6.00976,-1.72852 -1.64393,0.92629 -61.421876,10.24024 -61.421876,10.24024 0,0 -0.394333,-0.23496 -3.125,-5.19531 0,0 69.238926,-12.20226 77.257816,-11.85547 z m 102.14843,68.08984 c 11.8321,0.17854 24.36161,3.45105 25.45118,5.68555 1.4304,2.93349 -38.74085,113.31137 -41.86524,119.44922 -3.12439,6.13785 -0.6542,11.88052 1.50195,15.32812 2.15622,3.44757 66.06153,-5.36232 69.95899,-6.38281 3.89745,-1.02049 3.64046,4.25474 3.71484,7.3125 0.0744,3.05779 -5.5243,2.17186 -24.84179,1.68555 -19.31751,-0.48635 -48.50195,8.53278 -55.25391,4.96679 -6.75197,-3.56598 -1.69283,-14.20455 -0.19531,-22.89258 1.49752,-8.68801 40.85816,-113.16633 38.27344,-115.54687 -2.58479,-2.38055 -26.15714,-1.98645 -51.66407,1.04297 -25.50691,3.02942 -44.19125,2.69156 -44.64258,-1.28906 1.72393,-10.18556 55.63388,-5.65345 69.03516,-8.49219 2.51274,-0.53227 5.29748,-0.79918 8.17383,-0.86133 0.77901,-0.0168 1.56471,-0.0178 2.35351,-0.006 z m -69.41015,116.32617 c 6.2219,-0.79423 10.85445,29.80065 12.39844,33.98047 1.54397,4.17986 -40.55082,24.17425 -66.08985,43.07813 -25.53904,18.90387 -18.03135,37.6096 -14.55273,41.07422 3.47862,3.46459 30.84629,-4.30142 42.86914,-7.12696 12.02285,-2.82614 51.30382,-5.30979 54.80859,-2.78711 3.50477,2.52265 6.35058,15.00937 4.70508,16.11133 -1.64549,1.10196 -48.50679,1.14347 -61.87695,1.6582 -13.37016,0.5147 -51.53116,16.40414 -55.09961,17.01563 -3.56844,0.61149 -13.105114,-28.97415 -14.535159,-34.66797 18.552779,-21.54133 34.858699,-41.03407 57.624999,-64.87109 9.72343,-6.64143 13.20881,-12.00652 10.375,-19.55469 -2.83381,-7.54817 -70.333477,5.58665 -77.078124,5.68945 -6.744642,0.10296 -3.823137,-2.42591 -4.417968,-10.27344 0.851241,-7.52099 104.647252,-18.53195 110.869142,-19.32617 z m 35.74804,91.72266 c 12.41853,-0.31929 91.85685,19.43716 94.55469,21.03516 2.8777,1.70447 -9.26212,29.51723 -10.28711,35.05273 -1.02497,5.53553 -90.21876,50.71345 -96.20508,50.72851 -5.98628,0.0144 -3.30126,8.76076 -1.38085,12.7793 1.92039,4.01855 85.66406,14.22337 88.56445,14.81446 2.9004,0.59103 -2.84257,13.51168 -3.91992,16.78906 -1.07734,3.27738 -95.86484,-15.58847 -105.43164,-18.90625 -9.5668,-3.31779 -4.22728,-29.55025 -3.37764,-34.28249 0.84965,-4.73219 88.28059,-52.13608 86.4831,-56.38548 -1.79744,-4.2494 -35.73763,-12.62208 -42.95703,-14.70899 -7.21937,-2.0869 -7.58984,-26.57226 -7.58984,-26.57226 0.18957,-0.21106 0.71902,-0.32247 1.54687,-0.34375 z m -61.7871,107.66016 c 7.52827,-0.008 18.73505,-1.89308 19.12166,-0.99248 1.54647,3.60246 -0.77823,25.29385 1.55676,27.16373 2.33499,1.86985 12.22818,2.84156 13.10183,5.40192 0.87366,2.56041 -59.93593,57.38813 -56.59666,60.35261 3.33928,2.96447 54.05997,-1.64844 55.73047,-1.64844 1.6705,0 4.42637,20.10801 2.875,22.23437 -1.55137,2.12637 -93.34531,1.35412 -97.60156,1.20899 -4.256279,-0.14495 -2.49828,-12.11259 -2.18946,-14.77149 0.30884,-2.65886 69.04909,-73.09806 66.13477,-76.91992 -2.91433,-3.82186 -71.25407,2.41637 -73.177736,1.82813 -1.923663,-0.58829 -1.985921,-16.94501 4.595703,-20.74219 0,0 43.864413,-3.08988 66.449223,-3.11523 z m 125.99609,85.29492 c 1.63782,0.01 2.72408,0.18845 3.12695,0.56836 4.29733,4.05233 6.66984,23.93913 5.71485,25.91601 -0.955,1.97688 -73.84844,56.80357 -75.51758,66.08594 -1.66915,9.28233 8.16717,12.17 25.72851,7.79297 17.56133,-4.37703 50.83446,-18.27736 53.29102,-14.3457 2.45655,3.93162 2.61504,26.79121 1.41602,27.85156 -1.19906,1.06034 -44.6333,-4.25828 -50.52344,-0.64649 -5.89014,3.61176 -70.83221,20.39311 -72.3533,15.1356 -6.8975,-23.84059 58.83297,-63.9512 56.17166,-73.85825 -2.66132,-9.90709 -67.63602,-1.03962 -69.95703,-2.90039 -2.32103,-1.86082 -5.02634,-11.67953 -2.02149,-12.33203 2.56945,-2.31221 39.73765,-4.96753 40.52734,-6.40235 0.78974,-1.43478 -0.52669,-12.85655 0.35157,-15.16992 0.79592,-2.09646 68.21265,-17.78785 84.04492,-17.69531 z m -191,113.86718 c 0,0 31.07168,5.36548 44.78125,6.4004 13.70958,1.03485 28.72063,-4.32344 28.72063,-4.32343 0,-10e-6 1.72258,1.03941 0.67053,13.6148 -0.26043,5.92955 7.42232,5.61443 18.4578,5.91757 7.23871,0.19886 18.50992,11.60505 11.40885,11.5098 -7.10107,-0.095 -106.270149,30.43872 -106.080076,39.55665 0.190091,9.11795 76.082936,20.72051 79.044926,24.92187 2.962,4.20132 -5.38544,14.98849 -8.89063,17.67774 -3.50519,2.68922 -82.695678,-23.90932 -87.001952,-26.28321 -4.306273,-2.37392 -0.5,-35.13093 -0.5,-40.29297 0,-5.162 54.969502,-8.32162 64.074222,-9.08203 9.10472,-0.76036 9.20475,-7.8937 8.33203,-15.16797 -0.87272,-7.27426 -46.29156,-13.51198 -52.58203,-13.55468 -6.29048,-0.0427 -4.13692,-3.39376 -0.43555,-10.89454 z m 157.05078,36.3086 c 0,0 8.85305,2.69577 19.01758,2.79101 10.16454,0.095 57.07917,1.94558 60.46875,39.61133 3.38958,37.66579 -48.52432,37.47151 -51.60547,39.04492 -3.08116,1.57342 4.46579,66.45734 3.125,67.98438 -1.3408,1.52708 -9.07517,-1.77086 -13.23047,-2.11328 -4.15529,-0.34224 -11.2573,-0.45572 -13.44336,-5.89453 -2.18606,-5.4389 1.23751,-111.44217 -1.23828,-115.31055 -2.47578,-3.86842 -3.94917,-20.90207 -3.09375,-26.11328 z m -45.18164,28.40039 c 0,0 15.84245,-0.11895 19.74414,3.01367 3.90169,3.13262 -2.18164,25.34702 -2.18164,31.57031 0,6.22334 -1.1875,51.89453 -1.1875,51.89453 0,0 -9.62976,-5.2802 -12.47852,-5.08593 -2.84875,0.19442 -8.04454,1.40553 -8.94335,-3.67578 -0.89883,-5.08131 3.13868,-75.86272 5.04687,-77.7168 z"
       style="opacity:1;fill:#000000;stroke:#000000;stroke-width:1.6;stroke-linecap:round;stroke-opacity:0"
       id="rect3989" />
    <path
       id="path4607"
       d="m 76.60446,215.63129 c -0.924867,0.94187 -0.952085,7.56174 0.147854,9.08848 1.099936,1.52674 7.844422,-1.77094 6.54264,-5.61307 -1.301779,-3.84212 -6.690494,-3.47541 -6.690494,-3.47541 z"
       style="opacity:1;fill:#000000;fill-opacity:0;stroke:#000000;stroke-width:0.423333;stroke-linecap:round;stroke-opacity:0" />
    <path
       id="path4619"
       d="m 140.70603,22.832795 c -0.15819,-1.06601 3.41308,-1.266719 6.79114,-0.807149 3.37807,0.45957 8.43833,4.455933 9.33382,5.155124 0.8955,0.69919 2.51209,8.00055 2.86595,8.542536 0.35386,0.541985 6.64274,2.613244 7.21532,3.292083 0.57258,0.678839 2.66826,4.715499 1.87045,4.871918 -0.79782,0.156422 -2.86082,-3.179569 -3.82311,-3.338996 -0.96229,-0.159428 -6.89925,-2.783414 -6.9233,-3.244818 -0.0241,-0.461405 -1.36854,-9.076084 -5.18863,-10.819903 -3.8201,-1.743817 -11.86103,-2.698192 -11.86103,-2.698192 z"
       style="display:inline;opacity:1;fill:#000000;fill-opacity:1;stroke:#000000;stroke-width:0.423333;stroke-linecap:round;stroke-opacity:0" />
    <path
       id="path4622"
       d="m 136.52992,17.350528 c 1.43283,1.28911 4.20866,-0.572861 7.39875,-0.278063 3.19008,0.294798 11.07016,0.917005 15.63092,6.143171 4.56077,5.226164 7.11939,12.197038 8.98891,13.057098 1.86951,0.860057 5.95536,2.850743 6.44955,5.48917 0.49418,2.638428 -2.95521,5.360742 -1.11161,8.079473 1.8436,2.718729 3.36382,3.730696 4.48604,6.551596 1.12221,2.820903 0.28591,4.822651 1.89697,5.760501 1.61107,0.93785 3.23308,0.243435 1.89111,-0.298601 -1.34197,-0.542033 -2.0022,-3.370665 -1.71327,-4.582126 0.28893,-1.21146 -4.54725,-4.709951 -4.43912,-7.292432 0.10813,-2.582479 3.00547,-6.627548 0.22817,-9.378683 -2.7773,-2.751135 -8.40633,-6.193554 -8.88829,-8.437819 -0.48195,-2.244262 -4.08349,-8.344885 -5.77023,-9.495752 -1.68673,-1.150866 -7.80643,-6.544002 -11.38446,-6.897546 -3.57802,-0.353543 -13.51491,-1.343785 -13.66344,1.580013 z"
       style="opacity:1;fill:#000000;fill-opacity:1;stroke:#000000;stroke-width:0.423333;stroke-linecap:round;stroke-opacity:0" />
    <path
       id="path4624"
       d="m 171.35282,60.834849 c -1.45135,2.936454 -0.24968,6.433962 0.54875,5.649489 0.79842,-0.784474 3.10659,-6.306093 1.45782,-4.408604 -1.64877,1.897486 -2.00657,-1.240885 -2.00657,-1.240885 z"
       style="opacity:1;fill:#000000;fill-opacity:1;stroke:#000000;stroke-width:0.423333;stroke-linecap:round;stroke-opacity:0" />
    <path
       id="path4626"
       d="m 116.52491,59.111012 c 0,0 -1.44147,0.447389 -2.04481,1.756036 -0.60334,1.308651 -0.40624,6.549954 0.52042,7.283125 0.92666,0.733168 0.89442,0.673566 0.89442,0.673566 0,0 -1.38827,-3.458493 -0.7049,-4.648939 0.68337,-1.190445 1.83703,-3.386952 1.83703,-3.386952 z"
       style="opacity:1;fill:#000000;fill-opacity:1;stroke:#000000;stroke-width:0.423333;stroke-linecap:round;stroke-opacity:0" />
    <path
       id="path4630"
       d="m 120.47639,24.237701 c 1.03307,0.817372 -2.42086,5.710256 -2.7525,9.37034 -0.33165,3.660087 -0.15603,11.401526 -1.38751,12.722503 -1.23147,1.32098 -2.60625,3.251943 -2.28736,4.619318 0.31889,1.367377 1.46725,4.181329 1.01166,5.249325 -0.45559,1.067996 -3.99505,5.860839 -3.76393,7.333623 0.23112,1.472785 2.10157,6.449362 2.9051,7.165353 0.80352,0.715995 2.22394,1.908345 0.12508,3.53368 -2.09886,1.625333 -3.8446,2.139167 -3.8446,2.139167 0,0 3.72812,-2.136857 2.63083,-3.546626 -1.09729,-1.409769 -3.61309,-5.840992 -3.69121,-7.193648 -0.0781,-1.352653 0.47032,-4.604392 1.28254,-5.445048 0.81222,-0.840658 2.69912,-1.974956 2.60506,-3.46044 -0.0941,-1.485485 -2.92699,-4.556845 -2.33062,-6.317798 0.59636,-1.760953 2.91123,-3.100726 3.7047,-5.333066 0.79346,-2.232339 1.00083,-9.163936 1.15707,-10.335609 0.15624,-1.17167 -0.20154,-2.47659 0.48417,-3.619291 0.68571,-1.142698 2.6611,-6.542931 3.23664,-6.985571 0.57553,-0.44264 0.91488,0.103788 0.91488,0.103788 z"
       style="opacity:1;fill:#000000;fill-opacity:1;stroke:#000000;stroke-width:0.423333;stroke-linecap:round;stroke-opacity:0" />
    <path
       id="path4632"
       d="m 136.90662,92.672965 c 0,0 -0.48243,4.075165 1.93798,10.148165 2.42042,6.073 4.36295,10.42069 4.36295,10.42069 0,0 3.61966,-6.7754 7.84616,-11.11645 4.22651,-4.341047 13.69663,-12.779591 13.69663,-12.779591 l 2.0022,-0.211621 c 0,0 -14.54808,13.601552 -15.94898,15.494212 -1.40091,1.89267 -6.89152,10.40353 -7.77209,10.76587 -0.88056,0.36234 -5.70005,-11.92846 -6.09402,-12.90525 -0.39398,-0.97678 -1.60082,-10.532778 -1.60082,-10.532778 z"
       style="opacity:1;fill:#000000;fill-opacity:1;stroke:#000000;stroke-width:0.423333;stroke-linecap:round;stroke-opacity:0" />
    <path
       id="path4636"
       d="m 173.7271,127.90209 c 1.12249,-1.25474 4.68738,-3.8825 10.58821,-3.05444 5.90084,0.82806 9.51566,2.84398 10.15124,4.1179 0.63557,1.27392 1.09154,1.99902 -5.3e-4,1.75344 -1.09204,-0.24557 -8.57801,-4.73286 -11.72506,-4.37945 -3.14704,0.35341 -7.18201,3.29226 -8.18639,3.34489 -1.00437,0.0526 -0.8275,-1.78234 -0.8275,-1.78234 z"
       style="opacity:1;fill:#000000;fill-opacity:1;stroke:#000000;stroke-width:0.423333;stroke-linecap:round;stroke-opacity:0" />
    <path
       id="path4640"
       d="m 104.47248,127.5522 c 0,0 0.53127,-1.25492 1.27288,-1.23615 0.7416,0.0187 6.05014,0.57001 7.05787,1.26948 1.00773,0.69947 5.86613,4.20455 6.35211,5.53071 0.48597,1.32615 0.97836,2.59738 0.76489,3.16561 -0.21348,0.56823 -8.781,11.72525 -8.84116,12.41127 -0.0602,0.68602 1.41877,18.38532 1.41877,18.38532 0,0 0.38984,-3.28974 0.9103,-4.00326 0.52046,-0.71352 4.47864,-9.20946 4.81295,-10.01281 0.33431,-0.80336 1.11923,-2.14471 1.37676,-2.60581 0.25752,-0.46111 1.92911,-1.7986 2.06882,-2.55136 0.13971,-0.75277 -0.0179,-1.45088 -0.0179,-1.45088 0,0 -2.44753,-2.32673 -2.35372,-3.457 0.0938,-1.13027 1.14066,-1.1973 1.58211,-0.94243 0.44146,0.25486 0.53052,-2.28524 1.29976,-3.78618 0.76923,-1.50095 1.89142,-3.22283 2.93572,-3.40591 1.0443,-0.18309 1.56678,-1.22545 1.56678,-1.22545 0,0 -3.01979,-0.57849 -3.19158,-1.47358 -0.17179,-0.89509 0.12014,-1.06723 -1.4787,-1.01095 -1.59884,0.0563 -4.60014,-2.66782 -6.35613,-4.02429 -1.75599,-1.35648 -4.75235,-1.92559 -6.32062,-2.33592 -1.56828,-0.41032 -3.94196,-0.22745 -4.60251,0.42177 -0.66055,0.64921 -1.85668,2.47956 -1.85668,2.47956 z"
       style="opacity:1;fill:#000000;fill-opacity:1;stroke:#000000;stroke-width:0.423333;stroke-linecap:round;stroke-opacity:0" />
    <path
       id="path4642"
       d="m 177.25223,171.95797 c 0,0 -6.5092,3.86475 -7.67978,4.5426 -1.17057,0.67785 -5.76276,2.75898 -6.90044,2.79613 -1.13767,0.0372 -8.78866,-0.91353 -9.61301,-0.40525 -0.82435,0.50828 -4.94942,2.53452 -5.09099,3.34784 -0.14157,0.81331 0.71084,1.91222 0.79149,2.28748 0.0806,0.37526 -0.0204,1.26723 -0.34939,1.36384 -0.329,0.0966 -1.40156,0.31969 -1.66202,-0.22291 -0.26046,-0.5426 -1.31541,-2.74832 -1.36757,-3.13097 -0.0522,-0.38265 0.19029,-1.23151 0.30813,-1.64003 0.11784,-0.40851 6.0684,-6.0669 6.33086,-6.50293 0.26247,-0.43603 0.16056,-0.65931 -0.39831,-1.01286 -0.55886,-0.35354 -2.32209,0.89997 -2.97724,1.59085 -0.65515,0.69089 -3.95994,4.41317 -4.06982,5.02565 -0.10988,0.61247 0.74001,2.06037 -0.34978,2.36013 -1.0898,0.29977 -1.704,-0.40112 -1.8159,-1.04294 -0.11191,-0.64181 0.1895,-3.77878 0.66922,-4.60981 0.47973,-0.83103 4.4897,-4.00495 3.72374,-4.77489 -0.76596,-0.76994 -1.09631,-0.44995 -1.39803,-0.17082 -0.30172,0.27913 -2.68808,2.83627 -2.92134,3.31916 -0.23326,0.48291 -1.42926,3.176 -1.2071,4.09316 0.22216,0.91717 0.18526,1.66409 0.30298,2.09761 0.11771,0.43351 -0.0969,2.03115 -0.66513,1.95546 -0.56826,-0.0757 -1.82759,-0.51385 -1.94547,-0.92876 -0.11789,-0.41492 0.0841,-4.05364 0.33145,-4.71671 0.24734,-0.66307 2.05899,-5.16174 3.27352,-6.53873 1.21453,-1.37698 3.04146,-3.3005 2.30606,-4.05373 -0.73539,-0.75322 -2.07038,0.20373 -2.56867,1.05497 -0.49829,0.85123 -3.63861,6.19678 -3.91104,7.36112 -0.27243,1.16434 -0.65745,5.44395 -0.45877,6.17377 0.19869,0.72983 0.85086,2.15274 0.21426,2.2701 -0.63659,0.11737 -1.89998,0.30371 -2.23476,-2.02954 -0.33477,-2.33326 -0.27061,-6.23459 -0.003,-7.63941 0.26783,-1.40482 0.82895,-3.94511 1.85732,-4.73243 1.02836,-0.78733 5.9712,-6.55208 6.36516,-6.88428 0.39397,-0.33221 1.69664,-1.40907 2.41226,-1.46862 0.71562,-0.0596 8.72215,-0.40572 9.9943,-0.12451 1.27215,0.28122 5.44854,3.13305 6.9188,2.65299 1.47025,-0.48006 9.16567,-6.43129 9.58511,-7.12034 0.41945,-0.68905 6.60014,-10.96377 6.60014,-11.93903 0,-0.97526 -1.88085,-5.22218 -2.39403,-7.28786 -0.51317,-2.06569 -0.5686,-8.26099 -2.04857,-8.81619 -1.47998,-0.55519 -1.37865,-0.0535 -1.40463,0.30674 -0.026,0.36022 2.14695,10.42149 2.14595,11.22195 -0.001,0.80046 -0.304,0.73547 -0.37489,1.40729 -0.0709,0.67182 0.87013,1.16543 0.34871,2.56727 -0.52142,1.40185 0.61904,3.57361 0.0495,4.56391 -0.56955,0.99031 -2.86966,4.93115 -3.283,5.75793 -0.41334,0.82677 -7.9509,7.8072 -9.32268,8.04275 -1.37179,0.23556 -5.93253,-2.71075 -7.17573,-2.67303 -1.24321,0.0377 -10.0841,0.10009 -11.14776,0.61971 -1.06366,0.51963 -8.3632,8.37822 -8.78792,9.12661 -0.42472,0.74838 -1.24838,2.4878 -2.23338,2.49237 -0.985,0.005 -5.11089,-1.13138 -7.29064,-1.11894 -2.17975,0.0124 -4.28284,-0.0168 -6.23437,0.43942 -1.95153,0.4562 -5.59054,2.49245 -6.25692,2.64171 -0.66638,0.14925 -1.48657,0.54554 -1.74521,-0.30209 -0.25864,-0.84763 0.22289,-6.5613 0.0117,-7.48107 -0.2112,-0.91977 1.27693,-7.52298 1.27693,-7.52298 l 7.87064,-24.28401 c 0,0 1.95775,-2.25581 1.8454,-3.173 -0.11235,-0.91718 -1.37171,-3.87657 -1.67164,-4.6691 -0.29993,-0.79252 -0.93546,-2.44164 -0.55099,-3.25617 0.38446,-0.81452 2.08715,-1.65144 2.09436,-2.22429 0.007,-0.57284 -0.79003,-1.50319 -1.18939,-1.2629 -0.39937,0.24029 -1.43056,2.34632 -1.65083,2.70615 -0.22027,0.35984 0.13037,2.87582 0.40251,4.79809 0.27215,1.92227 1.02988,4.25693 0.8096,4.75784 -0.22028,0.50091 -3.4472,9.72154 -3.4472,9.72154 l -1.71937,4.12767 c 0,0 -4.49084,19.11078 -4.52688,19.50532 -0.0361,0.39456 -0.52755,3.82245 -0.37136,4.55533 0.15619,0.73289 -0.15729,4.54093 -0.005,4.96843 0.1518,0.4275 1.50886,1.02049 2.19218,0.6618 0.68333,-0.35869 3.10277,-1.61808 3.89904,-1.78628 0.79627,-0.1682 6.33582,-1.2692 8.12599,-1.28122 1.79016,-0.012 6.12919,0.23075 6.99592,0.45051 0.86672,0.21976 1.54547,1.07757 1.60421,1.58198 0.0587,0.50441 0.0345,2.14959 0.0253,2.67332 -0.009,0.52373 0.16016,4.91062 0.56866,6.08804 0.40849,1.17742 1.15502,2.51161 1.92803,2.53564 0.773,0.024 2.5058,0.007 3.0969,-0.49435 0.59111,-0.50155 0.96351,-0.33837 1.30891,0.21127 0.3454,0.54965 1.14658,1.30154 1.65495,1.40967 0.50838,0.10813 1.40154,-0.50949 2.26141,-0.13342 0.85987,0.37607 1.76251,0.83497 2.2551,0.83497 0.4926,0 2.50399,-0.26827 2.69117,-0.60901 0.18718,-0.34074 -0.11629,-2.31244 -0.008,-3.35771 0.10813,-1.04526 1.6578,-2.22741 1.98742,-2.10967 0.32963,0.11775 3.29399,1.32941 4.3902,1.86537 1.09621,0.53597 9.25946,6.25287 10.84497,9.22648 1.5855,2.97361 5.6551,10.09828 6.17289,12.60831 0.5178,2.51004 2.04526,8.54244 2.458,9.81876 0.41274,1.27633 3.17969,3.80615 3.00439,2.1082 -0.17529,-1.69795 -1.55586,-6.57025 -1.73116,-7.71406 -0.1753,-1.14381 -2.85786,-8.56089 -3.5128,-10.08521 -0.65495,-1.52431 -4.55335,-7.76948 -5.57207,-9.34535 -1.01873,-1.57587 -11.7448,-8.48485 -12.52077,-9.11853 -0.77597,-0.63368 -2.08286,-0.90196 -1.28969,-0.94207 0.79317,-0.0401 4.8754,0.70636 5.89392,0.6422 1.01852,-0.0642 3.86041,0.17354 5.20476,-0.56847 1.34437,-0.74201 7.00884,-3.24592 8.32149,-4.17117 1.31266,-0.92525 4.76365,-2.83188 4.8831,-3.2498 0.11946,-0.41793 -1.55411,-0.60996 -1.55411,-0.60996 z"
       style="opacity:1;fill:#000000;fill-opacity:1;stroke:#000000;stroke-width:0.423333;stroke-linecap:round;stroke-opacity:0" />
    <path
       id="path4644"
       d="m 111.62154,174.40766 c -0.007,5.07063 -0.59797,8.32484 0.30932,8.84793 0.90729,0.52309 7.84325,4.13038 9.55736,4.47435 1.7141,0.34397 3.86065,0.4398 4.67758,1.56844 0.81692,1.12865 1.57499,4.0809 1.95064,4.81327 0.37566,0.73236 2.08555,2.92027 2.03814,3.30232 -0.0474,0.38204 0.56014,0.87803 -0.35495,0.93703 -0.91508,0.059 -2.31243,-0.0921 -3.46257,-1.4357 -1.15015,-1.34362 -4.47895,-6.91274 -5.07053,-6.78148 -0.59159,0.13126 -0.98986,0.80515 -0.45241,1.53609 0.53745,0.73093 7.16768,8.4019 7.16768,9.03217 0,0.63027 1.21895,2.25131 0.30425,2.83807 -0.9147,0.58675 -2.9025,-0.1225 -5.29769,-2.33169 -2.3952,-2.20919 -5.74888,-5.59338 -6.18914,-4.83255 -0.44028,0.76085 4.24919,4.38557 5.07396,5.33903 0.82478,0.95347 4.83942,4.24791 4.72239,5.05113 -0.11703,0.80323 -0.029,1.13261 -0.91939,1.20786 -0.89036,0.0752 -9.50257,-4.32455 -9.68791,-3.69462 -0.18535,0.62992 3.61958,3.3322 4.68012,3.58897 1.06054,0.25676 4.47279,1.36691 4.34027,1.88374 -0.13252,0.51683 -1.73845,0.60073 -2.61916,0.40724 -0.88071,-0.19348 -5.64843,-2.78688 -6.44815,-2.96746 -0.79973,-0.18059 -1.55852,-0.18793 -1.39514,0.23799 0.16338,0.42592 2.63845,1.22685 3.24829,2.01942 0.60985,0.79259 1.11475,1.34438 0.39763,1.53511 -0.71713,0.19073 -3.99567,-0.006 -4.30543,-0.18757 -0.30975,-0.18119 -4.45569,-4.84832 -4.8226,-5.69672 -0.36691,-0.84839 -4.74983,-9.00653 -4.74983,-9.00653 0,0 -0.46923,2.29693 -0.29724,2.87737 0.17198,0.58045 2.59001,5.68814 2.81974,5.93262 0.22973,0.24448 3.8065,4.80731 4.57708,5.42754 0.77057,0.62023 1.56299,1.67267 2.60535,1.73423 1.04236,0.0616 3.89295,0.34871 4.79992,0.004 0.90697,-0.34467 4.45998,-0.28665 5.61527,-0.81615 1.15529,-0.52949 1.9981,-1.4627 2.16257,-2.05175 0.16447,-0.58904 1.65611,-0.98249 1.90134,-1.8552 0.24524,-0.87271 1.08654,-2.72995 1.16178,-3.21091 0.0753,-0.48097 0.33487,-1.27823 0.99,-2.60227 0.65513,-1.32403 0.99128,-4.06628 0.91722,-4.64286 -0.074,-0.57658 -1.44408,-1.68158 -2.07767,-2.46245 -0.63358,-0.78086 -1.81599,-4.78259 -2.20254,-5.25598 -0.38654,-0.47339 0.17376,-0.86033 -1.75208,-1.58984 -1.92584,-0.72951 -5.24581,-1.41564 -6.96005,-2.39015 -1.71423,-0.9745 -4.06129,-1.75889 -4.57367,-2.57824 -0.51237,-0.81935 -0.19849,-7.00637 -0.21955,-7.41567 -0.0211,-0.4093 -2.1602,-0.79017 -2.1602,-0.79017 z"
       style="opacity:1;fill:#000000;fill-opacity:1;stroke:#000000;stroke-width:0.423333;stroke-linecap:round;stroke-opacity:0" />
    <path
       id="path4646"
       d="m 130.10533,196.12355 c 0.37198,-3.29097 0.68242,-5.68638 -0.0799,-7.15036 -0.76228,-1.46398 -4.21417,-9.74175 -4.51822,-10.64238 -0.30406,-0.90062 -6.30738,-1.01861 -7.64981,-1.54968 -1.34243,-0.53107 -3.61801,-1.24495 -4.15633,-0.83927 -0.53831,0.40568 -0.47096,1.04598 -0.13523,1.11974 0.33574,0.0738 2.96896,1.47693 3.86262,1.55069 0.89366,0.0738 5.01438,-0.68451 5.8928,-0.18888 0.87841,0.49562 1.60194,1.96811 1.60194,1.96811 0,0 -2.61585,-0.58508 -3.68266,-0.65569 -1.0668,-0.0706 -1.49096,0.77634 -1.1612,1.43413 0.32976,0.6578 -0.19603,0.55174 0.406,0.10871 0.60202,-0.44303 1.73266,-0.43173 2.55808,0.12494 0.82542,0.55667 1.26927,1.18725 0.53824,1.4171 -0.73103,0.22984 -1.94232,-0.8066 -2.47875,-0.71623 -0.53644,0.0904 -0.64874,0.39775 -0.5343,0.62365 0.11443,0.2259 0.82496,1.10697 1.80718,1.4972 0.98223,0.39022 1.35221,0.22412 2.24928,-0.38307 0.89708,-0.60718 0.72117,-1.11039 1.94454,1.5591 1.22336,2.66949 2.18917,3.74631 2.20894,4.83823 0.0198,1.09193 -0.19834,3.13109 -0.0494,3.71003 0.14898,0.57894 1.37609,2.17393 1.37609,2.17393 z"
       style="opacity:1;fill:#000000;fill-opacity:1;stroke:#000000;stroke-width:0.423333;stroke-linecap:round;stroke-opacity:0" />
    <path
       id="path4648"
       d="m 129.86025,189.11898 c 0,0 0.60408,-1.85929 0.7811,-3.59749 0.17703,-1.7382 0.0885,-4.47531 0.28029,-6.74159 0.19177,-2.26628 1.48196,-3.59843 1.48196,-3.59843 l 2.19222,0.43177 0.16886,1.13765 c 0,0 -0.48593,-0.55874 -1.27836,-0.042 -0.79242,0.51671 -1.4788,0.54831 -1.49355,1.76523 -0.0148,1.21693 -0.0502,5.33913 -0.12397,6.04288 -0.0737,0.70375 -1.68222,6.04766 -1.68222,6.04766 z"
       style="opacity:1;fill:#000000;fill-opacity:1;stroke:#000000;stroke-width:0.423333;stroke-linecap:round;stroke-opacity:0" />
    <path
       id="path4650"
       d="m 76.60446,215.63129 c 0,0 -0.115398,8.96399 0.96225,9.61476 1.077645,0.65076 6.400696,-2.15961 5.548592,-5.78913 -0.852103,-3.62952 -6.510842,-3.82563 -6.510842,-3.82563 z"
       style="opacity:1;fill:#000000;fill-opacity:1;stroke:#000000;stroke-width:0.423333;stroke-linecap:round;stroke-opacity:0" />
  </g>
</svg>
