<?xml version="1.0" encoding="UTF-8" standalone="no"?>
<svg
   xmlns:dc="http://purl.org/dc/elements/1.1/"
   xmlns:cc="http://creativecommons.org/ns#"
   xmlns:rdf="http://www.w3.org/1999/02/22-rdf-syntax-ns#"
   xmlns:svg="http://www.w3.org/2000/svg"
   xmlns="http://www.w3.org/2000/svg"
   xmlns:sodipodi="http://sodipodi.sourceforge.net/DTD/sodipodi-0.dtd"
   xmlns:inkscape="http://www.inkscape.org/namespaces/inkscape"
   inkscape:version="1.0 (4035a4fb49, 2020-05-01)"
   sodipodi:docname="ahhhhhdatsmeyellin.svg"
   viewBox="0 0 299 230"
   height="230"
   width="299"
   id="svg1679"
   version="1.1">
  <metadata
     id="metadata1685">
    <rdf:RDF>
      <cc:Work
         rdf:about="">
        <dc:format>image/svg+xml</dc:format>
        <dc:type
           rdf:resource="http://purl.org/dc/dcmitype/StillImage" />
        <dc:title></dc:title>
      </cc:Work>
    </rdf:RDF>
  </metadata>
  <defs
     id="defs1683" />
  <sodipodi:namedview
     inkscape:current-layer="layer4"
     inkscape:window-maximized="0"
     inkscape:window-y="10"
     inkscape:window-x="10"
     inkscape:cy="110.74268"
     inkscape:cx="101.82748"
     inkscape:zoom="3.0424229"
     showgrid="false"
     id="namedview1681"
     inkscape:window-height="1036"
     inkscape:window-width="1898"
     inkscape:pageshadow="2"
     inkscape:pageopacity="0"
     guidetolerance="10"
     gridtolerance="10"
     objecttolerance="10"
     borderopacity="1"
     bordercolor="#666666"
     pagecolor="#ffffff" />
  <g
     style="display:inline"
     inkscape:label="Image 2"
     id="layer4"
     inkscape:groupmode="layer" />
  <g
     style="display:inline"
     inkscape:label="Image 3"
     id="layer5"
     inkscape:groupmode="layer">
    <path
       id="path2350"
       d="m 64.026303,153.63803 c -0.75393,1.17637 -1.55855,6.49364 -1.67075,6.89266 -0.1122,0.39902 -0.42051,1.48265 -0.19371,1.7616 0.22679,0.27895 2.54224,3.40117 2.93772,3.76144 0.39548,0.36027 2.87839,-0.20396 2.87839,-0.20396 l 1.37509,1.27982 c 0,0 1.78808,1.78149 2.24571,1.41186 0.45764,-0.36963 1.33532,-1.33979 1.33532,-1.33979 l 1.66712,0.61426 0.8294,-1.18623 2.57764,0.27732 1.28639,-1.08131 c 0,0 -1.05296,-4.30972 -0.86111,-5.01224 0.19184,-0.70253 1.52653,-1.11096 1.52653,-1.11096 l -1.78316,-7.76221 c 0,0 -4.36791,-1.51025 -4.58203,-1.64535 -0.21411,-0.13511 -2.29744,-0.43074 -2.29744,-0.43074 l -4.87147,2.51099 z"
       style="display:inline;fill:#e5c3ad;fill-opacity:1;stroke:#000000;stroke-width:0" />
    <path
       id="path2353"
       d="m 98.957761,157.46011 c 0,0 -1.125427,-1.71889 -0.407867,-2.5492 0.717557,-0.83031 1.453506,-1.63295 1.615636,-2.04945 0.16214,-0.41651 0.019,-2.62448 0.019,-2.88729 0,-0.26281 4.60721,-2.11363 5.29553,-2.13123 0.68832,-0.0176 2.45025,0.45376 2.45025,0.45376 0,0 4.68841,8.18204 4.6532,8.63968 -0.0352,0.45764 -0.85797,3.24218 -0.85797,3.24218 l -3.83635,4.71966 c 0,0 -2.05013,0.61084 -2.33502,0.83778 -0.28488,0.22695 -1.24487,1.7863 -1.24487,1.7863 l -6.399906,-0.1434 c 0,0 -1.0157,-0.90248 -1.91338,-1.28972 -0.89767,-0.38723 -2.65336,-2.37255 -2.51255,-2.88299 0.14081,-0.51045 2.64195,-3.53285 2.64195,-3.53285 z"
       style="fill:#e5c3ad;fill-opacity:1;stroke:#000000;stroke-width:0" />
    <path
       style="display:inline;opacity:1;fill:#232f80;fill-opacity:1;stroke:#000000;stroke-width:0"
       d="m 33.887029,132.04427 c 0,0 1.761967,-6.23047 2.168256,-7.29699 0.406289,-1.06651 7.473658,-10.37615 8.480028,-11.53355 1.00636,-1.15741 2.6019,-1.89044 2.67683,-2.21584 0.0749,-0.3254 -0.24398,-2.76932 0.0749,-3.33126 0.31892,-0.56194 7.21207,-5.63837 7.66235,-6.26453 0.45028,-0.62616 8.44238,-7.2255 8.75319,-7.523326 0.3108,-0.297827 12.0764,-8.507402 13.70907,-9.114181 1.63268,-0.606778 11.31234,-1.251321 12.14857,-3.099785 0.83622,-1.848464 3.43928,-5.490717 3.43928,-5.490717 0,0 4.17858,-2.08574 5.59956,-1.857201 1.420967,0.228538 2.293227,-0.307686 2.344017,0.567547 0.0508,0.875232 -0.83856,3.043226 -0.83856,3.043226 0,0 -0.914657,1.990713 -1.397127,2.549365 -0.48246,0.558653 -0.88678,4.454462 -0.88678,4.454462 0,0 1.13416,6.172799 1.33082,6.845444 0.19665,0.672645 3.119397,5.24158 3.524567,5.608875 0.40517,0.367295 3.92092,2.844521 3.92092,4.028941 0,1.18443 2.60961,5.4406 3.25014,5.68842 0.64053,0.24782 3.31329,1.38808 3.31329,1.86345 0,0.47536 -1.31225,3.36134 -1.66437,3.58763 -0.35213,0.2263 -4.56436,7.3073 -4.78757,7.70246 -0.2232,0.39516 -0.98671,3.71544 -0.62457,4.59495 0.36215,0.87951 0.74556,7.89648 0.74556,7.89648 0,0 0.58394,8.79522 0.53788,9.22118 -0.0461,0.42595 -0.2437,6.07658 -0.2437,6.07658 0,0 -3.48803,-0.91832 -4.36384,-0.18328 -0.87582,0.73505 -2.778807,1.92892 -3.428017,2.48364 -0.64922,0.55472 -1.82082,-3.15548 -1.82082,-4.20124 0,-1.04576 -0.55959,-3.59393 -1.2686,-5.03974 -0.70901,-1.44581 -1.53078,-2.42788 -2.46776,-4.02762 -0.93698,-1.59973 -1.34902,-3.94231 -1.03224,-5.07399 0.31677,-1.13168 0.11651,-3.64257 -0.0625,-4.13184 -0.17898,-0.48927 -2.63135,1.19742 -3.55235,1.86515 -0.921,0.66773 -3.82691,3.08304 -3.89899,3.42731 -0.0721,0.34427 -0.0641,1.85132 -0.2269,2.15319 -0.16283,0.30186 -2.94386,2.81699 -3.26537,2.9299 -0.32151,0.1129 -1.0405,0.32013 -1.87197,0.32013 -0.83146,0 -1.75954,-0.30714 -2.21162,0.47772 -0.45208,0.78485 -0.50832,1.59721 -1.47068,2.72488 -0.96237,1.12766 1.00223,1.21347 -0.59158,2.08675 -1.59381,0.87327 -2.01953,0.3101 -2.4597,1.38468 -0.44016,1.07458 -0.88789,2.95614 -0.88789,2.95614 l -3.43509,1.98739 c 0,0 -5.52086,3.82547 -6.38051,3.39505 -0.85964,-0.43041 -5.46287,-5.33981 -6.24572,-5.22469 -0.78285,0.11513 -5.28526,0.18264 -5.7433,-0.61621 -0.45804,-0.79884 -6.50102,-6.67881 -7.1657,-7.34349 -0.66468,-0.66467 -3.24716,-5.15876 -4.442684,-6.11111 -1.195524,-0.95234 -4.94278,-2.24035 -4.94278,-2.24035 z"
       id="path2339"
       sodipodi:nodetypes="cssscsssscsscscsssssssscscssssssssssssssssccssssscc" />
    <path
       style="display:inline;opacity:1;fill:#a80b25;fill-opacity:1;stroke:#000000;stroke-width:0"
       d="m 113.6127,96.994887 c 8.24826,-0.455143 9.38313,-0.818478 9.38313,-0.818478 0,0 1.68795,-5.492422 1.39038,-5.231958 -0.29757,0.260464 -1.4463,-0.09746 -3.62988,0.24714 -2.18359,0.344602 -5.94427,-0.389554 -6.13061,-0.355863 -0.18634,0.03369 -1.28745,5.025341 -1.28745,5.025341 z"
       id="path2341"
       sodipodi:nodetypes="ccssscc" />
    <path
       style="display:inline;opacity:1;fill:#ffe1e4;fill-opacity:1;stroke:#000000;stroke-width:0"
       d="m 116.56245,91.335164 c 6.94635,-0.2672 7.99894,1.842159 7.98645,-0.0073 -0.0125,-1.849498 -0.42399,-3.032667 -2.28484,-3.632136 -1.86085,-0.599469 -6.02106,0.804351 -6.02106,1.352877 0,0.548526 -1.39092,2.280534 0.31945,2.286599 z"
       id="path2344"
       sodipodi:nodetypes="cssscc" />
    <path
       style="display:inline;opacity:1;fill:#ffe1e4;fill-opacity:1;stroke:#000000;stroke-width:0"
       d="m 113.6127,96.994887 7.90967,-0.421849 c 0,0 -0.22878,2.531716 -0.87821,2.831452 -0.64943,0.299736 -5.26975,1.18489 -6.235,0.7525 -0.96525,-0.432392 -2.56119,-3.088384 -2.07676,-3.075895 0.48443,0.01249 1.2803,-0.08621 1.2803,-0.08621 z"
       id="path2346"
       sodipodi:nodetypes="ccssscc" />
    <path
       style="display:inline;opacity:1;fill:#e5c3ad;fill-opacity:1;stroke:#000000;stroke-width:0"
       d="m 105.95445,100.89647 c -0.81961,-0.53256 -4.17859,-4.133843 -5.24559,-5.734346 -1.066997,-1.600504 -3.253887,-8.264685 -3.071067,-9.247659 0.18282,-0.982975 0.13263,-4.563684 0.38795,-5.115168 0.25531,-0.551483 1.25686,-1.199814 1.5075,-1.716692 0.25063,-0.516878 1.019617,-3.873362 1.302387,-4.167817 0.28278,-0.294455 1.72289,-3.258858 3.33864,-3.975274 1.61575,-0.716416 13.36631,-8.044735 17.42092,-6.901518 4.05461,1.143217 11.34058,3.783236 11.35583,4.636837 0.0152,0.853601 -0.0203,3.653381 -0.26421,4.12591 -0.24389,0.472528 -0.70924,2.576528 -0.8304,2.848557 -0.12117,0.27203 -0.9194,1.737903 -0.9194,1.737903 l 2.40456,1.67022 c 0,0 3.73668,2.487095 3.56901,3.188268 -0.16768,0.701172 -1.17752,2.793319 -1.6348,3.00672 -0.45729,0.213401 -6.62652,2.561873 -7.21141,2.690962 -0.5849,0.129089 -7.23372,-2.434636 -7.23372,-2.434636 0,0 -4.21488,1.425656 -6.34661,1.517113 -2.13173,0.09146 -5.5808,1.160289 -6.25314,2.184912 -0.67235,1.024623 0.20871,3.596061 -0.0352,4.491141 -0.24389,0.895079 -2.24128,7.194567 -2.24128,7.194567 z"
       id="path2348"
       sodipodi:nodetypes="cssssssscssccssscssscc" />
    <path
       style="display:inline;opacity:1;fill:#6e5940;fill-opacity:1;stroke:#000000;stroke-width:0"
       d="m 41.674933,216.96834 c 0,0 -1.56272,0.59319 -1.99617,2.49466 -0.43345,1.90147 -0.968773,3.12132 -0.19278,3.33595 0.77598,0.21464 6.44988,0.82369 6.86264,1.33552 0.41276,0.51182 2.94005,1.78611 3.88115,1.7696 0.9411,-0.0165 39.57487,-0.92633 39.57487,-0.92633 l 4.17087,-2.01348 c 0,0 0.004,-2.20807 -0.15434,-2.62991 -0.15861,-0.42184 -4.93041,-2.1059 -6.21823,-1.67663 -1.28782,0.42927 -3.18643,1.07853 -4.11201,0.69263 -0.92558,-0.38591 -3.41275,-3.57941 -5.46005,-3.29874 -1.25154,0.17158 -5.43477,-0.0521 -8.16338,0.98371 -1.7349,0.65858 -2.43772,2.55935 -2.85485,3.03423 -1.07318,1.22178 -4.96972,-0.39803 -5.91082,-0.39803 -0.94109,0 -4.62879,0.0482 -5.83346,-0.73173 -1.20467,-0.77999 -3.85524,-3.0677 -3.85524,-3.0677 0,0 -2.68171,0.79558 -5.04463,1.37344 -2.36293,0.57787 -4.69357,-0.27719 -4.69357,-0.27719 z"
       id="path2355"
       sodipodi:nodetypes="csssscccssssssccsc" />
    <path
       style="display:inline;opacity:1;fill:#959347;fill-opacity:1;stroke:#000000;stroke-width:0"
       d="m 107.3687,51.031061 c 0,0 -3.08102,-4.692699 -3.08102,-4.99898 0,-0.306281 6.38437,-3.189253 6.96923,-3.332987 0.58487,-0.143735 10.27018,-3.939 11.74692,-3.625242 1.47675,0.313759 7.54128,0.363029 7.93956,0.587698 0.39827,0.224669 1.98262,6.239366 1.98262,6.239366 0,0 -0.38608,0.576276 -3.74065,0.48912 -3.35457,-0.08715 -9.60917,0.577789 -11.52658,0.996132 -1.91741,0.418342 -7.1755,2.558036 -7.55271,2.848104 -0.37722,0.290068 -2.73737,0.796789 -2.73737,0.796789 z"
       id="path2357"
       sodipodi:nodetypes="csssscsssc" />
    <path
       style="display:inline;opacity:1;fill:#ffe1e4;fill-opacity:1;stroke:#000000;stroke-width:0"
       d="m 126.6397,38.367401 c 0,0 -1.99392,-1.316444 -8.1e-4,-2.995673 1.9931,-1.679229 4.96737,-2.475968 5.38172,-1.973551 0.41436,0.502417 1.41042,2.485923 1.25127,3.415936 -0.15916,0.930014 -0.38031,2.710764 -0.62577,3.081771 -0.24546,0.371006 -4.52601,0.832618 -5.4374,0.491997 -0.91139,-0.340622 -0.56901,-2.02048 -0.56901,-2.02048 z"
       id="path2359"
       sodipodi:nodetypes="csssssc" />
    <path
       style="display:inline;opacity:1;fill:#ffe1e4;fill-opacity:1;stroke:#000000;stroke-width:0"
       d="m 128.14633,47.035156 c 0.48098,-0.20772 4.77968,-1.13424 4.77968,-1.13424 0,0 1.22729,1.051423 1.06303,2.47668 -0.16426,1.425257 -5.56072,0.635923 -5.56072,0.635923 z"
       id="path2361"
       sodipodi:nodetypes="ccscc" />
    <path
       style="display:inline;opacity:1;fill:#ffe1e4;fill-opacity:1;stroke:#000000;stroke-width:0"
       d="m 141.85042,62.629596 2.71541,-3.368908 7.40282,-6.105667 -1.1016,-1.86634 7.13757,-5.117786 -24.48252,-0.113684 -2.53297,-6.292203 -11.50643,0.905507 -10.18262,2.218478 -5.32097,2.940255 H 87.852863 L 9.7728775,45.617353 7.5189904,43.541855 7.6912567,12.83224 11.99608,8.4571596 286.39499,8.3202138 l 2.41632,3.2486302 -1.63439,33.710279 -118.96905,0.498237 -12.14778,5.425816 0.78857,3.554497 z"
       id="path2363"
       sodipodi:nodetypes="cccccccccccccccccccccc" />
  </g>
  <g
     style="display:inline;opacity:1"
     inkscape:label="Image 1"
     id="layer3"
     inkscape:groupmode="layer">
    <path
       id="path2375"
       d="m 63.288747,91.519137 c 0,0 -15.52178,3.920475 -15.308187,0.97264 0.213593,-2.947836 15.308187,-0.97264 15.308187,-0.97264 z"
       style="fill:#000000;fill-opacity:1;stroke:#000000;stroke-width:0" />
    <path
       id="path2377"
       d="m 43.939401,72.562752 c 0,0 -28.099934,-3.366182 -24.722886,-5.740493 3.377051,-2.374313 24.722886,5.740493 24.722886,5.740493 z"
       style="fill:#000000;fill-opacity:1;stroke:#000000;stroke-width:0" />
    <path
       sodipodi:nodetypes="csc"
       id="path2379"
       d="m 237.31205,95.932906 c 0,0 54.94562,10.166324 55.69164,7.482064 0.67232,-2.41904 -55.69164,-7.482064 -55.69164,-7.482064 z"
       style="fill:#000000;fill-opacity:1;stroke:#000000;stroke-width:0" />
    <path
       id="path2381"
       d="m 63.570028,51.28733 c 0,0 -9.63145,0.662079 -7.297958,-2.686488 2.333492,-3.348567 7.297958,2.686488 7.297958,2.686488 z"
       style="fill:#000000;fill-opacity:1;stroke:#000000;stroke-width:0" />
    <g
       id="g3829">
      <path
         sodipodi:nodetypes="cssssssc"
         id="path2295"
         d="m 105.01077,81.454301 c -1.93177,-1.428435 -3.55192,-2.73401 -2.2051,-3.501664 1.34683,-0.767654 1.85592,-0.899452 1.22666,-1.630135 -0.62926,-0.730684 -1.19642,-1.838019 0.26512,-1.766434 1.46154,0.07159 2.54044,1.087743 2.44933,2.116236 -0.0911,1.028492 -1.51814,1.745606 -1.83518,2.017669 -0.31703,0.272062 0.72447,0.100114 1.05228,1.250152 0.32781,1.150039 0.29468,2.215455 -0.95311,1.514176 z"
         style="display:inline;fill:#000000;fill-opacity:1;stroke:#000000;stroke-width:0" />
      <path
         sodipodi:nodetypes="ssssssscssssscssssssssscssscsscssscsssssscssss"
         d="m 128.41862,29.915649 c -3.61943,-0.151645 -9.55001,6.495257 -11.53295,7.292697 -2.26622,0.911359 -4.96425,-0.228196 -6.59765,1.609375 -1.63339,1.837569 -3.69846,1.884766 -4.98633,1.884766 -1.28787,0 -6.436887,5.827902 -6.130857,6.644531 0.30602,0.81663 1.776237,0.634651 2.373047,1.796875 0.59682,1.162223 2.72067,0.538095 3.80468,0.726563 1.08401,0.188468 0.81421,1.118438 1.38477,1.859375 0,0 0.18262,0.616452 0.82031,0.601562 0.63769,-0.01489 1.18865,-0.370171 3.49414,-1.689453 2.3055,-1.319282 7.51254,-2.302727 9.6543,-2.279297 2.14175,0.02343 2.68792,0.991276 4.59375,1.681641 1.90583,0.690365 9.08922,1.668613 11.14453,1.542969 2.05531,-0.125643 2.42774,-2.009766 2.42774,-2.009766 0,0 -5.07807,-4.553377 -5.16307,-4.732987 -0.085,-0.179611 -0.94077,-1.467056 -0.79577,-3.543046 0.145,-2.075991 3.1503,-2.352666 3.3104,-4.75717 0.0629,-0.944142 -5.06779,-6.514119 -7.80104,-6.628635 z m 1.73658,4.544651 c 0.35222,-0.04209 0.69979,0.0862 1.02344,0.466796 1.72613,2.029821 2.00901,4.231294 0.70703,4.105469 -1.30198,-0.125826 -0.17355,-1.428557 -1.54882,-1.648437 -1.37527,-0.219881 -1.61967,1.350351 -2.58985,1.585937 -0.97017,0.235587 -1.17399,-0.149652 -0.71875,-0.939453 0,0 1.60067,-3.38791 3.12695,-3.570312 z m 0.78713,6.552931 c -0.54292,0 0.20141,0.773799 0.0659,1.047671 -0.18263,0.369075 -8.02005,-0.10645 -11.8213,0.490958 -2.68025,0.06712 -11.74758,4.253454 -12.34089,4.126381 -0.42028,-0.09001 -0.81463,-0.817782 -0.39746,-1.246832 0.31072,-0.319575 10.95447,-3.940971 12.47445,-4.162457 3.7986,-0.516233 12.68121,-0.255721 12.01931,-0.255721 z m 0.3409,2.802671 c 0.42147,0.233231 0.70832,0.693135 0.37484,1.228287 -0.21378,0.34307 -10.35017,0.337983 -11.65558,0.58785 -4.61986,0.617465 -11.39243,4.08016 -11.97378,4.162934 -0.32153,0.04578 -0.76303,-0.739255 -0.6373,-1.217225 0.13889,-0.528028 7.79944,-3.95717 12.14719,-4.379273 3.90967,-0.379573 11.11304,-0.732076 11.74463,-0.382573 z m 0.9675,2.832476 c 0.58248,0.0091 0.70554,0.563361 0.9781,0.715197 0.36342,0.202447 0.44762,1.430987 0.20894,1.706824 -0.23868,0.275837 -1.62437,0.235028 -3.7362,-1.242473 0,0 -0.11145,-0.680991 0.24658,-1.028453 0.0895,-0.08687 2.10842,-0.154118 2.30258,-0.151095 z"
         style="display:inline;fill:#000000;fill-opacity:1;stroke:#000000;stroke-width:0"
         id="path2321" />
      <path
         id="path2253"
         style="fill:#000000;fill-opacity:1;stroke:#000000;stroke-width:0"
         d="m 115.42431,50.842174 c -0.89409,-3.576371 0.54479,5.474608 -0.33161,5.723594 -0.93483,0.265585 -3.01498,-5.283935 -4.01227,-4.717534 -2.66099,1.511291 1.68497,-0.611821 -0.67273,4.968637 -0.73214,1.732913 -2.56502,-2.173394 -4.9782,-0.94094 -0.55311,0.282481 2.4432,1.289148 1.16049,2.314591 -2.99763,2.396395 -8.724017,0.271835 -5.8215,2.410402 0.58965,0.434453 3.05253,0.07955 2.37817,1.014195 -2.24656,3.11367 -6.184487,0.371759 -3.04561,2.816077 1.17312,0.913535 4.68841,-0.530927 3.60494,0.27715 -1.16006,0.865201 -3.29313,1.891588 -3.56446,2.730469 -0.324287,1.002593 -1.026617,4.974819 0.21875,3.150391 0.70356,-1.030696 2.65109,-2.781275 2.89063,-0.589844 0.15943,1.458503 -3.662917,2.016149 -2.8862,3.739824 -8.677987,0.437281 -8.749787,2.528889 -11.627467,7.478926 -13.35431,2.12679 -18.5903,6.332394 -27.8019,13.607411 -3.44403,2.719976 -10.48336,9.724737 -12.97668,11.124357 -2.49333,1.39961 -1.77639,2.81899 -2.16305,4.2048 -0.38667,1.38581 -3.70669,3.95211 -6.888013,7.37633 -5.212105,5.61008 -8.96838,19.48015 -8.948137,26.35535 -0.834514,15.38603 12.72454,26.95739 15.82021,39.48394 0.24961,1.01004 -0.92024,4.20322 -0.7104,5.84 0.20984,1.63679 -0.45408,3.15425 -1.16992,3.41601 -0.7158,0.26177 -0.22921,1.52545 -0.16545,2.5573 0.43813,7.08957 -3.34301,10.4819 -5.479392,18.10523 0,0 2.706052,1.11404 3.050252,1.80054 0.23975,0.47816 -2.289478,1.8967 -2.795978,3.08074 -0.441715,1.03258 -0.471516,2.54223 -0.334244,4.90829 -0.566598,0.97901 -0.05653,3.28985 -0.05653,3.28985 l 54.382262,0.089 c 0,0 0.86514,-0.68084 0.91344,-1.067 0.0483,-0.38614 0.82477,-0.72342 1.02632,-1.02939 0.42069,-2.40621 0.88783,-5.2189 -1.48828,-6.32422 -2.32217,-1.08022 -5.38495,-0.14502 -7.84603,0.37593 -1.0959,0.23195 -3.05307,-0.55231 -3.47014,-1.06872 -0.41706,-0.5164 -1.37075,-0.34662 -1.33345,-0.83845 0.0661,-0.87214 1.87055,0.1212 1.43123,-2.60172 -0.72274,-4.47944 -0.30503,-9.37178 -0.0684,-13.88868 0.0573,-0.926 -1.89914,-4.8548 -1.61914,-5.69921 0.69342,-2.09116 2.66004,-3.67624 2.4082,-6.41993 0.18853,-2.09384 -3.89264,-10.90852 -4.22461,-12.61132 -1.78058,-9.13339 -3.08578,-7.30851 0.66016,-9.03321 1.25842,-0.66615 0.8021,-1.82257 0.8125,-2.29883 -0.0107,-1.123 -0.0863,-2.22478 0.29297,-3.30859 0.15271,-1.85547 -0.15702,-4.16959 -0.52735,-5.31641 -0.4841,-1.45184 -0.50221,-1.61318 -0.60937,-2.66992 -0.10717,-1.05673 -0.85628,-2.06923 -1.71484,-2.61718 -0.85855,-0.54796 -1.28788,-0.70297 -2.37696,-1 -1.18616,-0.16914 -0.43696,0.16526 -0.7207,-2.94922 -0.10928,-1.19956 0.46429,-0.4359 0.92969,-0.88868 1.51066,-1.6142 1.77123,-3.67649 3.02344,-5.53906 0.71502,-0.7974 2.31646,-0.0781 3.02148,-0.56054 1.4212,-0.97259 2.10609,-1.38128 2.9668,-2.07618 1.19324,-0.96336 1.77723,-0.71061 1.70703,-2.11523 -0.0702,-1.40462 0.53055,-1.76006 1.6582,-2.69531 4.24969,-3.52466 6.20396,-5.82166 4.21289,2.48828 -0.39538,1.65017 2.31189,4.13967 3.35742,5.49609 1.04545,1.35642 1.61583,1.96715 1.66992,3.30078 0.0541,1.33362 0.61139,3.48004 0.79883,4.73243 0.18744,1.25237 -0.23891,3.54551 0.55469,3.64648 0.79361,0.10098 0.55118,0.48532 0.75,1.43945 0.0431,0.2068 -0.8894,-0.0309 -1.09375,3.70313 -0.0211,0.38481 -3.427,2.62521 -4.58398,5.88086 -0.4982,1.40188 0.19475,2.55868 1.23632,3.47461 1.04156,0.91601 1.21784,0.84179 1.72071,0.84179 0.50287,0 0.62387,1.00952 1.52148,1.10352 0.89761,0.094 5.894317,0.006 6.968747,-0.0996 1.28114,-0.16641 0.5554,-2.14261 2.5918,-1.72266 0.9889,0.20394 2.20795,-1.60159 2.93359,-2.56054 0.72564,-0.95895 3.14046,-4.88499 3.06836,-6.3125 -0.16621,-2.62086 -3.71374,-6.21483 -4.56054,-9.09571 0.68047,-0.33794 0.15717,-2.37241 -0.3711,-2.34961 1.74715,-3.85865 -1.33074,-7.04729 0.88281,-17.45507 0.18338,-1.19403 -1.18075,-0.66592 -1.38671,-1.6211 -0.206,-0.95519 0.46494,-0.89926 0.55664,-2.03125 0.0717,-0.88582 -1.49814,-0.95924 -1.55274,-1.98633 -0.0437,-0.82232 0.19726,-1.79012 1.05078,-3.01757 2.73997,-3.94042 3.79131,-5.99652 6.81446,-10.25977 0.20117,-0.42336 2.86738,0.12425 3.98046,-0.76562 1.11308,-0.8899 0.39915,-0.58751 2.32032,-1.37891 1.92117,-0.79139 2.42773,-3.73828 2.42773,-3.73828 0,0 1.37854,0.32656 2.17383,-1.22461 0.7953,-1.55116 1.07031,-3.816406 1.07031,-3.816406 0,0 0.85396,0.391081 1.42969,-1.789063 0.57573,-2.180144 1.21094,-8.142578 1.21094,-8.142578 0,0 1.6809,-0.203605 6.6875,-3.287109 4.54605,-3.019539 1.61776,-5.087935 -3.18164,-7.591797 -1.9436,-1.01398 0.0329,-1.483047 0.39062,-3.431641 0.29932,-1.630728 -0.34388,-4.065641 2.44922,-2.533203 1.66252,0.912141 0.26204,-1.697061 1.13281,-0.966797 0.87077,0.730264 0.97112,1.479413 1.64649,1.886719 1.07247,0.646786 -0.0375,-1.733737 1.03906,-1.679687 1.0766,0.05405 2.04358,0.590227 3.25,0.06641 1.20641,-0.52383 -2.90133,-4.253228 -3.77131,-5.558183 -0.86999,-1.304954 -0.28307,-1.127553 0.24006,-0.973067 2.15346,0.635932 0.77762,-1.604316 -0.63924,-3.004931 -3.57097,-3.530025 6.57503,2.13809 0.0418,-2.627063 -0.39353,-0.287027 -0.9843,-1.194126 -0.2477,-1.284206 0.73661,-0.09008 3.41898,-0.738281 2.84127,-1.10798 -1.18297,-0.757021 -3.9273,-2.543197 -5.10453,-2.550897 -1.17722,-0.0077 -1.58152,2.039046 -3.39224,1.724418 -1.26307,-0.219467 0.15169,-1.689119 1.05143,-1.797779 0.89974,-0.10866 -0.72904,-0.907298 -2.33008,-1.039062 -1.60104,-0.131763 -2.57296,2.665123 -3.17649,2.117211 -0.60353,-0.547911 -0.99807,-1.167512 -0.4682,-2.301404 1.08841,-2.32915 -3.84043,2.187737 -3.96899,1.892973 -0.44572,-1.021954 0.32917,-1.372344 1.3852,-2.391694 1.05604,-1.01935 -0.29629,-3.114632 -0.77738,-2.072946 -1.76425,3.8201 -7.28173,0.220937 -5.13867,4.980469 -2.84214,-1.193251 -3.38871,-3.573667 -3.64104,-4.582973 z m 8.69769,15.950157 c 0.33165,0 0.7104,1.028993 1.61133,1.001953 0.90092,-0.02704 0.5662,0.3675 0.37695,1.412109 -0.18926,1.044609 0.85695,1.073843 1.4336,0.484375 0.57662,-0.589468 0.69378,-0.784073 0.67578,0.123047 -0.018,0.90712 0.53946,-0.363151 0.98437,-1.470703 0.44491,-1.107553 0.97526,0.341257 1.14649,1.861328 0.17123,1.520071 0.88323,1.090934 0.86523,0.742188 -0.018,-0.348746 0.80955,-0.498075 1.15821,0.146484 0.34854,0.644559 -0.0379,1.186745 -0.0469,1.755859 -0.009,0.569114 -0.36376,0.378301 -0.48242,0.16211 -0.11865,-0.21619 -1.42345,-0.64853 -1.0918,-0.271485 0.33164,0.377046 0.69693,1.551288 0.53516,2.154297 -0.16177,0.603006 -0.56977,0.04779 -0.83477,0.03732 -0.5599,-0.02211 -0.68686,0.579575 -1.08906,0.222443 -0.40219,-0.357135 0.0152,-0.864033 -0.24928,-1.258346 -0.26454,-0.394313 -0.88887,-0.812409 -1.62486,-0.92857 -0.736,-0.116162 0.22931,0.84066 0.53585,1.804873 0.30644,0.964216 -0.96174,0.865517 -1.19492,0.55358 -1.48804,-1.990571 -4.89984,-4.604238 -4.71311,-3.828194 0.59775,2.484264 2.02193,1.901702 2.90281,3.84739 0.7477,1.651515 -2.35207,-0.16683 -3.6919,0.835481 -0.83121,0.621813 2.33486,0.65493 2.84791,1.012848 0.51306,0.357917 -0.80562,0.439741 -0.68359,0.742188 0.12203,0.302447 1.10292,0.125041 4.09375,0.06055 2.99083,-0.0645 6.29988,1.983527 7.62304,3.505859 1.32316,1.522332 1.93769,2.535656 -5.68554,5.232422 -4.62658,1.63668 -6.98405,-2.027034 -6.96485,-2.787109 0.0192,-0.760075 0.88514,-1.007137 1.33985,-1.029297 0.4547,-0.02216 -0.0369,-0.916235 -1.35157,-0.716797 -1.31466,0.199438 -1.75241,1.450636 -2.22265,1.691406 -0.47024,0.24077 -1.5089,0.514871 -1.76758,0.556641 -0.25869,0.04177 -2.30343,0.982039 -2.77735,1.158203 -0.47382,0.176165 -2.59008,-0.778475 -3.2889,-0.207512 -0.71994,0.588221 -1.55201,-0.412259 -2.14592,-0.871655 -0.5939,-0.459396 -0.31426,-1.303583 0.0403,-2.555599 0.35455,-1.252015 -0.76621,-0.93667 -1.04101,-1.322265 -0.2748,-0.385596 0.0624,-1.00743 0.52734,-0.97461 0.46493,0.03282 -0.79444,-2.747059 -0.70508,-1.873047 0.10214,0.999006 -0.10934,-0.924212 0.30274,-0.511718 0.41204,0.412493 0.49806,-0.90289 0.49804,-1.814454 3e-5,-0.911563 0.64029,-1.290303 1.54883,-1.345703 0.90854,-0.0554 0.86959,2.1061 1.1836,3.017579 0.314,0.911478 1.72533,0.368733 1.06054,-1.044922 -0.66479,-1.413655 -0.0247,-2.926512 1.12891,-3.449219 1.15356,-0.522707 -0.48815,-1.046978 -1.16406,-1.685547 -0.67592,-0.638568 0.886,-1.750367 1.625,-2.011719 0.739,-0.261353 0.76967,2.673547 1.00195,3.154297 0.23229,0.48075 0.87028,-1.93123 1.25781,-2.697266 0.38752,-0.766035 0.5295,2.408686 0.71875,3.138672 0.18926,0.729986 1.64631,-4.493592 1.69141,-5.304687 0.0451,-0.811095 1.77919,0.137441 1.80469,0.289062 0.0255,0.151621 0.81924,1.665668 1.30664,1.304688 0.4874,-0.360981 0.65859,-2.048828 0.99023,-2.048828 z m -18.6914,5.166015 c 0.36751,0.02042 0.70165,0.261572 0.94531,0.447266 0.38986,0.29711 1.49762,2.064507 1.89062,2.529297 0.393,0.464791 0.34265,0.489847 0.20313,1.214844 -0.13951,0.724997 -0.25112,1.280807 -0.39063,2.013671 -0.13951,0.732867 0.1875,8.003871 -0.18945,8.298829 -0.37696,0.294957 -1.65122,2.97409 -1.85742,3.113281 -0.2062,0.139191 -5.00658,2.171806 -5.51013,1.950497 -0.615537,-0.270524 -1.853997,-4.534434 -1.958557,-6.859199 -0.15987,-3.554423 0.65749,-5.074479 1.32507,-3.432008 0.975817,2.400875 2.494207,2.520134 2.669207,3.166692 0.18667,0.689624 -2.573657,1.683484 -2.10755,2.387299 1.03149,1.557509 5.34011,-2.106662 4.93,-2.630388 -1.54322,-1.970735 -3.64666,-2.120712 -4.24418,-5.080726 -0.24182,-1.153322 0.38001,-3.833221 0.68694,-4.614504 0.30693,-0.781283 2.29834,-1.697435 2.92014,-2.245085 0.23317,-0.205369 0.46699,-0.272018 0.6875,-0.259766 z m -6.065617,3.6006 c 0.643567,0.01247 -0.11258,2.043729 -0.23883,2.866884 -0.12626,0.823156 -1.60143,0.477089 -2.06447,3.458885 -0.81729,5.262971 0.87086,9.504284 4.679247,16.207306 1.44026,2.116649 3.35177,2.872179 3.35177,2.872179 -0.27623,1.13844 0.85891,0.80168 0.87891,1.42383 0.02,0.62215 -0.3651,1.07937 -0.0606,1.89649 0.30456,0.81711 0.73159,0.61857 0.64649,1.35546 -0.0851,0.73692 -1.49503,0.70581 -3.09961,1.50196 -1.60458,0.79615 -3.867297,-0.46772 -5.388667,-1.15625 -1.52137,-0.68853 -4.48009,-2.41963 -6.4043,-3.72852 -1.92422,-1.30889 -2.40818,-5.213997 -2.77344,-7.703124 -0.63632,-5.805954 0.9113,-11.666118 3.35199,-15.98448 1.23134,-2.418743 5.9169,-3.033959 7.12151,-3.01062 z m -11.7254,7.5244 c 0.644224,0.386534 0.32057,0.503648 -0.0918,1.802735 -0.54976,1.732115 -0.20707,4.03749 0.0312,10.416015 0.23832,6.378524 0.26608,5.645774 5.92774,9.992184 5.66166,4.34642 8.175357,3.87364 10.142577,3.47656 1.96721,-0.39708 2.5008,-1.32786 3.06445,-1.25976 0.56365,0.0681 1.22199,-0.536 1.67578,-0.16797 0.45379,0.36802 0.0929,0.54627 0.4082,0.77539 0.31527,0.22916 1.11339,-0.57859 1.21289,0.18359 0.0995,0.76223 0.29879,0.77048 0.57032,0.66407 0.27153,-0.10647 1.25795,-0.813 1.18945,0.0859 -0.0685,0.89892 0.43945,1.49412 0.43945,1.49415 0,0 -2.56935,3.09043 -3.36914,3.27539 -0.79979,0.18497 -2.04122,-0.14594 -2.53711,1.04687 -0.49589,1.19281 1.6988,0.85622 1.34766,1.66992 -0.35114,0.81371 -1.11247,2.06844 -1.46094,2.75196 -0.34846,0.68352 -0.50456,1.52035 -0.73437,3.20312 -0.22981,1.68277 -0.75414,0.49744 -1.38086,2.13672 -0.62672,1.63929 0.9073,2.13676 1.22851,2.16406 0.32122,0.0272 0.79716,0.82468 1.31446,5.02344 0.51729,4.19876 -0.91526,5.5159 -0.32618,10.81641 0.58909,5.3005 -0.21456,4.53791 -0.91211,4.44921 -0.69754,-0.0887 -2.22555,0.10134 -3.66796,0.43946 -1.44241,0.33812 -1.774527,1.55085 -2.306647,1.83789 -0.53212,0.28704 -0.3,-0.0103 -0.3789,-0.37695 -0.0789,-0.36661 -0.28216,-2.0525 -0.40039,-3.02149 -0.11822,-0.96898 -0.73782,-2.497 -0.61719,-3.24023 0.12062,-0.74322 -0.39944,-1.98232 -1.23242,-3.31446 -0.83299,-1.33213 -3.09032,-4.15932 -3.21094,-4.6875 -0.12063,-0.52818 0.32247,-2.10706 0.47852,-2.84179 0.15606,-0.73474 0.0334,-1.08323 -0.24805,-2.09571 -0.28145,-1.01248 0.0445,-2.35896 0.57813,-3.41406 0.53363,-1.0551 1.50346,-1.80267 2.46093,-2.83203 0.95746,-1.02936 3.643407,-1.33434 4.484377,-1.7793 0.84098,-0.44497 0.2739,-1.03021 -0.85742,-1.49023 -1.131327,-0.46002 -2.745667,0.61406 -4.298827,1.52148 -1.55317,0.90743 -3.15625,3.94336 -3.15625,3.94336 0,0 -2.35481,2.11458 -2.79102,2.55078 -0.4362,0.43621 -4.91992,3.63086 -4.91992,3.63086 0,0 -0.62671,1.73056 -1.17578,3.28906 -0.54907,1.5585 -2.89882,2.08742 -3.55859,2.25391 -0.65978,0.1665 -2.03126,-0.12695 -2.03126,-0.12695 l -2.36718,2.55273 -0.94336,3.01563 -2.22852,1.65625 c 0,0 -1.34488,-1.72272 -1.42968,-2.25781 -0.0848,-0.53511 -0.32644,-4.12101 -0.19922,-5.02149 0.12721,-0.90049 -0.31531,-4.94907 -0.37891,-5.9668 -0.0636,-1.01772 0.88004,-3.37375 0.96484,-4.49609 0.0848,-1.12234 -2.61163,-2.02077 -2.78125,-2.82031 -0.16962,-0.79954 0.24873,-1.70467 0.66016,-2.6211 0.41142,-0.91643 5.37268,-6.09738 6.27148,-6.67968 0.8988,-0.5823 4.20695,-4.63915 4,-5.04493 -0.20695,-0.40578 -2.21711,0.70082 -3.74804,1.93555 -1.53093,1.23472 -2.26302,2.98637 -3.07227,2.36524 -0.80926,-0.62114 -4.0934,-3.68905 -5.77148,-4.19336 -1.67808,-0.50431 -5.97461,-1.3711 -5.97461,-1.3711 0,0 4.44721,-10.276574 5.1875,-10.861324 0.74028,-0.584751 0.15595,-2.290372 -0.16211,-2.6875 -0.31807,-0.397128 -0.83522,0.05579 -1.22852,0.90625 -0.3933,0.850463 -2.9842,5.768354 -3.41797,6.595704 -0.43376,0.82735 -8.10807,16.11732 -8.89257,17.15625 -0.78449,1.03892 -0.80445,4.79439 -1.08008,7.10547 -0.27563,2.31107 0.73694,4.00605 1.19726,4.79492 0.46032,0.78886 2.02053,4.51509 1.90821,5.52344 -0.11232,1.00834 -0.0164,2.93495 0.66211,3.9375 0.67848,1.00255 0.70644,3.61663 1.09765,4.29882 0.3912,0.68218 1.3566,1.35337 1.21094,1.9668 -0.14565,0.61344 -1.29163,0.16602 -2,0.16602 -0.70836,0 -3.92608,-0.73137 -4.48438,-0.89454 -0.55826,-0.16315 -1.89755,-1.61471 -2.78515,-2.43945 -0.8876,-0.82475 -3.15339,-3.10492 -4.25195,-3.68359 -1.09856,-0.57867 -2.50987,-3.59497 -3.72852,-5.61328 -1.21869,-2.01832 -0.34408,-1.72427 -1.27344,-2.49414 -0.929351,-0.76987 -3.671872,-2.8125 -3.671872,-2.8125 0.261758,-0.89145 0.283514,-2.21709 0.582031,-3.3125 0.298518,-1.09541 3.016421,-5.76412 4.234371,-7.10157 1.21794,-1.33745 2.32999,-1.9956 3.70703,-4.15039 1.37709,-2.15479 3.72442,-2.45169 3.60142,-3.67568 -0.37526,-3.73417 1.47035,-2.44403 3.0308,-4.47771 0.86749,-1.15012 9.45403,-8.710843 12.90754,-11.746524 7.18774,-6.318118 13.14513,-9.390441 22.56962,-11.572737 0.55631,-0.135503 0.9374,-0.213665 1.1875,-0.226563 z m 33.136717,5.566407 c 3.66177,0.07527 3.13086,1.972656 3.13086,1.972656 0,0 -0.9881,0.272616 -3.35156,0.306641 -2.36345,0.03402 -3.9336,-0.171876 -3.9336,-0.171876 0,0 0.49253,-2.182694 4.1543,-2.107421 z m -14.82813,2.484375 c 0.0344,0.0026 0.054,0.0128 0.0566,0.0332 0.042,0.326387 -0.40124,1.312321 -0.25,1.482422 0.15123,0.170101 0.71688,-0.117067 0.875,0.654297 0.15812,0.77136 -0.6321,0.797038 -0.85156,1.751953 -0.21946,0.954914 0.21199,0.853522 0.39063,1.904297 0.17865,1.050768 -0.65821,2.333984 -0.65821,2.333984 0,0 -2.55759,-2.033071 -3.40039,-3.740234 -0.8428,-1.707167 -1.1628,-1.933169 -0.84179,-2.285157 0.30095,-0.329989 4.16336,-2.173489 4.67968,-2.134765 z m 13.84766,0.599609 c 1.46674,0.0095 2.91661,0.08151 3.04297,0.267578 0.41547,0.611764 0.15009,1.001063 -0.48828,2.099609 -0.62371,1.063149 -0.75058,1.576899 -1.42578,1.900391 -1.55313,0.744108 -6.47535,0.56259 -6.61914,0.275391 -0.16325,-0.326085 0.30524,-2.169779 0.68945,-2.753906 0.29615,-0.450261 1.10117,-1.495336 1.65039,-1.677735 0.19915,-0.06614 1.68365,-0.120835 3.15039,-0.111328 z m 0.26172,5.455078 c 0.3208,0.545353 0.0464,0.702924 -0.20899,1.300781 -0.23208,0.765919 -4.53576,0.864632 -5.64062,0.800782 -1.10486,-0.06385 -0.58175,-1.756293 -0.0801,-1.804688 1.82231,-0.175778 4.75187,-0.248171 5.58008,-0.287109 0.14396,-0.01671 0.30379,-0.0877 0.34961,-0.0098 z M 60.571223,110.13022 c -0.44925,0 4.44027,0.46537 5.13477,0.48047 0.6945,0.0151 4.31907,2.2967 4.80468,2.66211 0.48561,0.36541 2.25586,2.31445 2.25586,2.31445 0,0 -1.38681,2.1195 -1.70507,2.46875 -0.31828,0.34924 -2.34509,3.31178 -2.70508,3.74805 -0.35999,0.43626 0.084,3.23633 0.084,3.23633 0,0 -0.57646,1.28803 -0.69726,1.5371 -0.12079,0.24909 -2.85966,1.97731 -3.20899,2.1211 -0.34934,0.1438 -2.43814,0.69739 -1.55078,-0.35547 0.88736,-1.05286 1.72233,-1.77148 2.41797,-1.77148 0.69563,0 0.82962,-0.84732 0.75,-1.0293 -0.0796,-0.18199 -0.31152,0.29716 -1.58399,-0.48242 -1.27248,-0.77959 -2.73716,-1.08802 -2.52734,-2.45117 0.20981,-1.36317 -0.0197,-2.45002 -0.77148,-2.19336 -0.75177,0.25667 -2.13297,0.2893 -1.05079,0.68554 1.08223,0.39624 0.7803,-0.41556 0.82422,1.26953 0.0439,1.68508 0.34065,2.66347 1.03711,2.73829 0.69645,0.0748 2.44287,0.58234 0.97071,1.3789 -1.47217,0.79657 -2.64112,2.79982 -2.03907,3.2207 0.60205,0.42087 0.48327,1.09573 1.99414,0.58594 1.51087,-0.50979 3.81402,-1.70879 5.03125,-2.26172 1.21722,-0.55292 1.40098,-1.90251 1.89454,-1.22656 0.49355,0.67594 -0.0396,1.34197 -0.0801,2.41992 -0.0406,1.07794 -0.19267,1.46257 -0.11719,3.25586 0.0755,1.79328 -0.25181,4.58491 -0.19141,6.19727 0.0604,1.61236 0.3409,4.06132 0.3711,4.38672 0.0302,0.32539 1.30538,1.96804 1.38086,2.65625 0.0755,0.68822 -0.0624,2.04167 -0.72071,2.75976 -0.65829,0.71808 -7.56836,3.57813 -7.56836,3.57813 0,0 -2.17843,-2.41352 -2.60546,-3.18946 -0.42704,-0.77594 -1.24256,-2.69294 -1.33399,-3.10156 -0.0914,-0.40863 0.10744,-0.0561 -0.60351,-1.00391 -0.71096,-0.9478 -1.34653,-1.83424 -1.14844,-2.66992 0.19808,-0.83569 0.0115,-1.44802 -0.41211,-1.83008 -0.42353,-0.38205 -0.60777,-1.88483 -0.53125,-2.38671 0.0765,-0.50188 0.19566,-1.24016 0.0606,-1.89453 -0.1351,-0.65442 -0.60887,-2.16446 -0.81836,-2.57813 -0.2095,-0.41367 -1.18212,-2.77548 -1.87696,-3.76172 -0.69484,-0.98624 -0.78658,-2.02406 -0.77148,-2.69141 0.0151,-0.66732 0.68425,-5.5689 0.78711,-5.90234 0.10285,-0.33345 0.52881,-1.02927 0.94922,-2.0625 0.42041,-1.03323 2.89615,-4.77567 3.0039,-4.97461 0.10774,-0.19894 1.80469,-3.50586 1.80469,-3.50586 0,0 1.511742,-0.37695 1.0625,-0.37695 z m 45.148437,38.41797 c -0.15355,-0.69097 1.22463,0.0214 1.32422,0.0898 0.19916,0.13687 0.58102,1.40011 0.66992,1.55274 0.0889,0.15262 2.28461,4.40328 2.70312,4.83789 0.41851,0.4346 1.23827,2.50958 1.25977,3.09765 0.0215,0.58806 -1.70431,3.19563 -1.9082,3.4961 -0.20389,0.30047 -2.31,2.71318 -2.83203,3.16015 -0.52208,0.44696 -1.96723,0.25822 -2.53516,0.19922 -0.56793,-0.059 -2.51069,-1.094 -2.79492,-1.23242 -0.28422,-0.13841 -1.11049,-1.2405 -1.08789,-1.3125 0.0226,-0.072 -0.3053,-1.26306 -0.375,-1.83203 -0.0697,-0.56898 0.23033,-1.36189 0.56836,-1.89844 0.33802,-0.53656 0.64536,-0.72435 1.16211,-1.06055 0.51669,-0.33656 0.50585,0.006 0.50585,0.006 0,0 0.3824,-0.27828 0.82618,-0.0586 0.44379,0.2197 0.22775,0.57519 -0.52149,1.36328 -0.74925,0.78809 -1.37582,1.33656 -1.39062,2.21289 -0.0148,0.87633 0.98135,1.12694 2.21289,1.79492 1.23153,0.66799 2.49613,-0.19926 3.49219,-1.10546 0.99602,-0.90621 1.31078,-1.90413 2.01367,-3.1543 0.70288,-1.25017 0.33296,-0.77751 0.13281,-1.90039 -0.20015,-1.12288 -0.8176,0.0877 -1.69922,0.89258 -0.88161,0.80483 -1.45926,2.87061 -1.7168,3.35351 -0.25755,0.4829 -1.51479,0.85979 -2.58789,0.3125 -1.07311,-0.54728 -0.13459,-0.76404 0.0508,-1.27344 0.18534,-0.5094 1.50746,-1.50426 2.09766,-2.29296 0.59021,-0.78875 0.13101,-0.63447 -0.45898,-1.07422 -0.58998,-0.43975 -1.52979,-0.79197 -1.72266,-1.38282 -0.19288,-0.59085 1.28099,-1.8957 1.39258,-2.15625 0.11159,-0.26055 -0.18608,-0.41217 -0.42578,-0.45507 -0.2397,-0.0429 -0.89913,0.23603 -1.56446,0.89062 -0.66532,0.6546 -1.52029,2.65075 -1.7832,2.99414 -0.26291,0.34339 -1.278607,0.85076 -1.626947,0.6875 -0.34835,-0.16326 -0.35363,-0.31374 -0.46094,-0.83984 -0.10731,-0.5261 0.49533,-1.67846 0.69922,-1.89844 0.20389,-0.21999 1.460097,-0.90666 1.470697,-1.4707 0.0106,-0.56405 -0.52577,-1.14297 -0.4668,-1.50196 0.059,-0.35899 1.24008,-1.54454 2.93165,-2.39257 0.84578,-0.42402 2.59886,0.0425 2.44531,-0.64844 z m -33.994137,1.04101 c 0.39707,0.0182 0.74602,0.19714 1.08594,0.56055 0.90644,0.9691 1.76877,0.34299 3.80859,1.00977 2.03982,0.66677 1.28905,4.42871 1.89844,6.50781 0.60939,2.0791 -0.71894,0.54958 -1.47461,1.80078 -0.75566,1.25121 2.07808,5.21698 0.11914,6.08203 -1.95894,0.86504 -3.2318,-5.81224 -4.05078,-5.66016 -0.81898,0.15209 2.0169,5.58517 0.63672,6.23633 -1.38019,0.65116 -2.39975,-5.05689 -3.18946,-6.02343 -0.78971,-0.96654 -0.99484,1.38911 -0.14648,2.73046 0.84837,1.34135 1.20685,3.65464 0.6289,3.94141 -0.57794,0.28677 -2.03908,-1.30918 -2.66601,-2.49805 -0.62694,-1.18888 -1.00003,-3.78906 -1.73633,-4.04492 -0.73629,-0.25586 -0.57733,1.96914 0.4668,3.35938 1.04413,1.3902 -0.36667,1.521 -1.61133,1.36718 -1.24466,-0.15382 -1.54933,-1.97366 -2.75586,-3.28125 -1.20654,-1.3076 0.0353,-2.57627 0.42578,-4.19335 0.39048,-1.61709 0.86133,-3.84571 0.86133,-3.84571 0,0 3.38188,-1.6632 5.14258,-2.89258 1.10043,-0.76835 1.89486,-1.18661 2.55664,-1.15625 z m 26.80859,9.68555 c 0.14445,-0.0152 0.66635,0.53718 0.88672,1.17188 0.21988,0.63471 0.0329,1.94674 0.21484,2.95117 0.18198,1.00443 2.035707,1.61561 2.453127,1.86718 0.41741,0.2516 1.84849,0.59584 2.0625,0.71485 0.21401,0.11901 -0.0328,0.73795 -0.58008,1.28515 -0.54728,0.54731 -2.55935,-0.23583 -2.76367,-0.27343 -0.20432,-0.0376 -1.050847,-0.58215 -1.324217,-0.69922 -0.27336,-0.11706 -0.39459,-0.48979 -0.68555,-1.00391 -0.29096,-0.51413 -0.16235,-0.5414 -0.45508,-1.04687 -0.29266,-0.50546 -0.60192,-1.85066 -0.57812,-2.17188 0.0238,-0.32123 0.42437,-1.03477 0.57617,-2.49804 0,0 0.0489,-0.28168 0.19336,-0.29688 z m -1.27539,0.65039 c 0.178222,-0.0891 0.0332,0.41342 -0.16797,0.96875 -0.26827,0.74044 -0.47706,1.1899 -0.48242,1.91016 -0.005,0.72026 0.45313,1.8164 0.45313,1.8164 0,0 -0.88915,0.87096 -1.4043,0.68555 -0.51515,-0.18541 -0.76018,-0.31752 -0.98242,-1.11133 -0.22223,-0.79381 -0.38364,-0.71543 0.0273,-1.7207 0.4111,-1.00527 1.63015,-2.30246 2.23828,-2.50391 0.15204,-0.0504 0.258956,-0.0152 0.31836,-0.0449 z m -32.72461,25.72852 c 0.01312,0 -0.001,0.0774 0.18945,0.27148 0.44987,0.45807 0.097,1.13131 0.63282,1.54492 0.53588,0.41362 0.80555,1.82432 0.10547,2.58985 -0.70006,0.76552 -0.76997,2.83293 -0.0469,3.16015 0.72314,0.32721 0.37205,1.14501 1.01758,2.20313 0.64549,1.05812 0.14835,2.25645 -0.0371,3.41211 -0.18562,1.15653 0.4158,2.83958 0.4043,3.91406 -0.0127,1.18313 -0.3328,7.1338 -0.0547,9.02344 0.27813,1.88965 -0.82738,4.12941 -0.79688,4.82812 0.0305,0.6987 1.11995,0.34465 1.22461,1.02149 0.0754,0.48771 -0.23847,1.0005 -0.64648,1.68945 -1.26201,-0.45385 -3.22447,-0.21028 -4.67188,-0.12305 -2.37926,0.32478 -5.45165,-1.61132 -6.07226,-1.57422 -0.5401,-1.5359 0.57368,-3.20897 1.01953,-5.14843 0.47679,-1.69895 0.38143,-1.95038 0.58594,-2.61524 0.2045,-0.66485 0.61474,-2.15846 1.41406,-4.10156 0.96177,-2.33807 0.46916,-5.36724 0.91992,-7.99609 0.1227,-1.20251 3.39742,-3.12728 3.88477,-6.60547 0.30931,-2.20756 0.13494,-4.91763 0.60156,-5.21094 0.28074,-0.17647 0.313006,-0.2832 0.32617,-0.2832 z m -11.31286,32.72812 c 1.18543,0.47645 2.76754,0.77738 2.51609,1.01074 -1.27041,1.17903 -1.67476,1.2069 -1.708,2.2405 0.0684,1.04886 0.84768,1.8983 0.84768,1.8983 0,0 0.99561,-3.28204 2.07446,-3.69115 1.59899,-0.60636 -1.83603,2.06536 -0.37245,3.8857 0.29383,0.36545 1.08414,-3.63775 2.24723,-3.48898 1.18932,0.15213 4.31343,-0.25204 5.25157,0.25427 2.54551,1.37381 2.60746,2.00548 2.14574,4.29721 -0.32102,0.10482 -17.40846,0.0266 -17.88086,-0.20117 -0.47239,-0.22779 -0.25637,-1.46234 -1.64062,-2.4375 -0.98821,-0.69616 -2.22321,-0.58671 -6.71703,0.12566 -0.13736,-2.59541 0.12635,-5.09269 3.52004,-4.64837 3.05911,0.81899 7.34693,-0.19745 9.71615,0.75479 z m 26.07151,-0.70558 c 0.89963,0.32119 0.1192,0.85048 0.33464,1.23516 0.21544,0.38469 1.37368,-0.60303 1.86562,-0.28245 0.74403,0.48486 0.1874,1.84743 0.45286,2.01769 0.29369,0.18837 0.72363,-1.23263 1.73724,-1.1672 0.8714,0.0563 -0.32277,1.94708 0.3132,2.33934 0.63598,0.39227 0.75043,-1.52897 2.15039,-2.04492 1.59279,-0.58702 3.75956,-1.07538 5.52996,-0.21676 1.9472,0.94437 1.33908,3.10726 1.01187,3.54348 -0.40742,0.54316 -4.2949,-0.1759 -5.53476,0.19094 -0.39527,0.11695 -0.71109,1.05396 -1.05004,1.09953 -7.20383,0.0976 -9.5248,0.57552 -11.913,-2.0548 -1.14467,-1.09581 -2.21077,1.8032 -4.54884,0.38763 -2.57583,-1.55953 -1.94781,-5.69661 1.41118,-5.24022 2.83672,0.37662 7.87142,0.0611 8.23968,0.19258 z"
         sodipodi:nodetypes="sssssssssssssccsssscsssscsscccscssssscscsccccsscscccsscscsssssscsscssccccscsscsscscsccscsssssssssssssssssssscsssssssscsssssssscssssssssssssssscsssssscsssssssssssssssssssssssssssscsssscscsssssssccscssssscscsssssscssssssssssssssssscscssccccssssssssssscssssssssssssssssscsscscssscsccsscsssccssssscsscssccsscsssscssssssssssssscssssscssssscsssssssssssssccscssssssssssccsssssssssssssssssssssssssssssssssssssssssscssscssscssssscsssccsscssscsssssssssccccsscsssscsscsssssssscssssscssccsssssscssssccscs" />
      <path
         sodipodi:nodetypes="cssssc"
         style="fill:#000000;fill-opacity:1;stroke:#000000;stroke-width:0"
         d="m 122.77047,79.964529 c 0,0 -1.2594,0.576284 -1.96839,-0.542834 -0.70899,-1.119118 -0.48419,-2.447807 -0.90133,-1.648604 -0.41714,0.799203 -1.17453,2.152008 -0.17518,2.674935 0.99935,0.522927 3.13305,0.532981 3.39479,0.236286 0.26175,-0.296695 1.02847,-0.980801 -0.34989,-0.719783 z"
         id="path2287" />
      <path
         sodipodi:nodetypes="csc"
         style="fill:#000000;fill-opacity:1;stroke:#000000;stroke-width:0"
         d="m 116.68096,80.544625 c -0.31046,-1.004431 -0.53931,-1.403605 0.0706,-0.878643 0.60991,0.524962 0.65763,0.821478 -0.0706,0.878643 z"
         id="path2289" />
      <path
         sodipodi:nodetypes="cscc"
         style="fill:#000000;fill-opacity:1;stroke:#000000;stroke-width:0"
         d="m 116.73409,78.009494 c -0.81689,-0.354205 -0.83874,-0.888735 -0.33429,-1.025824 0.50445,-0.13709 0.82848,-0.151176 0.85722,0.43539 0.0287,0.586566 -0.52293,0.590434 -0.52293,0.590434 z"
         id="path2291" />
      <path
         sodipodi:nodetypes="csssc"
         style="fill:#000000;fill-opacity:1;stroke:#000000;stroke-width:0"
         d="m 118.11079,76.363252 c -0.6648,-0.602177 -1.86623,-1.168623 -0.70872,-1.260493 1.15751,-0.09187 2.32415,-0.0046 2.00601,0.787092 -0.31814,0.791659 -0.43176,0.358134 -0.81992,-0.06577 -0.38816,-0.423905 0.29967,0.421752 -0.47737,0.539171 z"
         id="path2293" />
      <path
         sodipodi:nodetypes="cssccssssssssscc"
         style="display:inline;fill:#000000;fill-opacity:1;stroke:#000000;stroke-width:0"
         d="m 94.464963,115.61356 c 0,0 -0.0804,0.68675 -0.79585,0.72108 -0.71541,0.0343 -1.07309,-0.6322 -1.5198,-0.31575 -0.44672,0.31645 -0.13934,1.0877 -0.1956,1.37723 -0.0563,0.28953 -4.22247,3.62909 -4.66342,3.72064 -0.44095,0.0915 -2.00246,-0.79746 -1.94523,-1.9264 0.0572,-1.12894 -2.01062,-1.44578 -1.42121,0.2175 0.58941,1.66327 1.66943,3.07073 2.5994,3.20806 0.92996,0.13732 4.63148,-0.77847 4.84891,-0.92724 0.21744,-0.14877 -0.32043,-1.3113 -0.74386,-0.93365 -0.42343,0.37765 -0.22888,-0.94985 0.0458,-1.07574 0.27465,-0.12588 2.14283,-2.26785 2.81803,-1.94741 0.6752,0.32043 1.13959,-0.61414 1.04835,-0.75116 -0.0912,-0.13702 0.16469,-1.0474 0.19902,-1.37766 0.0343,-0.33026 -0.27452,0.0105 -0.27452,0.0105 z"
         id="path2318" />
      <path
         style="fill:#000000;fill-opacity:1;stroke:#000000;stroke-width:0"
         d="m 141.17201,62.252662 c 9.13912,-8.649468 10.17421,-8.31935 8.91912,-9.442078 -1.25508,-1.122729 3.28797,-4.197384 4.71613,-5.102932 1.42817,-0.905547 -7.66066,-0.474112 -7.66066,-0.474112 0,0 -2.1955,0.246558 -13.20369,0.246727 -0.78194,8e-6 -1.5721,-7.455026 -2.3744,-7.455981 -3.65032,-0.0043 -11.36408,-0.949063 -16.44004,0.511509 -6.64129,1.910983 -6.65063,6.909098 -12.8568,6.83718 C 64.551754,46.935871 9.3067185,47.118327 8.7567015,47.112877 c -0.94575,-0.0094 -0.57414,-1.235038 -0.85089,-1.216492 -0.27675,0.01855 -0.857119,0.441895 -0.875343,0.02476 -0.01822,-0.417133 0.553743,-0.808804 -0.140818,-0.833179 -0.694561,-0.02438 -0.723711,-34.064583 -0.494298,-34.154269 0.229414,-0.08969 1.969783,0.829145 1.936598,-0.1 -0.03318,-0.9291402 -0.66668,-2.1252869 -0.03275,-2.2740864 0.633928,-0.1487996 1.392665,0.1881556 1.359481,-0.7443744 -0.03319,-0.93253 -0.859859,-1.7880508 0.7922235,-1.5778874 1.652084,0.2101634 275.230765,0.1198681 276.246255,0.1643495 1.01549,0.044481 0.84014,1.1185692 1.09076,1.4334611 0.25061,0.3148918 2.43437,-1.3141883 2.58628,0.131316 0.15192,1.4455042 0.57837,1.2004363 0.47882,2.2070056 -0.0996,1.006569 1.07868,31.701049 0.90675,32.540246 -0.17175,0.839197 -1.27021,-0.112409 -2.26572,1.402976 -0.99551,1.515384 -0.0235,2.970187 -1.9385,3.110141 -1.91502,0.139954 -118.78005,-0.658704 -119.58769,-0.372777 -0.80765,0.285928 -10.32434,4.14184 -10.34671,4.962032 -0.0224,0.820192 0.8959,2.470808 0.42239,3.304642 -0.47352,0.833834 -20.26485,9.727789 -16.33346,7.493214 3.93138,-2.234575 14.5177,-7.751109 14.59255,-8.5051 0.0748,-0.753991 -1.98895,-1.7983 -1.08622,-2.902642 0.90272,-1.104343 9.47927,-4.436317 14.25084,-6.584467 2.52743,-1.137843 115.96077,0.417865 115.98289,-0.126823 0.0221,-0.544688 -1.09351,-2.779991 0.41283,-2.978728 1.50634,-0.198738 1.23974,-28.881068 1.23974,-28.881068 0,0 -2.48371,0.08109 -2.9125,-1.139771 -0.42879,-1.220862 0.11701,-2.245836 0.11701,-2.245836 0,0 -270.983643,-0.1342947 -271.463169,0.2329503 -0.479525,0.367241 0.201916,2.3553137 -0.494825,2.8053587 -0.696741,0.450046 -1.840497,-0.584548 -1.840497,0.363408 0,0.947956 -1.4161425,-0.246113 -1.4165735,1.543696 -4.32e-4,1.78981 -0.09345,28.405097 -0.07786,28.594072 0.01559,0.188976 0.895019,-0.673624 0.973068,0.175641 0.078035,0.849264 0.8727245,0.229735 0.8948455,0.813693 0.02212,0.583958 -0.546964,1.033669 0.243341,0.804429 0.441557,-0.128081 53.960324,-0.208733 91.10484,0.180848 0.95485,0.01002 8.0839,-5.409126 9.03425,-5.398804 1.68501,0.0183 4.11203,-1.376095 5.76735,-1.358601 10.23192,0.108137 7.27405,0.827965 14.42777,1.798539 0.97825,0.132722 0.26855,4.512668 1.32494,4.535131 10.81474,0.229965 22.91475,-0.03102 25.04222,-0.07761 2.14635,-0.047 2.42719,1.752653 1.95982,2.103314 -0.46736,0.350661 -7.84284,4.529598 -7.2167,5.616478 0.62614,1.08688 1.73001,0.69447 0.077,1.670145 -1.65305,0.975675 -11.47516,8.600457 -11.47516,8.600457 z"
         id="path2336"
         sodipodi:nodetypes="csscsssscsssssssssssscsssssscsssscscssssssssssssssssscc" />
      <path
         sodipodi:nodetypes="csc"
         style="fill:#000000;fill-opacity:1;stroke:#000000;stroke-width:0"
         d="m 55.792873,65.208103 c 0,0 -16.754857,-3.189257 -18.217191,-4.281098 -1.462333,-1.091841 14.675971,2.155487 18.217191,4.281098 z"
         id="path2367" />
      <path
         sodipodi:nodetypes="csc"
         style="fill:#000000;fill-opacity:1;stroke:#000000;stroke-width:0"
         d="m 85.889023,68.043672 c 0,0 -12.00267,-1.498134 -11.39786,-3.08822 0.60481,-1.590085 11.39786,3.08822 11.39786,3.08822 z"
         id="path2369" />
      <path
         sodipodi:nodetypes="csc"
         style="fill:#000000;fill-opacity:1;stroke:#000000;stroke-width:0"
         d="m 72.108733,76.936731 c 0,0 -14.93668,-1.008443 -13.86644,-3.725588 1.07024,-2.717144 13.86644,3.725588 13.86644,3.725588 z"
         id="path2371" />
      <path
         sodipodi:nodetypes="csc"
         style="fill:#000000;fill-opacity:1;stroke:#000000;stroke-width:0"
         d="m 39.990853,84.940844 c 0,0 -12.24108,1.686324 -11.79945,-0.837637 0.44163,-2.523961 11.79945,0.837637 11.79945,0.837637 z"
         id="path2373" />
      <path
         sodipodi:nodetypes="csc"
         style="fill:#000000;fill-opacity:1;stroke:#000000;stroke-width:0"
         d="m 100.10001,55.996797 c 0,0 -4.362257,-7.29908 -6.135247,-5.989945 -1.77299,1.309134 6.135247,5.989945 6.135247,5.989945 z"
         id="path2383" />
      <path
         sodipodi:nodetypes="csc"
         style="fill:#000000;fill-opacity:1;stroke:#000000;stroke-width:0"
         d="m 87.695773,57.864614 c 0,0 -4.38032,-10.039257 -6.69405,-8.100305 -2.31373,1.938952 6.69405,8.100305 6.69405,8.100305 z"
         id="path2385" />
      <path
         sodipodi:nodetypes="csc"
         style="fill:#000000;fill-opacity:1;stroke:#000000;stroke-width:0"
         d="m 155.38258,58.791711 c 0,0 9.79426,-7.359176 10.87568,-5.578072 1.08142,1.781104 -10.87568,5.578072 -10.87568,5.578072 z"
         id="path2387" />
      <path
         sodipodi:nodetypes="csc"
         style="fill:#000000;fill-opacity:1;stroke:#000000;stroke-width:0"
         d="m 178.32029,52.528684 c 0,0 16.81968,-5.712947 17.35572,-4.112984 0.53604,1.599963 -17.35572,4.112984 -17.35572,4.112984 z"
         id="path2389" />
      <path
         sodipodi:nodetypes="csc"
         style="fill:#000000;fill-opacity:1;stroke:#000000;stroke-width:0"
         d="m 141.8217,76.662001 c 0,0 8.7975,-4.436994 9.57095,-2.665631 0.77345,1.771362 -9.57095,2.665631 -9.57095,2.665631 z"
         id="path2391" />
      <path
         sodipodi:nodetypes="csc"
         style="fill:#000000;fill-opacity:1;stroke:#000000;stroke-width:0"
         d="m 145.88985,87.255635 c 0,0 10.97832,-4.247836 10.82168,-0.975643 -0.15664,3.272192 -10.82168,0.975643 -10.82168,0.975643 z"
         id="path2393" />
      <path
         sodipodi:nodetypes="csc"
         style="fill:#000000;fill-opacity:1;stroke:#000000;stroke-width:0"
         d="m 150.5604,93.741156 c 0,0 34.47129,3.921454 33.83254,5.598614 -0.63875,1.67717 -33.83254,-5.598614 -33.83254,-5.598614 z"
         id="path2395" />
      <path
         sodipodi:nodetypes="csc"
         style="fill:#000000;fill-opacity:1;stroke:#000000;stroke-width:0"
         d="m 227.21141,129.51903 c 0,0 39.5427,9.57094 39.0941,11.98266 -0.4486,2.41172 -39.0941,-11.98266 -39.0941,-11.98266 z"
         id="path2397" />
      <path
         sodipodi:nodetypes="csc"
         style="fill:#000000;fill-opacity:1;stroke:#000000;stroke-width:0"
         d="m 141.0444,97.180385 c 0,0 6.22444,0.121994 5.24241,1.83128 -0.98204,1.709285 -5.24241,-1.83128 -5.24241,-1.83128 z"
         id="path2399" />
      <path
         sodipodi:nodetypes="csc"
         style="fill:#000000;fill-opacity:1;stroke:#000000;stroke-width:0"
         d="m 150.04467,69.346648 c 0,0 5.20547,-5.019413 6.39424,-2.548518 1.18876,2.470896 -6.39424,2.548518 -6.39424,2.548518 z"
         id="path2401" />
      <path
         sodipodi:nodetypes="csc"
         style="fill:#000000;fill-opacity:1;stroke:#000000;stroke-width:0"
         d="m 29.509272,52.137208 c 0,0 -8.665858,-1.217758 -7.701126,-3.062 0.964731,-1.844242 7.701126,3.062 7.701126,3.062 z"
         id="path2403" />
      <path
         sodipodi:nodetypes="csc"
         style="fill:#000000;fill-opacity:1;stroke:#000000;stroke-width:0"
         d="m 30.676318,58.257325 c 0,0 -4.181545,0.643083 -4.24866,-1.515218 -0.06712,-2.158302 4.24866,1.515218 4.24866,1.515218 z"
         id="path2405" />
      <path
         sodipodi:nodetypes="csc"
         style="fill:#000000;fill-opacity:1;stroke:#000000;stroke-width:0"
         d="m 63.643143,65.616438 c 0,0 -2.27761,1.502634 -1.83709,0.08224 0.44051,-1.420391 1.83709,-0.08224 1.83709,-0.08224 z"
         id="path2407" />
      <path
         sodipodi:nodetypes="csc"
         style="fill:#000000;fill-opacity:1;stroke:#000000;stroke-width:0"
         d="m 74.707523,52.87287 c 0,0 -3.39865,-0.215477 -3.1429,-1.559807 0.25574,-1.34433 3.1429,1.559807 3.1429,1.559807 z"
         id="path2409" />
    </g>
  </g>
</svg>
