<?xml version="1.0" encoding="UTF-8" standalone="no"?>
<svg
   xmlns:dc="http://purl.org/dc/elements/1.1/"
   xmlns:cc="http://creativecommons.org/ns#"
   xmlns:rdf="http://www.w3.org/1999/02/22-rdf-syntax-ns#"
   xmlns:svg="http://www.w3.org/2000/svg"
   xmlns="http://www.w3.org/2000/svg"
   xmlns:xlink="http://www.w3.org/1999/xlink"
   xmlns:sodipodi="http://sodipodi.sourceforge.net/DTD/sodipodi-0.dtd"
   xmlns:inkscape="http://www.inkscape.org/namespaces/inkscape"
   version="1.1"
   id="svg2370"
   width="532"
   height="1010"
   viewBox="0 0 532 1010"
   sodipodi:docname="calculus.svg"
   inkscape:version="1.0 (4035a4fb49, 2020-05-01)">
  <metadata
     id="metadata2376">
    <rdf:RDF>
      <cc:Work
         rdf:about="">
        <dc:format>image/svg+xml</dc:format>
        <dc:type
           rdf:resource="http://purl.org/dc/dcmitype/StillImage" />
        <dc:title />
      </cc:Work>
    </rdf:RDF>
  </metadata>
  <defs
     id="defs2374">
    <linearGradient
       id="linearGradient4623"
       inkscape:collect="always">
      <stop
         id="stop4619"
         offset="0"
         style="stop-color:#ff0000;stop-opacity:0.4614374" />
      <stop
         id="stop4621"
         offset="1"
         style="stop-color:#ff0000;stop-opacity:0" />
    </linearGradient>
    <radialGradient
       gradientUnits="userSpaceOnUse"
       gradientTransform="matrix(1.0028486,0.13333664,-0.1224253,0.92078241,22.083809,-23.081936)"
       r="34.368713"
       fy="186.98412"
       fx="282.23279"
       cy="186.98412"
       cx="282.23279"
       id="radialGradient4627"
       xlink:href="#linearGradient4623"
       inkscape:collect="always" />
  </defs>
  <sodipodi:namedview
     inkscape:document-rotation="0"
     pagecolor="#ffffff"
     bordercolor="#666666"
     borderopacity="1"
     objecttolerance="10"
     gridtolerance="10"
     guidetolerance="10"
     inkscape:pageopacity="0"
     inkscape:pageshadow="2"
     inkscape:window-width="1898"
     inkscape:window-height="1036"
     id="namedview2372"
     showgrid="false"
     inkscape:zoom="0.66035893"
     inkscape:cx="480.82039"
     inkscape:cy="533.97326"
     inkscape:window-x="10"
     inkscape:window-y="10"
     inkscape:window-maximized="0"
     inkscape:current-layer="g2378" />
  <g
     inkscape:groupmode="layer"
     id="layer4"
     inkscape:label="Image 1"
     style="opacity:1">
    <path
       style="fill:#368e7a;stroke-width:0;fill-opacity:1"
       d="m 205.4779,90.778421 -8.876,-34.350664 8.71789,-24.225213 14.5786,-13.827699 21.84711,-8.9730261 25.87514,-2.6624239 15.16091,0.4285245 16.37007,4.2572175 12.57895,12.538025 10.56743,27.113266 2.56266,10.745448 26.66163,-5.567695 9.44866,-7.261992 4.27263,1.360967 0.56934,5.319439 -4.00394,8.884158 -10.29321,5.223611 -21.58437,7.570778 -17.8138,2.683191 -16.4845,4.714413 -21.01673,7.661851 -25.42892,5.187348 -20.3545,4.522235 -26.39274,10.04752 c 0,0 -16.5776,5.04435 -17.2944,4.74569 -0.71681,-0.29867 -14.92631,-0.93467 -14.92631,-0.93467 l -10.83643,-4.49885 -0.52398,-3.25335 26.15476,-10.987083 z"
       id="path2385" />
    <path
       style="fill:#368e7a;stroke-width:0;fill-opacity:1"
       d="m 234.83176,417.36576 22.90658,-35.47197 20.17305,-27.98049 63.2712,-62.04656 35.44968,-38.68124 5.38278,-1.91347 3.229,1.41732 9.57117,21.51832 -7.09326,18.62311 6.46629,17.47533 22.53332,59.39247 11.14,17.60868 6.14193,32.58448 -2.74168,12.55467 -2.58797,6.43559 1.73284,17.38186 3.90617,4.42625 6.24571,51.27715 8.7782,99.2015 8.09233,18.00835 2.25224,28.83603 4.39438,10.31401 38.36166,85.26626 11.29549,36.74532 4.51579,40.84117 -24.94751,11.98663 -79.72821,35.95736 -31.66713,5.97529 -46.9314,1.73558 -73.81969,-9.67152 -48.31178,-12.1823 -80.77616,-25.16312 -41.839793,-12.07389 4.332376,-10.86553 36.887697,-69.84524 24.45531,-70.193 16.77384,-52.74755 17.52609,-40.45035 7.51414,26.30864 12.49652,18.53451 10.37688,1.36192 17.8462,-18.01467 0.63832,-18.01485 c 0,0 -12.88744,-25.10711 -14.15615,-31.11679 -1.26871,-6.00969 -9.76548,-14.73629 -9.76548,-14.73629 l -14.9415,11.32644 -3.05846,-4.94495 7.32853,-40.3516 c 0,0 -22.18012,-2.39188 -22.97231,-2.45866 -0.7922,-0.0668 -20.40808,-6.33656 -20.40808,-6.33656 l -20.98112,-20.74311 -15.52858,1.25403 -17.04154,-10.49771 -22.698381,-25.02929 -8.385987,-13.51009 3.31984,-24.8285 8.717605,-18.67852 14.863323,-2.03997 12.02426,20.01334 7.32862,-7.66103 0.26445,-28.46418 -0.55869,-14.53941 14.50806,-0.44068 35.73634,38.25919 3.30346,11.19811 14.93563,12.46415 13.66821,-10.28677 7.35196,-2.22867 6.26336,-15.34029 -3.44087,-25.46162 c 0,0 5.26854,-4.53273 5.93628,-5.3403 0.66773,-0.80757 6.60278,-4.18853 6.30979,-5.08003 -0.29299,-0.89149 -2.17513,-7.99412 -2.17513,-7.99412 l 15.24209,-32.58801 8.93455,-12.13025 0.80438,11.21292 c 0,0 -13.53242,31.32582 -13.93308,32.86162 -0.40065,1.5358 -1.9311,32.11305 -1.9311,32.11305 l 3.61327,25.06345 z"
       id="path2387" />
    <path
       style="fill:#fcbd8e;stroke-width:0;fill-opacity:1"
       d="m 264.72969,244.7997 -5.62013,-14.32369 -12.47995,-20.7468 -24.31904,-8.49882 -26.19815,-29.89999 8.83057,-26.87473 -9.02822,-30.25208 22.71432,-10.25169 58.66774,-13.344269 24.76653,-9.067134 27.86804,-4.189355 4.04946,7.806035 10.98182,34.766533 4.50806,5.49087 2.61674,10.18151 -3.84217,9.1842 4.61356,2.17775 4.25233,0.99176 2.47113,10.5642 c 0,0 -2.38638,10.47442 -2.67403,11.00618 -0.28766,0.53176 -29.96523,34.14129 -30.00398,36.46654 -0.0388,2.32525 4.51272,22.38103 4.51272,22.38103 l -12.5935,7.47417 -52.3348,13.24758 z"
       id="path2521" />
    <path
       style="fill:#fcbd8e;fill-opacity:1;stroke-width:0"
       d="m 246.96011,604.15254 -23.97569,14.65073 -2.39458,11.04406 -10.37688,-1.36192 -21.34908,-35.75054 6.05252,-19.52428 10.93107,-15.53932 14.166,-13.84525 16.39189,41.68744 z"
       id="path2524" />
    <path
       style="fill:#fcbd8e;fill-opacity:1;stroke-width:0"
       d="m 112.70374,413.93545 -24.200993,-20.76924 -7.520345,-1.71953 -12.255432,11.276 -12.728201,1.49654 c 0,0 -6.588762,-2.585 -8.384608,-2.48523 -1.795847,0.0998 -11.562247,-2.2741 -11.562247,-2.2741 l -5.869862,-3.07575 -15.028516,3.33027 -5.4204321,-0.96003 -3.28631,-3.22448 12.2381611,-11.69939 7.219801,-6.32841 2.892896,-6.11261 -0.399078,-8.33828 4.597916,-9.38767 c 0,0 10.1862,-12.4139 11.862996,-14.68602 1.676796,-2.27212 7.795685,-10.04486 7.795685,-10.04486 l 5.840086,-2.42967 c 0,0 23.238993,2.8473 24.567276,3.14248 1.328283,0.29517 13.531096,3.93789 14.908576,4.82342 1.37748,0.88552 11.010441,9.84081 10.758931,10.85607 -0.2515,1.01525 10.46189,15.74085 10.46189,15.74085 0,0 4.82118,9.59107 4.87037,10.329 0.0492,0.73794 -1.34335,32.08374 -1.34335,32.08374 l -4.3744,7.29885 z"
       id="path2526" />
    <path
       d="m 316.3206,187.8797 a 39.409618,39.409618 0 0 1 -39.40031,39.40962 39.409618,39.409618 0 0 1 -39.41892,-39.39099 39.409618,39.409618 0 0 1 39.38167,-39.42824 39.409618,39.409618 0 0 1 39.43754,39.37235 l -39.4096,0.0373 z"
       sodipodi:arc-type="slice"
       sodipodi:end="6.2822399"
       sodipodi:start="0"
       sodipodi:ry="39.409618"
       sodipodi:rx="39.409618"
       sodipodi:cy="187.8797"
       sodipodi:cx="276.91098"
       sodipodi:type="arc"
       style="fill:url(#radialGradient4627);fill-opacity:1;stroke-width:0"
       id="path2530" />
    <path
       style="fill:#ffffff;fill-opacity:0;stroke-width:0"
       d="m 237.35975,390.08317 -1.90082,-36.80801 14.34389,-36.55657 -2.4308,-20.36882 -4.47271,-49.20185 3.51045,-3.98514 12.97729,-8.3408 7.10169,14.26752 15.18536,-2.33137 30.1864,-9.26921 33.006,-15.42199 -0.74324,-7.749 1.87751,-4.90069 7.66786,-1.23874 7.41582,-0.35338 5.42765,9.2741 10.017,31.22216 -3.51896,11.42625 -78.39945,75.56041 -24.5568,31.46518 -19.86683,25.02715 z"
       id="path3093" />
    <path
       style="fill:#ffca00;fill-opacity:1;stroke-width:0"
       d="m 37.324081,546.17165 0.0192,-12.11142 10.795772,-5.77625 9.435303,5.86258 -0.256764,12.94152 -9.092334,6.16468 z"
       id="path3095" />
    <path
       style="fill:#ffffff;fill-opacity:1;stroke-width:0"
       d="m 239.60952,377.33881 -3.47328,-28.74405 15.87092,-39.53316 -5.11107,-30.42692 -3.99678,-31.48676 6.46252,-6.50888 10.02522,-5.81706 5.34264,9.97772 3.55687,-0.25678 13.38754,2.21521 30.1864,-9.26921 25.60837,-12.43341 8.5319,-15.63827 8.88496,-1.88307 6.75873,1.03769 c 0,0 1.44737,1.66806 1.6595,2.09233 0.21213,0.42427 1.07214,3.25999 1.07214,3.25999 l 12.153,34.3972 c 0,0 -2.53458,5.52035 -3.22693,6.59034 -0.69235,1.07 -16.67936,14.79111 -18.18994,16.3017 -1.51058,1.51059 -18.78516,15.42783 -19.85515,15.9943 -1.06999,0.56647 -8.74878,5.97939 -8.74878,5.97939 l -9.62996,13.59524 -27.84805,31.50788 -10.24068,13.40287 c 0,0 -3.83939,5.97939 -5.34997,7.61585 -1.51058,1.63646 -8.49703,10.00762 -8.49703,10.00762 l -8.49018,7.17074 -10.69996,8.18232 -3.71518,0.56879 z"
       id="path3097" />
  </g>
  <g
     inkscape:groupmode="layer"
     inkscape:label="Image"
     id="g2378"
     style="display:inline">
    <path
       style="fill:#000000"
       d="m 382.75,1001.9274 c -3.85367,-4.73218 -1.02228,-16.64181 5.31825,-22.3701 7.95093,-6.06851 16.35657,-1.24056 23.68915,-5.51979 14.02802,-9.61493 16.66414,-29.1403 26.10406,-34.69045 -0.0117,-10.06978 -7.65597,-4.13997 -12.55412,-7.53928 -2.09759,-14.02228 -10.68387,-39.75233 -21.47747,-47.26033 -60.34873,11.6981 -143.05617,-1.64239 -191.93899,-16.33215 -10.70215,12.61631 -20.14984,28.90765 -30.75865,53.03936 C 176.4888,931.81701 169.35982,943 165.78037,943 c -4.13668,1.61985 -6.52621,4.29279 -9.86605,7.31013 l 0.23399,10.67636 c 0.097,11.02647 -4.5092,26.91018 -15.40056,27.01351 -4.18259,0 -10.23668,-2.66915 -13.01005,-5.73592 -1.69175,-1.87073 -1.01283,-2.4329 1.46706,-6.08723 3.97457,-5.85684 2.29458,-6.17856 -5.78664,-10.45326 -9.14205,-4.83585 -29.143661,-3.67208 -36.21778,-7.13827 -8.398775,-6.83476 -35.023601,-41.43743 -30.579159,-54.04052 10.827284,-10.29426 20.345602,-2.90944 26.295208,5.77225 11.069627,14.74823 18.693451,25.11068 34.583611,26.88497 12.20636,1.30424 18.33985,1.03286 22.5,-0.99552 6.18187,-3.01411 5.33809,-5.02459 -5.94294,-14.16029 C 124.51104,914.31557 124,913.70883 124,910.10584 c 9.32777,-20.45231 35.04034,-41.13279 34.26465,-60.38043 -76.675869,-25.69427 -51.22906,-11.17967 -73.681339,-19.02422 -4.501266,-1.57269 1.363633,-7.52067 9.026081,-17.57794 C 123.1286,757.44115 141.30033,715.56504 157.47245,664.5 c 9.40204,-34.08919 21.35174,-64.35991 34.74522,-93.23968 1.33708,-2.84452 1.81997,-5.32213 1.42357,-7.30411 -0.59915,-2.99578 1.6129,-17.45909 5.26982,-34.45621 1.06499,-4.95 0.64752,-11.75997 0.22164,-12.20031 -25.35069,1.47016 -45.97453,-8.35291 -61.19528,-29.89611 C 124.18833,496.13622 106.24816,487.11862 99.726979,473 92.037848,457.03264 79.221162,455.90138 74.923883,441.37032 71.873996,430.91316 73.479491,418.99562 80.160373,402.5 c 3.074766,-7.59184 3.246322,-8.5 1.60569,-8.5 -0.80696,0 -3.417489,2.4441 -5.801176,5.43134 -4.750357,5.95316 -10.058885,8.96437 -15.446391,8.76184 -1.89196,-0.0711 -3.75943,0.38764 -4.149933,1.01949 -1.583403,36.29769 -2.015951,76.1148 -2.868563,114.94349 4.832259,0.965 8.256714,10.76808 8.267737,18.06673 0.03252,21.53488 -29.794514,18.37131 -28.419836,-2.81543 0.660447,-10.17891 8.665867,-15.61234 13.027192,-16.21723 2.983685,-32.57903 2.053171,-43.90872 3.699114,-117.07016 -0.682698,-1.10463 -1.514181,-1.12997 -4.520568,-0.13777 -5.679494,1.8744 -10.293312,0.57324 -12.753637,-3.5967 -1.473849,-2.49799 -2.526665,-3.30982 -3.682014,-2.83924 -9.637358,3.92539 -12.679779,4.52916 -16.915127,3.35679 C 6.5512499,401.33876 3,398.4564 3,395.43369 c 5.0046192,-9.47797 8.956958,-7.79134 15.286685,-14.67857 3.200606,-3.48251 8.004,-6.92233 6.376613,-10.335 -2.495102,-6.81401 2.894191,-14.49178 7.387582,-18.92012 8.602657,-8.59001 14.529418,-23.63988 23.902682,-26.98362 8.17322,-1.47113 42.602391,2.94678 46.045598,7.80131 C 112.5814,347.50771 118.39878,355 119.61082,355 c 8.38867,-2.7821 12.67378,-6.99811 17.55964,-1.31071 31.91931,37.15574 45.68395,51.47709 41.88104,54.37861 3.942,3.90803 16.76356,11.82786 20.03036,5.6821 1.69415,-3.30825 5.05728,-5.70247 8.0457,-5.72776 3.12205,-0.0264 4.44866,-1.46045 5.1086,-5.52224 2.60308,-8.17556 2.13689,-15.57334 0.52206,-20.69745 -4.97433,-15.71235 2.82468,-19.63541 10.54038,-21.94708 4.36957,-1.30916 -6.58175,-10.12406 -2.76002,-11.90727 3.47995,-1.43244 20.57433,-30.85794 26.83344,-51.59843 -1.45911,-8.5161 -7.62884,-48.27865 -6.88177,-51.19824 6.82329,-4.69549 12.71564,-7.90023 18.8968,-10.32955 -2.92688,-5.88999 -8.4536,-16.16528 -15.72053,-23.40301 -12.15916,-1.64203 -26.05418,-10.94555 -34.19856,-18.31089 -5.48389,-5.01192 -5.46796,0.26263 -5.46796,4.00717 0,2.76492 -8.1188,6.42672 -10.92238,4.92629 -2.74066,-1.46675 -2.71593,-1.47692 -7.19586,2.95846 -4.63578,4.58968 -8.14738,5.1521 -12.21093,1.95572 -2.42319,-1.90608 -2.80077,-1.93989 -5.5852,-0.5 -4.27402,2.21018 -7.52713,1.91178 -10.23067,-0.93844 -2.92931,-3.08824 -3.23887,-3.08898 -7.26607,-0.0173 -1.80272,1.375 -3.6852,2.48569 -4.18328,2.4682 -2.43591,-0.0855 -4.81553,-3.30064 -5.33748,-7.21143 -0.54552,-4.08734 -0.72734,-4.27807 -4.56813,-4.79183 -2.2,-0.29428 -4.5625,-0.88333 -5.25,-1.30901 -2.13165,-1.31985 -1.43674,-6.13187 1.25,-8.65593 1.375,-1.29175 2.5,-2.68313 2.5,-3.09196 0,-0.40883 -1.66299,-1.56789 -3.69554,-2.57568 -7.07324,-3.50713 -6.23612,-11.29434 1.49072,-13.86721 4.33217,-1.44252 4.64733,-1.98262 3.19825,-5.48101 -1.18476,-2.86026 -1.0728,-3.29186 1.56941,-6.04973 1.56485,-1.63335 4.45591,-3.68039 6.42458,-4.54896 2.67679,-1.181 4.20139,-2.87868 6.04599,-6.73234 1.39401,-2.91232 3.6349,-5.79219 5.15334,-6.6228 2.47108,-1.35172 3.02761,-1.27811 6.93318,0.91694 l 4.24643,2.38662 1.55668,-2.41693 C 170.42213,134.03677 174.7215,130 176.35498,130 c 0.82986,0 2.47012,1.35 3.64502,3 1.99874,2.80697 7,4.33649 7,2.14079 0,-0.47257 4.06992,-2.01961 6.34142,-4.60016 3.77015,-4.28312 4.35002,-1.01393 3.19836,-7.89079 -1.56531,-9.34681 -42.6655,5.02922 -41.23575,-14.37601 0.23903,-3.24426 13.99263,-7.56407 20.16475,-10.619212 10.41267,-5.203466 15.12438,-7.768326 26.03343,-9.231406 C 180.62145,40.156882 215.5486,11.072817 248,7.0086471 306.04812,1.44476 310.67589,9.3086746 326.19221,58.706791 c 3.78485,-0.169795 16.19646,-2.624974 20.93611,-4.307507 9.00228,-3.350032 11.45641,-6.72524 16.00825,-6.014223 11.9769,1.870844 1.71415,19.426538 -12.29895,24.072938 -14.96593,4.962335 -15.83247,4.311516 -18.9534,5.352676 6.35908,11.651864 10.20725,28.450015 12.82194,38.456205 7.70045,5.31009 10.63205,22.72443 6.08022,27.79429 2.94882,-0.19203 7.02085,-1.26377 9.81938,4.28058 2.11587,4.1919 2.549,14.46527 0.45987,19.24278 -1.67912,3.79593 -1.86711,5.3391 -1.07889,8.85629 1.45914,6.81057 -0.17434,13.96905 -3.60706,18.36696 -3.59647,4.59939 -11.29563,0.0847 -12.43115,1.83768 -1.09805,1.69511 2.29211,8.03849 3.88685,11.62755 6.02204,-1.03205 11.18232,-4.17429 16.61513,1.11561 5.16486,15.3133 9.34622,25.07858 14.21362,36.72994 1.41397,3.53387 1.88585,3.88141 5.27014,3.88141 6.13998,4.95437 8.54299,10.8912 12.91622,22.75208 1.97704,4.85253 -4.92447,22.61191 -4.97775,26.71503 11.98711,24.79111 16.20016,34.66139 24.00213,57.53292 1.42114,4.2426 3.8892,8.55869 7.10659,12.42782 14.24281,16.00135 15.95329,35.18513 16.00345,50.04386 0.0173,5.11293 -3.32832,17.33762 -5.40575,23.62253 7.3455,3.99813 16.40963,155.62089 21.77978,165.46016 11.29333,16.19852 9.42864,43.15896 6.46617,49.35937 25.07469,52.09065 51.72613,102.23214 60.16442,165.58626 1.30322,10.49447 -0.95468,13.71737 -10.49268,15.63778 -19.7833,7.22147 -44.26016,19.02167 -57.16233,25.57938 1.10728,7.34097 15.46083,27.79949 15.66548,34.15558 2.20857,5.31467 7.88459,9.33301 8,15.00617 0.18059,7.07959 -7.29139,5.64049 -14.40246,8.95341 4.98951,5.27672 16.73055,18.98338 18.95846,36.86192 0.66145,4.84334 0.51464,5.38701 -2.17331,8.04791 -5.67305,4.06728 -17.97791,9.62756 -20.71714,8.3954 -1.11413,-2.04022 -2.45921,-8.13609 -3.49501,-8.1337 -10.95436,9.06146 -22.02558,19.07788 -33.55652,29.07303 -9.25607,7.33102 -33.35863,12.47292 -39.86402,4.85052 z M 401.5,985 c -1.28176,-1.263 -2.64233,-1.15241 -3.5,0 1.27537,1.56425 2.94003,0.9049 3.5,0 z M 76.654923,921.54313 c -1.332982,-2.29259 -2.540785,-1.22779 -1.609082,0.54252 1.241301,2.31939 2.539362,1.88174 1.609086,-0.54252 z m 322.822647,-41.0185 c 28.10673,-5.46975 112.08806,-45.93151 115.12655,-52.66696 3.64563,-8.0813 2.62525,-57.33475 -59.35009,-167.82178 5.72686,-37.15616 -7.0146,-40.55461 -8.58661,-49.56274 -2.66076,-15.24713 -13.18428,-161.95302 -17.87693,-148.53626 -2.98345,8.52998 -6.74777,35.31721 -5.74984,44.05568 2.46882,21.37093 -2.65415,36.36429 -19.74078,57.77519 -14.19609,17.05157 -38.15104,24.68326 -56.29992,31.46732 -7.03517,2.63896 -9,4.37883 -9,7.96957 0,6.48279 -10.801,15.05093 -17.27633,17.89522 -18.485,8.11952 -28.80948,12.65433 -49.57663,12.90013 -8.20025,0 -14.30973,-4.26481 -24.94335,-17.41204 -6.02289,-2.55859 -12.90858,0.71951 -15.68979,6.15707 -4.0325,8.03611 -11.96485,12.9259 -17.65428,9.66876 -18.53358,-10.61031 -22.11413,-41.60805 -23.99569,-39.67892 -7.70512,16.35728 -19.00424,46.07436 -22.83844,63.76513 -18.36415,56.69522 -42.81275,123.289 -70.060526,163 -3.171281,3.65556 -3.234178,5.91142 -0.214035,7.6766 138.611501,42.70384 210.863791,68.38136 303.726691,53.34803 z M 226.59751,715.9989 c 6.38918,-17.37663 18.23282,-13.50417 18.38775,0.8162 -1.17513,18.68752 -24.81938,17.80093 -18.38775,-0.8162 z m 10.23537,4.13917 C 237.71613,711.19723 233.1,711.85045 233,719.76445 c -0.52099,4.3373 3.35771,3.2647 3.83288,0.37362 z m -69.14089,-6.16571 c -6.66194,-7.49529 -2.38984,-23.11023 6.51347,-23.77115 14.98262,-1.00713 5.1738,32.88995 -6.51347,23.77115 z M 173,700 c -1.52718,1.54496 -1.03562,3.6628 0,5 1.52718,-1.54496 1.03562,-3.6628 0,-5 z m 127.13987,-43.19307 c -0.34886,-3.11413 1.6121,-12.02205 4.16368,-11.77037 3.27362,0.32289 3.14923,3.10924 2.83928,12.27 l -0.35717,10.55645 c 28.75491,14.66368 66.1107,13.60765 92.30567,3.05558 2.51633,-2.18475 2.65334,-3.99542 1.65846,-21.91855 -0.23313,-4.19994 -0.0831,-4.5 2.25021,-4.5 3.79957,0 6.0825,7.41424 5.75351,18.68558 -0.23065,7.90223 -0.21416,10.31817 -5.83428,12.12343 -28.22509,9.06628 -61.61666,14.48576 -99.722,-1.995 -4.92392,-2.12963 -3.30274,-10.23642 -3.05736,-16.50712 z m -77.15545,-38.00366 c 2.92923,-4.10908 5.39729,-5.87035 9.05455,-8.62141 6.98902,-5.25726 4.97766,-11.37805 2.66576,-12.2667 -3.05621,-1.17475 -9.91456,5.98878 -11.92156,8.1275 -8.50948,12.05721 -12.19894,30.16752 0.20125,12.76061 z M 328.32154,608.23472 C 287.3879,561.98992 288.71002,538.93856 281.56568,511.51583 271.04094,512.55338 244.86551,528.82272 227,532.27329 l 0.007,3.61335 c 1.9869,27.3609 20.62125,69.94737 37.60301,89.64732 8.55967,9.2238 68.90394,-11.43312 63.71153,-17.29924 z m -117.31619,5.83218 c 5.77791,-11.08427 22.95197,-17.61564 18.97444,-27.56328 -2.07749,-5.05216 -3.41961,-3.90131 -6.5748,-0.37391 -7.75283,6.49892 -15.60901,15.72219 -17.40499,25.33836 -1.67612,10.31382 1.20878,9.81217 5.00535,2.59883 z m 5.59681,-27.56285 c 5.53796,-4.25657 7.94736,-8.06919 7.94736,-9.84909 -0.48725,-2.64757 -0.97166,-7.90519 -3.99489,-8.00755 -1.03956,0 -4.59999,2.29969 -8.58058,6.28719 -5.46998,4.89828 -15.40051,24.50367 -13.98332,29.73207 2.67891,6.72853 13.9297,-14.48834 18.61143,-18.16262 z m 116.92533,5.19291 c 12.81444,-5.28574 27.30039,-8.17629 39.8755,-15.0302 2.25336,-1.28326 5.84853,-3.33652 7.98928,-4.5628 9.78123,-5.60298 15.79798,-11.48113 25.35574,-24.7717 7.07957,-9.8445 8.67347,-16.20581 7.75899,-30.96623 -0.74111,-11.9622 -1.59232,-25.93527 1.48895,-35.5827 2.21215,-6.92619 7.34621,-28.08714 6.11687,-31.32054 -0.51461,-1.35354 -8.41663,-4.11752 -10.46349,-6.79906 -3.34324,-4.37988 -6.00251,-8.66924 -5.47358,-12.52817 0.85578,-6.24361 5.17855,-10.18708 8.84135,-8.83122 4.43255,1.6408 6.68634,3.71311 3.58124,11.26585 -0.60257,1.46567 3.50486,5.55944 5.00575,5.28123 3.28772,-0.6094 4.10827,-12.22533 4.05782,-20.23725 -0.12401,-19.69339 -2.47388,-36.73459 -18.84109,-48.34491 -17.44449,-10.86898 -44.53237,19.96385 -52.47953,31.57747 -1.98768,20.20752 3.61705,42.19611 2.35873,61.65327 -1.20836,13.34576 -13.91716,20.79739 -17.23732,31.81163 -6.15396,20.415 37.06253,2.46983 44.07577,6.91568 7.85264,4.97797 4.8654,22.66365 -1.82224,13.37405 -4.38998,-6.09799 -9.66264,-10.44327 -14.68922,-6.00885 -4.61047,4.06733 6.96993,14.52065 0.0973,20.84975 -11.10894,10.23038 -6.62246,-23.40409 -24.72635,-14.25167 -7.70791,3.89673 17.88033,22.19263 9.98647,27.30371 -6.4658,4.18644 -18.77505,-15.75184 -21.44796,-22.42622 -3.53322,-8.82259 -0.93971,-14.39246 -6.98705,-12.64131 -9.85956,2.53481 -20.81665,6.51556 -30.72743,10.61981 -6.54155,1.95986 14.42446,62.23192 35.30555,74.92623 0.56513,0.0149 1.91513,-0.55918 3,-1.27585 z M 198.04771,585.75 c 2.93364,-6.44528 5.40712,-9.57046 12.08869,-15.27375 5.62977,-3.05946 13.76835,-14.05746 4.75511,-14.62933 -3.81967,0 -15.45682,15.46569 -18.90284,26.11272 -1.13668,6.40333 -3.26421,15.36265 2.05904,3.79036 z m 14.69823,-42.10219 c 2.33527,-2.62202 4.50778,-5.97793 4.8278,-7.45756 1.64365,-7.59955 6.22639,-10.93762 17.7119,-12.90134 8.2431,-1.40935 17.61895,-4.98761 20.93724,-7.99061 3.54732,-5.80392 0.43958,-11.1694 2.84373,-17.9832 2.78552,-7.35179 9.02266,-9.5484 12.96228,-4.5651 2.89186,3.31877 0.45538,13.17578 2.40336,13.25 5.57546,-2.76862 11.3019,-2.17726 14.22581,1.61834 2.6739,3.50566 2.92039,3.60176 7.91552,3.08622 8.31134,-1.156 28.61688,-13.55793 33.91835,-9.71126 1.30479,1.08288 1.5095,0.66221 1.5187,-3.12086 2.83675,-14.87234 17.54113,-23.96729 17.43744,-40.30356 -0.12409,-19.55118 -3.69221,-38.03704 -3.94807,-57.19241 14.09883,-18.67301 30.15068,-40.14591 52.64524,-41.96554 3.6025,-0.23423 8.98012,3.99173 5.55706,-5.53022 -3.29985,-9.17922 -16.08162,-62.08157 -15.53292,-25.01194 0.18353,12.3991 -4.50622,1.57093 -16.5928,1.1335 -6.46432,-0.23395 -6.61738,1.67595 -2.73094,4.94371 3.07234,3.19973 2.92582,3.40136 5.15436,7.13063 -20.45493,25.24366 -53.55948,42.82421 -80.31481,57.76494 C 272.08415,416.32724 229.31267,435.5099 226.0096,467 c -0.0934,4.3626 -3.6552,10.76537 -6.93102,12.45936 -1.69322,0.8756 -3.07858,1.83679 -3.07858,2.13597 -5.45944,22.21375 -8.81782,46.59424 -14.34936,68.17072 -2.22429,8.57486 -1.76568,8.32197 11.0953,-6.11824 z m 4.38066,-32.99526 c -1.83028,-2.20536 -2.52569,-10.91328 -1.19381,-14.94892 C 217.17017,491.95436 223.99135,485 226.43145,485 c 1.99752,0 4.44865,2.67411 5.20184,5.67504 0.87599,3.49022 -0.28661,14.82702 -1.85811,18.11886 -1.11835,2.34264 -1.97423,2.74595 -6.37235,3.00277 -3.49922,0.20433 -5.45264,-0.15177 -6.27623,-1.14412 z M 225,500.5 c 0,-2.55315 -1.36488,-3.33666 -2.5296,-1.45211 C 221.63854,500.39387 222.6265,503 223.96862,503 224.53588,503 225,501.875 225,500.5 Z M 56.048997,541.24905 c -0.472856,-16.15064 -18.377098,-12.24299 -17.899561,-1.38497 0.668474,15.19947 18.307323,15.31228 17.899561,1.38497 z m -11.572595,-0.51301 c 0.551302,-3.47502 5.264337,-0.76159 3.551824,1.40809 -1.658382,1.99823 -3.551824,0.87218 -3.551824,-1.40809 z M 200.91886,508.50988 c 5.71863,-19.1496 1.09596,-40.6979 4.97724,-62.27935 -6.09294,-4.05203 -8.11357,-13.39268 -10.48898,-18.45982 -4.65168,1.17976 -1.05007,19.84029 -6.41976,22.23606 -3.0881,1.6527 -2.96624,-10.24173 -2.2833,-18.40011 0.68706,-8.20749 -2.12614,-6.78521 -5.58177,-11.17832 -2.3594,-2.99949 -2.6232,-2.91023 -4.9921,6.81551 -9.16487,37.6272 -17.01647,38.28601 -31.13019,56.86368 15.34669,26.66096 41.26167,26.84771 55.91886,24.40235 z m -64.29284,-30.00445 c 20.64372,-15.46897 25.86821,-30.56632 31.80668,-51.65934 2.48158,-10.89391 9.13031,-16.08009 -5.36127,-33.17676 -18.29198,-21.58023 -20.63113,-23.30552 -26.36077,-28.74843 -3.56847,-3.38989 -15.24891,-5.07696 -11.9032,1.35112 2.76292,6.4504 2.67161,14.35701 -0.77798,43.72379 -2.79153,15.82988 -8.75889,36.98101 -26.231392,31.47782 -20.88778,-10.02598 -13.606774,-27.99158 -6.703952,-40.76431 1.157155,-2.12823 0.367059,-3.82353 -1.45594,-3.12398 -1.14136,0.43798 -2.755068,4.54772 -6.832382,17.40048 -1.822721,5.74569 -1.253147,18.76007 1.094745,25.01418 6.943367,12.4456 17.639651,16.1688 22.942511,27.40619 8.60734,13.92064 15.9327,17.67876 29.78295,11.09924 z M 210.87868,474 c 4.58894,-17.25903 21.70485,-50.03891 14.03731,-64.33886 -3.43409,-6.34037 -5.65061,-8.62086 -6.34076,-6.52376 -0.45629,1.38648 -1.23214,6.75838 -2.14655,14.86262 -0.27926,2.475 -1.36269,9.45 -2.40762,15.5 -3.26492,18.90345 -4.08913,24.71455 -4.85781,34.25 -0.76863,9.53487 -0.23672,11.47282 1.71543,6.25 z M 295.5,390.0711 c 17.7357,-11.25624 67.63138,-44.72735 67.55607,-48.54413 -0.0654,-3.31439 -9.89166,-10.91045 -9.24906,-14.78906 3.90744,-8.28554 27.76342,2.07495 27.58171,-5.44677 -0.24713,-10.22969 0.0231,-15.60749 3.09333,-26.05553 3.82202,-13.00629 6.57003,-16.5688 1.35444,-28.66473 -3.27823,-7.60284 -5.60056,-10.20643 -7.99507,-5.13023 -27.93818,43.1561 -67.60195,65.11801 -101.34107,101.73235 -14.70931,17.94314 -45.54675,61.27509 -51.16755,84.06904 C 248.42717,425.95377 270.43878,405.9766 295.5,390.0711 Z M 208.40829,420.75 c 0.64388,-7.39151 0.57922,-7.75 -1.39797,-7.75 -4.79987,1.46484 -6.83483,5.40659 -5.81872,8.27798 1.59284,2.59164 2.69244,14.66259 5.25209,9.72202 0.70922,-1.375 1.59328,-5.9875 1.96459,-10.25 z m 21.20836,-57.44714 c -1.54105,0.57202 -8.81695,2.89807 -10.47846,3.34987 -1.2824,5.06633 4.77739,35.56975 15.05279,39.31566 -11.70141,-34.48468 -2.77126,-13.30072 -4.57433,-42.66553 z m -109.73429,7.93141 C 115.61717,357.65009 105.84528,345.25377 96,337.08908 c -9.966122,-3.13959 -28.908246,-10.02669 -40.403063,-7.70277 -8.820947,6.49814 -13.955372,17.55863 -21.241758,25.83848 -4.843042,5.45914 -5.06496,7.65778 -1.459685,14.46173 4.07963,7.69916 6.080461,14.63684 6.093682,21.12922 0.01288,6.32353 1.316664,9.18426 4.185765,9.18426 3.080202,0 4.757186,-2.8693 4.793256,-8.20121 0.03721,-5.50015 -2.286367,-15.10924 -4.453251,-18.41632 -2.921625,-4.45897 -1.954833,-8.1415 3.95489,-15.06428 6.29783,-7.67956 8.766843,-13.74377 17.530164,-13.47196 7.128954,0.2664 18.172457,2.40685 18.479693,3.58174 1.004403,4.6753 4.880589,11.19542 2.495537,14.95205 -5.293894,13.45957 -23.331367,17.3249 -26.887439,27.2642 -1.72113,6.23342 2.150519,12.36708 6.862305,10.87162 8.156177,-6.35096 15.532745,-16.71787 26.845624,-13.96883 7.21225,1.9473 12.06795,1.49199 15.85469,-1.48666 10.36202,-6.1949 0.50187,6.40778 -0.65041,9.07715 0,1.44485 6.94727,10.05471 8.48642,10.05471 5.28421,-1.19961 4.49624,-28.96991 3.39594,-33.95794 z M 29.607706,381.5 C 27.424599,378.23563 4.7553862,395.19854 11.619135,397.39501 22.82045,400.97954 34.741171,389.17599 29.607706,381.5 Z M 61,380.40383 c 2.475,-1.96722 4.5,-4.10036 4.5,-4.7403 C 58.056345,371.36118 54.058425,375.29727 54,381 c 0,3.91908 1.477582,3.79324 7,-0.59617 z m 181.93888,-16.0755 c -1.77884,-8.72713 4.21674,-14.31439 9.65897,-20.96842 C 260.20427,334.11212 264,324.89653 264,315.67678 c 0,-3.88011 -2.12688,-7.2258 -4.10978,-6.46489 -0.76945,0.29526 -5.0849,7.90588 -9.5899,16.91247 -8.49481,16.98323 -10.30752,22.93755 -10.29277,33.8093 0.008,6.09851 1.68362,17.79216 2.79278,19.49327 1.27353,1.95319 1.38167,-9.83206 0.13855,-15.0986 z m 19.45088,3.28618 c 6.46491,-8.06764 24.13092,-31.42287 27.3172,-36.11451 2.24116,-3.3 8.05216,-10.05 12.91334,-15 14.87306,-15.1448 18.13761,-19.59507 13.1297,-18.01245 -16.24949,5.13521 -25.26199,6.99011 -31.25,7.56737 -8.76714,0.84518 -10.5,2.2282 -10.5,7.25006 -2.54846,9.78639 -9.56993,23.63627 -14.82632,30.00584 -9.0843,4.53777 1.64147,26.21446 3.21608,24.30369 z m -16.0695,-52.74794 c -3.56302,-1.65289 -24.10619,40.90002 -16.93163,43.06695 4.20591,-12.49251 20.51906,-41.40273 16.93163,-43.06695 z m 20.80507,-15.92276 c 1.67097,-2.49966 -6.7089,-41.47385 -8.22799,-43.32552 -1.83274,-2.234 -11.08965,-3.05139 -13.12322,-0.3828 -1.00764,1.54778 3.10743,30.75647 6.83238,41.58461 1.47511,3.37387 12.91195,4.52748 14.51883,2.12371 z M 372.8443,247.54048 c 1.59398,-3.57256 -6.17935,-30.91975 -10.42502,-31.06166 -1.83185,0 -10.29949,7.06403 -13.88728,9.4694 3.13434,2.52362 -0.31607,3.53851 2.03789,6.1897 3.47425,3.91295 -1.83689,6.77564 1.49965,9.02431 1.41367,0.95275 -0.86431,5.90416 -0.4769,8.82459 0.54694,4.12302 0.39334,5.01318 -0.86503,5.01318 -0.84153,0 -2.45933,-1.575 -3.59511,-3.5 -1.13578,-1.925 -3.5141,-2.51906 -4.71728,-4.93358 -1.37079,-2.75087 -0.67674,-3.75075 -1.98185,-7.01169 -1.30797,-3.26811 -5.66301,-6.04111 -7.08647,-7.74553 -13.34338,12.76573 -66.5395,20.72625 -66.5395,20.72625 0,0 4.28963,48.54396 10.86993,47.70907 35.49002,-4.50286 82.62099,-28.92018 95.16697,-52.70404 z m -114.77856,-0.57566 c 2.20579,-1.18051 2.7617,-6.96482 0.66937,-6.96482 -2.36558,0 -13.78882,6.10408 -13.20153,7.05433 0.78672,1.27295 10.11081,1.20635 12.53216,-0.0895 z m 71.87546,-20.33075 c -1.86904,-2.67155 -2.71824,-3.02596 -4.80318,-8.43239 C 323.41211,213.72624 322,209.23601 322,208.22339 c 0,-1.01262 -0.63873,-2.71464 -1.41941,-3.78226 -1.39504,-1.90781 -1.46052,-1.90251 -3.81445,0.30887 -4.72062,4.43474 -8.77499,2.48257 -11.32755,-5.45422 -5.45742,-20.98717 1.65901,-20.42196 10.3206,-32.83609 2.61517,-4.00482 4.46007,-4.41979 5.75368,-1.22882 3.17984,7.84375 13.15457,7.13254 19.71627,6.38195 15.10697,-1.72808 18.85331,-7.79339 16.11674,-18.56926 -1.90397,-7.49731 -3.66603,-5.3282 -18.93459,-4.67589 C 325.60473,148.9148 320,149.99134 320,151.90405 c -3.23954,6.56167 -7.34607,9.64883 -11.76735,9.65645 -6.40391,0 -13.89178,-4.94106 -16.04271,-10.60599 -26.52849,4.25269 -60.02664,7.31116 -62.70897,6.02446 C 226.031,153.1668 218.7121,149 215.46606,149 c -7.09712,0 -16.21548,12.06389 -15.17045,20.07101 0.51331,3.93306 9.87539,17.83265 16.34517,24.26718 9.06712,7.41456 23.65623,15.1125 33.82392,14.60983 -4.18282,4.73444 6.21445,10.12181 17.82186,36.5949 19.26632,-3.48307 45.18285,-6.91782 61.65464,-17.90885 z m -59.59066,-28.35176 c -5.47826,-4.04047 -7.83257,-14.33928 -4.34108,-20.06589 3.60958,-5.92029 7.51859,-5.64399 4.66976,0.33006 -2.43279,5.10163 -2.13068,11.30656 0.82078,16.8575 4.99912,5.575 6.77556,8.7234 -1.14946,2.87833 z M 276.81213,182 c 2.3683,-2.90335 1.20526,4.4999 1.00514,7.38998 -0.32834,4.74208 5.36789,11.803 1.882,8.86478 C 273.20872,193.30147 274.2146,185.25379 276.81213,182 Z m -62.76658,-16.98925 c -3.26523,-0.77081 -3.60846,-2.50306 -0.87528,-4.41746 4.5242,-3.16887 8.74122,-1.10228 11.63889,5.70376 1.48294,3.48315 1.50018,3.25075 -0.38059,5.13152 -6.12919,3.75899 -5.41329,-5.07404 -10.38302,-6.41782 z m 141.77962,51.39915 c 9.27276,-5.90224 2.9205,-8.40659 -3.02785,-7.16897 -9.00781,1.87416 -3.65065,4.27873 -4.79732,7.34086 -2.95508,7.89139 4.87547,1.70563 7.82517,-0.17189 z m -42.39002,-62.33824 c 7.99225,-7.5108 2.65195,-7.33898 -2.59851,-5.66983 -4.63679,1.47405 -4.85679,-10.19518 -0.0993,-8.39803 7.70017,2.90877 9.22009,0.89369 1.82501,-9.12855 -8.41035,-9.91514 -17.12362,2.28518 -16.89077,11.75973 C 296,156 308.26248,158.93273 313.43515,154.07166 Z m -22.24842,-8.24992 c -0.32046,-7.50888 0.73114,-19.40878 12.35474,-22.64774 8.46288,-2.35822 15.41898,5.9591 17.47309,13.37801 1.18162,4.8476 0.76506,6.60255 4.67875,5.08802 3.29231,-1.27406 2.5825,-0.52394 1.43399,-6.15652 -1.96247,-9.62447 0.92197,-16.90648 8.6487,-18.55592 9.58926,-2.04704 6.6672,5.2205 -0.58096,-21.428955 -2.17927,-8.012561 -4.58456,-16.837002 -8.09896,-12.897288 -0.4408,0.494149 -3.57225,9.353706 -5.20335,9.221621 -2.28394,-0.184952 -0.029,-8.783328 -2.27881,-10.417627 -1.93353,-1.404559 -17.90516,1.595925 -20.36392,3.18584 -5.64722,4.233958 7.86703,13.060932 2.65437,13.408819 -4.40929,-1.625564 -8.92627,-5.6109 -13.44071,-4.580236 -6.6622,4.170912 -3.05735,31.861586 -7.95996,17.591386 -1.26441,-3.8068 -1.51362,-6.61763 -0.98814,-11.145251 0.64515,-5.558619 0.55042,-6.025481 -1.15642,-5.69932 -1.14451,0.218705 -2.42387,1.984709 -3.32831,4.594342 C 274.22279,101.09241 273.28252,103 272.94135,103 268.889,97.929748 267.37461,97.941179 262.70715,98.341617 242.54494,100.08675 230.25705,102.69951 216,108.27289 c -16.12863,6.30503 -17.09044,7.27208 -14.85206,14.93295 1.99695,6.83453 5.10582,7.6025 11.42392,2.82198 4.34713,-3.2892 7.53728,-3.80616 9.42814,-1.52782 0.74525,0.89797 2.93187,1.5 5.44813,1.5 3.12911,0 4.77227,0.6057 6.42993,2.3702 2.6076,2.77566 6.10333,13.5279 6.1143,18.80648 0.007,3.46554 0.44054,3.97289 4.00764,4.69213 11.68201,-0.70571 36.77525,-4.3743 47.18673,-6.04707 z m 54.94888,-2.78255 c 5.39922,-4.31896 3.14261,-7.47279 -1.69774,-5.14916 -5.12181,2.45875 -4.75588,-7.83369 -0.54279,-6.8207 4.91987,1.18293 6.78276,2.65012 3.09547,-6.063 -2.47345,-5.84481 -14.57618,-8.29135 -15.57544,4.57716 -0.35226,4.53643 3.11641,22.73808 14.7205,13.4557 z M 181.94438,114.20913 c 4.06851,-1.12744 15.67758,-3.37685 18.47302,-4.6821 C 233.78812,93.597315 259.97602,96.916886 292,82.801546 c 15.40605,-5.352728 77.39807,-10.560554 72.20603,-30.995517 -1.30164,-5.123022 -6.36927,4.74731 -16.3154,8.224648 -31.26701,10.365699 -60.33315,2.298327 -90.23865,19.602498 -28.4703,17.785599 -62.88214,14.313441 -89.97057,25.988265 -19.44633,8.38116 10.43902,9.61092 14.26297,8.58769 z M 217.41732,86.353505 C 228.26398,85.317722 240.99901,81.180731 255.5,73.982291 274.18068,64.709012 297.43889,61.901126 321.74608,59.903643 309.04406,3.3616926 286.78548,3.1939878 239.40783,12.605033 c -37.37095,7.423325 -46.37502,41.83493 -32.565,74.887928 4.45025,-0.361497 7.22902,-0.819986 10.5745,-1.139456 z"
       id="path2382"
       sodipodi:nodetypes="ccccccccccccsssccccssccscccssccccssssccssccsssscscccccsccsccsccccccssssssssssssssssssssscssssssscccccsscccscccsccccccccsccccccccccccccccccccsccscsscccsscccsccccccccccccccccccssccsssssccssccsccccscccccccccccccssssssssscscccsssssssscccsccccccsscccccscccsccssccccsccssssssssssssscscscscccsssccccssccccssccccssssscsssssscccsscccsscccccsccssssscccccccccccssssccsccssscsccsssscccsssscccscscsssssssccscscssscssssccssssccccssccccscscscccccssccssssscscsscscsssssssccccsssccsssssscccscsssscscsccscsscscsss" />
  </g>
</svg>
