<?xml version="1.0" encoding="UTF-8" standalone="no"?>
<svg
   xmlns:dc="http://purl.org/dc/elements/1.1/"
   xmlns:cc="http://creativecommons.org/ns#"
   xmlns:rdf="http://www.w3.org/1999/02/22-rdf-syntax-ns#"
   xmlns:svg="http://www.w3.org/2000/svg"
   xmlns="http://www.w3.org/2000/svg"
   xmlns:xlink="http://www.w3.org/1999/xlink"
   xmlns:sodipodi="http://sodipodi.sourceforge.net/DTD/sodipodi-0.dtd"
   xmlns:inkscape="http://www.inkscape.org/namespaces/inkscape"
   inkscape:export-ydpi="200"
   inkscape:export-xdpi="200"
   inkscape:export-filename="/home/lump/Dropbox/random shit/thompsonthompson.png"
   inkscape:version="1.0 (4035a4fb49, 2020-05-01)"
   sodipodi:docname="thompsonthompson.svg"
   viewBox="0 0 640 432.64001"
   height="432.64001"
   width="640"
   id="svg13592"
   version="1.1">
  <metadata
     id="metadata13598">
    <rdf:RDF>
      <cc:Work
         rdf:about="">
        <dc:format>image/svg+xml</dc:format>
        <dc:type
           rdf:resource="http://purl.org/dc/dcmitype/StillImage" />
        <dc:title></dc:title>
      </cc:Work>
    </rdf:RDF>
  </metadata>
  <defs
     id="defs13596">
    <linearGradient
       id="linearGradient14324"
       inkscape:collect="always">
      <stop
         id="stop14320"
         offset="0"
         style="stop-color:#bc002e;stop-opacity:0.43414566" />
      <stop
         id="stop14322"
         offset="1"
         style="stop-color:#bc002e;stop-opacity:0" />
    </linearGradient>
    <inkscape:perspective
       id="perspective14169"
       inkscape:persp3d-origin="320 : 144.21334 : 1"
       inkscape:vp_z="640 : 216.32001 : 1"
       inkscape:vp_y="0 : 1000 : 0"
       inkscape:vp_x="0 : 216.32001 : 1"
       sodipodi:type="inkscape:persp3d" />
    <radialGradient
       gradientUnits="userSpaceOnUse"
       gradientTransform="matrix(0.99950707,-0.0313946,0.03083935,0.98182951,-3.908998,7.059215)"
       r="28.642695"
       fy="133.49635"
       fx="149.32849"
       cy="133.49635"
       cx="149.32849"
       id="radialGradient14326"
       xlink:href="#linearGradient14324"
       inkscape:collect="always" />
    <radialGradient
       inkscape:collect="always"
       xlink:href="#linearGradient14324"
       id="radialGradient14326-2"
       cx="149.32849"
       cy="133.49635"
       fx="149.32849"
       fy="133.49635"
       r="28.642694"
       gradientTransform="matrix(0.99950707,-0.0313946,0.03083935,0.98182951,275.19874,-1.1377294)"
       gradientUnits="userSpaceOnUse" />
  </defs>
  <sodipodi:namedview
     inkscape:current-layer="g13600"
     inkscape:window-maximized="0"
     inkscape:window-y="10"
     inkscape:window-x="10"
     inkscape:cy="255.63846"
     inkscape:cx="-151.54785"
     inkscape:zoom="0.69881752"
     showguides="false"
     showgrid="false"
     id="namedview13594"
     inkscape:window-height="1036"
     inkscape:window-width="943"
     inkscape:pageshadow="2"
     inkscape:pageopacity="0"
     guidetolerance="10"
     gridtolerance="10"
     objecttolerance="10"
     borderopacity="1"
     bordercolor="#666666"
     pagecolor="#ffffff" />
  <g
     inkscape:label="Image 1"
     id="layer7"
     inkscape:groupmode="layer">
    <path
       id="path14267"
       d="m 121.2643,177.27971 c 0,0 -4.5866,-14.98847 -8.4254,-19.14169 -3.8388,-4.15322 -15.796728,-5.2252 -19.40469,-14.22957 -3.607963,-9.00437 -9.927438,-20.39805 -5.425898,-25.40192 4.50154,-5.00388 22.421098,-6.92477 22.367888,-14.14292 -0.0532,-7.218158 2.08685,-11.293046 4.51949,-13.680328 2.43265,-2.387283 46.86779,-27.026157 58.44475,-24.403238 11.57697,2.622919 34.87364,-1.365999 35.46933,-2.912174 0.59569,-1.546176 -0.9349,-12.702909 0.81831,-13.6507 1.75321,-0.94779 5.81295,-1.823061 6.22214,-1.843832 0.4092,-0.02077 14.47761,-3.654747 15.6823,-5.420244 1.20469,-1.765497 7.35349,-6.987744 10.84295,-5.36764 3.48945,1.620104 -2.17164,-6.094099 -4.19692,-9.915784 -2.02529,-3.821685 -3.51874,-8.677976 -1.54718,-11.452773 1.97157,-2.774797 6.23798,-2.989288 8.28994,-0.657526 2.05195,2.331762 15.44655,13.66483 17.22282,16.144168 1.77627,2.479337 8.98698,13.254491 8.98698,13.254491 0,0 20.64542,42.580598 22.30714,45.031414 1.66171,2.450817 2.11959,5.57689 2.45152,9.652368 0.33193,4.075478 2.2497,8.200988 3.56839,8.947148 1.31869,0.74616 14.7541,13.89586 13.89856,17.03174 -0.85553,3.13587 -16.8067,19.1723 -22.59749,18.4477 -5.7908,-0.72461 -8.30453,-7.60089 -12.03416,-12.98607 -3.72963,-5.38518 -7.94248,-8.88538 -13.98175,-8.62889 -6.03926,0.2565 -11.3685,2.09241 -15.82217,-2.01149 -4.45367,-4.1039 -11.9046,-20.168105 -14.63276,-23.619114 -2.72816,-3.451008 -18.77907,-18.805927 -24.22771,-19.785268 -5.44863,-0.979341 -9.82142,-0.737969 -9.96133,2.619769 -0.1399,3.357737 -1.92366,11.434554 0.70145,14.648048 2.6251,3.213494 8.93886,4.799194 10.1747,8.086975 1.23583,3.28779 6.52936,5.03841 5.55079,7.72992 -0.97858,2.6915 -5.88988,14.24342 -5.88988,14.24342 0,0 -1.86177,25.65187 -1.66537,29.06179 0.1964,3.40991 2.56249,7.04582 -0.94972,14.02437 -3.51221,6.97856 -11.085,15.51833 -12.80567,16.50338 -1.72067,0.98506 -21.95321,9.0815 -25.92446,8.48828 -3.97126,-0.59322 -22.71686,-4.37219 -25.93675,-5.14607 -3.21989,-0.77388 -22.09014,-9.51774 -22.09014,-9.51774 z"
       style="fill:#f3b860;stroke-width:0;fill-opacity:1" />
    <path
       id="path14269"
       d="m 394.6619,167.00382 c 0,0 -5.23506,-17.3756 -5.45189,-21.32627 -0.21684,-3.95067 0.29499,-2.17007 -5.33294,-6.74563 -5.62794,-4.57556 -15.04651,-10.58429 -14.77198,-17.75539 0.27453,-7.1711 0.0355,-19.75543 6.121,-22.043206 6.08549,-2.287778 18.26098,-18.870277 20.58088,-22.23794 2.31991,-3.367662 -6.56166,-4.574202 21.76604,-7.302642 28.3277,-2.72844 64.37556,-7.982775 68.90325,-14.053673 4.52768,-6.070898 6.56902,-8.834692 9.86847,-9.200738 3.29945,-0.366046 5.59876,-2.713314 9.62526,-5.321381 4.02649,-2.608068 9.15565,-3.787407 11.21464,-2.231717 2.059,1.55569 8.1341,3.470558 8.56323,1.393498 0.42914,-2.077059 -2.18604,-7.598156 -3.47411,-8.031436 -1.28807,-0.43328 -10.80328,-9.413639 -11.58113,-11.609904 -0.77785,-2.196264 -1.27205,-10.38223 2.21828,-9.141433 3.49032,1.240798 9.51118,6.535688 9.51118,6.535688 0,0 16.26383,12.104227 17.99379,13.351811 1.72996,1.247584 8.03763,13.97379 8.03763,13.97379 l 11.44271,26.496425 c 0,0 9.46625,20.710492 9.7853,23.178391 0.31905,2.4679 0.74153,6.656567 3.4411,10.500047 2.69957,3.84347 5.85628,8.82239 6.72564,13.44371 0.86936,4.62131 7.18364,13.1776 -3.93497,14.13847 -11.11861,0.96087 -22.21969,3.57764 -23.62878,2.04179 -1.40908,-1.53585 -2.31038,-11.95009 -6.5313,-15.16621 -4.22092,-3.21612 -7.09485,-2.71482 -12.20169,-4.67866 -5.10684,-1.96383 -9.82796,-2.94843 -12.1615,-9.2627 -2.33354,-6.314274 -5.71744,-16.233926 -11.9402,-18.979256 -6.22276,-2.74533 -13.30455,-5.473416 -16.3295,-8.480454 -3.02496,-3.007038 -1.06931,-10.144544 -6.97178,-9.732745 -5.90247,0.411799 -7.94939,8.163071 -10.23717,11.503231 -2.28778,3.34016 -10.22837,8.705412 -7.66561,11.739689 2.56276,3.034278 8.83283,1.968776 13.17961,3.112663 4.34678,1.143887 8.76628,6.607092 8.8578,8.162782 0.0915,1.55569 1.52534,7.74808 0.43981,9.80395 -1.08552,2.05588 -7.31262,20.49116 -7.03809,25.7988 0.27453,5.30764 1.41119,10.54707 1.0909,13.52118 -0.32029,2.97411 -7.00617,18.98015 -10.97057,20.30707 -3.9644,1.32691 -15.42538,8.20146 -18.30798,7.65238 -2.8826,-0.54907 -11.83065,-0.25751 -17.50133,0.42883 -5.67067,0.68634 -20.84666,-4.16375 -22.7684,-4.5298 -1.92173,-0.36605 -20.5656,-9.25301 -20.5656,-9.25301 z"
       style="fill:#f3b860;fill-opacity:1;stroke-width:0" />
    <path
       id="path14271"
       d="m 374.46661,415.69156 c -2.15572,-3.74759 -8.3354,-20.42538 -3.95563,-24.29464 4.37978,-3.86926 14.27719,-8.23535 16.46973,-6.47468 2.19254,1.76067 8.4408,-7.80639 13.39062,-15.31416 4.94981,-7.50778 11.94455,-24.22636 15.9819,-25.40782 4.03736,-1.18145 21.25149,0.18101 23.02078,1.47453 1.76929,1.29351 20.46338,8.27307 20.69592,8.93747 0.23253,0.66441 8.33998,16.37907 6.7454,19.10313 -1.59458,2.72405 -16.42071,42.50687 -25.21201,45.41474 -8.7913,2.90787 -12.47583,-9.11764 -14.66748,-9.74521 -2.19166,-0.62757 -8.93816,-3.48178 -10.31348,-3.64788 -1.37532,-0.1661 -6.12946,5.37644 -6.12946,5.37644 0,0 2.91984,9.29469 -7.81029,11.25468 -10.73014,1.95999 -27.63571,-2.77898 -27.72377,-3.22462 -0.0881,-0.44565 -0.49223,-3.45198 -0.49223,-3.45198 z"
       style="fill:#f3b860;fill-opacity:1;stroke-width:0" />
    <path
       id="path14273"
       d="m 101.83423,425.93694 c -2.701389,-12.17442 -5.037786,-32.24901 1.8303,-36.38151 6.8681,-4.13251 12.89003,-0.15403 17.98927,-5.49223 5.09925,-5.33819 10.25113,-34.66092 18.50938,-38.55704 8.25826,-3.89611 24.58937,0.34753 26.38967,3.8341 1.8003,3.48658 3.35973,6.36008 8.07425,7.34955 4.71452,0.98947 21.96321,4.78735 22.71986,11.93709 0.75665,7.14973 -3.14303,21.29334 -5.70402,29.61655 -2.56099,8.3232 -12.10751,26.99472 -14.14262,29.90289 -2.03511,2.90818 -20.17985,6.93152 -20.89037,5.01223 -0.71053,-1.9193 5.39869,-11.3556 -0.95651,-13.27633 -6.3552,-1.92074 -12.96236,-5.75848 -14.8789,-3.49226 -1.91653,2.26623 -1.16332,9.58131 -8.72987,12.25871 -7.56655,2.67739 -30.21044,-2.71175 -30.21044,-2.71175 z"
       style="fill:#f3b860;fill-opacity:1;stroke-width:0" />
    <path
       id="path14275"
       d="m 139.81256,416.58731 -12.99016,24.93729 22.52737,1.60252 7.69693,-24.98258 z"
       style="fill:#674c21;fill-opacity:1;stroke-width:0" />
    <path
       id="path14277"
       d="m 170.54747,354.48398 16.19095,7.77308 31.28564,-60.22822 c 0,0 18.50218,-19.48374 21.49117,-11.54792 2.989,7.93583 9.29546,5.27106 9.29546,5.27106 0,0 -3.01263,11.7137 -5.65198,15.52578 -2.63935,3.81209 -1.27657,11.80234 3.01827,14.01731 4.29484,2.21498 14.26483,1.05978 14.73411,-0.31661 0.46928,-1.37639 7.31111,-10.7854 6.79055,-19.2991 -0.52056,-8.51371 16.93539,-40.71325 -5.89563,-35.14709 -22.83101,5.56616 -52.45963,11.10548 -61.30944,16.60871 -8.84982,5.50324 -29.9491,67.343 -29.9491,67.343 z"
       style="fill:#674c21;fill-opacity:1;stroke-width:0" />
    <path
       id="path14279"
       d="m 414.24959,406.81165 -13.84206,27.93622 15.28861,-0.008 11.72322,-25.84265 z"
       style="fill:#674c21;fill-opacity:1;stroke-width:0" />
    <path
       id="path14281"
       d="m 442.48404,347.55056 13.33567,5.22065 c 0,0 25.86365,-48.58435 30.32151,-52.50793 4.45786,-3.92358 12.6345,-10.78534 15.84809,-10.8824 3.21358,-0.097 8.413,-0.0176 8.15318,5.46486 -0.25981,5.48243 -10.4577,12.07804 -6.63307,21.71601 3.82462,9.63797 8.87871,12.78099 12.45071,9.58866 3.572,-3.19234 9.49032,-12.53765 10.96254,-18.94616 1.47222,-6.40852 7.3232,-15.62619 1.77533,-20.9854 -5.54786,-5.35921 -8.08684,-20.81464 -25.29179,-16.11008 -17.20495,4.70456 -21.04739,3.41982 -28.14872,14.76463 -7.10134,11.34482 -18.23547,27.8493 -21.61293,36.94246 -3.37746,9.09317 -11.16052,25.7347 -11.16052,25.7347 z"
       style="fill:#674c21;fill-opacity:1;stroke-width:0" />
    <path
       sodipodi:nodetypes="ccsc"
       id="path14283"
       d="m 121.46094,90.88719 0.7635,75.44691 c 0,0 51.47561,10.11329 56.258,-31.43123 4.78239,-41.544521 -57.0215,-44.01568 -57.0215,-44.01568 z"
       style="fill:url(#radialGradient14326);fill-opacity:1;stroke-width:0" />
    <path
       style="fill:url(#radialGradient14326-2);fill-opacity:1;stroke-width:0"
       d="m 400.56868,82.690246 0.7635,75.446914 c 0,0 51.47561,10.11329 56.258,-31.43123 4.78239,-41.544525 -57.0215,-44.015684 -57.0215,-44.015684 z"
       id="path14283-8"
       sodipodi:nodetypes="ccsc" />
    <path
       id="path14355"
       d="m 121.2643,177.27971 c 0,0 25.46014,13.81591 39.78186,13.08269 14.32172,-0.73323 28.8818,-3.02064 28.8818,-3.02064 0,0 12.08127,4.57664 10.18089,16.70533 -1.90038,12.12869 -14.99873,67.5385 -18.58618,70.30303 -3.58745,2.76452 -16.78738,15.2282 -24.65922,4.9024 -7.87184,-10.32579 -42.93431,-91.53579 -35.59915,-101.97281 z"
       style="fill:#e7e2dd;fill-opacity:1;stroke-width:0" />
    <path
       id="path14357"
       d="m 398.86085,170.63937 c 0,0 31.36708,14.92346 42.57305,11.09023 11.20597,-3.83322 28.50529,-5.60843 30.39477,-5.55911 1.88947,0.0493 -3.38628,-13.24826 2.35538,10.82161 5.74165,24.06988 5.27247,53.43032 3.53986,58.45083 -1.73261,5.02051 -11.05367,23.99555 -11.05367,23.99555 0,0 -12.28871,22.39417 -20.40428,14.1855 -8.11558,-8.20867 -38.61704,-56.04127 -41.56534,-64.59143 -2.9483,-8.55016 -10.95142,-31.80364 -11.04525,-35.85477 -0.0938,-4.05112 -0.35677,-7.3163 -0.35677,-7.3163 z"
       style="fill:#e7e2dd;fill-opacity:1;stroke-width:0" />
  </g>
  <g
     id="g13600"
     inkscape:label="Image"
     inkscape:groupmode="layer">
    <path
       sodipodi:nodetypes="ccsssscccccccsccsccccccccssscccccccccsccccccccccccsssscccccccccccsccccccccccccccsssssscsscssssccscccscccccccssssssssccccccccssccssccccssccsccccccccccsssssssssccccccssscccccccccccccccccccccsssssccccccsssscccccccccccccccccccccccccccsssscccsssccssssccscsssccccccccscccsccccscccssssscccssssssscccccssccssssssscccccsssccccsssssssssssccssccccsccsssssssccssssssssssscccsccsssssssscccccssscccccsssccssssssccscssssccccccccccccccsccccssscccsccccccsssccccsccccccccccccccsccssssssssssscccccccssccccccccsscccccc"
       id="path14167"
       d="m 6.7339174,410.24001 c -1.9273872,-17.19033 4.3236056,-45.82224 12.5805786,-60.79779 1.71782,-2.61719 1.876629,-4.68413 0.651706,-8.48221 -1.260377,-3.908 -0.375476,-8.85136 1.881808,-10.51242 2.045741,-1.50541 2.257386,-2.98729 0.85118,-5.95977 -2.763378,-5.84133 -2.343602,-10.72089 1.129146,-13.12546 2.989239,-2.06978 2.867966,-1.67485 3.079124,-10.02729 -0.206554,-24.69806 4.950632,-35.99016 14.934668,-56.84146 4.550888,-30.80926 55.893579,-30.09999 67.322332,-52.53886 3.5965,-4.3226 5.09274,-8.36641 7.89197,-12.8603 1.87652,-3.95406 -3.41159,-5.96973 -3.45887,-9.30177 -0.0111,-5.93694 -4.96257,-13.76381 -9.54385,-15.086 -8.684678,-3.10616 -18.054229,-15.86303 -19.714966,-22.22327 -2.969288,-12.20433 12.002899,-23.21731 -3.597586,-14.71319 -8.214128,4.47768 -29.466113,-0.0326 -19.480681,-12.46685 3.975235,-5.658362 9.864625,-9.764619 15.764544,-13.2478 4.420493,-2.005971 4.699254,-3.835661 2.177997,-14.295568 C 77.705427,71.546978 77.540758,62.600257 78.845574,58.339761 86.06188,39.436674 106.44158,24.999198 124.64,21.163625 c 15.66866,-3.606226 36.50608,-6.039459 49.39431,3.435026 11.3844,6.880651 10.45137,25.739225 18.02945,33.95207 5.74669,1.38341 14.55087,0.72732 14.15668,-4.91 1.00702,-11.528547 10.04687,-1.757815 29.77956,-16.200029 1.71041,-1.630587 4.43853,-3.169862 1.26088,-5.593582 -3.55091,-4.259526 -4.45328,-12.744418 -2.09527,-17.702852 2.89292,-5.40547 8.61484,-3.627949 13.61801,1.596899 3.88505,4.057192 4.04891,5.111645 9.09854,9.849968 2.60359,2.44308 5.707,4.171506 7.25309,7.35262 1.4133,2.907881 2.76278,4.757965 5.93918,8.14239 8.73058,17.430038 10.20958,19.914123 23.34316,42.538292 3.10086,5.655693 2.91887,14.300617 4.11622,18.558333 2.79997,4.41135 9.72798,14.04771 9.72798,14.04771 0,0 19.87216,-5.79789 25.10026,-2.42959 2.57542,1.96437 5.65107,6.56075 6.79917,10.16095 9.26276,18.89609 19.55096,40.52544 25.79433,59.37781 1.26707,3.84878 2.40122,5.61062 3.44349,5.34935 11.52347,-2.23639 12.95988,-10.09897 18.59744,-16.39952 4.47251,-3.06952 4.84256,-4.00834 3.60995,-9.15872 -2.06848,-8.64299 -3.57656,-13.83849 -6.43263,-19.25805 -8.47866,-4.36815 -8.58198,-5.48898 -15.1249,-13.26232 -4.59847,-8.33026 -4.60792,-13.60024 -3.08986,-21.70848 -21.06147,1.81369 -38.20501,-3.194 -21.64422,-19.168052 2.76406,-2.511808 15.92793,-10.563563 19.60982,-11.887902 0.002,-14.558597 -4.45012,-28.891309 3.13834,-40.335485 12.40914,-21.994524 25.12054,-22.220094 47.61702,-28.3964851 19.97317,-3.800887 38.46068,0.091181 50.66938,13.9803511 3.41837,7.674059 7.61152,16.864107 8.36796,25.865674 0.48048,6.074477 1.09668,7.348816 2.85972,5.914151 5.99508,-3.785174 10.51802,-10.451543 18.26294,-10.550509 10.06978,-0.940668 12.90807,-14.231054 24.28464,-6.776733 1.2759,0.874489 2.87062,1.123222 3.25142,0.507116 0.33584,-0.54343 -1.5184,-2.612793 -3.13084,-3.494025 -3.07709,-1.681693 -3.65581,-2.055946 -5.36522,-3.469621 -6.38928,-5.283901 -7.59715,-8.281551 -6.51581,-16.170882 0.97962,-7.1469097 9.98717,-6.691708 15.63581,0.790163 5.98505,7.408286 14.35284,9.302696 20.03843,15.49034 3.4211,5.374225 5.10933,11.168492 8.39107,16.604656 4.53816,14.762063 12.49915,28.805611 18.46311,41.378775 1.81536,3.859997 2.04893,4.927188 2.05865,9.406833 0.009,4.030265 0.009,4.030265 1.30279,5.919995 3.05633,5.32511 6.27713,10.27736 6.52136,10.66469 3.62248,-1.34835 15.90536,0.10944 17.91185,1.70505 21.38177,29.62746 36.14226,81.25077 36.91568,112.08001 -7.40149,38.09666 -70.40789,21.63324 -83.40557,42.94552 1.2636,53.58041 -0.13314,112.24384 2.5184,161.99429 0.26477,4.88 -0.9484,0.83239 -127.71697,0.83239 -91.40996,0 -126.19176,-0.9337 -126.19176,-1.18571 -4.88575,-6.15937 -11.11659,-14.01879 -13.02216,-22.43478 -0.28251,-1.27145 -0.80321,-2.88771 -1.15713,-3.59171 -0.44686,-5.35359 -3.24536,-15.10384 -0.69313,-20 3.59544,-12.52733 4.48449,-29.84907 9.99678,-42.70567 2.76057,-5.01276 -1.59577,-11.04202 -0.12644,-14.84176 1.36763,-3.50727 1.87132,-8.00327 4.21661,-10.61257 0.73094,-0.792 1.4957,-1.75939 1.69946,-2.14975 -1.79043,-9.4442 3.43771,-54.97679 1.50567,-54.50887 -7.46061,0.96597 -15.24668,4.29702 -22.47191,4.80856 -5.2016,0.35699 -5.68987,1.00486 -4.94296,6.55868 5.42477,57.35773 3.73297,102.32451 3.27726,159.71162 -47.07872,56.28887 -158.17316,42.23015 -261.482563,0.36244 -2.946562,-8.1951 -8.7062028,-15.34465 -10.8726096,-23.90268 z M 163.3652,425.97099 c 0,-1.40225 -1.18177,-2.74608 -2.68182,-2.3538 -0.83306,0.21786 -0.91335,1.5472 -0.14474,2.39652 0.73845,0.81596 2.82656,0.82927 2.82656,-0.0427 z m -29.57354,-3.9873 c 4.05426,-2.88495 3.81582,-10.15325 5.94437,-10.51865 1.47591,-0.15933 2.96583,-0.17319 4.03938,0.20328 0.0307,0.0108 14.14143,4.98449 13.81825,5.72652 -0.44065,1.01176 0.052,7.79232 -2.00587,6.35106 -4.46329,-3.12593 -13.65184,-5.13928 -14.15244,-4.06011 -6.13036,13.21571 -18.9722,37.63941 -18.9722,37.63941 0.71197,3.07203 11.30346,0.21787 14.18228,-0.85513 1.92123,-0.71608 18.54942,-40.49494 18.81273,-40.35414 0.80015,0.42785 5.39057,1.47031 5.7968,1.76837 2.22433,1.5172 7.44064,3.01209 7.95108,5.33174 0.39768,1.91408 1.13567,1.66359 3.99396,-1.35577 3.47821,-3.67418 1.11291,-5.76906 -3.8654,-8.08327 -4.26092,-2.99177 -17.08753,-7.37736 -18.98307,-10.80045 -1.1242,-6.30606 22.64771,5.34424 26.35683,6.79332 4.27464,1.69036 7.29164,0.29744 7.29164,-3.36647 0,-2.97609 -4.72512,-7.94342 -8.07263,-8.48646 -4.22037,-2.41968 -20.91595,-7.25088 -22.00737,-11.74832 4.80099,-5.2889 26.94749,11.54694 31.80977,8.35069 2.44726,-3.44794 3.48144,-6.5433 2.78368,-8.33175 -3.00756,-5.76498 -29.61872,-11.62482 -30.43345,-19.53613 3.44834,-5.25531 25.62261,12.79066 32.97125,9.89224 2.98863,-3.2816 -5.02995,-11.34611 -8.8946,-13.25972 1.82665,-5.82517 25.2327,-52.66596 26.28474,-55.26202 0.16193,-0.3996 16.11904,-25.06602 34.67352,-21.0129 18.6337,4.07043 3.17432,30.95384 3.54506,31.68674 1.03275,2.04162 6.70977,3.24212 8.57512,3.02898 6.79583,-0.77652 14.94674,-34.72426 -5.02573,-40.26009 -21.47147,-5.95131 -36.10305,-1.41842 -48.31814,22.94764 -3.30533,6.59332 -29.20472,49.46164 -28.54588,49.55932 4.32311,0.64093 11.58298,4.96871 12.86339,6.29371 4.23531,4.38281 -3.11862,3.54248 -3.3602,3.4163 -5.71758,-2.98626 -22.26405,-12.02887 -24.92515,-13.53822 -2.14009,-1.22089 -6.88598,-1.70155 -9.65791,-1.19086 -7.20829,5.38996 -14.04077,21.73382 -17.34412,30.21613 -1.61348,9.57165 -17.50455,10.59631 -19.38264,13.28685 -5.07685,6.57236 -10.21823,27.39787 -2.77011,30.26525 1.23611,0.27865 6.63549,-0.26375 7.9048,-0.79411 7.22572,-0.97151 11.53467,6.02153 17.11826,0.057 z M 403.2,417.97579 c 0.968,-0.48199 2.04576,-1.31229 2.39504,-1.84512 3.74046,-2.8121 5.41172,-8.23536 8.53077,-11.73918 1.13217,-0.35817 11.03185,1.82943 12.26587,2.43854 0,0 0.10982,3.97797 -1.29015,3.43614 -3.13478,-1.21327 -9.7163,-2.06369 -9.7163,-2.06369 l -13.77306,27.25861 8.15234,2.99419 c 0,0 15.44342,-31.9771 16.18582,-31.78563 2.90877,0.73648 10.10625,4.35314 10.85956,5.82978 1.20611,2.36419 3.12633,2.49299 4.47011,0.29981 0.44,-0.71811 1.13603,-1.52691 1.54672,-1.79731 5.30517,-5.84916 -13.03039,-13.11699 -19.78672,-16.41488 -3.74858,-1.82173 -6.49584,-3.73936 -6.6727,-4.6577 -0.47898,-2.48723 6.07228,-1.47046 13.2327,2.05373 5.56133,3.01111 9.42456,5.73201 15.39149,7.51973 6.83482,0.24295 8.20294,-9.09943 2.37081,-11.66181 -4.53265,-2.3399 -25.74573,-12.12207 -24.65705,-15.48221 0.36685,-0.96483 1.42816,-1.11379 2.83065,-0.39728 8.06502,1.65652 19.89045,11.21232 26.1881,10.98173 4.50675,-0.46474 8.13514,-4.77575 6.17408,-7.33571 -8.56398,-8.06505 -34.33931,-16.08225 -30.36778,-20.84801 1.82398,-2.00054 29.52925,15.10865 34.02653,11.93729 3.29802,-2.59421 -2.68693,-10.54543 -9.18513,-13.13275 -0.53458,-0.23837 28.52452,-51.40383 30.33144,-53.86471 0.45814,-0.62395 14.38266,-19.16736 24.65233,-14.639 21.29595,9.39033 -5.31661,32.98066 3.81915,36.88954 7.71347,3.30034 26.60295,-32.73462 1.93969,-45.20842 -1.37881,-0.69735 -17.52539,-11.59739 -38.09121,18.35804 -0.57599,0.83896 -22.70239,41.1419 -29.31727,51.96598 -0.0876,0.14332 6.89622,2.46943 8.42176,3.59307 0.52238,0.38476 0.4008,4.01014 -1.85605,2.85549 -2.64518,-1.35332 -8.39163,-3.44792 -8.45531,-3.47588 -10.6209,-4.66426 -22.76021,-8.24022 -28.42679,0.63265 -6.70831,11.01663 -13.12624,23.1131 -18.75216,32.75191 -2.95379,4.5326 -8.85227,5.3561 -14.00304,4.51052 -2.47555,-0.42653 -5.99424,1.657 -5.99424,3.54935 -1.41617,3.76894 -3.75147,7.94865 -3.39043,12.03747 0.68192,6.79968 2.0726,15.28204 8.69193,13.49581 3.21674,-0.9464 4.4697,-0.88343 9.10861,0.45766 6.84429,1.97863 9.00541,2.06797 12.14989,0.50231 z m 49.86688,-142.85578 c 0.19251,-0.748 0.43526,-3.592 0.53939,-6.32 0.72774,-8.90968 1.30015,-15.95699 -0.37501,-24.26931 -3.27964,-7.88727 -6.70037,-10.92513 -6.41385,-17.50912 0.86343,-8.91676 2.93214,-13.99703 -1.29328,-20.83982 -1.53367,-3.12201 -2.91982,-6.18792 -4.86317,-2.46086 -7.7921,8.48854 -22.89341,1.61854 -30.17936,-3.8009 -5.25082,-4.0037 -8.10547,-3.00589 -5.51946,1.92926 4.16884,6.63636 6.6692,14.71002 12.2448,20.41239 6.19243,8.40191 11.80127,16.61225 16.59111,25.57836 6.03475,9.18366 17.98114,30.2403 19.26883,27.28 z m -284.92282,-1.62878 c 1.02058,-0.74626 0.51216,-9.35543 -0.71653,-12.13308 -2.66636,-9.29951 -7.6338,-20.31969 -4.41034,-29.67814 1.30928,-4.93799 4.42061,-13.36336 0.36415,-18.21642 -1.66887,-2.98545 -1.94041,-7.30764 -4.12475,-9.85578 -12.01257,16.12951 -18.36073,4.01081 -28.7354,3.023 0.14167,5.84061 8.23605,22.04909 10.96495,26.13397 3.94231,3.59854 22.75257,43.51316 26.65792,40.72645 z m 11.65331,-6.7897 c 0.82452,-3.15506 16.66265,-55.67539 10.9007,-62.16329 -1.74169,-1.17963 0.65252,-1.88407 -3.30415,1.85799 -4.7176,4.46171 -13.33324,5.62873 -15.3218,2.07538 -0.4429,-0.79143 -2.18948,-2.71161 -2.46645,-2.71161 -1.31523,0 -1.24431,7.97282 0.10389,11.68001 1.1669,3.20863 1.60121,7.1597 1.47738,13.44 -0.26974,13.68008 -0.27966,13.57468 1.74877,18.57369 2.02388,2.87296 3.46514,22.94883 6.86166,17.24783 z m 286.56538,-8.71527 c 6.57375,-11.41938 4.7278,-32.73574 8.68163,-40.06625 -1.54654,8.96193 -2.19121,-33.02736 -3.75241,-27.0239 -6.04572,6.14584 -6.97747,13.25753 -16.60336,12.8497 -3.49907,-0.19353 -4.29527,1.61907 -2.4496,5.57673 1.74243,3.73625 2.61577,9.29779 2.00336,12.75747 -1.14951,6.4938 0.0577,10.52949 3.84544,12.85554 3.15625,1.93824 6.01389,8.90767 5.87616,14.33126 -0.18874,7.43122 1.22473,12.56905 2.39878,8.71945 z M 150.64476,206.99897 c 4.50268,-1.1383 10.20631,-15.87691 5.07912,-15.43536 -8.31462,0.4925 -28.49613,-8.98683 -31.35733,-7.79786 -0.87874,1.04802 -0.61165,6.44819 0.43048,8.70373 3.39082,7.43802 12.0103,10.55357 17.91056,13.92169 2.109,1.50174 5.54675,1.76499 7.93717,0.6078 z m 39.62061,-14.29021 c -3.14844,-5.08324 -9.8264,-0.47114 -14.69395,-0.10208 -4.82475,0.34865 -4.81662,0.33327 -2.97833,5.63332 6.08219,13.99225 16.11424,3.32306 17.67228,-5.53124 z m 244.87643,9.44615 c 1.2136,-0.64949 2.93794,-1.83888 2.94198,-3.24292 0.003,-0.72159 1.41249,-12.37959 1.84439,-14.11496 -4.36295,-3.67873 -23.41693,-3.86085 -37.04817,-10.68794 -4.68269,-2.40356 -5.68563,-1.97117 -4.68333,2.01905 1.64924,8.78163 3.15103,14.22696 9.65058,17.63695 7.86372,2.91229 19.51664,11.88431 27.29455,8.38982 z m 29.5054,-8.46401 c 5.35299,-7.27892 3.80726,-15.78237 -2.30678,-12.6903 -1.82296,1.23875 -13.55872,0.90787 -13.70042,3.77848 1.08251,3.16207 1.84099,12.36847 5.68723,13.60803 5.30395,1.68748 7.7734,-0.83031 10.31997,-4.69621 z m -166.67204,0.84301 c -5.36442,-9.87966 -3.9604,-21.41547 -8.65725,-31.2028 -2.51577,-5.37629 -5.63341,-10.71908 -9.44436,-15.05992 -4.01266,-4.49667 -4.70973,-6.98911 -2.93545,-10.49592 1.15814,-2.28901 1.37375,-4.20848 0.59892,-5.33189 -4.48729,-6.50614 -5.64614,-7.04725 -14.90759,-6.96085 -8.36365,0.078 -9.99812,-0.32715 -14.95264,-3.70662 -3.68533,-2.51376 -4.57213,-3.41688 -5.78796,-5.89453 -0.57255,-1.16676 -1.57717,-2.91338 -2.23248,-3.88138 -9.92097,-26.015753 -18.22376,-23.711788 -29.29184,-32.474606 -5.48232,-2.589714 -6.43762,1.736635 -7.81192,5.114608 -0.66426,0.849763 -0.4323,1.674442 0.7672,2.727619 1.23641,1.085591 1.23641,1.085591 1.0297,3.366739 -0.23981,2.646381 0.32612,3.559447 2.63494,4.251185 1.70839,0.511846 5.66148,3.191235 7.47319,5.065295 5.28159,8.35162 4.39421,17.46756 0.82238,22.8118 -1.73604,2.60099 -1.97916,4.14732 -0.87315,5.55339 1.1087,1.40948 1.62853,3.44423 1.89665,7.42397 0.27252,4.04501 1.03007,6.59881 2.71088,9.13868 2.7619,4.17352 1.80902,10.22132 -1.61045,10.22132 -1.21565,0 -3.96393,2.88034 -3.96393,4.15441 -1.76185,5.89544 -4.17291,15.22997 -7.9689,17.93686 -5.59259,3.44116 0.0706,5.07156 12.68775,7.98011 13.22532,3.04875 33.97001,0.41294 43.12115,3.46083 5.32931,1.78117 5.73589,1.98391 8.74962,4.36301 3.29058,2.59767 3.80363,2.74443 6.28564,1.79806 6.659,-2.53902 9.48598,-2.75992 14.08803,-1.10081 6.10858,2.20223 7.7921,2.36708 7.57187,0.74144 z M 555.84,192.5364 c 5.90598,0.18926 6.91555,-0.57158 5.2784,-3.9779 -1.40685,-14.35598 -5.0852,-23.96236 -11.33171,-36.8785 -3.14113,-5.85599 -10.84783,-16.58636 -4.50669,-22.88 3.58768,-3.50327 -0.59414,-10.33577 -6.21491,-10.15424 -14.30365,0.86528 -20.61775,-11.09508 -24.14515,-20.595547 -5.0901,-8.623765 -14.81874,-15.115365 -24.03015,-19.057082 -1.78,-0.5832 -2.57869,-1.242448 -3.108,-2.565312 -0.78579,-1.963836 -2.14323,-1.471516 -2.96,1.073524 -1.8502,2.03944 -3.53315,2.235551 -6.27651,3.458659 -2.39458,2.259655 -3.81677,5.558886 -5.74528,7.928829 -2.70365,3.309546 -1.36121,2.869938 3.35315,2.634289 8.91685,-0.445711 14.05951,5.765126 16.16971,12.50038 2.03176,6.71391 0.31295,11.22237 -3.00515,15.91307 -0.21916,7.82822 5.40031,21.71577 3.81836,24.70343 -1.32896,3.72133 -5.52496,4.34914 -5.52496,4.34914 0,0 -1.38365,9.26422 -7.8484,18.91565 -2.24895,3.35753 -2.36107,3.99854 1.22651,5.74787 19.884,12.30554 40.07895,7.48126 59.52256,14.80684 7.83957,4.66327 9.55498,3.91897 15.32822,4.0769 z m -377.12,-5.06205 c 4.42082,-1.65292 5.11217,-2.61241 2.2689,-3.14889 -4.22963,-0.79808 -6.45922,-3.18169 -6.39125,-6.83278 0.0668,-3.58561 1.40027,-3.87708 3.79465,-0.82942 2.92051,3.71734 7.02695,3.68966 11.06374,-0.0746 2.34045,-2.18245 3.19116,-1.27279 1.23918,1.32505 -1.02807,1.20542 -5.37394,4.74753 -3.39211,4.90597 15.91773,-2.46534 25.02511,-23.09238 15.2381,-24.4197 -0.6324,0 -1.09103,0.25117 -1.44496,0.79134 -0.76313,1.16468 -2.3522,1.35697 -4.35061,0.52647 -2.11554,-0.87918 -2.15598,-0.87452 -3.88781,0.44783 -2.04289,1.55986 -3.01714,1.69616 -4.77222,0.66762 -2.10367,-1.23283 -3.27598,-1.12725 -4.0719,0.36674 -1.79952,3.37782 -3.70066,4.06096 -6.42904,2.31016 -1.8853,-1.20979 -2.47847,-1.00796 -4.48873,1.52734 -6.31592,7.96549 -9.95821,2.23088 -5.7401,-9.0375 2.56111,-6.64621 -1.82758,-16.09541 2.04121,-22.96014 1.56562,-4.48253 7.84449,-12.33261 9.61188,-12.71165 1.86443,4.61997 -4.72571,6.7566 11.14101,8.03817 18.85975,3.96152 32.20281,-20.77104 16.24752,-28.05211 -2.14832,-1.119417 -10.48655,-1.043925 -13.49873,0.12222 -4.64244,1.79728 -8.95844,-0.16367 -5.53873,-2.516488 1.86587,-1.283753 1.82749,-1.513213 -0.55,-3.288656 -1.34774,-1.061003 -1.58572,-2.462241 -2.33519,-3.892506 -0.69989,-0.915622 -0.58946,-1.658502 0.54406,-3.659884 1.67594,-2.959098 2.30186,-3.018682 3.58747,-0.34152 0.86272,1.796524 2.09779,3.182566 2.83591,3.182566 0.65121,0 5.76958,-5.339178 6.50859,-6.789363 1.36082,-2.670397 0.78356,-3.768765 -1.32643,-2.523837 -3.14324,1.854554 -4.65127,-0.89321 -2.02467,-3.689104 3.23222,-3.440535 -7.6076,-5.303658 -17.8577,-3.069347 -1.79188,0.390595 -4.95988,0.931523 -7.04,1.202067 -15.71835,2.371868 -30.20643,8.524976 -44.1331,12.418122 -12.27794,3.141606 -9.79254,12.409061 -7.1245,20.21146 3.5375,10.16005 -3.41674,15.9933 -11.86693,9.95404 -1.37969,-1.1151 -3.20558,-1.81307 -4.49751,-2.59404 -2.756403,-1.67442 -3.735245,-1.3789 -7.857558,2.37233 -3.044941,2.77083 -3.958416,15.28402 -1.385821,18.98356 5.957318,8.56699 14.198029,14.65694 20.174099,14.90882 3.17025,0.13363 3.82331,0.73657 2.41799,2.23246 -1.40062,4.60161 0.77508,6.88621 2.01129,11.30412 0,5.36038 11.1573,15.63498 18.53001,17.06404 7.64429,3.47838 16.07695,3.91835 24.11099,5.49656 2.18865,1.13179 15.66563,1.18419 18.639,0.0725 z m -73.18208,-45.20003 c -5.675974,-2.01372 -7.161818,-5.27755 -4.86438,-10.68517 0.91454,-2.15262 0.13004,-3.26915 -2.29699,-3.26915 -3.01462,0 -3.794774,-0.7311 -2.61655,-2.45205 0.828227,-1.20973 1.367686,-1.37059 4.88,-1.4552 5.24907,-0.12645 9.07196,4.67967 6.16,7.74433 -2.81462,2.96223 -2.46014,4.30172 1.51298,5.71715 2.35326,0.83836 3.1983,1.73163 2.87116,3.03505 -0.46931,1.86988 -2.70188,2.40964 -5.64622,1.36504 z m 66.15619,-44.178727 c -0.31029,-5.039514 -3.85446,-5.565193 -7.94345,-7.775591 -2.24309,-1.217722 -5.34301,-0.340643 -6.46508,1.8292 -1.43995,2.78456 -3.56009,1.979805 -2.41796,-0.917801 2.90345,-7.36609 7.09045,-7.900378 18.09238,-2.308705 9.59537,3.300075 2.07506,-3.638895 6.2135,-3.875561 2.7384,-0.127338 3.41729,3.354269 3.65599,3.495705 1.6212,3.750451 1.38071,8.991723 -3.15409,9.057162 -1.60353,0 -2.7154,1.06425 -2.7154,2.599118 0,2.0312 -1.90978,4.42547 -3.26972,4.09922 -2.2788,-0.9651 -2.66608,-4.464953 -1.99617,-6.202747 z M 452.64,177.89636 c 2.42237,-0.657 2.6807,-1.80351 0.67165,-2.98089 -2.99296,-1.75398 -4.49728,-4.16088 -3.89498,-6.23188 0.51402,-1.76737 1.46211,-1.94367 3.45792,-0.64299 4.92346,3.20866 9.81859,2.83305 13.92144,-1.0682 2.07021,-1.9685 3.01968,-2.26516 3.71229,-1.15991 0.70899,1.13135 -2.33277,5.46023 -4.98832,7.09916 -1.2232,0.75491 -1.13942,1.30005 0.16,1.04111 5.16484,-2.30392 9.03667,-4.26712 14.82509,-13.41276 0.29878,-0.913 0.88336,-2.30685 1.29907,-3.09745 1.30752,-2.48667 0.77946,-5.76255 -0.9289,-5.76255 -0.22262,0 -0.96044,-0.29784 -1.63964,-0.66187 -1.23495,-0.66188 -1.23495,-0.66188 -2.07527,0.12347 -2.82985,2.64464 -5.48035,1.82733 -5.48035,-1.68993 0,-1.74758 -2.3191,-1.81856 -3.14048,-0.0961 -0.49376,1.03545 -2.3311,2.32445 -3.31328,2.32445 -0.21958,0 -0.95021,-0.538 -1.62362,-1.19555 -1.46732,-1.43282 -2.30211,-1.1915 -3.84979,1.11293 -1.23536,1.83941 -2.70483,2.25722 -4.64153,1.31968 -1.54887,-0.74979 -2.77504,-0.49294 -5.16557,1.08201 -2.32339,1.53074 -2.31594,1.52876 -3.25123,0.86278 -4.41764,-6.08014 -3.82469,-23.03809 -0.68506,-29.26185 3.65643,-2.95236 7.00821,-8.7659 10.49952,-11.5205 1.65491,-1.26226 2.71786,-0.41066 1.31504,1.05357 -5.68422,5.93304 15.32794,10.20544 22.72851,4.62138 4.61375,-2.17023 9.95574,-6.33547 9.58663,-11.19693 -1.31818,-11.01034 -11.36426,-15.616894 -25.0018,-11.464385 -1.8519,0.563894 -2.78844,0.261526 -3.64419,-1.176563 -0.68838,-1.156883 -0.23846,-1.896205 1.35559,-2.227395 2.66502,-0.553712 2.8496,-1.370096 0.84211,-3.724746 -1.1056,-1.296803 -1.35255,-1.178115 -2.57098,1.235571 -1.12131,2.221319 -1.2496,2.317431 -3.17456,2.378512 -1.19021,0.03777 -1.80592,0.290781 -3.0767,1.264355 -2.82663,2.165492 -4.89847,1.442208 -5.604,-1.956355 -0.59392,-2.86097 -3.03453,-4.948051 -7.63917,-6.53263 -2.91934,-1.32301 -5.78619,-2.675353 -7.86557,-0.913882 -2.1311,1.844448 -3.54288,1.707197 -2.46582,-0.239722 5.57513,-6.987195 7.88859,-6.145751 14.02125,-3.920278 0.91446,0 4.66115,2.08441 8.15753,4.53833 2.20125,1.544915 3.5528,0.909155 3.57242,-1.680436 0.0208,-2.758512 1.056,-3.29904 3.08909,-1.613072 1.09446,0.907604 1.09446,0.907604 2.27046,-0.328608 2.07091,-2.176998 4.01584,-1.650105 5.3919,1.460714 3.35925,3.154915 4.24453,-0.978413 6.13818,-3.656928 2.39206,-3.072557 2.58794,-5.349463 0.55382,-6.43809 -16.51616,-0.958717 -32.17968,1.282934 -48.08883,3.848263 -7.56408,1.047656 -15.0962,2.278144 -22.5168,4.509638 -3.71446,0.96976 -5.30512,11.017047 -2.60829,16.475181 2.12484,4.300436 1.43351,7.600466 -2.47302,11.804926 -2.89536,3.11619 -4.02973,3.15489 -6.92598,0.23628 -10.18807,-10.26676 -22.816,-3.77287 -19.87261,10.21946 2.70761,8.69848 11.18664,17.57768 19.9967,18.20442 4.00343,0.23694 4.32739,2.67714 0.57984,4.36705 -1.82278,0.82195 -1.92227,3.15096 -0.27174,6.36053 0.35856,0.69722 0.6519,1.53169 0.6519,1.85439 0,0.86696 1.47837,6.68738 2.03997,8.03147 1.25533,3.00445 5.66202,8.48362 7.39136,9.19026 4.47302,1.82776 9.16854,3.58894 11.36867,4.26411 1.496,0.45908 3.35162,1.19691 4.12359,1.63961 10.04356,2.73157 24.60172,5.77423 34.75641,3.32886 z M 380.6376,121.28 c 2.85776,-4.88338 2.46819,-6.73045 -1.5976,-7.57432 -2.51674,-0.52237 -1.10403,-3.20575 1.86384,-3.54027 4.56339,-0.51436 7.37632,4.22104 4.67654,7.87267 -1.84208,2.49154 -1.08326,5.25723 1.87316,6.8271 1.22112,0.64843 1.94297,1.98492 1.47382,2.72869 -3.2845,2.36536 -9.74383,-3.37945 -8.28976,-6.31387 z m -75.17068,7.35011 c 3.24145,-1.55353 3.45249,-5.27296 -1.92771,-12.44164 -8.03871,-13.37165 -8.95985,-4.83396 -9.43397,-11.76226 -0.3612,-4.08825 0.14319,-10.782265 -1.78539,-13.866208 -5.24048,-11.578972 -12.96299,-20.931689 -17.55217,-32.336442 -2.12753,-3.836569 -3.4763,-10.846968 -7.27349,-13.51178 -4.14725,-3.764997 -6.1062,-9.859282 -9.86448,-13.991779 C 251.64715,28.132539 243.01786,12.92659 239.61072,16.56 c -2.71352,6.763342 1.28043,10.519699 4.32233,15.600001 1.83808,3.05029 2.97688,1.880527 8.98142,10.8774 2.0985,3.263465 3.40933,6.317218 4.71269,9.815829 1.05026,3.190019 2.56209,5.7893 3.83521,8.906771 1.39856,3.449108 2.36798,4.705021 4.43966,5.751716 4.52842,2.287945 3.07675,5.208041 -1.81042,3.641718 -6.11512,-2.050888 -10.4363,1.697406 -15.92744,2.721412 -3.23397,0.415747 -1.90877,6.052704 1.52697,6.495241 5.75817,0.98964 8.76326,4.642636 12.31281,8.545152 1.06766,1.105258 2.20599,4.156097 1.87377,5.021857 -0.48645,1.267667 -1.94203,0.508172 -3.98362,-2.078576 -4.1561,-5.265895 -9.63004,-7.864177 -14.77711,-7.014157 -2.80977,0.464022 -3.91995,-0.225687 -5.41896,-3.366593 C 236.1535,75.397319 232.33371,72.9039 226.56,70.43813 c -6.33613,-2.921978 -15.75619,1.922214 -12.82545,6.595389 0.59613,0.95055 -0.29977,-1.140777 12.40474,7.982864 12.61395,9.058603 13.85662,18.659127 19.86173,28.354917 3.48558,5.50386 9.0118,7.79061 17.84603,7.38469 11.94404,-0.31052 13.96114,4.46969 19.59698,13.42561 6.56452,3.97678 14.88355,-2.1231 22.02289,-5.55149 z m 270.01871,-1.9911 c 4.13396,-1.62744 -1.95599,-10.33735 -3.18269,-14.60848 -0.85993,-3.06482 -1.75244,-3.49284 -3.36496,-1.61376 -2.42038,2.82047 -3.1864,-0.22019 -1.46691,-5.82304 1.06458,-3.46894 1.15264,-7.093753 0.22215,-9.143472 -1.00493,-2.213664 -2.7368,-6.78591 -3.6705,-9.690256 -4.0302,-11.928171 -11.13177,-21.066428 -14.57846,-33.120001 -3.13662,-7.738754 -7.33032,-18.664978 -13.69984,-21.797366 -4.4693,-2.301584 -8.78967,-5.382759 -12.06442,-8.7577 -8.60586,-8.921717 -8.88304,-9.115306 -10.55405,-7.371131 -2.66454,2.781156 -0.57613,7.469602 4.95405,11.121871 5.12092,4.153501 12.59607,8.392634 14.39376,14.624848 2.64051,9.401158 6.17726,19.374117 11.04624,26.739479 2.45392,3.646518 0.71597,5.45438 -2.74221,2.852521 -2.91386,-2.604829 -6.79061,-3.161014 -10.05357,-4.659225 -8.55598,-2.820552 -11.8236,3.220817 -10.14128,9.857044 1.14912,4.332221 1.87853,5.218157 4.72327,5.736704 5.90495,0.618847 9.21992,3.604289 12.89622,7.136621 8.35447,8.021418 3.76416,9.194138 -5.37917,1.374253 -2.57005,-1.703788 -5.52567,-3.180719 -8.43593,-3.871597 -3.15751,-0.730988 -3.71181,-1.111584 -6.90445,-4.740787 -4.53307,-5.990706 -18.6315,-16.234632 -23.72557,-9.678942 -5.05426,7.089691 23.41194,13.221134 25.92269,25.217507 2.42718,11.263549 11.70811,18.740599 22.4,17.671089 2.52134,-0.2893 4.10464,0.62531 5.59997,3.23488 2.30093,4.01554 3.85885,6.84432 4.81888,8.74993 4.12208,9.52082 15.65243,2.18466 22.98678,0.55901 z m -380.775,-30.484803 c 2.79767,-1.345622 2.98982,-1.550426 3.25245,-3.46649 0.27362,-1.996275 -0.47539,-2.008467 -2.55751,-0.04163 -0.84196,0.795344 -2.26001,1.839344 -3.15121,2.32 -3.36183,1.813152 -3.24459,1.727552 -2.77414,2.025549 0.936,0.592896 2.91562,0.275946 5.23041,-0.837424 z m 42.53085,-27.291869 c 0.72672,-1.175866 -2.61659,-5.869261 -4.52381,-6.350593 -1.49771,-0.377977 -3.52419,1.758192 -2.99309,3.155098 0.55984,1.472487 6.91268,4.173133 7.5169,3.195495 z M 514.08,67.988706 c 0,-1.081492 -5.13562,-5.396705 -6.42272,-5.396705 -5.92564,1.1011 6.15793,7.280671 6.42272,5.396705 z M 257.43261,66.505141 c 2.93614,-2.768069 -7.38382,-21.447056 -9.22785,-22.958574 -4.84652,-3.509833 -10.79024,-2.826793 -17.14364,1.970112 -1.37693,1.0396 -2.23589,2.623082 -2.23922,4.127962 -0.002,0.767447 -0.0217,1.805827 -0.0443,2.307511 -0.0799,1.767049 2.15576,2.345536 4.75066,1.229238 4.76728,-2.050829 7.79603,-4.234505 12.59336,5.820672 1.67637,3.07249 7.51112,9.103098 11.31103,7.503079 z m 273.73436,-6.282982 c 1.41195,-3.238014 0.77739,-5.278965 -0.26828,-8.702158 -1.12215,-3.712765 -1.32448,-3.973008 -4.21296,-5.418746 -5.89112,-2.271269 -13.87905,-7.456164 -18.53632,-4.183782 -3.97865,3.200451 -8.31018,5.943825 -11.98941,6.758925 -4.4927,0.982918 -5.1864,3.690656 -1.38189,5.393984 1.89722,0.849408 9.07063,-1.110288 10.71159,-2.926291 2.36614,-2.618535 7.95014,-3.206327 11.62883,-1.22409 4.99353,1.91019 6.65519,11.569118 14.04844,10.302158 z M 221.66666,54.826894 c 1.85334,-0.558746 1.85334,-0.558746 -0.23767,-0.779699 -3.98845,-0.256553 -10.59875,-7.137879 -10.68582,-2.385472 1.59095,5.553182 6.82758,4.481832 10.92349,3.165171 z"
       style="fill:#000000;stroke-width:0.32" />
    <circle
       r="0"
       cy="273.38895"
       cx="497.33774"
       style="fill:#000000;stroke:#000000"
       id="path14253" />
    <path
       d="m 497.76195,272.8107 c -0.21757,-0.0121 -0.24057,-0.0278 -0.50139,0.0612 -0.23598,0.0806 -0.4621,0.18753 -0.69337,0.28077 -0.39832,0.16058 -0.79414,0.32755 -1.19538,0.48068 -1.80574,0.68915 -1.67447,0.60395 -3.76978,1.24017 -1.0544,0.24215 -2.09968,0.52809 -3.16318,0.72646 -3.11021,0.58014 -5.92868,0.89821 -9.09154,1.1326 -3.04307,0.22552 -5.50838,0.30709 -8.53675,0.17455 -1.11619,-0.0488 -2.22722,-0.18042 -3.34084,-0.27063 -1.7548,-0.33559 -2.85837,-0.34871 -4.35751,-1.25969 -0.36897,-0.22421 -0.63383,-0.58642 -0.95074,-0.87962 0,0 -1.36729,0.85143 -1.36729,0.85143 v 0 c 0.35514,0.2887 0.66252,0.64897 1.06541,0.86611 1.59166,0.85783 2.76592,0.86202 4.58077,1.15853 1.14526,0.0706 2.28884,0.17767 3.43576,0.21167 3.21047,0.0952 5.397,-0.003 8.63496,-0.23295 2.81806,-0.20033 6.08469,-0.50707 8.89094,-0.96416 1.02441,-0.16686 2.03321,-0.41843 3.04982,-0.62764 2.21375,-0.62003 1.75979,-0.44425 3.64144,-1.12332 0.37748,-0.13623 0.75256,-0.27912 1.12684,-0.4239 0.2112,-0.0817 0.4188,-0.17242 0.62946,-0.25549 0.0921,-0.0363 0.18187,-0.0818 0.27863,-0.10256 0.0506,-0.0109 0.10344,0.006 0.15516,0.009 0,0 1.47858,-1.05356 1.47858,-1.05356 z"
       id="path14255"
       style="fill:#000000;stroke-width:0" />
  </g>
</svg>
