<?xml version="1.0" encoding="UTF-8" standalone="no"?>
<svg
   xmlns:dc="http://purl.org/dc/elements/1.1/"
   xmlns:cc="http://creativecommons.org/ns#"
   xmlns:rdf="http://www.w3.org/1999/02/22-rdf-syntax-ns#"
   xmlns:svg="http://www.w3.org/2000/svg"
   xmlns="http://www.w3.org/2000/svg"
   xmlns:sodipodi="http://sodipodi.sourceforge.net/DTD/sodipodi-0.dtd"
   xmlns:inkscape="http://www.inkscape.org/namespaces/inkscape"
   sodipodi:docname="tintinetmilou.svg"
   inkscape:version="1.0 (4035a4fb49, 2020-05-01)"
   id="svg2653"
   version="1.1"
   viewBox="0 0 210 297"
   height="297mm"
   width="210mm">
  <style
     id="style3216"></style>
  <defs
     id="defs2647">
    <clipPath
       id="Clip3">
      <path
         id="path1778"
         d="M 0,0 H 477.932 V 400.161 H 0 Z" />
    </clipPath>
  </defs>
  <sodipodi:namedview
     inkscape:window-maximized="0"
     inkscape:window-y="10"
     inkscape:window-x="10"
     inkscape:window-height="1036"
     inkscape:window-width="1898"
     showgrid="false"
     inkscape:document-rotation="0"
     inkscape:current-layer="layer1"
     inkscape:document-units="mm"
     inkscape:cy="386.77064"
     inkscape:cx="408.02888"
     inkscape:zoom="0.92224672"
     inkscape:pageshadow="2"
     inkscape:pageopacity="0.0"
     borderopacity="1.0"
     bordercolor="#666666"
     pagecolor="#ffffff"
     id="base" />
  <metadata
     id="metadata2650">
    <rdf:RDF>
      <cc:Work
         rdf:about="">
        <dc:format>image/svg+xml</dc:format>
        <dc:type
           rdf:resource="http://purl.org/dc/dcmitype/StillImage" />
        <dc:title></dc:title>
      </cc:Work>
    </rdf:RDF>
  </metadata>
  <g
     id="layer1"
     inkscape:groupmode="layer"
     inkscape:label="Layer 1">
    <g
       style="display:inline;fill:none;stroke:none"
       transform="matrix(0.35277777,0,0,0.35277777,22.404595,51.199566)"
       clip-path="url(#Clip3)"
       id="g4861"
       clip-rule="evenodd">
      <path
         id="path2497"
         style="fill:#efe8d5;fill-rule:nonzero;stroke:none"
         transform="translate(35.6807,126.814)"
         d="M 15.7157,167.255 0,192.673 5.66566,203.864 c 0,0 9.58394,23.881 24.41404,39.643 14.83,15.762 29.8285,24.769 29.8285,24.769 0,0 16.0666,-14.319 16.0958,-15.857 0.0573,-1.539 3.5996,-3.711 1.7445,-8.573 -1.8551,-4.862 -9.2389,-14.809 -6.2837,-19.402 2.9553,-4.593 13.3705,-7.858 15.1964,-8.188 1.8253,-0.33 6.0285,-9.426 5.931,-10.739 -0.0974,-1.313 14.7808,-1.167 16.9908,2.696 2.21,3.862 18.009,28.95 20.666,30.722 2.656,1.771 11.539,7.899 11.539,7.899 0,0 6.495,-2.949 6.203,-8.786 -0.293,-5.838 1.438,-34.902 3.205,-39.817 1.767,-4.915 23.284,-3.936 26.189,-5.826 2.905,-1.89 4.45,5.975 4.45,5.975 l -9.745,10.276 4.632,10.011 c 0,0 1.176,7.028 7.268,8.907 6.093,1.879 16.581,2.619 18.359,0.889 1.778,-1.731 12.592,-1.674 13.926,-4.828 1.334,-3.153 3.97,-6.356 9.971,-7.023 6,-0.667 17.628,-2.981 18.183,3.269 0.557,6.25 4.924,10.372 5.258,12.706 0.332,2.334 0.636,11.57 3.433,15.202 2.796,3.632 10.568,15.086 10.568,15.086 0,0 10.048,5.299 11.154,6.215 1.105,0.917 22.99,0.98 22.99,0.98 l 16.73,-7.422 c 0,0 0.504,-7.311 0.757,-8.389 0.252,-1.078 -1.636,-23.44 -1.636,-23.44 l 6.9,-2.165 8.429,4.5 15.223,-12.021 24.959,-15.898 7.569,-27.882 -0.309,-12.125 -8.672,-15.053 -0.814,-8.309 -9.071,-9.708 -15.781,-30.132 -0.55,-21.6369 -9.335,-17.6307 1.54,-14.7261 -8.177,-17.6887 -1.763,-15.9575 -8.715,-13.02813 -19.798,5.55892 -8.638,5.58201 9.972,26.1148 -22.828,1.8911 -6.181,6.3571 L 251.769,2.70711 232.49,0 l -4.28,6.8286 -7.099,2.29069 -3.817,10.72841 11.529,9.8646 7.634,22.0548 -5.794,10.7489 -31.642,25.4352 -2.447,14.7778 -7.804,22.348 -19.322,35.822 -23.592,17.967 -13.947,3.843 -41.4453,2.652 z" />
      <path
         id="path2499"
         style="fill:#fdac4b;fill-rule:nonzero;stroke:none"
         transform="translate(3.76253,60.5768)"
         d="M 24.2495,107.748 15.949,108.832 1.74963,123.818 0,140.311 l 20.2664,37.153 24.2483,6.084 9.9824,21.13 -2.9558,20.234 5.739,9.676 63.9787,42.847 4.192,0.828 3.044,3.592 7.401,-1.989 2.579,-6.765 14.838,-8.882 4.651,-5.747 -3.099,-7.671 c 0,0 27.383,-10.591 28.079,-11.113 0.696,-0.523 15.485,-8.23 15.485,-8.23 l 15.826,-27.691 13.474,-25.049 1.41,-31.279 -3.111,-42.558 L 214.956,71.7086 199.719,44.3006 176.974,13.4094 150.106,0 69.3311,14.0604" />
      <path
         id="path2501"
         style="fill:#eea526;fill-rule:nonzero;stroke:none"
         transform="translate(18.9061,1.62127)"
         d="m 13.1406,169.195 c 0,0 0.6959,15.861 13.3802,8.091 12.6854,-7.77 26.1533,-21.608 21.6817,-41.843 -4.4715,-20.234 -11.0297,-58.6437 20.001,-61.9605 31.0301,-3.3168 41.9845,6.9312 56.5635,2.3418 14.579,-4.5893 20.182,-7.3766 21.558,-10.6742 1.375,-3.2977 10.727,-21.4793 9.476,-27.2629 -1.252,-5.7835 -3.59,-18.2818 -7.857,-21.734 C 143.675,12.7011 127.889,0 127.889,0 L 82.4958,2.69817 c 0,0 6.4074,15.57843 5.0929,24.27723 -1.3139,8.6989 -11.947,30.2245 -19.2488,32.3747 -7.3006,2.1503 -52.353,36.5399 -52.353,36.5399 0,0 -4.0261,6.903 -6.38228,12.372 C 7.24904,113.73 1.021,158.815 1.021,158.815 L 0,165.183 Z" />
      <path
         id="path2503"
         style="fill:#fae5b8;fill-rule:nonzero;stroke:none"
         transform="translate(207.061,289.923)"
         d="m 83.0903,20.1025 c 0,0 -17.4917,0.5852 -23.2543,-2.0358 C 54.0735,15.4457 46.6227,4.44873 42.7548,2.80796 38.8875,1.16725 30.4546,-0.985791 28.7383,0.496637 27.0213,1.97901 10.5615,10.3422 10.5615,10.3422 L 9.97674,28.713 c 0,0 -1.43777,6.0893 -3.98138,11.1963 -2.54361,5.1069 -8.65069,6.3452 -4.69912,11.3388 3.95157,4.9937 11.90226,13.9524 11.90226,13.9524 0,0 18.1516,-0.2552 20.3828,-0.2552 2.2306,0 9.4756,-7.0131 12.4486,-8.7085 2.9736,-1.6953 36.0566,-2.8882 39.8712,-2.8882 3.8151,0 21.2189,-1.8215 21.2189,-1.8215 0,0 1.98,-7.8157 0.528,-8.9234 C 106.192,41.4961 96.7187,35.8927 95.8984,33.9918 95.078,32.0909 83.0932,20.1028 83.0932,20.1028 Z" />
      <path
         id="path2505"
         style="fill:#000000;fill-rule:nonzero;stroke:none"
         transform="translate(0,1.6545)"
         d="m 145.787,0 c 0,0 32.393,24.8216 25.352,42.2734 -7.041,17.4515 -11.424,21.3871 -8.649,24.4368 2.775,3.0498 24.003,9.1079 26.637,20.7252 2.633,11.6173 -4.899,5.0609 -3.385,14.5946 1.516,9.534 5.97,-6.3009 9.036,-6.3734 26.358,26.4754 33.705,75.7894 34.237,106.4474 0.073,33.768 -13.093,77.449 -37.125,91.172 -16.39,8.903 -15.574,13 -36.765,13.05 -21.192,0.052 -28.709,-0.097 -29.744,0.252 -1.036,0.349 -2.216,3.688 0.382,4.906 6.724,0.16 29.436,0.571 30.853,1.792 0.97,4.991 1.544,8.24 -2.927,11.578 -4.966,2.262 -10.352,5.203 -13.159,6.489 -2.807,1.285 1.668,3.801 -2.804,5.072 -4.473,1.271 -5.918,0.928 -6.164,-1.621 -0.245,-2.549 -3.576,-0.649 -8.154,-3.46 -4.579,-2.81 -59.3879,-35.01 -60.3768,-40.443 -0.9889,-5.433 -1.0968,-21.806 -0.8311,-23.253 0.2708,-1.446 -8.0729,-21.675 -8.9457,-24.822 -0.8719,-3.148 3.6362,-4.248 -3.5523,-3.67 -7.1875,0.577 -16.8439,-4.188 -22.7076,-7.895 -23.482,-14.845 -23.10923,-63.882 -2.3605,-59.74 6.3135,1.699 11.2765,8.628 12.1871,3.729 0.9107,-4.898 -3.8059,-13.024 -4.9462,-12.789 -1.1411,0.235 -10.7927,4.669 -10.1529,-5.064 2.0556,-47.458 31.6696,-82.293 69.1539,-96.1098 0,0 19.3171,-2.2552 21.1531,-25.8981 C 113.866,11.7362 110.43,7.17225 106.017,4.50967 101.603,1.84713 100.08,1.3354 100.08,1.3354 c 0,0 12.019,36.1435 -10.2119,49.8647 -22.2308,13.7213 -59.7784,40.0613 -63.5946,53.3579 -2.8334,9.872 -13.0922,22.912 -10.7175,51.833 -1.0689,5.772 -1.3767,10.034 -6.12001,14.355 -21.61209,19.692 -2.05647,60.47 18.20601,70.137 9.3907,4.48 13.8781,0.826 17.8702,6.014 3.9926,5.187 8.7535,19.079 9.533,23.142 -0.0731,4.157 0.1118,7.782 0.043,14.199 -0.0731,6.417 -6.6527,0.364 -8.2057,3.926 -1.5521,3.562 -16.6668,26.923 -15.0003,31.895 1.667,4.971 25.4925,45.503 32.9642,52.919 7.4718,7.415 20.9075,24.1 30.4581,22.749 0,0 19.1025,-8.509 19.7255,-18.928 0.624,-10.419 -8.369,-23.042 -0.982,-26.243 6.299,-2.729 12.41,-9.061 13.419,-12.604 0.417,1.205 1.081,2.554 2.276,3.359 2.992,2.013 8.484,2.826 11.353,0.302 2.869,-2.524 1.705,-8.305 1.705,-8.305 0,0 19.869,35.746 24.185,38.897 4.316,3.151 11.022,8.099 13.848,3.787 2.826,-4.311 4.047,-9.965 4.047,-15.737 0,-5.771 4.648,-31.454 2.36,-36.84 -2.288,-5.385 -8.022,-15.226 -6.76,-16.946 66.327,-18.763 84.844,-179.804 -5.173,-240.5984 -10.082,-4.311 -5.523,-0.7284 -1.478,-9.3297 4.046,-8.6014 5.698,-35.9598 -10.816,-46.2117 C 146.5,0.0772199 145.791,1.28987e-4 145.791,1.28987e-4 L 145.787,0 M 52.4646,293.923 c 3.9281,-1.239 63.3884,41.119 66.2574,42.257 2.867,1.137 5.818,1.087 1.234,4.265 -4.585,3.179 -16.563,5.751 -15.67,10.741 0.895,4.99 8.993,19.599 5.727,24.957 -3.265,5.359 -14.5512,13.848 -16.6438,13.848 -2.093,0 -40.5972,-33.732 -55.407,-70.716 0,0 10.5743,-24.113 14.5024,-25.352 M 175.539,309.19 c 0,0 6.687,11.233 6.844,16.778 0.159,5.545 -1.725,43.151 -5.324,43.609 -3.599,0.457 -20.237,-15.683 -28.585,-36.37 0,0 12.537,-5.091 13.348,-12.133 1.724,-6.828 -4.346,-7.996 3.876,-8.71 8.221,-0.714 9.841,-3.174 9.841,-3.174 v 0" />
      <path
         id="path2507"
         style="fill:#000000;fill-rule:nonzero;stroke:none"
         transform="translate(15.2872,187.073)"
         d="m 1.85209,7.83639 c 0,0 -4.12872,-3.75976 -0.05733,-6.09728 4.07311,-2.337523 20.29904,-3.85343 21.88074,5.94513 1.5816,9.79846 -1.9744,8.70416 -3.1244,13.04886 -1.1494,4.3447 9.7795,4.9131 10.4061,8.0516 0.626,3.1385 -1.7107,12.4672 -4.7565,9.6315 -3.0463,-2.8358 -0.822,-5.2779 -5.9884,-6.3139 C 15.0465,31.0663 6.96569,29.8644 10.2494,24.341 13.5337,18.8177 22.1013,9.57793 14.0049,8.73774 5.908,7.8975 1.8498,7.83639 1.8498,7.83639 Z" />
      <path
         id="path2509"
         style="fill:#000000;fill-rule:nonzero;stroke:none"
         transform="translate(105.191,89.1413)"
         d="m 0.069915,23.4518 c 0,0 1.003805,-27.48285 13.673185,-22.946139 C 26.413,5.04232 39.8671,9.30334 35.3234,14.8516 30.7796,20.3999 21.1905,8.70972 14.1621,13.1342 7.13379,17.5587 8.54404,25.6913 6.20509,26.973 3.86556,28.2547 -0.61228,30.2912 0.069915,23.4518 Z" />
      <path
         id="path2511"
         style="fill:#000000;fill-rule:nonzero;stroke:none"
         transform="translate(117.348,160.684)"
         d="m 0.979498,14.877 c 0,0 -3.666088,-14.0953 3.186822,-14.8314977 C 11.0192,-0.690638 14.3838,7.65227 15.0344,14.4147 15.6845,21.177 15.5962,24.2301 10.9803,25.2841 6.3654,26.3381 2.65632,22.0896 0.979498,14.877 Z" />
      <path
         id="path2513"
         style="fill:#000000;fill-rule:nonzero;stroke:none"
         transform="translate(192.068,158.185)"
         d="m 0.339585,11.601 c 0,0 -2.241495,-11.158437 4.793135,-11.5797356 C 12.1674,-0.400091 10.9514,5.50841 11.7747,11.7029 c 0.8232,6.1943 0.5331,8.959 -4.53921,9.3173 C 2.16145,21.3785 0.749476,15.7238 0.339585,11.601 Z" />
      <path
         id="path2515"
         style="fill:#000000;fill-rule:nonzero;stroke:none"
         transform="translate(164.509,190.799)"
         d="m 3.14594,1.89617 c 0,0 27.55496,-4.90103 28.57026,1.05568 C 37.7109,17.6264 37.9247,27.3309 24.1845,30.872 18.0023,32.4845 4.45301,37.0793 3.0095,32.1311 1.56657,27.1829 10.4764,24.9051 19.3954,24.4335 29.8771,23.8791 29.458,11.1039 25.1396,9.03033 22.2268,7.12889 4.81302,12.0136 3.24111,9.84225 1.66919,7.67081 -3.14,3.01216 3.14938,1.89617 Z" />
      <path
         id="path2517"
         style="fill:#000000;fill-rule:nonzero;stroke:none"
         transform="translate(139.197,254.608)"
         d="M 3.22242,0.549547 C -0.574939,4.64885 -1.54664,7.89524 3.22414,10.0264 7.99607,12.1576 31.0199,18.3792 36.5078,13.3118 41.9946,8.24431 42.3586,8.11721 34.5942,9.55057 26.8304,10.9839 19.9431,8.87147 15.6269,6.37882 11.3107,3.88611 8.00926,-1.77794 3.22242,0.549547 Z" />
      <path
         id="path2519"
         style="fill:#fae5b8;fill-rule:nonzero;stroke:none"
         transform="translate(405.73,294.526)"
         d="m 0,38.3339 c 0,0 3.50499,-16.424 5.35953,-17.1834 1.85397,-0.7595 9.59887,-4.1553 9.59887,-4.1553 l 1.4682,-1.8161 c 0,0 19.7527,-13.94967 21.3934,-14.770078 1.6407,-0.820355 15.5781,-0.4494467 16.481,1.501808 0.9035,1.95096 5.9466,8.18957 5.9466,8.18957 0,0 -7.2284,2.5646 -6.3668,5.6017 0.8611,3.0371 7.1086,15.4808 7.1086,15.4808 l 5.805,12.5237 -0.5446,12.339 -9.5313,6.0159 -14.1667,-2.0226 -9.5937,-6.5745 -5.4358,-5.1516 c 0,0 -15.6882,-4.666 -17.3249,-4.666 -1.63614,0 -10.1148486,-0.9375 -10.1148486,-0.9375 z" />
      <path
         id="path2521"
         style="fill:#f39550;fill-rule:nonzero;stroke:none"
         transform="translate(301.671,345.439)"
         d="m 3.72055,4.34546 c 0,0 -4.085148,11.47604 -3.6941755,13.78344 C 0.4162,20.4364 4.01349,28.6173 4.98232,29.4004 5.95058,30.1833 18.1338,33.236 18.1338,33.236 c 0,0 14.2607,0.0682 15.057,-0.4626 0.7963,-0.5309 6.5697,-9.3232 6.8357,-10.4116 0.2637,-1.0885 1.1741,-5.4304 1.4401,-7.2886 C 41.7303,13.2151 35.4644,5.76672 33.8736,4.77232 32.2827,3.77803 27.1279,-0.0655355 24.739,8.49519e-4 22.3496,0.066776 5.70293,3.78348 5.70293,3.78348 Z" />
      <path
         id="path2523"
         style="fill:#000000;fill-rule:nonzero;stroke:none"
         transform="translate(176.381,118.782)"
         d="m 164.767,0.0524812 c -1.59,-0.3809402 -2.286,1.2873288 -2.637,5.8110988 -0.561,7.23812 -1.164,7.32052 -6.105,5.77752 -4.941,-1.543 -1.634,-8.19808 -6.558,-8.80905 -4.926,-0.61096 -2.938,5.55408 -0.815,10.56415 2.123,5.0101 -5.929,-0.645 -9.985,-2.3093 -4.055,-1.66441 0.043,11.063 2.948,13.0666 2.917,2.0035 7.088,2.578 7.088,2.578 l -0.125,6.7349 c 0,0 0.206,5.1692 2.049,6.3485 1.841,1.1794 2.401,4.3248 2.401,4.3248 0,0 -3.432,1.8842 -5.021,1.7719 -1.59,-0.1122 -8.588,-1.3787 -13.588,-1.8643 -4.999,-0.4854 -3.98,6.7344 -5.576,7.3731 -1.596,0.6385 -1.108,-6.8234 -1.108,-8.6328 0,-1.8092 -2.662,-9.2914 -3.695,-10.119 -1.034,-0.8277 -3.939,-4.5683 -3.939,-8.4228 0,-3.8543 -3.58,-11.0965 -5.282,-14.2254 C 113.117,6.89173 108.178,8.20189 102.769,6.46823 97.3594,4.73452 91.7227,2.86026 87.1497,1.95873 82.5767,1.0572 88.179,9.86328 85.8229,13.4634 83.4672,17.0635 81.2095,11.288 78.7183,9.95318 c -2.492,-1.33483 -3.8494,4.60432 -2.2504,8.28002 1.5995,3.6756 0.3397,5.2401 -0.7472,5.2401 -1.0861,0 -5.3762,2.9302 -5.4334,6.105 -0.0559,3.1748 3.456,4.5086 8.0531,3.8377 4.5971,-0.6709 8.3768,6.0048 9.9934,8.8594 1.6158,2.8545 0.7963,6.2084 3.2161,13.5621 2.4202,7.3536 -1.4197,9.1136 -3.0733,11.765 -1.6536,2.6513 -5.2192,5.433 -11.3199,11.8825 -6.1032,6.4494 -8.7981,7.7661 -14.7883,10.1694 -5.9888,2.4034 -4.0308,8.9602 -4.0308,8.9602 l -1.6209,2.9144 -3.7535,24.915 c 0.2106,-0.641 0.5688,-1.646 0.739,-2.166 1.4688,-4.492 4.9587,-9.413 4.8035,-14.394 -0.1548,-4.981 0.6178,-8.593 1.9731,-10.1777 1.3552,-1.5849 2.176,-3.1462 4.5265,-5.366 2.3502,-2.2198 8.4108,-5.084 10.5976,-6.6509 C 77.79,86.1225 87.9765,74.6321 89.6018,73.17 c 1.6252,-1.462 7.3475,-7.5301 7.6416,-9.9595 0.2923,-2.4294 -0.2451,-8.2279 -0.8647,-11.068 -0.62,-2.84 -1.074,-5.6549 -2.3346,-8.7082 -1.2602,-3.0533 -2.6855,-5.7456 -3.8043,-7.4823 -1.1179,-1.7366 -7.6867,-5.2895 -10.1357,-6.6508 -2.4495,-1.3614 -2.4508,-3.2053 -0.6381,-3.6949 1.8127,-0.4896 3.3089,-1.2607 3.048,-3.3591 -0.2623,-2.0983 -0.4257,-4.5159 1.4192,-3.6193 1.8437,0.8965 7.9331,-3.4608 8.8176,-6.105 0.8844,-2.64431 2.4748,-2.59444 6.1638,-1.4192 3.6894,1.1752 8.9524,1.6341 10.2284,2.3177 1.276,0.6838 4.232,6.4483 4.232,10.7573 0,4.309 -0.782,7.0133 2.058,10.5389 2.839,3.5256 5.372,5.4015 5.307,10.1023 -0.065,4.7008 1.35,13.2359 5.257,14.0911 3.906,0.8551 7.01,-3.6048 9.59,-5.4416 2.578,-1.837 1.353,-3.7275 9.329,-2.6957 7.976,1.0321 18.073,4.2532 17.518,0.3358 -0.556,-3.9174 -2.055,-5.3463 -3.88,-9.7831 -1.825,-4.4368 -5.263,-10.5877 -3.762,-13.4278 1.502,-2.84 0.774,-6.2266 -1.764,-7.2386 -2.536,-1.012 1.489,-0.9644 4.644,-1.0833 3.155,-0.1191 -3.558,-2.3056 0.06,-2.9811 3.586,-0.6757 8.263,8.1138 9.699,3.2498 1.437,-4.864 4.668,-6.8804 7.626,-5.0973 2.957,1.783 6.968,10.0133 5.239,14.2171 -1.728,4.2037 -0.906,7.5438 1.075,11.2191 1.982,3.6752 8.055,15.2111 8.314,16.9379 0.258,1.7268 -0.37,3.9686 -0.495,5.9958 -0.125,2.0272 3.533,3.3417 -4.333,4.1904 -7.868,0.8487 -13.69,2.8448 -13.588,7.7594 0.103,4.9145 -1.491,11.3675 2.578,11.5634 4.069,0.1956 1.026,-3.284 5.114,-7.3143 4.088,-4.0303 7.292,-5.1354 10.086,-3.4514 2.793,1.6841 5.603,12.7925 7.255,14.7881 1.654,1.9956 3.539,3.1444 3.192,7.0624 -0.349,3.918 -0.919,5.819 -0.723,10.043 0.194,4.225 2.878,6.477 4.543,11.178 1.666,4.7 0.639,5.945 4.132,8.557 3.493,2.611 2.55,6.419 3.468,10.312 0.918,3.893 5.448,8.387 7.701,9.464 2.252,1.077 5.393,2.53 5.785,7.264 0.392,4.733 0.25,6.786 2.562,11.454 2.309,4.668 6.123,7.835 6.374,8.356 0.245,0.521 -3.107,8.661 -2.52,12.042 0.588,3.381 2.431,10.889 -0.571,14.183 -3.003,3.294 -4.236,14.027 -8.12,15.301 -3.885,1.273 -5.114,0.548 -7.281,3.107 -2.167,2.559 -6.901,3.801 -10.077,3.997 -3.175,0.196 -6.641,4.051 -8.431,8.263 -1.79,4.213 -4.788,10.286 -9.38,6.231 -4.593,-4.055 -4.166,-5.285 -7.659,-4.795 -3.493,0.49 -8.525,5.486 -13.394,0.378 -4.868,-5.108 -8.787,-6.873 -10.153,-7.516 -1.364,-0.643 -10.462,-6.17 -13.561,-11.622 -3.102,-5.452 -7.295,-6.258 -8.927,-6.911 -1.632,-0.653 -9.793,-15.983 -12.89,-18.005 -3.098,-2.021 -8.206,-1.299 -10.296,-1.788 -2.089,-0.49 1.363,-12.466 -0.856,-9.985 -2.221,2.481 -9.7009,12.441 -8.297,5.912 1.403,-6.529 11.969,-10.031 12.815,-16.72 0.846,-6.688 -9.078,-7.931 -14.3014,-1.402 -5.2231,6.529 -8.0798,17.427 -12.4537,15.468 -4.3748,-1.958 -8.5991,-11.066 -13.2344,-12.47 -4.6358,-1.404 -7.3149,-1.374 -16.0309,1.923 -8.7161,3.297 -21.0975,11.415 -21.1955,17.878 -0.0989,6.464 2.5883,11.446 -5.1814,11.446 -7.7688,0 -18.9877,2.249 -21.103,0.361 -2.11542,-1.887 -8.4306,-8.592 -6.71809,-9.9 H 3.47662 c 0,0 11.19218,-6.677 11.97468,-7.34 0.7834,-0.662 8.5926,-7.066 11.2446,-9.119 2.652,-2.054 5.8164,-4.839 8.3304,-9.473 2.5131,-4.634 8.1408,-15.09 11.1436,-20.28 2.4774,-4.282 4.7793,-11.028 6.4072,-15.955 L 25.9314,173.336 0,186.881 c 0,0 10.1203,18.659 10.1779,19.583 0.043,0.925 3.9577,0.986 16.1315,-0.47 12.1742,-1.456 14.9555,-2.361 8.0367,5.635 -6.9167,7.995 -5.2631,12.738 -0.4128,20.129 4.8517,7.391 20.2595,8.783 31.7174,6.348 11.4583,-2.435 8.3239,-5.905 16.1736,-10.135 7.8493,-4.231 18.7697,2.3 19.8777,5.987 1.107,3.687 0.073,2.694 4.971,9.85 4.899,7.156 3.644,6.709 0.621,6.802 -3.023,0.094 -1.057,7.365 2.268,9.893 3.324,2.528 8.065,11.841 14.04,15.728 5.976,3.888 14.409,5.148 26.268,5.148 11.858,0 11.376,-0.755 20.599,-6.164 9.223,-5.409 4.6,-8.195 5.568,-25.47 0.966,-17.274 2.569,-6.391 3.846,-8.867 1.276,-2.477 4.007,-0.942 6.911,2.284 2.903,3.225 12.018,-0.831 15.888,-8.599 3.87,-7.769 3.929,-2.287 13.277,-3.536 9.347,-1.248 2.977,-5.706 6.525,-8.506 3.546,-2.801 18.586,0.633 29.257,1.948 10.671,1.315 -3.964,12.262 26.04,14.402 30.004,2.139 23.449,-18.133 22.548,-26.545 -0.902,-8.412 -5.328,-6.495 -10.413,-15.015 -5.085,-8.52 0.413,-4.451 1.562,-11.706 1.149,-7.255 -0.502,-8.328 -5.517,-12.403 -5.015,-4.075 -14.199,-2.998 -20.692,-0.848 -6.492,2.149 -18.05,15.466 -22.85,17.576 -4.8,2.109 -1.019,1.655 -2.334,-9.263 -1.316,-10.918 3.037,-3.172 -4.837,-12.445 -7.874,-9.273 -1.992,-6.605 -5.232,-15.871 -3.239,-9.267 -7.732,-5.527 -9.397,-10.506 -1.664,-4.979 -3.956,-11.372 -8.741,-17.752 -4.785,-6.38 -7.974,-14.355 -6.139,-22.279 1.834,-7.9242 -3.972,-16.2156 -3.972,-16.2156 0,0 -1.591,-9.2763 -5.215,-12.1513 -3.623,-2.8749 -1.341,-4.9079 -0.538,-7.5074 0.805,-2.5994 -0.486,-12.1041 -4.156,-17.9876 -3.671,-5.8836 -4.366,-8.5026 -5.753,-10.5137 -1.389,-2.0111 0.489,-14.053 -0.344,-16.9463 -0.832,-2.8932 -2.571,-8.7768 -7.911,-11.68939 -5.339,-2.91264 -4.576,-1.92865 -9.144,-6.02105 -1.714,-1.53463 -2.993,-2.500744 -3.947,-2.7292218 l 0.008,4.3e-5 M 64.2146,173.025 c 3.7265,-0.181 11.1294,3.954 12.4705,6.215 1.5327,2.584 7.9911,12.673 14.4439,14.057 6.4519,1.384 24.789,2.645 24.789,2.645 0,0 3.674,2.239 3.863,3.603 0.189,1.364 2.094,5.741 4.485,10.018 2.389,4.277 4.144,3.142 5.668,3.813 1.523,0.67 5.044,2.873 5.92,5.508 0.877,2.636 -2.27,1.843 -4.946,1.781 -2.676,-0.063 -24.056,1.411 -27.955,1.411 H 79.6242 c -2.7637,0 -10.4156,7.858 -12.0507,9.808 -1.6347,1.95 -13.0857,3.715 -19.0707,3.166 -5.9854,-0.549 -8.2736,-4.898 -11.5636,-10.212 -3.2875,-5.313 -0.4988,-7.617 0.3439,-10.631 0.844,-3.014 8.3721,-10.115 8.7505,-11.815 0.3783,-1.701 -3.6697,-18.215 -3.6697,-18.215 0,0 17.6759,-9.029 20.5067,-10.791 0.3526,-0.22 0.8113,-0.334 1.3436,-0.361 h 4e-4 m 210.2744,3.485 c 1.408,-0.068 2.665,0.047 3.62,0.378 3.821,1.326 7.241,3.958 6.592,6.97 -0.65,3.012 -3.586,2.761 -3.586,6.718 0,3.958 -0.47,7.747 3.468,10.9 3.94,3.154 6.632,8.684 7.214,10.606 0.581,1.923 4.138,8.414 1.545,13.243 -2.593,4.83 -5.063,8.178 -8.162,8.18 -3.099,0.001 -7.982,-1.317 -13.218,-2.595 -5.236,-1.279 -7.164,-5.728 -9.305,-7.398 -2.14,-1.671 -8.037,-3.266 -10.421,-3.443 -2.385,-0.178 -9.345,-3.159 -13.008,-2.982 -3.663,0.178 -8.708,-0.369 -8.708,-0.369 0,0 4.367,-4.286 4.837,-7.583 0.47,-3.297 2.433,-5.948 3.225,-7.348 0.789,-1.399 0.484,-0.162 0.839,-1.998 0.357,-1.837 -6.069,-3.838 2.108,-5.635 8.177,-1.797 15.456,-8.934 19.826,-12.714 3.278,-2.835 8.91,-4.723 13.134,-4.929 v -0.001 m -122.973,53.552 c 2.237,-0.218 4.384,2.1 5.13,2.762 0.853,0.757 5.46,4.701 6.97,6.735 1.51,2.035 -0.253,4.273 -0.253,6.634 0,2.361 -1.193,7.015 -2.015,8.473 -0.823,1.459 -5.703,4.074 -9.952,4.93 -4.249,0.855 -9.668,-0.999 -11.026,-1.125 -1.357,-0.126 -7.843,-4.098 -7.843,-4.098 0,0 -2.196,-4.641 -3.241,-7.97 -1.047,-3.328 1.956,-11.496 1.956,-11.496 l 2.671,-3.409 c 0,0 14.08,0.001 16.635,-1.176 0.318,-0.147 0.646,-0.229 0.966,-0.261 l 0.002,0.001 m -31.642,2.04 c 1.38,0.189 5.046,2.024 5.046,2.024 0,0 -0.202,10.935 -0.335,11.706 -0.129,0.771 0.992,7.374 1.176,8.515 0.18,1.142 7.347,6.861 7.347,6.861 0,0 13.827,3.569 15.964,3.443 2.139,-0.126 14.454,-3.838 15.46,-4.467 1.006,-0.629 2.23,-7.797 2.293,-10.69 0.064,-2.894 3.611,-3.057 3.611,-3.057 0,0 2.956,12.222 2.956,13.596 0,1.373 -1.765,7.645 -2.545,9.027 -0.78,1.381 -6.533,4.971 -8.465,5.349 -1.931,0.378 -11.694,2.544 -13.621,2.763 -1.926,0.218 -12.596,-0.697 -13.394,-0.823 -0.798,-0.126 -8.013,-4.894 -9.875,-7.726 -1.863,-2.831 -5.905,-5.764 -6.945,-7.314 -1.04,-1.55 -3.28,-5.873 -3.527,-8.91 -0.249,-3.037 -0.566,-4.038 -0.756,-8.708 -0.189,-4.671 -6.197,-11.127 -6.197,-11.127 0,0 10.426,-0.65 11.807,-0.462 v 0" />
      <path
         id="path2525"
         style="fill:#000000;fill-rule:nonzero;stroke:none"
         transform="translate(340.058,264.832)"
         d="m 6.6364,5.98875 c 0,0 -13.07579,10.87965 -2.51896,19.70265 C 14.6748,34.5143 30.0747,34.417 36.1399,29.2752 42.204,24.1334 52.0156,11.2405 42.8243,5.02399 33.633,-1.19247 19.5391,-0.701347 13.9376,1.50524 7.69237,3.9655 14.1497,4.58297 15.5657,5.68842 16.9158,6.74043 33.7998,10.2447 19.1693,17.8092 5.42164,24.9173 12.6053,10.4396 11.1108,9.0713 9.4506,7.55144 9.73953,1.97595 6.6364,5.98875 Z" />
      <path
         id="path2527"
         style="fill:#000000;fill-rule:nonzero;stroke:none"
         transform="translate(358.534,232.608)"
         d="m 6.03917,0.0449864 c 0,0 -6.446457,0.2602666 -6.0187951,4.5312136 C 0.444597,8.84697 2.8856,14.4791 5.2985,15.1702 7.71141,15.8613 14.0902,12.1283 12.0935,7.38495 10.0968,2.64163 10.0142,-0.411167 6.03917,0.0449864 Z" />
      <path
         id="path2529"
         style="fill:#000000;fill-rule:nonzero;stroke:none"
         transform="translate(301.338,233.403)"
         d="m 5.25248,0.250558 c 0,0 -7.21121,3.457872 -4.734669,8.755542 2.476539,5.2977 5.139399,8.1816 9.603489,7.1143 4.4635,-1.0675 4.7834,-3.9831 2.5614,-8.35411 C 10.4612,3.39525 10.42,-1.12249 5.25248,0.250558 Z" />
      <path
         id="path2531"
         style="fill:#000000;fill-rule:nonzero;stroke:none"
         transform="translate(287.591,188.877)"
         d="m 4.81174,12.3097 c 0,0 6.02456,-14.03486 12.17456,-12.132396 C 23.1364,2.07977 29.4419,5.31469 29.1357,9.79064 28.8319,14.2666 25.0357,18.3262 20.238,13.436 15.4408,8.54583 9.45181,5.77308 8.83727,12.9384 8.22272,20.1037 7.8392,27.3258 2.92051,24.2251 -1.9976,21.1244 0.184278,20.0539 2.99504,17.3449 5.80465,14.6359 4.81289,12.3098 4.81289,12.3098 Z" />
      <path
         id="path2533"
         style="fill:#000000;fill-rule:nonzero;stroke:none"
         transform="translate(118.683,1.47916)"
         d="M 6.83915,12.2215 C 7.09712,13.3276 10.2559,10.8806 8.43973,7.89306 6.62245,4.90567 0,0 0,0 c 0,0 0.527411,10.115 3.01943,11.3368 2.48973,1.2223 3.81972,0.8847 3.81972,0.8847 z" />
      <path
         id="path2535"
         style="fill:#000000;fill-rule:nonzero;stroke:none"
         transform="translate(133.025)"
         d="M 6.98935,12.1361 C 7.25879,13.239 10.3894,10.7532 8.53661,7.78826 6.68265,4.82352 0,0 0,0 c 0,0 0.650665,10.1077 3.15931,11.2987 2.50463,1.1914 3.83004,0.8374 3.83004,0.8374 z" />
    </g>
  </g>
</svg>
