<?xml version="1.0" encoding="UTF-8" standalone="no"?>
<svg
   xmlns:dc="http://purl.org/dc/elements/1.1/"
   xmlns:cc="http://creativecommons.org/ns#"
   xmlns:rdf="http://www.w3.org/1999/02/22-rdf-syntax-ns#"
   xmlns:svg="http://www.w3.org/2000/svg"
   xmlns="http://www.w3.org/2000/svg"
   xmlns:sodipodi="http://sodipodi.sourceforge.net/DTD/sodipodi-0.dtd"
   xmlns:inkscape="http://www.inkscape.org/namespaces/inkscape"
   sodipodi:docname="barp-color.svg"
   inkscape:version="1.0 (4035a4fb49, 2020-05-01)"
   id="svg8"
   version="1.1"
   viewBox="0 0 194.315 210.86221"
   height="210.86221mm"
   width="194.315mm">
  <defs
     id="defs2" />
  <sodipodi:namedview
     inkscape:window-maximized="0"
     inkscape:window-y="34"
     inkscape:window-x="10"
     inkscape:window-height="1034"
     inkscape:window-width="1898"
     fit-margin-bottom="0"
     fit-margin-right="0"
     fit-margin-left="0"
     fit-margin-top="0"
     showgrid="false"
     inkscape:document-rotation="0"
     inkscape:current-layer="layer1"
     inkscape:document-units="mm"
     inkscape:cy="329.65163"
     inkscape:cx="643.11733"
     inkscape:zoom="0.60434316"
     inkscape:pageshadow="2"
     inkscape:pageopacity="0.0"
     borderopacity="1.0"
     bordercolor="#666666"
     pagecolor="#ffffff"
     id="base" />
  <metadata
     id="metadata5">
    <rdf:RDF>
      <cc:Work
         rdf:about="">
        <dc:format>image/svg+xml</dc:format>
        <dc:type
           rdf:resource="http://purl.org/dc/dcmitype/StillImage" />
        <dc:title></dc:title>
      </cc:Work>
    </rdf:RDF>
  </metadata>
  <g
     transform="translate(-8.7479069,-39.607822)"
     id="layer1"
     inkscape:groupmode="layer"
     inkscape:label="Layer 1">
    <path
       sodipodi:nodetypes="ccccccccccsccccccccccccccccccccccccccccccccsccccccccccccccccccccccccccccccc"
       id="path849"
       d="m 67.048998,236.29005 9.331323,7.77089 9.352504,2.00961 4.717151,-1.63205 2.92314,-6.2498 -2.862098,-10.02091 5.188899,-4.63665 2.948541,-1.78772 10.859882,1.29862 5.69249,0.57121 c 0,0 2.85865,4.674 1.82037,6.60838 -1.03828,1.93437 -2.65454,7.5615 -2.65454,7.5615 l 1.6546,6.64964 3.78088,4.13493 7.39244,1.14822 3.56615,-3.69442 4.45533,-2.60701 3.95482,-6.51946 3.18123,-8.50234 0.87604,-2.36975 3.21739,-2.44112 0.13438,-3.52744 -2.05544,-2.38284 -5.69738,0.9108 -0.19775,-4.59924 2.0594,-5.35832 3.63371,-5.78791 1.21608,-7.21588 -2.57686,-6.97158 -5.86712,-6.50016 -0.8563,-2.31787 3.89449,-3.15372 6.76151,-7.48684 0.75763,-8.3362 -1.80433,-6.9434 -7.39218,-9.45761 -3.81037,-3.35559 0.10556,-5.03533 0.45089,-2.11851 0.092,-2.50141 -8.76692,5.31192 -0.5115,1.51268 c -9.50015,-2.78363 -14.56748,-2.87429 -26.471958,0.71173 0,0 -3.509206,2.73066 -5.281925,2.26214 -1.772716,-0.46852 -8.26248,-2.87701 -8.26248,-2.87701 l -1.517383,6.95085 0.159788,3.13009 -1.691027,2.6789 -5.920094,7.98503 v 7.32628 l 4.537805,8.12928 3.442872,2.28744 1.608794,2.10741 -0.901647,1.26522 -8.500808,7.4957 -5.977893,4.0795 -2.717789,2.98545 -1.349526,2.20621 -4.255215,-0.45479 -18.877856,-4.44934 -8.20138,-1.82929 -6.698485,2.79035 -0.830635,4.61358 9.005424,4.11351 30.797026,3.16997 3.220193,4.28575 3.116361,4.64145 -2.651776,-0.67837 0.508156,0.50868 -2.331249,0.89968 -5.469075,-2.33071 -4.854898,1.36286 -2.02533,5.75145 1.981658,7.4962 z"
       style="fill:#f1c109;fill-opacity:1;stroke-width:0.423333;stroke-linecap:round;stroke-opacity:0.0584339" />
    <path
       id="path851"
       d="m 102.15896,156.11693 c 0,0 6.87009,5.82671 6.87009,5.5796 0,-0.24711 9.86017,-9.17364 9.86017,-9.17364 l 3.95774,-7.60312 -0.55289,-4.56954 -7.1424,1.22246 0.39046,5.57688 2.13785,3.81437 -4.96774,3.2223 -4.96594,-1.38886 -5.97512,2.7259 z"
       style="fill:#ffffff;fill-opacity:1;stroke-width:0.423333;stroke-linecap:round;stroke-opacity:0.0584339" />
    <path
       transform="scale(0.26458333)"
       d="m 115.72266,177.40625 -38.925785,15.88672 -33.810547,27.55859 -8.601562,12.40625 15.714843,23.3086 21.947266,39.58007 8.451172,14.79493 23.087893,45.79101 55.52344,96.14453 5.61328,4.6836 6.6289,1.05859 27.16211,-14.72461 24.32617,-17.68945 19.375,-17.91211 13.23243,-18.85938 7.44726,-27.35937 0.4082,-25.01953 c 0,0 -4.54882,-21.14968 -4.54882,-22.70899 0,-1.55931 -8.27539,-20.96875 -8.27539,-20.96875 l -8.58594,-16.02539 -14.48828,-12.2539 -22.5,-4.6875 -34.71875,8.32617 -11.41211,2.88281 19.49218,-34.7168 2.95118,-20.05078 -7.3125,-21.32617 -4.38086,-8.39062 -19.00782,-9.67579 z m 4.86132,46.7168 5.10157,4.72656 4.86328,16.41797 -7.37305,18.46289 -4.07617,2.03515 -2.80469,-2.24023 c 0,0 -9.32239,-11.17613 -10.42969,-12.52539 -1.1073,-1.34927 -12.150386,-21.76953 -12.150386,-21.76953 l 4.458984,-3.83008 z m 55.1543,98.66211 19.06641,4.62695 9.62304,13.43945 -0.39257,14.03516 -2.77149,14.7207 -10.68359,11.7461 -6.28125,6.14843 -35.30664,-51.32422 1.98828,-5.875 z"
       style="fill:#00ff46;fill-opacity:1;stroke-width:1.6;stroke-linecap:round;stroke-opacity:0.0584339"
       id="path853" />
    <path
       transform="scale(0.26458333)"
       d="m 337.44727,152.14258 -41.59961,9.03906 -10.79688,97.64258 -20.66211,163.50976 2.23828,4.02344 52.35157,-7.32226 5.9746,-53.52539 42.58985,-6.55274 14.12305,53.07813 47.23437,-17.66407 -1.72461,-4.95507 -30.41016,-84.48829 -22.83593,-70.92968 -31.15821,-72.67774 z m -5.61719,70.5625 20.08203,71.30273 -21.72656,5.48242 -10.02344,-4.75976 2.45703,-65.96289 z"
       style="fill:#00ff46;fill-opacity:1;stroke-width:1.6;stroke-linecap:round;stroke-opacity:0.0584339"
       id="path855" />
    <path
       transform="scale(0.26458333)"
       d="m 457.82617,154.26172 -19.80664,4.85742 -1.4043,67.05664 2.03907,68.80274 -1.41797,118.52148 55.42578,1.66016 -0.23828,-26.69532 0.55469,-35.81054 2.7832,-2.89258 16.83789,24.31445 27.48242,39.21875 52.08008,-31.05469 -10.18555,-12.01562 -15.26562,-16.30664 -14.72461,-21.0332 -16.91211,-20.61719 -3.7461,-7.21094 3.07422,-2.85937 10.18555,-7.34961 10.78125,-14.46094 12.67188,-23.7207 5.92968,-27.18555 -4.10937,-28.08008 -11.85547,-22.82422 -16.39063,-16.66797 -23.91211,-6.41015 z m 36.75195,44.26758 25.66797,17.61914 1.50782,19.23828 -6.74024,17.53906 -12.86523,16.14453 -12.06055,2.96485 -3.94922,-72.96094 z"
       style="fill:#00ff46;fill-opacity:1;stroke-width:1.6;stroke-linecap:round;stroke-opacity:0.0584339"
       id="path857" />
    <path
       transform="scale(0.26458333)"
       d="m 669.82812,172.22266 -33.58789,5.00586 -11.73828,4.49218 -3.5957,33.30078 -10.31836,107.89258 -7.59375,114.18946 c 0,0 0.42659,4.54271 0.69531,5.10937 0.26858,0.56667 48.30274,-2.3125 48.30274,-2.3125 l 6.76758,-0.82227 5.01367,-17.12109 c 0,0 -0.67425,-45.70843 1.06445,-55.23437 1.7387,-9.52593 10.49805,-8.48047 10.49805,-8.48047 l 10.52929,-8.60742 28.72657,-12.08008 22.58398,-16.35938 14.55274,-18.77148 11.86523,-32.49024 -0.97852,-35.09375 -11.3125,-23.55078 L 736.5,194.05078 710.40039,178.4082 Z m -2.57617,51.93554 15.09375,1.62305 19.11719,14.64648 8.63281,22.19141 -6.69531,21.67774 -17.39258,12.45117 -11,2.21679 -12.48047,-1.99804 z"
       style="fill:#00ff46;fill-opacity:1;stroke-width:1.6;stroke-linecap:round;stroke-opacity:0.0584339"
       id="path859" />
    <path
       id="path847"
       d="m 119.98936,249.88823 c -0.40951,-0.37953 -0.8459,-0.69005 -0.96975,-0.69005 -2.79275,0 -5.89814,-8.65085 -4.70139,-13.09687 1.16696,-4.33532 3.26673,-8.55243 5.66483,-11.37708 0.37064,-0.43657 1.15416,-1.35942 1.74115,-2.05079 3.92194,-4.61933 13.17318,-7.57724 15.37066,-4.91447 0.7261,0.87984 0.7261,0.87984 1.59696,0.38737 3.13522,-1.77295 7.59877,-1.28068 8.86514,0.97771 1.02041,1.81977 -0.44484,5.41432 -2.81765,6.9122 -0.93729,0.59169 -1.03853,0.80228 -2.12355,4.41714 -2.08531,6.94748 -5.73442,13.16168 -8.93232,15.21118 -3.21432,2.06003 -3.57491,2.33787 -3.79896,2.92717 -0.12681,0.33355 -0.26328,0.60778 -0.30327,0.60941 -0.04,0.002 -1.38238,0.24807 -2.98311,0.54765 -4.9609,0.92844 -5.73965,0.94487 -6.60874,0.13943 z m 7.59988,-2.83937 c 7.04889,-2.39334 10.37763,-6.84564 13.18533,-17.63584 0.55565,-2.13536 0.61518,-2.23057 2.3705,-3.79059 2.87068,-2.55131 3.22998,-3.92543 1.43785,-5.49893 -2.05176,-1.80147 -5.74232,-0.89018 -6.88821,1.70086 -0.69118,1.56289 -1.48021,2.50299 -2.10077,2.50299 -0.52142,0 -0.51849,-1.11403 0.006,-2.12752 2.00253,-3.87247 -4.64206,-4.37176 -10.07292,-0.75691 -9.9505,6.62319 -12.63421,24.63926 -3.87006,25.98013 2.01249,0.3079 4.35981,0.15985 5.93266,-0.37419 z m -1.74079,-5.96456 c -0.43699,-0.437 -0.0767,-1.32913 1.16931,-2.89495 1.29595,-1.62864 1.87386,-1.99664 2.23017,-1.42013 0.68737,1.1122 -2.5249,5.18966 -3.39948,4.31508 z m 7.68507,-7.39619 c -0.71169,-0.71168 0.33456,-3.50674 1.4639,-3.91084 1.61653,-0.57843 1.90181,0.32101 0.79495,2.50629 -0.70405,1.39 -1.67171,1.99169 -2.25885,1.40455 z m -7.49994,-1.81687 c -0.31983,-0.83345 2.21262,-4.1043 3.17774,-4.1043 1.85604,0 0.65305,3.66119 -1.3894,4.22852 -1.29669,0.36018 -1.61084,0.33836 -1.78834,-0.12422 z m -44.282352,14.55254 c -7.725069,-1.44514 -14.859296,-6.72763 -19.836911,-14.68809 -0.500462,-0.80037 -1.287978,-1.93146 -1.750041,-2.51355 -8.081825,-10.18111 0.520253,-23.68817 9.803794,-15.39401 0.525497,0.4695 0.555114,0.46102 1.238941,-0.3545 0.595598,-0.7103 0.781312,-0.79228 1.239377,-0.54714 0.658453,0.3524 1.102757,0.37045 1.102757,0.0448 0,-0.13396 -0.348528,-0.32011 -0.774504,-0.41367 -2.300791,-0.50534 -5.928633,-5.7301 -6.765452,-9.7435 -0.280098,-1.34336 -0.570331,-2.03584 -0.99205,-2.36697 -0.608491,-0.4778 -0.348946,-0.98483 0.679627,-1.32769 0.718249,-0.23941 -0.136432,-0.92449 -1.355037,-1.08614 -0.723236,-0.096 -2.19189,-0.39669 -3.263678,-0.66832 -3.737509,-0.94725 -3.610951,-0.95684 -3.9492,0.29932 -1.051409,3.90464 -0.901623,4.5903 1.051023,4.81122 2.19627,0.24848 5.050521,1.38494 5.050521,2.01094 0,0.11146 -1.518047,0.16028 -3.373438,0.10848 -1.855391,-0.0518 -5.992813,-0.15814 -9.194271,-0.23629 -8.100801,-0.19776 -12.070202,-0.80804 -18.282021,-2.81079 -4.35829,-1.40515 -6.050617,-4.84969 -4.089733,-8.32419 0.428606,-0.75945 0.709298,-1.45081 0.623755,-1.53635 -0.359585,-0.35958 0.557244,-0.91093 1.973297,-1.18667 6.67534,-1.29985 6.689932,-1.30051 9.985119,-0.44996 2.605238,0.67246 6.299271,1.4974 9.392708,2.09754 2.608913,0.50614 5.293135,1.16849 5.953125,1.46897 1.400006,0.63741 5.661967,1.87055 6.464956,1.87055 0.267309,0 0.827046,0.17786 1.243862,0.39524 0.416817,0.21739 1.018712,0.39598 1.337546,0.39688 0.318833,7.9e-4 0.653282,0.12069 0.74322,0.26621 0.334684,0.54154 0.657815,0.21661 1.636246,-1.64535 1.250069,-2.37888 3.724879,-5.06036 5.491107,-5.94967 0.736622,-0.37089 1.84267,-1.13546 2.457882,-1.69904 0.615212,-0.56358 1.375063,-1.02469 1.68856,-1.02469 0.834967,0 2.073945,-0.84974 3.755398,-2.57561 2.293964,-2.35455 4.972362,-4.56139 5.542161,-4.56639 0.474446,-0.004 0.138578,1.28492 -0.487315,1.87036 -1.170101,1.09448 -1.288394,1.53417 -0.494014,1.83619 1.103802,0.41966 0.648076,0.93478 -0.739939,0.83636 -1.361252,-0.0965 -2.663359,0.44652 -3.120972,1.30158 -0.409041,0.7643 -0.420976,0.76092 2.895513,0.81927 3.606667,0.0635 3.541583,-0.0278 2.040427,2.86173 -1.639967,3.15676 -1.633842,3.18493 0.567758,2.61073 1.858992,-0.48485 3.816689,-0.59703 4.65586,-0.26681 0.837843,0.32971 -0.111704,0.8341 -2.10045,1.11574 -3.81625,0.54045 -5.39968,1.25484 -5.39968,2.43615 0,0.58524 0.0587,0.5819 5.788321,-0.32912 3.657661,-0.58158 4.045008,-0.56063 3.569578,0.19308 -0.201062,0.31875 -0.986411,0.53925 -2.768766,0.77737 -1.368449,0.18282 -2.785748,0.44829 -3.14955,0.58993 -0.363802,0.14164 -1.108977,0.33534 -1.655948,0.43045 -1.211596,0.21066 -2.312802,1.02955 -2.312802,1.71986 0,0.65272 0.275706,0.64219 3.237838,-0.12366 2.839292,-0.73409 6.576272,-1.00679 6.748886,-0.49248 0.140624,0.41899 -1.002969,0.85875 -2.264886,0.87095 -0.536228,0.005 -1.659572,0.18377 -2.496317,0.39687 -0.836745,0.2131 -2.181688,0.55169 -2.98876,0.75243 -2.212136,0.5502 -2.118032,1.03639 0.755729,3.90441 1.946101,1.94221 2.179641,2.3965 1.532896,2.98179 -1.043218,0.9441 -2.112066,0.56235 -4.074406,-1.45522 -1.825578,-1.87696 -1.825578,-1.87696 -6.49609,-1.72895 -6.432471,0.20383 -8.506974,0.4172 -8.506974,0.87495 0,1.28403 2.352697,4.5239 3.771924,5.19428 1.399183,0.6609 9.534205,1.53903 11.441618,1.23505 0.577056,-0.092 0.79375,-0.0211 0.79375,0.25953 0,0.61546 -1.627619,0.90952 -4.696354,0.84846 -2.039718,-0.0406 -2.844271,0.0317 -2.844271,0.25537 0,0.20585 -0.157488,0.17575 -0.463021,-0.0885 -0.435205,-0.37636 -1.990325,-1.00451 -2.486877,-1.00451 -0.433419,0 -0.219204,0.53779 0.443852,1.11431 0.367927,0.31991 0.613833,0.7253 0.546463,0.90087 -0.09103,0.2372 0.09038,0.25816 0.706085,0.0816 0.838571,-0.2405 9.185371,-0.0745 9.446393,0.18783 0.411025,0.41314 -1.090706,1.10613 -1.896319,0.87509 -0.460664,-0.13212 -0.88927,-0.18851 -0.952461,-0.12533 -0.06319,0.0632 0.196816,0.19313 0.577789,0.28875 3.235087,0.81195 -2.925296,1.23849 -8.889791,0.61552 -3.1525,-0.32928 -4.175863,-0.20337 -4.175863,0.51377 0,0.26045 -0.174808,0.70467 -0.388461,0.98714 -1.164069,1.53904 0.248687,3.88621 2.612641,4.34068 0.886754,0.17048 2.14806,0.43159 2.802903,0.58025 0.676776,0.15364 3.464867,0.23152 6.460205,0.18044 5.348383,-0.0912 6.582039,0.12382 4.624837,0.80611 -0.969677,0.33803 -10.764028,0.38128 -12.738687,0.0562 -1.566236,-0.2578 -1.655826,0.12158 -0.339548,1.43786 0.91722,0.91722 0.91722,0.91722 4.564062,0.93164 2.005762,0.008 4.658871,0.19322 5.895798,0.41174 1.236927,0.21853 2.814505,0.46165 3.505729,0.54028 0.691224,0.0786 1.256771,0.22673 1.256771,0.3291 0,0.85465 -1.944775,1.06831 -4.012372,0.44082 -1.366657,-0.41476 -7.465031,-0.66617 -7.808563,-0.32191 -0.78658,0.78824 2.577772,2.02514 5.508371,2.02514 1.218359,0 1.765274,0.13087 2.29798,0.5499 0.911075,0.71665 2.483083,0.50911 4.312069,-0.5693 0.722317,-0.4259 1.374126,-0.77435 1.448469,-0.77435 0.339106,0 3.346998,-2.21599 4.475332,-3.29709 0.689314,-0.66046 1.354566,-1.20083 1.478341,-1.20083 0.123772,0 0.604247,-0.41672 1.067721,-0.92604 0.81395,-0.89448 2.10367,-1.26624 2.449814,-0.70617 0.31925,0.51656 9.16938,1.70309 12.06617,1.6177 3.66993,-0.10818 3.70417,-0.1009 3.70417,0.78724 0,1.11839 -1.25728,1.27385 -9.12813,1.12869 -4.25193,-0.0784 -4.61165,-0.12624 -6.57768,-0.87446 -2.658913,-1.01193 -2.754425,-0.98571 -4.451772,1.222 -0.783161,1.01864 -1.866373,2.13992 -2.407134,2.49172 -1.182915,0.76957 -1.19371,0.93312 -0.228425,3.4614 1.54333,4.04232 1.681485,5.17256 0.968568,7.92379 -1.689121,6.51853 -5.688518,9.06071 -12.306679,7.82264 z m 4.640583,-2.70242 c -0.09861,-0.39288 -0.593984,-1.4219 -1.100836,-2.28671 -0.843172,-1.43865 -0.999077,-2.29063 -0.419172,-2.29063 0.427067,0 1.337953,1.19087 2.224405,2.90813 2.534431,4.90976 6.559357,-2.12507 4.624301,-8.08243 -1.596478,-4.91499 -1.3677,-4.69467 -3.712726,-3.57549 -2.353072,1.12302 -4.949923,0.98233 -10.357597,-0.56112 -4.722233,-1.34782 -10.451041,-9.05251 -10.451041,-14.05563 0,-2.50798 -4.257421,-3.57422 -6.16711,-1.54452 -0.784474,0.83378 -1.502923,2.83518 -1.676556,4.67043 -0.502073,5.30672 9.482656,18.71223 16.641062,22.34232 0.400182,0.20294 0.727604,0.46792 0.727604,0.58885 0,0.12093 0.231097,0.21987 0.513551,0.21987 0.282453,0 0.576111,0.10123 0.652571,0.22494 0.07646,0.12372 1.006223,0.49564 2.066136,0.82648 1.059913,0.33086 2.04769,0.69701 2.195055,0.81369 0.271333,0.21482 1.537938,0.39059 3.398766,0.47167 0.983814,0.0429 1.014362,0.0186 0.841587,-0.66985 z M 55.127138,201.17631 c 0.127117,-0.58208 0.45956,-1.94117 0.738765,-3.02019 0.544232,-2.10326 0.456012,-2.39109 -0.7355,-2.39972 -0.960046,-0.007 -2.402464,5.3547 -1.676027,6.23001 0.61645,0.74277 1.418466,0.35437 1.672762,-0.8101 z m 22.060028,0.74049 c 5.240766,-0.16722 5.387829,-0.22127 4.407918,-1.62029 -0.36169,-0.51639 -0.575169,-0.57783 -1.521354,-0.43787 -0.605345,0.0895 -3.393122,0.25055 -6.195063,0.3578 -5.33669,0.20426 -5.89979,0.3418 -5.379532,1.31391 0.293159,0.54777 2.080985,0.89449 3.330218,0.64585 0.291042,-0.0579 2.702057,-0.17466 5.357813,-0.2594 z m -27.68707,-1.40195 c 0.08818,-0.80036 0.497774,-2.44622 0.910212,-3.65745 0.858359,-2.52081 0.843793,-2.55195 -1.32247,-2.82748 -0.734562,-0.0934 -2.327235,-0.39895 -3.539273,-0.67893 -4.026183,-0.93005 -5.047456,-0.0342 -5.484415,4.81109 -0.252976,2.80514 0.208311,3.0835 6.073235,3.66474 3.288001,0.32587 3.177514,0.36897 3.362711,-1.31197 z m 2.469404,0.72761 c 0.194577,-0.47295 0.436645,-1.39568 0.537933,-2.05052 0.101287,-0.65485 0.350678,-1.77087 0.554204,-2.48005 0.566782,-1.97495 -0.349271,-2.59318 -1.127763,-0.7611 -0.374978,0.88246 -1.649164,5.44439 -1.662761,5.95313 -0.01783,0.66697 1.375032,0.1245 1.698387,-0.66146 z m -13.213707,-1.5875 c -0.238464,-1.30681 0.262924,-4.15537 1.000524,-5.68434 0.755111,-1.56527 0.720784,-1.65785 -0.614706,-1.65785 -1.785586,0 -3.597005,5.60478 -2.315009,7.16296 1.014066,1.23252 2.14049,1.33717 1.929191,0.17923 z m -3.566639,-1.45521 c 0.0041,-1.12082 0.440227,-3.562 0.95264,-5.33232 0.184079,-0.63596 0.184079,-0.63596 -2.013368,-0.48534 -5.044398,0.34574 -5.629278,4.22316 -0.983885,6.5226 1.753667,0.86805 2.039223,0.7696 2.044613,-0.70494 z m 46.297491,0.49743 c 0,-0.9373 -11.723712,-1.5794 -12.700313,-0.69559 -1.245647,1.1273 -0.923319,1.19035 6.085729,1.19035 6.28485,0 6.614584,-0.0247 6.614584,-0.49476 z m 0.36154,-2.02211 c 0.08446,-0.22011 0.235386,-1.19878 0.335386,-2.17481 0.124386,-1.21409 0.33212,-1.9025 0.657688,-2.17949 2.183452,-1.85769 1.305147,-2.56346 -3.055237,-2.45505 -6.250466,0.1554 -8.097075,1.05948 -10.265256,5.02578 -0.258244,0.47241 -0.469538,0.95997 -0.469538,1.08345 0,0.12348 1.934766,0.31004 4.299479,0.41456 2.364714,0.10453 4.775729,0.2879 5.357813,0.40748 1.780672,0.36583 2.970226,0.31963 3.139665,-0.12192 z m 2.886329,-8.26539 c 0.496453,-0.54857 1.05569,-1.91961 0.780478,-1.91344 -1.853475,0.0416 -6.274186,0.57273 -6.729957,0.80859 -2.319589,1.20038 -1.785329,1.5591 2.329873,1.56431 2.716326,0.003 3.263556,-0.066 3.619606,-0.45946 z m 52.843796,26.82903 c 0,-1.38146 0.43254,-2.72097 1.09134,-3.37978 0.52764,-0.52764 0.92402,-1.74399 0.65576,-2.01226 -0.0927,-0.0927 -2.1013,-0.0439 -4.46355,0.10834 -4.76001,0.30687 -4.53993,0.32738 -4.30859,-0.40151 0.18288,-0.57623 2.34349,-0.87016 6.88712,-0.93692 2.29024,-0.0336 2.48497,-0.11445 3.90328,-1.61944 1.13356,-1.20284 3.24164,-5.91348 2.8304,-6.32472 -0.0748,-0.0748 -0.78577,0.0255 -1.57994,0.22292 -0.79417,0.1974 -2.8872,0.42885 -4.65118,0.51432 -1.76398,0.0855 -3.96663,0.32453 -4.89479,0.53123 -2.56092,0.5703 -4.41449,0.67423 -4.75289,0.26649 -0.42291,-0.50957 -0.11577,-0.80815 1.00836,-0.98029 0.54925,-0.0841 1.77255,-0.28663 2.71843,-0.45005 0.94589,-0.16342 3.56526,-0.41458 5.82084,-0.55815 6.86808,-0.43715 6.20601,-0.30561 6.30044,-1.25173 0.0827,-0.82891 0.0827,-0.82891 -1.45521,-0.6864 -0.84587,0.0784 -3.44294,0.2575 -5.77128,0.39804 -2.32833,0.14054 -5.36442,0.41825 -6.74687,0.61714 -1.38245,0.19888 -2.61865,0.26484 -2.74711,0.14658 -0.49286,-0.45371 0.0972,-1.01045 1.21034,-1.14194 0.62694,-0.074 2.15193,-0.25992 3.38885,-0.41303 1.23693,-0.15311 4.44406,-0.33737 7.12696,-0.40948 6.03036,-0.16207 6.42156,-0.69027 3.66731,-4.95162 -3.81414,-5.90123 -4.32374,-6.07275 -13.96927,-4.70192 -2.23654,0.31787 -2.11666,0.33232 -2.11666,-0.25528 0,-0.69184 1.72617,-1.03315 6.47931,-1.28111 3.22172,-0.16806 3.71264,-0.25296 3.78956,-0.65533 0.21801,-1.1403 -6.44622,-1.09188 -8.99617,0.0654 -1.5462,0.70171 -1.85462,0.67378 -1.7533,-0.15874 0.11982,-0.98454 1.55577,-1.41025 5.2111,-1.5449 2.92553,-0.10776 3.72035,-0.32561 3.35354,-0.91913 -0.27523,-0.44533 -2.10796,-0.26393 -6.69091,0.66225 -0.66447,0.13429 -0.89416,0.073 -1.02732,-0.27396 -0.28668,-0.74708 0.19504,-0.92862 3.6186,-1.36366 3.59062,-0.45627 4.34978,-0.76675 4.60407,-1.88299 0.22869,-1.00388 0.56672,-1.37511 2.25943,-2.48132 4.91498,-3.21202 7.75751,-8.00917 8.8803,-14.98665 0.41385,-2.57184 0.41364,-2.57398 -0.59302,-6.08628 -0.88841,-3.09967 -5.15367,-9.12448 -7.34881,-10.38042 -0.80105,-0.45831 -1.51228,-0.92363 -1.58051,-1.03403 -0.0682,-0.1104 -0.99349,-0.53576 -2.05611,-0.94523 -4.46589,-1.72089 -5.76851,-2.46966 -5.76851,-3.31583 0,-0.26575 -0.63888,-0.80599 -1.59419,-1.34806 -2.73927,-1.55434 -2.62345,-1.3401 -1.47928,-2.73641 0.62929,-0.76796 1.61059,-1.5333 2.61803,-2.04185 2.28935,-1.15566 6.06605,-3.52528 6.65394,-4.17489 1.22863,-1.35762 1.81532,-0.44677 1.03004,1.59915 -1.0335,2.69261 -0.64006,9.48948 0.57666,9.96213 4.37926,1.70115 7.38041,4.60277 9.84456,9.51802 1.40288,2.79833 1.33734,2.75793 2.43884,1.50339 1.52515,-1.73704 5.48814,-2.89638 6.35018,-1.85768 0.30137,0.36312 -0.0853,0.93292 -0.41166,0.60658 -0.30684,-0.30683 -3.4104,0.67674 -4.49927,1.4259 -1.46377,1.0071 -1.38102,1.31907 0.46967,1.77076 1.70259,0.41554 4.02338,2.04381 4.14848,2.91057 0.11212,0.77678 -0.99447,0.83686 -1.19633,0.065 -0.19559,-0.74794 -2.24718,-1.86014 -3.76225,-2.03957 -1.29655,-0.15356 -1.29655,-0.15356 -1.26889,2.46019 0.0251,2.374 -0.22827,4.09034 -1.10849,7.50854 -1.30726,5.07655 -6.23102,11.33221 -10.8064,13.72961 -1.08276,0.56734 -0.76059,1.43687 1.15616,3.12049 9.18568,8.06845 10.96191,16.10275 5.25364,23.76344 -2.17884,2.92408 -3.79916,6.24677 -3.8185,7.83035 -0.013,1.06808 -0.65844,1.82694 -1.5538,1.82694 -0.50156,0 -0.57448,-0.14612 -0.57448,-1.15114 z m -4.53335,-75.17504 c -0.58681,-0.55005 -4.34926,-2.46876 -5.02807,-2.56413 -1.88165,-0.26436 1.41587,2.05752 4.40205,3.0996 0.86701,0.30256 1.20847,0.0105 0.62602,-0.53547 z m 0.73429,-1.59565 c 0.3711,-0.96709 -2.29074,-2.92666 -3.70107,-2.72462 -1.16916,0.16749 -0.74117,0.87569 1.20823,1.99925 2.16728,1.24915 2.27933,1.28175 2.49284,0.72537 z m 0.0949,-4.36358 c 0,-0.29104 -0.10449,-0.52917 -0.23219,-0.52917 -0.34696,0 -0.84776,0.68394 -0.64746,0.88424 0.36222,0.36223 0.87965,0.15337 0.87965,-0.35507 z m -35.32188,80.20983 c -1.653931,-0.36836 -1.195649,-1.27348 0.750303,-1.48188 2.005107,-0.21472 2.464427,-0.59621 3.478347,-2.88887 1.45047,-3.27977 1.20958,-4.40057 -1.57158,-7.312 -4.36771,-4.57231 -5.404649,-6.83059 -5.802437,-12.63672 -0.192402,-2.80832 1.271323,-4.36249 2.013019,-2.13741 0.04407,0.13221 1.3291,0.13683 2.986108,0.0107 3.18093,-0.24206 3.83478,-0.17821 3.83478,0.37448 0,0.2013 -0.20836,0.37304 -0.46302,0.38163 -6.60583,0.2228 -7.368489,1.41234 -4.570134,7.12813 0.151913,0.3103 1.022874,0.44079 3.992414,0.59817 5.46785,0.28978 6.02084,1.24228 0.72563,1.24987 -2.99458,0.004 -3.32808,0.12478 -2.7257,0.9848 0.3327,0.47499 0.78125,0.5602 3.83923,0.72933 4.02199,0.22243 4.5895,0.70354 1.13611,0.96313 -3.56141,0.26771 -3.24133,1.79435 0.38058,1.81519 1.95771,0.0113 2.09345,0.31937 0.45916,1.0423 -1.19449,0.52837 -1.19449,0.52837 -1.03327,1.9306 0.52149,4.53575 -3.8965,10.0354 -7.42954,9.24853 z m -8.598958,-0.82126 c -1.956136,-1.03971 -3.239686,-3.47245 -2.538503,-4.81128 0.736735,-1.40672 1.105159,-1.81688 1.632008,-1.81688 0.802249,0 0.874332,0.16963 0.574334,1.35153 -0.635751,2.50466 2.202294,4.17346 4.962369,2.91793 1.306552,-0.59434 1.583306,-0.92015 2.910417,-3.42629 2.049658,-3.87061 3.312233,-3.32649 1.368171,0.58963 -2.253552,4.53956 -6.015287,6.7333 -8.908796,5.19536 z m 41.539588,0.002 c 0,-0.70888 0.0334,-0.71822 3.30729,-0.92473 2.91041,-0.18359 2.91041,-0.18359 2.36876,0.3679 -0.99971,1.01779 -5.67605,1.47655 -5.67605,0.55675 z m -3.175,-17.72649 c 0,-0.55348 -0.22892,-0.50053 4.7625,-1.10154 5.2861,-0.63649 11.35281,-0.3897 10.53457,0.42854 -0.0802,0.0802 -1.97724,0.21349 -4.2157,0.29624 -2.23845,0.0828 -5.06778,0.3168 -6.28739,0.5201 -3.28345,0.54722 -4.79398,0.50206 -4.79398,-0.14342 z m -30.341654,-9.4357 c -0.293362,-0.76449 1.140499,-1.15935 2.407324,-0.66293 0.48206,0.1889 0.47559,0.22218 -0.12502,0.64286 -0.810017,0.56736 -2.068047,0.57842 -2.282304,0.0201 z m 11.291654,-6.22213 c -15.801557,-1.52154 -23.604008,-11.74192 -15.395382,-20.1663 3.765133,-3.86409 13.825442,-9.05727 15.801612,-8.15687 0.7153,0.32592 4.08702,-0.0481 4.87608,-0.54085 0.75058,-0.46874 0.53178,-0.84677 -0.54015,-0.93323 -5.79054,-0.46702 -5.28574,-6.59249 0.87402,-10.60573 3.11534,-2.02972 8.33552,-1.64806 10.35959,0.75741 1.63751,1.94606 0.46902,6.07474 -2.28715,8.08129 -1.86347,1.35666 -1.59681,1.53562 2.31867,1.5561 11.26117,0.0589 16.58494,3.67494 16.56867,11.25389 -0.0108,5.05989 -4.66741,11.79414 -9.82936,14.21509 -8.67507,4.06862 -14.84566,5.29999 -22.7466,4.5392 z m -1.35591,-23.14532 c 1.53935,-3.20809 1.50722,-3.39136 -0.56232,-3.20712 -2.80932,0.2501 -5.12456,1.7193 -3.70417,2.35058 0.10914,0.0485 0.77319,0.77281 1.47567,1.60955 1.60849,1.91593 1.49555,1.94641 2.79082,-0.75301 z m 12.9643,-10.57244 c 0.61179,-0.14059 0.62337,-0.19412 0.44361,-2.0493 -0.19577,-2.02036 -0.41245,-2.49526 -0.97879,-2.14524 -0.19248,0.11896 -0.7389,0.18279 -1.21427,0.14183 -2.23886,-0.19289 -2.97978,0.5985 -2.97978,3.18278 0,1.49158 1.12426,1.69838 4.72923,0.86993 z m -35.609562,31.90269 c -6.931763,-2.49362 -11.512087,-12.34699 -8.715182,-18.74844 0.487157,-1.11498 0.965674,-2.35466 1.063374,-2.75484 0.0977,-0.40018 0.293415,-0.72761 0.43492,-0.72761 0.141504,0 0.621389,-0.64516 1.066411,-1.43369 0.445018,-0.78854 0.994711,-1.58772 1.221539,-1.77597 0.385535,-0.31997 4.059272,-5.15658 4.059272,-5.34419 0,-0.0472 -0.375394,-0.0307 -0.834205,0.0367 -0.971926,0.14265 -0.969021,-0.0337 0.06016,-3.65367 0.944862,-3.32335 0.943571,-3.20191 0.04204,-3.95455 -1.364477,-1.13911 -1.31818,-2.94458 0.07566,-2.95055 1.497195,-0.006 5.281708,0.70125 5.815722,1.08747 0.14552,0.10525 0.877694,0.39131 1.62705,0.63568 1.649722,0.53799 3.796908,1.91468 3.796908,2.43443 0,0.90893 -1.166638,0.97157 -2.959029,0.15886 -3.863141,-1.75164 -5.132792,-1.75255 -4.120922,-0.003 1.976615,3.41767 2.256126,6.03811 0.705959,6.61845 -0.656831,0.2459 -0.878261,-0.0517 -1.568755,-2.10858 -0.354176,-1.05503 -0.733269,-1.91823 -0.842423,-1.91823 -0.581554,0 -1.076803,1.45488 -1.105807,3.2485 -0.0267,1.65121 -0.12977,2.04011 -0.758502,2.86189 -1.139566,1.48947 -1.044073,1.55967 1.879375,1.38157 1.899568,-0.11573 2.66061,-0.072 2.80462,0.16096 0.324297,0.52473 -0.0013,0.6276 -2.610053,0.82491 -1.87923,0.14214 -2.767995,0.34258 -3.619008,0.81622 -2.015035,1.12149 -1.703129,1.29875 1.958697,1.11317 3.68042,-0.18654 4.625239,-0.0382 3.769132,0.59189 -0.347331,0.25562 -1.221028,0.37797 -2.698956,0.37797 -2.946183,0 -4.581668,0.38519 -5.605307,1.32013 -1.192789,1.08945 -1.070977,1.36331 0.417333,0.93828 1.973315,-0.56355 7.473418,-1.04238 7.833791,-0.68201 0.428969,0.42897 -0.257114,0.79581 -1.497705,0.8008 -1.567048,0.006 -6.670366,1.14749 -7.923586,1.77183 -0.700879,0.34917 -0.727604,0.43853 -0.727604,2.43287 0,3.73919 0.05919,3.79708 3.784563,3.7009 4.64113,-0.11983 4.71887,0.68377 0.104489,1.08012 -2.566776,0.22047 -2.980333,0.44037 -2.726931,1.45 0.210281,0.83783 1.234565,0.90169 4.096433,0.2554 1.839476,-0.41542 2.678946,-0.3748 2.678946,0.12959 0,0.29783 -3.151206,1.35417 -4.039651,1.35417 -1.135004,0 -1.651928,0.58926 -1.019222,1.16185 0.55699,0.50407 0.861219,0.47638 4.29582,-0.39106 1.537499,-0.3883 2.403239,-0.31326 2.303806,0.1997 -0.08197,0.42291 -0.929573,0.71849 -3.786902,1.32062 -1.495427,0.31513 -1.424712,0.84602 0.276326,2.07451 3.255121,2.35086 3.65094,2.66415 3.927808,3.10886 0.783344,1.25822 -0.760507,1.78226 -2.940402,0.99807 z m 15.915682,-34.42711 c -0.29698,-0.48052 0.48458,-1.01844 2.1469,-1.47764 2.17182,-0.59995 2.2779,-0.70952 1.79826,-1.85748 -0.41278,-0.98791 -0.0556,-1.90329 0.56919,-1.45857 0.53254,0.37908 1.71899,2.34792 1.7168,2.84893 -0.005,1.08614 -5.66919,2.85403 -6.23115,1.94476 z m 35.86674,-2.64079 c 0,-0.65273 4.63539,-4.63833 6.01444,-5.17135 1.33116,-0.5145 2.42969,-0.2048 2.99051,0.84312 0.43612,0.8149 0.27321,0.97892 -0.55037,0.55409 -1.25656,-0.64816 -1.53004,-0.66105 -2.54037,-0.11965 -0.83973,0.44997 -3.19317,2.33433 -4.80589,3.84799 -0.4323,0.40575 -1.10832,0.43368 -1.10832,0.0458 z m -38.364588,-4.55806 c 0,-5.00373 10.346218,-8.22654 14.353648,-4.47111 1.61645,1.51481 0.52036,2.2002 -1.35086,0.8447 -3.59698,-2.60564 -8.22368,-1.47465 -11.10539,2.71471 -0.827148,1.20249 -1.897398,1.71675 -1.897398,0.9117 z m -1.543863,-10.47027 c -0.51595,-0.32706 -0.728421,-4.19863 -0.317066,-5.77744 0.181505,-0.69662 0.384832,-1.47495 0.45184,-1.72961 0.07352,-0.27943 0.375042,-0.46302 0.76042,-0.46302 0.883315,0 1.046218,0.86569 0.534512,2.84043 -0.228256,0.88087 -0.416634,2.1797 -0.418621,2.8863 -0.0061,2.15288 -0.261094,2.71874 -1.011085,2.24334 z m -53.754055,-4.3904 c -0.363802,-0.21104 -0.934072,-0.52876 -1.267264,-0.70603 -0.721574,-0.3839 -2.525686,-2.86392 -3.822721,-5.25489 -0.513117,-0.94589 -1.378281,-2.4937 -1.922587,-3.43958 -0.544306,-0.94589 -1.208111,-2.10129 -1.475121,-2.56756 -0.26701,-0.46627 -0.831659,-1.6569 -1.254773,-2.64583 -0.423117,-0.98894 -1.397691,-2.86963 -2.165723,-4.17932 C 29.465288,99.582939 26.697103,94.538661 25.81576,92.697148 23.940114,88.778097 23.279903,87.560167 22.158445,85.950273 21.499537,85.004388 20.19495,82.7422 19.259362,80.92319 17.842596,78.168653 16.525939,75.778502 14.085222,71.530482 13.918002,71.23944 12.911712,69.528761 11.84902,67.728972 8.0238459,61.25061 8.0368692,61.324521 10.262602,58.725768 c 0.626726,-0.731761 2.254718,-2.165034 3.617761,-3.185052 1.363044,-1.020017 2.554687,-1.978236 2.648096,-2.129376 0.47042,-0.761156 7.56859,-5.031899 8.363245,-5.031899 0.169437,0 1.393786,-0.466126 2.720775,-1.035836 7.243866,-3.109973 16.979991,-1.270724 19.10769,3.609629 2.791122,6.402051 2.222731,11.60999 -1.937194,17.749701 -1.504551,2.220598 -1.508951,2.511558 -0.02638,1.744893 2.488406,-1.286804 10.403949,-2.692993 12.308922,-2.186667 4.64044,1.233389 8.551675,4.99651 10.27293,9.883904 0.512498,1.455208 1.375423,3.895989 1.917612,5.423958 1.110801,3.130405 1.337609,7.48923 0.674598,12.964583 -0.541472,4.471654 -3.01892,9.959204 -5.487321,12.154424 -0.582856,0.51835 -1.757958,1.59729 -2.611339,2.39766 -0.85338,0.80036 -2.048709,1.78867 -2.656288,2.19623 -0.607575,0.40756 -1.759529,1.3771 -2.559894,2.15455 -0.800364,0.77744 -1.990989,1.69794 -2.645833,2.04554 -0.654844,0.34761 -1.726406,0.97629 -2.38125,1.39706 -1.330841,0.85515 -3.755284,1.99227 -5.55625,2.606 -0.654844,0.22316 -1.369219,0.4737 -1.5875,0.55675 -0.218281,0.0831 -0.694531,-0.0217 -1.058333,-0.23271 z m 4.186447,-2.15501 c 3.168832,-1.44408 6.663775,-3.57227 8.237096,-5.01584 0.806894,-0.74035 1.89644,-1.63419 2.421212,-1.98631 2.455781,-1.64782 6.304939,-5.60464 7.541496,-7.75242 2.008053,-3.4878 2.217661,-4.01781 2.763401,-6.987553 1.220451,-6.641288 0.956818,-9.767692 -1.332177,-15.798162 -0.552355,-1.455208 -1.21172,-3.300677 -1.465255,-4.101042 -2.857775,-9.021513 -14.006002,-10.904447 -24.318741,-4.107434 -1.008824,0.664906 -1.961324,1.167152 -2.116666,1.1161 -0.564642,-0.185568 -0.44744,-1.159708 0.189764,-1.577218 1.853308,-1.214334 6.082244,-7.775445 6.946448,-10.777281 0.914357,-3.176035 0.63455,-7.30332 -0.694875,-10.24972 -0.278337,-0.616877 -0.506066,-1.220092 -0.506066,-1.340476 0,-0.703465 -2.783854,-2.591239 -4.449512,-3.017283 -8.431638,-2.156653 -16.354094,0.42699 -26.506739,8.644286 -4.6020571,3.724789 -4.9737793,4.471317 -3.346861,6.721495 0.487561,0.67434 1.758148,2.773886 2.823527,4.665657 1.06538,1.89177 2.735428,4.808802 3.711219,6.482291 0.97579,1.67349 2.340011,4.173802 3.031601,5.55625 0.69159,1.382448 2.003734,3.704166 2.915875,5.159375 0.91214,1.455208 2.445312,4.275211 3.407048,6.266674 0.961737,1.991461 2.959018,5.682398 4.438404,8.202083 1.479389,2.519678 3.195132,5.693238 3.812768,7.052348 0.617635,1.35911 1.692206,3.44271 2.387939,4.63021 0.695729,1.18751 1.452073,2.51629 1.680763,2.95285 3.635658,6.94039 4.103108,7.23219 8.428331,5.26112 z m -1.011447,-17.02309 c 0,-0.39049 0.243049,-0.55955 0.992188,-0.69014 5.145632,-0.89703 7.946498,-10.212724 4.330449,-14.403097 -1.670741,-1.936096 -8.648568,-1.634667 -11.598178,0.50102 -0.783666,0.567423 -0.757581,0.70289 0.317045,1.646423 0.506368,0.444595 1.364112,1.542288 1.906101,2.43931 0.928269,1.53634 2.994673,4.611928 4.619085,6.874933 0.798579,1.112511 0.764003,1.789161 -0.08014,1.568411 -0.576133,-0.15066 -0.868894,-0.53008 -3.926131,-5.088316 -1.091406,-1.627251 -2.367799,-3.459557 -2.836426,-4.071792 -2.919529,-3.814199 -0.535728,-6.204286 6.443012,-6.46 7.166689,-0.262602 9.879888,4.105203 7.341259,11.818217 -1.254874,3.812641 -7.508262,8.697431 -7.508262,5.865031 z M 29.847478,70.033879 c -1.901952,-2.265457 -6.040001,-8.777213 -6.040001,-9.504722 0,-2.246441 8.556342,-2.536467 10.226604,-0.346642 3.07861,4.036265 -1.003808,13.642468 -4.186603,9.851364 z m 3.152738,-2.339948 c 1.691587,-6.034111 -0.313878,-8.924796 -5.354944,-7.718641 -2.223412,0.531986 -2.133243,1.455221 0.547947,5.610375 3.177894,4.92492 3.925469,5.252794 4.806997,2.108266 z M 159.24,116.17892 c -0.0188,-0.69123 -0.0102,-1.79255 0.019,-2.4474 0.0292,-0.65484 0.16157,-4.34578 0.29411,-8.20208 0.13254,-3.8563 0.36555,-7.963959 0.51781,-9.128126 0.15226,-1.164166 0.38935,-4.319322 0.52687,-7.011458 0.13751,-2.692135 0.36086,-6.025885 0.49633,-7.408333 0.13546,-1.382448 0.32637,-4.180416 0.42424,-6.217708 0.19253,-4.007961 0.76701,-9.707485 1.21342,-12.038541 0.15328,-0.800365 0.4966,-4.312708 0.76293,-7.805208 0.46301,-6.071474 0.94058,-8.598958 1.62479,-8.598958 0.49228,0 0.52503,0.70018 0.1459,3.119152 -0.22149,1.413164 -0.46807,4.236264 -0.54796,6.273556 -0.0799,2.037291 -0.31763,4.716197 -0.52831,5.953124 -0.50398,2.958868 -1.13413,9.356736 -1.47238,14.948958 -0.14963,2.473854 -0.39313,5.688542 -0.54111,7.14375 -0.64506,6.343327 -1.65203,25.642532 -1.52548,29.236462 0.0865,2.45646 1.14485,2.65404 10.69107,1.99593 3.66004,-0.25233 3.36166,0.77423 3.71708,-12.78821 0.0965,-3.680176 0.28062,-6.756285 0.40927,-6.835798 1.07997,-0.667459 1.20967,3.646728 0.51405,17.098908 -0.19263,3.72505 -0.72909,3.90339 -11.87884,3.949 -4.82864,0.0197 -4.82864,0.0197 -4.86279,-1.23702 z m -89.580119,-3.41564 c -0.09267,-0.2415 -0.01844,-1.33205 0.164944,-2.42346 0.183388,-1.09141 0.431149,-3.18578 0.550576,-4.65415 0.119431,-1.46838 0.343472,-3.38415 0.49787,-4.25727 0.154397,-0.87313 0.395491,-2.540002 0.535762,-3.704169 0.140272,-1.164167 0.378397,-2.831042 0.529167,-3.704167 0.15077,-0.873124 0.396878,-2.539999 0.546907,-3.704166 0.150027,-1.164167 0.387376,-2.926207 0.527444,-3.915645 0.140065,-0.989439 0.376992,-3.787408 0.526505,-6.217709 0.149511,-2.430301 0.395931,-5.728416 0.5476,-7.329146 0.151667,-1.600729 0.378982,-4.160572 0.505143,-5.688541 0.126158,-1.527969 0.414364,-3.790156 0.640456,-5.027083 0.369816,-2.023249 0.883872,-7.521413 1.473766,-15.762877 0.334558,-4.674155 1.050991,-5.351979 5.706666,-5.399125 2.170279,-0.02198 4.083711,-0.307249 6.830504,-1.018352 1.10413,-0.285842 1.033029,-0.353604 1.484289,1.414631 0.149122,0.584321 0.60888,1.596352 1.021688,2.248958 0.970458,1.534195 3.297243,6.591512 3.8935,8.462598 0.255051,0.800365 1.089211,2.824427 1.853687,4.497917 1.295024,2.834891 2.024123,4.972767 5.459105,16.007291 0.7248,2.328333 1.72024,5.423958 2.21209,6.879167 0.49185,1.455208 1.1505,3.538802 1.46366,4.630208 0.31316,1.091406 0.84058,2.69875 1.17205,3.571875 1.63758,4.313618 2.3973,6.221087 3.05601,7.672916 0.39615,0.873125 1.03069,2.449767 1.4101,3.50365 0.3794,1.053883 0.93084,2.388599 1.22542,2.966019 0.65829,1.29035 0.6862,2.44115 0.0726,2.99241 -0.83925,0.75397 -4.78645,2.57694 -6.47653,2.99113 -0.91267,0.22366 -2.43331,0.64759 -3.37919,0.94207 -0.94589,0.29448 -2.0559,0.6384 -2.46668,0.76426 -1.15429,0.35367 -1.390196,0.10883 -1.736099,-1.80184 -0.176673,-0.9759 -0.426352,-2.13155 -0.554839,-2.56812 -0.677235,-2.30105 -0.85113,-2.98953 -0.936805,-3.70899 -0.474305,-3.983033 -0.98479,-6.22969 -1.40907,-6.201358 -0.0949,0.0063 -0.708335,0.127333 -1.363179,0.268878 -0.654843,0.141544 -2.65599,0.484653 -4.446995,0.762465 -4.50946,0.699482 -4.459822,0.616321 -4.826076,8.085255 -0.382646,7.80322 0.0011,7.10413 -4.185492,7.62684 -1.983883,0.24771 -4.738156,0.62645 -6.120604,0.84167 -3.488272,0.54304 -5.787117,0.52618 -6.00593,-0.044 z m 5.389248,-0.9924 c 0.848497,-0.20524 3.190912,-0.59095 5.205364,-0.85715 4.444037,-0.58725 4.027226,0.0328 4.534903,-6.74566 0.632103,-8.439678 0.713425,-8.682076 2.914957,-8.688635 0.727604,-0.0021 2.513542,-0.232207 3.96875,-0.511196 5.335958,-1.022996 5.714032,-1.054976 6.241095,-0.527913 0.490765,0.490765 0.554697,0.754409 1.052941,4.342238 0.984433,7.088816 1.895651,9.591916 3.338911,9.171926 0.5548,-0.16144 1.90169,-0.53548 2.9931,-0.83119 4.16655,-1.12889 7.40833,-2.7948 7.40833,-3.80703 0,-0.12881 -0.28887,-0.90393 -0.64193,-1.72249 -0.35306,-0.81857 -0.96292,-2.321737 -1.35524,-3.340382 -0.39233,-1.018646 -1.07323,-2.566459 -1.51312,-3.439584 -0.43988,-0.873125 -1.13596,-2.599531 -1.54684,-3.836458 -0.41088,-1.236927 -1.16551,-3.260989 -1.67697,-4.497916 -0.51145,-1.236927 -0.92863,-2.427552 -0.92705,-2.645834 0.002,-0.34508 -0.69555,-2.663623 -2.27026,-7.540624 -0.23493,-0.727604 -0.83092,-2.632604 -1.32442,-4.233334 -0.49351,-1.600729 -1.07692,-3.446197 -1.29649,-4.101041 -0.219558,-0.654844 -0.718875,-2.262187 -1.109587,-3.571875 -0.390713,-1.309687 -1.114658,-3.393281 -1.608768,-4.630208 -0.847918,-2.122629 -1.182867,-2.891657 -2.45641,-5.639785 -0.291042,-0.628028 -0.529167,-1.250805 -0.529167,-1.383949 0,-0.455319 -1.181155,-3.16158 -2.972109,-6.809689 -0.984713,-2.005831 -1.790391,-3.747425 -1.790391,-3.870208 0,-0.670216 -0.802888,-0.871003 -1.833671,-0.458565 -0.628827,0.251607 -2.344481,0.488316 -4.302461,0.593612 -3.643503,0.195938 -4.889405,0.557412 -5.093271,1.477711 -0.299723,1.353001 -0.676826,4.839353 -0.6765,6.254289 5.29e-4,1.846386 -0.613297,8.039178 -1.459916,14.731375 -0.638915,5.05038 -1.292759,12.311261 -1.596329,17.727083 -0.08973,1.600729 -0.262236,3.386667 -0.38336,3.96875 -0.121126,0.582083 -0.285938,1.594115 -0.366249,2.248958 -0.08031,0.654844 -0.274918,2.253435 -0.432459,3.552423 -0.157541,1.29899 -0.353626,2.47051 -0.435742,2.603378 -0.224449,0.363167 -1.1175,7.283793 -1.424895,11.042113 -0.148778,1.81901 -0.386147,3.88279 -0.527484,4.58618 -0.387771,1.92979 0.440496,2.22569 3.892738,1.39068 z m 8.962855,-32.114714 c -0.502861,-0.502859 0.300652,-14.851768 1.062485,-18.9736 0.213164,-1.153304 2.365666,-3.097861 2.844027,-2.569277 0.899354,0.993772 2.568258,6.689712 3.388567,11.56511 0.326101,1.938147 1.252754,4.845155 1.979848,6.210993 1.197914,2.250275 0.88012,2.791751 -2.010683,3.425928 -1.311545,0.287723 -7.048198,0.556895 -7.264244,0.340846 z m 7.616418,-1.826074 c 0.411977,-0.210238 0.687972,-0.523034 0.613325,-0.695098 -1.483172,-3.418721 -1.884148,-4.813257 -3.209086,-11.160762 -1.26405,-6.055792 -1.795902,-7.218622 -2.450539,-5.357812 -0.740032,2.103532 -1.663798,17.054935 -1.077558,17.440547 0.573714,0.377375 5.28157,0.202959 6.123858,-0.226875 z m 23.892478,32.518928 c -0.0988,-0.1599 -0.17637,-6.63203 -0.17233,-14.382511 0.005,-8.836644 -0.11084,-15.428568 -0.30956,-17.676405 -0.72773,-8.231769 -0.27022,-35.105239 0.61584,-36.172869 0.57064,-0.687584 1.36606,-0.436484 1.18861,0.375227 -0.69581,3.182982 -0.89789,17.451745 -0.46557,32.874478 0.17744,6.330156 0.28739,16.409617 0.24434,22.398804 -0.043,5.989186 -0.0151,10.953736 0.0621,11.032346 0.0772,0.0786 3.07626,0.18337 6.66462,0.23281 7.46813,0.10291 6.9798,0.28231 6.53999,-2.40267 -0.65736,-4.01305 -0.18771,-14.377834 0.69561,-15.35145 0.47823,-0.527122 0.64374,-0.348009 2.65391,2.87206 1.0045,1.609108 2.54075,4.002889 3.41387,5.319506 0.87313,1.316624 2.3802,3.665464 3.34906,5.219664 2.94235,4.71997 2.93045,4.71512 6.30823,2.5718 1.62927,-1.03383 2.95499,-1.85481 6.60292,-4.08899 3.34116,-2.0463 3.37404,-2.11629 1.68732,-3.591796 -1.28014,-1.119833 -3.84019,-4.05742 -5.88214,-6.749584 -0.49668,-0.654844 -1.77519,-2.088452 -2.84111,-3.185793 -1.88221,-1.937686 -4.54823,-5.626174 -5.27086,-7.292324 -0.52708,-1.215286 -0.0215,-2.637641 1.21498,-3.418205 1.69618,-1.070747 3.90624,-3.788428 5.04297,-6.201259 0.58553,-1.24284 1.17502,-2.438304 1.30998,-2.656585 3.93897,-6.370619 4.01223,-13.440055 0.21386,-20.6375 -2.1378,-4.050866 -4.13225,-5.531044 -9.61854,-7.138381 -2.59207,-0.759406 -17.66729,-1.156978 -19.24369,-0.507504 -1.03146,0.424962 -1.63766,0.146633 -1.25163,-0.574672 0.68458,-1.279152 9.16004,-2.166686 11.47077,-1.201198 0.71141,0.297243 1.77005,0.414509 3.56312,0.394686 1.40306,-0.01551 3.07186,0.09491 3.70845,0.245381 0.63659,0.150471 1.40129,0.18338 1.69932,0.07313 0.38149,-0.141124 1.04307,0.06078 2.23522,0.682177 0.93134,0.485447 1.86748,0.882631 2.08031,0.882631 0.43519,0 1.32224,0.526414 2.88188,1.710231 0.58208,0.441821 1.28937,0.93088 1.57175,1.086797 0.28238,0.155917 0.6296,0.632167 0.7716,1.058333 0.14199,0.426166 0.81333,1.727348 1.49185,2.891514 2.54889,4.373205 3.54711,9.871579 2.52182,13.890625 -0.2413,0.945885 -0.53713,2.105469 -0.65739,2.576851 -0.12027,0.471384 -1.31285,3.049807 -2.65019,5.72983 -2.53882,5.087797 -3.44485,6.319765 -6.47266,8.801086 -1.30655,1.070732 -1.30655,1.070732 -0.26125,2.630961 0.57491,0.858126 1.22239,1.913345 1.43884,2.344933 0.21645,0.431586 1.10843,1.56268 1.98219,2.513542 2.25006,2.448631 4.00323,4.558353 5.94393,7.152796 0.92525,1.236927 2.61526,3.17164 3.75558,4.299362 2.68942,2.659725 2.63693,2.744715 -4.01028,6.493255 -1.6745,0.94429 -3.69939,2.16113 -4.49975,2.70408 -4.02891,2.73313 -4.74857,2.73973 -6.1026,0.056 -1.73009,-3.42911 -8.67351,-13.90949 -9.2943,-14.028756 -0.85452,-0.164172 -0.88696,1.060751 -0.33146,12.514636 0.0776,1.60073 0.0384,3.06129 -0.0873,3.24568 -0.30916,0.4537 -15.23065,0.82262 -15.50218,0.38328 z m 61.84547,-15.787118 c -0.22911,-0.597059 0.12282,-0.938712 0.96694,-0.938712 0.42441,0 1.75684,-0.509646 2.96094,-1.132547 1.20411,-0.6229 2.72507,-1.361919 3.37992,-1.642261 0.65484,-0.280344 2.04549,-1.020855 3.09034,-1.645578 1.04484,-0.624726 1.96632,-1.135864 2.04773,-1.135864 5.21037,0 12.88363,-15.863816 11.64598,-24.077083 -1.08132,-7.175839 -8.08847,-14.721853 -15.13166,-16.295301 -0.98158,-0.219285 -2.56028,-0.628967 -3.50823,-0.910404 -4.04744,-1.201645 -12.27902,-0.631516 -15.64026,1.083262 -1.23056,0.627784 -1.55849,0.266841 -0.71155,-0.783172 0.66242,-0.821248 1.99644,-1.348939 3.42168,-1.353498 0.49244,-0.0016 1.49065,-0.191036 2.21826,-0.421024 2.06895,-0.653973 7.72784,-0.703392 10.05416,-0.0878 1.01865,0.269553 3.07008,0.790766 4.55875,1.15825 6.26811,1.547317 9.7194,4.436169 14.28628,11.958119 2.93374,4.832071 2.7223,11.68884 -0.58632,19.013028 -1.41199,3.125663 -1.8129,3.822004 -3.4482,5.989129 -3.6116,4.786143 -18.7493,13.450729 -19.60476,11.221458 z m -2.23184,-15.253559 c -0.21685,-0.405194 -0.23056,-2.22172 -0.0504,-6.680729 0.13608,-3.368318 0.24532,-7.255309 0.24277,-8.637757 -0.006,-3.128785 0.46526,-5.291666 1.15245,-5.291666 12.71919,0 16.71203,14.885619 5.42511,20.225188 -1.53343,0.725427 -3.9791,1.101839 -4.25531,0.654929 -0.36655,-0.593096 0.7212,-1.300951 1.99915,-1.300951 2.24719,0 6.48878,-3.613616 7.31384,-6.23102 1.60794,-5.100957 -3.00842,-11.782993 -8.17402,-11.83165 -2.09246,-0.01971 -2.31391,1.459381 -2.42701,16.210586 -0.0255,3.322643 -0.45322,4.32807 -1.22656,2.88307 z M 128.47978,67.26198 c -0.0881,-3.327635 -0.23202,-7.957167 -0.31973,-10.287846 -0.19476,-5.174953 -0.0171,-5.625042 2.0953,-5.308267 0.68065,0.10207 1.23755,0.297348 1.23755,0.433952 0,0.136605 0.22611,0.248372 0.50247,0.248372 1.2022,0 5.71946,3.631647 6.41112,5.154208 2.16949,4.775742 -3.52623,14.972841 -8.75501,15.674167 -1.01144,0.135662 -1.01144,0.135662 -1.1717,-5.914586 z m 3.89829,3.497366 c 2.82925,-2.073529 5.83569,-9.466323 4.946,-12.162123 -0.53849,-1.631621 -3.80837,-4.413873 -5.99906,-5.104427 -2.22167,-0.700318 -2.22788,-0.680088 -1.72077,5.60227 0.16445,2.037291 0.30111,5.430572 0.30369,7.540624 0.007,5.396982 0.22813,5.766803 2.47014,4.123656 z"
       style="fill:#000000;stroke-width:0.264583" />
  </g>
</svg>
