<?xml version="1.0" encoding="UTF-8" standalone="no"?>
<svg
   xmlns:dc="http://purl.org/dc/elements/1.1/"
   xmlns:cc="http://creativecommons.org/ns#"
   xmlns:rdf="http://www.w3.org/1999/02/22-rdf-syntax-ns#"
   xmlns:svg="http://www.w3.org/2000/svg"
   xmlns="http://www.w3.org/2000/svg"
   xmlns:sodipodi="http://sodipodi.sourceforge.net/DTD/sodipodi-0.dtd"
   xmlns:inkscape="http://www.inkscape.org/namespaces/inkscape"
   inkscape:version="1.0 (4035a4fb49, 2020-05-01)"
   sodipodi:docname="bigsmile-color.svg"
   viewBox="0 0 512 512"
   height="512"
   width="512"
   id="svg6388"
   version="1.1">
  <metadata
     id="metadata6394">
    <rdf:RDF>
      <cc:Work
         rdf:about="">
        <dc:format>image/svg+xml</dc:format>
        <dc:type
           rdf:resource="http://purl.org/dc/dcmitype/StillImage" />
        <dc:title></dc:title>
      </cc:Work>
    </rdf:RDF>
  </metadata>
  <defs
     id="defs6392" />
  <sodipodi:namedview
     inkscape:current-layer="g6396"
     inkscape:window-maximized="0"
     inkscape:window-y="34"
     inkscape:window-x="10"
     inkscape:cy="169.5664"
     inkscape:cx="240.53831"
     inkscape:zoom="0.84266209"
     inkscape:snap-page="true"
     inkscape:snap-global="true"
     showgrid="false"
     id="namedview6390"
     inkscape:window-height="1034"
     inkscape:window-width="1898"
     inkscape:pageshadow="2"
     inkscape:pageopacity="0"
     guidetolerance="10"
     gridtolerance="10"
     objecttolerance="10"
     borderopacity="1"
     bordercolor="#666666"
     pagecolor="#ffffff" />
  <g
     id="g6396"
     inkscape:label="Image"
     inkscape:groupmode="layer">
    <path
       sodipodi:nodetypes="ccccccccccccccccccccccccccccccc"
       id="path6963"
       d="M 7.6261823,512 65.853788,449.19425 95.517864,405.56687 92.613494,373.71466 18.085554,298.45387 8.1274703,218.6869 22.252642,175.47702 45.145492,137.91208 102.28084,85.102115 80.18569,29.248103 l 75.44392,23.884668 26.73299,1.402205 52.37779,-27.807863 48.58681,-0.230561 19.5074,19.606262 34.47508,8.710968 39.09283,-1.930463 19.08705,-21.541006 35.8301,-8.543203 7.06682,-1.567973 -8.40247,70.952192 24.35524,33.511361 33.57546,50.60399 15.56681,44.83678 -9.32892,69.66794 -30.20885,50.74286 -48.95861,47.56547 -7.99055,9.90619 30.83016,70.77254 L 447.43793,512 Z"
       style="fill:#f1c109;stroke-width:1.6;stroke-linecap:round;stroke-opacity:0.0584339;fill-opacity:1" />
    <path
       sodipodi:nodetypes="csccccccsccccscccccc"
       id="path6967"
       d="m 152.26256,157.29051 c 0,0 25.87784,71.66235 95.62588,77.53496 69.74805,5.87261 90.96387,-29.70888 90.96387,-29.70888 l -37.52464,-68.57386 61.94509,-14.63246 -10.55728,64.12222 -15.59684,9.24338 5.15704,14.21164 c 0,0 33.16487,15.62184 60.1428,6.26505 26.97793,-9.35678 45.80717,-37.79673 45.80717,-37.79673 l 5.97365,25.05156 -0.66378,77.10239 -21.11556,54.83491 c 0,0 -49.12289,55.54156 -124.63542,58.06014 -75.51253,2.51857 -142.90392,-21.84501 -142.90392,-21.84501 l -30.42834,-41.40328 -3.81989,-45.61388 3.64646,-78.09565 11.74785,-42.31131 z"
       style="fill:#ffffff;fill-opacity:1;stroke-width:1.6;stroke-linecap:round;stroke-opacity:0.0584339" />
    <path
       id="path6961"
       d="M 2.25,510.60795 C 3.2125,509.87731 4,508.96519 4,508.58102 4,507.81203 9.5095996,501.59728 17.997624,492.79189 21.023931,489.65243 25.525,484.73017 28,481.85353 c 2.475,-2.87663 7.04415,-7.95798 10.153667,-11.29189 3.109517,-3.3339 7.76397,-8.53664 10.343229,-11.56164 2.579259,-3.025 7.09696,-8.2 10.039336,-11.5 12.89722,-14.46478 16.289644,-18.72589 21.579144,-27.10484 5.384457,-8.52937 10.83552,-21.00103 12.406474,-28.38516 1.601801,-7.52914 9.24461,-13.41745 12.18895,-9.39083 3.22772,4.41417 0.3485,19.29415 -6.153245,31.80031 -1.406655,2.70571 -2.561923,5.63071 -2.567261,6.5 -0.0053,0.86929 -1.591871,3.57092 -3.525628,6.00364 -1.933757,2.43271 -3.381911,4.82515 -3.21812,5.31652 0.236594,0.70978 16.501464,0.94866 46.753454,0.68665 4.91163,-0.0425 16.38843,1.73117 16.65322,2.57371 0.82556,2.6269 -1.6872,3.80871 -8.80429,4.14086 -4.04191,0.18864 -15.44893,0.7849 -25.34893,1.32502 -9.9,0.54011 -22.5,1.19501 -28,1.45532 l -10,0.4733 -4,4.68 c -2.2,2.574 -6.024976,6.76024 -8.499947,9.30275 -4.691297,4.81932 -7.982192,9.08976 -7.993464,10.37275 -0.0091,1.03863 11.523971,0.89398 23.493411,-0.29466 19.76615,-1.96289 42.81239,-2.85852 44.89364,-1.74467 1.95047,1.04386 1.94477,1.09688 -0.31437,2.92623 -1.26546,1.0247 -3.48849,1.86561 -4.94005,1.86868 -1.45157,0.003 -4.21422,0.42935 -6.13922,0.9473 -1.925,0.51795 -7.1,1.18317 -11.5,1.47827 -4.4,0.2951 -12.725,1.25106 -18.5,2.12437 -5.775,0.87331 -16.136045,1.93545 -23.024543,2.36031 -6.888499,0.42487 -13.434881,1.25968 -14.547516,1.85514 -1.112635,0.59547 -5.317034,4.6031 -9.343109,8.90585 l -7.320136,7.82318 8.367652,0.54233 C 45.734557,496.34062 54.675,496.2589 61,495.86075 c 21.843803,-1.37506 51.46422,-1.87349 53,-0.89185 1.32714,0.84828 1.31952,1.1393 -0.0661,2.52531 -2.04053,2.04112 -29.063761,5.69591 -30.168597,4.0802 -0.501081,-0.73278 -0.739556,-0.73968 -0.75,-0.0217 -0.0094,0.64674 -6.475082,1.5077 -16.765313,2.23244 -32.933448,2.31952 -36.980066,2.46061 -37.688657,1.31408 C 27.408984,503.2347 26.078259,503.84729 22.260069,508 l -3.677779,4 -9.0411448,-0.0318 C 1.8078893,511.94099 0.75315446,511.74422 2.25,510.60795 Z m 433.72087,-6.79521 c -0.7005,-4.50299 -1.80523,-10.24049 -2.45496,-12.75 -1.03701,-4.00533 -1.47663,-4.52046 -3.59862,-4.21662 -1.32951,0.19037 -6.24229,0.49009 -10.91729,0.66604 -4.675,0.17596 -11.425,0.79349 -15,1.3723 -6.89721,1.11668 -26.25008,3.09829 -34.35058,3.51728 -4.09591,0.21185 -4.99977,-0.0766 -5.80952,-1.85377 -0.61476,-1.34925 -0.60875,-3.02573 0.0167,-4.67088 l 0.97568,-2.56622 19.33384,-0.81589 C 394.79977,482.04625 407.1,481.5258 411.5,481.33844 c 8.6705,-0.36921 13.86328,-0.38485 17,-0.0512 2.47745,0.26354 2.35134,-1.93988 -0.66032,-11.53725 l -2.11816,-6.75 -5.11076,-0.0978 C 417.79984,462.84842 402.225,462.73592 386,462.65221 L 356.5,462.5 v -4 -4 l 17.5,0.20727 c 9.625,0.114 24.3625,0.44745 32.75,0.741 15.53315,0.54364 16.24788,0.38331 14.31777,-3.21184 -0.51273,-0.95504 -2.59669,-5.18229 -4.63103,-9.39389 -3.62682,-7.50846 -3.77894,-7.66546 -7.81776,-8.06857 -2.26544,-0.22612 -4.26196,-0.0638 -4.43671,0.36065 -0.17475,0.42447 -6.24975,0.79754 -13.5,0.82905 -7.25025,0.0315 -16.55727,0.36079 -20.68227,0.73176 -14.68941,1.32103 -16.29484,1.1392 -17.81745,-2.01797 -1.20106,-2.49046 -1.15204,-3.05369 0.41666,-4.78708 1.65556,-1.82938 3.07791,-1.95635 20.6741,-1.84556 10.39293,0.0654 19.09541,-0.0802 19.33884,-0.32364 0.24344,-0.24344 2.3428,-0.0749 4.66523,0.37455 4.75996,0.92115 11.72262,1.16199 11.72262,0.40547 0,-1.27884 -7.49967,-15.2419 -9.19914,-17.12717 -2.16742,-2.40438 -4.77116,-11.20718 -4.78899,-16.19075 -0.0175,-4.88206 4.32885,-10.18152 8.35682,-10.18944 1.72222,-0.003 4.35526,-0.64467 5.8512,-1.42508 8.31243,-4.33643 41.46004,-35.54799 49.45742,-46.56876 5.8446,-8.05414 18.58294,-29.64172 21.24278,-36 1.26544,-3.025 3.318,-7.75 4.56125,-10.5 1.24324,-2.75 2.60044,-7.01517 3.01599,-9.47816 0.41556,-2.46299 1.36977,-5.41557 2.12047,-6.56128 2.022,-3.08596 4.60912,-29.42116 3.8154,-38.83826 -0.36518,-4.33273 -0.63726,-10.18273 -0.60461,-13 0.0564,-4.86931 -3.4066,-18.67203 -6.30304,-25.1223 -0.74092,-1.65 -1.59095,-3.9 -1.88894,-5 -1.42595,-5.26357 -4.48886,-12.68244 -5.88415,-14.25233 -0.85431,-0.96122 -2.26976,-3.48212 -3.14544,-5.60201 -1.4524,-3.51602 -5.79277,-10.6163 -12.92623,-21.14566 -1.49046,-2.2 -4.36064,-6.46948 -6.37817,-9.48773 -2.01753,-3.01826 -4.41378,-6.16826 -5.325,-7 C 447.98994,132.28517 441,123.24719 441,122.11122 441,121.50005 440.325,121 439.5,121 438.675,121 438,120.43357 438,119.74127 438,118.21059 417.25163,96 415.82172,96 415.26357,96 412.7822,94.217792 410.30758,92.039538 405.83941,88.106501 384.8953,75 383.0785,75 c -0.52184,0 -2.21548,-1.790392 -3.76365,-3.978649 -2.01351,-2.845991 -3.54242,-3.984727 -5.37057,-4 -1.40565,-0.01174 -4.04556,-1.120519 -5.86647,-2.463947 -2.15919,-1.592999 -5.27024,-2.654707 -8.94428,-3.052418 -3.09844,-0.335401 -9.00853,-1.341602 -13.13353,-2.236 -8.84496,-1.917798 -8.86063,-1.920627 -11.72695,-2.116672 -3.33955,-0.228412 -5.85222,-4.585754 -4.43634,-7.693278 1.32716,-2.912791 3.49213,-3.089898 11.19536,-0.91584 3.00736,0.848758 7.71793,1.754965 10.46793,2.013794 2.75,0.258828 7.15965,0.91439 9.79922,1.456804 6.39573,1.314276 6.59155,1.284509 6.01648,-0.914573 -0.27339,-1.045429 0.37453,-3.857929 1.43982,-6.25 1.54803,-3.47603 3.22258,-5.106385 8.34069,-8.120532 3.52208,-2.074222 8.87879,-4.485634 11.90379,-5.358694 3.025,-0.873061 6.175,-1.919999 7,-2.32653 0.825,-0.406531 6,-1.962113 11.5,-3.456848 12.74489,-3.463679 15.26106,-4.579318 25,-11.08469 13.52705,-9.0357335 15.86397,-8.4682883 17.04536,4.138904 0.6839,7.298189 -0.69607,21.20128 -3.55926,35.859169 -0.53716,2.75 -1.43951,7.925 -2.00522,11.5 -1.02284,6.463886 -3.09179,15.960505 -5.09582,23.390104 -0.91857,3.405469 -0.79518,4.144217 0.99043,5.929831 1.72127,1.721265 2.42916,1.862289 4.53402,0.90325 1.37186,-0.625062 3.15973,-2.393486 3.97304,-3.929831 2.53365,-4.786087 15.33834,-13.144799 24.86745,-16.233112 2.0625,-0.66844 3.75689,-1.742948 3.76531,-2.387794 0.01,-0.740162 0.3388,-0.661666 0.89267,0.212899 0.59082,0.932916 1.75678,1.164626 3.57016,0.709496 2.11412,-0.53061 3.89056,0.119171 8.26631,3.023631 9.37147,6.220426 10.90796,8.426815 7.23659,10.391676 -1.51212,0.80926 -2.70458,0.727378 -4.75,-0.326171 C 484.16143,83.52753 476.94816,82.152609 475.07196,84.41329 474.34769,85.28598 473.28071,86 472.70088,86 c -1.78809,0 -14.61087,9.104312 -17.26451,12.257991 -1.37995,1.639973 -3.16119,4.242979 -3.95832,5.784459 -1.37462,2.65821 -1.28253,3.00683 1.78631,6.76248 1.7796,2.17789 5.03564,6.30177 7.23564,9.16418 2.2,2.86242 6.04375,7.77834 8.54166,10.92427 2.49791,3.14594 5.83521,7.9444 7.41622,10.66325 1.58101,2.71885 3.92476,6.33585 5.20834,8.03776 1.28358,1.70192 2.33378,3.41103 2.33378,3.79804 0,0.387 1.56909,3.15653 3.48687,6.1545 8.89845,13.91052 18.67875,38.15116 20.58986,51.03236 1.76224,11.87771 2.30128,40.5091 0.95869,50.92071 -1.82225,14.1313 -13.91086,49.70391 -19.16123,56.38486 -1.0308,1.31167 -1.87419,2.75899 -1.87419,3.21626 0,0.45727 -1.8,3.61635 -4,7.02017 -2.2,3.40383 -4,6.70574 -4,7.33758 0,0.63184 -1.60469,2.69957 -3.56597,4.59496 -1.96128,1.89539 -4.5293,4.99978 -5.70669,6.89864 -1.1774,1.89887 -4.41022,5.77331 -7.18404,8.60988 -2.77381,2.83657 -7.29129,7.47046 -10.03883,10.29753 -2.74755,2.82706 -5.37762,5.14012 -5.84461,5.14012 -0.46699,0 -3.89777,3.2625 -7.62395,7.25 -7.11541,7.61441 -21.60533,18.75 -24.39798,18.75 -2.0499,0 -2.1308,2.34607 -0.13793,4 0.825,0.68469 1.5,1.63593 1.5,2.11386 0,0.47794 5.14459,11.24295 11.43242,23.92224 13.49169,27.20574 18.18178,40.65287 23.35566,66.9639 0.59485,3.025 1.56088,7.89683 2.14673,10.82629 0.58585,2.92946 1.06519,5.74196 1.06519,6.25 C 455,511.58433 451.00501,512 446.12225,512 H 437.2445 Z M 426.71137,72.75 c 0.89831,-4.262887 0.8371,-5.673048 -0.32558,-7.5 -0.78754,-1.2375 -1.80965,-2.25 -2.27134,-2.25 -0.72521,0 -5.88076,-3.674297 -9.87707,-7.039279 -0.69444,-0.584735 -1.64153,-0.828976 -2.10464,-0.542758 -0.46311,0.286218 -1.91993,-0.638479 -3.23738,-2.054882 -1.31745,-1.416404 -3.40786,-2.966397 -4.64536,-3.444429 -1.66935,-0.64485 -2.25,-1.677353 -2.25,-4.00089 0,-2.402136 -0.35695,-2.994766 -1.53215,-2.543797 -0.84269,0.323369 -4.30343,1.306051 -7.69054,2.183739 -3.3871,0.877688 -6.98619,2.175621 -7.99797,2.884297 -1.75734,1.230894 -1.73765,1.353788 0.44053,2.748753 1.25407,0.803138 4.42922,2.050503 7.05589,2.771922 2.62667,0.721419 5.00828,1.687901 5.29248,2.147738 0.28419,0.459836 2.1851,1.605577 4.22424,2.54609 6.38275,2.943921 12.53036,7.428227 17.45352,12.731279 2.6103,2.811719 4.7478,5.449717 4.75,5.862217 0.002,0.4125 0.36513,0.75 0.80652,0.75 0.44139,0 1.30037,-2.3625 1.90885,-5.25 z M 381,59 c -1.95837,-1.265597 -3.28218,-1.265597 -2.5,0 0.33992,0.55 1.37898,0.993109 2.30902,0.984687 C 382.26629,59.971491 382.29269,59.835399 381,59 Z M 431.39297,48.302595 C 432.27684,44.344022 433,39.229037 433,36.935963 c 0,-4.810314 1.32592,-4.89016 -13.76844,0.829129 l -10.26844,3.890736 5.26844,4.393452 c 2.89764,2.416398 5.8654,5.206608 6.59502,6.200467 1.52515,2.077491 7.35965,4.792701 8.31639,3.870209 0.35364,-0.340976 1.36614,-3.858788 2.25,-7.817361 z M 356.47301,509.95633 C 356.14793,509.43035 356.80852,509 357.94098,509 c 2.41457,0 2.65816,0.55611 0.59105,1.34934 -0.80739,0.30982 -1.73395,0.13297 -2.05902,-0.39301 z M 150.3095,474.41892 c -1.78402,-3.8445 -0.68011,-5.20128 5.02328,-6.17399 7.92632,-1.35183 10.52168,2.26856 4.70771,6.56701 -4.1145,3.04199 -8.21382,2.87642 -9.73099,-0.39302 z M 277,394.91043 c -1.925,-0.51032 -9.575,-0.88526 -17,-0.83321 -15.02738,0.10534 -36.76957,-1.54313 -41.73045,-3.16396 -1.77675,-0.5805 -3.66106,-0.78933 -4.18736,-0.46406 -0.52629,0.32527 -3.57259,-0.30836 -6.76955,-1.40808 -3.19695,-1.09972 -9.18764,-2.47185 -13.31264,-3.0492 -4.125,-0.57734 -7.65,-1.48671 -7.83333,-2.02082 -0.18334,-0.5341 -0.85834,-0.97387 -1.5,-0.97726 -0.64167,-0.003 -2.338,-0.61737 -3.76962,-1.3644 -1.43162,-0.74704 -4.58162,-1.68955 -7,-2.09448 C 171.47867,379.13003 166.575,377.83151 163,376.64936 L 156.5,374.5 v -4 c 0,-3.47035 0.32037,-4.04525 2.41952,-4.34177 2.2862,-0.32293 18.43338,4.29953 20.58048,5.89158 0.95712,0.7097 14.92312,5.23762 17,5.51159 0.55,0.0726 1.76595,0.46579 2.70211,0.87387 0.93617,0.40807 2.07407,0.51208 2.52867,0.23111 0.92983,-0.57466 11.43746,1.54823 15.26922,3.08489 3.48846,1.39899 24.72866,2.98144 51.5,3.83689 7.15,0.22847 14.35,0.46069 16,0.51603 6.41657,0.21522 31.38355,-1.23726 38.62767,-2.24721 l 7.62767,-1.06342 0.67268,-12.14678 c 0.60878,-10.99317 1.5888,-19.52842 6.0449,-52.64678 0.77703,-5.775 2.13105,-17.25 3.00894,-25.5 0.87789,-8.25 2.35171,-20.175 3.27516,-26.5 1.55293,-10.6366 1.67839,-16.45504 0.92611,-42.94993 -0.17145,-6.0384 -0.0311,-6.48615 2.1996,-7.01741 2.73615,-0.65163 1.95093,-1.59687 -3.72052,-4.47875 -3.17038,-1.611 -3.40701,-1.60473 -4.71819,0.12501 -0.75923,1.0016 -1.39472,2.77899 -1.41222,3.94976 -0.0208,1.39453 -1.04152,2.54692 -2.95951,3.34137 -1.61023,0.66699 -3.70498,2.07158 -4.65498,3.12133 -0.95001,1.04974 -2.08436,1.90862 -2.52078,1.90862 -0.43642,0 -1.95511,1.07656 -3.37488,2.39235 -1.41976,1.3158 -3.58045,2.38345 -4.80152,2.37257 -1.22107,-0.0109 -4.92013,1.15187 -8.22013,2.58391 -3.3,1.43203 -6.98594,2.61438 -8.19098,2.62743 -1.20504,0.0131 -2.4691,0.47374 -2.80902,1.02374 -0.33992,0.55 -3.46138,1 -6.93657,1 -3.8568,0 -6.70671,0.48701 -7.31485,1.25 -0.54797,0.6875 -1.22857,6.425 -1.51243,12.75 -0.49021,10.92258 -2.13739,27.43832 -5.28593,53 -0.77908,6.325 -1.66896,13.75 -1.97751,16.5 -0.91219,8.13006 -4.18066,25.43716 -6.32651,33.5 -1.09783,4.125 -2.52604,11.43555 -3.1738,16.24567 C 265.83706,377.67641 263.45708,383 260.82334,383 c -1.31185,0 -0.12301,-14.39913 1.79978,-21.79879 0.75728,-2.91433 1.37688,-6.63879 1.37688,-8.27658 0,-1.63778 1.35,-9.70387 3,-17.92463 1.65,-8.22076 3.00891,-17.9963 3.01981,-21.72342 0.0109,-3.72712 0.4416,-9.70158 0.95712,-13.27658 1.1411,-7.9132 4.33317,-57.56971 3.80299,-59.16023 -0.2557,-0.76711 -5.57039,-1.24583 -16.3295,-1.47088 -13.41351,-0.28057 -17.30235,-0.73019 -24.45042,-2.82688 -4.675,-1.37128 -9.13252,-2.50421 -9.90561,-2.51762 -0.77308,-0.0134 -2.88056,-1.14939 -4.68328,-2.52439 -3.80063,-2.89888 -4.96992,-3.09209 -5.78938,-0.95662 -0.32574,0.84885 -0.83967,11.76135 -1.14208,24.25 -0.30241,12.48864 -0.94588,25.18162 -1.42995,28.20662 -0.48406,3.025 -0.92909,8.65 -0.98897,12.5 -0.0599,3.85 -0.57551,10.6 -1.14587,15 -1.51419,11.68117 -6.96214,38.8437 -8.01271,39.95 -0.49618,0.5225 -0.90215,1.75821 -0.90215,2.74602 0,1.76821 -3.10716,11.69156 -5.33485,17.03794 -1.1855,2.84513 -3.18089,4.18336 -4.7717,3.20019 -0.50934,-0.31479 -0.69806,-0.94129 -0.41937,-1.39222 0.27869,-0.45093 1.23544,-4.13233 2.1261,-8.1809 0.89066,-4.04857 1.98533,-8.93603 2.43259,-10.86103 3.1624,-13.61071 5.18053,-23.93221 6.45237,-33 0.81001,-5.775 1.92934,-13.53013 2.48741,-17.23363 0.55807,-3.7035 1.23344,-23.2801 1.50082,-43.50357 l 0.48613,-36.76995 -5.5203,-2.89025 c -3.03617,-1.58964 -6.41593,-4.02886 -7.51059,-5.42049 -1.09465,-1.39162 -3.69363,-3.29284 -5.77551,-4.22493 -2.08187,-0.93208 -5.5555,-3.82595 -7.71916,-6.43081 -2.16367,-2.60486 -5.84644,-6.81856 -8.18394,-9.36377 -2.3375,-2.54521 -4.25,-5.12827 -4.25,-5.74014 0,-0.61187 -0.96288,-1.96973 -2.13974,-3.01747 -1.17686,-1.04775 -3.68035,-5.17644 -5.56333,-9.17487 C 155.19422,169.6416 153,167.71963 153,171.5904 c 0,0.8098 -0.675,1.73139 -1.5,2.04797 -0.825,0.31659 -1.5,1.34145 -1.5,2.27749 0,0.93603 -0.66069,2.57539 -1.4682,3.64301 -0.8075,1.06762 -1.4825,3.53863 -1.5,5.49113 -0.0175,1.9525 -0.56088,4.07908 -1.20754,4.72574 -0.64665,0.64665 -1.35438,3.09247 -1.57272,5.43515 -0.21833,2.34268 -0.76276,4.7161 -1.20983,5.27427 -0.44707,0.55816 -0.84799,3.15603 -0.89095,5.77305 -0.0429,2.61702 -0.50613,6.44202 -1.02928,8.5 -1.35934,5.34741 -3.15349,19.53519 -3.52294,27.85861 -0.17374,3.91426 -0.7059,7.73926 -1.18257,8.5 -0.93542,1.49287 -1.17088,8.08088 -1.43164,40.05524 -0.0927,11.36963 0.0717,21.49463 0.36527,22.5 0.29362,1.00537 0.76703,3.41729 1.05202,5.35983 0.58501,3.98751 2.60718,9.34943 6.02213,15.96811 1.27699,2.475 2.59622,5.67215 2.93163,7.10477 0.70806,3.02438 11.87005,15.51461 14.65451,16.39837 2.28625,0.72563 3.59755,4.28942 2.12143,5.76554 -1.32758,1.32758 -12.84024,-1.95027 -15.1084,-4.30162 C 144.55552,357.40917 139,349.2565 139,348.19351 c 0,-0.53874 -0.62818,-1.22059 -1.39595,-1.51521 -0.76777,-0.29462 -2.18109,-2.93026 -3.14071,-5.85699 -0.95963,-2.92672 -2.56145,-6.48769 -3.55962,-7.91328 -0.99817,-1.42558 -2.29167,-5.57673 -2.87444,-9.22477 -0.58278,-3.64805 -1.49123,-7.76808 -2.01877,-9.15562 -0.55387,-1.45677 -0.729,-9.17917 -0.41445,-18.27523 0.2996,-8.66382 0.71081,-21.60241 0.91381,-28.75241 0.63143,-22.23991 2.22124,-39.31961 4.97988,-53.5 C 134.96022,196.16047 136,190.15869 136,187.96594 c 0,-1.28397 0.85911,-4.16407 1.90914,-6.40022 3.47704,-7.40472 11.02151,-27.01778 11.51627,-29.93841 0.65347,-3.85745 0.88236,-3.98655 5.27014,-2.97253 3.67888,0.85019 3.88183,1.1262 6.14892,8.36222 4.70194,15.00747 8.95407,24.39449 11.90553,26.28269 0.6875,0.43983 1.25,1.25947 1.25,1.82143 0,0.56195 0.5625,1.60852 1.25,2.3257 0.6875,0.71717 4.11714,4.51003 7.62142,8.42857 3.50428,3.91853 6.97626,7.12461 7.71552,7.12461 0.73926,0 2.6752,1.2375 4.3021,2.75 3.67298,3.41472 10.78852,8.48469 14.11096,10.05437 1.375,0.64961 3.175,1.56796 4,2.04077 0.825,0.47281 3.74753,1.93858 6.4945,3.25726 2.74698,1.31868 6.21187,3.25301 7.69976,4.29851 1.48788,1.0455 4.64036,2.24934 7.00549,2.67519 2.36514,0.42586 6.32525,1.28675 8.80025,1.91309 10.12591,2.56254 54.50719,-1.52592 58.99708,-5.43489 0.82661,-0.71966 4.42792,-2.03537 8.00292,-2.92381 3.575,-0.88844 6.95173,-2.22827 7.50384,-2.9774 0.55211,-0.74913 2.01461,-1.68286 3.25,-2.07496 C 321.98923,216.18603 323,215.49 323,215.03139 c 0,-0.45861 1.575,-1.76311 3.5,-2.89889 1.925,-1.13578 3.5,-2.60729 3.5,-3.27003 0,-0.66275 0.7875,-2.0934 1.75,-3.17924 1.6948,-1.91198 1.6811,-1.93812 -0.43426,-0.82874 -3.05372,1.60149 -6.64594,1.4241 -15.31574,-0.75631 -16.34811,-4.11146 -19.56411,-5.80985 -29.53603,-15.59818 -6.85256,-6.72639 -7.2207,-7.33224 -9.41841,-15.5 -1.92422,-7.15136 -2.11931,-9.21399 -1.22953,-13 0.58166,-2.475 1.33561,-6.61767 1.67543,-9.20594 1.03444,-7.8787 8.19247,-19.70194 16.20034,-26.75882 6.89962,-6.08025 23.32539,-13.88545 30.6471,-14.56292 4.69024,-0.43398 6.25959,-1.05658 8.12256,-3.22241 1.63668,-1.90276 3.28893,-2.69402 5.67382,-2.7172 2.8335,-0.0275 3.41105,-0.42741 3.65819,-2.53271 0.23899,-2.035933 0.0876,-2.22156 -0.81551,-1 -0.90244,1.22064 -0.99775,1.10191 -0.51178,-0.6375 0.36868,-1.319627 -0.35184,-3.922367 -1.88307,-6.802223 -2.96743,-5.580969 -2.50079,-7.56579 1.77388,-7.544964 4.03414,0.01965 4.95942,0.717248 6.61168,4.984687 0.74532,1.925 3.56275,6.087013 6.26096,9.248917 5.08945,5.964083 5.46022,7.918383 2.13343,11.245163 C 354.45854,111.3986 354.31016,112 354.99152,112 356.79524,112 367,117.23667 367,118.16226 c 0,0.46076 0.3375,0.74522 0.75,0.63214 1.42807,-0.39149 7.76301,3.49019 10.75685,6.59116 4.31855,4.47307 5.999,7.44701 7.40294,13.10114 0.68101,2.74269 1.76741,5.62568 2.41421,6.40665 0.75883,0.91624 1.14644,5.38708 1.09267,12.60328 -0.0679,9.11374 -0.46717,11.99946 -2.15744,15.59336 -1.14076,2.4255 -2.36399,5.40017 -2.7183,6.61036 -0.3543,1.21019 -2.11306,3.10816 -3.90835,4.21771 -1.79529,1.10955 -4.13456,2.98446 -5.19837,4.16646 -2.2214,2.46819 -11.69408,6.91548 -14.7299,6.91548 -1.12576,0 -2.8652,0.74062 -3.86544,1.64582 -1.00023,0.9052 -4.09474,1.86453 -6.87667,2.13183 -3.93763,0.37836 -4.99011,0.8389 -4.75128,2.07907 0.16874,0.87617 1.20281,2.05981 2.29794,2.6303 3.14841,1.6401 7.71829,4.8283 10.16795,7.09372 3.97168,3.67296 9.56698,4.65938 22.23477,3.91985 17.46155,-1.01937 24.31792,-3.12739 38.50602,-11.83882 3.25468,-1.99836 6.62968,-3.8708 7.5,-4.16098 2.16678,-0.72244 13.60386,-16.09871 15.62884,-21.01177 4.00252,-9.71101 4.55962,-10.48902 7.5108,-10.48902 3.69042,0 5.94276,3.24932 5.94276,8.57328 0,2.27055 0.40405,5.43292 0.89789,7.0275 1.89041,6.10396 4.03042,18.24031 4.65499,26.39922 1.16517,15.22081 0.53984,45.93261 -1.07915,53 -1.31851,5.75575 -2.55289,14.70382 -2.62104,19 -0.0131,0.825 -0.6603,3.19661 -1.43824,5.27024 C 454.6365,288.34387 454,291.40606 454,293.0751 c 0,1.66905 -0.85922,4.92244 -1.90937,7.22976 -1.05016,2.30733 -2.62823,6.97195 -3.50683,10.36582 C 447.08707,316.45229 442.52307,325 440.93274,325 c -0.39159,0 -1.32278,2.06864 -2.06931,4.59698 -0.74653,2.52834 -2.1462,5.01917 -3.11038,5.53518 -0.96418,0.51602 -1.75305,1.59737 -1.75305,2.40302 0,0.80565 -2.8125,4.27732 -6.25,7.71482 -3.4375,3.4375 -6.13541,6.59378 -5.99535,7.01396 0.14006,0.42018 -1.43494,1.48788 -3.5,2.37267 -2.06506,0.8848 -4.87965,2.24722 -6.25465,3.02761 -1.375,0.7804 -4.075,2.18769 -6,3.12733 -1.925,0.93964 -4.07878,2.48274 -4.78618,3.42913 -0.7074,0.94638 -3.0699,2.25511 -5.25,2.90829 -2.1801,0.65317 -3.96382,1.5548 -3.96382,2.00362 0,0.44882 -1.2375,1.4644 -2.75,2.25685 -1.5125,0.79245 -3.70276,2.34088 -4.86724,3.44095 -1.16449,1.10008 -4.30345,2.74237 -6.97548,3.64955 -2.67203,0.90718 -5.35813,2.06428 -5.9691,2.57134 -1.6492,1.36872 -9.3905,3.95485 -13.35954,4.46301 -1.90969,0.2445 -4.96357,1.15226 -6.78638,2.01725 -7.55622,3.58565 -36.51889,7.53906 -53.29226,7.2744 -5.225,-0.0825 -11.3,0.1161 -13.5,0.44121 -2.2,0.32512 -5.575,0.17359 -7.5,-0.33674 z m 74,-17.39812 c 6.44238,-1.44689 11.1148,-3.32473 26,-10.44935 4.50519,-2.15636 9.3128,-4.95401 9.91211,-5.76808 0.32334,-0.4392 2.16289,-1.55645 4.08789,-2.48276 2.09276,-1.00704 2.79638,-1.70993 1.75,-1.74817 -2.03264,-0.0743 -2.34757,-4.11487 -0.77536,-9.94793 0.53606,-1.98881 2.13237,-10.36602 3.54736,-18.61602 1.41499,-8.25 3.4574,-19.59552 4.5387,-25.21226 1.0813,-5.61674 2.18331,-12.81674 2.44893,-16 0.26561,-3.18326 0.98533,-7.67254 1.59937,-9.97619 1.16385,-4.36623 0.94707,-53.58882 -0.24124,-54.77712 -0.33739,-0.33739 -3.48316,-0.15519 -6.9906,0.4049 -10.12843,1.61737 -30.58134,2.34833 -31.34045,1.12007 -0.36011,-0.58267 -1.64069,-1.06237 -2.84573,-1.06599 C 361.48594,222.98979 359.15,222.09275 357.5,221 c -3.43428,-2.27444 -6.30551,-2.72509 -4.77842,-0.75 0.55289,0.71509 0.8771,8.31083 0.75763,17.75 -0.1867,14.75061 -0.85797,21.51142 -4.46794,45 -0.54944,3.575 -1.68823,12.125 -2.53065,19 -1.88772,15.40584 -3.29012,25.66002 -4.5816,33.5 -0.9302,5.64683 -1.8226,13.17688 -3.79238,32 -0.46045,4.4 -1.16113,9.47419 -1.55707,11.27598 l -0.71989,3.27598 3.83516,-1.42762 c 2.10934,-0.78519 7.21016,-2.1856 11.33516,-3.11203 z m 52.38178,-24.53721 c 2.30674,-1.5568 5.41731,-3.13755 6.91237,-3.51279 2.62654,-0.65922 11.68233,-10.73507 11.69842,-13.01614 0.004,-0.57961 1.58243,-2.58039 3.50743,-4.44617 1.925,-1.86578 3.5,-4.00908 3.5,-4.76289 0,-0.7538 1.16327,-2.89567 2.58503,-4.75971 2.69737,-3.53643 9.38158,-17.98592 9.40276,-20.32627 0.007,-0.74188 0.62334,-2.76688 1.37028,-4.5 0.74694,-1.73312 1.86617,-5.62613 2.48717,-8.65113 0.62101,-3.025 1.80987,-7.96057 2.64193,-10.96793 0.83206,-3.00736 1.51817,-7.50736 1.5247,-10 0.007,-2.49264 0.63839,-6.88546 1.40415,-9.76183 1.64634,-6.18409 1.39583,-51.27979 -0.33357,-60.04715 C 449.13628,193.42634 447.45825,189 446.58598,189 c -0.18901,0 -2.8789,3.36837 -5.97753,7.48527 -3.09862,4.1169 -6.86565,8.26901 -8.37116,9.22691 -1.50551,0.95789 -3.0388,2.17035 -3.40732,2.69435 -0.36852,0.524 -1.42049,1.06287 -2.33771,1.19749 -0.91723,0.13462 -2.41571,0.90135 -3.32997,1.70386 -0.91426,0.8025 -3.49239,2.37864 -5.72919,3.50252 -6.08654,3.0582 -6.41621,3.76237 -5.4414,11.6227 0.94658,7.63261 -0.32932,44.61938 -2.0132,58.36052 -1.61616,13.18851 -8.46912,48.38607 -9.96494,51.18103 -0.55746,1.04163 -1.02825,3.38595 -1.04621,5.20961 C 398.9494,343.00792 398.06409,346.975 397,350 c -1.06409,3.025 -1.9494,5.86782 -1.96735,6.31739 -0.0512,1.28124 3.75748,-0.24342 8.34913,-3.34229 z M 346.5,164.50908 c 9.36825,-3.09081 9.5,-3.22578 9.5,-9.7317 0,-3.24587 -0.73831,-8.15885 -1.6407,-10.91773 -2.12217,-6.48815 -4.84775,-7.75325 -11.56049,-5.36587 -2.58566,0.91959 -5.62316,1.37936 -6.75,1.02171 C 334.85723,139.1373 334,139.31182 334,139.93261 334,140.51968 332.83051,141 331.40113,141 c -1.42938,0 -4.01688,0.62682 -5.75,1.39294 -1.73312,0.76611 -3.92522,1.64684 -4.87133,1.95718 -2.85723,0.9372 -3.258,5.16956 -0.81447,8.60119 1.18863,1.66927 1.85149,3.53607 1.47302,4.14844 -1.25794,2.0354 1.67061,8.77334 3.95495,9.09948 4.32777,0.61787 17.24664,-0.41663 21.1067,-1.69015 z m -262,211.80864 c -2.75,-1.42404 -6.35,-3.65104 -8,-4.94889 -1.65,-1.29785 -4.125,-3.24303 -5.5,-4.32263 -1.375,-1.07959 -4.363794,-3.21914 -6.641764,-4.75455 -5.120211,-3.45115 -19.33139,-16.45832 -19.346879,-17.70776 -0.0062,-0.50386 -0.704178,-1.62886 -1.55096,-2.5 C 40.394699,338.93001 31.188267,325.86873 29.9874,322.96958 29.310878,321.33631 28.394179,320 27.950292,320 26.838721,320 10.921638,288.93581 11.529363,287.95249 11.798301,287.51734 10.906359,283.63751 9.5472684,279.33065 3.9661911,261.64462 2.9010747,254.89655 2.8972289,237.19916 2.8935713,220.36789 3.8800958,210.52672 6.6763701,199.5 7.5132194,196.2 8.3585294,192.825 8.5548367,192 9.4459118,188.25517 13.553339,178.37032 14.713545,177.17857 15.421095,176.45179 16,175.26556 16,174.54252 c 0,-0.72304 1.8,-4.01014 4,-7.30466 2.2,-3.29453 4,-6.49581 4,-7.11395 C 24,159.50576 24.352977,159 24.784392,159 c 0.431416,0 1.632004,-1.4625 2.667973,-3.25 1.035969,-1.7875 4.120937,-5.95 6.855485,-9.25 2.734547,-3.3 5.775404,-7.87153 6.757459,-10.15895 1.019207,-2.37395 2.699565,-4.44904 3.915154,-4.83485 1.171279,-0.37175 4.692334,-3.05997 7.824568,-5.97382 3.132233,-2.91384 9.804946,-8.69493 14.828252,-12.84686 7.50496,-6.20309 10.247133,-9.04506 13.792879,-14.294844 C 81.466773,98.330548 82.7375,97.984475 84.25,97.621624 86.332642,97.121996 87,97.330533 87,98.480948 87,99.316427 87.733524,100 88.630052,100 c 1.352773,0 1.539377,0.808 1.096994,4.75 -0.50681,4.5161 -1.079499,5.27295 -11.630053,15.37 C 71.993647,125.961 67,131.05492 67,131.43981 c 0,0.3849 7.3125,0.61496 16.25,0.51125 8.9375,-0.10371 17.00271,0.12467 17.92268,0.50751 1.96543,0.81789 3.23204,3.56924 2.1101,4.58357 -1.14202,1.0325 -28.526658,2.81702 -37.208005,2.42466 l -7.425224,-0.33558 -3.407707,3.68439 c -1.874239,2.02641 -4.303205,4.92495 -5.397704,6.44118 l -1.989997,2.75679 16.822928,-0.53951 c 12.795336,-0.41034 19.456449,-0.1447 27.822929,1.10958 12.08154,1.81123 15.40459,3.48392 12,6.04032 -1.45823,1.09494 -3.21899,1.32098 -6.5,0.83443 -4.183095,-0.62031 -26.038551,-0.6279 -34,-0.0118 -6.184231,0.47857 -20.922293,2.58635 -22.608394,3.23337 C 39.727804,163.31843 32,174.51144 32,176.28284 c 0,0.56939 1.604728,0.71617 3.869806,0.35397 3.367619,-0.5385 45.174407,-0.78737 52.18802,-0.31066 3.442397,0.23397 7.476767,2.99984 6.553846,4.49316 C 94.157382,181.55437 91.095762,182 86.5,182 c -4.060081,0 -7.660833,0.45122 -8.001671,1.0027 -0.399783,0.64687 -1.250559,0.66509 -2.397344,0.0513 -0.977701,-0.52325 -2.637892,-0.75211 -3.689312,-0.50857 -1.756753,0.40692 -24.573616,2.24695 -37.273355,3.00585 -2.948925,0.17623 -5.952418,0.54709 -6.674429,0.82415 -4.177179,1.60294 -8.796589,24.36099 -8.753374,43.12452 0.01647,7.15 0.425837,15.91771 0.909712,19.4838 l 0.879773,6.48381 4,0.70856 c 2.2,0.38972 8.725,0.73895 14.5,0.77609 13.855701,0.0891 39.291305,1.93904 40.281995,2.92974 1.216038,1.21603 -0.250352,3.98123 -2.112799,3.98413 -13.391859,0.0209 -51.893275,1.44897 -52.750818,1.95663 -0.814924,0.48242 -0.300959,3.3732 1.78671,10.04926 l 2.930719,9.37202 16.682097,-0.59259 C 55.993057,284.32552 67.8875,284.04561 73.25,284.02943 81.236921,284.00532 83,283.72876 83,282.5 c 0,-1.99943 1.626117,-1.91671 2.408647,0.12253 0.497645,1.29685 1.685291,1.53441 5.916632,1.18352 C 96.416707,283.38383 99,284.40474 99,286.83908 c 0,2.46275 -27.925304,6.16501 -49.214426,6.52472 -7.542934,0.12744 -13.995737,0.51303 -14.339563,0.85686 -0.343825,0.34382 0.911171,3.24733 2.788881,6.45224 l 3.414018,5.8271 4.925545,-0.18914 C 49.283505,306.20684 54.875,306.16771 59,306.22392 c 4.125,0.0562 9.3,0.0193 11.5,-0.0821 5.568619,-0.25653 25.837086,1.79942 26.753747,2.71378 0.41456,0.41353 0.160033,1.56381 -0.565616,2.5562 -1.094859,1.49731 -3.094889,1.86067 -11.753747,2.1354 -14.692005,0.46615 -30.949482,1.45056 -34.133172,2.0668 l -2.698788,0.52238 3.162281,5.13937 c 6.016827,9.77859 18.755912,22.044 39.164648,37.70841 C 100.73278,366.89243 102,368.35902 102,372.37524 c 0,2.76892 -0.8416,3.51958 -6,5.35161 -4.764466,1.69212 -5.742521,1.57227 -11.5,-1.40913 z M 240.47137,195.5767 c -1.53709,-2.8542 -1.62603,-3.68542 -0.53502,-5 0.71969,-0.86719 2.59188,-1.5767 4.16041,-1.5767 2.15375,0 3.22951,0.73025 4.39449,2.98307 1.44004,2.78474 1.4085,3.11718 -0.47432,5 -2.96865,2.96865 -5.43723,2.50855 -7.54556,-1.40637 z m -13.98275,-17.64408 c -0.37795,-2.23707 -0.45467,-4.2999 -0.17049,-4.58408 0.28418,-0.28419 2.29207,-0.75483 4.46198,-1.04587 3.72409,-0.49951 4.00805,-0.3491 5.06496,2.68275 1.64736,4.72561 0.0835,7.01458 -4.79236,7.01458 -3.75447,0 -3.89862,-0.12846 -4.56409,-4.06738 z m 30.09388,1.13598 c -2.04657,-0.39886 -3.19418,-1.39938 -3.84433,-3.35159 -1.3034,-3.9137 -0.30695,-5.71701 3.15902,-5.71701 3.54461,0 6.10281,2.28412 6.10281,5.44898 0,3.06854 -1.86194,4.31256 -5.4175,3.61962 z m -10.04821,-46.01311 c -0.85572,-1.38459 -6.76137,-2.11192 -8.10355,-0.99801 -0.70561,0.5856 -3.22033,0.92474 -5.58827,0.75363 -3.69078,-0.2667 -4.44525,-0.71119 -5.28551,-3.11388 -1.4626,-4.18231 0.24498,-5.96507 7.03539,-7.34512 3.24921,-0.66035 7.25765,-1.7528 8.90765,-2.42767 1.65,-0.67487 3.99418,-1.12915 5.2093,-1.00951 2.42868,0.23913 9.2907,-2.6709 9.2907,-3.93998 0,-0.43844 -1.35,-1.93311 -3,-3.3215 -1.65,-1.38838 -3,-3.19088 -3,-4.00556 0,-0.81467 -0.3375,-1.63122 -0.75,-1.81456 -0.4125,-0.18333 -2.22922,-3.14417 -4.03716,-6.57964 -3.40995,-6.479653 -3.34063,-9.223205 0.26806,-10.607989 2.18294,-0.837672 6.45881,1.001848 7.1809,3.089291 0.58038,1.677769 7.23344,12.207918 8.38098,13.265008 2.98659,2.75119 9.95722,12.60003 9.95722,14.06862 0,2.54452 -3.51681,4.63246 -9.19423,5.45864 -3.76616,0.54805 -4.75469,1.10529 -5,2.81855 -0.40741,2.84533 -10.9967,7.77231 -12.27148,5.70968 z M 100.41777,93.580066 C 99.302792,92.799103 96.68435,88.524315 94.599014,84.080537 90.66789,75.703453 89,74.654427 89,80.559017 c 0,3.931072 -2.948957,5.074991 -3.070285,1.190983 -0.05115,-1.6373 -0.25538,-1.837732 -0.75,-0.73604 C 83.598877,84.535031 79.492468,89 77.834994,89 74.190388,89 73.184159,85.241447 73.742717,73.714179 74.187809,64.528579 74.542391,62.780088 76.132674,61.928995 77.159703,61.379346 78,60.418398 78,59.793557 78,59.168715 78.643002,57.946972 79.428893,57.078572 80.67886,55.697374 80.414533,54.372705 77.31799,46.499832 72.668778,34.679343 72.166744,30.810769 74.901101,27.875781 76.055495,26.636684 77,25.278121 77,24.856752 c 0,-2.967973 23.29725,-0.599888 29.5,2.998573 1.65,0.95723 6.15,2.785165 10,4.062079 11.64761,3.863117 18.85406,7.130929 21.75,9.862688 1.5125,1.42675 2.75,2.240374 2.75,1.808055 0,-0.43232 2.5875,1.420836 5.75,4.118125 5.0031,4.267135 6.13968,4.814935 8.75,4.217259 1.65,-0.377796 5.14715,-0.740143 7.77144,-0.805216 4.17337,-0.103485 4.91398,0.194534 5.90866,2.377623 0.92574,2.031768 0.82836,2.837231 -0.52362,4.331151 -0.91346,1.009368 -1.40486,2.091196 -1.092,2.404063 0.31287,0.312866 -0.99569,0.568848 -2.90791,0.568848 -4.58748,0 -6.36787,1.109277 -8.43836,5.257544 -2.35405,4.716378 -6.16801,5.1465 -10.16783,1.146683 C 138.53289,59.686736 123.13665,50.475335 116.5,49.524563 113.75,49.130596 109.025,47.780647 106,46.524676 96.318252,42.504845 95.986724,42.474714 96.92874,45.700238 97.672341,48.246379 102.56693,58.885702 110.1276,74.390465 113.31564,80.928212 114.02876,88 111.5,88 110.675,88 110,88.644358 110,89.431906 110,90.844765 105.0136,95 103.31814,95 c -0.48022,0 -1.78539,-0.63897 -2.90037,-1.419934 z M 175.25,69.779505 c -1.2375,-0.596823 -2.25,-1.751658 -2.25,-2.5663 0,-3.837604 2.63925,-9.475584 6.1423,-13.121218 2.12174,-2.208092 3.8577,-4.394162 3.8577,-4.857933 0,-2.180666 9.4945,-10.584435 21.37957,-18.923473 3.48953,-2.448397 15.85376,-6.887059 24.46465,-8.782619 3.11068,-0.68477 9.82951,-2.47941 14.93074,-3.98809 7.87466,-2.328918 10.51674,-2.667882 17.5,-2.245149 8.68004,0.525448 14.27615,1.162014 19.22504,2.186874 4.70865,0.97511 18.76033,8.086329 21.26673,10.762584 C 304.79296,31.475483 308,40.868063 308,46.499768 c 0,3.965686 -0.32983,4.675136 -2.5694,5.526617 -4.16702,1.584297 -6.99872,0.147794 -11.8295,-6.00101 -2.69213,-3.426648 -5.6311,-6.067072 -7.18801,-6.457832 -1.44859,-0.363572 -4.49663,-1.533237 -6.77344,-2.599255 C 273.80153,34.234837 266.22805,33 255.30141,33 246.32631,33 243.31324,33.576446 231,37.649226 c -2.475,0.818642 -7.71052,2.287663 -11.6345,3.264491 -5.59871,1.393735 -9.15054,3.188634 -16.5,8.338194 -5.15102,3.609178 -9.93181,7.50398 -10.62397,8.655115 C 191.54937,59.058162 190.34857,60 189.57309,60 c -0.77549,0 -2.37881,1.567622 -3.56296,3.483603 -2.05041,3.317635 -6.5821,7.593166 -7.89499,7.448717 -0.33833,-0.03722 -1.62764,-0.555991 -2.86514,-1.152815 z"
       style="fill:#000000" />
  </g>
</svg>
