<?xml version="1.0" encoding="UTF-8" standalone="no"?>
<svg
   xmlns:dc="http://purl.org/dc/elements/1.1/"
   xmlns:cc="http://creativecommons.org/ns#"
   xmlns:rdf="http://www.w3.org/1999/02/22-rdf-syntax-ns#"
   xmlns:svg="http://www.w3.org/2000/svg"
   xmlns="http://www.w3.org/2000/svg"
   xmlns:sodipodi="http://sodipodi.sourceforge.net/DTD/sodipodi-0.dtd"
   xmlns:inkscape="http://www.inkscape.org/namespaces/inkscape"
   inkscape:version="1.0 (4035a4fb49, 2020-05-01)"
   sodipodi:docname="bubblegum.svg"
   viewBox="0 0 163.84 158.08"
   height="158.08"
   width="163.84"
   id="svg2090"
   version="1.1">
  <metadata
     id="metadata2096">
    <rdf:RDF>
      <cc:Work
         rdf:about="">
        <dc:format>image/svg+xml</dc:format>
        <dc:type
           rdf:resource="http://purl.org/dc/dcmitype/StillImage" />
        <dc:title></dc:title>
      </cc:Work>
    </rdf:RDF>
  </metadata>
  <defs
     id="defs2094" />
  <sodipodi:namedview
     inkscape:current-layer="g2098"
     inkscape:window-maximized="0"
     inkscape:window-y="34"
     inkscape:window-x="10"
     inkscape:cy="164.88179"
     inkscape:cx="68.255927"
     inkscape:zoom="1.748091"
     showgrid="false"
     id="namedview2092"
     inkscape:window-height="1034"
     inkscape:window-width="943"
     inkscape:pageshadow="2"
     inkscape:pageopacity="0"
     guidetolerance="10"
     gridtolerance="10"
     objecttolerance="10"
     borderopacity="1"
     bordercolor="#666666"
     pagecolor="#ffffff" />
  <g
     id="g2098"
     inkscape:label="Image"
     inkscape:groupmode="layer">
    <g
       id="g2711">
      <path
         style="fill:#f1a2b8;fill-opacity:1;stroke:#000000;stroke-width:1.6;stroke-linecap:round;stroke-opacity:0"
         d="m 59.006174,57.415231 c 0,0 -1.208182,-10.342686 0.316382,-14.636193 1.524563,-4.293508 8.526319,-17.84117 14.579418,-21.546221 6.053099,-3.70505 19.041692,-10.952972 19.041692,-10.952972 l 21.845974,-3.3678771 15.82521,0.6503745 9.70175,4.7628806 10.85862,9.569813 5.1516,11.470247 2.37203,12.071395 -0.83108,8.209068 -1.8825,12.279476 -3.50337,11.341614 -5.87233,8.821704 -8.49865,8.750446 -13.71342,6.219584 -13.97183,3.11339 -15.021322,-0.19368 -15.260192,-3.95767 -26.461901,-13.749216 z"
         id="path2680" />
      <path
         style="fill:#ffffff;fill-opacity:1;stroke:#000000;stroke-width:1.6;stroke-linecap:round;stroke-opacity:0"
         d="m 81.674702,60.266603 0.324593,5.306761 -3.281951,1.4978 -2.440036,-4.873689 z"
         id="path2682" />
      <path
         style="fill:#f2c20a;fill-opacity:1;stroke:#000000;stroke-width:1.6;stroke-linecap:round;stroke-opacity:0"
         d="m 42.45805,91.032407 -9.295729,-7.735405 -0.328784,-11.130269 6.165639,-8.411081 4.774173,-4.185443 4.595287,-6.275264 3.865066,-2.148026 1.254165,7.107839 7.174583,-0.219044 9.054109,-6.415646 0.68529,8.186247 2.484973,3.401695 6.121065,7.492113 1.742692,6.203528 -1.322747,5.475633 -6.439696,6.201321 -2.93567,1.74999 0.119016,3.282849 5.413665,5.861139 0.867468,7.272077 -1.263606,4.47468 -0.902934,2.25094 -2.518439,4.46483 1.271331,3.88372 -0.150435,6.41023 -1.824437,2.14393 -4.423892,4.40574 -3.916789,2.55073 -2.936284,0.50748 -0.06632,6.4948 -1.849244,3.60551 -2.915451,4.48344 -4.798251,0.71032 -2.528326,-1.75094 -4.542535,-0.0318 -3.624271,-4.09195 3.949743,-1.36225 -0.651101,-2.81396 -3.310546,3.12247 -3.26013,3.55634 -2.262128,-0.22715 -4.324096,0.52904 -2.982178,-0.26079 0.194613,-5.42228 -1.947884,-10.05498 5.973573,-4.74006 0.429357,-2.12612 -22.8202438,4.72193 -1.9418783,-5.50931 7.6600251,-3.84071 c 0,0 20.092265,-2.0651 18.494371,-3.66657 -1.597893,-1.60148 -5.082014,-8.05898 -5.082014,-8.05898 l 1.672551,-7.00492 6.556702,-6.51066 7.57057,-5.695733 z"
         id="path2684" />
      <path
         style="fill:#000000;stroke-width:0.32"
         d="m 47.907392,153.30173 c -0.77416,-0.92003 -0.835757,-0.93477 -3.169763,-0.75825 -2.335975,0.17667 -2.402189,0.16077 -3.558944,-0.85488 C 40.458003,151.05583 40,150.36589 40,149.91302 40,148.97091 39.691914,148.16 39.333981,148.16 c -0.15265,0 -0.486115,0.40333 -0.741037,0.89629 -1.077376,2.08342 -3.981238,2.51471 -5.769958,0.85699 -0.764912,-0.7089 -0.844844,-0.98618 -0.75897,-2.63281 0.07197,-1.37998 0.21608,-1.84047 0.575984,-1.84047 0.307222,0 0.515984,0.37285 0.579965,1.03584 0.115881,1.20077 1.065609,2.00416 2.369229,2.00416 0.680464,0 1.108524,-0.31643 1.839782,-1.36 0.524144,-0.748 1.22903,-1.648 1.566419,-2 1.429117,-1.49102 1.774519,-2.72605 1.789882,-6.4 0.01446,-3.45743 -0.0044,-3.55011 -1.061456,-5.21419 -2.083562,-3.28008 -6.162339,-4.60869 -8.552265,-2.78581 -1.13032,0.86214 -1.583219,0.9789 -1.887469,0.48661 -0.216314,-0.35 0.327864,-1.50427 1.049309,-2.22572 0.704195,-0.7042 -0.0631,-0.82412 -1.353881,-0.2116 -0.591931,0.28089 -1.438845,0.51071 -1.882031,0.51071 -0.443186,0 -1.717424,0.23068 -2.831639,0.51262 -1.759372,0.44518 -2.968385,0.86886 -5.865845,2.05555 -2.805393,1.14899 -6.158936,1.91183 -8.4045923,1.91182 -1.6872816,-10e-6 -1.9023277,-0.0839 -2.6646039,-1.04 -1.6497782,-2.06918 -1.8956006,-4.57926 -0.658455,-6.72346 0.5906349,-1.02368 3.4695362,-3.08414 5.3276512,-3.81306 2.421867,-0.95008 8.322776,-2.76291 10.08,-3.09671 3.805229,-0.72282 11.798448,-1.08623 12.899446,-0.58646 0.909908,0.41304 0.462256,0.9692 -1.082915,1.34542 L 32.48,120.19061 v 1.9047 V 124 l 2.052214,-0.0971 c 1.425917,-0.0675 2.451328,-0.32484 3.36,-0.84331 1.016074,-0.57976 1.985882,-0.78778 4.347786,-0.93263 1.672,-0.10254 4.336,-0.26798 5.92,-0.36766 1.584,-0.0997 3.902774,-0.41584 5.152835,-0.70259 2.645517,-0.60686 4.333453,-0.32021 2.207165,0.37483 -2.58535,0.84509 -5.84087,1.41237 -9.037731,1.57484 -4.598362,0.23369 -7.244291,1.10955 -5.030464,1.66519 1.13183,0.28407 6.095437,-0.0537 9.908195,-0.67415 4.179517,-0.68019 5.03097,-0.71942 5.195552,-0.23938 0.07506,0.21892 -0.271235,0.55025 -0.769542,0.73629 -0.498304,0.18604 -1.450445,0.61892 -2.115863,0.96197 -0.665421,0.34304 -1.619833,0.62371 -2.120921,0.62371 -0.501085,0 -1.451133,0.22565 -2.111216,0.50146 -0.958784,0.4006 -2.216589,0.48105 -6.254237,0.4 -4.778765,-0.0959 -5.097181,-0.142 -5.845235,-0.84559 -0.780061,-0.73369 -0.812938,-0.73673 -2.344845,-0.21685 -1.673994,0.56811 -2.76289,1.35777 -2.487261,1.80375 0.09424,0.15247 0.918842,0.28034 1.832454,0.28415 1.190244,0.005 2.120228,0.25441 3.280749,0.88 1.748467,0.94253 4.396727,3.61576 4.766781,4.81174 0.281213,0.90884 1.433782,0.85014 1.937011,-0.0987 0.725223,-1.36735 2.657296,-3.04827 4.44384,-3.86618 2.176746,-0.99654 4.367056,-0.95272 6.471901,0.12949 1.203638,0.61885 3.640832,3.41985 3.640832,4.1843 0,0.20784 0.287491,0.94141 0.638867,1.63017 0.637687,1.24997 0.640784,1.25146 1.68,0.81118 1.114371,-0.47212 1.214791,-0.98413 0.723517,-3.68896 l -0.203424,-1.12 1.220518,1.36495 c 1.412624,1.5798 2.340522,1.7854 2.340522,0.51862 0,-1.07411 -1.187027,-3.18905 -2.140531,-3.81381 C 62.732762,129.48328 62.4,129.05257 62.4,128.79262 c 0,-1.01054 1.018336,-0.38465 2.554451,1.57002 0.882887,1.12345 1.881159,2.11479 2.218381,2.20298 0.905923,0.2369 2.091834,-0.47445 2.213926,-1.32799 0.131712,-0.92079 -1.095478,-2.03982 -4.335916,-3.95375 -1.270036,-0.75014 -2.314036,-1.47188 -2.32,-1.60388 -0.03802,-0.84153 2.639129,0.41228 6.03648,2.82713 0.598028,0.42508 1.319388,0.77287 1.603027,0.77287 1.48311,0 2.034109,-3.95189 1.151856,-8.26138 -0.312867,-1.52824 -0.687431,-2.9095 -0.832365,-3.06946 -0.151357,-0.16705 -0.703574,0.1394 -1.297427,0.72 -1.254131,1.22615 -3.225331,1.43044 -3.781155,0.39188 -0.47434,-0.88631 -0.427047,-0.98104 0.489779,-0.98104 0.891357,0 2.07928,-0.52662 2.454064,-1.0879 0.372617,-0.55806 0.282509,-4.00308 -0.124851,-4.77314 -0.20336,-0.38443 -0.837546,-1.27496 -1.4093,-1.97896 -0.571753,-0.704 -1.385699,-1.928 -1.808764,-2.72 -0.423069,-0.792 -1.171847,-2.07284 -1.663952,-2.84631 l -0.894736,-1.40632 -3.225514,0.19651 c -2.15304,0.13117 -3.378163,0.34916 -3.684611,0.6556 -0.827392,0.8274 -0.110746,1.16052 2.496627,1.16052 1.505395,0 2.610874,0.14343 2.742112,0.35578 0.373683,0.60463 -0.570298,0.91421 -2.803226,0.91932 -2.050976,0.005 -2.925721,0.34333 -2.14048,0.82864 0.202864,0.12537 1.357213,0.29867 2.56522,0.3851 1.566236,0.11207 2.196374,0.28253 2.196374,0.59416 0,0.33018 -0.582029,0.437 -2.381114,0.437 -1.3276,0 -2.47359,0.14963 -2.590128,0.33819 -0.617459,0.99907 1.41722,3.89284 3.286244,4.67377 0.574748,0.24015 1.044998,0.56841 1.044998,0.72948 0,0.4204 -0.937907,1.2991 -1.382858,1.29556 -0.69128,-0.006 -3.709769,-1.90793 -4.057174,-2.55706 C 54.39215,112.66741 54.049731,112.64 46.72513,112.64 c -8.864532,0 -14.623738,0.58208 -15.930664,1.61011 -0.440427,0.34644 -0.975038,0.62989 -1.188025,0.62989 -1.198537,0 -2.396055,-3.25346 -2.402643,-6.52758 -0.0054,-2.70907 1.417635,-5.45649 4.326252,-8.35229 C 33.96824,97.572691 37.386502,95.04 38.224528,95.04 38.81375,95.04 42.24,92.607424 42.24,92.189088 c 0,-0.38864 -0.539658,-0.767712 -2.81216,-1.975344 -2.373885,-1.26151 -5.160874,-3.662192 -6.413469,-5.524496 -1.11055,-1.651114 -1.73218,-4.729165 -1.701509,-8.425158 0.0199,-2.398208 0.182678,-3.18634 1.205807,-5.838282 1.059043,-2.745037 1.435581,-3.326499 3.598813,-5.557376 1.328809,-1.370362 3.39398,-3.159779 4.589267,-3.976483 C 42.622061,59.583274 42.88,59.286586 42.88,58.392227 c 0,-1.242038 2.071379,-3.312877 6.830509,-6.828729 2.96088,-2.18738 3.185373,-2.295917 3.729718,-1.803293 0.685386,0.620265 1.39696,3.856816 1.317226,5.991312 -0.05283,1.414368 6.4e-4,1.523104 0.83304,1.691792 1.840569,0.373024 2.489507,0.666121 2.489507,1.124397 0,0.382864 -0.999782,0.539993 -5.28,0.82982 -2.904,0.196637 -5.568,0.469594 -5.92,0.60657 -1.873542,0.729056 -3.94871,1.826013 -4.786058,2.529955 -0.836569,0.70329 -0.880083,0.820656 -0.375977,1.014096 0.313542,0.12032 1.10599,0.0582 1.760992,-0.138045 C 45.099542,62.924563 55.166685,63.049619 56.64,63.57359 l 1.12,0.398317 -0.96,0.02266 c -9.121603,0.215136 -14.182864,0.450925 -14.618963,0.681047 -0.296429,0.156422 -0.89993,0.284403 -1.341114,0.284403 -0.441184,0 -0.89664,0.152883 -1.012121,0.339737 -0.115485,0.186858 -0.591984,0.504196 -1.058887,0.705197 L 37.92,66.370403 l 1.059027,0.116499 c 0.582464,0.06407 2.022464,-0.02403 3.2,-0.195769 1.177536,-0.171747 4.090429,-0.333786 6.473098,-0.360087 2.382669,-0.0263 4.89768,-0.175369 5.588915,-0.331267 0.727117,-0.163993 1.868342,-0.164592 2.707872,-0.0013 0.798099,0.155117 2.143715,0.373063 2.990259,0.484327 0.976394,0.128329 1.491859,0.340329 1.409773,0.579814 -0.08304,0.242262 -0.577158,0.320192 -1.379171,0.217517 -2.750413,-0.352119 -18.648554,0.3548 -20.289773,0.902192 -0.616,0.205453 -1.768,0.575545 -2.56,0.822429 -0.848259,0.264416 -1.484515,0.670163 -1.548326,0.987382 -0.09638,0.479104 0.168384,0.520077 2.4,0.371408 4.960272,-0.330445 10.901001,-0.781082 14.828326,-1.12481 4.229066,-0.370137 8.022093,-0.136652 8.235728,0.506957 0.09533,0.287213 -1.2856,0.422583 -5.413875,0.530717 -7.757309,0.203194 -14.658733,0.695923 -15.722685,1.122528 -0.495456,0.198659 -1.359456,0.363293 -1.92,0.365853 -1.36655,0.0062 -3.8036,0.864227 -4.299168,1.513558 -0.579037,0.758698 -0.539088,5.647991 0.05015,6.137008 0.45865,0.38065 14.404791,0.285219 21.389853,-0.146365 2.172598,-0.134236 3.12,-0.08589 3.12,0.159226 0,0.193603 -0.18,0.41992 -0.4,0.502931 -0.34279,0.129341 -6.126749,0.428323 -19.12,0.988346 -4.0084,0.172768 -4.657952,0.320643 -4.141552,0.942867 0.336928,0.405974 1.786179,0.460538 9.86824,0.37152 5.817222,-0.06407 9.959744,-0.245062 10.733706,-0.468966 1.561628,-0.45177 3.234057,-0.20056 2.727587,0.409699 -0.441594,0.532089 -2.787952,0.722 -12.875731,1.042134 -6.983562,0.221626 -8.328186,0.342179 -8.772512,0.786506 -0.405008,0.405008 -0.440448,0.626349 -0.1553,0.969933 0.301434,0.363203 1.828279,0.427462 8.292512,0.348992 4.357677,-0.0529 9.25505,-0.182688 10.88305,-0.28842 1.993155,-0.129449 2.96,-0.08141 2.96,0.147066 0,0.186621 -0.18,0.33943 -0.4,0.339578 -0.22,1.47e-4 -1.984,0.159488 -3.92,0.354092 -1.936,0.194605 -5.896,0.446487 -8.8,0.559735 -5.068666,0.197664 -5.283891,0.233193 -5.377245,0.88767 -0.07953,0.557536 0.270339,0.853715 1.92,1.625386 1.109485,0.518989 2.858986,1.208227 3.887783,1.531641 2.670323,0.83945 2.842531,2.06426 0.291929,2.076308 -0.752771,0.0036 -1.279731,0.276729 -1.92,0.995318 -0.485357,0.544733 -0.882467,1.156733 -0.882467,1.36 0,0.255904 1.476406,0.418794 4.8,0.529581 4.077072,0.135904 4.546976,0.200669 3.12,0.430029 -1.10215,0.177148 -1.68,0.4248 -1.68,0.72 0,0.263427 0.323018,0.449971 0.779168,0.449971 0.428544,0 1.157206,0.143731 1.619254,0.319401 1.843789,0.701005 0.337565,0.960599 -5.573632,0.960599 -5.894995,0 -9.115132,0.322342 -9.77087,0.97808 -0.498608,0.498608 0.409859,0.931331 1.967194,0.937021 0.737612,0.0026 1.430112,-0.139101 1.538886,-0.315101 0.247222,-0.400013 10.72,-0.436474 10.72,-0.03732 0,0.510317 -1.377885,0.668523 -5.861037,0.672953 -2.431571,0.003 -4.686685,0.14654 -5.01136,0.3203 -0.324678,0.17376 -1.863213,0.40899 -3.418963,0.52272 -2.479117,0.18123 -2.931376,0.31025 -3.660074,1.04407 -1.292253,1.30134 -2.577179,3.53375 -2.467686,4.28733 0.09909,0.68195 0.102707,0.68216 10.49912,0.60927 7.090525,-0.0497 10.233306,0.0297 9.876166,0.24954 -0.288108,0.17735 -1.584108,0.32422 -2.88,0.32638 -4.336768,0.007 -4.594284,0.031 -5.031542,0.46564 -0.366538,0.36431 -0.265344,0.47213 0.64,0.68195 0.591456,0.13707 2.683347,0.26001 4.648643,0.2732 1.965299,0.0132 3.681299,0.13197 3.813335,0.26397 0.223008,0.22294 -3.277725,0.42937 -5.466602,0.32235 -0.528,-0.0258 -2.904,0.09 -5.28,0.2574 -2.376,0.16739 -5.733962,0.3896 -7.462141,0.49382 -2.416727,0.14573 -3.185969,0.30369 -3.331992,0.68423 -0.247192,0.64416 0.780204,1.39257 1.645873,1.19894 0.367543,-0.0822 5.339031,-0.29309 11.047751,-0.46861 5.826199,-0.17913 10.515898,-0.45552 10.690439,-0.63006 0.20126,-0.20126 0.174428,-0.47544 -0.07607,-0.77728 -0.228707,-0.27557 -0.393965,-1.52539 -0.403997,-3.05541 -0.0093,-1.424 -0.145878,-2.66876 -0.30342,-2.76613 -0.52592,-0.32503 -0.29538,-0.7582 0.668921,-1.25686 0.556205,-0.28762 1.046039,-0.8553 1.172384,-1.3587 0.368611,-1.46868 1.414784,-2.963691 2.073904,-2.963691 0.899706,0 1.058794,0.783497 0.389239,1.916961 -0.852199,1.44266 -0.377063,1.58217 4.58599,1.34652 l 1.336877,-0.0636 -0.180938,-1.75314 c -0.150915,-1.462205 -0.09041,-1.787869 0.364631,-1.962484 0.730281,-0.280236 1.164435,0.213428 1.486182,1.689884 0.695568,3.19188 0.915165,3.91012 1.720048,5.62574 0.474781,1.012 0.981363,1.84 1.125738,1.84 0.144377,0 0.935142,0.98444 1.75726,2.18765 1.374772,2.01206 1.509645,2.38451 1.680228,4.64 0.12039,1.59183 0.320291,2.45235 0.569686,2.45235 0.677046,0 1.331226,1.06834 1.874358,3.06099 0.56938,2.08896 0.714554,6.83492 0.236861,7.74335 -0.160707,0.30562 -0.668931,1.37065 -1.129392,2.36675 -0.977961,2.11559 -3.089542,4.42891 -4.042678,4.42891 -0.365735,0 -1.108394,0.44342 -1.650355,0.98538 -1.625095,1.6251 -3.918951,2.83592 -5.398855,2.8498 -0.424144,0.004 -0.543529,0.55038 -0.686275,3.14091 -0.157104,2.85108 -0.297024,3.39635 -1.539654,6 -1.761728,3.69129 -2.613223,4.78878 -4.599149,5.92787 -1.342259,0.7699 -1.98848,0.93055 -3.753008,0.93304 -1.966301,0.003 -2.192762,-0.0697 -2.921053,-0.93527 z m 5.762432,-1.85691 c 1.477651,-0.96819 3.260653,-3.06564 4.152506,-4.88482 0.782387,-1.5959 0.861452,-2.08854 0.847974,-5.28361 -0.01612,-3.82039 -0.152534,-4.26438 -2.260026,-7.35559 -1.409865,-2.06795 -2.60862,-2.7208 -4.995913,-2.7208 -3.625303,0 -5.825242,1.96208 -6.808691,6.07253 -0.584676,2.44374 -0.547693,3.45176 0.206832,5.63737 0.358876,1.03956 0.576278,2.1781 0.483116,2.5301 -0.09316,0.352 -0.74679,1.04534 -1.452505,1.54075 -0.959504,0.67358 -1.281882,1.11747 -1.278218,1.76 0.008,1.39592 0.39408,1.68119 2.372227,1.75266 l 1.842772,0.0666 0.539161,-1.44 c 0.741603,-1.98068 1.451322,-1.90992 1.581648,0.15768 0.05561,0.88228 0.328576,1.84948 0.609594,2.16 0.672406,0.743 3.030281,0.74705 4.159523,0.007 z M 52.56,144.74667 c -0.573859,-0.22955 -0.494118,-1.69064 0.104813,-1.92047 0.758025,-0.29088 1.650925,0.72854 1.226902,1.40076 -0.382829,0.60691 -0.752777,0.75128 -1.331715,0.51971 z m -4.845936,-1.96302 c -0.240957,-0.45023 -0.209101,-0.77729 0.118778,-1.21945 0.428604,-0.57799 0.47295,-0.57965 1.022176,-0.0382 0.436601,0.43042 0.493302,0.69415 0.236697,1.10096 -0.499843,0.79241 -1.006579,0.85004 -1.377651,0.15669 z m 2.977523,-4.06293 c -0.252406,-1.00567 0.02509,-1.76072 0.647111,-1.76072 0.739315,0 1.232198,1.15223 0.821302,1.92 -0.472883,0.88359 -1.227206,0.80177 -1.468413,-0.15928 z m -7.98848,5.57195 c -0.10303,-0.16671 -0.323728,-0.21881 -0.490438,-0.11578 -0.166711,0.10303 -0.21881,0.32373 -0.115776,0.49044 0.10303,0.16671 0.323728,0.21881 0.490438,0.11578 0.166711,-0.10303 0.21881,-0.32373 0.115776,-0.49044 z M 15.220095,130.41223 c 1.039457,-0.43432 1.099905,-0.54511 1.099905,-2.01601 0,-2.02793 -1.315082,-4.87622 -2.251395,-4.87622 -1.070377,0 -3.656847,1.47989 -4.7374114,2.71058 C 8.5233459,127.15067 8.32,127.66596 8.32,128.79299 c 0,2.03793 0.7640637,2.5167 3.620095,2.26837 1.199053,-0.10426 2.675053,-0.39637 3.28,-0.64913 z m 4.051649,-3.27119 C 19.082913,126.64547 18.840983,125.736 18.73412,125.12 c -0.248494,-1.43243 -0.956998,-2.37644 -1.598746,-2.13018 -0.639839,0.24553 -0.65604,2.11544 -0.02555,2.94902 0.258403,0.34164 0.474403,1.01 0.48,1.48526 0.01267,1.07606 0.933116,1.69378 1.577713,1.05882 0.34777,-0.34257 0.371,-0.64171 0.104208,-1.34188 z M 23.68,127.51942 c 0.968,-0.31558 1.865795,-0.73256 1.9951,-0.92661 0.129305,-0.19405 0.237305,-1.23339 0.24,-2.30965 0.0071,-2.8328 -0.660861,-3.60456 -2.942341,-3.39959 -2.055875,0.1847 -3.910221,1.19177 -3.599122,1.95463 0.117037,0.28699 0.314802,1.34458 0.439479,2.35019 0.224723,1.81258 1.080949,3.28082 1.766693,3.0295 0.187105,-0.0686 1.132191,-0.38288 2.100191,-0.69847 z m 4.414765,-5.26721 C 28.027199,121.21681 27.862232,120.8 27.52,120.8 c -0.364269,0 -0.477103,0.38577 -0.467983,1.6 0.0066,0.88 0.129032,1.888 0.272051,2.24 0.247823,0.60995 0.27425,0.603 0.562748,-0.14779 0.166492,-0.43328 0.260069,-1.44128 0.207949,-2.24 z m 2.964822,2.19119 c 0.733822,-1.37116 -0.304258,-4.57855 -1.285569,-3.97206 -0.363311,0.22454 -0.468424,4.08759 -0.120685,4.43533 0.414212,0.41421 1.048466,0.20527 1.406254,-0.46327 z m 8.875559,-15.59655 c 0.333548,-0.21158 0.321913,-0.34072 -0.0592,-0.65702 -0.350663,-0.29102 -1.622538,-0.34378 -4.877895,-0.20234 -2.421949,0.10524 -4.479139,0.26693 -4.571531,0.35932 -0.09239,0.0924 0.04384,0.30195 0.302747,0.46569 0.581212,0.36757 8.633219,0.39762 9.205879,0.0344 z M 52.098666,53.416 C 52.0356,53.2268 51.8472,53.072 51.68,53.072 c -0.1672,0 -0.3556,0.1548 -0.418666,0.344 -0.06307,0.1892 0.125332,0.344 0.418666,0.344 0.293334,0 0.481734,-0.1548 0.418666,-0.344 z M 27.2,151.52 c -0.2191,-0.264 -0.591182,-0.48 -0.826848,-0.48 -0.815026,0 -1.133349,-2.27121 -0.603456,-4.30561 0.457767,-1.75748 0.449695,-1.91646 -0.148813,-2.93086 -2.239135,-3.79505 -2.097786,-10.59282 0.227526,-10.94219 0.806938,-0.12123 1.268987,1.02704 0.692682,1.72144 -0.618263,0.74496 -0.565237,5.20077 0.07779,6.53722 0.668747,1.3899 1.636498,2.44558 2.490289,2.71656 1.014499,0.32199 0.888995,0.73423 -1.055712,3.46768 -0.380627,0.535 -0.509415,1.06741 -0.366854,1.51658 0.179699,0.56618 0.402934,0.66419 1.226537,0.53849 1.310466,-0.20002 1.806854,-0.002 1.806854,0.72126 C 30.72,150.69198 28.921908,152 28.081412,152 27.815736,152 27.4191,151.784 27.2,151.52 Z m 7.218144,-9.8312 c -0.76144,-1.08711 -0.63959,-1.8488 0.29576,-1.8488 0.579763,0 0.848013,0.21559 0.994509,0.79928 0.40864,1.62814 -0.415466,2.29847 -1.290269,1.04952 z m -4.535251,-0.39011 c -0.300063,-0.78195 0.01397,-1.60547 0.659631,-1.72981 0.761218,-0.1466 1.445611,0.72737 1.226306,1.56599 -0.194214,0.74268 -1.616402,0.86622 -1.885937,0.16382 z m 2.77992,-4.29606 c -0.34313,-0.64115 -0.164957,-1.64263 0.29224,-1.64263 0.451123,0 1.019299,0.9215 0.911373,1.47811 -0.156304,0.8061 -0.812266,0.89576 -1.203613,0.16452 z m 4.937689,-16.79626 c -0.351721,-0.26072 -0.567721,-0.54187 -0.48,-0.62478 0.08772,-0.0829 2.463498,-0.22575 5.279498,-0.31744 2.816,-0.0917 6.953002,-0.33165 9.193334,-0.53323 4.459703,-0.4013 6.981396,-0.34734 6.967194,0.14908 -0.005,0.176 -0.835213,0.34636 -1.844842,0.37857 -1.009628,0.0322 -2.555686,0.14137 -3.435686,0.24258 -0.88,0.1012 -3.688,0.32947 -6.24,0.50728 -2.552,0.1778 -5.576,0.40173 -6.72,0.49763 -1.552656,0.13015 -2.242131,0.0542 -2.719498,-0.29969 z m 23.85113,-1.31235 c -0.505507,-0.6091 -0.207114,-1.04375 1.088067,-1.58492 0.580765,-0.24265 1.45201,-0.96047 1.936099,-1.59514 1.534116,-2.01133 2.624605,-1.22774 1.462228,1.05071 -0.436781,0.85616 -1.102106,1.52888 -1.929584,1.95102 -1.501255,0.76589 -2.038103,0.80333 -2.55681,0.17833 z m 12.285069,-5.39934 c -0.09975,-0.25995 0.116685,-1.05686 0.480969,-1.77091 0.364282,-0.71405 0.66233,-1.51498 0.66233,-1.77984 0,-0.26486 0.22088,-1.13215 0.490842,-1.92731 0.445526,-1.31226 0.441392,-1.68979 -0.04477,-4.08909 -0.843591,-4.163287 -1.656711,-5.658653 -4.950573,-9.104324 -0.387939,-0.40582 -0.622125,-1.007152 -0.560797,-1.44 0.147046,-1.037888 1.339456,-1.151366 2.137661,-0.203433 0.342819,0.407123 1.219417,1.439494 1.947993,2.294157 1.50424,1.764556 2.924176,4.452784 3.528768,6.68067 0.659338,2.42961 0.01034,6.65552 -1.500892,9.77306 -0.87864,1.81255 -1.834922,2.49632 -2.191533,1.56702 z M 98.08,105.58521 c -3.719565,-0.25467 -6.978778,-0.72396 -8.516608,-1.2263 -0.595866,-0.19464 -1.792694,-0.57791 -2.659619,-0.8517 C 83.911395,102.56217 78.843238,100.33415 78,99.593005 c -0.677485,-0.595456 -0.732806,-1.626778 -0.100285,-1.869501 0.252845,-0.09702 1.944845,0.498134 3.76,1.322573 4.660378,2.116733 5.340691,2.393923 5.875485,2.393923 0.260416,0 0.72353,0.12805 1.029142,0.28457 0.759972,0.3892 5.383172,1.23717 8.875658,1.62794 3.65643,0.40911 13.40263,0.42421 14.69728,0.0228 0.5405,-0.16759 2.06272,-0.53149 3.38272,-0.80865 6.65962,-1.39833 15.54446,-4.664256 19.43388,-7.14359 6.55258,-4.17698 9.64288,-7.06049 11.72763,-10.942864 0.33083,-0.616096 0.92825,-1.509901 1.32761,-1.986234 0.7928,-0.945619 3.50532,-6.167203 4.8384,-9.313904 0.46135,-1.089021 1.24106,-3.708038 1.73268,-5.820038 0.49161,-2.112 1.05995,-4.272 1.26296,-4.8 1.01147,-2.630676 1.77213,-21.399072 0.97177,-23.97728 -0.16779,-0.540496 -0.82576,-2.661908 -1.46216,-4.714247 -1.34764,-4.346059 -2.40018,-6.500316 -4.44907,-9.105966 -0.81414,-1.035379 -2.04147,-2.617383 -2.72739,-3.515563 -1.5433,-2.020862 -7.15031,-7.252404 -9.41694,-8.786344 -1.98201,-1.341327 -4.9203,-2.5621095 -8.03937,-3.3401521 -5.33369,-1.3304726 -20.9591,-1.2249693 -26.24,0.1771735 -1.408,0.3738409 -4.36,1.0016606 -6.56,1.3951556 -2.551437,0.456352 -4.601059,1.02363 -5.659738,1.566456 -0.912854,0.468057 -2.585753,1.199564 -3.717552,1.625572 -2.966547,1.116605 -8.129014,3.960396 -9.66271,5.322787 -0.352,0.312684 -0.874077,0.618892 -1.160173,0.680462 -0.482013,0.103733 -4.264054,3.392229 -6.962285,6.05373 -1.691091,1.66807 -5.475414,6.537668 -6.68056,8.596424 C 62.362803,37.46655 59.84,42.824896 59.84,43.537411 59.84,44.498918 59.258394,45.44 58.66417,45.44 c -0.427565,0 -0.481821,-0.265936 -0.324778,-1.591901 0.103696,-0.875545 0.444928,-2.351545 0.758294,-3.28 0.674679,-1.998957 3.452992,-7.495494 4.250013,-8.408099 0.307415,-0.352 1.212829,-1.648 2.012029,-2.88 1.60159,-2.468923 6.706326,-7.800231 9.707434,-10.138299 2.481462,-1.933227 8.096464,-5.334781 11.502025,-6.967896 2.857251,-1.370178 8.66624,-3.4294098 11.030813,-3.9103202 0.792,-0.1610781 2.088,-0.423233 2.88,-0.5825664 0.792,-0.1593334 2.376,-0.5242253 3.52,-0.8108707 2.43925,-0.6111891 9.30662,-1.2555498 12.96,-1.2160279 3.60868,0.039038 12.82358,0.672985 14.65564,1.0082474 0.84461,0.15456 1.70141,0.4467789 1.904,0.6493754 C 133.72224,7.514239 134.21713,7.68 134.6194,7.68 c 0.92821,0 4.31744,1.791528 6.96971,3.684149 2.65573,1.895092 7.97029,7.211405 9.34458,9.347672 0.59153,0.919501 1.3309,1.927501 1.64304,2.24 1.52078,1.522546 4.51329,7.070116 4.55731,8.448455 0.008,0.241848 0.23749,1.015724 0.51057,1.719724 0.79739,2.055613 1.08273,4.117405 1.41713,10.24 0.2546,4.661552 0.2215,6.577088 -0.17357,10.044618 -0.26849,2.356537 -0.48817,5.001209 -0.48817,5.877049 0,0.87584 -0.21374,2.259763 -0.47498,3.075386 -0.26124,0.815619 -0.8505,3.066947 -1.30947,5.002947 -0.94809,3.999149 -1.20146,4.802067 -2.22159,7.04 -2.16639,4.752598 -3.73034,7.843197 -4.08239,8.067402 -0.21814,0.138931 -0.81423,1.044598 -1.32464,2.012598 -0.86282,1.636346 -2.55087,3.964739 -4.80726,6.630845 -0.51719,0.611091 -2.02919,1.845497 -3.36,2.74312 -1.33082,0.897622 -2.67366,1.868246 -2.98409,2.156937 -0.80776,0.751204 -7.1181,4.149098 -7.70541,4.149098 -0.27082,0 -0.5814,0.144 -0.69017,0.32 -0.10877,0.176 -0.41951,0.32 -0.69052,0.32 -0.27102,0 -0.94652,0.19963 -1.50112,0.44361 -8.68887,3.82253 -17.52976,5.13846 -29.16836,4.3416 z M 70.613334,89.706666 c -0.427884,-0.427882 -0.179542,-0.75144 1.567156,-2.041802 0.97927,-0.72343 2.829689,-2.347971 4.112044,-3.610096 3.085335,-3.036653 3.678244,-4.559693 3.095872,-7.952541 -0.457497,-2.665334 -1.835862,-5.909053 -3.141734,-7.393472 -0.846163,-0.961853 -4.628266,-4.665283 -6.029552,-5.904128 -0.932704,-0.824579 -1.634534,-4.974781 -1.158454,-6.850387 0.590633,-2.326922 0.107814,-2.409962 -3.190016,-0.548653 -1.291757,0.729072 -2.950596,1.737072 -3.686308,2.24 -1.443689,0.986899 -1.86998,1.099821 -2.191004,0.580397 -0.308512,-0.499184 0.418684,-1.226253 2.728662,-2.728189 1.144,-0.743824 2.615555,-1.763117 3.270122,-2.265101 2.123136,-1.628217 4.073248,-2.722892 4.647968,-2.609091 0.623939,0.123546 0.635881,0.388509 0.235516,5.225325 -0.214988,2.597283 -0.170099,3.02424 0.444676,4.229299 0.807676,1.583171 1.773587,2.236272 2.462172,1.664797 C 74.033206,61.533261 74.24,61.191459 74.24,60.983469 c 0,-0.207994 0.428829,-1.054362 0.952954,-1.880819 L 76.145904,57.6 h 2.199037 c 1.907923,0 2.365088,0.120288 3.453392,0.90865 0.995347,0.721027 1.340521,1.244854 1.671651,2.536864 0.304221,1.187004 0.324182,1.802204 0.07366,2.27031 C 83.35464,63.668979 83.2,64.319184 83.2,64.760723 c 0,0.532304 -0.611722,1.46353 -1.815546,2.763805 l -1.815545,1.961005 0.552598,0.935478 c 1.432378,2.424819 1.954771,7.846311 0.9568,9.929824 -0.532595,1.11193 -2.677469,4.479831 -3.037277,4.769165 -0.109436,0.088 -0.919804,0.77471 -1.800822,1.526026 -3.155456,2.690915 -4.995654,3.691859 -5.626874,3.06064 z M 79.867347,64.715101 C 81.627664,63.523642 80.24385,60.133203 78.4,61.12 c -0.878189,0.46999 -0.848182,2.137152 0.05578,3.099376 0.755005,0.803664 0.887735,0.850275 1.411568,0.495725 z"
         id="path2663" />
    </g>
  </g>
</svg>
