<?xml version="1.0" encoding="UTF-8" standalone="no"?>
<svg
   xmlns:dc="http://purl.org/dc/elements/1.1/"
   xmlns:cc="http://creativecommons.org/ns#"
   xmlns:rdf="http://www.w3.org/1999/02/22-rdf-syntax-ns#"
   xmlns:svg="http://www.w3.org/2000/svg"
   xmlns="http://www.w3.org/2000/svg"
   xmlns:sodipodi="http://sodipodi.sourceforge.net/DTD/sodipodi-0.dtd"
   xmlns:inkscape="http://www.inkscape.org/namespaces/inkscape"
   inkscape:version="1.0 (4035a4fb49, 2020-05-01)"
   sodipodi:docname="103304954_3206129179445383_775284648899292759_n (1).jpg"
   viewBox="0 0 62.080002 77.760002"
   height="77.760002"
   width="62.080002"
   id="svg9602"
   version="1.1">
  <metadata
     id="metadata9608">
    <rdf:RDF>
      <cc:Work
         rdf:about="">
        <dc:format>image/svg+xml</dc:format>
        <dc:type
           rdf:resource="http://purl.org/dc/dcmitype/StillImage" />
        <dc:title></dc:title>
      </cc:Work>
    </rdf:RDF>
  </metadata>
  <defs
     id="defs9606" />
  <sodipodi:namedview
     inkscape:current-layer="g9610"
     inkscape:window-maximized="0"
     inkscape:window-y="34"
     inkscape:window-x="10"
     inkscape:cy="48.790026"
     inkscape:cx="8.8479088"
     inkscape:zoom="5.1853303"
     showgrid="false"
     id="namedview9604"
     inkscape:window-height="1034"
     inkscape:window-width="1898"
     inkscape:pageshadow="2"
     inkscape:pageopacity="0"
     guidetolerance="10"
     gridtolerance="10"
     objecttolerance="10"
     borderopacity="1"
     bordercolor="#666666"
     pagecolor="#ffffff" />
  <g
     id="g9610"
     inkscape:label="Image"
     inkscape:groupmode="layer">
    <g
       id="g10228">
      <path
         style="fill:#f1c109;stroke:#000000;stroke-width:1.6;stroke-linecap:round;stroke-opacity:0;fill-opacity:1"
         d="m 13.971159,31.267907 -4.6152092,2.662087 -1.5104531,2.424846 1.4466704,3.283571 2.9007469,2.813941 3.220672,1.427497 3.659795,0.370865 -2.849441,4.897529 -0.876134,5.134629 0.851814,3.380822 -3.68107,2.137989 -0.379644,1.245598 1.12596,1.27562 0.670186,0.850777 4.958083,1.533876 0.332074,1.624613 -1.717318,1.17069 -4.271173,-0.115259 -3.7116886,-0.710161 -2.2323393,0.493694 -0.2981666,3.033113 1.3856076,1.938901 3.5209209,1.371884 3.882202,0.229307 4.19501,-1.020323 3.07296,-2.003494 1.846931,-2.048894 0.387584,-4.06555 -1.396502,-2.592381 5.458757,1.320719 8.247642,-1.479212 2.565741,-0.610562 -0.70976,3.290757 1.434776,3.847343 2.29195,1.874464 3.835852,-0.86857 3.406677,-2.699496 1.937413,-4.449666 0.399813,-4.999844 2.07311,-0.100056 2.409482,-2.653679 1.892114,-4.060497 1.024182,-4.575556 -1.087747,-1.705475 -1.663375,-1.34421 -1.873129,0.95774 -1.918297,1.860809 -2.867339,-2.178598 -2.288687,-0.167202 -0.879558,-3.105692 -4.276781,-3.007364 1.360087,-1.349899 2.784168,-1.955044 2.651092,-3.357337 0.560789,-3.357823 -1.72124,-1.896598 -3.779661,-1.186756 -1.248463,-0.686365 -4.583861,-4.614906 -10.925757,0.757208 -5.887275,1.994532 1.080953,2.3239 0.09116,2.824325 -1.181987,2.238396 -3.376889,1.93519 -2.573729,0.147764 -2.054663,-0.744739 z"
         id="path10177" />
      <path
         style="fill:#ffffff;fill-opacity:1;stroke:none;stroke-width:1.6;stroke-linecap:round;stroke-opacity:0.05843391"
         d="m 21.324015,29.79354 1.983323,-2.756849 0.455067,-2.508459 -0.94891,-3.034907 4.765207,-1.495296 4.637818,-0.975057 9.54841,-0.827327 -2.860246,0.614912 2.22071,1.867502 1.759794,1.644407 2.05866,-1.769128 0.786188,-0.424874 c 0,0 1.012378,-3.0652 1.003593,-3.169151 -0.0088,-0.103951 0.05271,-3.519681 0.05271,-3.519681 L 44.240144,7.1103124 37.762265,3.3265149 32.498218,2.4524298 28.697605,2.6582145 c 0,0 -5.278834,1.4101258 -5.375468,1.5506841 -0.09663,0.1405583 -5.049184,3.0044166 -5.049184,2.890213 0,-0.1142037 -4.073732,5.1180164 -4.073732,5.1180164 l -2.254077,5.167121 -0.976721,4.038425 0.223179,3.929163 1.533076,3.045618 1.815823,2.037633 3.571333,0.81823 z"
         id="path10181" />
      <path
         style="fill:#ffffff;fill-opacity:1;stroke:none;stroke-width:1.6;stroke-linecap:round;stroke-opacity:0.0584339"
         d="m 33.81967,25.438583 1.803333,1.644649 3.46369,-2.065649 -1.808756,-1.774457 -4.206033,0.534336 z"
         id="path10183" />
      <path
         style="fill:#000000;stroke-width:0.32"
         d="M 10.607391,73.627688 C 7.3644793,72.507807 6.0865519,70.762056 6.7502114,68.358479 7.3360815,66.236632 8.7999923,65.840158 12.8,66.720002 c 2.960954,0.651293 4.899034,0.61456 5.550404,-0.105197 0.817797,-0.903655 0.651964,-1.203936 -0.990403,-1.793376 -0.836,-0.300039 -2.110304,-0.755226 -2.831785,-1.01153 -3.685436,-1.309229 -3.837018,-4.064041 -0.312411,-5.677658 1.758642,-0.805132 1.758642,-0.805132 1.247384,-1.829977 -1.135368,-2.275898 -0.0083,-7.707037 2.18002,-10.505418 0.894433,-1.143766 0.753354,-1.316189 -1.083208,-1.323872 -3.847749,-0.0161 -7.6952794,-3.222093 -8.8974795,-7.413917 -0.4042038,-1.409376 2.2798695,-4.369981 5.7235795,-6.313263 0.332716,-0.187751 0.245052,-0.507239 -0.4,-1.457776 -0.827531,-1.219435 -1.089691,-2.23483 -0.525326,-2.034684 0.165426,0.05867 0.633426,0.596035 1.04,1.194151 3.422799,5.035325 12.331884,-0.03893 9.092546,-5.178743 -1.100379,-1.745956 -0.994686,-1.999198 1.160301,-2.780106 4.469745,-1.619712 16.218104,-2.976475 20.665279,-2.386537 C 46.742283,18.410307 46.99629,16.482182 45.349246,11.04 43.030878,3.379634 31.800254,0.42161204 22.576533,5.0419204 16.425724,8.1229586 11.741165,15.340527 11.744522,21.730958 c 0.0012,2.340263 -0.05501,2.61379 -0.431554,2.098838 -1.7523936,-2.396541 0.549717,-9.66812 4.689637,-14.8129567 8.01465,-9.96011097 26.642222,-9.37684523 30.02684,0.940199 2.110387,6.4329207 1.702595,9.6593997 -1.500036,11.8683647 -1.03046,0.710745 -0.680838,1.740899 0.685098,2.018623 5.219866,1.061306 6.998355,3.687654 4.910135,7.250935 -0.865652,1.47712 -5.04602,5.70504 -5.640881,5.70504 -0.679948,0 -0.239356,0.521718 1.403156,1.66153 1.591808,1.104624 2.753085,2.735008 2.753085,3.865216 0,0.319808 0.461033,0.521987 1.442585,0.632621 0.825101,0.093 1.866999,0.489897 2.434106,0.927235 0.99152,0.764637 0.99152,0.764637 2.100198,-0.280983 1.940628,-1.830246 4.266308,-1.183475 5.333293,1.483188 1.475674,3.68807 -3.317302,13.435638 -6.25159,12.713987 -0.450291,-0.110746 -0.540739,0.116794 -0.537443,1.352026 0.02515,9.425338 -9.902548,15.700221 -13.281489,8.394669 -2.999638,-6.485479 3.766362,-18.849783 8.146045,-14.886225 0.506026,0.457946 0.646935,0.456292 1.564791,-0.01834 1.031206,-0.533257 2.708924,-0.285808 3.769504,0.555972 0.539533,0.428224 0.505203,1.577699 -0.06982,2.337952 -1.288119,1.703046 0.102144,1.911184 1.987344,0.297523 2.614838,-2.238205 4.712326,-8.322592 3.591222,-10.417399 -0.533485,-0.996835 -0.948742,-0.715769 -0.948742,0.642138 0,0.693613 -0.128912,1.340787 -0.286471,1.438163 -0.473916,0.292896 -0.709206,-0.802861 -0.48847,-2.274835 0.188925,-1.259853 0.146995,-1.384442 -0.465942,-1.384442 -1.163879,0 -2.650064,1.866519 -2.536634,3.185792 0.137827,1.603043 -0.701267,1.502951 -1.161837,-0.138592 -0.241107,-0.859347 -0.707642,-1.509024 -1.436202,-2 -1.917196,-1.292 -2.104444,-1.101952 -2.104444,2.135891 0,1.863581 -0.139664,3.003271 -0.4,3.264122 -0.320052,0.320682 -0.4,-0.258438 -0.4,-2.89745 0,-2.876089 -0.06479,-3.273376 -0.506173,-3.104 -0.278394,0.106832 -0.56256,0.194237 -0.631479,0.194237 -0.06892,0 -0.0401,1.44 0.06404,3.2 0.164717,2.78368 0.123539,3.2 -0.316512,3.2 -0.41768,0 -0.521901,-0.511475 -0.597869,-2.934115 -0.122915,-3.919664 -0.73201,-4.074707 -0.73201,-0.18633 0,1.671792 -0.133315,2.960445 -0.306265,2.960445 -0.174525,0 -0.273719,-1.032374 -0.230599,-2.4 0.111242,-3.528259 -0.928268,-3.780243 -4.185097,-1.014486 -0.665341,0.565021 -1.011456,0.338966 -0.748679,-0.488976 0.339655,-1.07016 3.647156,-2.861987 6.350641,-3.440442 0.672934,-0.143984 0.88,-0.375094 0.88,-0.982192 0,-0.746621 -0.582653,-1.064586 -1.06568,-0.581558 -0.446077,0.44608 -3.415719,1.324278 -3.579876,1.058662 -0.21703,-0.351162 0.545274,-0.739046 2.479744,-1.26177 0.832803,-0.225036 1.441748,-0.526371 1.35321,-0.669628 -0.188912,-0.305668 -3.058928,0.642748 -4.526739,1.495894 -1.136564,0.660611 -1.842183,0.380874 -0.8773,-0.347798 0.339152,-0.256125 1.51664,-0.793351 2.61664,-1.193831 2.381472,-0.867037 2.396506,-0.914592 0.591872,-1.871949 -1.509161,-0.800611 -1.316908,-0.841587 -7.151872,1.524356 -0.22,0.08921 -0.4,-0.0053 -0.4,-0.210039 0,-0.204726 0.684,-0.660515 1.52,-1.012861 2.753495,-1.160508 2.910813,-1.270288 1.52,-1.060646 -0.704,0.106112 -1.974547,0.524438 -2.82344,0.929613 -1.54344,0.736675 -1.54344,0.736675 -1.803145,0.05216 -0.34242,-0.902512 0.01008,-1.284326 1.825974,-1.977824 0.830669,-0.317235 1.332624,-0.636016 1.115459,-0.708406 -0.435792,-0.145264 -0.535683,-0.913469 -0.149795,-1.151962 0.305638,-0.188896 3.300391,0.57352 4.250874,1.082205 0.559731,0.299558 0.76215,0.288096 0.979869,-0.05548 0.778697,-1.228867 -1.747047,-3.284458 -2.686919,-2.186765 -0.601418,0.702403 -1.508877,0.849955 -1.508877,0.245341 0,-0.21361 0.693427,-1.04161 1.540951,-1.84 3.723702,-3.507829 3.92775,-7.580609 0.557913,-11.135926 -0.623321,-0.65763 -1.134563,-1.30369 -1.136089,-1.43569 -0.0063,-0.5472 1.070073,-0.182846 1.654397,0.56 0.799001,1.015768 1.170448,1.004337 2.599638,-0.08 2.034813,-1.543829 0.73721,-1.683073 -9.368243,-1.005292 -6.085661,0.408171 -5.715111,0.292168 -4.843476,1.516266 1.102801,1.548742 0.487377,2.262428 -1.965091,2.278849 -2.048863,0.01372 -2.107614,-0.789037 -0.08,-1.093097 1.396305,-0.209389 1.792006,-0.561404 1.106983,-0.984771 -0.183159,-0.113199 -0.247692,-0.47465 -0.143407,-0.803224 0.185023,-0.582954 0.140818,-0.583032 -1.826983,-0.0032 -4.553364,1.341629 -4.442233,1.276699 -3.918521,2.289446 1.55267,3.002531 -0.02789,6.969563 -3.378072,8.478582 -0.676912,0.304901 -0.444525,0.35466 1.510371,0.323406 2.49351,-0.03986 3.1014,0.456536 0.729629,0.595813 -1.858046,0.109107 -4.16,0.743075 -4.16,1.145683 0,0.172569 0.324,0.240182 0.72,0.150253 3.892807,-0.884036 5.36,-1.028999 5.36,-0.529584 0,0.153507 -0.612,0.375344 -1.36,0.492972 -2.11398,0.332442 -3.76,0.825482 -3.76,1.126247 0,0.150505 0.602115,0.138365 1.338033,-0.02698 3.0299,-0.680775 2.977634,0.14279 -0.05803,0.914435 -1.12,0.284698 -1.12,0.284698 0.64,1.127511 2.473242,1.184368 3.127511,1.714784 2.678073,2.171104 -0.271955,0.276121 -0.695737,0.197174 -1.704729,-0.317578 -1.555696,-0.793654 -1.783627,-0.677309 -5.349697,2.730771 -2.090337,1.997725 -2.018397,2.290445 0.611645,2.488756 0.77683,0.05857 1.577453,0.208496 1.779165,0.333158 0.201711,0.124666 0.819347,-0.0074 1.372525,-0.293443 1.746775,-0.903293 3.463707,-1.412359 3.664998,-1.086663 0.103721,0.167824 -0.07254,0.395012 -0.391698,0.504861 -1.710097,0.588602 -4.302092,1.860554 -4.652953,2.283315 -0.290239,0.349719 -0.04695,0.305876 0.875356,-0.157747 1.771951,-0.890723 4.559774,-1.772237 5.038741,-1.593261 0.25105,0.09381 0.16169,0.238496 -0.241426,0.390909 -4.304222,1.627363 -7.2,3.084634 -7.2,3.623325 0,0.260989 4.599609,-1.29585 6.970856,-2.35944 1.363516,-0.611587 1.868389,-0.616998 1.368503,-0.01469 -0.208453,0.251168 -1.054085,0.683379 -1.879183,0.960467 -6.526162,2.191645 -7.67826,3.102359 -7.975067,6.30416 -0.16698,1.8013 -0.16698,1.8013 3.153955,0.139495 1.826515,-0.913987 4.184936,-2.000445 5.240936,-2.414343 1.056,-0.413897 2.615397,-1.096873 3.465326,-1.517718 0.84993,-0.420848 1.71393,-0.702912 1.92,-0.62681 0.206071,0.07611 -1.065326,0.816608 -2.825326,1.645565 -8.093495,3.812016 -9.328157,4.427616 -10.045333,5.008563 -1.398934,1.133204 -0.541856,0.896333 2.880612,-0.796112 3.434836,-1.69856 9.881914,-4.149411 10.166529,-3.864793 0.303583,0.30358 -0.470374,0.714825 -2.681808,1.424976 -3.833774,1.231129 -10.4,4.491577 -10.4,5.164099 0,0.528826 0.179683,0.495766 1.84,-0.338522 1.012,-0.508515 3.496,-1.662444 5.52,-2.564284 2.024,-0.901837 3.946022,-1.789568 4.271161,-1.97273 0.814713,-0.45896 1.148998,-0.01958 0.401146,0.527264 -0.333677,0.243994 -1.701451,0.896614 -3.039497,1.450272 -3.86015,1.597261 -7.709512,3.554198 -7.749722,3.939805 -0.0203,0.194688 -0.0563,0.569977 -0.08,0.833978 -0.0237,0.264 -0.259088,0.424316 -0.523088,0.356259 -1.603449,-0.413357 -2.063367,-0.369139 -3.369926,0.32399 -1.63181,0.865671 -1.868733,1.766147 -0.741099,2.816698 0.688976,0.641878 0.688976,0.641878 1.914518,-0.75041 1.678988,-1.90743 3.486272,-2.04264 6.407299,-0.479353 0.393737,0.21072 0.589208,0.206768 0.589208,-0.01191 0,-0.625677 10.823376,-6.434166 11.935431,-6.405286 0.594444,0.01542 -1.792151,1.40224 -6.015431,3.495443 -4.014326,1.989642 -6.243423,3.501731 -5.193641,3.523062 0.311497,0.0063 1.136636,-0.348492 1.833641,-0.788492 0.697005,-0.44 1.32419,-0.8 1.393744,-0.8 0.126275,0 7.511715,-3.46178 7.966256,-3.734023 0.132,-0.07906 0.24,-0.0022 0.24,0.170963 0,0.173088 -2.052,1.334986 -4.56,2.581988 -6.047775,3.007014 -5.823954,2.811702 -5.007956,4.370121 3.371378,6.438768 -6.075647,13.268007 -14.384654,10.398637 z m 3.407674,-0.620784 c 2.58207,-1.637933 -0.452972,-5.74088 -4.2854685,-5.793344 -3.8243438,-0.05236 -2.414395,4.56817 1.6979635,5.564375 2.307119,0.558892 2.096758,0.540275 2.587505,0.228969 z m 2.209791,-0.260521 c 0.229722,-0.598647 -0.387865,-3.917389 -0.806984,-4.336509 -0.149003,-0.149005 -0.285297,0.885821 -0.302877,2.299606 -0.03162,2.54272 0.52427,3.562928 1.109861,2.036903 z m 3.615145,-0.678362 c 3.203681,-1.407357 3.598305,-2.123046 2.033459,-3.687894 -1.529094,-1.529092 -2.243524,-1.738807 -3.033806,-0.890538 -0.371869,0.399155 -1.021822,0.670413 -1.606356,0.670413 -0.785002,0 -0.940736,0.106934 -0.777032,0.533542 0.112607,0.293447 0.292282,1.371104 0.399279,2.394791 0.217093,2.077036 0.371259,2.127644 2.984456,0.979686 z m 26.764801,-2.928867 c 3.610803,-1.744551 6.082595,-7.041687 5.253152,-11.257677 -0.337479,-1.71537 -0.318932,-2.0121 0.158774,-2.539959 0.857136,-0.947123 0.371027,-1.582259 -1.206685,-1.576617 -1.584435,0.0057 -2.081699,0.255353 -2.607017,1.309036 -0.469927,0.942576 -1.708365,1.312711 -1.333412,0.398519 0.72745,-1.77361 0.369325,-2.312397 -1.264461,-1.902343 -3.742752,0.939373 -6.571785,8.619402 -4.882297,13.254078 1.010688,2.772572 3.173213,3.62368 5.881946,2.314963 z m -0.708077,-3.64442 c -0.302455,-0.788185 -0.01898,-1.63783 0.585283,-1.754201 0.425562,-0.08196 0.538413,0.08945 0.484864,0.736451 -0.08781,1.060973 -0.795347,1.733869 -1.070147,1.01775 z m -1.196724,-4.261398 c -0.763228,-0.763229 0.244912,-2.611789 1.220263,-2.237514 0.420595,0.161399 0.430249,0.329962 0.06953,1.213981 -0.426985,1.046432 -0.895276,1.418048 -1.289792,1.023533 z m 3.125185,-0.196554 c -0.315936,-0.823315 -0.02514,-1.99678 0.494816,-1.99678 0.342604,0 0.450883,0.27479 0.378278,0.96 -0.124787,1.177686 -0.601702,1.744016 -0.873094,1.03678 z m -23.196524,6.571437 c 0.01636,-0.565331 -1.49939,-1.249753 -3.348661,-1.512057 -1.6,-0.226944 -1.6,-0.226944 -0.110114,0.768656 0.819437,0.547581 1.737956,1.374205 2.041153,1.836941 0.562668,0.858742 1.37935,0.228758 1.417622,-1.09354 z m 0.01134,-1.848217 c 0,-0.768522 -0.07869,-0.799808 -2,-0.795101 -1.841462,0.0045 -2.221377,0.607549 -0.4,0.634918 0.352,0.0053 1,0.209376 1.44,0.453523 0.44,0.244151 0.836,0.458029 0.88,0.475284 0.044,0.01726 0.08,-0.328624 0.08,-0.768624 z m -0.3544,-1.632615 c 0.529584,-0.471897 -2.658368,-2.346518 -4.013992,-2.360358 -0.993331,-0.01014 -2.170322,1.988749 -1.44166,2.448377 0.445996,0.281325 5.12589,0.205824 5.455652,-0.08802 z m -5.933772,-1.71199 c 1.123196,-1.697264 0.513546,-1.984771 -0.999749,-0.471475 -1.110888,1.110889 -1.148317,1.208643 -0.551894,1.441404 0.351898,0.137332 0.656679,0.259815 0.677291,0.272183 0.02061,0.01238 0.41407,-0.546579 0.874352,-1.242112 z m -1.77376,-0.661165 c 0.581938,-0.700826 0.920855,-1.27423 0.75315,-1.27423 -0.292257,0 -2.291219,2.10358 -2.291219,2.411136 0,0.437395 0.597681,-0.0044 1.538069,-1.136906 z M 15.868801,41.024919 c 1.04016,-1.020297 2.384413,-2.256214 2.987229,-2.746486 0.99638,-0.810358 1.006888,-1.455338 0.02397,-1.471216 -0.628834,-0.01014 -5.530075,5.05649 -5.348683,5.529187 0.282636,0.736541 0.205409,0.779872 2.337483,-1.311485 z m -0.693634,-1.845846 c 2.731287,-2.66449 3.26297,-3.485613 1.73224,-2.675248 -2.107021,1.11545 -5.310418,4.44409 -4.906243,5.098058 0.275312,0.445465 0.08458,0.591052 3.174003,-2.42281 z m 0.414156,-2.596614 c 1.263953,-0.740727 1.384877,-0.900663 0.931585,-1.232116 -0.286499,-0.209494 -0.520907,-0.529616 -0.520907,-0.711382 0,-0.640637 -3.471778,-1.281075 -4.942966,-0.911831 -1.4924856,0.374592 -0.845053,0.83281 1.182965,0.837239 2.258511,0.0049 3.440001,0.244835 3.440001,0.698486 0,0.183412 -1.317596,0.271146 -3.253951,0.216672 -4.3333877,-0.12191 -4.8883944,0.968596 -2.272469,4.46505 0.796479,1.064573 0.796479,1.064573 2.389864,-0.723165 0.876362,-0.983254 2.247007,-2.170784 3.045878,-2.638953 z m 22.464013,1.294198 c 0.439142,-0.384211 -0.602413,-0.02739 -1.112173,0.380998 -0.585699,0.469239 -0.575488,0.475901 0.178838,0.116653 0.44,-0.209549 0.86,-0.433491 0.933335,-0.497651 z m 4.42,0.01002 C 42.367,37.78034 42.091,37.768974 41.860001,37.861425 c -0.255273,0.10215 -0.179449,0.177978 0.193335,0.193331 0.337331,0.01389 0.526333,-0.06173 0.42,-0.16807 z m -1.993335,-0.446672 c 0.96,-0.244278 0.96,-0.244278 0,-0.259648 -0.528,-0.0084 -1.248,0.108387 -1.6,0.259648 -0.86255,0.37065 0.143363,0.37065 1.6,0 z m 4.64,-2.377142 c 0,-0.580221 -0.759126,-1.342548 -1.950316,-1.958535 -1.226247,-0.634118 -1.17296,-0.413466 0.270316,1.11936 1.287168,1.367031 1.68,1.563255 1.68,0.839175 z m -27.84,-1.087079 c 0,-0.879926 -1.487687,-1.501376 -3.200001,-1.336733 -1.76,0.169229 -1.76,0.169229 0.05761,0.425319 0.999683,0.140851 1.989315,0.462988 2.199182,0.715862 0.4182,0.503901 0.943213,0.612749 0.943213,0.195552 z m 29.253828,0.06998 c 1.198701,-0.459984 0.09785,-1.748669 -2.01025,-2.353265 -1.162614,-0.333434 -1.756838,0.199596 -0.811984,0.728363 0.330797,0.185123 0.891014,0.667558 1.244928,1.07208 0.700269,0.800406 0.821443,0.842873 1.577306,0.552822 z m 2.01296,-2.125763 c 2.726102,-2.981387 1.640096,-6.100019 -1.57593,-4.525524 -1.028771,0.503662 -2.306442,1.832602 -2.66816,2.775221 -0.121594,0.31687 0.116352,0.579132 0.717699,0.791048 0.494784,0.174361 1.259603,0.618732 1.699604,0.987491 1.004921,0.842215 1.031241,0.841809 1.826787,-0.02824 z m -29.666788,0.08 c 0.375434,-0.242625 0.29241,-0.311267 -0.381115,-0.3151 -0.473613,-0.0027 -0.950111,0.1391 -1.058885,0.3151 -0.252534,0.408608 0.807725,0.408608 1.44,0 z m -3.2,-0.285764 c 0,-0.55409 -1.075731,-0.695649 -1.565385,-0.205994 -0.442345,0.442344 -0.388403,0.491758 0.536813,0.491758 0.565714,0 1.028572,-0.128594 1.028572,-0.285764 z m 32.009562,-5.42644 c 0.692515,-0.266071 0.72025,-0.33204 0.223879,-0.532499 -0.676896,-0.273364 -2.684106,0.992043 -2.903329,1.830348 -0.11991,0.458542 0.03538,0.419682 0.871552,-0.218101 0.559604,-0.42683 1.373159,-0.912717 1.807898,-1.079748 z m -1.609562,-1.007796 c 0,-0.176 -0.224499,-0.32 -0.498886,-0.32 -0.274387,0 -0.409888,0.144 -0.301114,0.32 0.108775,0.176 0.333274,0.32 0.498887,0.32 0.165613,0 0.301113,-0.144 0.301113,-0.32 z M 27.295754,63.326075 c -1.314564,-0.380166 -1.591978,-0.849216 -0.847797,-1.433456 0.883816,-0.693862 8.821791,-4.649536 8.990937,-4.48039 0.211158,0.211158 -2.562227,1.886774 -5.438893,3.286051 -4.449955,2.164566 1.553607,2.56904 8.16,0.54976 1.024211,-0.313056 0.59544,0.677434 -0.48,1.108826 -3.176832,1.27432 -7.828068,1.708441 -10.384247,0.969209 z m 1.56558,-33.270074 c 0.06307,-0.1892 0.251467,-0.344 0.418667,-0.344 0.1672,0 0.3556,0.1548 0.418667,0.344 0.06307,0.1892 -0.125334,0.344 -0.418667,0.344 -0.293334,0 -0.481734,-0.1548 -0.418667,-0.344 z m -1.50273,-0.61826 c -0.109542,-0.177243 0.03217,-0.411033 0.314916,-0.519533 0.612687,-0.23511 0.954149,0.02398 0.659639,0.500503 -0.265721,0.429946 -0.715171,0.438722 -0.974555,0.01903 z m 2.145858,-0.399419 c -0.298269,-0.35986 -0.314838,-0.56358 -0.05871,-0.721876 0.473734,-0.292784 0.715886,-0.01496 0.582536,0.668341 -0.09756,0.499916 -0.149447,0.505219 -0.523826,0.05354 z m 6.335539,-0.07832 c 0,-0.270544 -0.286211,-0.48 -0.655891,-0.48 -3.731525,0 -4.672586,-4.319182 -1.32616,-6.086663 0.986029,-0.52079 1.513258,-1.013207 1.534672,-1.433337 0.01795,-0.352 0.05873,-0.784 0.09065,-0.96 0.0953,-0.525536 1.316733,1.139975 1.316733,1.79545 0,0.422327 0.228128,0.60455 0.756845,0.60455 1.247696,0 2.443155,1.167488 2.443155,2.385989 0,1.034018 -1.998019,3.374011 -2.880921,3.374011 -0.175495,0 -0.319079,0.288 -0.319079,0.64 0,0.355555 -0.213334,0.64 -0.48,0.64 -0.264,0 -0.48,-0.216 -0.48,-0.48 z m 1.541255,-4.08 c 0.08478,-0.736839 -0.01933,-0.87929 -0.64,-0.875631 -1.521693,0.009 -2.181255,0.363161 -2.181255,1.171352 0,1.263752 2.674071,0.983459 2.821255,-0.295721 z m -20.037255,2.576 c -0.2112,-0.2112 -0.36439,-0.8232 -0.340422,-1.36 0.03192,-0.714787 0.07988,-0.789522 0.179211,-0.279239 0.320512,1.64651 1.697211,1.714933 1.697211,0.08435 0,-0.517613 0.144,-0.941114 0.32,-0.941114 0.351134,0 0.4343,1.569792 0.125763,2.373828 -0.228919,0.596553 -1.433144,0.670792 -1.981763,0.122172 z m -6.336335,-1.710903 c -0.226222,-0.901342 -0.03155,-1.281237 0.491044,-0.958255 0.428494,0.264823 0.451791,1.773158 0.02739,1.773158 -0.172647,0 -0.405941,-0.366707 -0.518431,-0.814903 z m 11.040422,-9.706592 c -1.822079,-1.47543 -0.860698,-7.0380286 1.269297,-7.3442203 0.897163,-0.128969 1.962616,0.7698406 1.962616,1.6556503 0,0.638109 -0.01267,0.637146 -0.652466,-0.0496 -1.422379,-1.5267449 -2.867534,-0.200643 -2.867534,2.631304 0,2.287728 1.215552,3.234584 2.676845,2.085131 1.089349,-0.856883 1.175204,-0.08028 0.10253,0.927445 -0.908584,0.85357 -1.52481,0.876892 -2.491288,0.09429 z M 26.883523,13.2 c 0.0037,-2.939685 0.263698,-5.1995374 0.598347,-5.2006712 0.108972,-3.84e-4 0.148938,0.9560999 0.08881,2.1254872 -0.10073,1.959139 -0.06302,2.10754 0.480001,1.88914 0.324125,-0.130359 1.096263,-0.309355 1.715862,-0.397768 1.126545,-0.160751 1.126545,-0.160751 1.12,-1.9378095 -0.0042,-1.1401168 0.136826,-1.8262794 0.393456,-1.914385 0.304882,-0.1046711 0.4,0.7440992 0.4,3.5693405 0,3.487038 -0.478012,5.197105 -0.700683,2.506666 -0.09239,-1.116268 -0.166302,-1.195151 -1.059317,-1.130515 -2.202149,0.159391 -2.4,0.312447 -2.4,1.856612 0,0.788647 -0.144,1.433903 -0.32,1.433903 -0.189221,0 -0.318561,-1.144318 -0.316478,-2.8 z m 14.476478,1.129442 c -0.97087,-0.468233 -1.087747,-6.6481333 -0.125763,-6.649798 0.113168,-1.958e-4 0.205763,1.2598042 0.205763,2.8 0,2.800356 0,2.800356 1.12,2.892688 1.85184,0.152665 2.18505,0.356066 1.458839,0.890523 -0.723587,0.532526 -1.644887,0.555599 -2.658839,0.06659 z M 33.801694,13.68 c -0.431639,-1.610646 -0.142211,-5.9999998 0.395629,-5.9999998 0.111472,0 0.202678,1.512 0.202678,3.3599998 0,3.25348 -0.198809,4.130721 -0.598307,2.64 z m 2.4628,0.210739 C 35.974475,13.134963 36.403419,7.9485813 36.787729,7.5642712 37.016436,7.3355647 37.094564,8.1705151 37.03963,10.256371 36.96,13.28 36.96,13.28 38.160001,13.379317 c 0.784979,0.06497 1.2,0.258645 1.2,0.56 0,0.684768 -2.831145,0.640337 -3.095507,-0.04858 z"
         id="path10175" />
    </g>
  </g>
</svg>
