<?xml version="1.0" encoding="UTF-8" standalone="no"?>
<svg
   xmlns:dc="http://purl.org/dc/elements/1.1/"
   xmlns:cc="http://creativecommons.org/ns#"
   xmlns:rdf="http://www.w3.org/1999/02/22-rdf-syntax-ns#"
   xmlns:svg="http://www.w3.org/2000/svg"
   xmlns="http://www.w3.org/2000/svg"
   xmlns:sodipodi="http://sodipodi.sourceforge.net/DTD/sodipodi-0.dtd"
   xmlns:inkscape="http://www.inkscape.org/namespaces/inkscape"
   version="1.1"
   id="svg1784"
   width="105.92"
   height="132.16"
   viewBox="0 0 105.92 132.16"
   sodipodi:docname="dignifiedhang.png.svg"
   inkscape:version="1.0 (4035a4fb49, 2020-05-01)">
  <style
     id="style2357" />
  <metadata
     id="metadata1790">
    <rdf:RDF>
      <cc:Work
         rdf:about="">
        <dc:format>image/svg+xml</dc:format>
        <dc:type
           rdf:resource="http://purl.org/dc/dcmitype/StillImage" />
        <dc:title></dc:title>
      </cc:Work>
    </rdf:RDF>
  </metadata>
  <defs
     id="defs1788" />
  <sodipodi:namedview
     inkscape:document-rotation="0"
     pagecolor="#ffffff"
     bordercolor="#666666"
     borderopacity="1"
     objecttolerance="10"
     gridtolerance="10"
     guidetolerance="10"
     inkscape:pageopacity="0"
     inkscape:pageshadow="2"
     inkscape:window-width="1898"
     inkscape:window-height="1034"
     id="namedview1786"
     showgrid="false"
     inkscape:zoom="5.5543928"
     inkscape:cx="8.0249057"
     inkscape:cy="48.064307"
     inkscape:window-x="10"
     inkscape:window-y="34"
     inkscape:window-maximized="0"
     inkscape:current-layer="g1792" />
  <g
     inkscape:groupmode="layer"
     id="layer1"
     inkscape:label="Image 1" />
  <g
     inkscape:groupmode="layer"
     inkscape:label="Image"
     id="g1792">
    <path
       style="fill:#000000;stroke-width:0.32"
       d="m 52.629574,126.72073 c -2.766105,-1.36923 -2.906006,-2.6043 -0.748377,-6.60669 1.641193,-3.04441 1.641193,-3.04441 1.42408,-5.33923 -0.119415,-1.26214 -0.24081,-2.54957 -0.269767,-2.86094 -0.03419,-0.36764 -0.44935,-0.65713 -1.184083,-0.82567 C 51.229142,110.94544 49.136,110.45212 47.2,109.99191 c -1.936,-0.4602 -4.24,-0.92471 -5.12,-1.03222 -0.88,-0.10752 -3.212765,-0.61944 -5.183926,-1.13759 -1.971159,-0.51815 -3.727204,-0.9421 -3.902327,-0.9421 -0.202883,0 -0.254637,1.32724 -0.142653,3.65824 0.303642,6.32045 -2.101084,9.48321 -6.209986,8.16753 -3.213375,-1.02893 -3.603917,-3.17997 -0.902953,-4.9733 3.334382,-2.21391 3.937617,-8.38228 0.896258,-9.16468 -0.940552,-0.24196 -1.009418,-0.33657 -0.685536,-0.94175 0.269234,-0.50307 0.256454,-1.42733 -0.05067,-3.664277 -0.395849,-2.88319 -0.265234,-4.772765 0.531481,-7.688787 0.165247,-0.604816 0.02154,-0.714451 -1.20099,-0.916246 -2.97544,-0.49113 -3.942197,-1.941652 -2.508699,-3.764048 0.352,-0.447495 0.64,-1.026356 0.64,-1.286352 0,-0.571655 1.06172,-1.298692 3.11226,-2.131184 0.840257,-0.341136 1.38374,-0.63729 1.20774,-0.658125 -0.176,-0.02083 -0.765822,-0.08219 -1.310715,-0.136365 -3.569484,-0.354851 -4.035847,-2.674877 -0.823937,-4.098848 1.450118,-0.642896 1.230119,-1.484506 -0.395143,-1.511632 -2.745337,-0.04582 -5.258364,-6.599158 -3.286682,-8.570842 0.682072,-0.682073 12.696851,-0.84696 13.360458,-0.183353 1.688566,1.688566 -0.186794,6.965814 -3.056682,8.601491 -0.536389,0.305709 -0.480056,0.403584 0.598586,1.04 1.602361,0.945414 4.850541,0.89463 4.480358,-0.07005 -0.08221,-0.214234 0.726922,-1.345946 1.798071,-2.514912 1.947542,-2.125398 1.947542,-2.125398 0.669462,-3.280064 C 37.877363,71.133357 37.107549,66.887085 38.177792,64.32 38.310733,64.00113 38.032502,63.623638 37.348954,63.195462 34.918554,61.673059 36.681706,56.96 39.681638,56.96 c 1.020128,0 1.39146,0.193734 2.16121,1.127574 1.40129,1.70001 3.289779,0.581236 5.19257,-3.076172 1.530179,-2.941194 1.646019,-2.958781 3.328348,-0.505296 1.426234,2.08 2.339501,2.377558 2.642797,0.861072 0.104813,-0.524055 0.389213,-1.117687 0.632,-1.319184 C 53.881354,53.846496 54.08,53.512067 54.08,53.304819 c 0,-0.990195 0.755568,-1.132633 1.796502,-0.338672 C 56.448941,53.402765 56.998906,53.76 57.09865,53.76 56.778043,48.205501 57.455164,36.069267 58.294888,26.552057 59.45683,13.382921 60.916578,8.9002267 78.480317,5.4097229 100.87033,1.1824473 106.21821,11.111786 99.350979,44.16 c -1.120374,5.39175 -1.897997,9.439533 -2.858608,14.88 -0.248608,1.408 -0.681357,3.568 -0.961664,4.8 -0.28031,1.232 -0.784553,3.968 -1.120541,6.08 -0.880928,5.537427 -2.186444,12.424678 -2.881251,15.2 -0.330464,1.32 -0.838467,4.416 -1.128902,6.88 -1.12856,9.57459 -1.317274,10.47357 -2.389581,11.38331 -2.175178,1.84539 -1.153955,6.74052 1.707686,8.18561 2.64698,1.3367 2.989191,2.40367 1.345719,4.19578 -1.458967,1.59092 -5.900549,1.87258 -7.379757,0.39934 -0.66683,-0.66414 -0.777424,-0.68149 -1.054141,-2.37227 -0.08865,-0.54164 0.258605,-2.50377 0.709472,-4.35177 0.450867,-1.848 0.819946,-3.468 0.820176,-3.6 6.4e-4,-0.40554 -0.686598,-0.27666 -3.839459,0.71996 -9.757146,3.08423 -23.605072,5.5672 -24.569328,4.40535 -0.386819,-0.46609 1.958432,-0.96103 4.313341,-0.91028 0.387277,0.008 0.795395,-0.13248 0.906931,-0.31294 0.111533,-0.18047 0.496704,-0.23484 0.855933,-0.12082 0.432016,0.13711 0.579779,0.0886 0.436448,-0.14332 -0.131242,-0.21236 -0.03831,-0.28216 0.23567,-0.17703 0.2488,0.0955 1.372279,-0.0357 2.496621,-0.29156 1.124339,-0.25584 2.944515,-0.56577 4.044829,-0.68874 1.100317,-0.12298 2.082269,-0.35577 2.182112,-0.51733 0.09985,-0.16155 0.306777,-0.21633 0.459849,-0.12173 0.407693,0.25198 4.163767,-0.85248 3.969293,-1.16715 -0.09079,-0.14689 0.04464,-0.18661 0.300954,-0.0883 0.376643,0.14453 0.501808,-0.3318 0.652627,-2.48367 0.360717,-5.14666 0.373965,-7.622384 0.04081,-7.627389 -0.179421,-0.0026 -0.133927,-0.126791 0.101094,-0.275767 0.307242,-0.194755 0.467162,-1.429718 0.569133,-4.395097 0.078,-2.26833 0.269949,-6.716237 0.42655,-9.884237 0.156602,-3.168 0.298304,-6.768 0.314893,-8 0.01658,-1.232 0.166208,-4.832 0.332486,-8 0.166279,-3.168 0.382759,-7.632 0.481072,-9.92 0.09831,-2.288 0.322327,-6.896 0.497815,-10.24 0.328617,-6.26193 0.885622,-18.751396 1.113171,-24.96 0.282547,-7.709203 0.614416,-10.72 1.181626,-10.72 0.398198,0 0.190822,5.119842 -1.023946,25.28 -0.18559,3.08 -0.473571,8.768 -0.639958,12.64 -0.630173,14.664656 -1.788317,39.269965 -2.25178,47.84 -0.656716,12.14361 -0.902848,10.88012 1.931626,9.91581 0.44,-0.14969 1.88,-0.59681 3.2,-0.9936 3.469674,-1.04299 4.981686,-2.34955 5.240858,-4.52873 0.344598,-2.897486 0.811347,-6.09491 1.131827,-7.75348 0.499536,-2.585226 0.438025,-3.61609 -0.212685,-3.564445 -0.529424,0.04202 -0.680842,-5.457161 -0.21759,-7.902381 0.06114,-0.322755 0.195651,-2.842755 0.298902,-5.6 C 89.224563,72.49593 89.522189,66.28 89.782707,61.44 90.043226,56.6 90.54361,47.312 90.894672,40.8 91.245731,34.288 91.669744,25.936 91.836922,22.24 92.413066,9.5023251 92.461968,9.0333139 93.168394,9.4699094 93.371978,9.5957309 93.427312,10.877315 93.317146,12.915129 92.7452,23.494794 92.717232,24.64 93.030797,24.64 c 0.386051,0 0.706006,-3.097726 0.766518,-7.421251 0.03424,-2.446542 0.145722,-3.140514 0.528064,-3.287232 0.567671,-0.217836 0.38712,5.206703 -0.894285,26.868483 -0.3732,6.308829 -0.928764,17.369683 -1.125107,22.4 -0.197021,5.047722 -0.428048,6.554474 -0.972928,6.345382 C 90.98351,69.411248 90.908365,68.997555 91.031162,67.883398 91.121085,67.06753 91.275187,64.6 91.37361,62.4 91.472035,60.2 91.749037,55.304 91.989171,51.52 92.829658,38.275709 93.218013,27.490014 92.867046,27.139045 92.43015,26.70215 92.235856,28.692197 92.00192,36 c -0.101411,3.168 -0.326429,7.514592 -0.500038,9.659091 -0.17361,2.144503 -0.449828,7.328503 -0.613818,11.52 -0.163994,4.191501 -0.529181,11.738967 -0.81153,16.772151 -0.576928,10.284384 -0.563488,13.476598 0.0477,11.328758 0.785245,-2.759501 1.745737,-7.189107 2.22039,-10.24 0.273818,-1.76 1.129459,-6.448451 1.901427,-10.418781 0.771968,-3.970329 1.501744,-8.218329 1.621725,-9.44 0.119981,-1.22167 0.331565,-2.366422 0.470192,-2.543894 0.138624,-0.177469 0.329434,-0.980685 0.424016,-1.784925 0.09459,-0.804237 0.334599,-1.883034 0.53336,-2.397325 0.198762,-0.514291 0.478938,-1.943075 0.622615,-3.175075 0.301971,-2.589354 1.169334,-6.747843 1.601868,-7.68 0.163335,-0.352 0.361991,-1.648 0.441456,-2.88 0.07946,-1.232 0.375057,-3.608 0.656867,-5.28 0.89503,-5.310326 0.31467,-12.99894 -1.195663,-15.84 C 99.235366,13.248 98.895142,12.589932 98.666442,12.137628 98.437741,11.685323 97.85223,10.941381 97.365312,10.484425 96.87839,10.027469 96.214474,9.2725146 95.889939,8.8067488 95.367798,8.0573834 95.256848,8.0187475 94.92607,8.4711094 94.596752,8.9214826 90.939427,8.4103683 89.9544,7.7763142 89.628093,7.5662733 90.662938,6.7795872 91.063395,6.9332576 91.340733,7.0396813 91.52,6.9089728 91.52,6.6003331 91.52,5.4081875 82.936592,5.2623126 79.2,6.3909552 c -0.528,0.1594829 -2.184,0.5416586 -3.68,0.849279 -1.496,0.3076205 -3.008,0.73225 -3.36,0.9436208 -0.352,0.2113709 -1.211139,0.48484 -1.909197,0.6077092 -0.698057,0.1228691 -1.634057,0.4734611 -2.08,0.7790934 C 67.724861,9.8762899 66.856,10.362065 66.24,10.650157 c -1.595101,0.746001 -2.987824,2.036493 -2.700157,2.501951 0.155047,0.250868 0.104298,0.303501 -0.144419,0.149786 -0.449149,-0.27759 -1.389958,0.398624 -1.133014,0.814364 C 62.358858,14.272316 62.285274,14.4 62.098886,14.4 61.912499,14.4 61.76,14.616 61.76,14.88 c 0,0.264 -0.153053,0.48 -0.340115,0.48 -0.187063,0 -0.301559,0.252 -0.254432,0.56 0.04712,0.308 -0.07091,0.848 -0.262301,1.2 -0.320211,0.588925 -0.757667,2.957745 -1.211456,6.56 -0.36321,2.883213 -1.116944,15.764986 -0.939258,16.052483 0.100461,0.162554 0.01578,0.49665 -0.18822,0.742435 -0.265719,0.320173 -0.341581,2.720708 -0.267549,8.466221 0.05683,4.410637 -0.02006,8.019232 -0.170906,8.019101 -0.150829,-1.31e-4 -0.207625,0.17976 -0.126214,0.39976 0.08141,0.22 0.0492,2.56 -0.07158,5.2 -0.128387,2.806349 -0.09593,5.048634 0.07814,5.398618 0.204637,0.411436 0.190035,0.532054 -0.0467,0.385744 -0.236999,-0.146474 -0.332173,0.664934 -0.305127,2.601382 0.159712,11.435341 -0.782646,20.763584 -1.728739,17.11249 C 55.648077,86.987427 54.860832,86.707168 54.144,87.424 c -0.298666,0.298666 -0.384,0.298666 -0.384,0 0,-0.275555 -1.061869,-0.390598 -3.76,-0.40736 -2.068,-0.01286 -4.552,-0.164483 -5.52,-0.336966 -2.042918,-0.364016 -1.800218,-0.358327 -7.2,-0.168842 -4.137546,0.145194 -6.240202,0.416621 -6.239778,0.805488 1.22e-4,0.112022 -1.556473,0.162061 -3.459101,0.11119 -3.036689,-0.08119 -3.525093,-0.01981 -3.997651,0.502356 -1.765627,1.950998 2.595282,2.590643 17.85653,2.619148 10.79552,0.02016 12,0.101831 12,0.813616 0,0.752925 -1.697597,0.848308 -13.613517,0.764887 -13.076311,-0.09154 -12.503674,-0.161671 -12.566844,1.539011 -0.02479,0.667408 -0.125825,1.582304 -0.224522,2.033101 -0.151222,0.690704 0.319764,4.242566 0.975119,7.353691 0.155683,0.73906 1.885663,1.61478 3.509764,1.77664 0.176,0.0175 0.536,0.12512 0.8,0.23907 1.13488,0.48982 5.933206,1.81097 6.577312,1.81097 0.387491,0 1.221488,0.216 1.853331,0.48 0.63184,0.264 1.765427,0.48156 2.519079,0.48346 0.753654,0.002 2.018278,0.19977 2.810278,0.4397 0.792,0.23993 2.736,0.68953 4.32,0.99912 3.681757,0.71958 6.311037,2.07772 4.022339,2.07772 -0.544441,0 -0.582377,0.12304 -0.32,1.03789 0.805546,2.80878 0.110035,6.2669 -1.752393,8.71301 -1.502279,1.97308 -1.348464,3.18716 0.550476,4.34503 3.122714,1.90405 5.152119,-1.37316 3.736464,-6.03389 -0.77231,-2.54266 -0.549033,-5.72704 0.473242,-6.74931 0.426166,-0.42617 0.457619,-0.19426 0.282192,2.08063 -0.145978,1.89301 -0.0553,3.12699 0.347942,4.73487 1.320813,5.2666 -1.375024,9.08167 -5.110688,7.2325 z m -22.263488,-9.7813 C 33.099981,114.63901 32.338701,105.6 29.411062,105.6 c -0.07892,0 -0.08924,1.07459 -0.02291,2.38797 0.156552,3.10018 -0.656728,4.96263 -2.708113,6.20172 -2.007831,1.21277 -2.158311,2.17639 -0.482093,3.08716 1.356654,0.73713 3.05445,0.59969 4.168142,-0.33742 z M 90.32,115.28197 c 0.948419,-0.84877 0.666912,-1.59291 -0.96,-2.53768 -2.777251,-1.61278 -3.28,-2.44898 -3.28,-5.45549 0,-3.58316 -0.63375,-3.01841 -1.723907,1.53619 -0.94801,3.96073 -0.893309,5.90633 0.184793,6.57264 1.359018,0.83992 4.788023,0.77129 5.779114,-0.11566 z M 31.511955,85.773018 c 0.10435,-0.168842 0.01557,-0.58585 -0.197285,-0.926688 C 30.998271,84.339693 31.025486,84.1288 31.463829,83.690458 31.780642,83.373645 32,82.64769 32,81.916029 32,81.234986 32.14439,80.588534 32.320864,80.479466 32.960598,80.08409 32.023379,79.04 31.028741,79.04 c -1.47686,0 -0.978714,-0.883661 1.596945,-2.832819 1.913466,-1.448035 2.849008,-4.551562 1.803188,-5.981808 -0.608391,-0.832026 -11.520536,-0.959981 -12.038248,-0.141162 -1.495981,2.366061 1.159939,6.668589 4.658507,7.546675 0.439472,0.110301 0.905202,0.384423 1.034954,0.609162 0.129752,0.224736 0.51198,0.460662 0.849396,0.524282 1.52608,0.287737 0.843323,0.91567 -0.995614,0.91567 -2.055332,0 -3.297869,0.601542 -3.297869,1.596582 0,0.688884 0.837802,1.02969 2.512881,1.022202 0.823404,-0.0037 1.426278,0.240125 2.047119,0.827869 1.113974,1.054585 1.108898,1.353347 -0.023,1.353347 -1.143385,0 -3.897004,0.925702 -3.897004,1.31008 0,0.38953 5.990805,0.373126 6.231955,-0.01706 z M 24.56,71.925094 c -3.947352,-0.681651 -1.189037,-1.50318 4.656932,-1.387008 4.33926,0.08623 5.59046,0.382522 4.829369,1.143613 -0.451373,0.451373 -7.26898,0.626295 -9.486301,0.243395 z m 8.08,-0.64375 c 0,-0.132739 -1.764,-0.224307 -3.92,-0.203485 -2.455456,0.02371 -3.561336,0.127523 -2.96,0.277847 1.226177,0.306521 6.88,0.245414 6.88,-0.07436 z m 23.626019,11.953085 c 0,-2.74162 0.371678,-2.584206 -3.559241,-2.317569 -0.969636,0.06577 -2.064435,-0.24023 -3.230442,0.224516 -0.442717,0.176458 -0.563741,0.120368 -0.453926,-0.210384 0.114403,-0.344573 0.961065,-0.534235 3.691832,-0.59595 4.255674,-0.09618 3.605758,-0.036 3.605758,-2.425522 0,-0.869168 0.429513,-2.614259 0.0061,-2.544959 -1.124432,0.184015 -3.106598,0.156338 -6.875522,0.471823 -1.260901,0.105546 -2.018317,0.20383 -2.224,-0.0019 -0.386006,-0.386006 -0.686877,-0.34839 4.747834,-0.593574 2.506713,-0.113092 4.498278,-0.340877 4.554797,-0.520957 0.260259,-0.829229 -0.414042,-1.020285 -2.769162,-0.784605 -5.570205,0.557414 -6.4,0.601053 -6.4,0.33657 0,-0.344221 2.553542,-0.656477 5.84815,-0.715127 2.488151,-0.0443 2.488151,-0.0443 1.993485,-0.799254 -0.468768,-0.715431 -0.443958,-0.801104 0.473824,-1.636272 0.943453,-0.858525 1.11397,-0.973112 1.174371,-4.625296 0.07774,-4.70065 0.712501,-3.533701 -3.031051,-3.675867 -1.08008,-0.04102 -2.524136,0.226801 -4.458779,0.389489 -1.1,0.0925 -2,0.04152 -2,-0.113296 0,-0.311008 4.075901,-0.691437 7.44,-0.694425 C 56.96,62.4 56.96,62.4 56.96,60.04 c 0,-1.298 0.156281,-2.791218 0.195757,-3.33879 0.146308,-2.029445 -0.791739,-1.621186 -2.746105,-1.436845 -0.755524,0.07126 -0.848701,0.828689 -0.274156,0.744898 1.029345,-0.150118 2.230933,0.08792 2.42543,0.273879 0.272247,0.260296 -1.052396,0.660547 -2.040926,0.666682 -0.902,0.0056 -2.078502,0.09788 -2.614451,0.205066 -0.896954,0.179392 -1.0592,0.06532 -2.04,-1.43425 C 48.615747,53.809789 46.72,54.996963 46.72,57.690477 c 0,0.237465 -0.799898,0.763293 -1.777549,1.168505 -6.156627,2.551783 -8.421465,10.637053 -3.823545,13.649725 1.131526,0.741405 1.02671,1.111792 -0.958906,3.388535 -0.968,1.109926 -1.76,2.130806 -1.76,2.26862 0,0.344112 1.710301,-0.567616 2.22249,-1.184761 0.599596,-0.722471 1.061984,-0.616867 0.652137,0.148941 -0.543129,1.014841 -2.772445,2.476441 -4.126025,2.705126 -2.033933,0.343632 -2.47098,5.055574 -0.503159,5.424739 C 38.267613,85.56423 38.4,85.359088 38.4,82.541114 38.4,81.143501 38.528371,80 38.68527,80 c 0.156896,0 0.264896,1.072538 0.24,2.383418 -0.06588,3.468403 0.62,3.919865 0.926938,0.610134 0.339872,-3.664874 0.761238,-4.301379 0.551814,-0.833552 -0.178755,2.96 -0.178755,2.96 0.668612,2.96 0.831977,0 0.848092,-0.04068 0.887366,-2.24 0.06846,-3.833926 0.6,-4.589891 0.6,-0.853334 0,3.472249 1.841066,3.124924 3.835498,-0.723581 0.470112,-0.907146 0.635875,-1.032659 0.803084,-0.60809 0.27025,0.686202 -0.236473,1.61665 -1.810278,3.324023 -1.308304,1.419344 0.59281,2.204928 3.966042,1.638857 0.57511,-0.09651 1.981654,-0.05777 3.125654,0.0861 3.816851,0.48 3.664,0.581315 3.786019,-2.509549 z m -6.144838,0.672201 c -0.29217,-0.472736 3.596288,-0.877161 4.052013,-0.421436 0.25974,0.25974 0.101878,0.35575 -0.589194,0.358329 -0.5192,0.0019 -1.465693,0.0898 -2.103318,0.195267 -0.65442,0.108237 -1.2465,0.05068 -1.359501,-0.13216 z M 48.64,82.277322 c 0,-0.441316 -0.297251,-0.381469 2.72,-0.547607 1.408,-0.07753 2.992,-0.0068 3.52,0.157159 0.76177,0.23656 0.365309,0.304697 -1.92,0.32999 -1.584,0.01754 -3.204,0.118704 -3.6,0.224829 -0.432,0.115769 -0.72,0.05002 -0.72,-0.164371 z M 48.32,77.151568 C 48.32,76.915408 49.598054,76.8 52.213334,76.8 c 2.141332,0 3.833332,0.055 3.76,0.122214 C 55.604781,77.260035 48.32,77.478342 48.32,77.151568 Z m -0.48,-7.003389 c 0.176,-0.181891 2.14888,-0.379641 4.384176,-0.439443 2.235299,-0.0598 3.963299,-0.0091 3.84,0.112646 -0.381885,0.377127 -8.58841,0.703223 -8.224176,0.326797 z m -0.16,-1.288573 c 0,-0.643468 7.101213,-1.057219 7.485075,-0.436115 0.08957,0.144919 -0.899638,0.271024 -2.19823,0.280234 -1.298595,0.0092 -3.019376,0.115462 -3.823962,0.236118 C 48.291139,69.067568 47.68,69.034051 47.68,68.859606 Z m -0.06418,-1.6995 c 0.298157,-0.315572 1.565853,-0.471882 4.48,-0.552397 2.235296,-0.06176 3.977395,-0.02298 3.871328,0.08618 -0.106067,0.109162 -1.690067,0.256832 -3.52,0.328157 -1.829933,0.07132 -3.759152,0.230592 -4.287152,0.353923 -0.807248,0.18856 -0.893837,0.154214 -0.544176,-0.215863 z M 47.501162,61.62375 c 0.632041,-0.512572 0.877308,-0.541174 4.818838,-0.561939 4.294867,-0.02262 4.450237,0.169543 0.32,0.395795 -2.288,0.125338 -4.52,0.327335 -4.96,0.44889 -0.770202,0.212771 -0.776864,0.20224 -0.178838,-0.282746 z M 47.68,60.228474 c 0,-0.582932 0.971939,-0.708986 5.066173,-0.65705 C 56.8,59.622848 56.8,59.622848 52.8,59.84888 c -2.2,0.124317 -4.252,0.332582 -4.56,0.462813 -0.317853,0.134397 -0.56,0.09841 -0.56,-0.08322 z M 35.031936,82.696198 c 0.226986,-2.422256 0.104829,-3.080963 -0.465578,-2.510556 -0.383043,0.383043 -0.793856,3.768422 -0.538156,4.434764 0.418566,1.090772 0.787481,0.383546 1.003734,-1.924208 z m -1.61249,-0.179417 c 0.286807,-2.535027 -0.256899,-3.213936 -0.74631,-0.931895 -0.466656,2.175936 -0.445408,2.895114 0.08553,2.895114 0.299753,0 0.509004,-0.621702 0.66078,-1.963219 z m 6.699031,-22.310899 c 0.463926,-0.512631 0.474681,-0.646391 0.07843,-0.975255 -0.368412,-0.305757 -0.559878,-0.237459 -0.96807,0.345319 -0.901738,1.287408 -0.172592,1.803696 0.889645,0.629936 z M 55.56601,54.465885 c -0.326695,-0.06925 -0.733613,0.01373 -0.904263,0.184368 -0.200365,0.200365 0.01005,0.244963 0.593991,0.125907 0.669747,-0.136554 0.750214,-0.217021 0.310272,-0.310275 z M 57.28,54.24 c 0,-0.088 -0.072,-0.16 -0.16,-0.16 -0.088,0 -0.16,0.072 -0.16,0.16 0,0.088 0.072,0.16 0.16,0.16 0.088,0 0.16,-0.072 0.16,-0.16 z M 8.9690336,112.60378 C 7.4079242,111.98077 7.197481,110.4018 8.56,109.53477 c 1.2144096,-0.77279 1.3818512,-1.06216 1.2947757,-2.23761 -0.087749,-1.18453 0.2861093,-1.73037 0.7177233,-1.04789 0.681775,1.07804 0.34443,2.53786 -0.8234187,3.56324 -1.0738729,0.94288 -1.1036544,1.02309 -0.5904038,1.59023 1.3995075,1.54643 2.4364485,0.61586 3.0148575,-2.70561 0.547113,-3.14175 1.411828,-2.73527 1.048443,0.49285 -0.340258,3.02267 -1.965026,4.32685 -4.2529434,3.4138 z M 55.04,102.55931 c 0.210432,-9.050558 0.768877,-9.37818 0.886749,-0.52023 0.08229,6.18406 -0.05666,7.39977 -0.84593,7.40131 -0.110451,2.1e-4 -0.128819,-3.09627 -0.04082,-6.88108 z m 6.548522,4.94212 c -0.129559,-0.20963 -0.14113,-3.63922 -0.0257,-7.621292 C 61.67825,95.898061 61.841427,89.688 61.925443,86.08 c 0.08402,-3.608 0.315514,-13.472 0.514432,-21.92 0.198919,-8.448 0.269114,-16.682134 0.155987,-18.298077 -0.130697,-1.866944 -0.08723,-3.011283 0.119232,-3.138883 0.397677,-0.245779 0.438064,-5.60304 0.04224,-5.60304 -0.495696,0 -0.668291,1.340522 -0.679814,5.28 -0.0111,3.800835 -0.771696,14.947123 -1.052867,15.429776 C 60.87664,58.08385 60.515962,69.108554 60.341219,78.72 c -0.131273,7.220515 -0.140486,7.36 -0.486166,7.36 -0.403043,0 -1.036167,-2.321552 -0.694285,-2.545824 0.146035,-0.09579 0.35855,-5.574176 0.472256,-12.174176 0.115965,-6.731165 0.425603,-14.248035 0.705213,-17.12 0.274163,-2.816 0.563094,-7.208 0.642073,-9.76 0.215268,-6.955926 1.34569,-15.934567 2.538167,-20.16 0.223513,-0.792 0.489526,-1.8 0.591139,-2.24 0.101613,-0.44 0.693395,-1.643574 1.315069,-2.67461 0.621677,-1.031035 1.037197,-2.025285 0.923379,-2.209442 -0.113814,-0.184159 -0.05607,-0.241594 0.128317,-0.127635 0.18439,0.11396 0.96264,-0.576978 1.729443,-1.535417 0.766803,-0.958438 1.516093,-1.749428 1.665085,-1.757756 0.148992,-0.0083 0.925267,-0.59114 1.725053,-1.29514 0.799785,-0.704 1.608726,-1.28 1.797644,-1.28 0.188919,0 1.443629,-0.572356 2.788244,-1.2719021 2.146256,-1.1166051 3.535433,-1.6188963 6.698163,-2.4218883 0.44,-0.1117126 1.016,-0.2813891 1.28,-0.3770592 0.264,-0.09567 1.39632,-0.2398301 2.516269,-0.3203558 2.846259,-0.2046496 2.504243,0.5503328 -0.476855,1.0526313 -3.417414,0.5758157 -3.907462,0.7673677 -3.115235,1.2177008 0.833315,0.4736893 0.915907,2.0575803 0.461005,8.8408733 -0.427495,6.374659 -1.195655,20.613878 -1.631347,30.24 -0.175255,3.872 -0.471904,9.992 -0.659226,13.6 -0.187318,3.608 -0.466355,9.8 -0.62008,13.76 -0.879194,22.648131 -1.158963,27.30919 -1.622013,27.02302 -0.381273,-0.23564 -0.373465,-3.917663 0.01728,-8.14302 0.343424,-3.71375 1.028717,-20.410218 1.155805,-28.16 0.04473,-2.728 0.165165,-5.752 0.267619,-6.72 0.205149,-1.938214 0.275258,-3.222781 0.978029,-17.92 0.265098,-5.544 0.62592,-12.744 0.80183,-16 0.747645,-13.83838 0.752535,-14.07968 0.285418,-14.0849 -0.297677,-0.0033 -0.323888,-0.0804 -0.08162,-0.24 0.618611,-0.40753 0.876761,-1.7263976 0.397373,-2.0301506 -0.585748,-0.3711456 -1.63833,-0.3598896 -1.406608,0.015043 0.104406,0.168936 -0.164621,0.2365197 -0.615818,0.1547021 -0.515648,-0.093504 -1.021718,0.075206 -1.419853,0.4733418 -0.340246,0.3402477 -0.685638,0.5516237 -0.767539,0.4697247 -0.0819,-0.0819 -0.539581,-0.05085 -1.017072,0.06899 -0.606656,0.152261 -0.74359,0.294889 -0.454598,0.473496 0.416534,0.257432 0.396163,0.793285 -1.313028,34.539756 -0.282752,5.582723 -0.536867,11.490835 -1.273136,29.6 -0.283104,6.963158 -0.901206,22.684454 -1.062124,27.014847 -0.04328,1.16471 -0.212772,1.78378 -0.515735,1.88376 -0.378633,0.12493 -0.417792,-0.4376 -0.243283,-3.49485 0.266448,-4.66801 0.769661,-16.214951 1.002493,-23.003757 0.291568,-8.501309 0.490877,-12.958755 0.815577,-18.24 0.167725,-2.728 0.387399,-8.694458 0.48817,-13.258797 0.100768,-4.564336 0.233562,-8.380336 0.295094,-8.48 0.122221,-0.197945 0.786426,-15.423709 0.945933,-21.683822 0.08298,-3.256812 0.01907,-3.933459 -0.386249,-4.088993 -1.776704,-0.681779 -9.79449,6.921516 -9.79449,9.288129 0,0.584179 -0.09849,1.001276 -0.218861,0.92688 -0.120374,-0.07439 -0.394109,0.330906 -0.608294,0.900669 C 65.070656,23.37383 64.781798,24.128 64.642941,24.48 c -0.475882,1.20633 -0.929923,3.200885 -1.129101,4.96 -0.109603,0.968 -0.279408,2.192 -0.377344,2.72 -0.27112,1.461674 -0.499053,4.821152 -0.314816,4.64 0.0895,-0.088 0.237088,-0.88 0.327974,-1.76 0.09089,-0.88 0.175396,-1.644499 0.187796,-1.698886 0.233868,-1.025572 0.592681,0.910166 0.508857,2.745196 -0.06215,1.360528 -0.199865,6.14569 -0.306035,10.63369 -0.10617,4.488 -0.259882,10.32 -0.341581,12.96 -0.0817,2.64 -0.292109,11.064 -0.467574,18.72 -0.716695,31.27113 -0.662035,29.87899 -1.142595,29.10143 z M 14.08,106.55617 C 7.828241,105.38953 6.8166474,104.65586 6.482119,101.04572 6.1778438,97.762061 11.232312,95.36 18.446132,95.36 c 2.978491,0 3.3354,0.532893 0.516817,0.771645 -4.189008,0.354838 -12.4194514,2.392022 -9.8306104,2.433254 0.1692137,0.0026 0.1190691,0.124506 -0.1114324,0.270688 -1.0303625,0.653447 5.2976808,2.590863 8.5226158,2.609313 1.121808,0.006 2.019123,0.52363 1.32751,0.76518 -0.77707,0.27139 -5.704018,0.3691 -5.542669,0.10992 0.08217,-0.132 -0.07705,-0.24 -0.35382,-0.24 -0.276775,0 -0.753273,-0.13123 -1.058885,-0.29163 -2.8791354,-1.51107 -4.3914593,-1.48047 -4.0571169,0.0821 0.2223786,1.0393 1.2029546,2.24138 1.5473952,1.89694 C 9.5126714,103.66066 9.6,103.75674 9.6,103.9809 c 0,0.23688 0.2079878,0.32776 0.49662,0.217 0.284776,-0.10928 0.413223,-0.0556 0.301115,0.12576 -0.107528,0.17399 0.06499,0.33888 0.38338,0.36643 1.550519,0.13416 2.396183,0.28807 5.058885,0.92074 2.427332,0.57674 3.270488,0.64017 5.364393,0.40355 2.89947,-0.32764 3.221891,0.12538 0.535494,0.7524 -2.26422,0.52849 -3.947215,0.48221 -7.659887,-0.21061 z m 54.275837,-0.25819 c -0.103539,-0.16752 -0.04251,-4.9651 0.135613,-10.661286 C 68.669574,89.940512 68.948211,80.744 69.110643,75.2 c 0.162432,-5.544 0.449901,-13.032 0.638823,-16.64 0.188918,-3.608 0.388076,-9.738109 0.442569,-13.622467 0.05449,-3.884355 0.177277,-7.196355 0.272855,-7.36 C 70.56047,37.413891 70.746858,33.32 70.879094,28.48 c 0.132237,-4.84 0.330538,-9.488682 0.440669,-10.330404 0.223725,-1.709925 0.855664,-2.06891 0.812567,-0.461595 C 72.04069,21.105524 71.61865,31.622984 71.480973,33.92 71.249869,37.775754 70.807648,48.42928 70.398406,60 c -0.192969,5.456 -0.486742,13.736 -0.652825,18.4 -0.166083,4.664 -0.380787,11.792 -0.47712,15.84 -0.279139,11.72968 -0.370391,12.93534 -0.912624,12.05798 z M 63.165997,104 c 0.09839,-1.144 0.331417,-8.128 0.517849,-15.52 0.186432,-7.392 0.477924,-18.264 0.647757,-24.16 0.169837,-5.896 0.310909,-14.248 0.313495,-18.56 0.0026,-4.509347 0.136483,-8.043917 0.314902,-8.32 0.40473,-0.626275 0.409661,11.319152 0.0095,23.04 -0.165238,4.84 -0.46617,16.864 -0.668739,26.72 -0.308787,15.02418 -0.444688,17.99757 -0.840983,18.4 -0.417414,0.42388 -0.451763,0.23682 -0.293792,-1.6 z M 24.64,105.12 c 0,-0.088 0.072,-0.16 0.16,-0.16 0.088,0 0.16,0.072 0.16,0.16 0,0.088 -0.072,0.16 -0.16,0.16 -0.088,0 -0.16,-0.072 -0.16,-0.16 z m 41.464582,-1.50933 c -0.134675,-0.30213 -0.0839,-4.622132 0.112836,-9.600001 0.519203,-13.136919 1.2456,-36.445018 1.623408,-52.090669 0.490969,-20.331786 0.655235,-24.047979 1.057065,-23.914036 0.343565,0.114522 0.370131,11.735484 0.03018,13.194036 -0.08205,0.352 -0.277037,5.824 -0.433309,12.16 -1.135792,46.050038 -1.755606,61.67422 -2.390163,60.25067 z M 70.53393,98.48 c 0.113977,-3.036 0.342358,-8.472 0.507513,-12.08 0.165155,-3.608 0.387811,-9.855498 0.494787,-13.883328 0.106976,-4.02783 0.241143,-7.98783 0.298148,-8.8 0.17062,-2.430928 0.483398,-10.367194 0.657248,-16.676672 0.08971,-3.256 0.311686,-9.88 0.49327,-14.72 0.181584,-4.84 0.38799,-10.442522 0.458678,-12.450048 0.114116,-3.24093 0.44706,-4.771188 0.865469,-3.977834 0.145341,0.275583 -0.01898,4.894326 -0.834886,23.467882 -0.259005,5.896 -0.480055,12.088 -0.491223,13.76 -0.01914,2.863837 -0.191097,7.499107 -0.9735,26.24 -0.180016,4.312 -0.407373,11.152 -0.505236,15.2 -0.194166,8.03154 -0.3188,9.44 -0.83535,9.44 -0.237654,0 -0.278858,-1.68588 -0.134918,-5.52 z m 10.312137,1.44 c 0.0743,-2.068 0.271239,-5.488 0.437635,-7.6 0.166397,-2.112 0.386157,-6.576 0.488356,-9.92 0.102198,-3.344 0.246432,-6.872 0.320521,-7.84 0.07409,-0.968 0.282611,-5.36 0.463383,-9.76 0.180774,-4.4 0.395232,-9.224 0.476569,-10.72 0.08134,-1.496 0.311354,-5.816 0.511139,-9.6 0.199786,-3.784 0.485255,-7.312 0.634375,-7.84 0.283145,-1.00256 0.199542,2.400589 -0.353754,14.4 -0.501824,10.883162 -2.213152,50.80202 -2.218957,51.76 -0.0032,0.53511 -0.179548,0.88 -0.449849,0.88 -0.361795,0 -0.419373,-0.69968 -0.309418,-3.76 z m -5.802528,2.49115 c -0.111395,-0.35098 -0.05143,-2.621067 0.133261,-5.044644 0.537712,-7.056154 1.004774,-20.110519 0.786086,-21.97121 -0.131827,-1.121626 -0.07747,-1.785597 0.158109,-1.93119 C 76.354246,73.319949 76.48,71.889504 76.48,69.380448 c 0,-2.123981 0.137952,-6.615482 0.306557,-9.981117 C 76.955165,56.033699 77.249421,49.608 77.440464,45.12 c 0.19104,-4.488 0.48601,-10.968 0.655485,-14.4 0.169478,-3.432 0.390598,-8.112 0.491385,-10.4 0.267901,-6.081785 0.539053,-8.24438 1.05512,-8.415191 0.349786,-0.115773 0.402436,0.146951 0.251376,1.254373 -0.105097,0.77045 -0.271769,3.416818 -0.370387,5.880818 -0.180713,4.515191 -0.406889,9.167634 -1.314534,27.04 -0.272611,5.368 -0.619421,12.928 -0.770688,16.8 -0.151264,3.872 -0.512589,12.296 -0.802944,18.72 -0.290352,6.424 -0.440247,12.904 -0.333101,14.4 0.134608,1.879392 0.09481,2.571658 -0.128781,2.24 -0.231849,-0.34391 -0.324985,0.217779 -0.328496,1.98111 -0.0048,2.40192 -0.395344,3.46929 -0.80136,2.19004 z M 20.48,101.92 c 0,-0.35556 0.373333,-0.48 1.44,-0.48 1.066667,0 1.44,0.12444 1.44,0.48 0,0.35556 -0.373333,0.48 -1.44,0.48 -1.066667,0 -1.44,-0.12444 -1.44,-0.48 z m 62.846118,-0.61291 C 83.130531,100.7974 83.192941,98.483942 83.654883,89.12 c 0.08683,-1.76 0.240298,-5.216 0.34105,-7.68 0.100755,-2.464 0.3248,-7.288 0.497878,-10.72 0.173082,-3.432 0.533162,-11.28 0.800176,-17.44 0.267018,-6.16 0.712602,-15.52 0.990192,-20.8 0.277587,-5.28 0.572749,-12.147949 0.655917,-15.262109 0.116406,-4.358789 0.255795,-5.748905 0.605558,-6.039183 0.249892,-0.20739 0.47257,-0.25144 0.494845,-0.09789 0.226355,1.56032 -0.21663,11.490304 -1.311526,29.399182 -0.172163,2.816 -0.463843,9.296 -0.648179,14.4 -0.184336,5.104 -0.410141,10.432 -0.501786,11.84 -0.204781,3.146106 -0.608371,12.268784 -1.10424,24.96 -0.348656,8.92347 -0.602442,11.0505 -1.14865,9.62709 z m 2.383101,-3.102194 C 85.624678,97.960202 85.800144,92.936 86.099142,87.04 c 0.298996,-5.896 0.633738,-13.528 0.743866,-16.96 0.110131,-3.432 0.341338,-8.184 0.513795,-10.56 0.172458,-2.376 0.462679,-7.488 0.644938,-11.36 0.182259,-3.872 0.552966,-11.288 0.823792,-16.48 0.270825,-5.192 0.616441,-12.536 0.768035,-16.32 0.320701,-8.0051901 0.206845,-7.04 0.830454,-7.04 0.435104,0 0.47745,0.3828755 0.30969,2.8 -0.197955,2.852116 -0.709088,13.141541 -0.997488,20.08 -0.08779,2.112 -0.300374,5.856 -0.472419,8.32 -0.172045,2.464 -0.450291,8.224 -0.618327,12.8 -0.168038,4.576 -0.377516,8.752 -0.465513,9.28 -0.088,0.528 -0.312877,5.064 -0.499735,10.08 -0.186854,5.016 -0.425561,9.984 -0.530457,11.04 -0.222435,2.239261 -0.353127,5.871811 -0.397869,11.058838 -0.03021,3.501191 -0.570227,5.793536 -1.042685,4.426058 z M 23.04,95.84 c 0,-0.088 0.072,-0.16 0.16,-0.16 0.088,0 0.16,0.072 0.16,0.16 0,0.088 -0.072,0.16 -0.16,0.16 -0.088,0 -0.16,-0.072 -0.16,-0.16 z M 76.825264,83.973334 c 0.01536,-0.372784 0.09118,-0.448608 0.193331,-0.193334 0.09244,0.230998 0.08107,0.507002 -0.02525,0.613334 -0.106336,0.106333 -0.181965,-0.08267 -0.16807,-0.42 z M 93.082106,58.8 c -0.02083,-0.22 -0.03024,-0.47976 -0.02093,-0.577248 0.0093,-0.09748 0.09759,-1.825485 0.196108,-3.84 C 93.613716,47.094659 94.286036,35.084816 94.55507,31.2 c 0.09751,-1.408 0.398867,-6.448 0.669686,-11.2 0.27082,-4.752 0.628036,-8.7768 0.793815,-8.944 0.389081,-0.392415 0.380617,1.840253 -0.03694,9.744 -0.181315,3.432 -0.470407,8.904 -0.642423,12.16 -0.172016,3.256 -0.44262,8.512 -0.601344,11.68 -0.487017,9.720454 -0.692579,13.08977 -0.84438,13.84 -0.154298,0.76257 -0.747303,0.996442 -0.811386,0.32 z M 58.56,57.44 c 0,-0.088 0.072,-0.16 0.16,-0.16 0.088,0 0.16,0.072 0.16,0.16 0,0.088 -0.072,0.16 -0.16,0.16 -0.088,0 -0.16,-0.072 -0.16,-0.16 z m 0,-3.2 c 0,-0.088 0.072,-0.16 0.16,-0.16 0.088,0 0.16,0.072 0.16,0.16 0,0.088 -0.072,0.16 -0.16,0.16 -0.088,0 -0.16,-0.072 -0.16,-0.16 z M 95.806326,47.547638 C 95.646483,47.131098 96.278922,35.954614 96.957728,27.2 c 0.156934,-2.024 0.295853,-4.256 0.308704,-4.96 0.01715,-0.938732 0.104576,-1.152024 0.327952,-0.8 0.358147,0.564414 0.270518,3.43832 -0.509808,16.72 -0.525856,8.950419 -0.766851,10.72032 -1.27825,9.387638 z M 60.8,37.76 c 0,-0.234666 0.096,-0.330666 0.213334,-0.213334 0.117332,0.117334 0.117332,0.309334 0,0.426668 C 60.896,38.090666 60.8,37.994666 60.8,37.76 Z m 4.164899,-3.28 c 0.0026,-0.748 0.14449,-1.576 0.315101,-1.84 0.220182,-0.340707 0.311622,0.05395 0.315101,1.36 0.0026,1.016602 -0.138301,1.84 -0.315101,1.84 -0.176,0 -0.317795,-0.612 -0.315101,-1.36 z m 33.404234,0.230938 C 98.119085,33.714669 98.434125,27.315496 98.81768,25.6 c 0.465405,-2.081596 0.628163,-0.24441 0.416746,4.704199 -0.207277,4.851782 -0.447079,6.073036 -0.865293,4.406739 z M 84.1936,32.96 C 84.138595,29.805542 84.570806,24 84.860653,24 c 0.319741,0 0.004,7.85916 -0.385661,9.6 -0.230659,1.030451 -0.253158,0.979283 -0.281392,-0.64 z m 13.751664,-6.266667 c 0.01536,-0.372781 0.09118,-0.448608 0.193331,-0.193333 0.09244,0.231 0.08107,0.507 -0.02525,0.613333 -0.106333,0.106334 -0.181965,-0.08267 -0.16807,-0.42 z M 84.818582,15.76 c 0.0326,-2.068 0.01434,-3.904 -0.04061,-4.08 -0.195436,-0.626067 0.399728,-2.4 0.805213,-2.4 0.41377,0 0.404483,5.469883 -0.01507,8.88 -0.347337,2.823097 -0.808598,1.346132 -0.749529,-2.4 z M 60.8,18.56 c 0,-0.234667 0.096,-0.330667 0.213334,-0.213333 0.117332,0.117333 0.117332,0.309333 0,0.426666 C 60.896,18.890667 60.8,18.794667 60.8,18.56 Z m 1.92,-4.8 c 0,-0.234667 0.096,-0.330667 0.213334,-0.213333 0.117332,0.117333 0.117332,0.309333 0,0.426666 C 62.816,14.090667 62.72,13.994667 62.72,13.76 Z M 84.48,8.8 c 0,-0.088 0.072,-0.16 0.16,-0.16 0.088,0 0.16,0.072 0.16,0.16 0,0.088 -0.072,0.16 -0.16,0.16 -0.088,0 -0.16,-0.072 -0.16,-0.16 z"
       id="path2359"
       sodipodi:nodetypes="ssssssssssssssssssssscssssssssssssssssssscscsssssssssssscsscssscssssscscssssssssssssssssssssssssssssssssssssssssssssssssssssssssssssssssssssssssscssssssssssssssssssssssccsscsssssssssssssssssssssssssssssssssssssscsssssssssssssssssssssscssssssssssscsssssssssssssssssssssssssssssssssscsssssssssssssscsssssssssssssssssssssssssssssssssssssssssssssssssssssssssssssssscssssssssssssscsssssssssssssssssscssssssssssssssssssssssssssscssssssssscscssscssssssssssssssssssssssssssscsssssssssssssssssssssssssssssssssssssssssscssssssssssssssssssssssssssssssssssssssssssssssssssssssssssssssssssssssssssssssssssssssssssssssssssscscscsssssssssssssscsssssssssssssssss" />
  </g>
</svg>
