<?xml version="1.0" encoding="UTF-8" standalone="no"?>
<svg
   xmlns:dc="http://purl.org/dc/elements/1.1/"
   xmlns:cc="http://creativecommons.org/ns#"
   xmlns:rdf="http://www.w3.org/1999/02/22-rdf-syntax-ns#"
   xmlns:svg="http://www.w3.org/2000/svg"
   xmlns="http://www.w3.org/2000/svg"
   xmlns:sodipodi="http://sodipodi.sourceforge.net/DTD/sodipodi-0.dtd"
   xmlns:inkscape="http://www.inkscape.org/namespaces/inkscape"
   inkscape:version="1.0 (4035a4fb49, 2020-05-01)"
   sodipodi:docname="dramatique-line.png.svg"
   viewBox="0 0 182.20921 68.504578"
   height="68.504578"
   width="182.20921"
   id="svg7738"
   version="1.1">
  <metadata
     id="metadata7744">
    <rdf:RDF>
      <cc:Work
         rdf:about="">
        <dc:format>image/svg+xml</dc:format>
        <dc:type
           rdf:resource="http://purl.org/dc/dcmitype/StillImage" />
        <dc:title></dc:title>
      </cc:Work>
    </rdf:RDF>
  </metadata>
  <defs
     id="defs7742" />
  <sodipodi:namedview
     inkscape:current-layer="g7746"
     inkscape:window-maximized="0"
     inkscape:window-y="34"
     inkscape:window-x="10"
     inkscape:cy="-13.282592"
     inkscape:cx="43.828675"
     inkscape:zoom="2.7774758"
     fit-margin-bottom="0"
     fit-margin-right="0"
     fit-margin-left="0"
     fit-margin-top="0"
     showgrid="false"
     id="namedview7740"
     inkscape:window-height="1034"
     inkscape:window-width="1898"
     inkscape:pageshadow="2"
     inkscape:pageopacity="0"
     guidetolerance="10"
     gridtolerance="10"
     objecttolerance="10"
     borderopacity="1"
     bordercolor="#666666"
     pagecolor="#ffffff" />
  <g
     transform="translate(-6.4237086,-27.537675)"
     id="g7746"
     inkscape:label="Image"
     inkscape:groupmode="layer">
    <path
       id="path8315"
       d="m 90.08,95.982752 c -2.828403,-0.199542 -3.108426,-0.295526 -5.50448,-1.886787 -1.472074,-0.977629 -1.705782,-1.28905 -2.041251,-2.72 -0.524343,-2.236599 -0.83312,-2.75304 -1.499149,-2.507389 -0.305315,0.112608 -0.62712,0.304394 -0.71512,0.426192 -0.088,0.121795 -0.979405,0.656896 -1.980899,1.189107 -1.001491,0.532215 -1.744295,1.044263 -1.650672,1.137888 C 76.987542,91.920877 73.84584,92.32 71.192256,92.32 c -2.208723,0 -2.674109,-0.09912 -3.328464,-0.708934 -0.418394,-0.389914 -0.872541,-0.639824 -1.009216,-0.555354 -0.136675,0.08447 -0.350275,-0.172509 -0.474666,-0.571066 -0.124393,-0.398556 -0.366153,-0.814659 -0.537244,-0.924672 -0.468372,-0.301168 0.05768,-2.215203 0.66751,-2.428755 0.291402,-0.102045 1.177824,-0.47664 1.969824,-0.832438 0.792,-0.355795 1.692,-0.631523 2,-0.61273 0.308,0.01878 0.56,-0.09636 0.56,-0.255894 0,-0.159539 0.239622,-0.198119 0.532493,-0.08573 0.386643,0.148368 0.460749,0.08825 0.27056,-0.219484 -0.182538,-0.295351 -0.139104,-0.347908 0.14328,-0.173383 0.616025,0.380723 0.963296,-0.438509 0.968768,-2.285382 0.0059,-1.993085 -0.270154,-2.931242 -0.674733,-2.293005 -0.167984,0.264998 -0.272426,0.288346 -0.275469,0.06157 -0.0033,-0.242176 -0.786656,-0.124704 -2.324899,0.348621 -1.276,0.392631 -2.520045,0.646314 -2.764544,0.563741 -0.296595,-0.100166 -0.360013,-0.01338 -0.190557,0.260826 0.140784,0.227792 0.124983,0.336902 -0.03546,0.244806 -0.159193,-0.09138 -1.335872,-0.05014 -2.614838,0.09164 -6.410221,0.710624 -11.333648,-3.53232 -7.872237,-6.784192 0.673261,-0.632503 1.113898,-0.751917 2.623402,-0.710964 1.98824,0.05394 4.742713,0.588183 5.300128,1.027984 1.112016,0.877383 6.058291,1.564941 6.914102,0.961101 0.426109,-0.300656 0.42592,-0.321827 -0.0016,-0.188589 -0.491901,0.153274 -1.374563,-0.526806 -1.073926,-0.827443 0.09126,-0.09125 -0.291472,-0.502598 -0.850509,-0.914096 C 68.554845,74.096682 67.715526,73.112 67.248726,72.32 66.506445,71.060602 66.4,70.532106 66.4,68.106106 c 0,-2.613533 0.06012,-2.859197 1.04,-4.249357 0.572,-0.811504 1.04,-1.615251 1.04,-1.786106 0,-0.170854 0.108,-0.31167 0.24,-0.312921 0.132,-0.0013 0.816,-0.570189 1.52,-1.264301 0.704,-0.694112 1.442368,-1.269088 1.640819,-1.277722 0.198448,-0.0086 0.53353,-0.223808 0.744627,-0.478163 0.373693,-0.450272 3.212525,-1.568822 4.174554,-1.644845 1.138829,-0.09 1.28,-0.157571 1.28,-0.612691 0,-0.264 -0.119421,-0.48 -0.265379,-0.48 -0.145959,0 -0.740855,-0.946218 -1.321991,-2.102704 -0.95031,-1.891168 -1.040387,-2.304781 -0.895369,-4.111411 0.08868,-1.104787 0.383753,-2.426573 0.655712,-2.937296 C 76.524931,46.337866 76.977789,45.488 77.259322,44.96 78.046944,43.482854 83.511562,40 85.041587,40 c 0.510413,0 0.831405,-0.268269 1.052938,-0.88 0.596678,-1.647648 0.970483,-2.159485 2.130368,-2.917024 1.036448,-0.676922 1.395395,-0.736112 3.392285,-0.559373 2.51232,0.222362 3.076131,0.655786 3.092646,2.377434 0.01194,1.244595 -0.44823,2.254899 -1.355974,2.977072 -0.630781,0.50183 -0.596932,0.535881 1.077452,1.083869 3.904356,1.277798 5.625578,2.700278 6.691398,5.530025 0.77283,2.05184 0.79609,4.319767 0.0598,5.827997 -0.57314,1.173978 -3.081034,3.104851 -5.387712,4.14809 -0.735254,0.332531 -2.329117,0.656771 -3.580214,0.72832 -2.018208,0.11542 -2.364423,0.235958 -3.297261,1.147984 -1.418307,1.386656 -3.594925,2.38664 -5.539927,2.545152 -1.429216,0.11648 -1.710432,0.03218 -2.417366,-0.724647 -1.055635,-1.130137 -1.101501,-3.223475 -0.100304,-4.57767 0.699699,-0.946394 0.699699,-0.946394 -0.280349,-1.86681 C 76.220878,50.74712 78.8521,43.693942 85.394858,41.93216 c 1.254896,-0.337907 1.564903,-0.62575 1.135933,-1.054723 -0.324841,-0.324842 -3.010528,0.636528 -4.401827,1.57568 -0.730918,0.493382 -1.604029,1.04327 -1.940243,1.221971 -0.879239,0.467325 -2.68136,3.206442 -3.077511,4.677626 -0.573916,2.131369 0.411549,5.184588 2.194064,6.79774 0.70986,0.642416 0.61872,1.249412 -0.343075,2.284887 -0.332518,0.357993 -0.444339,0.683939 -0.256157,0.746665 0.18369,0.06123 0.333978,0.2629 0.333978,0.448157 0,0.214624 -0.517392,0.265911 -1.426077,0.141363 -0.807408,-0.110668 -1.509725,-0.06012 -1.618886,0.116503 C 75.881904,59.071085 76.338966,59.2 77.101114,59.2 77.815501,59.2 78.4,59.329091 78.4,59.48687 c 0,0.15778 -1.005043,0.238743 -2.233427,0.179924 -1.228387,-0.05882 -2.316883,0.0281 -2.418887,0.193129 -0.103766,0.167898 0.421924,0.309984 1.193428,0.32257 0.758387,0.01235 1.666886,0.144361 2.018886,0.293315 0.411933,0.174314 -0.430957,0.272432 -2.365299,0.275338 -3.005299,0.0045 -3.005299,0.0045 -4.4,1.373312 C 69.427616,62.877296 68.8,63.60727 68.8,63.746627 68.8,63.885981 69.808,64 71.04,64 c 1.232,0 2.24,0.137226 2.24,0.304944 0,0.167718 -0.324,0.291354 -0.72,0.274749 -2.039987,-0.08555 -4.4,0.09232 -4.4,0.331609 0,0.149216 0.404288,0.282797 0.898419,0.296848 1.638426,0.04658 9.801258,0.730791 11.021581,0.923828 0.66,0.1044 1.2,0.31816 1.2,0.475017 0,0.156858 -0.324,0.211591 -0.72,0.121629 -2.70545,-0.614627 -9.654419,-0.992506 -11.586426,-0.630058 -1.998188,0.374861 -0.909244,0.705386 2.462148,0.747328 3.906396,0.0486 6.004278,0.308788 6.004278,0.744676 0,0.180976 -0.241206,0.2144 -0.56,0.0776 -0.308,-0.132167 -2.54,-0.261395 -4.96,-0.287175 -4.4,-0.04687 -4.4,-0.04687 -4.398803,0.926068 6.4e-4,0.535113 0.280425,1.430876 0.621702,1.990582 0.680035,1.115274 1.218199,1.261933 6.257101,1.705187 2.56,0.225194 2.56,0.225194 -1.2,0.271178 -3.332282,0.04076 -4.360013,0.277389 -3.503584,0.806691 0.251171,0.155232 2.156416,0.382243 5.975834,0.712022 C 78.655238,74.050285 78.183466,74.24 74.56,74.24 c -3.697546,0 -4.08753,0.279578 -0.749222,0.537114 2.75815,0.212777 3.459785,0.742886 0.983264,0.742886 -1.592954,0 -1.788784,0.06823 -1.607341,0.56 0.113638,0.308 0.34535,0.653002 0.514915,0.766669 0.169562,0.11367 0.397834,0.76167 0.50727,1.44 0.198976,1.233331 0.198976,1.233331 2.275044,1.418099 2.493228,0.221894 2.039692,0.412634 -1.36393,0.573613 -0.644973,0.0305 -0.88,0.208304 -0.88,0.665728 0,0.525107 0.303587,0.658457 1.913776,0.84063 2.361117,0.26713 2.219133,0.818131 -0.173792,0.674439 C 74.522288,82.371645 74.24,82.44192 74.24,82.892342 c 0,0.394244 0.44809,0.623789 1.68,0.860612 1.68,0.322966 1.68,0.322966 0.02224,0.365008 -1.460352,0.03703 -1.66992,0.127769 -1.76,0.762038 -0.08345,0.58759 -0.565661,0.875725 -2.622077,1.566778 -4.470838,1.502412 -4.529184,1.557721 -3.34,3.166179 0.880208,1.190547 1.503175,1.194323 2.632125,0.01597 C 71.755523,88.68615 72.96,88.138144 72.96,88.669958 72.96,88.829482 72.850528,88.96 72.71673,88.96 c -0.133799,0 -0.662442,0.388678 -1.174762,0.863728 -0.931488,0.863725 -0.931488,0.863725 -0.124003,1.079683 1.454701,0.389047 3.972285,-0.265997 6.976467,-1.815184 2.952902,-1.522745 2.952902,-1.522745 2.789914,-3.93872 -0.216832,-3.214141 0.05536,-5.705571 0.648204,-5.933069 0.290714,-0.111555 0.529911,0.06273 0.634384,0.46224 0.164493,0.629018 0.818042,0.795616 2.567706,0.654544 0.39305,-0.03168 0.876426,0.04237 1.074163,0.16458 0.624163,0.385753 -0.395126,0.772038 -2.051059,0.777299 -1.415181,0.0045 -1.53383,0.06422 -1.44,0.724899 0.08614,0.606512 0.329232,0.735795 1.542256,0.820202 0.792,0.05511 1.584,0.251523 1.76,0.43647 0.22295,0.234288 -0.238029,0.269702 -1.52,0.116774 -1.84,-0.219497 -1.84,-0.219497 -1.84,0.763527 0,0.979478 0.0064,0.983027 1.778886,0.983027 1.104436,0 1.703901,0.121325 1.581114,0.32 -0.108774,0.176 -0.84993,0.32 -1.647011,0.32 -1.449245,0 -1.449245,0 -1.239475,1.36 0.404828,2.62465 1.180339,4.885427 1.870108,5.451757 1.605876,1.318493 4.353751,2.468256 5.887252,2.463344 2.312099,-0.0074 2.625795,-0.345741 1.58534,-1.709843 -1.205587,-1.580608 -0.503174,-1.765421 0.795885,-0.209405 1.048317,1.25568 1.089834,1.272352 2.263859,0.909193 0.657776,-0.203472 1.485776,-0.639952 1.84,-0.969961 C 98.610051,91.812189 97.95281,90.599101 94.45047,87.84 93.556829,87.136 92.819891,86.38 92.812835,86.16 92.804419,85.897446 92.222723,85.746938 91.12,85.721984 c -1.68,-0.03801 -1.68,-0.03801 0,-0.344406 1.480291,-0.269972 1.68,-0.398592 1.68,-1.081984 0,-0.71738 -0.120093,-0.775594 -1.6,-0.775594 -0.88,0 -1.6,-0.144 -1.6,-0.32 0,-0.176 0.631213,-0.32 1.402694,-0.32 1.242096,0 1.420205,-0.0916 1.555626,-0.8 0.146163,-0.764595 0.08409,-0.8 -1.402694,-0.8 C 90.300032,81.28 89.6,81.136 89.6,80.96 c 0,-0.176 0.570934,-0.32 1.268742,-0.32 0.909258,0 1.358967,-0.168589 1.587181,-0.595011 0.338077,-0.631703 0.120064,-2.848311 -0.337827,-3.434765 -0.301146,-0.385702 1.173949,-1.219437 1.643773,-0.929069 0.150649,0.09311 0.364358,0.02294 0.474905,-0.155936 C 94.362698,75.321469 93.803238,75.1916 92.738886,75.177507 91.804499,75.165139 90.752,75.031261 90.4,74.88 c -0.408294,-0.17545 0.721261,-0.283162 3.12,-0.297507 2.278339,-0.01363 3.76,-0.148592 3.76,-0.342493 0,-0.176 0.159277,-0.32 0.353952,-0.32 0.194672,0 0.894525,-0.428144 1.555232,-0.951434 0.660704,-0.523289 1.309046,-0.847289 1.440756,-0.72 0.1317,0.12729 0.1816,0.01542 0.11087,-0.248566 C 99.742755,68.274784 99.955757,68.539318 97.807549,68.357053 96.725398,68.265238 95.408,68.207034 94.88,68.227709 92.115664,68.335955 90.899885,68.160522 91.084278,67.68 91.219622,67.327302 91.042211,67.2 90.41535,67.2 c -1.196585,0 -0.740192,-0.535645 0.486103,-0.570509 1.482054,-0.04214 1.482105,-0.295465 1.09e-4,-0.545849 C 90.05951,65.941379 89.6,65.695238 89.6,65.386448 c 0,-0.347834 0.238698,-0.43201 0.88,-0.310333 0.484,0.09183 2.428,0.261133 4.32,0.376221 2.508944,0.152614 3.44,0.109197 3.44,-0.160429 0,-0.203321 -0.142352,-0.281699 -0.316336,-0.174173 -0.177786,0.109879 -0.237069,-0.01104 -0.135357,-0.276108 0.09954,-0.259389 0.02083,-0.770868 -0.174925,-1.136621 C 97.323427,63.163219 96.948278,63.03919 95.588742,63.035632 93.624179,63.030486 92.48,62.770035 92.48,62.327987 c 0,-0.174553 0.325952,-0.235558 0.724336,-0.135571 0.398384,0.09999 1.730384,0.20535 2.96,0.234141 1.368419,0.03204 2.431091,0.222749 2.739456,0.491622 0.435181,0.379453 0.64128,0.316525 1.513368,-0.46208 0.68109,-0.60807 0.90421,-1.006733 0.68572,-1.225216 -0.41585,-0.415856 -0.0486,-1.390883 0.52392,-1.390883 0.24107,0 1.00136,0.712304 1.68953,1.582899 0.68816,0.870592 1.35151,1.482592 1.47411,1.36 0.12259,-0.122595 0.1803,-0.0789 0.12824,0.0971 -0.31143,1.05289 1.60808,2.573872 2.59739,2.058131 3.04646,-1.588163 5.44698,-2.099949 6.69468,-1.427299 0.45609,0.245888 1.22306,0.530733 1.70438,0.632989 0.57058,0.121225 0.94156,0.450633 1.06604,0.946589 0.22597,0.900329 -0.61472,2.694108 -1.3979,2.982713 -0.2988,0.110106 -0.61527,0.300352 -0.70327,0.422765 -0.33299,0.463213 -4.83245,2.553053 -5.70164,2.648205 -0.4996,0.0547 -1.40112,0.460598 -2.00337,0.902006 -0.60224,0.441408 -1.63499,0.958135 -2.29499,1.148279 -1.15,0.331312 -1.2,0.313632 -1.2,-0.42433 C 103.68,72.125789 103.83866,72 104.65126,72 105.67668,72 107.2,71.189069 107.2,70.643197 c 0,-0.448832 -1.91027,-0.0312 -2.5642,0.560605 -0.58219,0.52687 -1.46401,0.628326 -1.72937,0.198966 -0.28437,-0.460122 1.23725,-1.531101 2.5835,-1.818374 0.20347,-0.04342 0.62624,-0.222378 0.93951,-0.39769 0.8454,-0.47311 2.05056,0.176125 2.05056,1.104662 0,0.719239 0.47244,1.042423 0.69333,0.474292 0.12995,-0.334212 5.23356,-3.245658 5.68947,-3.245658 0.40525,0 0.79132,-1.444096 0.50844,-1.901811 -0.32183,-0.520736 -0.54207,-0.433159 -2.37592,0.944765 -0.93909,0.705625 -2.05122,1.369238 -2.47138,1.474691 -0.42017,0.105456 -0.76394,0.30472 -0.76394,0.442809 0,0.13809 -0.216,0.333959 -0.48,0.435268 -0.32086,0.123123 -0.48,-0.01354 -0.48,-0.412228 0,-0.395081 0.56713,-0.891702 1.68,-1.471129 1.80678,-0.940723 2.14748,-1.280983 2.1551,-2.152365 0.007,-0.789005 -0.99624,-0.711981 -2.97561,0.228477 -1.94644,0.924809 -2.58195,1.405779 -2.86928,2.171523 -0.21071,0.561558 -1.19021,0.798582 -1.19021,0.288013 0,-0.149594 -0.43142,-0.867543 -0.9587,-1.59544 -0.95871,-1.323453 -0.95871,-1.323453 -2.06222,-0.797226 -1.1888,0.566896 -2.23777,2.351754 -1.52231,2.590243 0.21078,0.07026 0.38323,0.386157 0.38323,0.701997 0,0.31584 0.216,1.091213 0.48,1.723056 0.64059,1.533149 0.60513,2.046515 -0.15811,2.288755 -0.35095,0.111389 -0.82243,0.373095 -1.04772,0.581565 -2.017172,1.866547 -3.923744,3.146848 -5.190842,3.485744 -1.49857,0.400807 -1.49857,0.400807 -1.380381,4.536448 0.118186,4.135639 0.118186,4.135639 2.218087,6.086346 2.70735,2.515001 3.898426,4.815715 2.833747,5.473725 -0.178871,0.110547 -0.228621,0.357296 -0.110557,0.548329 0.128122,0.207303 0.06572,0.25528 -0.154781,0.119002 C 98.72625,93.184976 98.56,93.208211 98.56,93.362189 c 0,0.408285 -2.268438,1.617155 -4.225139,2.251613 -1.283827,0.416278 -2.315709,0.505756 -4.254861,0.36895 z M 64.850211,80.423546 c -0.07556,-0.07556 0.04999,-0.759994 0.279002,-1.520951 0.397107,-1.319488 0.382547,-1.401673 -0.314352,-1.774643 -0.401907,-0.215094 -1.001203,-0.338992 -1.33177,-0.275331 -0.662973,0.127677 -1.683622,1.949401 -1.707721,3.048061 -0.01277,0.581462 0.188809,0.718179 1.18463,0.803504 1.220531,0.104576 2.139056,-0.03181 1.890211,-0.28064 z M 61.317107,78.96 c 0.188439,-0.748 0.452586,-1.612 0.586992,-1.92 0.140915,-0.322915 0.108896,-0.56 -0.07563,-0.56 -0.176,0 -0.417639,0.252 -0.536973,0.56 -0.36913,0.95272 -0.740176,3.28 -0.522944,3.28 0.113264,0 0.360109,-0.612 0.54855,-1.36 z M 67.84,78.845763 c 0,-1.268387 -0.50121,-1.420486 -1.008928,-0.306169 -0.438966,0.963427 -0.153088,1.83784 0.516816,1.580774 C 67.656909,80.001786 67.84,79.527568 67.84,78.845763 Z M 60.17327,78.32 c 0.620397,-2.294403 0.637808,-2.242323 -0.898358,-2.687085 -1.25647,-0.363782 -1.41561,-0.341005 -2,0.286266 C 56.925709,76.294006 56.64,76.906586 56.64,77.28047 c 0,0.90944 1.746093,2.531936 2.899504,2.694266 C 59.63823,79.988624 59.923427,79.244 60.17327,78.32 Z M 72.24,79.007843 c 0.396,-0.149603 0.72,-0.479789 0.72,-0.73375 0,-0.253962 0.08741,-0.689527 0.194237,-0.96792 0.253824,-0.661459 -0.706189,-0.679936 -1.359952,-0.02618 -0.264,0.264 -0.889936,0.48 -1.39097,0.48 -1.460742,0 -1.844979,0.265526 -1.674528,1.157174 0.143584,0.751123 0.24233,0.790275 1.47256,0.583888 C 70.926605,79.379389 71.844,79.15744 72.24,79.00784 Z M 99.04,67.52 c -0.112214,-0.181568 -1.677738,-0.317882 -3.618886,-0.315101 -2.327047,0.0033 -3.26761,0.104103 -2.941114,0.315101 0.652166,0.421462 6.820477,0.421462 6.56,0 z M 98.444413,66.462256 C 98.515574,66.391091 97.25719,66.233478 95.648,66.112 c -2.892531,-0.218358 -3.385075,-0.162749 -3.071011,0.34671 0.157574,0.255604 5.612067,0.2589 5.867424,0.0036 z M 101.44,65.28 c 0.49323,-0.528 1.055,-0.96 1.24839,-0.96 0.19338,0 0.35161,-0.144 0.35161,-0.32 0,-0.468723 -0.27207,-0.397706 -1.31125,0.342253 -0.88905,0.633062 -1.814299,1.897747 -1.38839,1.897747 0.11157,0 0.60641,-0.432 1.09964,-0.96 z m 0.69506,-2.632938 c -0.58462,-0.584627 -2.898042,1.27618 -2.46257,1.980784 0.137504,0.22249 0.67612,-0.0169 1.49205,-0.663126 0.81334,-0.64417 1.16566,-1.122518 0.97052,-1.317658 z M 86.175891,59.963469 C 87.963606,59.061795 88.96,57.908208 88.96,56.740131 88.96,55.749978 88.888918,55.68 87.883155,55.68 c -0.592304,0 -1.44295,0.287978 -1.890473,0.64 -0.447495,0.352 -0.970916,0.64 -1.163156,0.64 -0.510249,0 -0.427065,-0.928176 0.133415,-1.488656 0.729027,-0.729027 0.245504,-1.133914 -0.741101,-0.620576 -1.442317,0.750451 -2.342653,1.959475 -2.536739,3.406486 -0.146103,1.089287 -0.06497,1.446052 0.407395,1.791453 0.801315,0.585936 2.836928,0.543443 4.083395,-0.08524 z M 96.464944,44.748634 C 96.913226,44.544384 97.28,44.279498 97.28,44.16 c 0,-0.276912 -1.485104,-0.96 -2.087136,-0.96 -0.350038,0 -0.388752,0.179568 -0.165373,0.767098 0.160407,0.4219 0.204842,0.8539 0.09875,0.96 -0.322042,0.322041 0.472765,0.216086 1.338707,-0.178464 z M 90.980438,38.919827 C 91.078774,38.663565 90.839014,38.338253 90.406602,38.141232 89.568106,37.75919 89.28,37.920835 89.28,38.773334 c 0,0.706224 1.438106,0.830116 1.700438,0.146493 z M 28,94.264445 c -3.948199,-0.514448 -4.995006,-1.163034 -5.130053,-3.178493 -0.05804,-0.866211 0.114317,-1.174653 0.992755,-1.77657 0.584645,-0.400604 1.97071,-1.03983 3.080144,-1.420499 C 28.96,87.196758 28.96,87.196758 28.845012,85.438378 28.78177,84.47127 28.542042,83.176 28.312285,82.56 c -0.229757,-0.616 -0.504756,-1.516 -0.611109,-2 -0.119833,-0.545347 -0.404012,-0.880749 -0.747273,-0.881971 -0.355838,-0.0013 -0.213419,-0.179511 0.398284,-0.498474 0.654192,-0.34112 1.154926,-0.406105 1.6,-0.207651 0.356297,0.15887 1.175099,0.224915 1.819561,0.146765 0.644461,-0.07815 1.43646,0.01181 1.759999,0.199888 0.467165,0.271587 0.207431,0.343984 -1.26179,0.351712 -1.378215,0.0072 -1.899124,0.137635 -2.04249,0.511241 -0.291112,0.758624 0.29049,1.134756 2.179457,1.409492 1.612618,0.234544 1.638017,0.251782 0.433076,0.293977 -1.561761,0.05469 -2.165953,0.398685 -1.903143,1.083559 0.127527,0.332329 0.675037,0.557513 1.530838,0.629609 C 32.8,83.71039 32.8,83.71039 31.441974,83.975779 c -1.358026,0.265386 -1.358026,0.265386 -1.160995,1.941811 0.145947,1.241786 0.08321,1.748564 -0.241975,1.95466 -0.553559,0.350838 -3.401344,1.419907 -4.368703,1.640025 C 24.68701,89.736022 24.196645,90.691584 24.64,91.52 c 0.404827,0.756426 0.98917,0.792781 2.72,0.169229 0.704,-0.253626 1.712,-0.452464 2.24,-0.441866 0.830544,0.01667 0.755028,0.08201 -0.56,0.484554 -0.836,0.255904 -1.52,0.589453 -1.52,0.741213 0,0.415833 3.955427,0.7548 6.528758,0.559491 1.249184,-0.09481 2.881408,-0.416839 3.627168,-0.715616 C 39.183114,91.713168 40.96,89.904646 40.96,88.974458 c 0,-0.664372 -2.051683,-8.054858 -2.563795,-9.2352 -0.236803,-0.545792 -0.488384,-0.687738 -0.955933,-0.539344 -0.348998,0.110768 -0.815834,0.08715 -1.037408,-0.05247 -0.267011,-0.168262 -0.07914,-0.310806 0.557136,-0.422714 0.724867,-0.127488 0.985139,-0.364281 1.062637,-0.966784 0.05645,-0.438867 0.335974,-0.977942 0.621161,-1.197942 0.356416,-0.274947 0.388656,-0.4 0.103127,-0.4 -0.229463,0 -0.336503,-0.205597 -0.239139,-0.459325 0.09694,-0.25263 0.0044,-0.529667 -0.205764,-0.615638 C 37.779216,74.87112 38.670109,74.253014 39.52,74.24 c 0.352,-0.0054 0.843069,-0.138352 1.091261,-0.295469 0.281776,-0.178374 -0.281347,-0.235536 -1.499315,-0.152192 -1.117812,0.07649 -2.035783,-0.0044 -2.150151,-0.189433 C 36.796339,73.33519 38.30072,73.196448 41.28,73.20465 c 0.088,2.43e-4 0.508803,-0.33504 0.93512,-0.745076 0.775123,-0.745516 0.775123,-0.745516 -3.36,-0.582563 -3.186746,0.125581 -4.001914,0.07866 -3.554307,-0.204576 0.319446,-0.202144 1.255446,-0.331497 2.08,-0.287456 2.833309,0.151338 5.057763,-0.02563 5.635904,-0.448384 0.31847,-0.23287 0.63624,-0.942502 0.706157,-1.576957 0.144582,-1.311993 0.750918,-1.234336 -5.562874,-0.71247 -1.913914,0.158195 -2.96,0.132141 -2.96,-0.07372 0,-0.307376 4.426534,-0.80639 6.72,-0.757558 1.24753,0.02656 2.200355,-0.404845 1.648058,-0.746186 -0.262311,-0.162115 -6.733604,0.30328 -7.776058,0.559232 -0.1144,0.0281 -0.2584,-0.09293 -0.32,-0.268931 -0.139744,-0.399274 2.067763,-0.743616 5.008,-0.781181 2.077453,-0.02653 3.421443,-0.384045 3.00591,-0.799574 C 43.38936,65.6827 42.241526,65.7509 40.935178,65.930799 35.581386,66.668102 34.88,66.690534 34.88,66.124445 34.88,65.685504 35.268218,65.6 37.261114,65.6 c 2.800873,0 3.439859,-0.46456 1.071177,-0.778778 -0.910537,-0.120787 -1.740525,-0.272147 -1.844413,-0.336352 -0.103888,-0.06421 -0.09225,-1.243571 0.02586,-2.620806 0.118116,-1.377235 0.104551,-2.623158 -0.03014,-2.768717 -0.134697,-0.145561 -0.577744,0.202775 -0.98455,0.774077 -0.526765,0.739776 -0.733395,1.460643 -0.717936,2.504656 0.02163,1.460102 0.01709,1.466275 -1.139702,1.555248 -1.093149,0.08408 -2.913073,-0.212979 -5.481408,-0.89471 -0.616,-0.163508 -2.416,-0.602948 -4,-0.976532 -2.949247,-0.695571 -3.935102,-1.226438 -3.521218,-1.896118 0.216677,-0.350589 1.511987,-0.273862 3.075608,0.182182 0.374527,0.109232 0.700987,-0.298976 1.200659,-1.501321 0.686268,-1.651344 0.686268,-1.651344 -1.44373,-1.43312 -1.258704,0.128957 -2.862484,0.569005 -3.920659,1.075753 -0.984863,0.471639 -1.88666,0.861354 -2.003994,0.866032 -0.383514,0.01529 -0.703226,0.488506 -0.330036,0.488506 0.199809,0 0.297322,0.18 0.216694,0.4 -0.255078,0.696006 0.378888,1.281968 1.653352,1.528157 1.144642,0.22111 1.095265,0.241241 -0.68667,0.279942 -1.056,0.02294 -2.106584,0.160064 -2.334631,0.30473 -0.228047,0.144665 0.743953,0.195958 2.16,0.113984 1.416047,-0.08197 2.574631,-0.07342 2.574631,0.01902 0,0.09244 -1.26,0.355008 -2.8,0.583494 -1.54,0.22849 -2.872,0.427123 -2.96,0.441408 -0.088,0.0143 -0.448,0.209091 -0.8,0.432899 -0.64,0.406925 -0.64,0.406925 0,0.245863 0.352,-0.08858 1.144,-0.0382 1.76,0.111964 1.12,0.273028 1.12,0.273028 0.16,0.307568 -1.926404,0.06931 -3.376459,0.672596 -3.70713,1.542327 -0.174159,0.458073 -0.203302,0.932621 -0.06476,1.05455 0.138541,0.12193 1.461016,0.110935 2.938834,-0.02442 1.477818,-0.135366 2.989818,-0.132182 3.36,0.0071 0.45786,0.172243 -0.247768,0.321901 -2.206942,0.468074 -3.496241,0.260854 -4.32,0.419555 -4.32,0.832269 0,0.188448 0.680332,0.253769 1.68,0.161302 4.290787,-0.396883 6.96,-0.474326 6.96,-0.20193 0,0.26209 -3.235064,0.649863 -6.71981,0.805476 -0.691194,0.03088 -1.36653,0.165932 -1.500748,0.30015 -0.134218,0.134218 2.416501,0.173581 5.668263,0.08747 4.200777,-0.111235 5.171214,-0.07883 3.352295,0.111933 -3.417409,0.358413 -6.483636,0.606 -7.782256,0.628387 -0.913164,0.01574 -1.047904,0.118947 -0.96,0.735315 0.180373,1.264746 1.364889,1.535248 5.408426,1.235098 2.009607,-0.149174 3.79783,-0.182074 3.97383,-0.07311 0.443738,0.274724 -2.385172,0.619354 -5.36,0.65298 -1.364,0.01542 -2.48,0.15663 -2.48,0.313798 0,0.502659 0.745396,0.58599 3.04,0.339856 1.232,-0.13215 2.816,-0.127539 3.52,0.01024 1.174286,0.229837 1.104911,0.253568 -0.84,0.287328 -1.166,0.02026 -2.581615,0.129123 -3.145811,0.241962 -1.524785,0.304956 -0.549469,0.744038 1.665811,0.749939 1.012,0.0026 1.84,0.148899 1.84,0.324899 0,0.176 -0.48754,0.32 -1.083422,0.32 -0.595882,0 -1.475099,0.203203 -1.953815,0.451565 -0.651532,0.338019 -1.104789,0.369856 -1.802562,0.126611 -0.94297,-0.32872 -4.438537,-3.45816 -4.442173,-3.976896 -0.0011,-0.154704 -0.190882,-0.643238 -0.421774,-1.085629 -0.492323,-0.943299 -0.459288,-2.968278 0.06985,-4.281712 0.435186,-1.080224 1.826627,-2.891488 3.587964,-4.670515 C 15.119331,61.39128 15.68,60.761453 15.68,60.683808 c 0,-0.07764 -0.670886,0.06074 -1.490858,0.30751 -1.86281,0.560624 -4.2523305,0.562557 -4.9880358,0.004 C 8.8937146,60.76199 8.5515878,60.117936 8.440824,59.564118 8.1718077,58.219034 9.3698826,56.417392 10.72,56.136736 c 0.528,-0.10976 1.30173,-0.416365 1.7194,-0.681344 0.417669,-0.264979 0.661171,-0.322845 0.541114,-0.128589 -0.132203,0.213914 0.04155,0.353197 0.440601,0.353197 0.393,0 0.658885,-0.2084 0.658885,-0.516432 0,-1.190371 1.390105,-2.985712 2.746018,-3.546525 1.030224,-0.426102 1.299063,-0.679955 1.111512,-1.049542 -0.381742,-0.752266 -0.650296,-2.468067 -0.422026,-2.696339 0.239275,-0.239274 1.406394,2.68216 1.203002,3.011257 -0.07565,0.122407 0.469736,0.402141 1.211973,0.621632 0.742237,0.219495 1.601521,0.623194 1.909521,0.897111 0.74554,0.66304 0.74554,2.856579 0,3.7079 -0.538282,0.61466 -0.53518,0.630093 0.08,0.397975 0.352,-0.132816 1.108,-0.320077 1.68,-0.416131 0.572,-0.09605 1.040322,-0.263805 1.040715,-0.372775 3.84e-4,-0.108973 0.849313,-0.213587 1.886488,-0.232477 1.431353,-0.02608 2.144459,-0.217171 2.959285,-0.79304 2.67723,-1.892105 3.605547,-3.496105 3.407253,-5.887264 -0.338595,-4.083036 -4.464514,-5.800649 -7.983139,-3.323366 -0.993382,0.699386 -1.268444,0.750826 -1.05888,0.198016 0.194657,-0.513485 -2.220137,-1.52 -3.646723,-1.52 -2.48492,0 -5.579098,2.466426 -5.959829,4.750688 -0.148134,0.888755 -0.104276,1.518208 0.121518,1.744 0.558177,0.558176 0.445869,1.609302 -0.147613,1.381562 -0.379359,-0.145575 -0.453859,-0.04393 -0.306983,0.418835 0.106668,0.33608 0.03501,0.70928 -0.15924,0.829331 C 13.278405,53.577642 12.16,52.528637 12.16,51.790403 12.16,51.465683 12.007501,51.2 11.821115,51.2 11.634728,51.2 11.571226,51.056 11.68,50.88 11.788774,50.704 11.725272,50.56 11.538885,50.56 11.352499,50.56 11.2,50.704 11.2,50.88 c 0,0.176 -0.185143,0.32 -0.411428,0.32 -0.226286,0 -0.411429,-0.271638 -0.411429,-0.603645 0,-0.402873 0.163447,-0.547408 0.491429,-0.434566 0.425345,0.146336 0.422469,0.09554 -0.02139,-0.377747 C 10.565132,49.48329 10.133132,49.196595 9.8871827,49.146944 9.641233,49.09729 9.1776064,48.94352 8.8569018,48.805232 8.4609523,48.634499 7.973097,48.776112 7.3369018,49.24648 6.3031232,50.010784 6.1331379,49.803405 6.8981466,48.711203 7.491433,47.864166 8.4682218,47.80841 10.246802,48.520058 c 0.714863,0.286032 1.363822,0.455987 1.442132,0.377676 0.07831,-0.07831 0.180335,-0.672048 0.226724,-1.319417 0.04639,-0.647367 0.185587,-1.177322 0.30933,-1.177677 0.123742,-3.2e-4 0.474363,-0.54064 0.779157,-1.20064 0.304795,-0.66 0.95955,-1.673011 1.455014,-2.251136 0.495463,-0.578122 0.898637,-1.154122 0.895942,-1.28 C 15.330493,40.51953 13.394,40.157296 12.634705,41.16 c -0.531198,0.701485 -0.623037,0.355088 -0.143445,-0.541037 0.429004,-0.801603 1.766384,-0.800934 3.082446,0.0016 1.252931,0.763978 1.294399,0.671383 1.302464,-2.908285 0.0071,-3.146563 0.164732,-3.594572 1.150762,-3.27038 0.381188,0.125331 0.948182,0.2119 1.259985,0.192384 0.311804,-0.01952 0.482585,0.100963 0.379514,0.267737 -0.103071,0.166771 0.488429,0.592919 1.314446,0.946989 0.826016,0.354074 1.914698,0.991158 2.419293,1.415747 0.826425,0.695392 0.868513,0.820909 0.424237,1.265187 -0.271264,0.271264 -1.037398,0.639741 -1.702519,0.818839 -1.466723,0.394947 -4.070123,1.800521 -5.3602,2.893968 -1.252709,1.061776 -3.410183,4.587593 -3.261541,5.330121 0.09717,0.485408 0.217629,0.419466 0.694932,-0.380419 0.317563,-0.532185 1.393582,-1.540185 2.391154,-2.24 1.638625,-1.149523 2.004306,-1.27239 3.786959,-1.27239 1.551141,0 2.183923,0.155801 2.95842,0.728413 0.908382,0.671596 1.043234,0.690406 1.728872,0.241158 1.051874,-0.689216 3.635784,-1.114646 4.778846,-0.786819 0.527558,0.151299 1.337528,0.529773 1.799934,0.841046 0.462404,0.311271 1.200737,0.59753 1.640737,0.636125 0.44,0.0386 0.997565,0.364902 1.239031,0.725126 0.351468,0.524324 0.782272,0.654951 2.16,0.654951 0.946534,0 1.720969,-0.144 1.720969,-0.32 0,-0.176 -0.792,-0.32 -1.76,-0.32 -2.317933,0 -2.276054,-0.580711 0.05077,-0.704032 1.47273,-0.07805 1.826682,-0.205984 1.895991,-0.68529 0.127136,-0.879232 0.232544,-0.918969 2.700678,-1.018118 1.253002,-0.05034 2.341978,-0.155312 2.419949,-0.23328 0.21465,-0.214653 0.220035,-5.058522 0.0059,-5.272695 -0.102701,-0.1027 -0.764195,0.07367 -1.469987,0.391943 -1.207869,0.544672 -1.283264,0.659197 -1.283264,1.949238 0,1.685399 -0.508199,3.111853 -1.041968,2.924679 -0.220483,-0.07732 -0.363514,-0.552826 -0.32065,-1.06601 C 39.674765,41.44 39.674765,41.44 39.158352,42.16 38.589309,42.953376 37.76,43.125229 37.76,42.449773 c 0,-0.236624 0.359824,-0.848624 0.79961,-1.36 0.439785,-0.511376 0.799785,-1.152973 0.8,-1.425773 2.14e-4,-0.2728 0.174377,-0.669987 0.387027,-0.882637 0.583811,-0.583811 -2.260762,-0.225481 -3.714941,0.467968 -1.01793,0.485415 -1.345757,0.505037 -2.520893,0.150883 -4.377889,-1.319369 -4.843781,-1.397651 -6.305932,-1.059545 -0.841201,0.194518 -1.566217,0.215529 -1.735309,0.05029 C 25.070591,38.001062 25.84945,37.12 26.593086,37.12 c 0.690151,0 0.853992,-0.57697 1.00308,-3.532368 0.08354,-1.6561 0.303454,-2.404282 1.054693,-3.588316 0.522028,-0.822772 1.111509,-1.501206 1.309959,-1.507632 C 30.159268,28.485258 30.5009,28.264 30.72,28 c 0.565269,-0.681108 2.037162,-0.594526 2.72,0.16 0.356954,0.39443 0.98559,0.64 1.638336,0.64 0.750362,0 1.164595,0.197035 1.420845,0.675839 0.368288,0.688154 0.481766,3.572497 0.160973,4.09155 -0.262215,0.424275 0.721635,0.704499 1.352496,0.385222 0.301043,-0.152355 1.233635,-0.438077 2.072425,-0.634937 1.292378,-0.303319 1.706784,-0.272372 2.715991,0.202828 0.660294,0.310909 1.389094,0.974247 1.635705,1.488784 0.573079,1.19569 0.867997,7.329584 0.428429,8.910714 -0.183485,0.66 -0.220554,1.2 -0.08237,1.2 0.495747,0 -0.613466,3.98759 -1.63642,5.882886 -0.426515,0.79024 0.184762,1.212183 1.555066,1.073402 1.396208,-0.141402 1.845859,0.746822 1.614042,3.188326 -0.09689,1.020461 -0.276925,2.107386 -0.400077,2.415386 -0.181683,0.45439 -0.0515,0.560925 0.690326,0.564899 0.502832,0.0026 1.07792,0.110695 1.277975,0.24 0.45238,0.292394 0.333936,2.722544 -0.1404,2.880656 -0.191063,0.06369 -0.260532,0.35849 -0.154375,0.65512 0.106154,0.296627 0.07375,0.431011 -0.07201,0.298627 C 47.172067,62.006061 46.08,62.9968 46.08,63.622928 c 0,0.266058 -0.08914,0.394595 -0.198096,0.285645 -0.10895,-0.108954 -0.416832,0.02064 -0.684179,0.28799 -0.416768,0.416765 -0.426848,0.665584 -0.07069,1.744762 0.478333,1.44936 0.869069,1.545965 2.128409,0.526217 0.497504,-0.402851 1.308672,-0.907462 1.802599,-1.12136 0.544701,-0.235888 0.808537,-0.533728 0.670557,-0.756985 -0.13768,-0.222771 -0.08678,-0.281117 0.128937,-0.147799 0.341722,0.211194 0.598519,0.128202 2.236109,-0.722672 7.042198,-3.659052 7.948224,-3.976236 9.690144,-3.392374 1.020784,0.34215 1.103021,0.472682 1.195238,1.897158 0.09372,1.447783 0.02147,1.604042 -1.348672,2.916871 -0.798134,0.764749 -2.0271,1.560733 -2.739027,1.774032 C 58.181098,67.127203 57.6,67.422512 57.6,67.570653 57.6,67.718794 57.216,67.84 56.746666,67.84 c -0.469332,0 -0.753181,0.10015 -0.630775,0.22256 0.12241,0.122406 -0.39359,0.398253 -1.146665,0.612989 -1.751517,0.499443 -4.298535,1.36127 -5.529226,1.870905 -0.528,0.218647 -1.464,0.59306 -2.08,0.832029 -0.616,0.23897 -1.310285,0.62057 -1.542858,0.848003 -0.232569,0.227434 -0.700569,0.431514 -1.04,0.453514 -0.339427,0.02198 -0.854044,0.058 -1.14359,0.08 -0.60559,0.04601 -2.907578,2.159734 -2.744451,2.52 0.05977,0.132 -0.09271,0.24 -0.338851,0.24 -0.7673,0 -1.153578,1.349002 -0.831386,2.90345 0.161485,0.779104 0.376998,1.84855 0.478915,2.37655 0.10192,0.528 0.286839,1.032 0.410931,1.12 0.433604,0.307485 1.076077,3.379616 1.204583,5.76 0.107917,1.998938 0.0215,2.573792 -0.517159,3.44 -0.355699,0.572 -0.839744,1.04 -1.075651,1.04 -0.235907,0 -0.762957,0.355562 -1.171219,0.790138 -0.408262,0.434576 -0.862387,0.715916 -1.009165,0.625203 -0.146781,-0.09072 -0.552765,-0.01194 -0.902189,0.175075 -0.583593,0.312326 -1.368105,0.433683 -4.97791,0.770029 -0.704,0.0656 -2.576,-0.0496 -4.16,-0.256 z M 47.379795,70.12105 C 48.170371,69.845453 48.32,69.62089 48.32,68.709981 48.32,68.114157 48.231494,67.53816 48.123322,67.429987 47.890781,67.19745 46.509933,68.02393 45.588445,68.94719 45.050218,69.486454 44.16,71.077734 44.16,71.50056 c 0,0.06075 0.512909,-0.151046 1.139795,-0.470653 0.62689,-0.319606 1.56289,-0.728592 2.08,-0.908857 z m 2.438653,-2.142039 c -0.175504,-1.302333 -0.352874,-1.571475 -0.838022,-1.271635 -0.228282,0.141085 -0.239114,0.404 -0.03255,0.789971 0.170285,0.318176 0.228253,0.659856 0.128823,0.75929 -0.245015,0.245014 0.162003,0.863363 0.568294,0.863363 0.190528,0 0.262989,-0.476634 0.173455,-1.140989 z M 52.16,68.149722 C 52.16,67.306992 51.183037,65.6 50.700717,65.6 c -0.441184,0 -0.493613,0.204323 -0.30728,1.197562 0.123568,0.658662 0.292089,1.306662 0.374499,1.44 C 50.993466,68.60248 52.16,68.52887 52.16,68.149722 Z m 2.82192,-0.802119 C 56.294461,66.957821 56.64,66.715616 56.64,66.185373 56.64,65.455674 55.463763,63.36 55.054205,63.36 54.719661,63.36 51.84,64.972746 51.84,65.160106 c 0,0.215059 1.277005,2.679894 1.388422,2.679894 0.05248,0 0.841552,-0.221578 1.753498,-0.492397 z M 58.24,65.800304 c 0,-0.71599 -1.631094,-3.418858 -1.945798,-3.224358 -0.159194,0.09838 -0.0026,0.741308 0.348179,1.42872 0.350691,0.687411 0.637619,1.471574 0.637619,1.742585 0,0.271011 0.216,0.492749 0.48,0.492749 0.264,0 0.48,-0.197862 0.48,-0.439696 z m 2.449795,-1.016589 c 1.903447,-1.45183 1.183002,-3.581443 -1.09983,-3.251075 -1.559623,0.225706 -2.026909,0.563987 -1.803015,1.305254 0.255184,0.844871 1.399751,2.762106 1.648944,2.762106 0.101034,0 0.665287,-0.367328 1.253901,-0.816285 z m -15.811814,-1.65464 c 1.204435,-0.919705 2.447366,-2.790397 2.090867,-3.146893 -0.434442,-0.434441 -2.22423,0.27864 -2.860947,1.139847 -0.878467,1.188192 -1.750416,0.971565 -1.109325,-0.275597 1.653869,-3.217402 2.417078,-5.85441 2.00511,-6.927978 -0.155363,-0.404867 -0.326281,-0.43536 -0.854796,-0.152508 -0.694538,0.371705 -0.790416,0.554051 -1.971418,3.749356 -0.517562,1.40032 -0.904461,1.996704 -1.297472,2 -0.691149,0.0058 -0.692208,0.04381 0.0514,-1.842739 1.409892,-3.576925 0.636724,-5.188256 -1.24383,-2.592227 -0.542182,0.748464 -1.064515,1.729578 -1.160736,2.180253 -0.09622,0.450675 -0.452118,1.343017 -0.79089,1.982979 -0.601302,1.135917 -0.900624,4.650147 -0.368035,4.320989 0.136349,-0.08427 0.748349,-0.04566 1.36,0.08579 0.611651,0.131456 1.983664,0.26799 3.048922,0.303405 1.679737,0.05585 2.091379,-0.05362 3.101152,-0.824682 z M 34.067664,61.553216 c 0.12039,-0.641731 0.440976,-1.505731 0.712416,-1.92 0.694682,-1.060214 0.08887,-0.906627 -0.782877,0.19848 C 33.057034,61.023539 32.685344,62.72 33.364387,62.72 c 0.30393,0 0.565933,-0.434682 0.703277,-1.166784 z M 32.32,62.076512 c 0,-0.177917 0.310304,-0.983632 0.689568,-1.79048 0.726902,-1.546416 0.55105,-2.029251 -0.743395,-2.041133 -0.293606,-0.0026 -0.749185,-0.08754 -1.012398,-0.188544 C 30.671683,57.832986 29.12,59.975421 29.12,61.002496 c 0,0.531878 0.28023,0.768355 1.2,1.012643 1.6219,0.430771 2,0.442375 2,0.06137 z m -3.309456,-2.417005 c 0.843087,-1.841545 0.795892,-2.443017 -0.145892,-1.859289 -0.704811,0.436851 -1.754634,2.623731 -1.534689,3.196896 0.329204,0.857891 0.873942,0.424323 1.680581,-1.337607 z m -1.931993,-0.304973 c 0.599423,-1.549929 0.618081,-1.753347 0.16,-1.744358 -1.217998,0.0239 -2.61306,2.241187 -1.928827,3.065638 0.652918,0.78672 1.075719,0.470893 1.768827,-1.32128 z M 15.607636,59.170928 c 0.722046,-0.450925 0.928101,-1.079824 0.450508,-1.374992 -0.144021,-0.08901 -1.03223,0.195082 -1.973797,0.631315 -0.996651,0.461757 -1.830606,0.67449 -1.995947,0.509149 -0.165342,-0.165341 0.114936,-0.449254 0.670803,-0.679501 C 14.107667,57.698346 14.319217,56.96 13.130789,56.96 c -2.083903,0 -3.6632229,1.428765 -2.783265,2.517942 0.45164,0.559021 4.226131,0.338717 5.260112,-0.307014 z m 22.302982,-3.071642 c 1.098483,-2.102156 2.861462,-3.998307 3.596995,-3.8687 0.306726,0.05404 0.536832,-0.163741 0.581734,-0.550586 0.04086,-0.352 0.178579,-1.23143 0.306058,-1.954288 0.231773,-1.314285 0.231773,-1.314285 -1.146183,-1.28 -1.336307,0.03325 -1.393721,0.07832 -1.899689,1.491322 -0.66824,1.86616 -1.960403,4.456633 -2.340074,4.691283 -0.161552,0.09985 -0.425926,-0.05468 -0.587497,-0.343389 C 36.253194,53.983354 35.72649,53.76 35.184099,53.76 34.664845,53.76 34.24,53.616 34.24,53.44 c 0,-0.176 0.576,-0.32 1.28,-0.32 0.947325,0 1.28,-0.129981 1.28,-0.500115 0,-0.284666 -0.241245,-0.475575 -0.56,-0.443149 -1.178634,0.119891 -2,-0.03024 -2,-0.365558 0,-0.217824 0.566541,-0.307956 1.508573,-0.24 1.340966,0.09673 1.553763,0.01994 1.915283,-0.691178 0.631235,-1.241645 0.536554,-2.56 -0.183856,-2.56 -2.058218,0 -2.474496,0.312886 -3.125981,2.349568 C 34.00736,51.753306 33.537485,52.64 33.309853,52.64 c -0.227632,0 -0.991811,0.549776 -1.698179,1.221728 -0.706366,0.671949 -1.643612,1.358336 -2.082768,1.525302 -0.660567,0.251146 -0.730428,0.385559 -0.404505,0.778272 0.21668,0.261085 0.844331,0.482951 1.394781,0.49304 0.55045,0.01008 2.152818,0.285562 3.560818,0.61217 1.408,0.326605 2.632,0.60601 2.72,0.620896 0.088,0.01488 0.587779,-0.791565 1.110618,-1.792122 z M 19.04,54.4 c 0,-0.307635 -0.373455,-0.516006 -1.04,-0.580275 -0.750041,-0.07232 -1.04,0.03178 -1.04,0.373334 0,0.260483 0.18,0.548903 0.4,0.640931 0.723057,0.302461 1.68,0.05526 1.68,-0.43399 z m -5.699416,-5.36 c -0.08049,-0.308 -0.146343,-0.056 -0.146343,0.56 0,0.616 0.06585,0.868 0.146343,0.56 0.08049,-0.308 0.08049,-0.812 0,-1.12 z M 33.942442,46.939027 C 33.76281,46.466563 33.481757,46.08 33.317878,46.08 c -0.352243,0 -0.08667,1.212077 0.320749,1.463872 0.154755,0.09564 0.300983,0.489402 0.324951,0.875014 0.04156,0.668612 0.04965,0.670474 0.174521,0.04014 0.07202,-0.363536 -0.01603,-1.047536 -0.195657,-1.52 z M 37.92,47.68 c 0.120656,-0.195226 -0.363715,-0.32 -1.24223,-0.32 -0.792,0 -1.528996,0.144 -1.63777,0.32 -0.120656,0.195226 0.363715,0.32 1.24223,0.32 0.792,0 1.528996,-0.144 1.63777,-0.32 z m 4.88,-0.161066 c 0.22,-0.07636 0.4,-0.359366 0.4,-0.628892 C 43.2,46.533363 42.858774,46.4 41.946173,46.4 40.307181,46.4 39.68,46.661878 39.68,47.346237 c 0,0.462169 0.233088,0.536665 1.36,0.434656 0.748,-0.06771 1.54,-0.185591 1.76,-0.261959 z m 0.667942,-2.682332 c 0.104224,-0.737085 0.05065,-0.757895 -1.554108,-0.603696 -1.492816,0.14344 -2.214816,0.565529 -2.228935,1.303062 -0.0026,0.140784 0.823101,0.212784 1.835101,0.16 1.662995,-0.08674 1.850384,-0.169405 1.947942,-0.859366 z M 19.283487,39.397878 C 20.029569,39.066714 21.144,38.611635 21.76,38.386592 c 1.429308,-0.522166 1.755675,-0.812608 1.25844,-1.119917 -0.256122,-0.158291 -0.316181,-0.114265 -0.168997,0.123882 0.153054,0.247648 -0.08564,0.369443 -0.724028,0.369443 -1.153722,0 -3.570406,0.994861 -4.16913,1.716278 -0.558147,0.672528 -0.334834,0.659335 1.327202,-0.0784 z M 36.269376,38.02489 c 0.995299,-0.652436 2.642816,-2.739364 2.374445,-3.007735 -0.06708,-0.06708 -0.890679,0.170119 -1.830218,0.527114 -2.071187,0.786992 -2.489945,0.520822 -1.795491,-1.141239 0.556352,-1.331536 0.651843,-3.270461 0.196525,-3.990306 -0.252147,-0.398632 -0.403744,-0.375127 -1.031968,0.16 -1.035146,0.88175 -1.64777,1.731612 -2.044714,2.836537 -0.188126,0.523657 -0.494384,1.002883 -0.680575,1.064947 -0.716926,0.238973 -0.670256,-0.90513 0.09568,-2.345664 0.808047,-1.519726 0.917583,-3.017308 0.237022,-3.240504 -0.203453,-0.06672 -0.851453,0.301633 -1.44,0.818572 -1.263608,1.109867 -2.028583,3.339964 -1.780399,5.190316 0.125883,0.938525 0.04182,1.336758 -0.325595,1.542371 -0.337091,0.188647 0.112557,0.321149 1.407736,0.414835 1.191749,0.0862 2.494535,0.443648 3.4856,0.956346 2.012855,1.041283 1.883997,1.032464 3.131949,0.21441 z M 19.883261,37.612525 C 20.475468,37.355414 20.744,37.14591 20.48,37.14696 c -0.591333,0.0022 -2.541675,0.870925 -2.036739,0.90705 0.199793,0.0143 0.847793,-0.184375 1.44,-0.441485 z m 23.110541,0.16504 c 0.622854,-0.23681 0.756224,-0.462487 0.614614,-1.04 -0.3088,-1.259363 -0.706262,-1.571939 -1.475414,-1.160301 -1.270276,0.67983 -1.544039,1.134746 -0.799975,1.329322 0.445603,0.116528 0.605933,0.342438 0.478579,0.674323 -0.220592,0.574851 0.06327,0.62207 1.182196,0.196656 z M 40.88,35.820051 C 42.126218,34.65473 42.145776,34.56 41.140154,34.56 c -0.706372,0 -3.049767,2.010726 -3.05738,2.623354 -0.0056,0.453801 1.789757,-0.421232 2.797226,-1.363303 z m -21.36,0.857271 c 0,-0.06747 -0.288,-0.197991 -0.64,-0.290042 -0.352,-0.09205 -0.64,-0.03684 -0.64,0.122678 0,0.159524 0.288,0.290042 0.64,0.290042 0.352,0 0.64,-0.05521 0.64,-0.122678 z M 138.56029,91.12 c -1.6e-4,-0.132 -0.39629,-0.241101 -0.88029,-0.242445 -1.19988,-0.0033 -4.23988,-0.977485 -7.05784,-2.261648 -2.33784,-1.065369 -2.33784,-1.065369 -2.24847,-3.055318 0.0491,-1.094471 0.18481,-1.930963 0.30146,-1.858867 0.11665,0.07209 0.29639,-0.1913 0.39943,-0.585322 0.22991,-0.879158 0.26369,-0.956368 0.5934,-1.3564 0.51913,-0.629843 2.16049,-3.203818 2.1662,-3.397037 0.003,-0.108368 0.79782,-1.021315 1.76582,-2.028768 2.31624,-2.410637 2.39786,-3.322624 0.19921,-2.225792 -1.39418,0.695507 -5.47587,1.386931 -8.26721,1.400432 -2.17738,0.01053 -5.45578,-0.834685 -6.316,-1.628352 C 119.0488,73.726218 118.6528,73.6 118.336,73.6 c -0.3168,0 -0.55005,-0.108 -0.51835,-0.24 0.0317,-0.132 -0.2104,-0.778826 -0.53802,-1.437392 -0.58932,-1.184602 -0.58813,-1.212499 0.1106,-2.611571 0.87899,-1.760003 1.91531,-2.190512 4.32781,-1.797866 2.12478,0.345818 4.41612,0.948586 4.84196,1.273747 0.3095,0.23632 4.54199,1.568928 5.68,1.788356 0.67414,0.129987 0.73042,-0.275469 0.10974,-0.790596 -0.75313,-0.62504 -0.97708,-3.937452 -0.35487,-5.248681 0.56077,-1.181712 2.72949,-3.324336 4.30963,-4.257744 0.51738,-0.305626 0.86803,-0.673261 0.77921,-0.816967 C 136.9949,59.317578 137.49856,59.2 138.20297,59.2 c 0.91662,0 1.40778,-0.181376 1.72759,-0.637965 0.24576,-0.35088 0.50593,-0.601305 0.57814,-0.556499 0.0722,0.0448 -0.46766,-0.505526 -1.19972,-1.222954 -1.44576,-1.41686 -2.34898,-3.20935 -2.34898,-4.66166 0,-0.605264 -0.16453,-0.920922 -0.48,-0.920922 -0.62025,0 -1.76,1.139754 -1.76,1.76 0,0.264 -0.15961,0.48 -0.35469,0.48 -0.22708,0 -0.27529,-0.316368 -0.13399,-0.879344 0.12139,-0.483638 0.245,-0.890915 0.27469,-0.905059 0.73137,-0.348336 2.39995,-1.884147 2.27199,-2.0912 -0.33026,-0.534355 -2.24475,-0.296106 -2.95766,0.36807 -0.38519,0.358855 -0.70034,0.511021 -0.70034,0.338144 0,-0.595056 1.42466,-1.310611 2.60941,-1.310611 0.94497,0 1.32195,-0.189507 1.8488,-0.929398 0.36399,-0.511168 0.66179,-1.067751 0.66179,-1.236845 0,-0.169098 0.29331,-0.680327 0.65179,-1.136064 0.76131,-0.967843 0.47415,-1.71265 -0.99486,-2.580416 -1.12709,-0.665789 -1.85224,-0.654045 -2.6383,0.04272 -0.61303,0.543402 -0.62056,0.538659 -0.25394,-0.16 0.51177,-0.975245 2.10613,-0.951456 3.58503,0.05349 0.62607,0.425418 1.28413,0.677418 1.46236,0.56 0.40313,-0.265584 0.76263,-1.606617 0.47788,-1.782653 -0.11548,-0.07139 -0.20996,-1.115532 -0.20996,-2.32032 0,-2.190518 0,-2.190518 1.16933,-2.190518 0.64313,0 1.1124,0.09219 1.04282,0.204877 -0.17335,0.280736 2.04897,1.309283 2.38293,1.102883 0.1474,-0.09109 0.59193,0.136163 0.98785,0.505018 0.80828,0.75303 0.47173,1.213411 -0.89356,1.222323 -0.90566,0.0059 -2.52099,0.913017 -2.76687,1.553766 -0.29507,0.768941 0.0757,0.801959 0.9838,0.08761 0.47301,-0.372064 0.99155,-0.67648 1.15231,-0.67648 0.16077,0 0.8884,-0.288 1.61695,-0.64 0.72856,-0.352 1.62696,-0.64 1.99645,-0.64 0.44547,0 0.68826,-0.218618 0.72068,-0.648922 0.20685,-2.746073 2.6593,-4.791078 5.74565,-4.791078 1.54934,0 1.83986,0.111811 2.6797,1.031315 0.9868,1.080416 1.20992,2.350077 0.60996,3.471114 -0.27647,0.516576 -0.19617,0.682246 0.48,0.990326 1.17613,0.535885 1.00512,1.014701 -0.27654,0.774259 -0.70612,-0.13247 -1.24013,-0.05866 -1.52,0.21008 -0.2373,0.22786 -0.79146,0.575415 -1.23146,0.772343 -0.8,0.358051 -0.8,0.358051 0.16,0.580317 2.62205,0.607078 4.36726,1.456137 5.86804,2.854844 2.89451,2.697648 3.75648,7.746119 1.73312,10.15074 -0.90104,1.070832 -3.11703,2.176579 -4.50769,2.24928 -0.46941,0.02454 0.44253,0.15847 2.02653,0.297622 1.584,0.139149 3.24,0.323411 3.68,0.409472 0.7002,0.13695 0.8998,-0.04769 1.6,-1.480051 0.44,-0.900083 0.8515,-1.762935 0.91445,-1.91744 0.063,-0.154506 -0.58505,0.370857 -1.44,1.167478 -1.3858,1.291258 -2.83719,2.062224 -3.19974,1.699677 -0.2673,-0.267299 0.28507,-1.163568 0.82217,-1.334035 0.76586,-0.243075 3.15971,-2.406781 2.66312,-2.407091 -0.66875,-3.2e-4 -0.44681,-0.550788 0.32,-0.79353 0.70962,-0.22464 0.70732,-0.232986 -0.16,-0.579094 -0.484,-0.193146 -0.88,-0.475872 -0.88,-0.628285 0,-0.152413 0.14529,-0.187319 0.32286,-0.07757 0.41673,0.257552 1.59714,-0.114452 1.59714,-0.503335 0,-0.164137 -0.504,-0.298435 -1.12,-0.298435 -1.41157,0 -1.47618,-0.565107 -0.08,-0.699725 0.94994,-0.09159 1.03024,-0.183405 0.92724,-1.060275 -0.12638,-1.07591 -0.5108,-1.42791 -1.56724,-1.435101 -0.396,-0.0027 -0.72,-0.148899 -0.72,-0.324899 0,-0.176 -0.216,-0.32 -0.48,-0.32 -0.264,0 -0.48,-0.207309 -0.48,-0.460682 0,-0.296697 0.42716,-0.505366 1.2,-0.586208 1.2,-0.125523 1.2,-0.125523 0,-0.179318 -1.30071,-0.05831 -1.69452,-0.693792 -0.42995,-0.693792 0.72511,0 0.75091,-0.06235 0.44215,-1.06839 -0.27387,-0.892352 -0.45348,-1.044384 -1.09005,-0.922695 -0.92172,0.176199 -0.92153,0.17913 -0.12215,-1.848915 0.352,-0.89303 0.64,-1.690362 0.64,-1.771846 0,-0.345069 -1.07639,-0.101783 -2.29082,0.517772 -1.28601,0.656071 -2.22036,0.481181 -1.72359,-0.322617 0.44693,-0.723152 2.90884,-1.699815 4.69246,-1.861549 1.76493,-0.160038 1.83664,-0.137613 1.66454,0.520486 -0.0989,0.37825 -0.30646,0.765981 -0.46122,0.861626 -0.15475,0.09564 -0.28137,0.461898 -0.28137,0.813898 0,0.352 0.114,0.569545 0.25333,0.483436 0.13933,-0.08611 0.27777,0.570183 0.30765,1.458432 0.0299,0.88825 0.25032,1.922208 0.48988,2.29768 0.7531,1.180362 1.87416,5.153101 1.73225,6.138615 -0.18364,1.275315 0.27874,2.064067 1.21,2.064067 0.42383,0 0.96916,0.283491 1.21185,0.629978 0.4072,0.581353 0.49611,0.591558 1.15189,0.132227 0.56253,-0.39401 0.80782,-0.417101 1.1769,-0.110797 0.25644,0.212826 0.46591,0.549325 0.4655,0.747773 -6.4e-4,0.247702 0.85478,0.328294 2.72818,0.257075 2.47292,-0.09401 2.77634,-0.176102 3.23429,-0.875021 0.27795,-0.424205 0.52627,-1.119702 0.55182,-1.545552 0.0255,-0.425846 0.15446,-0.70759 0.28646,-0.626089 0.132,0.0815 0.24,-0.01962 0.24,-0.22466 0,-0.676646 1.96205,-2.864934 2.56875,-2.864934 0.32722,0 0.82625,0.324 1.10894,0.72 0.47999,0.672384 0.54148,0.683296 0.92979,0.164973 0.22869,-0.305264 0.50956,-0.461264 0.62416,-0.346666 0.1146,0.114599 0.20836,0.04036 0.20836,-0.164973 0,-0.551702 0.79012,-0.453478 1.59501,0.198279 0.68519,0.554835 1.4713,3.268387 0.94684,3.268387 -0.13872,0 -0.41056,0.479776 -0.60408,1.066166 -0.19353,0.586394 -0.6367,1.624842 -0.98482,2.307661 -0.34812,0.682823 -0.63295,1.427047 -0.63295,1.653834 0,0.226787 -0.216,0.412339 -0.48,0.412339 -0.68913,0 -0.59509,-0.886429 0.33753,-3.181616 0.88566,-2.179613 0.93729,-3.953616 0.11957,-4.10823 -0.55276,-0.104516 -1.08789,0.843491 -2.26347,4.009846 -0.4084,1.1 -0.93065,2 -1.16056,2 -0.27258,0 -0.19102,0.243638 0.23446,0.700339 0.35886,0.385187 0.65247,0.898653 0.65247,1.141037 0,0.562678 -0.63265,1.771642 -1.07864,2.061226 -0.18855,0.122428 -0.26705,0.298374 -0.17444,0.390985 0.0926,0.09261 0.90877,-0.330217 1.81369,-0.939622 1.12682,-0.758845 1.71714,-0.991776 1.87326,-0.739162 0.12969,0.209834 -0.10439,0.620989 -0.54295,0.953715 -0.42401,0.321677 -1.05892,0.867476 -1.41092,1.212887 -1.10196,1.081334 -2.88335,1.618851 -5.34972,1.614227 -2.9906,-0.0056 -3.77028,-0.219485 -3.77028,-1.03423 0,-0.61426 0.1328,-0.633562 2.88,-0.418653 2.31845,0.181369 2.88,0.140889 2.88,-0.20761 0,-0.238096 0.288,-0.679497 0.64,-0.980889 0.74403,-0.637063 0.832,-1.596535 0.19486,-2.125316 -0.35125,-0.29152 -0.64976,-0.164806 -1.41538,0.600816 -1.04927,1.049271 -1.65948,1.238106 -1.65948,0.513546 0,-0.598221 2.22395,-2.423296 2.95291,-2.423296 0.33009,0 0.56709,-0.237709 0.56709,-0.568797 0,-0.312841 0.23047,-0.897843 0.51216,-1.300009 0.65646,-0.937232 0.99805,-4.351143 0.46814,-4.678647 -0.67752,-0.418729 -1.53761,0.774787 -1.97316,2.738077 -0.57258,2.580925 -1.22665,3.24481 -3.06643,3.1124 -1.41148,-0.101587 -1.43774,-0.08516 -1.88127,1.176976 -0.24739,0.704 -0.45197,1.748 -0.45462,2.32 -0.003,0.572 -0.13912,1.04 -0.30326,1.04 -0.61205,0 -0.69181,-1.343789 -0.17255,-2.907123 0.29491,-0.887888 0.45574,-1.6948 0.35739,-1.793139 -0.43925,-0.439252 -1.16298,0.299158 -1.49245,1.522729 -0.44242,1.643008 -0.44687,2.047923 -0.0399,3.629981 0.32219,1.252448 0.32219,1.252448 -1.99633,3.541062 -2.31851,2.288612 -2.31851,2.288612 -4.35581,2.267552 -2.0373,-0.02106 -2.0373,-0.02106 -2.15972,1.039303 -0.19566,1.694877 -1.18132,3.659139 -2.55199,5.085734 -1.45273,1.512003 -3.18265,2.650957 -4.02911,2.652704 -0.31838,6.4e-4 -0.49921,0.130109 -0.40183,0.287667 0.0974,0.157556 -0.0381,0.369037 -0.30112,0.469956 -0.26299,0.100918 -0.47816,0.548006 -0.47816,0.993532 0,0.445524 -0.14126,0.810042 -0.3139,0.810042 -0.17265,0 -0.41222,0.391722 -0.53238,0.87049 -0.12017,0.478771 -0.51319,1.369984 -0.87339,1.980473 -0.3602,0.610487 -0.48062,1.002269 -0.26762,0.870624 0.21301,-0.131648 0.38729,-0.10247 0.38729,0.06484 0,0.167309 0.35736,0.393888 0.79413,0.503511 0.89407,0.224397 2.90178,1.882899 3.395,2.804496 0.46885,0.876061 -0.26405,2.680998 -1.28386,3.161792 -1.11025,0.523433 -4.93125,0.661798 -6.90527,0.250048 -1.60402,-0.334573 -3.36,-1.592055 -3.36,-2.406138 0,-0.487158 0.83068,-0.568262 1.11463,-0.108825 0.17605,0.28486 1.03114,0.558246 3.46214,1.106912 0.83431,0.188297 0.87151,0.155187 0.53408,-0.475319 -0.58661,-1.096086 -0.0843,-1.110601 0.92812,-0.02682 0.51579,0.552157 1.19381,1.00392 1.5067,1.00392 0.78119,0 2.69433,-0.714633 2.69433,-1.006438 0,-0.570752 -1.57808,-1.960307 -3.2,-2.817715 -1.29674,-0.685508 -1.75331,-1.104842 -1.73459,-1.593127 0.0286,-0.745686 -0.0429,-0.767417 -2.26541,-0.688483 -1.18512,0.04209 -1.47554,-0.0289 -1.12,-0.273805 0.264,-0.181846 1.2275,-0.332838 2.14111,-0.335533 0.91362,-0.0026 1.75012,-0.148899 1.85889,-0.324899 0.12471,-0.201789 -0.63668,-0.32 -2.06111,-0.32 -1.2876,-3e-6 -2.25889,-0.137145 -2.25889,-0.318944 0,-0.184441 0.93379,-0.304726 2.21431,-0.285235 2.36468,0.03599 2.90569,-0.123142 2.90569,-0.85471 0,-0.360496 -0.52369,-0.461114 -2.4,-0.461114 -1.36958,0 -2.4,-0.135936 -2.4,-0.316618 0,-0.188678 0.76103,-0.260553 1.88334,-0.177872 2.90887,0.214304 3.63367,-0.09133 4.02629,-1.697824 0.1817,-0.743497 0.54637,-1.488182 0.81037,-1.654851 0.41705,-0.263289 0.41169,-0.303677 -0.0408,-0.307936 -0.28645,-0.0026 -0.7076,-0.229955 -0.93588,-0.505021 -0.36044,-0.434307 -0.31296,-0.479072 0.36082,-0.340153 2.33637,0.481712 3.41325,0.489942 4.00145,0.03059 0.55928,-0.436781 0.44211,-0.462711 -1.30557,-0.288919 -1.05774,0.105181 -2.27927,0.04458 -2.72,-0.134947 -0.63126,-0.257142 -0.18057,-0.330153 2.13677,-0.346157 2.75896,-0.01907 2.97583,-0.06994 3.58179,-0.840278 0.81986,-1.042288 1.43788,-2.895014 1.18527,-3.553286 -0.16678,-0.434634 -0.65725,-0.479344 -3.44074,-0.313652 -3.11102,0.185191 -4.74257,0.05182 -4.74354,-0.38776 -2.5e-4,-0.112918 1.90775,-0.179715 4.24,-0.148432 4.66718,0.0626 3.97748,-0.333068 -1.1966,-0.68647 -1.58238,-0.10808 -3.02238,-0.343936 -3.2,-0.524125 -0.31672,-0.321289 2.07427,-0.239104 6.63705,0.228138 1.13618,0.116349 1.84,0.06632 1.84,-0.130778 0,-0.175558 -0.612,-0.392003 -1.36,-0.480989 -3.12052,-0.371225 -4.62191,-0.59782 -5.68,-0.857244 -0.616,-0.151034 -2.03041,-0.373383 -3.14313,-0.494112 -1.34552,-0.145984 -2.08459,-0.379664 -2.20663,-0.697696 -0.26335,-0.686272 0.44762,-1.0064 1.82485,-0.821674 1.19356,0.16009 1.19356,0.16009 1.36388,-1.23592 0.0937,-0.767802 0.26447,-1.624109 0.37954,-1.902902 0.15656,-0.379328 0.0245,-0.500128 -0.52465,-0.48 -0.5114,0.01875 -0.72039,-0.142861 -0.68942,-0.533104 0.072,-0.907204 -0.75548,-0.639904 -0.99063,0.32 -0.2768,1.129932 -1.50292,2.954976 -1.98714,2.957814 -0.20534,0.0013 -0.42586,0.159766 -0.49006,0.352365 -0.18399,0.551965 -2.78593,0.905405 -3.90614,0.530595 -2.04556,-0.684426 -2.55547,-1.761242 -2.12788,-4.493709 0.22601,-1.444304 0.18692,-1.570646 -0.67602,-2.185113 -1.29859,-0.924676 -2.24164,-2.999565 -2.23706,-4.921952 0.0105,-4.402192 4.36974,-8.772624 8.77049,-8.792973 1.61338,-0.0075 2.04903,-0.502058 0.73313,-0.832327 -0.43278,-0.10862 -0.93802,-0.379612 -1.12276,-0.602204 -0.26865,-0.323703 -0.67412,-0.293124 -2.02577,0.15279 -5.97778,1.972074 -9.1846,5.26887 -9.1846,9.442304 0,2.2944 0.68569,3.840851 2.36045,5.323574 1.09696,0.971175 1.12812,1.053165 0.61544,1.619664 -0.50931,0.562781 -0.50647,0.583834 0.0499,0.370317 0.50912,-0.195369 0.56063,-0.109568 0.37596,0.626231 -0.17886,0.71262 -0.10791,0.852614 0.4321,0.852614 0.35536,0 0.6461,0.151155 0.6461,0.335898 0,0.209376 -0.53719,0.27272 -1.42616,0.168169 -0.78439,-0.09225 -1.51289,-0.02739 -1.61889,0.144103 -0.11541,0.186745 0.45667,0.31183 1.42616,0.31183 0.89039,0 1.61889,0.144 1.61889,0.32 0,0.188579 -1.14993,0.322013 -2.8,0.324899 -1.54,0.0026 -3.016,0.14449 -3.28,0.315101 -0.32813,0.212051 0.63373,0.327098 3.04,0.363603 3.52,0.0534 3.52,0.0534 -0.36622,0.284487 -3.03783,0.18063 -4.06606,0.362156 -4.70995,0.831494 -1.53529,1.119085 -1.07459,1.291443 4.00965,1.500147 2.83707,0.116461 4.99745,0.345399 5.2,0.55105 0.25179,0.255641 -0.71246,0.290601 -3.52736,0.127881 -2.13063,-0.123161 -4.72263,-0.103225 -5.76,0.0443 -1.88612,0.268234 -1.88612,0.268234 0.19388,0.530307 1.144,0.144138 3.412,0.344519 5.04,0.44529 4.96467,0.307306 3.29446,0.742138 -2.08,0.541517 -5.28457,-0.197264 -6.52109,0.02541 -2.15539,0.388125 6.09217,0.506169 6.6309,0.705622 2.02535,0.74984 -4.06323,0.03901 -4.35931,0.083 -4.2172,0.626432 0.22941,0.877267 1.7911,1.65382 3.35661,1.669084 0.76485,0.0075 2.18263,0.221965 3.15063,0.476685 1.76,0.463127 1.76,0.463127 -1.6,0.281776 -3.03374,-0.163741 -3.31303,-0.133097 -2.8763,0.315584 0.32468,0.333568 1.40483,0.567738 3.28568,0.712311 3.19176,0.245337 3.47945,0.496659 0.55252,0.482659 -1.68653,-0.0081 -1.91696,0.05781 -1.58815,0.453997 0.21154,0.254886 0.87098,0.46343 1.46543,0.46343 1.7744,0 1.22382,0.535824 -0.75918,0.738826 -1.53964,0.157616 -1.98892,0.35447 -2.75227,1.205936 -1.00993,1.126496 -0.78474,1.561244 0.81338,1.570339 0.47362,0.0026 0.95012,0.148899 1.05889,0.324899 0.12269,0.198518 -0.47038,0.32 -1.56223,0.32 -2.11104,0 -2.63231,0.496816 -0.83913,0.79977 1.90048,0.321084 1.56615,0.837948 -0.39864,0.616297 -1.57827,-0.178048 -1.70229,-0.139689 -2.04812,0.633456 -0.35395,0.79128 -0.31697,0.836109 0.96,1.163965 2.12394,0.545309 2.10225,0.641018 -0.11188,0.493709 -1.85974,-0.123731 -2.13526,-0.06371 -2.60184,0.566809 -0.77916,1.052938 -1.69821,3.859456 -1.46385,4.470189 0.45985,1.198362 8.2254,3.746499 11.35457,3.725818 1.51112,-0.01 1.51112,-0.01 0.28388,-0.764282 -1.86476,-1.146131 -0.87186,-1.26784 1.19786,-0.146832 1.90261,1.030499 3.23059,1.067239 3.60189,0.09965 0.25146,-0.655293 -0.55536,-1.476704 -2.31242,-2.354221 -0.80644,-0.402752 -1.54384,-0.93446 -1.63866,-1.181568 -0.0948,-0.24711 0.20356,-0.942211 0.66308,-1.544672 0.45952,-0.60246 0.83549,-1.176992 0.83549,-1.276736 0,-0.09974 -1.0715,-0.18135 -2.38111,-0.18135 -1.30962,0 -2.47311,-0.148848 -2.58555,-0.330771 -0.13613,-0.220263 0.70902,-0.301965 2.52966,-0.244547 1.82814,0.05765 2.86336,-0.04305 3.12422,-0.303898 0.61738,-0.617382 0.15262,-0.793344 -2.6513,-1.003789 -1.83234,-0.137523 -2.66956,-0.332419 -2.77319,-0.645568 -0.11687,-0.353165 0.0819,-0.400637 0.93441,-0.223197 0.59557,0.123956 2.03931,0.309396 3.20831,0.412087 1.91171,0.167939 2.16034,0.121529 2.47236,-0.461479 0.29369,-0.548768 0.23763,-0.677481 -0.36545,-0.839145 -0.3918,-0.105024 -1.21636,-0.194506 -1.83236,-0.198845 -1.74043,-0.01226 -3.52,-0.372598 -3.52,-0.712746 0,-0.181497 0.62476,-0.228496 1.52,-0.114345 0.836,0.106598 2.32851,0.253849 3.31668,0.327222 1.68492,0.125111 1.83979,0.07511 2.48958,-0.803785 0.59702,-0.807511 1.88577,-1.376698 1.57857,-0.697194 -0.69524,1.537872 -2.08018,3.924598 -2.64601,4.56 -0.39183,0.44 -1.03805,1.371437 -1.43604,2.069862 -0.72363,1.26986 -0.72363,1.26986 0.18679,1.99841 0.50074,0.400701 1.03172,0.729264 1.17996,0.730138 0.52175,0.0032 1.64996,1.127228 1.60738,1.60159 -0.0237,0.264 -0.0597,0.729728 -0.08,1.03495 -0.0203,0.305226 -0.45769,1.025226 -0.97198,1.6 -0.93506,1.04505 -0.93506,1.04505 -4.4797,1.04505 -1.94956,0 -3.54478,-0.108 -3.54494,-0.24 z m -11.69884,-18.4 c 0.11697,-0.66 0.27747,-1.422902 0.35665,-1.695338 0.13507,-0.464691 -1.35098,-1.264662 -2.34928,-1.264662 -0.52953,0 -1.98882,2.265536 -1.98882,3.087616 0,0.84848 0.36198,1.014403 2.28439,1.04712 1.47017,0.02502 1.48642,0.01376 1.69706,-1.174736 z M 128,73.48 c 0,-0.242 0.09,-0.89 0.2,-1.44 0.11733,-0.586666 0.0677,-1 -0.12,-1 -0.176,0 -0.39992,0.396 -0.49759,0.88 -0.0977,0.484 -0.27508,1.132 -0.39424,1.44 -0.15122,0.390893 -0.0614,0.56 0.29759,0.56 C 127.7686,73.92 128,73.722 128,73.48 Z m 1.92,-0.661114 c 0,-1.30519 -0.47238,-1.730003 -0.94395,-0.848886 -0.55733,1.041386 -0.4157,1.95 0.30395,1.95 0.516,0 0.64,-0.213334 0.64,-1.101114 z m 4.64,0.371818 c 1.28,0.0333 1.28,0.0333 0.32,-0.485482 -0.528,-0.285328 -1.32,-0.56166 -1.76,-0.61407 -2.42341,-0.288656 -2.39484,-0.296339 -2.5056,0.67384 -0.10559,0.924992 -0.10559,0.924992 1.28,0.658701 0.76208,-0.146458 1.9616,-0.251303 2.6656,-0.232989 z m -11.00421,-3.452826 c 0.20276,-0.125308 0.22701,-0.295456 0.0571,-0.400476 -0.42883,-0.265031 -1.28326,1.336406 -1.50597,2.822598 -0.17943,1.197373 -0.15023,1.167542 0.45227,-0.462122 0.35424,-0.958166 0.80272,-1.840166 0.99661,-1.96 z m -1.85423,1.193997 c 0.29614,-0.939469 0.53844,-1.787443 0.53844,-1.884387 0,-0.09694 -0.51591,-0.273046 -1.14646,-0.391341 -1.39176,-0.261094 -2.69354,0.460819 -2.69354,1.493719 0,0.825056 1.49878,2.490134 2.24143,2.490134 0.34985,0 0.69905,-0.562637 1.06013,-1.708125 z M 170.96,64.027181 c 0.836,-0.859591 1.52,-1.822157 1.52,-2.139037 0,-0.448112 -0.0853,-0.49081 -0.384,-0.192144 -0.50451,0.504506 -1.53793,0.493693 -1.52897,-0.016 0.004,-0.22 0.29313,-1.03055 0.64281,-1.801222 0.73999,-1.630887 1.11541,-3.626583 0.82472,-4.384109 -0.17401,-0.453472 -0.29617,-0.411808 -0.84745,0.289043 -0.63817,0.81129 -1.62668,2.858445 -1.77968,3.68561 -0.12253,0.662451 -0.42453,0.841574 -0.79474,0.471369 -0.23552,-0.235523 -0.12582,-1.030726 0.36522,-2.647357 0.6245,-2.056044 0.64885,-2.363721 0.22088,-2.791686 -0.42796,-0.427962 -0.56872,-0.363082 -1.27714,0.588691 -0.77755,1.044659 -1.60779,3.064122 -1.98555,4.829661 -0.21145,0.98825 -0.66938,1.111974 -1.4617,0.394934 -0.29479,-0.266784 -1.3096,-0.53927 -2.25513,-0.605523 -2.00631,-0.140579 -2.39389,0.18609 -2.72116,2.293495 -0.27962,1.800569 0.16949,2.310582 2.06107,2.340569 1.13225,0.01795 5.00755,0.626314 7.72082,1.212055 0.088,0.01901 0.844,-0.668759 1.68,-1.528349 z m -12.24,-1.768295 c 0,-0.781612 0.144,-1.510112 0.32,-1.618886 0.63006,-0.389402 0.34381,-1.167939 -0.39056,-1.062256 -0.54537,0.07848 -0.81162,0.461091 -1.14523,1.645728 -0.5028,1.785414 -0.34824,2.456528 0.56575,2.456528 0.55581,0 0.65004,-0.206016 0.65004,-1.421114 z M 156.62286,62.96 c 0.0675,-0.22 0.20425,-1.084 0.30384,-1.92 0.14682,-1.232611 0.0881,-1.52 -0.31082,-1.52 -0.73937,0 -1.89325,2.784803 -1.40009,3.379027 0.47067,0.56712 1.24146,0.600522 1.40707,0.06097 z m -6.08387,-2.272502 c 1.0257,-0.950586 1.72595,-2.591264 1.53417,-3.594519 C 151.9594,56.497907 151.72196,56.32 151.04152,56.32 c -0.67819,0 -0.97539,0.220931 -1.27713,0.949389 -0.80999,1.95551 -2.06259,1.897446 -1.31796,-0.06109 0.22658,-0.595956 0.19535,-0.982352 -0.11354,-1.404784 -0.40139,-0.548935 -0.48108,-0.523837 -1.37492,0.43302 -0.52186,0.558653 -1.13023,1.453652 -1.35193,1.988884 -0.36692,0.885824 -0.32639,1.073721 0.45172,2.093865 0.7486,0.981469 1.02966,1.120717 2.26204,1.120717 1.03383,0 1.62267,-0.19967 2.21919,-0.752502 z M 173.0186,58.82 c -0.10216,-0.255274 -0.17798,-0.17945 -0.19334,0.193334 -0.0139,0.337332 0.0617,0.526333 0.16807,0.42 0.10634,-0.106336 0.1177,-0.382336 0.0252,-0.613334 z M 158.34667,44.468659 c 0.37681,-0.008 0.2987,-0.14119 -0.26619,-0.453814 -0.96305,-0.532983 -0.98973,-0.515815 -0.7317,0.470877 0.11186,0.427776 0.26215,0.601484 0.33397,0.386025 0.0718,-0.215462 0.37058,-0.396851 0.66392,-0.403088 z m -14.77334,-4.681993 c -0.11733,-0.117332 -0.30933,-0.117332 -0.42666,0 C 143.02933,39.904 143.12533,40 143.36,40 c 0.23467,0 0.33067,-0.096 0.21333,-0.213334 z m -0.94,-0.62 c -0.10633,-0.106333 -0.38233,-0.1177 -0.61333,-0.02525 -0.25527,0.10215 -0.17945,0.177977 0.19333,0.193331 0.33734,0.01389 0.52634,-0.06173 0.42,-0.168071 z m 11.92329,-0.602592 c 0.54975,-0.662413 0.21325,-1.32202 -0.8048,-1.577533 -0.63055,-0.158259 -0.97591,-0.06257 -1.29501,0.358822 -0.57053,0.753418 -0.42335,1.148365 0.52691,1.413914 1.14561,0.320137 1.14516,0.320195 1.5729,-0.195203 z M 14.24,90.646624 C 10.957088,90.319629 9.92,89.63919 9.92,87.812256 9.92,86.641283 11.133312,85.12 12.067232,85.12 c 0.249578,0 1.240818,-0.36 2.202756,-0.8 0.961938,-0.44 1.893352,-0.8 2.069807,-0.8 0.61888,0 0.807582,-1.344717 0.518528,-3.695098 -0.160447,-1.304636 -0.207726,-2.590953 -0.105065,-2.858483 0.276781,-0.721283 0.787609,-0.589363 0.904486,0.233581 0.09391,0.661216 0.279727,0.723296 2.275978,0.760387 2.928191,0.05441 3.173197,0.439613 0.279611,0.439613 -2.367441,0 -2.58532,0.146752 -2.099097,1.413827 0.151124,0.393824 0.68383,0.506173 2.4,0.506173 1.257176,0 2.205764,0.137616 2.205764,0.32 0,0.182858 -0.96,0.32 -2.24,0.32 -1.746766,0 -2.24,0.102499 -2.24,0.465501 0,0.285427 0.433255,0.533001 1.12,0.64 0.616,0.09597 1.628002,0.253776 2.248893,0.350669 1.786887,0.278851 1.009098,0.694563 -0.98943,0.528828 -1.643032,-0.136252 -1.870199,-0.07486 -2.493589,0.673933 -0.404406,0.485754 -1.743784,1.225159 -3.263766,1.801763 -3.157588,1.197831 -3.838033,1.65929 -3.550722,2.40801 0.170477,0.444256 0.448144,0.520608 1.331994,0.366275 0.614141,-0.107238 1.641437,-0.286909 2.282879,-0.39927 0.831903,-0.145722 1.101712,-0.09985 0.941114,0.16 C 15.743544,88.15607 15.227226,88.32 14.72,88.32 c -0.507226,0 -1.005515,0.134758 -1.107308,0.299462 -0.253166,0.409632 2.228396,0.745981 4.51025,0.611316 C 19.603193,89.143418 20,89.218458 20,89.585677 c 0,0.636553 -3.517016,1.284358 -5.76,1.060947 z M 35.36,81.6 c -0.122957,-0.198947 0.444909,-0.311491 1.501114,-0.297507 1.24446,0.01648 1.527696,0.09605 1.058886,0.297507 -0.891933,0.383277 -2.323123,0.383277 -2.56,0 z m 55.28,-8.262256 c -0.396,-0.05624 -0.72,-0.23624 -0.72,-0.4 0,-0.168486 1.817523,-0.297744 4.186666,-0.297744 3.207113,0 4.155472,0.09359 4.053331,0.4 -0.09529,0.285866 -1.084451,0.4 -3.466669,0.4 C 92.859997,73.44 91.036,73.393984 90.64,73.337744 Z M 21.196713,68.296621 c 0.261051,-0.261053 4.997579,-0.288995 5.255568,-0.03101 C 26.570193,68.383526 25.394667,68.48 23.84,68.48 c -1.554667,0 -2.744146,-0.08252 -2.643287,-0.183379 z M 142.50667,67.626666 c 0.11733,-0.117332 0.30933,-0.117332 0.42666,0 C 143.05067,67.744 142.95467,67.84 142.72,67.84 c -0.23467,0 -0.33067,-0.096 -0.21333,-0.213334 z M 20.636133,67.173386 c -0.381211,-0.148858 0.507304,-0.257418 2.2172,-0.270893 1.569334,-0.01238 2.773939,0.0569 2.676901,0.153939 -0.290952,0.290954 -4.208747,0.384576 -4.894101,0.116954 z M 79.267126,65.080458 C 79.166947,64.980282 78.030864,64.787747 76.742493,64.652608 74.4,64.406899 74.4,64.406899 76.8,64.368349 c 2.285136,-0.0367 3.636214,0.284285 2.958797,0.70295 -0.17024,0.105216 -0.391495,0.109338 -0.491671,0.0092 z M 80.88,65.068074 c 0.22,-0.08877 0.58,-0.08877 0.8,0 0.22,0.08877 0.04,0.161404 -0.4,0.161404 -0.44,0 -0.62,-0.07263 -0.4,-0.161404 z m 16.364496,-2.81024 C 97.175872,62.18921 96.255789,62.067018 95.199862,61.986294 93.223626,61.835213 92.16,61.541133 92.16,61.145805 c 0,-0.276288 4.784995,0.253997 5.400608,0.598512 0.263734,0.147593 0.314125,0.325888 0.12512,0.442701 -0.174054,0.107571 -0.372608,0.139436 -0.441232,0.07081 z M 95.04,60.902406 c -1.881443,-0.193468 -2.595798,-0.425596 -2.38072,-0.773603 0.113002,-0.182838 0.434794,-0.244429 0.715094,-0.136867 0.280304,0.107562 1.381738,0.27097 2.447632,0.36313 1.065898,0.09216 2.074794,0.301974 2.241994,0.466249 0.303046,0.297751 -0.664691,0.323699 -3.024,0.08109 z M 97.92,59.264 c 0,-0.457408 0.753366,-1.024 1.361555,-1.024 1.009565,0 3.231045,-1.178214 4.238445,-2.247968 0.96,-1.019411 0.96,-1.019411 -0.57099,-0.872752 -1.03148,0.09881 -1.49131,0.03149 -1.40937,-0.20631 0.0671,-0.194855 0.7821,-0.339626 1.59602,-0.323181 0.9614,0.01942 1.53179,-0.119751 1.63933,-0.4 C 104.89595,53.874563 104.6014,53.76 103.66996,53.76 c -2.15935,0 -1.22824,-0.926614 0.97004,-0.96536 0.72131,-0.0127 0.74232,-0.04763 0.21362,-0.355034 -0.32251,-0.187513 -1.07851,-0.248611 -1.68,-0.135769 -0.81745,0.153353 -1.09362,0.09317 -1.09362,-0.23833 0,-0.324845 0.44514,-0.435734 1.66393,-0.414499 1.57388,0.02742 1.66293,-0.0143 1.64558,-0.771008 -0.0448,-1.952832 -0.0155,-1.92 -1.70951,-1.92 -0.88,0 -1.6,-0.144 -1.6,-0.32 0,-0.176 0.744,-0.32 1.65333,-0.32 0.90934,0 1.55846,-0.09488 1.4425,-0.210842 -0.11597,-0.115961 -0.93197,-0.185315 -1.81334,-0.154121 -2.02743,0.07176 -2.0736,-0.385626 -0.0825,-0.817341 1.52,-0.329568 1.52,-0.329568 0.16,-0.373632 -0.748,-0.02422 -1.36,-0.178362 -1.36,-0.342499 0,-0.431808 1.08877,-0.711882 1.79492,-0.461725 0.49582,0.175648 0.53285,0.136509 0.20508,-0.216742 -0.60333,-0.65024 -0.48122,-1.730404 0.27276,-2.412746 0.37002,-0.334864 0.87772,-1.005181 1.12822,-1.489597 0.44285,-0.856381 0.43146,-0.880755 -0.41173,-0.880755 -0.47695,0 -1.50371,0.308134 -2.28168,0.684746 -1.10273,0.53382 -1.47,0.594934 -1.66632,0.27728 -0.17729,-0.286868 -1.1145,-0.395476 -3.166536,-0.366951 -2.389632,0.03321 -2.914714,-0.04556 -2.914714,-0.43728 0,-0.317952 0.347926,-0.490461 1.04,-0.515654 1.04,-0.03786 1.04,-0.03786 0.1064,-0.24 -1.447741,-0.313459 -1.359376,-0.933594 0.230109,-1.614925 1.184067,-0.507552 1.522291,-0.855046 1.967894,-2.021843 0.661431,-1.73193 0.554083,-4.04329 -0.210022,-4.522074 -0.794215,-0.497651 -2.132355,0.861191 -2.381325,2.41816 C 95.65319,35.496118 95.439664,35.84 95.036422,35.84 c -0.7523,0 -1.058835,-1.276442 -0.464297,-1.933395 C 94.829456,33.622256 95.04,33.219699 95.04,33.012032 c 0,-0.207664 0.383802,-0.808326 0.852896,-1.334803 1.130634,-1.268942 2.303469,-1.256951 3.779062,0.03864 0.911152,0.8 1.338162,0.96488 2.171132,0.838313 1.32344,-0.201088 1.97162,0.145949 2.45579,1.314835 0.29542,0.7132 0.30035,1.254 0.0209,2.29178 -0.42385,1.574064 -1.59414,3.509491 -2.12555,3.515244 -0.39351,0.0043 -0.87192,0.952948 -0.61176,1.213111 0.0867,0.08665 0.55111,-0.100323 1.03212,-0.415498 0.48102,-0.315171 1.38551,-0.613494 2.00999,-0.662937 0.62448,-0.04945 1.60341,-0.177607 2.17541,-0.284807 0.84794,-0.158912 1.04,-0.09259 1.04,0.359149 0,0.747939 -0.98086,4.674595 -1.2677,5.074944 -0.27636,0.385722 -0.21701,1.809885 0.0966,2.317264 0.24618,0.398333 0.34621,4.747872 0.12701,5.522736 -0.0747,0.264 -0.24592,0.876 -0.38053,1.36 -0.1346,0.484 -0.36341,0.88 -0.50847,0.88 -0.14506,0 -0.34588,0.252 -0.44627,0.56 -0.10038,0.308 -0.89534,1.064 -1.76657,1.68 -0.87123,0.616 -1.5908,1.317632 -1.59905,1.559181 -0.0112,0.329251 -0.12168,0.350633 -0.44124,0.08542 -0.31626,-0.262467 -0.58464,-0.233917 -1.04,0.11064 C 99.965446,59.525792 97.92,59.699491 97.92,59.264 Z m 3.26665,-19.563056 c -0.0513,-0.231574 0.11129,-0.655024 0.36141,-0.940995 1.97256,-2.255309 1.89107,-5.085456 -0.13777,-4.784512 -0.75058,0.111334 -0.857,0.261619 -1.773509,2.504563 -0.323629,0.792 -0.851635,1.728 -1.173351,2.08 -0.564105,0.617206 -0.564252,0.644221 -0.0042,0.758467 0.319415,0.06516 0.868756,0.320432 1.220756,0.56728 0.751834,0.527242 1.640354,0.418256 1.506644,-0.184803 z M 22.254715,51.543811 C 22.070227,51.245299 24.306907,49.6 24.8972,49.6 c 0.21054,0 0.3828,0.144 0.3828,0.32 0,0.176 -0.123905,0.32 -0.275345,0.32 -0.15144,0 -0.795342,0.35288 -1.430894,0.784176 -0.635552,0.431299 -1.229122,0.665133 -1.319046,0.519635 z M 77.24575,41.689974 c -0.162288,-0.865075 -0.01824,-1.804409 0.527584,-3.44 0.82386,-2.468803 1.62554,-3.634144 3.584125,-5.209974 1.071248,-0.861898 1.56624,-1.04 2.890448,-1.04 0.878813,0 2.190547,0.168147 2.914967,0.373661 1.251158,0.354947 3.077126,1.687846 3.077126,2.246208 0,0.430387 -1.572285,0.293005 -2.331258,-0.203696 -0.389808,-0.255104 -1.311056,-0.559959 -2.047216,-0.677456 -1.338473,-0.213629 -1.338473,-0.213629 -1.559414,0.964096 -0.12152,0.647747 -0.143866,1.752384 -0.04966,2.454745 0.119303,0.889476 0.05843,1.239728 -0.200585,1.154135 -0.224067,-0.07404 -0.409239,-1.03481 -0.465888,-2.41729 -0.09648,-2.354544 -0.506541,-2.974022 -0.936243,-1.414403 -0.367517,1.333907 -0.246832,4.465136 0.192499,4.994496 0.227904,0.274608 0.264973,0.545082 0.08956,0.653491 -0.583596,0.360682 -0.975097,-0.657507 -1.197804,-3.115152 -0.235248,-2.596041 -0.446455,-2.756729 -1.067242,-0.811958 -0.297661,0.932493 -0.276576,1.433667 0.107171,2.547504 0.475978,1.381536 0.431021,1.957901 -0.108445,1.390285 C 80.50936,39.9744 80.162963,39.192 79.895709,38.4 c -0.485914,-1.44 -0.485914,-1.44 -1.017341,-0.186781 -0.339805,0.801331 -0.493018,1.868807 -0.424899,2.960435 0.08968,1.437092 0.02022,1.707149 -0.43897,1.706781 -0.376054,-3.01e-4 -0.614845,-0.37008 -0.768749,-1.190461 z m -49.522391,-0.6428 c 0.328153,-0.2408 0.884641,-0.360892 1.236641,-0.266867 0.352,0.09403 0.892,0.172922 1.2,0.175325 0.308,0.0026 0.56,0.143763 0.56,0.314138 0,0.170374 -0.808488,0.288499 -1.796641,0.262499 -1.602863,-0.04217 -1.732289,-0.09449 -1.2,-0.485095 z"
       style="fill:#000000;stroke-width:0.32" />
  </g>
</svg>
