<?xml version="1.0" encoding="UTF-8" standalone="no"?>
<svg
   xmlns:dc="http://purl.org/dc/elements/1.1/"
   xmlns:cc="http://creativecommons.org/ns#"
   xmlns:rdf="http://www.w3.org/1999/02/22-rdf-syntax-ns#"
   xmlns:svg="http://www.w3.org/2000/svg"
   xmlns="http://www.w3.org/2000/svg"
   xmlns:sodipodi="http://sodipodi.sourceforge.net/DTD/sodipodi-0.dtd"
   xmlns:inkscape="http://www.inkscape.org/namespaces/inkscape"
   inkscape:version="1.0 (4035a4fb49, 2020-05-01)"
   sodipodi:docname="fealty-color.svg"
   viewBox="0 0 298.66666 297.33334"
   height="297.33334"
   width="298.66666"
   id="svg5697"
   version="1.1">
  <metadata
     id="metadata5703">
    <rdf:RDF>
      <cc:Work
         rdf:about="">
        <dc:format>image/svg+xml</dc:format>
        <dc:type
           rdf:resource="http://purl.org/dc/dcmitype/StillImage" />
        <dc:title></dc:title>
      </cc:Work>
    </rdf:RDF>
  </metadata>
  <defs
     id="defs5701" />
  <sodipodi:namedview
     inkscape:current-layer="g5705"
     inkscape:window-maximized="0"
     inkscape:window-y="34"
     inkscape:window-x="10"
     inkscape:cy="219.86075"
     inkscape:cx="189.83349"
     inkscape:zoom="1.6597215"
     showgrid="false"
     id="namedview5699"
     inkscape:window-height="1034"
     inkscape:window-width="1898"
     inkscape:pageshadow="2"
     inkscape:pageopacity="0"
     guidetolerance="10"
     gridtolerance="10"
     objecttolerance="10"
     borderopacity="1"
     bordercolor="#666666"
     pagecolor="#ffffff" />
  <g
     id="g5705"
     inkscape:label="Image"
     inkscape:groupmode="layer">
    <path
       id="path6274"
       d="m 107.00268,148.79231 -2.10611,-10.85339 5.46825,-10.36075 -3.42452,-15.05655 13.06282,0.83078 10.90354,-7.43878 19.01316,-5.58644 24.79678,0.89915 16.24385,14.14489 5.56888,18.3704 -7.24473,22.20149 26.3011,3.68752 14.94553,6.01728 13.73322,-9.91678 13.63808,11.55769 10.82886,-10.61082 -0.42246,-8.5257 -1.91216,-19.31367 1.82909,-8.13111 6.35453,-4.78699 10.07971,0.10034 3.56672,8.26634 -2.8578,15.14095 -7.27913,20.98556 -6.74917,12.2417 -5.67155,5.07138 -5.29183,1.77698 -7.69713,-1.36795 -8.84579,-7.63688 -4.84515,2.9501 -0.534,17.99658 -4.00458,12.77789 -1.97258,5.73765 13.23368,-5.95602 2.69206,5.3303 5.12384,8.70799 -2.69895,11.00454 -6.76181,13.27491 -10.53931,12.02007 -7.20248,4.3428 -4.38736,0.1373 -4.64811,-8.41282 -9.86655,7.70424 -12.36863,-0.48907 -14.58489,-16.38348 -13.43539,-0.50993 -17.28448,-0.79251 2.27924,12.14982 -0.26074,7.9225 -26.46442,8.88387 -15.54542,-2.98773 -12.058538,-4.07224 -2.234546,-4.89055 15.544724,-10.31746 -10.56908,-13.59461 -4.072819,-13.31474 5.684889,-4.55785 7.18426,-2.70348 2.35663,-17.33413 0.42049,-4.94086 -28.468311,-3.01394 -7.674163,1.78296 -4.619165,-0.57101 -5.818399,-17.36103 -0.379475,-4.1218 13.115629,-2.06032 -2.047935,-6.55734 -3.730377,-3.89518 1.43641,-4.35485 6.732272,-3.9878 18.80936,6.48147 6.920754,-1.0113 z"
       style="fill:#f1c109;stroke-width:1.6;stroke-linecap:round;stroke-opacity:0.0584339;fill-opacity:1" />
    <path
       id="path6276"
       d="m 60.501586,152.95249 -0.475777,3.21609 -7.892151,2.88235 -2.91147,-4.84488 3.191829,-4.57851 7.657921,-0.2717 z"
       style="fill:#f1c109;fill-opacity:1;stroke-width:1.6;stroke-linecap:round;stroke-opacity:0.0584339" />
    <path
       id="path6278"
       d="m 118.46332,164.77337 7.7953,2.1161 -0.65794,-8.27112 -8.97314,-0.9952 -2.56464,6.44291 z"
       style="fill:#ffffff;fill-opacity:1;stroke-width:1.6;stroke-linecap:round;stroke-opacity:0.0584339" />
    <path
       id="path6280"
       d="m 27.443266,84.364792 73.941884,0.207177 12.9371,-7.146568 -1.4879,-5.636468 -21.349873,7.703458 -23.345272,-1.87386 8.11576,-41.573215 -0.132642,-10.213768 -11.431441,-10.543833 -15.87289,21.50851 7.034448,20.411859 6.633475,19.437953 -0.03451,1.272931 L 39.06592,75.325752 22.275922,71.05701 14.710003,65.464128 7.2818526,70.967631 6.6613844,78.053587 20.702231,85.03744 Z"
       style="fill:#b3b3b3;fill-opacity:1;stroke-width:1.6;stroke-linecap:round;stroke-opacity:0.0584339" />
    <path
       id="path6282"
       d="m 54.869517,83.80493 -0.916378,64.35831 7.240002,2.5005 0.13845,3.61318 -6.216864,6.11398 -0.506488,96.42125 2.035648,10.46993 11.175753,19.52973 9.004347,-9.89922 6.008642,-13.15957 -1.436771,-34.41625 -3.109648,-39.23607 -6.66825,-0.46579 -2.027937,-10.43777 -5.386582,-11.47912 2.543567,-2.48916 8.923575,0.46811 1.415248,-6.92621 -4.367865,-2.72675 0.581185,-5.4772 4.366311,-5.54283 -1.653699,-66.212122 z"
       style="fill:#e6e628;fill-opacity:1;stroke-width:1.6;stroke-linecap:round;stroke-opacity:0.0584339" />
    <path
       id="path6272"
       d="m 64.266665,289.06667 c -0.88,-0.88 -1.6,-2.4039 -1.6,-3.38645 0,-2.30444 -5.092612,-12.29664 -7.487844,-14.69187 -1.288506,-1.2885 -1.845022,-5.33782 -1.843941,-13.41692 0.0079,-58.6244 -0.849249,-88.04637 -2.62728,-90.18877 -1.036982,-1.24948 -2.054934,-3.27174 -2.262114,-4.4939 -0.20718,-1.22214 -0.739554,-4.03094 -1.183051,-6.24176 -0.591785,-2.95001 -0.05015,-4.98101 2.03544,-7.63241 2.657372,-3.37831 2.886375,-5.57361 3.528678,-33.82723 l 0.68688,-30.21447 -17.756716,0.644171 C 15.743504,86.34309 10.652374,85.430835 6.7039583,80.411238 2.7997043,75.447783 5.971796,67.388258 13.141358,64.055345 c 2.685723,-1.24851 4.139408,-0.797853 10.022388,3.107047 7.884128,5.233186 14.915973,7.39725 23.50292,7.23307 3.3,-0.06309 8.088229,0.350148 10.640507,0.918317 4.096598,0.911956 4.439694,0.791069 2.927204,-1.031368 -0.942316,-1.135423 -2.85034,-6.824997 -4.24005,-12.6435 C 54.593597,55.774273 51.583678,48.02925 49.240163,44.259325 46.078012,39.17249 45.23356,36.579041 45.889027,33.967453 47.020378,29.459791 63.341943,13.137786 69.095129,10.760725 c 4.053627,-1.6748484 4.661789,-1.5963973 7.185033,0.926846 4.357996,4.357996 4.465204,13.440776 0.420034,35.585527 -1.979035,10.833958 -3.276988,20.926588 -2.884342,22.428068 0.392646,1.501481 0.149179,3.785158 -0.541037,5.07484 -1.163169,2.173401 -0.402521,2.302333 10.401788,1.76314 14.045905,-0.700967 16.660405,-1.232552 24.022985,-4.884387 4.9458,-2.453112 5.94083,-2.573139 7.52357,-0.907543 3.70341,3.897275 3.79501,7.627663 0.24441,9.954107 -6.05971,3.970475 -18.074886,6.304814 -27.633195,5.368648 -8.75819,-0.857798 -8.837923,-0.835582 -9.503855,2.648019 -0.369362,1.932191 -0.36722,7.304597 0.0048,11.93868 l 0.676326,8.42561 6.160863,0.84269 c 10.555397,1.4438 13.494155,2.24007 13.494155,3.65632 0,0.85478 -3.632797,1.19077 -9.666666,0.89406 L 79.333332,114 l -0.340626,14.66667 -0.340626,14.66667 6.538631,2.9626 c 3.596248,1.62944 8.919927,3.34338 11.8304,3.8088 l 5.291769,0.84618 0.60606,-7.14213 c 0.33333,-3.92816 1.6676,-9.36325 2.96504,-12.07798 2.27582,-4.76185 2.26685,-5.19207 -0.25447,-12.20397 -1.4374,-3.99746 -2.22336,-7.89931 -1.74656,-8.67078 0.58756,-0.9507 3.6143,-1.01431 9.39348,-0.19743 8.25418,1.16672 8.66469,1.08397 12.84913,-2.59002 7.66714,-6.73183 18.118,-9.849516 33.20777,-9.90649 15.00159,-0.05664 19.02772,1.34231 27.77656,9.65146 6.09301,5.7868 8.34116,9.78733 10.22565,18.19631 1.57808,7.04171 -0.34344,20.44485 -3.67037,25.60191 -2.28133,3.53628 -2.63069,3.43138 18.97847,5.6986 8.05401,0.84503 14.95401,2.01502 15.33333,2.59996 0.37933,0.58496 1.9197,1.44678 3.42306,1.91516 2.02507,0.63092 3.90679,-0.35905 7.26156,-3.82029 2.4905,-2.56955 4.97346,-4.67189 5.51767,-4.67189 0.54421,0 2.91271,1.75658 5.26329,3.90352 6.42083,5.86452 10.50108,6.43042 14.32352,1.98658 2.39988,-2.79004 2.95487,-4.62254 2.35338,-7.77057 -1.66552,-8.71691 -2.42744,-20.72643 -1.59608,-25.15796 2.2494,-11.99037 15.65333,-17.22358 22.69144,-8.85927 4.31188,5.12438 4.312,7.05149 10e-4,21.8977 -6.92025,23.83364 -13.11334,35.66464 -21.08826,40.28608 -1.53699,0.89069 -5.09068,1.64069 -7.89708,1.66666 -3.94926,0.0365 -6.02355,-0.87373 -9.17722,-4.0274 -6.05464,-6.05464 -8.29502,-4.45686 -7.28608,5.19619 0.70392,6.7348 0.31044,8.78013 -3.06024,15.90744 l -3.86802,8.17893 4.4397,-2.11714 c 6.79739,-3.24146 10.72068,-1.5933 13.49411,5.66882 1.99492,5.22366 2.11341,7.25624 0.82645,14.17658 -2.61106,14.04028 -14.1969,30.50068 -25.62952,36.41271 -4.59665,2.37702 -8.57678,1.04061 -9.9695,-3.34746 -0.98836,-3.11401 -2.43897,-3.37241 -4.93273,-0.87866 -4.2934,4.29341 -7.64839,5.08417 -15.05082,3.54742 -8.8008,-1.82704 -12.9366,-4.92996 -16.56714,-12.42966 -3.33866,-6.89675 -3.80231,-16.90718 -0.7831,-16.90718 1.31443,0 2,1.3152 2,3.83675 0,6.00347 2.60303,7.21288 13.63664,6.33575 14.10578,-1.12135 5.964,1.18833 -10.9033,3.09308 -0.33,0.0372 0.0887,0.7564 0.9303,1.59806 1.15154,1.15154 3.49548,1.11328 9.46972,-0.15453 11.02352,-2.33936 13.33374,-0.93781 3.19998,1.94133 -10.1551,2.88522 -10.8614,5.03411 -1.33334,4.05658 l 7,-0.71816 -4.57777,2.10914 c -3.55803,1.6393 -4.15205,2.37854 -2.66667,3.31848 1.05111,0.66515 3.14364,1.21855 4.65007,1.22978 3.88657,0.0289 14.25831,-6.86538 18.69724,-12.42851 4.85292,-6.08199 7.17326,-4.80923 2.4712,1.35551 -3.08788,4.04842 -3.35555,5.11421 -2.02033,8.04468 1.48678,3.26312 1.62822,3.29736 4.15935,1.00672 1.44114,-1.30422 2.62024,-2.92115 2.62024,-3.59322 0,-0.67205 0.9,-2.12192 2,-3.22192 2.62239,-2.62238 2.5483,-1.21916 -0.15334,2.90406 -3.3752,5.15121 0.59718,4.2259 6.5089,-1.51612 7.86092,-7.63531 13.20308,-19.83726 13.15426,-30.04549 -0.0331,-6.91045 -0.54687,-8.89401 -2.77032,-10.69445 -3.32115,-2.68929 -6.85067,-1.93032 -10.85747,2.33473 -2.97247,3.16404 -7.54027,4.5575 -5.82107,1.77579 1.22395,-1.98039 1.62986,-9.23471 0.51672,-9.23471 -0.49965,0 -3.68404,1.5513 -7.07641,3.44732 -3.55266,1.98564 -6.16793,2.79556 -6.16793,1.91016 0,-0.95902 -1.06229,-1.20002 -2.82441,-0.64074 -1.9572,0.62118 -2.65326,0.38294 -2.26696,-0.77594 0.3066,-0.9198 5.92758,-4.50592 12.49107,-7.96914 l 11.93363,-6.29679 0.38996,-7.17183 c 0.25649,-4.71736 -0.27539,-8.08173 -1.55415,-9.83053 -1.86396,-2.54913 -2.35964,-2.21935 -12.02554,8.00105 -5.5448,5.86288 -10.09544,9.84583 -10.11252,8.851 -0.0171,-0.99482 4.26963,-6.24412 9.52605,-11.66509 5.25643,-5.42097 9.14744,-10.26601 8.64669,-10.76675 -0.87865,-0.87866 -3.63862,1.39527 -17.20382,14.17415 -6.33152,5.96451 -8.99919,5.14136 -3.33333,-1.02856 2.84854,-3.10196 2.85984,-3.19411 0.22368,-1.82539 -1.52699,0.79282 -3.55046,2.37426 -4.4966,3.51428 -1.82032,2.19336 -4.06042,2.76944 -4.06042,1.0442 0,-0.56572 4.26812,-4.31572 9.48471,-8.33333 5.2166,-4.0176 10.27375,-8.05473 11.23811,-8.9714 3.69819,-3.51531 3.58495,-1.46136 -0.14003,2.53955 -4.07384,4.37562 -2.07633,4.00592 2.9961,-0.55454 2.81395,-2.5299 2.83104,-2.70542 0.50642,-5.20061 -1.52587,-1.63783 -5.71267,-3.13032 -11.44669,-4.08048 -8.40658,-1.39301 -9.19047,-1.3122 -11.17308,1.15175 -5.2149,6.481 -8.36568,10.62122 -9.46632,12.43905 -0.65315,1.07876 -1.57894,1.57 -2.0573,1.09164 -0.47836,-0.47836 1.55304,-4.04696 4.51423,-7.93021 2.96117,-3.88327 5.06889,-7.37451 4.68381,-7.75832 -0.67146,-0.66924 -1.91846,0.61733 -10.19476,10.51833 -2.0468,2.44861 -4.10578,4.06769 -4.57553,3.59796 -0.46973,-0.46973 0.93623,-2.79508 3.12436,-5.16743 10.22392,-11.08469 8.85519,-12.25752 -2.13003,-1.82516 -3.75761,3.56852 -7.23434,6.0859 -7.72606,5.59418 -0.49172,-0.49172 -0.23698,-1.31142 0.5661,-1.82154 3.70143,-2.35117 12.46263,-10.04589 12.46263,-10.94557 0,-2.19909 -5.98067,-2.47607 -8.29233,-0.38404 -4.40679,3.98808 -3.96086,0.70589 0.85533,-6.29561 6.10459,-8.87451 6.07909,-11.45471 -0.048,-4.86236 -2.61041,2.80862 -5.09655,4.75626 -5.52473,4.32808 -0.42819,-0.42819 0.43458,-2.12615 1.91726,-3.77326 1.4827,-1.6471 3.20023,-3.89474 3.81676,-4.99474 0.99642,-1.77778 0.83386,-1.77778 -1.46308,0 -1.42121,1.1 -3.38317,2.75393 -4.3599,3.6754 -0.97674,0.92146 -3.07908,2.3073 -4.67191,3.07965 -1.59281,0.77235 1.00397,-2.17849 5.77064,-6.55743 4.76667,-4.37893 8.92667,-7.70477 9.24444,-7.39077 0.31779,0.31401 -0.13227,1.28092 -1,2.14871 C 188.71,141.15667 188,142.38952 188,143.02858 c 0,0.63904 0.94821,0.21369 2.10714,-0.94524 1.15892,-1.15894 1.84,-2.85179 1.5135,-3.76191 -0.3265,-0.91012 -0.0621,-2.68891 0.5876,-3.95288 1.55494,-3.0252 -1.295,-14.36855 -3.61002,-14.36855 -0.96352,0 -2.09648,1.08582 -2.51769,2.41293 C 184.62297,127.00531 164,146.27268 164,143.04207 c 0,-0.62673 2.97558,-3.361 6.61241,-6.07615 10.96659,-8.18731 21.57871,-24.33549 14.10884,-21.46903 -1.3418,0.51489 -1.65805,-0.0586 -1.13513,-2.05823 1.21089,-4.63044 -2.72467,-3.24558 -5.51824,1.94178 -4.11779,7.64626 -26.15427,26.31095 -28.40579,24.05943 -0.42527,-0.42525 -0.5232,-0.93511 -0.21765,-1.13299 18.35932,-11.88971 26.02729,-18.87292 28.78673,-26.21599 1.40217,-3.73128 1.26381,-4.35939 -1.33333,-6.05321 -12.62768,-8.235578 -40.45887,-3.91771 -53.70763,8.33247 -7.17805,6.63703 -14.37656,17.17194 -15.88979,23.25448 -0.85016,3.41729 1.50803,16.48987 3.38196,18.74773 0.47429,0.57147 2.61478,0.1252 4.75665,-0.99178 C 124.1702,150.82742 132,154.22651 132,162.57006 v 5.0855 l 7.91746,0.89576 c 7.22578,0.8175 14.74524,0.43471 26.41587,-1.34477 5.58424,-0.85144 5.58424,1.27545 0,3.63169 -3.20743,1.35336 -10.51439,1.76664 -28.12277,1.59063 -20.87882,-0.20869 -24.11573,-0.53307 -26.45622,-2.65119 -2.00099,-1.81086 -2.49058,-3.49909 -1.96105,-6.7622 0.5004,-3.08361 0.18975,-4.34881 -1.0678,-4.34881 -0.97544,0 -2.11888,-0.9 -2.54099,-2 -1.30127,-3.39105 -4.85117,-2.35779 -4.85117,1.41203 0,1.93514 -0.57712,3.05533 -1.333332,2.58797 -0.733334,-0.45323 -1.333334,-1.98864 -1.333334,-3.41203 0,-1.4694 -0.910233,-2.58797 -2.105939,-2.58797 -1.646278,0 -1.91418,0.87308 -1.227394,4 0.526347,2.39644 0.335424,4 -0.476248,4 -0.745137,0 -1.54281,-1.91544 -1.772608,-4.25652 -0.347981,-3.54513 -1.14204,-4.44285 -4.751144,-5.37145 -2.383333,-0.61322 -4.333333,-1.63359 -4.333333,-2.2675 0,-2.09413 -4.060337,-2.75612 -6.719377,-1.09552 -1.437676,0.89784 -2.613956,2.65524 -2.613956,3.90534 0,1.76557 1.413577,2.36358 6.333333,2.67926 l 6.333333,0.40639 -4.333333,2.36757 c -2.383333,1.30216 -4.333333,2.95216 -4.333333,3.66667 0,0.71451 1.95,1.2998 4.333333,1.30067 5.067885,0.001 23.477052,3.36436 24.607342,4.49465 1.95396,1.95396 -4.712,2.40011 -13.199047,0.88339 -10.009147,-1.78875 -25.86348,-2.36887 -27.235753,-0.9966 -1.906016,1.90601 0.950256,4.95032 4.644562,4.95032 3.318543,0 3.872096,0.4952 3.708514,3.31757 -0.10576,1.82468 -0.942284,3.60584 -1.858951,3.95816 -1.88268,0.7236 -2.267428,5.52893 -0.528723,6.60351 0.62587,0.38681 2.958243,0.0163 5.183051,-0.82356 3.09772,-1.16927 7.244365,-1.10343 17.705145,0.2811 12.958682,1.71516 13.753662,1.67994 15.483612,-0.6859 1.61832,-2.21319 1.82358,-2.2401 1.82358,-0.23906 0,1.24016 0.9,2.25484 2,2.25484 1.39683,0 2,-1.40741 2,-4.66666 0,-2.56667 0.6,-4.66667 1.33333,-4.66667 0.73334,0 1.33334,1.8 1.33334,4 0,2.66667 0.66666,4 2,4 1.35672,0 2,-1.35803 2,-4.22223 0,-4.77554 1.02387,-4.59958 1.76405,0.30319 0.44505,2.94799 1.19659,3.2898 8.03015,3.65224 l 7.53913,0.39988 v -4.06655 c 0,-2.23658 0.6,-4.06653 1.33333,-4.06653 0.73334,0 1.33334,1.8 1.33334,4 0,3.17967 0.57653,4 2.81121,4 2.33283,0 2.66884,-0.56723 1.9746,-3.33333 C 148.32566,181.5 148.51889,180 149.2152,180 c 0.69629,0 1.45773,1.34387 1.69206,2.98638 0.23434,1.64252 1.47607,3.1865 2.7594,3.4311 1.74391,0.33238 2.33334,-0.44189 2.33334,-3.06506 0,-2.00034 0.57342,-3.1554 1.33333,-2.68575 0.73333,0.45323 1.33333,1.98864 1.33333,3.41203 0,2.27418 0.96998,2.58797 8,2.58797 4.4,0 8,0.52149 8,1.15888 0,2.05704 -9.48117,3.06501 -33.93458,3.60771 -24.88524,0.55226 -28.85894,1.50505 -26.95625,6.46336 0.58707,1.52989 2.72712,2.12893 7.84899,2.1971 5.16451,0.0687 6.33092,0.3992 4.37518,1.23962 -1.46667,0.63025 -4.91667,1.18808 -7.66667,1.23961 -3.5139,0.0659 -5,0.68816 -5,2.09372 0,1.55772 1.78652,2 8.07869,2 5.04627,0 7.76937,0.50048 7.25464,1.33333 -0.45322,0.73334 -3.7482,1.33334 -7.32217,1.33334 -5.32711,0 -6.65065,0.48056 -7.34449,2.66666 -0.5324,1.67743 -2.01738,2.66667 -4.00305,2.66667 -6.14283,0 -9.996952,2.36187 -9.996952,6.12627 v 3.5256 L 114,223.3643 c 7.7,-0.52483 14,-0.664 14,-0.30927 0,0.35475 -6,1.37998 -13.33334,2.27831 -7.33333,0.89833 -13.33333,2.13041 -13.33333,2.73797 0,2.25507 3.31634,2.99162 13.19456,2.93042 6.86913,-0.0425 9.06381,0.28042 6.80544,1.00149 -1.83333,0.58537 -5.88333,1.12412 -9,1.19721 -4.02717,0.0944 -5.66667,0.69799 -5.66667,2.086 0,3.1558 4.23537,4.55628 10.38072,3.43254 3.12219,-0.57094 5.96634,-0.56944 6.32033,0.003 0.35399,0.57278 -1.75893,1.44731 -4.69538,1.94342 -5.56877,0.94084 -6.34092,1.79904 -3.85518,4.28478 2.26266,2.26266 0.45799,3.96643 -6.73022,6.35396 -7.26124,2.4118 -10.11327,4.96643 -8.944612,8.01191 0.926452,2.41429 5.024892,2.64976 7.257682,0.41697 0.88889,-0.88889 1.6,-1.00741 1.6,-0.26666 0,0.73333 -0.65228,1.98561 -1.44951,2.78284 -2.08117,2.08117 0.19026,3.14913 8.48379,3.98886 5.08845,0.51522 10.53071,-0.24716 20.19381,-2.82882 7.27545,-1.94376 13.72545,-3.8415 14.33333,-4.21719 1.72347,-1.06516 1.30923,-6.95708 -1.09038,-15.50925 -1.60207,-5.70968 -1.79758,-8.22324 -0.72319,-9.29763 1.00627,-1.00627 2.01803,-1.04361 3.19564,-0.11787 2.86645,2.25322 14.57671,5.73246 19.29403,5.73246 2.43602,0 4.42914,0.53322 4.42914,1.18494 0,1.95771 -8.30048,2.83524 -14,1.4801 -7.74316,-1.84107 -7.7545,-1.83418 -6.80077,4.13014 0.48036,3.00402 0.49573,7.47491 0.0341,9.93531 -0.78202,4.16857 -1.57968,4.75887 -11.70297,8.66071 -14.9674,5.76892 -23.43694,6.39905 -35.01648,2.60522 -10.953792,-3.58882 -14.114248,-6.0261 -13.577043,-10.4704 0.294518,-2.43653 2.362774,-4.36601 8.044453,-7.50465 l 7.648,-4.22488 -4.14997,-3.89825 c -4.50673,-4.23335 -10.445449,-15.57031 -10.466347,-19.98017 -0.01765,-3.72421 4.230045,-8.01789 9.993977,-10.10216 4.55422,-1.64682 4.7511,-1.98192 4.5642,-7.76849 -0.10743,-3.32608 0.21631,-7.30653 0.71942,-8.84544 0.85248,-2.60752 0.29506,-2.85783 -8.18794,-3.67668 -5.006473,-0.48328 -12.020299,-1.25983 -15.586277,-1.72567 -5.923151,-0.77377 -6.42119,-0.62884 -5.761645,1.6767 0.397074,1.38801 1.138544,16.58513 1.647714,33.77139 0.509167,17.18624 1.442521,33.04954 2.074114,35.25178 1.201268,4.18858 0.923623,4.83799 -9.90465,23.16716 -4.10738,6.95262 -6.904579,8.46736 -9.971937,5.4 z M 76.074017,273.2701 c 4.629412,-9.14927 4.942115,-10.46509 3.945743,-16.60343 -0.595172,-3.66666 -1.144403,-17.76666 -1.220515,-31.33333 C 78.625308,194.32951 78.242922,192 73.327596,192 c -4.109507,0 -5.327598,-1.95149 -5.327598,-8.53526 0,-2.94322 -1.060846,-5.23956 -3.333333,-7.21547 -1.833333,-1.59407 -3.333333,-3.90503 -3.333333,-5.13547 0,-3.78214 4.118836,-7.1138 8.794628,-7.1138 2.409729,0 4.752146,-0.6 5.205372,-1.33333 0.453225,-0.73333 0.202466,-1.33333 -0.55724,-1.33333 -0.759707,0 -2.33776,-1.45976 -3.506786,-3.24392 -1.744557,-2.66254 -1.833774,-3.79763 -0.497798,-6.33334 0.895236,-1.69917 2.185293,-3.45413 2.866794,-3.89989 1.125356,-0.73608 1.384807,-12.20359 1.120451,-49.522854 l -0.09209,-13.000001 h -8.560726 c -8.282063,0 -8.583287,0.11936 -9.253816,3.666667 -0.3812,2.016667 -0.635935,15.549318 -0.566079,30.072558 l 0.127013,26.4059 3.793471,1.96168 c 4.838031,2.50184 4.883343,6.34389 0.1268,10.75173 l -3.666667,3.39787 -0.218114,50.20513 c -0.170711,39.29484 0.163585,50.92952 1.538309,53.53847 10.117232,19.20049 9.935586,18.91475 11.658402,18.34047 0.770487,-0.25683 3.663428,-4.9385 6.428759,-10.40371 z M 59.999999,249.33334 c 0,-0.73333 0.6,-1.33333 1.333333,-1.33333 0.733333,0 1.333333,0.6 1.333333,1.33333 0,0.73333 -0.6,1.33333 -1.333333,1.33333 -0.733333,0 -1.333333,-0.6 -1.333333,-1.33333 z m 0.85284,-15.48337 c -0.469063,-3.42219 -0.756976,-15.58842 -0.63981,-27.03606 L 60.42606,186 l 0.950363,18.66667 c 0.5227,10.26667 1.135785,22.10772 1.362409,26.31346 0.508489,9.43657 -0.728027,11.31812 -1.885993,2.86984 z m -0.85284,-96.51663 c 0,-0.73334 0.63541,-1.33334 1.412022,-1.33334 0.776612,0 1.041203,0.6 0.587978,1.33334 -0.453226,0.73333 -1.088635,1.33333 -1.412023,1.33333 -0.323388,0 -0.587977,-0.6 -0.587977,-1.33333 z m 1,-11.43048 c -0.55,-0.55768 -0.920274,-7.96397 -0.822831,-16.45841 l 0.177169,-15.444448 1.199512,11.333338 c 1.303271,12.31367 1.037528,22.18313 -0.55385,20.56952 z m 173.333331,74.3442 c 3.07736,-3.85914 1.70766,-4.08224 -4.33334,-0.70587 -3.3,1.84441 -6,3.58717 -6,3.8728 0,1.38116 8.87575,-1.33905 10.33334,-3.16693 z m 32.67657,-25.23322 c 1.28879,-1.16145 3.17513,-3.77932 4.19191,-5.81746 1.63588,-3.2792 1.58429,-3.94498 -0.44823,-5.78439 -2.84917,-2.57845 -3.76176,-2.59428 -6.24769,-0.1084 -1.08367,1.08367 -3.08142,2.74856 -4.43946,3.69976 -2.08846,1.46283 -3.41312,6.44356 -2.87438,10.80783 0.20314,1.64576 7.05344,-0.30608 9.81785,-2.79738 z m -12.34324,-3.6805 c 0,-1.83334 -0.6,-3.33334 -1.33333,-3.33334 -0.73334,0 -1.33334,1.5 -1.33334,3.33334 0,1.83333 0.6,3.33333 1.33334,3.33333 0.73333,0 1.33333,-1.5 1.33333,-3.33333 z m -10.63367,-4.0868 C 245.8711,162.41196 245.64845,160 243.36406,160 c -2.61011,0 -6.52952,6.11035 -5.55252,8.65638 1.21336,3.16194 4.79155,2.35109 6.22145,-1.40984 z m 4.75154,-2.90646 c -1.45654,-1.45653 -2.45531,0.85982 -1.40958,3.26908 0.99158,2.2845 1.06346,2.28242 1.61592,-0.0468 0.318,-1.34073 0.22515,-2.79073 -0.20634,-3.22222 z m -125.4512,-1.78452 c 0,-1.03889 -1.35,-2.08062 -3,-2.31496 -3.2367,-0.45968 -4.33502,3.00318 -1.33333,4.20384 2.52192,1.00878 4.33333,0.21919 4.33333,-1.88888 z m -65.442381,-6.03154 c 2.958971,-1.13547 2.714888,-5.85735 -0.302777,-5.85735 -3.407468,0 -7.511212,3.30048 -6.37985,5.13107 1.04951,1.69813 3.46569,1.96073 6.682627,0.72628 z m 222.006441,-7.29307 c 0.79843,-3.72297 2.05578,-7.89779 2.7941,-9.27735 1.05608,-1.97329 0.78869,-2.80464 -1.25356,-3.89761 -3.24278,-1.73548 -9.46126,-1.76424 -12.1046,-0.056 -1.44846,0.93607 -0.27516,1.29813 4.25464,1.31292 3.44005,0.0107 6.68388,0.71493 7.20849,1.56377 0.66597,1.07756 -0.003,1.29331 -2.21444,0.71484 -1.74256,-0.45569 -4.60437,-0.46809 -6.35959,-0.0276 -2.88288,0.72355 -3.12037,1.32962 -2.45752,6.27154 0.66907,4.98822 4.54224,10.16449 7.60564,10.16449 0.59132,0 1.7284,-3.04607 2.52684,-6.76905 z m 5.43594,-21.88106 c 0,-5.37129 -2.42528,-10.01655 -5.22962,-10.01655 -4.3012,0 -9.40776,3.33097 -10.67366,6.96234 -2.27287,6.51995 -1.83876,7.69179 2.90328,7.83723 2.38333,0.0731 5.83333,0.57858 7.66666,1.1233 4.69527,1.39505 5.33334,0.68842 5.33334,-5.90632 z m -170.57901,-8.73013 c 3.04115,-1.62758 3.40937,-3.95309 0.62592,-3.95309 -1.0742,0 -2.59531,1.2 -3.38024,2.66667 -1.60654,3.00185 -0.98949,3.29004 2.75432,1.28642 z M 96.666665,81.333335 c 0.453225,-0.733333 0.188634,-1.333333 -0.587978,-1.333333 -0.776612,0 -1.412022,0.6 -1.412022,1.333333 0,0.733334 0.264589,1.333334 0.587977,1.333334 0.323388,0 0.958797,-0.6 1.412023,-1.333334 z M 104,78.34015 c 0,-0.74377 -0.88435,-0.599392 -2,0.326518 -1.1,0.912919 -2.000002,2.259852 -2.000002,2.993186 0,0.743769 0.884342,0.599392 2.000002,-0.326519 1.1,-0.912919 2,-2.259852 2,-2.993185 z M 23.706927,78.080539 c 4.060132,-4.282437 1.218831,-6.081747 -3.138965,-1.987811 -1.779045,1.671328 -3.234629,3.53419 -3.234629,4.139692 0,2.148859 3.37712,1.00866 6.373594,-2.151881 z m 6.181806,1.061959 c 0.462386,-1.204962 0.54108,-2.490462 0.174873,-2.856668 -0.851137,-0.851138 -4.730273,2.328612 -4.730273,3.877432 0,2.070731 3.686032,1.244773 4.5554,-1.020764 z m 5.861266,-0.392496 c 0.333334,-1 -0.166666,-1.5 -1.166666,-1.166667 -0.9625,0.320833 -2.0125,1.370833 -2.333334,2.333333 -0.333333,1 0.166667,1.5 1.166667,1.166667 0.9625,-0.320833 2.0125,-1.370833 2.333333,-2.333333 z m 6.25,1.25 c 0.453225,-0.733334 -0.446775,-1.333334 -2,-1.333334 -1.553225,0 -2.453225,0.6 -2,1.333334 0.453225,0.733333 1.353225,1.333333 2,1.333333 0.646775,0 1.546775,-0.6 2,-1.333333 z m 7.333333,0 c 0,-0.733334 -0.93541,-1.333334 -2.078689,-1.333334 -1.143279,0 -1.707869,0.6 -1.254644,1.333334 0.453225,0.733333 1.388635,1.333333 2.078689,1.333333 0.690055,0 1.254644,-0.6 1.254644,-1.333333 z m 60.524018,-2.10905 c 1.25163,-3.261706 0.98026,-3.692676 -1.19069,-1.89095 -2.2165,1.839533 -2.65363,4 -0.80931,4 0.65487,0 1.55487,-0.949072 2,-2.10905 z M 15.239684,69.763255 c 0.965593,-2.516299 -2.424415,-0.708237 -4.298458,2.292583 -1.5406666,2.467001 -1.4640629,2.543604 1.002937,1.002937 1.469055,-0.91744 2.952039,-2.400424 3.295521,-3.29552 z m 54.066608,-7.096587 c -0.01227,-1.777777 -0.165095,-1.777777 -1.375499,0 -0.748937,1.1 -2.267306,3.8 -3.374156,6 l -2.012452,4 3.387951,-4 c 1.863372,-2.2 3.381742,-4.9 3.374156,-6 z m -3.802887,-1 c 1.658495,-2.114741 1.611335,-2.161901 -0.503406,-0.503407 -2.220998,1.741826 -2.927306,2.83674 -1.829927,2.83674 0.276875,0 1.326875,-1.05 2.333333,-2.333333 z m 7.785569,-16.333334 c -0.01691,-2.262808 -2.972348,1.081967 -9.425077,10.666667 l -4.039394,6 6.739705,-7.333333 c 3.706838,-4.033334 6.732984,-8.233334 6.724766,-9.333334 z m -4.814965,0.187059 c 3.560705,-4.592581 6.183165,-8.640994 5.827688,-8.996471 -1.225676,-1.225676 -15.622968,16.148479 -15.586634,18.809413 0.03193,2.33845 0.236326,2.412538 1.660673,0.601937 0.893345,-1.135601 4.537567,-5.822296 8.098273,-10.414879 z m -6.453557,0.261265 c 1.279932,-1.953421 4.736665,-6.165693 7.681632,-9.360604 2.944965,-3.194911 5.045964,-6.117449 4.668884,-6.494529 -0.786691,-0.78669 -13.738689,13.06736 -15.776777,16.875563 -2.077639,3.882102 0.769622,3.034116 3.426261,-1.02043 z m -0.842451,-10.88038 5.844668,-7.567944 -6.844668,6.616544 c -6.40397,6.190535 -8.208562,8.851436 -5.844669,8.618067 0.55,-0.05429 3.630101,-3.504297 6.844669,-7.666667 z m -7.178002,2.432056 c 0.453225,-0.733333 0.224045,-1.333333 -0.509288,-1.333333 -0.733334,0 -1.704153,0.6 -2.157379,1.333333 -0.453225,0.733334 -0.224045,1.333334 0.509288,1.333334 0.733333,0 1.704153,-0.6 2.157379,-1.333334 z m 7.903228,-9 c 6.763759,-7.554188 5.495087,-7.232196 -1.958951,0.497185 -3.269352,3.390119 -5.307643,5.940119 -4.529533,5.666667 0.778109,-0.273452 3.697926,-3.047185 6.488484,-6.163852 z M 143.33333,209.33334 C 142.8801,208.6 143.4801,208 144.66666,208 c 1.18656,0 1.78656,0.6 1.33334,1.33334 -0.45323,0.73333 -1.05323,1.33333 -1.33334,1.33333 -0.2801,0 -0.8801,-0.6 -1.33333,-1.33333 z m 55.33333,-10.5093 c 0,-0.73333 0.6,-1.70414 1.33334,-2.15737 0.73333,-0.45323 1.33333,-0.22404 1.33333,0.50929 0,0.73334 -0.6,1.70415 -1.33333,2.15738 -0.73334,0.45322 -1.33334,0.22404 -1.33334,-0.5093 z m -88,-20.82404 c 0,-1.1 0.6,-2 1.33334,-2 0.73333,0 1.33333,0.9 1.33333,2 0,1.1 -0.6,2 -1.33333,2 -0.73334,0 -1.33334,-0.9 -1.33334,-2 z m 46.66667,-36.46384 c 0,-0.72164 2.55,-3.23192 5.66667,-5.5784 3.11666,-2.34648 8.87453,-7.64689 12.79525,-11.77871 3.92072,-4.13181 6.52039,-6.29463 5.77704,-4.80627 -3.11919,6.24533 -24.23896,25.55662 -24.23896,22.16338 z m -22.45328,-12.39255 c -5.55949,-8.49974 -4.29919,-10.56434 5.68001,-9.30488 7.87083,0.99337 10.06667,4.16127 2.88438,4.16127 -5.24087,0 -5.66615,0.71334 -2.73538,4.58818 2.39362,3.16464 2.56122,7.4205 0.29094,7.38786 -0.91667,-0.0133 -3.67064,-3.08777 -6.11995,-6.83243 z M 86.666665,124.5689 c 0,-1.24165 0.90716,-1.92183 2.222845,-1.66666 3.345025,0.64873 3.804325,3.76443 0.554932,3.76443 -1.637783,0 -2.777777,-0.86092 -2.777777,-2.09777 z"
       style="fill:#000000;stroke-width:1.33333" />
  </g>
</svg>
