<?xml version="1.0" encoding="UTF-8" standalone="no"?>
<svg
   xmlns:dc="http://purl.org/dc/elements/1.1/"
   xmlns:cc="http://creativecommons.org/ns#"
   xmlns:rdf="http://www.w3.org/1999/02/22-rdf-syntax-ns#"
   xmlns:svg="http://www.w3.org/2000/svg"
   xmlns="http://www.w3.org/2000/svg"
   xmlns:sodipodi="http://sodipodi.sourceforge.net/DTD/sodipodi-0.dtd"
   xmlns:inkscape="http://www.inkscape.org/namespaces/inkscape"
   inkscape:version="1.0 (4035a4fb49, 2020-05-01)"
   sodipodi:docname="fun.jpg"
   viewBox="0 0 320 384"
   height="384"
   width="320"
   id="svg6985"
   version="1.1">
  <style
     id="style7558"></style>
  <metadata
     id="metadata6991">
    <rdf:RDF>
      <cc:Work
         rdf:about="">
        <dc:format>image/svg+xml</dc:format>
        <dc:type
           rdf:resource="http://purl.org/dc/dcmitype/StillImage" />
        <dc:title></dc:title>
      </cc:Work>
    </rdf:RDF>
  </metadata>
  <defs
     id="defs6989" />
  <sodipodi:namedview
     inkscape:current-layer="g6993"
     inkscape:window-maximized="0"
     inkscape:window-y="33"
     inkscape:window-x="10"
     inkscape:cy="26.448743"
     inkscape:cx="501.84972"
     inkscape:zoom="1.0165843"
     showgrid="false"
     id="namedview6987"
     inkscape:window-height="1035"
     inkscape:window-width="1898"
     inkscape:pageshadow="2"
     inkscape:pageopacity="0"
     guidetolerance="10"
     gridtolerance="10"
     objecttolerance="10"
     borderopacity="1"
     bordercolor="#666666"
     pagecolor="#ffffff" />
  <g
     id="g6993"
     inkscape:label="Image"
     inkscape:groupmode="layer">
    <path
       id="path7562"
       d="m 180.32006,348.82016 19.73747,-12.49127 -0.86673,-79.73125 -34.73048,-9.87579 -15.26143,-24.6283 -12.94534,4.7196 -22.65631,9.44762 -48.900058,5.54658 -13.493857,9.28335 -6.058711,-5.21228 1.614472,-13.86682 -23.688,-2.16264 -7.030095,-11.95333 c 0,0 13.234378,-10.79688 13.180605,-12.24317 -0.05377,-1.44629 2.26225,-10.903 3.898796,-11.02188 1.636545,-0.11887 26.250752,15.56592 26.250752,15.56592 l 39.649028,-3.6965 2.002278,-1.82886 -8.025247,-14.2707 -4.615726,-16.03493 11.737223,-36.36536 -1.964138,-11.62442 -28.839657,-23.18026 -29.659118,15.01234 -10.43955,-10.99941 -1.0812,-12.483022 16.8218,-25.398123 33.347238,-15.158218 44.055385,43.938527 12.56615,-1.351349 36.78719,-9.403922 -2.34801,-48.154481 16.77669,-16.495174 42.00007,-4.187508 5.83514,10.608308 -14.08473,17.047044 -3.3457,5.966296 2.01759,3.846622 51.21924,-28.675042 28.0536,0.440306 2.39348,16.911524 -46.47181,24.875375 -35.73663,12.130611 1.25696,15.949029 35.65214,6.303397 26.03829,26.58467 2.76059,37.12464 -6.5969,13.83757 -13.83651,6.37528 12.5673,17.79566 -1.66629,21.86163 -14.68827,16.53095 -28.1436,14.90325 -6.12313,0.49865 c 0,0 -0.16187,24.44217 -0.043,26.04697 0.11888,1.6048 1.41353,50.1577 1.41353,50.1577 l 18.26735,7.84006 3.74018,8.61765 -16.37295,3.84593 -7.10181,11.32091 -6.8283,-0.63497 -13.03465,-13.19725 -13.7993,4.58732 z"
       style="fill:#f7b22c;stroke-width:0;stroke-linecap:round;stroke-opacity:0.996591" />
    <path
       id="path7564"
       d="m 119.08289,207.92123 -10.24047,-24.71157 10.493,-35.74874 33.18249,-33.31546 36.54315,-14.53654 26.82316,-1.013407 29.76598,3.489757 c 0,0 24.42572,13.07665 26.18175,14.04052 1.75603,0.96388 10.58923,24.51702 10.58923,24.51702 l 1.80482,36.32419 -10.57797,5.23091 -28.93293,1.75435 1.34597,13.69022 0.42638,13.70308 -21.99236,0.1675 12.01321,-19.37987 -7.27996,-8.06298 -53.29291,9.27525 -18.2969,22.5716 -6.42445,5.02619 -19.34471,1.85395 z"
       style="fill:#ffffff;stroke-width:0;stroke-linecap:round;stroke-opacity:0.996591" />
    <path
       id="path7560"
       d="m 219.04,371.2873 c -0.528,-0.0753 -1.32,-0.45716 -1.76,-0.84868 -0.44,-0.39152 -1.64019,-1.25392 -2.66708,-1.91648 -1.02689,-0.66256 -2.10689,-1.65401 -2.4,-2.20323 -0.29311,-0.54921 -0.85627,-1.33757 -1.25148,-1.75187 -0.86114,-0.90272 -1.44869,-2.00096 -2.3284,-4.35219 -1.42837,-3.81763 -6.08244,-4.16707 -12.31304,-0.92445 -3.74655,1.94986 -13.01239,1.53821 -15.13419,-0.67235 -2.87809,-2.99853 -2.57054,-12.18739 0.51561,-15.40531 0.85069,-0.88701 1.79895,-2.02058 2.10725,-2.51904 0.38324,-0.61962 1.43836,-1.30557 3.33593,-2.16868 2.85937,-1.30057 2.96172,-1.3551 4.25051,-2.26508 0.42069,-0.29703 1.82586,-0.82314 3.1226,-1.16912 3.75845,-1.00285 3.37894,1.51731 3.56321,-23.66192 0.12433,-16.98839 0.0676,-22.57107 -0.24939,-24.5489 -0.3195,-1.99333 -0.33033,-3.23292 -0.0489,-5.6 0.19878,-1.672 0.38522,-4.912 0.41432,-7.2 0.0665,-5.23168 0.66687,-6.52215 3.28186,-7.05464 3.15343,-0.64213 3.37665,-0.23241 3.62184,6.64801 0.26168,7.34311 0.65756,7.57871 10.49861,6.24794 5.37186,-0.72641 6.45165,-1.8994 6.69445,-7.27226 0.29714,-6.5751 5.22094,-7.04092 5.22977,-0.49477 0.002,1.41115 0.20355,3.22491 0.4481,4.03059 0.60317,1.98714 0.70733,3.80944 0.39383,6.89036 -0.2355,2.31438 -0.19164,2.73722 0.40527,3.90725 0.79522,1.55876 0.83105,2.54969 0.16988,4.69752 -0.39928,1.29707 -0.47564,3.11467 -0.40333,9.6 0.15149,13.58492 0.0882,22.59238 -0.18012,25.62941 -0.36824,4.16829 2.55413,7.46896 7.00598,7.91293 2.40114,0.23945 4.42059,0.93872 5.61617,1.94473 0.50649,0.42621 1.68136,1.02663 2.61083,1.33431 0.92946,0.30771 2.44685,1.17475 3.37198,1.92681 0.92513,0.75203 2.50913,1.67677 3.52,2.05498 4.27682,1.60003 7.19103,6.09014 6.18405,9.52819 -0.34468,1.1768 -1.60637,3.36595 -2.04348,3.54563 -0.15655,0.0643 -0.73868,0.50672 -1.29363,0.98301 -0.6209,0.5329 -1.74749,1.02355 -2.92899,1.27565 -1.056,0.22531 -2.712,0.86297 -3.68,1.41699 -1.76,1.00736 -1.76,1.00736 -7.56449,1.00736 -6.79053,0 -6.7209,-0.0291 -7.82218,3.28016 -0.78306,2.35309 -2.30404,4.0792 -5.65635,6.41917 -2.67995,1.87069 -3.76707,2.15699 -6.63698,1.74797 z m 5.87248,-10.73626 c 1.44003,-0.68835 1.51596,-0.79718 2.37808,-3.4089 2.06816,-6.26531 4.91782,-7.88012 10.74315,-6.08784 3.00444,0.92436 4.20629,0.28653 4.20629,-2.23238 0,-1.58128 -0.45232,-1.91142 -4,-2.91955 -1.408,-0.40013 -2.77666,-0.91018 -3.04147,-1.13347 -0.26481,-0.22327 -2.18652,-1.136 -4.27047,-2.02832 -3.92597,-1.68103 -4.63841,-2.11783 -7.25562,-4.44852 -1.60188,-1.42652 -1.84848,-2.81465 -1.11779,-6.29206 0.52939,-2.51939 0.22991,-26.69365 -0.34529,-27.87184 -1.13962,-2.33428 -5.78975,-2.9497 -9.18656,-1.21578 -0.91454,0.46683 -2.8868,1.18783 -4.3828,1.60221 -4.83879,1.34031 -5.40188,3.92605 -3.9696,18.22861 1.03243,10.30966 0.60235,12.30864 -3.54426,16.47354 -1.82745,1.83552 -2.37928,2.18832 -4.40757,2.81782 -6.98845,2.16893 -10.16496,5.82813 -7.43191,8.56118 1.13852,1.13853 2.92452,0.99837 10.25476,-0.80483 8.90101,-2.18957 8.11101,-2.09654 10.1496,-1.19497 1.78005,0.7872 1.78005,0.7872 4.21894,5.69564 3.63748,7.32071 5.98649,8.65706 11.00252,6.25946 z m -5.68458,-62.95351 c 1.93621,-0.52626 2.34836,-1.23492 1.69682,-2.91754 -1.14334,-2.9527 -3.00348,-3.58794 -6.4864,-2.21509 -0.87196,0.34369 -2.78529,0.86343 -4.25185,1.15497 -5.0043,0.99482 -6.73041,2.85646 -3.79386,4.09173 1.05708,0.44467 11.10825,0.35534 12.83529,-0.11407 z m -8.06588,-9.58142 c 1.51689,-0.51914 3.76598,-1.10221 4.99798,-1.29571 7.08772,-1.11321 5.59092,-3.28225 -2.52104,-3.65327 -5.22898,-0.23915 -5.83459,-0.13601 -6.99896,1.19207 -0.65127,0.74282 -0.66861,0.93687 -0.22616,2.53 0.66859,2.40734 1.02782,2.50017 4.74818,1.22691 z M 219.68,262.05062 c -0.704,-0.1648 -3.944,-0.37689 -7.2,-0.47131 -4.26994,-0.12383 -6.78542,-0.35871 -9.02492,-0.8427 -2.67436,-0.57797 -3.35848,-0.6201 -4.93337,-0.30381 -3.62292,0.72758 -6.47917,0.33498 -7.80125,-1.07231 -0.41361,-0.44027 -0.86135,-0.80049 -0.99498,-0.80049 -0.13362,0 -0.99583,-0.468 -1.916,-1.04 -1.58813,-0.98721 -1.8369,-1.04131 -4.90127,-1.06577 -2.42147,-0.0193 -3.74801,-0.20077 -5.30821,-0.72608 -1.144,-0.38518 -3.448,-0.91172 -5.12,-1.17009 -1.84565,-0.28521 -3.79432,-0.82699 -4.96,-1.37902 -1.056,-0.50009 -3.04318,-1.44125 -4.41596,-2.09148 -2.20161,-1.04282 -4.43777,-2.73829 -7.58404,-5.75025 -4.09653,-3.92168 -6.72,-9.33836 -6.72,-13.87479 0,-2.87064 -1.18881,-3.99527 -3.84,-3.63271 -0.85799,0.11734 -1.91921,1.37887 -2.27668,2.70641 -0.92681,3.44192 -3.81961,4.63653 -13.56332,5.6011 -1.232,0.12196 -3.392,0.59576 -4.8,1.05288 -4.68546,1.52118 -9.05981,2.12942 -14.08,1.95778 -7.63107,-0.2609 -13.583856,0.28122 -15.603456,1.42101 -1.623616,0.91631 -3.558659,1.3587 -8.076544,1.84646 -1.056,0.114 -2.28,0.39883 -2.72,0.63296 -1.431824,0.76187 -4.601216,1.13848 -7.730038,0.91855 -2.472679,-0.17381 -3.509213,-0.0906 -5.876116,0.47187 -6.589222,1.56578 -7.97832,2.09386 -9.044598,3.43841 -0.478086,0.60286 -1.445248,1.47364 -2.149248,1.93507 -0.704,0.46144 -1.496,1.03861 -1.76,1.28261 -3.906624,3.61066 -10.973763,4.57553 -13.681382,1.86791 -1.580272,-1.58027 -1.642765,-2.37488 -0.755232,-9.60283 0.598067,-4.87057 -0.742288,-6.22099 -6.533392,-6.58244 -1.941504,-0.12119 -4.317504,-0.37413 -5.28,-0.56211 -0.962497,-0.18798 -3.752574,-0.5055 -6.200173,-0.70561 -5.231261,-0.4277 -5.504641,-0.51312 -7.478652,-2.33681 -0.831143,-0.76785 -1.788396,-1.54575 -2.12723,-1.72866 -0.626227,-0.33805 -2.887954,-5.0833 -3.395683,-7.12437 -0.32171,-1.29327 -0.209755,-1.94491 0.824671,-4.8 0.414482,-1.144 0.854504,-2.64849 0.977828,-3.34331 0.269244,-1.51695 4.134217,-5.43345 6.519078,-6.60599 3.650299,-1.79469 5.378959,-4.35843 4.965548,-7.36428 -1.118747,-8.13426 6.268061,-14.32156 11.936405,-9.99811 0.712233,0.54325 1.902956,1.01638 3.145619,1.2499 3.342998,0.62822 4.793795,1.72759 7.962595,6.03382 0.420342,0.57122 1.11624,0.97507 2.027578,1.17666 1.488572,0.32927 4.852422,2.30789 4.852422,2.8542 0,0.18195 0.396,0.49959 0.88,0.70585 0.484,0.20626 1.096,0.54828 1.36,0.76006 2.198368,1.76349 6.019325,2.03082 23.36,1.63435 15.530214,-0.35508 18.653709,-1.21506 15.855674,-4.36551 -0.800621,-0.90145 -1.455789,-1.8862 -1.455927,-2.18832 -3.71e-4,-0.80934 -1.836131,-4.54932 -2.233021,-4.54932 -0.187244,0 -0.501049,-0.396 -0.697344,-0.88 -0.196291,-0.484 -1.004268,-2.32 -1.795507,-4.08 -0.791235,-1.76 -1.560489,-3.488 -1.709449,-3.84 -2.709485,-6.40256 -2.090861,-28.66797 0.958528,-34.49938 0.477612,-0.91334 1.211667,-2.58409 1.631235,-3.71278 0.419571,-1.12868 1.267174,-2.71268 1.883565,-3.52 1.151292,-1.50789 2.243523,-4.52515 3.058787,-8.4498 0.53119,-2.55716 -0.605322,-5.22912 -3.877575,-9.11625 C 91.324534,126.31177 90.56,125.28524 90.56,125.14061 c 0,-0.14463 -0.396,-0.43073 -0.88,-0.63576 -0.484,-0.20504 -1.228525,-0.93551 -1.654499,-1.62327 -0.439642,-0.70982 -1.364877,-1.56366 -2.140003,-1.97487 -0.751024,-0.39841 -1.517303,-1.05756 -1.702842,-1.46477 -0.185536,-0.40722 -0.821546,-1.02608 -1.413354,-1.37525 -0.591804,-0.34918 -1.683532,-1.35535 -2.426057,-2.23594 -1.148323,-1.36184 -1.644867,-1.68304 -3.323127,-2.14964 -1.682812,-0.46787 -2.243446,-0.8318 -3.810864,-2.47385 -2.694432,-2.82273 -7.838992,-2.45913 -11.560969,0.81709 -0.792707,0.69777 -1.991859,1.49848 -2.664784,1.77936 -0.672925,0.28088 -1.914202,1.06031 -2.758391,1.73206 -1.008176,0.80225 -2.564787,1.56449 -4.536112,2.22123 -1.650675,0.54992 -3.173606,1.20757 -3.384294,1.46143 -0.210688,0.25386 -0.617437,0.46164 -0.903885,0.46173 -0.286451,9e-5 -1.312819,0.30765 -2.280819,0.68348 -3.299856,1.28116 -12.508282,1.09839 -14.72,-0.29216 -4.69955,-2.95471 -7.195846,-9.53464 -6.097196,-16.07148 0.192272,-1.144 0.483715,-3.88 0.647651,-6.08 0.301603,-4.047472 1.277922,-8.179235 2.082023,-8.811082 0.576681,-0.453145 1.318146,-2.304896 1.745266,-4.358672 0.270849,-1.302355 0.735676,-2.155264 1.948967,-3.576156 C 31.60302,80.14784 32.32,79.104256 32.32,78.855011 c 0,-0.249241 0.476509,-0.993581 1.058909,-1.654089 0.5824,-0.660506 1.736025,-2.104669 2.563613,-3.209245 0.827587,-1.104579 2.233376,-2.688579 3.123977,-3.52 0.890602,-0.831424 2.364976,-2.247907 3.276387,-3.147747 0.911412,-0.899837 2.341696,-1.935997 3.17841,-2.30258 0.990003,-0.43374 1.629837,-0.951984 1.83208,-1.483929 C 47.575565,62.953018 47.898998,62.72 48.487971,62.72 c 1.120666,0 2.33432,-0.697168 3.672029,-2.10935 1.02791,-1.085136 3.809955,-2.680064 4.687869,-2.687524 0.202326,-0.0016 1.134451,-0.579126 2.071389,-1.283126 0.936934,-0.704 1.923395,-1.280115 2.192131,-1.280253 0.869798,-3.2e-4 4.545641,-1.905939 5.143904,-2.666509 0.691017,-0.878486 2.326285,-1.412803 6.224707,-2.033888 8.48985,-1.352585 11.307373,-0.718515 14.546342,3.273584 0.8888,1.095463 2.659472,2.9748 3.934829,4.176308 2.662538,2.508364 4.040589,4.28542 4.437261,5.722051 0.373363,1.352208 3.740762,5.302848 5.181168,6.078557 0.63693,0.343011 1.31236,0.989616 1.50096,1.436902 0.1886,0.447286 0.91725,1.221194 1.61924,1.719798 0.70198,0.498602 1.63402,1.578602 2.0712,2.4 0.78726,1.479136 3.74863,5.103984 6.18724,7.57345 0.6952,0.704 1.35895,1.604778 1.475,2.001728 0.38793,1.327005 1.87601,2.714058 3.87297,3.610032 1.08825,0.488266 2.07021,1.03592 2.18213,1.217008 0.11192,0.181091 1.01141,0.564128 1.99888,0.85119 1.31662,0.382752 2.24912,0.951053 3.49688,2.13114 2.76334,2.613452 5.28739,2.735552 8.65163,0.418515 1.02736,-0.707575 2.64088,-1.423431 4.03092,-1.788378 1.27482,-0.334688 3.25733,-1.04871 4.4056,-1.586713 2.06787,-0.968871 10.0348,-3.174522 11.46654,-3.174522 0.40881,0 1.04227,-0.160013 1.4077,-0.355587 3.85099,-2.060986 17.13613,-2.320531 17.64096,-0.344643 0.97142,3.802099 0.26942,4.465507 -6.02745,5.696118 -4.48964,0.877421 -5.28941,1.061926 -6.74466,1.556 -0.78378,0.266096 -2.46686,0.641824 -3.74019,0.834944 -5.31398,0.805952 -10.68093,2.219763 -13.83515,3.644576 -1.76,0.795021 -3.39378,1.446192 -3.63063,1.447043 -0.46315,0.0016 -1.57933,0.569187 -3.93255,1.999509 -1.63278,0.99243 -6.2577,2.77545 -7.84948,3.02617 -1.28311,0.20211 -5.18979,-1.7746 -6.38045,-3.22839 -0.44853,-0.54766 -1.58687,-1.49974 -2.52965,-2.11574 -4.28336,-2.79872 -6.82623,-5.084794 -8.00949,-7.200662 -0.63733,-1.139652 -1.58269,-2.373946 -2.10081,-2.742877 -0.51811,-0.368928 -1.43769,-1.445635 -2.04351,-2.392679 -0.60581,-0.947043 -1.6893,-2.092969 -2.40774,-2.546505 -0.71845,-0.453533 -1.38884,-1.039783 -1.48975,-1.302778 -0.10093,-0.262992 -0.56205,-0.676291 -1.02472,-0.918438 C 98.980128,80.802026 95.831021,77.711248 95.022138,76.064765 92.786669,71.514448 85.973786,63.354381 83.222179,61.931469 82.681981,61.652122 82.24,61.296832 82.24,61.141939 c 0,-0.668515 -3.085786,-2.264067 -5.355117,-2.768944 -3.317513,-0.73808 -8.586499,0.436314 -10.841814,2.416506 -0.605232,0.531401 -1.899773,1.176877 -2.924496,1.458192 -2.273927,0.624256 -4.777117,1.724483 -5.267322,2.315145 -0.20263,0.244154 -1.242054,0.841236 -2.309833,1.326848 -1.06778,0.485613 -2.589418,1.499136 -3.381418,2.252276 -0.792,0.753136 -1.872,1.558435 -2.4,1.789555 -0.528,0.231117 -1.520429,0.998064 -2.205395,1.704329 -0.684967,0.706263 -1.655693,1.454068 -2.157171,1.661786 -0.501476,0.207718 -1.222026,0.900726 -1.601223,1.540019 -0.379197,0.639293 -1.35247,1.841728 -2.162832,2.672077 -4.260253,4.36536 -4.574787,4.802982 -5.68896,7.915299 -0.595606,1.663763 -1.322413,3.289658 -1.615123,3.613101 -2.00288,2.213155 -3.191865,16.048392 -1.522634,17.717622 1.190941,1.19094 4.633338,-0.14775 4.633338,-1.80184 0,-0.47799 2.834317,-1.91391 3.777802,-1.91391 1.833884,0 2.428441,2.36541 0.917964,3.6521 -1.395139,1.18843 -1.925926,3.87202 -0.957411,4.84054 1.252925,1.25292 11.171325,-1.4294 13.792781,-3.73012 0.578122,-0.50738 1.250186,-0.92252 1.493469,-0.92252 0.984118,0 3.531872,-1.36744 5.085529,-2.72951 0.907424,-0.79554 2.237962,-1.73212 2.956746,-2.08129 0.718781,-0.34917 1.643882,-0.99359 2.055779,-1.43203 0.411895,-0.43844 0.850355,-0.79717 0.974352,-0.79717 1.380128,0 6.189367,-4.336867 10.012749,-9.029274 2.185443,-2.682179 5.149338,-3.864595 5.947731,-2.372787 0.650368,1.215226 0.298336,1.90104 -1.417769,2.762061 -1.052064,0.52785 -1.737108,1.126579 -2.013735,1.76 -0.735795,1.684832 -0.907933,1.911613 -1.773555,2.336528 -1.090195,0.535152 -1.42424,1.81136 -0.761536,2.909437 0.818816,1.356755 1.670534,1.237709 2.820864,-0.394275 0.58673,-0.8324 1.521744,-1.662125 2.236006,-1.984212 0.957223,-0.431648 1.322813,-0.839219 1.659917,-1.850524 0.535082,-1.605245 1.61489,-2.079274 3.470211,-1.523408 1.407751,0.421772 1.629098,1.17704 0.614154,2.095552 -0.345376,0.31256 -0.794224,1.090876 -0.997443,1.729596 -0.203219,0.638717 -0.867584,1.682583 -1.476365,2.3197 -1.782614,1.865586 -2.254042,5.087896 -0.926787,6.334786 1.197913,1.12538 1.857597,0.76966 2.591085,-1.3972 1.067296,-3.15299 7.259833,-7.921609 8.576803,-6.604639 0.15279,0.15279 -0.0013,0.468448 -0.347187,0.711625 -0.341978,0.240368 -0.859389,1.255588 -1.149802,2.256039 -0.335626,1.156215 -0.833005,2.058905 -1.365034,2.477395 -0.460355,0.36212 -1.196099,1.34357 -1.634982,2.181 -0.438883,0.83743 -1.086544,1.83861 -1.439245,2.22483 -1.456141,1.59457 -0.503465,4.4434 2.77592,8.30097 3.394464,3.99295 5.441514,6.55701 6.119834,7.66552 0.362361,0.59217 1.226365,1.6436 1.919995,2.33652 5.0714,5.06615 5.36667,6.48136 2.51328,12.04622 -0.98333,1.91776 -2.21622,4.02767 -2.73976,4.68868 -1.731442,2.18614 -1.823336,4.42631 -0.1811,4.41496 0.90702,-0.006 1.23746,-0.25986 1.82874,-1.40349 0.55649,-1.07633 0.9595,-1.33799 2.74453,-1.78195 0.83911,-0.2087 1.45104,-0.5982 1.71516,-1.09171 0.84884,-1.58607 4.69922,-2.37589 5.56394,-1.14132 0.6222,0.88831 0.50436,1.10344 -1.03443,1.88847 -0.90564,0.46202 -1.34377,0.9731 -1.75313,2.045 -0.46454,1.21638 -0.79645,1.54773 -2.23044,2.22669 -1.45309,0.68801 -1.73876,0.97813 -2.078,2.11044 -0.37017,1.23549 -0.46437,1.31277 -1.60037,1.31277 -1.66612,0 -3.88726,1.10997 -3.88726,1.94258 0,0.3562 -0.649741,1.30671 -1.443866,2.11223 -2.612646,2.65014 -2.457987,4.71157 0.258592,3.44677 0.915901,-0.42643 1.893154,-0.77674 2.171664,-0.77845 0.27851,-0.002 0.85451,-0.53121 1.28,-1.17664 0.59079,-0.89619 1.14069,-1.27888 2.32698,-1.61941 1.35695,-0.38952 1.61631,-0.60616 2.05119,-1.71325 0.59852,-1.52366 1.48479,-1.84315 3.56767,-1.28606 1.87539,0.50159 1.88777,0.52255 0.91883,1.55557 -0.45226,0.48216 -1.19645,1.62528 -1.65375,2.54026 -0.57258,1.14561 -1.16058,1.81978 -1.88845,2.16517 -0.58134,0.27586 -1.32303,0.96725 -1.64821,1.5364 -1.11209,1.94648 -2.12998,2.79446 -3.36052,2.79955 -1.61941,0.007 -2.608863,0.62531 -3.022287,1.88955 -0.249958,0.76435 -0.647273,1.1985 -1.317843,1.44 -1.646986,0.59314 -2.100557,0.99416 -2.171418,1.91981 -0.152089,1.98668 2.096388,1.92378 3.228378,-0.0903 1.31797,-2.34501 6.78304,-2.41922 6.78304,-0.0921 0,0.74593 -0.89621,1.96835 -1.44309,1.96835 -0.94729,0 -2.00866,0.74546 -2.48572,1.74586 -0.28737,0.60262 -1.01303,1.31107 -1.71724,1.67652 -0.699169,0.36284 -1.806574,1.4404 -2.595198,2.52526 -2.769645,3.81002 -2.686838,3.61379 -2.486461,5.89236 0.579168,6.58593 1.041459,7.2494 4.828189,6.92931 4.40903,-0.37271 5.97803,-2.52838 6.32446,-8.68931 0.10351,-1.84084 0.3905,-2.80431 1.61051,-5.40674 0.89271,-1.90428 1.4869,-3.62651 1.49045,-4.32 0.0138,-2.69062 0.95081,-6.50411 2.04201,-8.31028 1.24802,-2.06572 2.11209,-4.72536 2.11209,-6.50106 0,-0.67206 0.11666,-1.22192 0.25925,-1.22192 0.62626,0 2.22526,-2.00651 2.60085,-3.26366 0.87605,-2.9323 1.72163,-4.82993 2.59592,-5.82569 0.50072,-0.57029 1.20511,-1.81849 1.5653,-2.77377 0.64356,-1.7068 2.09241,-3.7658 4.69303,-6.6694 0.72289,-0.80712 1.90049,-2.33148 2.61689,-3.38748 1.43683,-2.11795 8.31236,-9.2963 9.82876,-10.26165 0.528,-0.33614 1.69123,-1.20003 2.58495,-1.91977 0.89372,-0.71974 2.43783,-1.7737 3.43136,-2.34214 0.99352,-0.56844 2.10768,-1.41653 2.47591,-1.88465 0.36822,-0.46813 1.07868,-1.02318 1.57878,-1.23346 0.50011,-0.21028 1.74874,-1.06607 2.77474,-1.90176 1.02601,-0.8357 2.46042,-1.78262 3.18759,-2.10428 0.72717,-0.32166 1.51151,-0.81304 1.74299,-1.09195 0.51544,-0.62107 2.65713,-1.74034 3.33008,-1.74034 0.68349,0 4.67531,-1.88641 5.4536,-2.57721 0.352,-0.31243 2.42709,-1.15494 4.61131,-1.87226 2.18422,-0.71731 4.20022,-1.50016 4.48,-1.73966 0.56305,-0.48198 3.00864,-1.461619 5.94576,-2.381705 2.29948,-0.720339 3.14553,-1.853799 3.18058,-4.261005 0.0286,-1.964243 -0.15748,-2.122515 -2.96324,-2.520442 -3.39666,-0.481734 -5.26432,-1.645804 -4.2569,-2.653228 0.19937,-0.19937 0.36249,-0.662199 0.36249,-1.028506 0,-0.390122 0.79998,-1.457222 1.93116,-2.576 1.06214,-1.050493 2.31435,-2.462438 2.7827,-3.137664 0.49997,-0.720813 1.35583,-1.429453 2.07297,-1.716397 0.67178,-0.268793 1.51985,-0.907821 1.8846,-1.420064 0.36475,-0.51224 1.28989,-1.251859 2.05587,-1.643603 0.76599,-0.391741 2.2297,-1.453174 3.2527,-2.358742 3.42074,-3.028071 5.73612,-4.837309 7.04529,-5.505197 0.71398,-0.364243 1.76959,-1.16209 2.34581,-1.772992 0.57622,-0.610903 1.3712,-1.191933 1.76662,-1.291181 0.39543,-0.09924 1.89841,-1.117277 3.33995,-2.262294 1.44155,-1.145018 2.81588,-2.08185 3.05408,-2.08185 0.48636,0 3.1202,-3.110774 3.88334,-4.586538 0.42945,-0.830467 0.44286,-1.277785 0.0986,-3.290256 -0.81223,-4.748329 0.64122,-8.438188 4.20617,-10.67814 3.92565,-2.466589 6.57939,-4.490564 7.75511,-5.914717 0.67924,-0.822775 1.5825,-1.654291 2.00724,-1.847815 0.81625,-0.37191 2.67777,-3.65023 2.67777,-4.715819 0,-0.755296 -1.88557,-2.246715 -2.84048,-2.246715 -3.13963,0 -3.63031,-1.743102 -0.99952,-3.550665 5.30179,-3.64275 -4.37751,-4.888407 -22.56,-2.903311 -1.73052,0.188931 -3.12288,0.565151 -4.2972,1.16111 -2.02821,1.029303 -3.66162,1.643866 -6.10279,2.296139 -0.968,0.258646 -2.12,0.808826 -2.56,1.222624 -0.44001,0.413797 -2.16801,1.401515 -3.84001,2.194929 -3.18234,1.510117 -5.81591,3.751449 -9.3592,7.96526 -3.16458,3.763434 -3.81766,11.998154 -1.03545,13.055949 1.48311,0.563879 2.72922,0.385751 3.41685,-0.488429 1.89495,-2.40904 14.38919,-3.0352 16.39253,-0.821529 0.8285,0.915478 -0.51938,1.232265 -6.26113,1.471536 -2.75351,0.114745 -5.56151,0.33744 -6.24,0.494873 -0.67848,0.157434 -1.8456,0.28968 -2.5936,0.293879 -1.16236,0.0065 -1.36,0.104518 -1.36,0.674313 0,0.837469 -1.88721,2.697328 -3.36245,3.313725 -0.84178,0.351715 -1.11755,0.658714 -1.11755,1.244087 0,1.425081 0.72324,1.661536 4.85661,1.587804 10.00282,-0.178435 10.64695,2.937175 0.83654,4.046234 -3.12662,0.353462 -5.54743,1.345728 -5.23969,2.14769 0.10259,0.267369 0.18654,0.544416 0.18654,0.61566 0,0.558618 3.05062,1.180893 7.2,1.468682 6.20087,0.43007 7.53842,1.193741 5.17654,2.955526 -0.7575,0.56504 -1.37787,0.677927 -3.84,0.698743 -5.66369,0.04789 -8.85654,2.28864 -8.85654,6.215533 0,1.884342 -1.45732,4.159638 -2.66423,4.159638 -1.79308,0 -2.05703,-0.452128 -2.61535,-4.48 -0.3639,-2.625245 -0.77948,-4.248192 -1.44996,-5.662397 -1.70553,-3.597382 -1.73935,-3.975459 -1.65066,-18.454624 0.0881,-14.387139 0.0732,-14.255097 1.7898,-15.858758 0.45672,-0.426682 0.8304,-0.957895 0.8304,-1.180477 0,-0.568928 3.93218,-4.919944 5.31736,-5.883744 0.63238,-0.44 1.67467,-1.248377 2.31621,-1.796392 0.64153,-0.548016 1.67043,-1.252299 2.28643,-1.565073 0.616,-0.312774 1.79953,-1.255755 2.63006,-2.095511 0.83054,-0.839757 2.05454,-1.706297 2.72,-1.925645 0.66547,-0.219347 2.27181,-0.957801 3.56966,-1.641007 1.29784,-0.683207 3.60184,-1.600976 5.12,-2.039487 1.51815,-0.438511 3.67365,-1.223391 4.78999,-1.744177 3.59974,-1.679327 12.34963,-2.520343 27.09029,-2.603846 6.61659,-0.03748 9.94167,1.583506 11.9444,5.822933 0.37108,0.785513 0.98842,1.814696 1.37185,2.287074 1.33936,1.650041 1.26553,5.294788 -0.15385,7.594355 -0.63932,1.035783 -1.1624,2.036135 -1.1624,2.223005 0,2.212965 -4.05217,7.455112 -6.99137,9.044497 -0.76526,0.413812 -1.59138,1.139159 -1.83583,1.611882 -0.24446,0.47272 -1.04764,1.266269 -1.78485,1.763443 -0.73722,0.497171 -1.56709,1.289223 -1.84417,1.760112 -0.27708,0.470893 -0.98539,1.251146 -1.57403,1.733901 -1.37976,1.131571 -1.73345,2.034752 -1.08471,2.769936 0.85611,0.970189 2.20256,0.700522 3.59496,-0.72 0.69006,-0.704 1.4968,-1.28 1.79275,-1.28 0.62845,0 4.51357,-2.392134 5.23421,-3.222794 0.27117,-0.312566 1.26122,-0.960771 2.20012,-1.440448 0.93888,-0.47968 1.87488,-1.154204 2.08,-1.498944 0.2051,-0.344736 1.3872,-1.093536 2.62686,-1.663996 1.23967,-0.570461 2.94275,-1.562976 3.78462,-2.205591 0.84187,-0.642614 1.9156,-1.250157 2.38606,-1.350089 1.83914,-0.390672 4.29049,-1.447335 5.42532,-2.338605 0.65453,-0.514061 1.55006,-1.035491 1.99006,-1.158733 1.47211,-0.41233 4.08845,-1.741916 5.096,-2.58971 0.5485,-0.461531 1.96628,-1.171694 3.15063,-1.578142 1.18436,-0.406448 3.53606,-1.390274 5.22601,-2.186282 1.68995,-0.796008 4.12328,-1.700874 5.4074,-2.010814 1.28413,-0.309939 2.78144,-0.893662 3.32736,-1.297162 2.25869,-1.669414 4.44486,-2.178323 12.8326,-2.987241 8.59096,-0.828517 14.71963,2.142185 17.42106,8.444371 1.59678,3.725134 0.85746,10.596974 -1.43536,13.341294 -0.61288,0.733574 -1.27243,1.961619 -1.46565,2.728982 -0.2583,1.025792 -0.71116,1.69007 -1.71035,2.508832 -0.74746,0.61249 -1.52825,1.52216 -1.73508,2.021488 -0.20683,0.499328 -1.0993,1.381354 -1.98328,1.960054 -0.88398,0.578701 -1.76161,1.391008 -1.95029,1.80513 -0.18869,0.414122 -1.18206,1.200125 -2.20749,1.746672 -1.02542,0.546547 -2.12297,1.321648 -2.43898,1.722448 -0.31602,0.4008 -1.43858,1.13521 -2.49458,1.632022 -1.056,0.496813 -2.5738,1.448058 -3.37287,2.113876 -0.79909,0.665817 -2.27897,1.500924 -3.28863,1.855792 -1.00966,0.354867 -2.23247,0.978748 -2.71735,1.386403 -0.48488,0.407651 -2.389,1.36448 -4.23138,2.126285 -1.84237,0.761804 -4.21377,1.792576 -5.26977,2.290598 -1.056,0.498026 -2.784,1.150474 -3.84,1.449885 -1.056,0.299414 -3.216,1.169619 -4.8,1.933795 -2.25419,1.087494 -3.71442,1.53528 -6.72,2.060714 -4.81866,0.842393 -6.69673,1.385884 -9.392,2.717923 -1.17664,0.58151 -2.78479,1.228889 -3.57367,1.438621 -0.78888,0.209731 -2.38688,0.79696 -3.5511,1.304947 -1.16423,0.507987 -3.75623,1.230937 -5.76,1.60655 -7.4211,1.391111 -10.22661,3.2088 -9.77515,6.333328 0.0921,0.637197 0.29914,2.242384 0.46015,3.567082 0.51571,4.24272 1.26532,4.67664 8.85186,5.124003 5.55805,0.327747 9.0985,0.78873 10.89991,1.419216 1.79518,0.628304 4.89781,1.316486 8.62782,1.913699 2.16162,0.346099 3.39776,0.707139 3.84,1.121561 0.3587,0.33613 2.30818,1.26808 4.33218,2.07099 2.1076,0.83608 3.97039,1.7897 4.35962,2.23182 0.37379,0.42459 1.16579,1.01956 1.76,1.32215 0.59421,0.3026 1.82782,1.18352 2.74135,1.95759 0.91354,0.77407 2.44479,1.87159 3.40279,2.43892 2.65413,1.57179 4.87773,3.46001 5.64791,4.79604 0.3819,0.66249 1.32683,1.84607 2.09984,2.63018 0.773,0.78411 1.68463,1.97007 2.02583,2.63547 0.34121,0.6654 0.97608,1.54172 1.41084,1.94738 0.43475,0.40567 1.03666,1.34167 1.33756,2.08 0.30091,0.73834 1.26048,2.78244 2.1324,4.54244 1.35079,2.72665 1.6327,3.62601 1.90581,6.08 0.28214,2.53518 0.79104,6.45988 1.92873,14.8745 0.45328,3.35255 0.48169,9.635 0.0565,12.4855 -0.88614,5.94016 -2.26482,11.46403 -3.40663,13.64905 -0.6297,1.20502 -1.43653,3.14309 -1.79294,4.30681 -0.96605,3.15422 -1.59334,3.80414 -3.6717,3.80414 -1.30488,0 -2.46023,0.33187 -5.01312,1.44 -1.82459,0.792 -3.48864,1.44 -3.69788,1.44 -1.85122,0 -1.9681,2.68845 -0.17281,3.97517 2.4041,1.72309 4.76031,4.73964 5.16083,6.60719 0.1945,0.90689 0.84525,2.53286 1.44613,3.61327 1.26467,2.27395 2.26668,6.23718 2.55971,10.12437 0.11277,1.496 0.41287,3.61871 0.66688,4.71713 0.68559,2.96469 -1.72597,12.9753 -3.68164,15.28287 -0.29832,0.352 -0.73485,1.144 -0.97006,1.76 -0.85628,2.24251 -3.57185,5.46091 -5.83592,6.91652 -0.66,0.42433 -1.2,0.94057 -1.2,1.1472 0,0.48578 -4.91722,5.251 -6.02951,5.84312 -0.46777,0.24902 -1.40293,1.03146 -2.07814,1.73876 -0.6752,0.70729 -1.8992,1.67147 -2.72,2.14261 -0.82079,0.47114 -1.86274,1.19994 -2.31544,1.61955 -0.53163,0.49277 -1.62894,0.93096 -3.09874,1.23742 -2.89164,0.60293 -3.64224,0.89423 -5.37361,2.08544 -0.8894,0.61193 -2.51492,1.24249 -4.4186,1.71404 -1.65638,0.41029 -4.21632,1.25787 -5.68878,1.8835 -2.1479,0.91263 -3.78429,1.30369 -8.27718,1.97804 -7.62998,1.1452 -7.3611,1.12124 -8.8,0.78442 z m 1.6,-7.81702 c 1.056,-0.25498 3.144,-0.46844 4.64,-0.47434 1.496,-0.006 4.016,-0.20876 5.6,-0.45078 2.88824,-0.4413 3.98747,-0.7379 9.21839,-2.48737 1.55012,-0.51843 3.71012,-1.08289 4.8,-1.25435 1.36828,-0.21527 2.47683,-0.64775 3.58161,-1.39729 0.88,-0.59705 2.01099,-1.18679 2.51331,-1.31055 1.33217,-0.32822 3.7418,-1.65776 4.84669,-2.67421 0.528,-0.48574 1.41504,-1.19459 1.9712,-1.57522 1.07087,-0.73289 3.82555,-3.54466 7.10231,-7.24949 1.08965,-1.232 2.63639,-2.96 3.4372,-3.84 5.49658,-6.04013 4.82284,-21.3888 -1.27824,-29.12 -0.97223,-1.232 -2.38527,-3.19914 -3.14008,-4.37142 -0.75482,-1.17228 -1.81917,-2.39628 -2.36524,-2.72 -2.17425,-1.28894 -5.24828,-4.4779 -5.75771,-5.97298 -0.5626,-1.65116 -1.04603,-2.15421 -2.29613,-2.38933 -4.9138,-0.92422 -7.20274,1.61999 -3.18139,3.53617 5.05352,2.40801 7.58337,9.24307 5.18091,13.99756 -1.34281,2.65743 -2.70988,5.72238 -2.89278,6.48554 -0.11672,0.48705 -0.59198,1.17718 -1.05613,1.53362 -2.34452,1.80044 -6.9188,4.48204 -8.3915,4.91939 -2.03155,0.6033 -4.83491,2.70713 -6.27619,4.71009 -1.61975,2.25095 -2.87857,2.27872 -5.69915,0.12573 -1.89352,-1.44536 -2.38479,-1.64682 -4.73047,-1.93989 -1.12853,-0.141 -2.28701,-0.54466 -3.07206,-1.07042 -0.69318,-0.46423 -2.26715,-1.5165 -3.49772,-2.33838 -1.29255,-0.86327 -2.3335,-1.80923 -2.46497,-2.24 -0.12516,-0.41012 -0.40301,-0.96168 -0.61744,-1.22568 -0.50495,-0.62167 -1.76028,-5.49497 -1.99079,-7.72842 -0.33713,-3.26644 1.5768,-6.81302 6.01801,-11.15158 0.9909,-0.968 1.95006,-2.048 2.13146,-2.4 0.19546,-0.37929 1.18818,-0.94484 2.43699,-1.38834 3.01511,-1.07079 3.17823,-1.5347 0.70223,-1.99727 -1.62326,-0.30326 -4.43216,0.28287 -5.86447,1.22373 -0.63157,0.41486 -1.82251,0.61434 -4.55161,0.76239 -5.80683,0.31499 -15.48462,1.6774 -16.2632,2.28947 -0.51018,0.40108 -8.71174,1.81466 -10.57972,1.82348 -1.78982,0.008 -6.20701,1.10392 -8.05332,1.99725 -0.792,0.38321 -2.95176,1.08272 -4.79946,1.55448 -3.73369,0.95329 -6.47044,3.70543 -7.88454,7.92885 -0.40892,1.22129 -1.0229,2.1834 -1.956,3.06505 -3.24695,3.06792 -1.89716,4.02091 5.69509,4.02091 6.81962,0 9.26491,0.55446 9.26491,2.10078 0,1.29144 -1.77256,1.87161 -6.69849,2.19245 -2.73046,0.17784 -3.79812,0.59264 -2.92089,1.1348 0.97735,0.60403 4.55251,1.03118 7.16076,0.85555 2.88342,-0.19416 3.13483,-0.0932 4.01635,1.61324 1.0854,2.10106 -0.35708,2.45442 -10.83773,2.65487 -8.43584,0.16134 -8.75365,0.18983 -7.68,0.68828 0.80889,0.37553 2.45335,0.56681 5.92,0.6886 5.45276,0.19156 5.77558,0.28031 8.46787,2.32781 3.28653,2.49943 1.49784,3.98344 -5.04194,4.18311 -2.23626,0.0683 -4.85793,0.26106 -5.82593,0.4284 -0.968,0.16735 -2.7932,0.37324 -4.056,0.45755 -3.96011,0.26441 -5.00161,1.39314 -3.92494,4.25373 0.52781,1.40235 4.47023,5.03167 6.45061,5.93831 0.96369,0.4412 2.72548,1.3892 3.91507,2.10668 1.20368,0.72597 2.96393,1.4697 3.96908,1.67699 0.9934,0.20486 2.81368,0.85991 4.04507,1.45566 1.61638,0.78202 2.68406,1.08495 3.84,1.08953 2.24049,0.009 5.63922,0.53513 7.26693,1.12521 5.96631,2.16293 10.03423,2.90301 18.49418,3.36468 2.728,0.14886 5.392,0.40974 5.92,0.57971 1.43422,0.46171 4.86832,0.40203 7.04,-0.12234 z m -21.57801,-24.99833 c -1.51605,-1.92735 -0.11398,-4.54905 1.71685,-3.21031 0.82325,0.60197 0.72016,1.94239 -0.23685,3.07973 -0.81802,0.97216 -0.81802,0.97216 -1.48,0.13058 z M 53.44,245.09095 c 0.616,-0.36666 1.264,-0.83941 1.44,-1.05055 0.176,-0.21115 0.791261,-0.71474 1.367245,-1.1191 0.575984,-0.40436 1.327875,-1.28528 1.67087,-1.9576 1.258103,-2.46609 5.718563,-4.79774 10.401885,-5.43746 2.754934,-0.37631 6.528813,-1.13282 6.71185,-1.34545 1.986166,-2.30736 1.851347,-6.4272 -0.288202,-8.8069 -0.767859,-0.85404 -1.611014,-2.06714 -1.873674,-2.69578 -0.262662,-0.62863 -0.942636,-1.47413 -1.511059,-1.87888 -1.042115,-0.74205 -2.218893,-2.83739 -2.231888,-3.97403 -0.0165,-1.44358 -0.850019,-1.7852 -4.355702,-1.7852 -6.6828,0 -8.827872,-0.82716 -12.865959,-4.96125 -1.978057,-2.02508 -3.583692,-3.35362 -4.798998,-3.97079 -1.004502,-0.51012 -2.249309,-1.37309 -2.766237,-1.91772 C 43.823203,203.64561 43.263491,203.2 43.09633,203.2 c -0.167162,0 -1.529917,-0.59613 -3.028346,-1.32474 -4.578698,-2.22639 -6.213526,-2.0306 -6.637232,0.79486 -0.311482,2.07712 2.795837,6.72007 4.956374,7.40579 2.568996,0.81537 3.723092,4.85113 2.204026,7.70726 -2.004794,3.7694 -3.865437,3.88638 -7.157699,0.44999 -2.913535,-3.04107 -9.873833,-3.18842 -12.516341,-0.26498 -1.465652,1.62148 -0.482353,5.5781 1.578487,6.35157 0.563421,0.21146 2.248401,0.92993 3.744401,1.59659 3.07328,1.36955 4.323356,1.57525 18.4,3.02775 2.112,0.21793 4.056,0.49678 4.32,0.61967 2.453094,1.14191 2.452624,8.14398 -6.4e-4,10.49147 -0.836643,0.80055 -1.152,3.923 -0.497152,4.92243 0.686902,1.04834 3.306771,1.10797 4.977856,0.11329 z m 31.46231,-12.95376 c 1.923975,-1.30738 2.182727,-2.7243 0.844743,-4.62581 -0.312941,-0.44475 -0.910931,-2.06616 -1.328864,-3.60314 -0.692045,-2.54504 -0.858899,-2.84714 -1.869034,-3.38389 -0.610035,-0.32416 -1.427875,-1.07875 -1.817421,-1.67687 -1.612297,-2.47555 -1.672854,-2.52748 -2.947491,-2.52748 -2.614291,0 -2.716131,2.24635 -0.312627,6.89585 0.541382,1.04728 1.199507,2.14449 1.462502,2.43824 0.262999,0.29375 0.64641,1.51775 0.852029,2.72 0.739914,4.32625 2.443447,5.57925 5.116163,3.7631 z m 14.759056,-1.50172 c 1.729574,-0.61288 2.088444,-1.26561 1.378634,-2.50753 -0.308,-0.53889 -0.56,-1.20749 -0.56,-1.48576 0,-0.27827 -0.33734,-1.0946 -0.749635,-1.81406 -0.412301,-0.71947 -0.938378,-2.00413 -1.169063,-2.85481 -0.283475,-1.04537 -0.725388,-1.77142 -1.363385,-2.24 -0.519178,-0.38132 -1.356611,-1.50831 -1.860957,-2.50441 -3.200355,-6.32082 -10.192717,-3.25156 -8.163034,3.58312 0.27834,0.93728 0.506074,2.19858 0.506074,2.8029 0,0.84209 0.255738,1.3331 1.094778,2.10192 0.643094,0.58928 1.378291,1.76116 1.781955,2.8404 1.084217,2.89874 4.553984,3.69075 9.104633,2.07823 z M 120,229.92483 c 8.93741,-1.79652 10.91926,-3.44867 6.61874,-5.51767 -0.93906,-0.45179 -1.77129,-1.17162 -2.27251,-1.96561 -0.43496,-0.68902 -1.23876,-1.57172 -1.78623,-1.96155 -0.54747,-0.38983 -1.32996,-1.23877 -1.73888,-1.88655 -0.40892,-0.64777 -1.24757,-1.52316 -1.86367,-1.94532 -0.6161,-0.42216 -1.453,-1.30607 -1.85978,-1.96425 -0.40678,-0.65819 -1.05194,-1.33902 -1.43369,-1.51295 -0.38175,-0.17394 -1.25432,-1.03293 -1.93904,-1.90887 -1.94304,-2.48569 -1.94981,-2.48695 -5.00516,-0.93616 -4.34301,2.20438 -5.24025,2.55119 -6.55319,2.53308 -3.002692,-0.0414 -4.029057,2.34984 -1.9682,4.58561 1.34064,1.45441 2.03862,2.81649 2.46977,4.81961 0.11973,0.55626 0.73035,1.43744 1.40433,2.02656 0.78843,0.68917 1.42351,1.67594 1.87428,2.91222 0.93825,2.57324 1.61733,3.13341 3.97435,3.27846 2.90813,0.17896 7.74971,-0.0884 10.07888,-0.55661 z m 22.00345,-11.86775 c 1.7141,-0.27661 3.70703,-0.41501 4.42874,-0.30757 2.05807,0.30641 7.73256,-1.87263 8.05137,-3.09178 0.0887,-0.33928 0.71822,-0.8397 1.39888,-1.11205 0.68066,-0.27234 1.23756,-0.63423 1.23756,-0.80418 0,-0.16996 0.77328,-1.12632 1.7184,-2.12526 0.94513,-0.99893 2.00235,-2.46706 2.34939,-3.26251 0.34705,-0.79544 1.14138,-1.92768 1.7652,-2.51608 0.69308,-0.65373 1.4618,-1.9048 1.9765,-3.21667 0.49239,-1.25502 1.30212,-2.59254 1.94922,-3.21973 0.6457,-0.62583 1.32669,-1.74965 1.63434,-2.69706 1.06673,-3.28511 2.39137,-4.20815 6.91193,-4.8164 0.82774,-0.11137 2.1752,-0.55886 2.99436,-0.99441 2.41865,-1.28601 4.75503,-1.98273 7.4087,-2.2093 3.59224,-0.30672 7.60435,-1.01829 9.83548,-1.74437 1.06506,-0.34661 4.24048,-1.00919 7.05648,-1.47241 4.52832,-0.74488 6.76092,-1.21421 11.50894,-2.41941 0.69792,-0.17715 2.28192,-0.36683 3.52,-0.42151 1.23808,-0.0547 3.47506,-0.40023 4.97106,-0.7679 1.496,-0.36767 4.88,-0.85308 7.52,-1.07869 4.75069,-0.40599 5.77265,-0.4255 16.26754,-0.31045 3.54985,0.0389 6.4164,-0.1065 8.40386,-0.42632 3.14136,-0.50549 14.64738,-0.70155 17.66663,-0.30104 4.06603,0.53938 6.04658,-2.25021 6.94499,-9.78198 0.11547,-0.968 0.59402,-2.48 1.06346,-3.36 1.26058,-2.36306 1.24264,-9.52088 -0.0367,-14.64854 -0.47323,-1.8967 -1.02066,-4.7767 -1.21652,-6.4 -0.70579,-5.84961 -1.9442,-10.54014 -2.87662,-10.89535 -0.70633,-0.26908 -0.87424,-0.61073 -1.18135,-2.40359 -0.19689,-1.14946 -0.61838,-2.40803 -0.93664,-2.79681 -0.31826,-0.38879 -1.44265,-1.78089 -2.49865,-3.09356 -1.056,-1.31267 -2.42329,-2.73215 -3.03843,-3.15441 -0.61514,-0.42226 -2.59925,-2.22976 -4.40914,-4.01668 -6.04917,-5.97238 -7.66791,-7.15705 -11.12169,-8.1394 -1.40291,-0.39903 -2.91074,-0.96854 -3.35074,-1.26558 -2.1962,-1.48264 -2.45382,-1.55338 -12.32,-3.38285 -1.408,-0.26109 -3.208,-0.60452 -4,-0.76318 -0.792,-0.15866 -3.168,-0.44205 -5.28,-0.62975 -2.112,-0.1877 -5.24372,-0.55775 -6.95937,-0.82234 -3.4862,-0.53763 -12.5066,-0.60444 -17.619,-0.1305 -1.72611,0.16002 -5.25411,0.36934 -7.84,0.46517 -2.5859,0.0958 -5.06163,0.3052 -5.50163,0.46527 -0.44,0.16006 -2.096,0.34539 -3.68,0.41182 -1.77777,0.0746 -3.30865,0.32283 -4,0.64867 -0.616,0.29033 -2.24716,0.83301 -3.62481,1.20596 -2.59358,0.70211 -5.24192,1.8043 -6.15378,2.56108 -0.28864,0.23955 -1.48327,0.73943 -2.65474,1.11085 -1.17147,0.37142 -2.88506,1.19473 -3.80799,1.82959 -1.67646,1.1532 -2.14336,1.34578 -5.59725,2.30863 -1.01122,0.2819 -2.32668,0.94111 -2.92324,1.4649 -0.59657,0.52379 -1.92921,1.33802 -2.96143,1.8094 -1.03222,0.47138 -2.71499,1.55328 -3.7395,2.40422 -1.0245,0.85094 -2.42369,1.83335 -3.1093,2.18312 -0.68561,0.34977 -1.39118,0.90616 -1.56792,1.23642 -0.17676,0.33027 -0.86557,0.819 -1.53071,1.08607 -0.66513,0.26708 -1.71835,0.96839 -2.34049,1.55848 -4.46441,4.23446 -5.40183,5.16377 -6.45609,6.40034 -0.65299,0.7659 -1.82367,2.11255 -2.60151,2.99255 -0.77783,0.88 -1.71762,2.10291 -2.08842,2.71756 -0.37081,0.61466 -1.21613,1.48499 -1.8785,1.93407 -0.76836,0.52093 -1.34516,1.24284 -1.59337,1.99424 -0.21398,0.64775 -0.89798,1.91758 -1.52,2.82184 -0.62203,0.90426 -1.1323,1.87995 -1.13395,2.1682 -0.005,0.81201 -1.84016,3.82045 -2.56887,4.21044 -0.68241,0.36521 -1.96615,2.93603 -2.74638,5.4999 -0.25211,0.82844 -0.60069,1.59421 -0.77464,1.70171 -0.75812,0.46855 -1.53659,2.85236 -2.23772,6.8523 -0.64367,3.67212 -0.91218,4.53565 -1.83822,5.91173 -0.76971,1.1438 -1.26593,2.44971 -1.70978,4.49974 -0.34394,1.58855 -0.85692,3.63716 -1.13997,4.55247 -0.47443,1.5342 -0.47349,1.81078 0.012,3.54099 0.28963,1.03224 0.5266,2.89595 0.5266,4.14157 0,3.50212 0.81485,6.93432 2.4394,10.27496 0.79751,1.63994 1.72375,3.77735 2.05833,4.7498 0.33457,0.97245 1.04345,2.26369 1.57529,2.86942 0.53184,0.60573 0.96698,1.25161 0.96698,1.43529 0,0.4018 1.9444,2.35273 3.58745,3.59952 0.6531,0.49559 1.27557,1.1787 1.38327,1.51803 0.1077,0.33932 0.76141,0.9055 1.45268,1.25816 0.69128,0.35266 1.5963,1.1789 2.01116,1.83607 0.58971,0.93417 1.09587,1.2926 2.31986,1.6428 6.49578,1.85849 6.62891,1.87182 11.24903,1.12627 z m -9.34027,-5.68481 c -0.77474,-0.77473 -1.48066,-4.84733 -0.98049,-5.65662 0.12311,-0.1992 0.25375,-1.80981 0.2903,-3.57913 0.0923,-4.46691 1.59508,-5.57479 3.38641,-2.49652 1.20563,2.07178 2.24265,2.11531 4.14723,0.17408 2.1468,-2.18812 3.5725,-1.66985 3.98624,1.44906 0.50732,3.82436 -3.70844,9.264 -8.06848,10.41085 -2.1122,0.55559 -1.87835,0.58114 -2.76121,-0.30172 z m 50.53681,-37.28012 c -1.46783,-0.89514 -2.99016,-2.79973 -3.16946,-3.96531 -0.0886,-0.57576 -0.24844,-2.12684 -0.35527,-3.44684 -0.10683,-1.32 -0.41096,-3.696 -0.67585,-5.28 -0.26489,-1.584 -0.5235,-3.744 -0.57469,-4.8 -0.0512,-1.056 -0.20661,-3.04758 -0.34537,-4.42574 -0.5828,-5.78829 1.25608,-10.06946 4.55638,-10.60789 0.74565,-0.12165 1.82565,-0.53937 2.4,-0.92827 1.5962,-1.08081 3.63199,-1.79728 5.13075,-1.80572 1.31176,-0.007 4.3802,-0.64606 8.44914,-1.75866 1.97562,-0.5402 1.97562,-0.5402 3.62516,0.35759 3.64932,1.98621 3.05369,4.8013 -1.28078,6.05331 -0.44,0.1271 -1.03779,0.4395 -1.32842,0.69424 -0.57173,0.50114 -2.87712,1.09025 -6.67158,1.70483 -5.20528,0.8431 -10.11316,5.24366 -7.37221,6.61017 1.10489,0.55084 4.82089,0.19801 5.45221,-0.5177 2.55048,-2.8914 12.99897,-3.42986 13.38792,-0.68994 0.26623,1.87543 -4.1661,5.27504 -7.33776,5.62807 -1.48355,0.16513 -2.16806,0.47667 -4,1.82045 -1.21559,0.89168 -2.81203,1.88268 -3.54765,2.20222 -2.19398,0.95305 -2.43581,1.80217 -1.096,3.84818 1.61871,2.47189 1.61938,4.23665 0.003,6.53598 -2.54551,3.61993 -3.24849,3.99105 -5.24903,2.77103 z M 221.12,169.06734 c -4.69283,-1.97741 -8.04981,-6.85957 -8.65658,-12.5895 -1.05384,-9.95193 0.39213,-15.51526 4.30455,-16.56167 1.84662,-0.4939 4.01084,0.9025 3.26681,2.10781 -0.77631,1.2576 -1.39675,9.14293 -0.85043,10.80827 0.1674,0.51026 0.46772,1.56489 0.66738,2.34361 0.41948,1.63605 4.12452,5.60536 5.57106,5.96842 3.09757,0.77743 9.01765,-2.25594 9.67146,-4.95554 0.11039,-0.45581 0.55476,-1.51336 0.98749,-2.35012 0.81243,-1.57097 -0.9783,-8.94934 -2.78025,-11.45552 -2.10872,-2.93286 -1.39532,-6.20798 1.52286,-6.99127 2.21249,-0.59387 2.90744,-0.24799 4.2285,2.10452 2.08867,3.71944 2.54787,4.88443 2.8979,7.35184 0.36865,2.59875 1.35432,6.31235 1.89824,7.15181 0.39943,0.61646 0.75169,0.14067 1.42151,-1.92 2.99353,-9.20937 4.18668,-11.19433 7.12754,-11.8576 2.17745,-0.49109 3.7094,0.94711 4.09793,3.84718 0.34344,2.56351 1.08688,4.74094 1.98186,5.80455 0.47978,0.57019 1.45054,2.04443 2.15725,3.27611 0.70671,1.23167 1.57292,2.39115 1.92492,2.57662 0.352,0.18548 1.15174,0.66481 1.7772,1.06518 2.62581,1.68086 2.83022,1.07158 2.98568,-8.89909 0.17244,-11.06055 0.56798,-11.93517 5.40875,-11.95965 3.17002,-0.016 3.04063,-0.35537 2.49628,6.5467 -1.70687,21.64242 -2.52547,24.33468 -8.43226,27.73236 -0.85993,0.49465 -1.24977,0.3052 -2.45307,-1.19215 -0.55701,-0.69311 -1.17372,-1.26021 -1.37048,-1.26021 -0.19676,0 -1.24885,-0.828 -2.33797,-1.84 -1.08912,-1.012 -2.36217,-2.09934 -2.82899,-2.41631 -0.46683,-0.31697 -1.13354,-1.1345 -1.48159,-1.81673 -1.64684,-3.22808 -5.44074,-1.57223 -5.84955,2.55304 -0.29562,2.98307 -1.53222,6.18847 -2.474,6.41286 -3.19537,0.76131 -6.0238,-5.40541 -3.9483,-8.60834 0.60016,-0.92618 0.77675,-5.90399 0.22888,-6.45191 -0.48527,-0.48531 -1.72058,1.50629 -1.72058,2.77396 0,1.23905 -0.73477,2.22622 -1.82852,2.45665 -0.65044,0.13703 -1.12223,0.6115 -1.74489,1.75483 -0.81658,1.4994 -3.95438,4.54195 -4.68415,4.54195 -0.1917,0 -1.31696,0.73299 -2.50057,1.62886 -2.72003,2.05878 -8.3818,3.28766 -10.68187,2.31848 z m 16.8,37.6835 c 6.99389,-0.70653 8.05594,-2.42472 4.11477,-6.65688 -2.55956,-2.74854 -8.5642,-1.25761 -10.89515,2.70523 -1.23846,2.10548 0.98617,4.96531 3.42038,4.39703 0.44,-0.10272 1.952,-0.30314 3.36,-0.44538 z m -132.79513,-12.8462 c 0.36635,-1.15423 -0.71138,-1.93751 -1.75649,-1.2766 -0.39767,0.25149 -0.35129,0.42632 0.29579,1.11511 0.92831,0.98814 1.18918,1.01698 1.4607,0.16149 z M 211.70848,93.982157 c 2.424,-2.820887 0.53344,-6.184973 -3.27527,-5.828067 -3.4142,0.319936 -4.14227,0.595846 -5.89258,2.233059 -0.85427,0.799069 -1.72804,1.452851 -1.94172,1.452851 -1.1034,0 -2.03457,1.908253 -1.18684,2.432179 1.91603,1.184173 11.21816,0.964771 12.29641,-0.290022 z M 189.74587,91.37504 c 1.00212,-1.06671 1.33201,-4.861194 0.52914,-6.086518 -1.28952,-1.968048 -3.97459,-0.395015 -4.65377,2.726387 -0.60406,2.776153 2.38537,5.211491 4.12463,3.360131 z m 11.21171,-8.791427 c 1.15763,-0.687735 3.03575,-1.484119 4.1736,-1.769744 4.24018,-1.064371 4.38573,-1.351555 3.4883,-6.882896 -0.55663,-3.430797 -3.08741,-4.034595 -6.20459,-1.480298 -0.77143,0.632128 -1.53523,1.149325 -1.69733,1.149325 -0.1621,0 -0.7214,0.468 -1.2429,1.04 -0.5215,0.572 -1.79702,1.783686 -2.83451,2.692634 -1.88633,1.652633 -1.88633,1.652633 -2.01782,3.717632 -0.22421,3.5211 2.05913,4.073747 6.33525,1.533347 z M 218.8,76.299418 c 0.88717,-1.004365 0.92806,-2.41193 0.0921,-3.168516 -0.7313,-0.661814 -1.16556,-1.918406 -1.45391,-4.207116 -0.41989,-3.332247 -3.00592,-5.081815 -4.3217,-2.923786 -1.22562,2.010166 -0.92828,9.985917 0.40351,10.823414 1.46828,0.923332 4.24496,0.64777 5.28,-0.523996 z M 227.22432,73.36 c 1.74561,-1.232282 1.80045,-1.69657 0.47941,-4.058813 -0.62905,-1.124848 -1.14373,-2.243331 -1.14373,-2.48552 0,-0.242189 -0.288,-1.005238 -0.64,-1.695667 -0.352,-0.690429 -0.64,-1.808224 -0.64,-2.48399 0,-2.481575 -3.18415,-2.842269 -4.43322,-0.502183 -1.31135,2.456768 -1.30585,5.048448 0.0139,6.538915 0.6074,0.685994 1.29107,1.713703 1.51925,2.283802 1.0595,2.647114 3.07956,3.649325 4.84441,2.403456 z m 12.60652,-3.294842 c 1.76504,-0.536163 3.71316,-1.129926 4.32916,-1.319475 0.616,-0.189549 1.86947,-0.694237 2.78548,-1.121529 0.91602,-0.427293 3.26738,-1.076388 5.22525,-1.442432 4.85206,-0.907143 5.56768,-1.481994 5.26795,-4.231722 -0.24464,-2.244272 -1.03566,-4.092291 -2.34615,-5.4812 -1.27789,-1.354349 -1.57742,-2.009184 -1.93518,-4.230675 -0.22359,-1.388384 -0.67022,-2.470535 -1.57195,-3.808768 -0.6928,-1.028147 -1.34745,-2.240579 -1.45479,-2.694298 -0.71713,-3.031235 -4.80812,-3.01904 -8.05061,0.024 -0.528,0.495523 -1.94299,1.3424 -3.14442,1.881949 -6.17132,2.771469 -10.9732,12.58007 -8.50251,17.36775 0.39487,0.765181 1.01697,2.251037 1.38244,3.301901 1.02476,2.946563 2.80687,3.336656 8.01533,1.754496 z m 26.94854,-9.320937 c 1.27544,-1.198215 0.84602,-3.425491 -1.19232,-6.184221 -0.65021,-0.88 -1.27629,-2.101002 -1.39129,-2.713334 -0.11501,-0.612336 -0.69102,-1.620336 -1.28003,-2.24 -1.39687,-1.469575 -1.72497,-2.542976 -2.13977,-7.000266 -0.44181,-4.747693 -1.17806,-5.915648 -3.08555,-4.894794 -0.97875,0.523812 -3.0389,4.238612 -2.86629,5.168394 0.17631,0.949677 0.94684,4.606202 1.71358,8.131718 0.47647,2.190864 0.73758,2.729396 1.93941,4 0.76384,0.807556 1.45497,1.792282 1.53584,2.188282 0.0809,0.396 0.22931,1.116 0.32986,1.6 0.51705,2.48872 4.55776,3.709258 6.43656,1.944221 z M 278.43733,55.68 c 1.18501,-0.704 2.36963,-1.28 2.63249,-1.28 0.26286,0 1.23233,-0.643949 2.15438,-1.430998 0.92205,-0.78705 2.34728,-1.653812 3.16718,-1.926138 0.88079,-0.292554 2.00582,-1.024058 2.74967,-1.787872 0.69242,-0.711002 1.87115,-1.68024 2.61939,-2.153862 0.76895,-0.486724 1.58784,-1.34809 1.88345,-1.98113 0.28765,-0.616 0.98607,-1.768 1.55205,-2.56 3.15378,-4.413242 1.97736,-10.451251 -2.50562,-12.860198 -3.10248,-1.667124 -14.27161,-0.971096 -18.61032,1.159741 -1.232,0.605061 -3.40937,1.549865 -4.8386,2.099567 -4.33237,1.666279 -4.9214,2.71233 -4.9214,8.739815 0,3.917481 0.19429,4.709049 1.42881,5.821075 0.39077,0.352 1.11566,1.284794 1.61086,2.072877 1.01541,1.615955 1.34665,1.987209 2.19473,2.459821 0.32692,0.182182 0.97492,1.027612 1.44,1.878729 1.69715,3.105853 4.17746,3.688554 7.44293,1.748573 z"
       style="fill:#000000;stroke-width:0.32" />
  </g>
</svg>
