<?xml version="1.0" encoding="UTF-8" standalone="no"?>
<svg
   xmlns:dc="http://purl.org/dc/elements/1.1/"
   xmlns:cc="http://creativecommons.org/ns#"
   xmlns:rdf="http://www.w3.org/1999/02/22-rdf-syntax-ns#"
   xmlns:svg="http://www.w3.org/2000/svg"
   xmlns="http://www.w3.org/2000/svg"
   xmlns:sodipodi="http://sodipodi.sourceforge.net/DTD/sodipodi-0.dtd"
   xmlns:inkscape="http://www.inkscape.org/namespaces/inkscape"
   version="1.1"
   id="svg62"
   width="307.20001"
   height="199.03999"
   viewBox="0 0 307.20001 199.03999"
   sodipodi:docname="garbageape.svg"
   inkscape:version="1.0 (4035a4fb49, 2020-05-01)">
  <style></style>
  <metadata
     id="metadata68">
    <rdf:RDF>
      <cc:Work
         rdf:about="">
        <dc:format>image/svg+xml</dc:format>
        <dc:type
           rdf:resource="http://purl.org/dc/dcmitype/StillImage" />
        <dc:title></dc:title>
      </cc:Work>
    </rdf:RDF>
  </metadata>
  <defs
     id="defs66" />
  <sodipodi:namedview
     inkscape:document-rotation="0"
     pagecolor="#ffffff"
     bordercolor="#666666"
     borderopacity="1"
     objecttolerance="10"
     gridtolerance="10"
     guidetolerance="10"
     inkscape:pageopacity="0"
     inkscape:pageshadow="2"
     inkscape:window-width="1898"
     inkscape:window-height="1035"
     id="namedview64"
     showgrid="false"
     showguides="false"
     inkscape:zoom="2.7980501"
     inkscape:cx="209.16575"
     inkscape:cy="105.64988"
     inkscape:window-x="10"
     inkscape:window-y="33"
     inkscape:window-maximized="0"
     inkscape:current-layer="layer1" />
  <g
     inkscape:groupmode="layer"
     id="layer1"
     inkscape:label="Image 1">
    <path
       style="fill:#b6adc8;stroke:#000000;stroke-width:1px;stroke-linecap:butt;stroke-linejoin:miter;stroke-opacity:0;fill-opacity:1"
       d="m 12.619518,197.61222 0.481615,-59.20112 1.380595,-82.37013 0.298897,-45.95776 113.200315,-0.2119967 31.9267,-0.5200862 30.82199,0.1910139 36.96643,0.788872 71.76872,1.60919 0.66627,17.655487 1.67114,34.924022 -1.09605,47.071498 -0.0305,39.40346 -0.52056,29.38106 -0.0723,14.34249 -18.18385,0.65624 -35.80621,0.30239 -57.29403,0.75421 -38.46077,-0.93954 -51.325284,0.37104 -50.349756,0.28648 z"
       id="path998" />
    <path
       style="fill:#c1deb2;stroke:#000000;stroke-width:1px;stroke-linecap:butt;stroke-linejoin:miter;stroke-opacity:0;fill-opacity:1"
       d="m 12.658008,164.26482 0.238407,30.96362 44.564895,1.18436 83.07571,-0.52784 62.82118,-0.37434 96.43617,0.10501 10e-4,-26.50479 -12.14454,-0.45162 -18.39369,-2.61272 -35.42456,-2.78643 -42.36121,-3.2685 -6.35334,-0.63444 -3.99978,-0.73505 -1.50277,-1.10864 -2.38439,0.96655 -2.5021,-0.11555 -36.08753,-1.02003 -9.1166,-0.26582 9.22967,3.73081 -0.52416,1.33275 -8.51058,1.05037 -6.95667,0.82769 -11.24949,-1.19264 -2.79984,0.002 -1.61882,-3.35034 -1.80014,-1.03473 -21.687219,0.74338 1.947388,5.61363 -1.740266,1.3068 -11.544638,2.43374 -9.630303,0.72546 -3.28677,-0.72987 -3.259457,-0.95777 0.373403,-2.77271 8.794117,-3.63887 0.842056,-0.93743 -7.483067,0.39673 -18.939559,1.16018 -2.79816,-0.79269 -2.813245,1.34429 z"
       id="path173" />
    <path
       style="fill:#fde6b9;stroke:#000000;stroke-width:1px;stroke-linecap:butt;stroke-linejoin:miter;stroke-opacity:0;fill-opacity:1"
       d="m 67.541467,159.85756 -3.137474,2.9278 -6.588222,1.60307 -1.661786,2.05636 0.856731,1.61429 6.077549,1.34504 4.736631,-0.51373 6.45053,-0.18926 9.997604,-2.39689 1.246711,-2.6015 -3.189984,-4.52819 -1.262988,-0.83581 -2.510923,0.58552 -6.147733,-1.61765 z"
       id="path1000" />
    <path
       style="fill:#fde6b9;stroke:#000000;stroke-width:1px;stroke-linecap:butt;stroke-linejoin:miter;stroke-opacity:0;fill-opacity:1"
       d="m 129.52851,163.26396 -7.36503,0.48938 -11.54467,-0.87895 -2.26244,-0.25007 -0.52554,-2.68114 9.42386,-4.7458 3.30868,-0.36304 5.63869,1.17471 11.39957,3.75588 1.0777,1.78565 -3.84574,1.44394 z"
       id="path1002" />
    <path
       style="fill:#fde6b9;stroke:#000000;stroke-width:1px;stroke-linecap:butt;stroke-linejoin:miter;stroke-opacity:0;fill-opacity:1"
       d="m 85.743225,122.39807 1.955638,3.79181 1.995008,3.49343 2.937623,2.15093 2.539955,2.08587 0.449599,0.0323 0.324117,0.10128 c 0,0 3.745816,1.34032 5.312635,1.06235 1.56682,-0.27798 3.82093,0.40032 3.82093,0.40032 l 7.33633,-0.32831 6.60091,-3.46737 4.85402,-4.99669 2.32773,-4.62459 0.0601,-0.74653 c 0,0 2.18675,-8.55711 -1.26325,-13.81873 -3.44999,-5.26163 -3.78416,-5.34084 -3.78416,-5.34084 l -8.15273,-6.154892 -3.77677,-1.461876 -2.08566,0.0222 -7.564675,2.884713 -5.030784,3.307035 -5.2823,4.57414 -3.961825,5.71395 -1.085644,5.02376 c 0,0 0.08303,3.70175 1.473213,6.29574 z"
       id="path1004" />
    <path
       style="fill:#d3d2ce;stroke:#000000;stroke-width:1px;stroke-linecap:butt;stroke-linejoin:miter;stroke-opacity:0;fill-opacity:1"
       d="m 66.103141,160.23086 5.04723,-2.77765 4.326719,0.7819 3.078756,0.68915 2.510923,-0.58552 0.103037,-3.25239 10.940351,-6.53073 10.776253,-1.124 5.53631,1.75653 5.17714,3.34966 1.7312,2.55497 4.42428,-0.79857 7.27502,2.3639 4.05201,-4.60054 3.22499,-4.26317 -5.44833,-6.00445 -6.70511,-4.1137 2.84981,-4.51392 3.57993,-8.2231 -0.37607,-9.68201 -1.25829,-0.45211 -0.31388,3.76736 -0.9595,4.88026 -3.58786,5.62489 -6.1263,4.63038 -8.87413,2.38446 -5.85639,-0.87206 -6.059791,-1.30029 -6.261303,-5.21195 -3.166911,-6.31009 -1.473213,-6.29574 1.085644,-5.02376 5.145064,-7.0887 4.099061,-3.19939 5.030784,-3.307035 6.171385,-2.529077 2.29733,-1.36859 6.5822,3.524477 5.49666,4.325995 1.97333,0.16634 1.17592,-1.49081 -0.16803,-3.420117 -1.43775,-13.550392 -2.2116,-12.176529 -5.41466,-9.10991 -1.25624,-1.986748 -0.81626,2.057224 -2.04072,1.93922 -4.49005,-0.436445 -1.72773,1.028898 1.91349,6.999024 1.54752,6.060247 -0.20287,5.074076 -5.28157,-1.811203 -0.75085,-0.190749 -0.72125,-2.244148 -4.120181,-3.447227 -1.454928,-0.628026 -0.01894,-2.566609 -1.034623,-1.354933 -2.977357,1.690827 -0.836473,-2.609495 -3.667874,2.570843 -1.003404,-0.305295 -3.699622,4.595749 -2.090438,4.940893 -1.542193,-0.158996 -4.199853,-13.038068 -1.626039,1.603698 -3.731017,-0.435721 -4.907569,1.381968 2.746215,20.67025 2.761095,24.219374 -4.134338,10.2494 -1.076971,8.36712 4.916772,5.93545 1.766497,1.60251 -1.654826,2.54814 -6.100525,4.11031 -1.774854,5.32026 z"
       id="path1012" />
    <path
       style="fill:#fde6b9;stroke:#000000;stroke-width:1px;stroke-linecap:butt;stroke-linejoin:miter;stroke-opacity:0;fill-opacity:1"
       d="m 101.38658,94.253989 c 0,0 2.88014,-1.42427 3.63228,-3.250153 0.75213,-1.825883 3.38935,-3.480423 3.38935,-3.480423 l 0.41894,-1.973905 -3.5362,-3.809979 -5.480329,2.322139 -5.490196,-0.117656 -4.935687,1.828379 -6.051496,5.136202 0.15733,4.382705 3.276095,2.102589 9.578168,-1.259759 z"
       id="path1006" />
    <path
       style="fill:#fde6b9;stroke:#000000;stroke-width:1px;stroke-linecap:butt;stroke-linejoin:miter;stroke-opacity:0;fill-opacity:1"
       d="m 63.358318,70.583836 c 0,0 -0.96548,-1.635622 -1.618113,-4.276968 -0.652632,-2.641347 -1.978038,-5.281851 -1.978038,-5.281851 l 1.398775,-4.744689 -0.02589,-4.345348 3.867358,-1.188171 3.11764,3.400316 3.27917,4.034718 2.020998,6.809539 0.202725,3.042509 -1.626039,1.603698 -6.528514,0.26973 z"
       id="path1008" />
    <path
       style="fill:#fde6b9;stroke:#000000;stroke-width:1px;stroke-linecap:butt;stroke-linejoin:miter;stroke-opacity:0;fill-opacity:1"
       d="m 101.35777,61.357016 -1.460908,-2.38958 -6.296136,-6.404603 1.009078,-1.76435 0.230867,-3.191013 6.071809,-1.936743 6.90457,4.110753 3.36901,6.056903 1.65306,4.029701 -0.81626,2.057224 -2.04072,1.93922 -7.44849,-0.579833 z"
       id="path1010" />
    <path
       style="fill:#d3d2ce;stroke:#000000;stroke-width:1px;stroke-linecap:butt;stroke-linejoin:miter;stroke-opacity:1;fill-opacity:1"
       d="m 200.08418,10.501504 7.17309,7.402269 11.07637,6.641861 12.07522,4.213524 c 0,0 4.052,0.996096 6.02687,0.125143 1.97487,-0.870953 2.19596,-3.035614 2.19596,-3.035614 l 0.44591,0.499811 -4.34643,4.85824 -3.30567,10.110433 -7.80435,12.916233 -7.02311,10.96858 -3.118,7.720698 -3.91142,2.472247 -10.30634,-1.129264 -18.28057,-10.340371 -6.56281,-5.945265 0.8438,-4.266953 4.0522,-3.879497 7.37864,-16.23743 10.75321,-16.267849 1.48885,-2.292096 -1.19894,-3.177392 z"
       id="path1014" />
    <path
       style="fill:#d3d2ce;stroke:#000000;stroke-width:1px;stroke-linecap:butt;stroke-linejoin:miter;stroke-opacity:1;fill-opacity:1"
       d="m 240.77367,51.279668 6.39908,7.272635 9.30381,7.140242 7.91197,4.851346 5.12942,1.64969 3.28246,1.104166 c 0,0 4.42515,1.398824 5.53641,-0.0021 1.11127,-1.400886 1.11127,-1.400886 1.11127,-1.400886 l -0.61326,2.003405 -3.27801,1.472791 -2.42796,1.200021 -2.86253,4.302164 -4.5729,7.977708 -10.39233,11.42477 -0.84231,3.13543 -7.75207,7.72041 -3.11013,3.40819 -3.748,3.96331 -16.55334,-6.16218 -15.62599,-16.433691 1.22359,-3.984939 6.33728,-8.083304 4.86343,-3.871581 7.05105,-11.3331 8.42809,-10.048299 3.22686,-4.635061 z"
       id="path1016" />
    <path
       style="fill:#f9f5f2;stroke:#000000;stroke-width:1px;stroke-linecap:butt;stroke-linejoin:miter;stroke-opacity:1;fill-opacity:1"
       d="m 254.86819,77.334215 -7.52367,9.959516 -5.92267,6.794051 -6.65034,5.956438 -1.3331,1.18937 4.34834,3.13303 7.12431,-8.668708 7.91671,-8.891626 5.64592,-7.405664 z"
       id="path1018" />
    <path
       style="fill:#f9f5f2;stroke:#000000;stroke-width:1px;stroke-linecap:butt;stroke-linejoin:miter;stroke-opacity:1;fill-opacity:1"
       d="m 240.77367,51.279668 8.08739,9.081859 11.32293,8.224108 12.48342,4.879788 5.20388,0.644168 0.68817,-3.806555 -7.70297,-8.620792 -3.91401,-6.201563 -7.47534,-2.348623 c 0,0 -11.3518,-3.088893 -11.74945,-3.142406 -0.39765,-0.05351 -6.86755,0.0418 -6.86755,0.0418 z"
       id="path1020" />
    <path
       style="fill:#f9f5f2;stroke:#000000;stroke-width:1px;stroke-linecap:butt;stroke-linejoin:miter;stroke-opacity:1;fill-opacity:1"
       d="m 200.08418,10.501504 c 0,0 -0.41926,-2.8503297 3.95915,-2.2151179 4.3784,0.6352118 4.3784,0.6498765 4.3784,0.6498765 l 7.65544,2.4280684 10.27402,4.217624 9.92249,5.706095 2.35801,4.560637 -2.79525,3.518363 -4.59774,-0.464899 -14.43839,-4.766942 -9.54304,-6.231436 z"
       id="path1022" />
    <path
       style="fill:#f9f5f2;stroke:#000000;stroke-width:1px;stroke-linecap:butt;stroke-linejoin:miter;stroke-opacity:1;fill-opacity:1"
       d="m 281.42534,31.462478 -2.00193,2.578006 -0.0189,1.08206 2.43859,0.951825 1.99788,-0.946143 0.40054,-1.494364 -0.70738,-1.616903 z"
       id="path1024" />
  </g>
  <g
     inkscape:groupmode="layer"
     inkscape:label="Image"
     id="g70"
     style="display:inline">
    <path
       style="fill:#000000;stroke-width:0.32"
       d="m 11.454651,198.05173 c -0.475942,-0.18442 -0.951927,-0.60809 -1.057744,-0.94149 -0.105817,-0.3334 -0.02792,-2.37559 0.173112,-4.53821 0.348227,-3.74615 0.284885,-13.41169 -0.184096,-28.09204 -0.108408,-3.39346 -0.04045,-6.54566 0.172462,-8 0.978955,-6.68684 1.256972,-25.16073 0.688649,-45.76 -0.385011,-13.954996 -0.182476,-26.90137 0.578206,-36.959994 0.17303,-2.288 0.396668,-9.847999 0.496974,-16.799999 0.100305,-6.952 0.284841,-14.921503 0.41008,-17.710009 0.125239,-2.788502 0.139589,-6.748502 0.03189,-8.799998 -1.069925,-20.380346 -1.068546,-20.127272 -0.117135,-21.5001584 0.483997,-0.6984077 1.04041,-1.297631 1.236474,-1.3316073 0.196063,-0.033977 30.95648,-0.069977 68.356482,-0.08 58.423815,-0.015658 68.212545,-0.083497 69.509255,-0.4817213 1.31768,-0.4046621 1.98791,-0.4046621 5.28,0 2.79467,0.3435174 7.59489,0.4634966 18.54397,0.4634966 14.77324,0 14.77324,0 15.60001,0.7757805 0.87577,0.8217596 1.12163,2.3642119 0.44364,2.7832359 -0.43563,0.269231 -1.6402,0.307708 -16.89687,0.539717 -6.9419,0.105567 -12.16847,0.03989 -14.08,-0.176914 -4.52288,-0.512989 -7.33026,-0.445319 -8.5851,0.20694 -0.78758,0.409378 -1.49629,0.506118 -2.72,0.371279 C 148.42471,11.919744 138.68,11.854923 127.68,11.87599 c -11,0.02107 -40.482554,0.0061 -65.516792,-0.03337 -41.480216,-0.06532 -45.534227,-0.02625 -45.713373,0.4406 -0.108118,0.281752 -0.02233,1.739792 0.190635,3.24009 0.702052,4.945761 0.511962,40.685227 -0.291877,54.876688 -0.962358,16.990083 -1.044007,22.473571 -0.648016,43.519992 0.235714,12.52783 0.293566,24.30712 0.143804,29.28 -0.137809,4.576 -0.276688,9.256 -0.308619,10.4 -0.03193,1.144 -0.22854,2.48537 -0.436909,2.98083 -0.208369,0.49546 -0.378853,1.97146 -0.378853,3.28 0,2.37917 0,2.37917 4.400001,2.37537 2.832983,-0.003 5.025906,-0.17035 6.157472,-0.47147 1.343961,-0.35764 2.052067,-0.38835 3.009531,-0.13053 1.128472,0.30387 4.252149,0.17438 5.705861,-0.23652 0.31216,-0.0882 0.698394,-0.69675 0.887136,-1.39768 0.525731,-1.95242 2.102343,-2.03452 3.322061,-0.17299 0.633974,0.96757 1.045034,1.03284 1.306973,0.20754 0.29136,-0.91799 1.369389,-1.0592 1.933856,-0.25331 0.429661,0.61342 0.729277,0.67271 2.957603,0.58528 1.363728,-0.0535 3.847508,-0.27416 5.519508,-0.49034 3.031613,-0.39196 9.624867,-0.41635 10.237267,-0.0379 0.52473,0.3243 0.369437,1.07418 -0.29623,1.43043 -0.340429,0.1822 -2.464429,0.33498 -4.72,0.33952 -2.255572,0.005 -5.541037,0.17637 -7.301037,0.38184 -1.760001,0.20547 -4.057565,0.38175 -5.1057,0.39174 -1.544467,0.0147 -2.044483,0.15699 -2.637859,0.75057 -0.591104,0.5913 -0.854461,0.66695 -1.366967,0.39266 -0.349145,-0.18685 -0.787174,-0.62443 -0.973401,-0.9724 -0.462243,-0.86371 -1.099674,-0.79435 -1.53785,0.16733 -0.336429,0.73839 -0.531389,0.80014 -2.531363,0.80179 -1.191773,9.6e-4 -2.713979,0.15371 -3.38268,0.33941 -0.880346,0.24446 -1.684074,0.23283 -2.912864,-0.0422 -1.246624,-0.27898 -1.985587,-0.28744 -2.784181,-0.0318 -0.597925,0.19137 -2.743136,0.43405 -4.767136,0.5393 -2.024,0.10525 -3.986918,0.2533 -4.36204,0.329 -0.917871,0.18523 -1.083592,1.26398 -0.735013,4.7845 0.156837,1.584 0.339097,7.704 0.405022,13.6 l 0.119863,10.72 4.286084,0.20477 c 5.998088,0.28655 12.997278,0.32683 21.406084,0.12319 13.697594,-0.33172 30.254129,-0.41693 33.760001,-0.17375 3.308132,0.22947 21.125284,0.03 47.839998,-0.53551 15.23126,-0.32244 16.13229,-0.31848 31.36001,0.13795 22.86929,0.68546 38.39499,0.84795 39.96634,0.41828 1.93402,-0.52884 24.6537,-0.41259 32.03366,0.16391 4.94758,0.38649 20.67658,0.44748 30.88,0.11974 6.336,-0.20352 18.144,-0.46195 26.24,-0.5743 l 14.72,-0.20428 0.0839,-11.71758 c 0.0659,-9.19793 -0.004,-11.7905 -0.32475,-12.05673 -0.56867,-0.47195 -3.11863,-0.67695 -4.05956,-0.32636 -0.42923,0.15992 -0.9774,0.572 -1.21815,0.91572 -0.48668,0.69484 -1.66084,0.84855 -1.71829,0.22495 -0.0752,-0.81634 0.0736,-1.69882 0.39563,-2.34581 0.4488,-0.90176 2.1049,-1.84104 2.77779,-1.57545 1.06346,0.41974 3.60511,0.70508 3.77869,0.42421 0.0967,-0.15649 0.23301,-1.25168 0.30287,-2.43374 0.0699,-1.18206 0.29278,-3.0132 0.49537,-4.0692 0.3007,-1.5674 0.27998,-2.27261 -0.11285,-3.84 -0.41646,-1.66168 -0.46724,-6.44072 -0.37738,-35.52 0.0571,-18.48 0.17237,-34.103999 0.25616,-34.719999 0.0838,-0.616 0.31127,-4.936 0.50553,-9.6 0.19426,-4.663999 0.49311,-9.083766 0.66412,-9.821702 0.40767,-1.759228 0.40274,-18.181922 -0.006,-20.162546 -0.17434,-0.844662 -0.46025,-3.47975 -0.63536,-5.85575 -0.17512,-2.376 -0.60498,-6.48 -0.95525,-9.119999 -0.42935,-3.235954 -0.64927,-6.83326 -0.67492,-11.04 -0.0209,-3.432 -0.0947,-6.456 -0.164,-6.72 -0.11054,-0.421307 -3.6773,-0.491917 -29.16972,-0.577461 -29.59988,-0.09933 -30.46972,-0.111919 -36.87925,-0.533833 -4.4058,-0.290016 -5.01735,-0.491378 -5.60718,-1.846269 -0.43257,-0.993635 -0.4137,-1.078184 0.40295,-1.8060324 0.83876,-0.7475472 0.94108,-0.7588787 4.86824,-0.5391392 2.20631,0.1234515 18.82798,0.2929827 36.93706,0.376736 20.90784,0.096698 33.14255,0.2683913 33.52,0.4703977 0.32692,0.1749658 0.60579,0.5650529 0.61969,0.8668609 0.0139,0.301807 0.0517,4.36474 0.0841,9.02874 0.0499,7.190618 0.18962,9.445551 0.91913,14.830233 1.61105,11.891462 1.90421,24.838207 0.89961,39.729764 -0.76977,11.410515 -0.96647,21.253823 -0.98157,49.119999 -0.0119,21.9459 0.0868,30.32737 0.38173,32.41292 0.32302,2.28423 0.31786,3.36683 -0.0274,5.76 -0.55101,3.81857 -0.83112,25.29353 -0.39698,30.43515 0.22867,2.70832 0.22089,3.96923 -0.0269,4.36606 -0.82089,1.31446 -2.1272,1.40589 -20.8769,1.46113 -9.856,0.0291 -20.36801,0.21095 -23.36001,0.40425 -6.62993,0.42832 -25.94179,0.44641 -30.56,0.0286 -1.848,-0.16718 -9.43127,-0.39764 -16.85171,-0.51212 -12.05191,-0.18594 -13.63117,-0.15235 -14.79856,0.31475 -1.13208,0.45297 -2.51601,0.50487 -10.34829,0.38814 -13.3501,-0.19897 -36.16661,-0.7747 -39.23408,-0.99001 -2.99257,-0.21004 -19.79998,-0.23746 -20.14555,-0.0329 -0.122,0.0722 -6.34181,0.22264 -13.82181,0.33425 -7.48,0.1116 -17.992001,0.36238 -23.360001,0.55728 -7.624262,0.27683 -10.635302,0.26655 -13.76,-0.047 -2.791111,-0.28004 -6.804628,-0.34083 -13.280001,-0.20114 -19.101405,0.41205 -49.578052,0.51609 -50.465351,0.17228 z m 239.316309,-18.7693 c -0.0928,-0.15015 -0.0488,-0.4671 0.0979,-0.70435 0.32454,-0.52512 1.40034,-0.18577 1.21127,0.38208 -0.16013,0.48093 -1.0723,0.70549 -1.30914,0.32227 z m -11.56349,-1.67037 c -0.12659,-0.20482 2.6e-4,-0.62701 0.28189,-0.9382 0.28162,-0.31119 0.41573,-0.66212 0.29801,-0.77984 -0.31188,-0.31188 -9.04171,-0.24558 -12.56845,0.0954 -2.9204,0.2824 -3.04369,0.26776 -3.69895,-0.43928 -0.62578,-0.67523 -0.88542,-0.72102 -3.37891,-0.59605 -1.48558,0.0745 -3.13305,0.2597 -3.66105,0.41164 -0.528,0.15194 -2.05785,0.37201 -3.39965,0.48905 -2.01702,0.17593 -2.58546,0.11726 -3.28131,-0.33868 -0.71555,-0.46885 -1.05448,-0.49789 -2.26205,-0.19382 -1.95464,0.49219 -2.09699,0.46448 -2.09699,-0.4081 0,-0.89869 0.3457,-1.06166 3.16629,-1.49268 1.16254,-0.17766 3.19371,-0.53261 4.51371,-0.78878 1.32,-0.25618 5.69633,-0.61717 9.72518,-0.8022 4.02885,-0.18503 7.5899,-0.47809 7.91343,-0.65124 0.32354,-0.17316 0.95788,-0.22206 1.40965,-0.10867 0.79108,0.19855 0.80065,0.22908 0.25929,0.82728 -0.88014,0.97255 -0.0703,1.21186 3.40274,1.00552 2.98371,-0.17728 3.05663,-0.16478 3.36971,0.57766 0.27985,0.66366 0.62111,0.79142 2.72,1.01831 2.63788,0.28515 3.19728,0.57268 2.57439,1.32321 -0.33447,0.40302 -0.31507,0.52485 0.10957,0.6878 0.28382,0.10891 0.51604,0.39862 0.51604,0.64379 0,0.33043 -0.4864,0.44576 -1.88,0.44576 -1.034,0 -2.31254,0.0865 -2.84119,0.19224 -0.58234,0.11647 -1.05191,0.0455 -1.19135,-0.18017 z m -25.04746,-3.424 c -0.22,-0.0888 -0.58,-0.0888 -0.8,0 -0.22,0.0888 -0.04,0.16141 0.4,0.16141 0.44,0 0.62,-0.0726 0.4,-0.16141 z m 4.72,-0.94539 c 0,-0.0675 -0.54,-0.11256 -1.2,-0.10019 -0.91405,0.0171 -1.04872,0.0816 -0.56511,0.27046 0.58538,0.22863 1.76511,0.11483 1.76511,-0.17027 z m -46.02347,-1.61084 c 0.12915,-0.65929 1.81194,-1.25427 4.82212,-1.70495 1.27674,-0.19115 3.04141,-0.47254 3.92148,-0.62531 0.88007,-0.15277 3.57543,-0.29753 5.98969,-0.32169 3.02625,-0.0303 4.73506,-0.18829 5.50198,-0.50873 1.15975,-0.48458 2.22069,-0.33295 2.01704,0.28827 -0.065,0.19831 -0.51704,0.40748 -1.0045,0.46481 -0.72701,0.0855 -0.85439,0.22631 -0.70872,0.78336 0.36729,1.40452 -1.30239,2.10837 -1.87974,0.7924 -0.30346,-0.69168 -0.44742,-0.71559 -3.65954,-0.60788 -1.83901,0.0617 -3.68439,0.24167 -4.10083,0.4 -0.41645,0.15834 -1.3598,0.29014 -2.09635,0.2929 -0.73654,0.003 -2.69302,0.29075 -4.34774,0.64 -3.75117,0.79171 -4.59301,0.8119 -4.45489,0.10682 z m -12.04705,-0.73649 c -0.34207,-0.55348 -0.0158,-0.74608 1.67515,-0.98879 2.60383,-0.37374 9.03537,-2.12123 9.03537,-2.45496 0,-0.26184 -4.90516,0.18161 -6.67401,0.60335 -0.8173,0.19487 -1.95615,0.58413 -2.53078,0.86503 -0.7509,0.36706 -1.19059,0.41874 -1.56313,0.18375 -1.38185,-0.87165 -0.10932,-1.51113 4.36792,-2.19497 1.848,-0.28227 4.10662,-0.5122 5.01916,-0.51098 0.91255,0.001 2.02471,-0.13676 2.47149,-0.30662 0.44678,-0.16987 2.07615,-0.37564 3.62083,-0.45727 1.54469,-0.0816 4.05134,-0.25058 5.57033,-0.37543 3.03801,-0.24971 4.43819,-0.0459 4.43819,0.64607 0,0.47504 -1.08971,0.97085 -1.53242,0.69724 -0.14198,-0.0877 -0.44624,-0.0433 -0.67614,0.0988 -0.71303,0.44068 5.55894,0.77272 6.37242,0.33736 0.85253,-0.45625 1.5398,0.0249 0.85151,0.59612 -0.29343,0.24353 -2.3449,0.41259 -5.85357,0.48239 -5.25732,0.1046 -10.11941,0.6405 -14.6818,1.61822 -6.05721,1.29807 -9.57126,1.70962 -9.91052,1.16069 z m -98.169488,-1.62716 c -0.640592,-0.38892 -0.735299,-1.12208 -0.188592,-1.45996 0.204272,-0.12625 1.181136,-0.20032 2.170807,-0.16461 1.583417,0.0571 1.894128,-0.0377 2.588592,-0.79015 1.118752,-1.21217 4.550582,-2.69347 6.240137,-2.69347 2.647594,0 2.104372,0.87755 -1.129878,1.82527 -1.382547,0.40513 -2.113949,0.791 -2.183466,1.15196 -0.123773,0.64271 0.818884,0.70717 3.489031,0.23857 0.953353,-0.1673 3.029369,-0.52944 4.61337,-0.80475 3.901449,-0.6781 6.24,-1.45821 6.24,-2.08159 0,-0.49404 -1.221706,-2.36094 -3.356746,-5.12946 -2.52519,-3.27443 -2.477574,-3.68792 0.696912,-6.05156 1.198909,-0.89268 2.539834,-1.9139 2.979834,-2.26938 0.958864,-0.77466 4.576579,-2.54824 5.92,-2.90227 0.528,-0.13914 1.590054,-0.48435 2.360118,-0.76713 3.590039,-1.31833 11.928189,-1.52014 13.620089,-0.32966 1.25628,0.88396 1.35348,0.938 3.69979,2.05681 2.41977,1.15384 3.70582,2.21782 4.93524,4.08304 0.82712,1.25486 0.93709,1.31695 1.73395,0.97892 0.46795,-0.1985 1.14809,-0.62143 1.51144,-0.93984 0.91681,-0.80344 1.68746,-0.72298 2.1176,0.22107 0.23761,0.52149 0.62513,0.8 1.11314,0.8 0.41175,0 0.74863,0.1286 0.74863,0.28577 0,0.49126 0.97721,0.68754 1.64464,0.33034 0.48511,-0.25962 0.82241,-0.22095 1.40556,0.16115 1.0524,0.68955 1.23687,0.64216 1.63811,-0.42085 0.21527,-0.5703 1.0329,-1.36133 2.13749,-2.06793 1.76822,-1.13111 3.09804,-2.97052 3.0912,-4.27573 -0.005,-0.93597 -1.76309,-3.71958 -2.89057,-4.57645 -0.57628,-0.43796 -1.23737,-0.98298 -1.4691,-1.21115 -0.58929,-0.58025 -6.68391,-3.58515 -7.27149,-3.58515 -0.77533,0 -1.0249,-1.31764 -0.34389,-1.81561 0.31921,-0.23341 0.75092,-0.42439 0.95937,-0.42439 0.45116,0 4.28337,-6.26394 5.09007,-8.32 0.5819,-1.48309 1.19741,-5.0638 1.21016,-7.04 0.025,-3.87233 -1.46534,-9.25211 -3.27995,-11.84 -0.30853,-0.44 -0.85503,-1.448 -1.21446,-2.24 -1.72232,-3.79515 -11.8341,-11.840312 -14.88122,-11.839835 -0.90363,1.44e-4 -3.2925,0.73249 -5.18592,1.589824 -0.352,0.159386 -1,0.386954 -1.44,0.505706 -1.40271,0.378579 -5.439997,2.381292 -5.439997,2.698535 0,0.27142 -3.287267,2.88577 -3.628547,2.88577 -0.287088,0 -3.044362,2.79355 -4.263908,4.32 -2.148012,2.68858 -2.796553,4.39306 -2.983059,7.84 -0.148768,2.74949 -0.224393,3.04 -0.791366,3.04 -0.82897,0 -1.103533,-1.37582 -0.842621,-4.22233 0.167664,-1.82921 0.445725,-2.60549 1.69871,-4.74245 0.824026,-1.40537 1.973556,-3.06528 2.554509,-3.68869 1.627517,-1.74646 7.284977,-6.386525 7.786852,-6.386525 0.245801,0 0.602889,-0.291446 0.793529,-0.647661 0.405245,-0.757203 3.282077,-2.174963 7.072798,-3.485609 2.64783,-0.915488 2.68441,-0.942797 2.78242,-2.077206 0.12511,-1.448084 0.91251,-1.521136 2.84224,-0.2637 0.73786,0.480797 1.88986,1.19865 2.56,1.595229 0.67015,0.396582 2.01044,1.193229 2.97844,1.77033 0.968,0.577104 2.8631,1.944627 4.21132,3.038947 1.34822,1.094315 2.60822,1.989665 2.8,1.989665 0.44067,0 0.4563,-3.307237 0.0281,-5.9453 -0.17367,-1.06992 -0.38232,-3.80592 -0.46367,-6.08 C 121.09492,79.00814 118.87232,71.900403 113.1642,62.578822 112.52389,61.533175 112,60.506807 112,60.298003 c 0,-0.208803 -0.216,-0.558905 -0.48,-0.778006 -0.264,-0.219101 -0.48,-0.876234 -0.48,-1.460298 0,-0.58406 -0.12527,-1.139356 -0.27839,-1.233987 -0.15311,-0.09463 -0.68648,-0.978633 -1.18526,-1.964451 -1.81076,-3.578912 -7.16843,-8.141263 -9.56046,-8.141263 -0.647218,0 -0.815887,0.158304 -0.815887,0.765763 0,0.421171 0.226099,0.852528 0.502445,0.958569 0.672462,0.258048 0.463172,1.597559 -0.271491,1.737603 -0.312976,0.05966 -1.073987,-0.334867 -1.691136,-0.876729 -0.776685,-0.681939 -1.45288,-0.985206 -2.196717,-0.985206 -0.667143,0 -1.145527,-0.184762 -1.261607,-0.487258 -0.255248,-0.665165 0.901629,-1.752742 1.864423,-1.752742 0.432256,0 1.518592,-0.432 2.414083,-0.96 0.895491,-0.528 1.740307,-0.96 1.877377,-0.96 0.13706,0 1.13873,0.430889 2.22591,0.957529 1.92144,0.930755 2.52429,1.373104 5.39244,3.956727 1.90187,1.713209 4.00102,5.131676 4.19208,6.826834 0.0849,0.752765 0.3518,1.532602 0.59323,1.73297 0.24143,0.200368 0.43896,0.562672 0.43896,0.80512 0,0.242451 0.12992,0.440819 0.2887,0.440819 0.15878,0 0.43929,0.432 0.62335,0.96 0.18407,0.528 0.48615,0.96 0.67131,0.96 0.18515,0 0.33664,0.15777 0.33664,0.350602 0,0.192832 0.27719,0.739871 0.61597,1.215644 1.16204,1.631939 4.83611,9.274915 5.12168,10.654371 0.15705,0.758662 0.57377,2.171382 0.92604,3.139382 1.07276,2.947869 1.80238,9.727878 2.18683,20.321103 0.16457,4.534861 0.13826,4.833661 -0.4745,5.388201 -0.64836,0.58676 -0.64816,0.58787 0.36763,1.93831 1.20584,1.60313 4.14188,7.68498 4.80455,9.95238 0.25719,0.88 0.55437,3.256 0.6604,5.28 0.30331,5.78977 -0.72503,10.88216 -2.57009,12.72721 -0.24118,0.24118 -0.43851,0.61035 -0.43851,0.82039 0,0.542 -1.20122,2.71461 -1.93834,3.50582 -0.34191,0.36699 -0.61775,0.82011 -0.61297,1.00692 0.005,0.18682 1.12078,0.86989 2.48,1.51795 1.35922,0.64806 2.92555,1.59937 3.48073,2.11403 0.55518,0.51466 1.21733,1.01552 1.47145,1.11304 0.25412,0.0975 1.13188,1.116 1.95058,2.26331 1.15634,1.62046 1.48855,2.36272 1.48855,3.32584 0,1.92445 -1.35192,4.17304 -3.69406,6.14415 -1.13627,0.95626 -2.06594,1.92271 -2.06594,2.14767 0,0.22495 0.612,0.56081 1.36,0.74636 2.90733,0.72117 4.01144,1.10788 6.54707,2.2931 1.44489,0.67538 2.78701,1.52681 2.9825,1.89208 0.30563,0.57108 0.19797,0.81263 -0.76838,1.72401 -1.21667,1.14747 -1.83177,1.31536 -5.96119,1.62705 -2.89357,0.21841 -4.48,-0.11974 -4.48,-0.95491 0,-0.44536 1.0844,-0.93007 1.78063,-0.79591 0.16466,0.0317 0.78501,0.0406 1.37856,0.0198 0.86169,-0.0303 1.00772,-0.124 0.72458,-0.46516 -0.19503,-0.235 -0.96866,-0.60476 -1.71919,-0.82168 -0.75051,-0.21693 -1.8068,-0.52866 -2.3473,-0.69273 -0.54049,-0.16406 -1.35086,-0.29831 -1.80081,-0.29831 -1.18522,0 -1.64981,-0.68113 -1.17515,-1.72288 0.31738,-0.69659 0.28949,-0.93478 -0.16876,-1.44114 -0.46709,-0.51613 -0.69051,-0.55321 -1.49758,-0.24858 -0.71896,0.27138 -1.10082,0.26298 -1.57744,-0.0347 -0.81161,-0.50686 -1.82218,-0.50321 -2.01635,0.007 -0.10196,0.26807 -0.42192,0.12027 -0.97002,-0.44808 -0.81788,-0.84809 -0.81788,-0.84809 -2.19452,-0.21395 -0.75716,0.34877 -1.73665,0.84713 -2.17665,1.10746 -0.79653,0.47127 -3.20452,1.6048 -4.88,2.29719 -0.91758,0.37919 -1.16146,1.35679 -0.57129,2.29007 0.29637,0.46868 -0.40167,1.60732 -0.98535,1.60732 -0.67743,0 -1.88336,-1.81716 -1.88336,-2.83795 0,-1.0845 0,-1.0845 -1.68,-0.84525 -0.924,0.13159 -3.192,0.18896 -5.039997,0.12748 -4.108032,-0.13665 -6.794323,-0.088 -11.28,0.20421 -3.234528,0.21072 -3.439392,0.26494 -3.429824,0.90781 0.0056,0.37603 0.211184,0.94898 0.456861,1.27322 0.245673,0.32423 0.544803,1.17029 0.664732,1.88014 0.195716,1.15844 0.124343,1.36901 -0.69686,2.05592 -1.728919,1.44619 -2.676292,1.76146 -7.954909,2.64729 -1.056001,0.17721 -2.900036,0.48963 -4.09786,0.69427 -1.207878,0.20636 -2.846886,0.27194 -3.68,0.14726 -1.633126,-0.24441 -1.852096,-0.24472 -4.702141,-0.007 -1.093027,0.0913 -2.1612,0.014 -2.48,-0.17959 z M 137.28,161.42995 c 0,-0.26953 -0.22568,-0.57665 -0.50151,-0.68249 -0.60183,-0.23095 -1.25813,0.33534 -0.95572,0.82465 0.32599,0.52746 1.45723,0.4171 1.45723,-0.14216 z m -29.34662,-3.04955 c 0.83602,-0.78039 3.2567,-1.90041 4.1073,-1.90041 0.95484,0 1.95522,-1.18025 1.58567,-1.87078 -0.53246,-0.99491 -2.18264,-2.4227 -3.61148,-3.12476 -0.75618,-0.37155 -2.43366,-1.19955 -3.72774,-1.84 -2.20758,-1.09255 -2.54067,-1.16446 -5.39421,-1.16446 -3.156603,0 -6.684898,0.63392 -8.892917,1.59777 -0.704,0.30731 -1.64,0.66558 -2.08,0.79616 -1.27024,0.37697 -4.544295,2.17618 -5.430471,2.98425 -0.445241,0.406 -1.201014,0.97438 -1.679494,1.26307 -1.211856,0.73116 -1.326138,1.27167 -0.49088,2.32164 0.700205,0.88019 0.789562,0.9018 3.120845,0.75451 1.32,-0.0834 3.912,-0.30494 5.76,-0.49232 1.848,-0.18739 3.504,-0.31582 3.68,-0.28542 0.176,0.0304 2.84,0.1 5.919997,0.1546 5.43639,0.0964 5.60299,0.11928 5.70226,0.78253 0.12845,0.85826 0.52988,0.86488 1.43112,0.0236 z m 178.30663,10.41409 c -0.54576,-0.25334 -2.02114,-0.45186 -3.41917,-0.46007 -1.35254,-0.008 -2.80694,-0.14665 -3.23199,-0.30825 -0.42505,-0.16161 -3.06242,-0.38197 -5.86083,-0.4897 -10.31671,-0.39716 -19.95303,-1.1644 -23.48801,-1.87009 -1.32,-0.26352 -2.83909,-0.40811 -3.37576,-0.32131 -0.53666,0.0868 -2.33666,-0.008 -4,-0.2101 -2.75579,-0.33525 -8.15398,-0.78637 -19.26406,-1.60986 -2.24389,-0.16632 -4.35843,-0.45151 -4.69896,-0.63376 -0.34053,-0.18225 -1.74461,-0.33768 -3.12019,-0.34541 -1.37557,-0.008 -3.58103,-0.15074 -4.90103,-0.31779 -6.49205,-0.82162 -14.49652,-1.58121 -16.69715,-1.58449 -2.48287,-0.004 -3.46285,-0.40764 -3.46285,-1.42734 0,-1.08911 0.8535,-1.22799 4.39893,-0.71578 1.89259,0.27342 4.66507,0.58093 6.16107,0.68335 3.46715,0.23738 5.34271,0.42322 8.26315,0.81875 1.28874,0.17455 3.73674,0.32079 5.44,0.32499 1.70327,0.004 3.67285,0.1661 4.37685,0.35979 0.704,0.19369 2.72,0.46909 4.48,0.61202 5.1379,0.41722 14.49175,1.25666 17.44,1.5651 1.496,0.15651 3.84346,0.29601 5.21659,0.31001 1.37313,0.014 3.96513,0.3027 5.76,0.64158 4.01666,0.75834 11.91882,1.45675 13.2283,1.16914 0.53164,-0.11676 1.66141,-0.0566 2.51061,0.13371 0.84919,0.19031 3.9336,0.48652 6.85424,0.65825 5.66144,0.33288 10.26368,0.77359 12.35026,1.18267 1.15119,0.22569 1.28,0.34701 1.28,1.20552 0,1.12514 -0.72981,1.33009 -2.24,0.62907 z m -227.626341,-0.6445 c -0.314995,-0.69134 -0.252198,-0.99513 0.428634,-2.07364 0.438736,-0.695 0.797699,-1.32153 0.797699,-1.39229 0,-0.0708 -0.54,0.0595 -1.2,0.28937 -1.142106,0.39786 -1.195319,0.47899 -1.10297,1.68152 0.107085,1.39441 -0.476291,1.91273 -1.522563,1.35278 -0.834627,-0.44668 -1.041808,-1.23409 -0.64281,-2.44306 0.420247,-1.27336 1.635114,-2.04765 4.468343,-2.84789 1.144,-0.32312 2.307338,-0.77858 2.585197,-1.01214 0.277859,-0.23356 0.781859,-0.42685 1.12,-0.42955 0.338141,-0.003 0.830803,-0.1516 1.094803,-0.33091 0.408688,-0.27758 0.36712,-0.40759 -0.279798,-0.8751 -2.484634,-1.79558 -3.848656,-3.58002 -4.547028,-5.94849 -0.38479,-1.30498 0.606781,-3.92134 2.318167,-6.11671 2.258713,-2.89749 6.910323,-6.13022 7.693667,-5.34688 0.582637,0.58264 -0.04167,1.49291 -1.637414,2.38744 -2.18433,1.22449 -5.383527,4.52175 -5.783162,5.96043 -0.508963,1.83229 -0.388323,2.68908 0.59752,4.24359 0.894211,1.41003 2.500733,2.83153 3.200071,2.83153 0.188771,0 0.579104,-0.36 0.867404,-0.8 0.610548,-0.93181 0.911517,-0.97285 2.201517,-0.3002 0.914659,0.47694 0.973674,0.46466 1.546688,-0.32197 0.741165,-1.01745 1.056759,-1.01967 2.531108,-0.0178 0.711955,0.48378 1.628489,0.8 2.318771,0.8 1.030893,0 3.358528,1.13379 3.368528,1.64082 0.0022,0.11045 -0.216304,0.38362 -0.485514,0.60704 -0.377788,0.31354 -0.673296,0.32248 -1.295059,0.0392 -0.443069,-0.20188 -1.283386,-0.36705 -1.867366,-0.36705 -0.583984,0 -1.427924,-0.288 -1.875418,-0.64 -0.447494,-0.352 -1.003258,-0.64 -1.235027,-0.64 -0.506666,0 -2.517655,2.19404 -2.517655,2.74683 0,0.21481 -0.422061,0.53769 -0.93791,0.71752 -0.746365,0.26019 -0.958759,0.54432 -1.04,1.39131 -0.09582,0.99891 -0.220122,1.1003 -2.02209,1.6493 -3.468595,1.05678 -4.96016,1.85351 -5.155376,2.75379 -0.317885,1.46601 -0.415866,1.62125 -1.023216,1.62125 -0.330029,0 -0.764291,-0.36348 -0.967741,-0.81 z M 120.32,164.01102 c -0.792,-0.23342 -3.1532,-0.50059 -5.24711,-0.59372 -3.19077,-0.14191 -3.90701,-0.26921 -4.42413,-0.78633 -0.58415,-0.58415 -0.58762,-0.6464 -0.0652,-1.16884 0.37784,-0.37784 0.76381,-0.47554 1.22413,-0.30986 0.75066,0.27017 6.20891,0.43566 6.83046,0.20709 0.21899,-0.0805 0.31769,-0.27663 0.21934,-0.43576 -0.0984,-0.15913 -0.082,-0.59451 0.0364,-0.96751 0.19669,-0.61973 0.38459,-0.66377 2.18065,-0.51105 2.70004,0.22958 5.00868,1.25725 4.99524,2.22358 -0.0133,0.95332 -0.55066,1.62944 -1.81393,2.28219 -1.20587,0.6231 -1.9855,0.63502 -3.9359,0.0602 z m 3.02311,-2.11836 c -0.10303,-0.16671 -0.32373,-0.21881 -0.49044,-0.11578 -0.16671,0.10304 -0.21881,0.32373 -0.11577,0.49044 0.10303,0.16671 0.32372,0.21881 0.49044,0.11578 0.16671,-0.10303 0.2188,-0.32373 0.11577,-0.49044 z m 61.77513,-2.53553 c -0.43073,-0.69693 0.25422,-1.5581 1.75158,-2.20225 1.84311,-0.79288 2.43782,-0.84138 2.67693,-0.21828 0.19894,0.51844 0.002,0.69685 -2.08373,1.88829 -1.62983,0.93099 -2.0407,1.02425 -2.34478,0.53224 z m -25.11823,-0.72557 c -3.08,-0.15621 -9.15677,-0.30822 -13.50392,-0.33779 -6.05735,-0.0412 -8.00113,-0.15226 -8.32,-0.47532 -0.34184,-0.34633 -0.31733,-0.49452 0.13738,-0.8305 0.84641,-0.62541 9.11468,-0.88383 16.25337,-0.50798 3.42824,0.1805 7.02517,0.31997 7.99317,0.30995 0.968,-0.01 3.344,0.0591 5.28,0.15354 1.936,0.0945 4.51885,0.2174 5.73966,0.27316 2.27943,0.10411 2.83363,0.4598 2.09781,1.34642 -0.44128,0.5317 -6.0606,0.55626 -15.67747,0.0685 z m 17.23129,-0.15157 c -0.10027,-1.15272 -0.078,-1.54946 0.15086,-2.68784 0.44753,-2.22611 1.9266,-2.62008 2.90867,-0.77475 0.36805,0.69157 0.83062,1.30938 1.02793,1.37292 0.19992,0.0644 0.52918,-0.56129 0.74368,-1.41315 0.60352,-2.39677 1.60516,-3.09684 2.28768,-1.59888 0.26813,0.58848 0.17734,1.09174 -0.4474,2.48 -0.43109,0.95794 -1.09517,2.0657 -1.47572,2.4617 -0.78876,0.82076 -2.10883,0.95373 -2.38272,0.24 -0.1013,-0.264 -0.38707,-0.48 -0.63505,-0.48 -0.24797,0 -0.63012,0.216 -0.84922,0.48 -0.5397,0.65029 -1.26901,0.60638 -1.32871,-0.08 z M 68.59981,141.50363 c -1.587366,-1.03841 -2.986685,-2.34196 -2.994278,-2.78936 -0.0032,-0.17914 -0.348544,-0.8305 -0.767786,-1.44747 -2.033661,-2.9928 -1.98968,-8.38263 0.11609,-14.22681 0.380496,-1.056 0.770329,-2.244 0.866294,-2.64 0.09596,-0.396 0.301693,-0.72 0.457178,-0.72 0.155481,0 0.282694,-0.1519 0.282694,-0.33755 0,-0.18566 0.292653,-0.97997 0.650339,-1.76514 0.675348,-1.48248 0.674903,-2.64756 -0.0026,-6.37731 -0.521916,-2.8739 -1.011859,-6.91544 -1.302492,-10.74427 -0.15688,-2.066765 -0.494301,-5.246797 -0.749828,-7.066739 -0.255526,-1.819942 -0.693072,-5.252985 -0.972323,-7.628985 -0.614669,-5.229875 -1.023408,-8.026374 -1.638077,-11.207312 -0.614278,-3.178908 -0.607529,-5.078147 0.01891,-5.318531 0.266243,-0.102166 0.69024,-0.01466 0.942221,0.194468 0.364758,0.302726 0.574275,0.244591 1.027895,-0.285197 0.448566,-0.523888 0.795392,-0.623095 1.630582,-0.466413 0.77561,0.145507 1.230355,0.04559 1.691379,-0.371632 0.606896,-0.549232 0.657863,-0.544989 1.358311,0.113046 0.570102,0.535584 0.976496,0.643328 1.875965,0.497364 1.597155,-0.259181 1.756691,0.290268 0.387513,1.334595 -1.12751,0.859993 -1.178365,0.868278 -2.075795,0.338153 -0.904515,-0.53431 -0.926221,-0.529709 -1.292419,0.27401 -0.35609,0.781757 -1.549623,1.16487 -1.549623,0.497449 0,-0.507686 -1.479062,-0.371299 -1.935321,0.178461 -0.334727,0.403322 -0.338916,0.968275 -0.02195,2.96 0.215456,1.353846 0.609776,4.045539 0.876259,5.981539 0.266486,1.936 0.695984,4.96 0.954438,6.72 0.258455,1.76 0.602627,4.351999 0.764829,5.759999 0.162198,1.408 0.376301,2.848 0.475779,3.2 0.09948,0.352 0.319277,2.584 0.488439,4.959995 0.169161,2.376 0.526934,5.832 0.795052,7.68 0.982679,6.77309 0.992336,6.40436 -0.24887,9.50367 -0.620333,1.54898 -1.587526,3.96833 -2.149315,5.37633 -0.827728,2.07452 -1.05393,3.16879 -1.192784,5.77021 -0.161581,3.02714 -0.120727,3.31721 0.716429,5.08681 0.524851,1.10945 1.810835,2.84835 3.145718,4.25364 1.854067,1.95185 2.197552,2.47292 1.920317,2.91318 -0.504573,0.80129 -1.088387,0.75543 -2.549219,-0.2002 z M 105.28,136.75218 c -1.94309,-0.29306 -4.80659,-1.17455 -5.14668,-1.58434 -0.283458,-0.34154 -0.277122,-0.56178 0.0267,-0.92785 0.51147,-0.61628 1.50781,-0.60755 2.71872,0.0238 1.20981,0.63082 4.69344,1.06299 6.20822,0.77017 1.03538,-0.20013 2.16841,-0.53599 5.79306,-1.71716 0.616,-0.20073 2.27424,-1.13646 3.68498,-2.07939 1.92224,-1.28482 2.91765,-2.22598 3.9724,-3.75593 0.77408,-1.12284 1.50813,-2.04152 1.63122,-2.04152 0.2148,0 1.00543,-2.37718 1.41726,-4.26126 0.23115,-1.05746 1.34236,-1.10178 1.22231,-0.0488 -0.41107,3.60568 -0.72923,4.25662 -4.03503,8.2556 -0.55723,0.67407 -1.11356,1.49413 -1.2363,1.82234 -0.13359,0.35726 -0.67809,0.6821 -1.35672,0.80941 -0.62346,0.11697 -1.60304,0.6324 -2.17685,1.14541 -1.31844,1.17877 -2.15859,1.54562 -6.38904,2.78976 -3.21407,0.94524 -4.38718,1.09334 -6.33423,0.79968 z m -11.990471,-2.63633 c -0.522758,-0.30656 -1.030361,-0.89578 -1.128,-1.3094 -0.104537,-0.44282 -0.665059,-1.00502 -1.363283,-1.36737 -1.726442,-0.89594 -4.718243,-4.80981 -4.718243,-6.1724 0,-0.13012 -0.315303,-0.86792 -0.700669,-1.63954 -0.65776,-1.31703 -0.667558,-1.43606 -0.16,-1.94362 0.758339,-0.75834 1.158554,-0.26289 2.646659,3.27647 1.185827,2.82041 2.17265,4.0943 4.026743,5.19811 0.469001,0.27922 1.009757,0.8523 1.201673,1.27352 0.19192,0.42121 0.965239,1.03846 1.718484,1.37165 1.658381,0.73358 1.831952,0.89177 1.610825,1.46801 -0.236153,0.6154 -1.965984,0.52962 -3.134189,-0.15543 z m 119.513861,-9.79178 c -0.57018,-0.68702 -0.14803,-1.50919 0.71192,-1.38652 0.82013,0.11699 1.16391,1.16872 0.51618,1.5792 -0.59991,0.38018 -0.77554,0.35262 -1.2281,-0.19268 z M 112.08,123.12944 c -1.09157,-0.52645 -0.93756,-1.7262 0.32,-2.49295 1.44544,-0.88131 2.59088,-0.82518 3.11417,0.1526 0.35323,0.66001 0.34899,0.87749 -0.0259,1.32957 -0.36931,0.4453 -2.27476,1.45721 -2.59796,1.37968 -0.0497,-0.0119 -0.41428,-0.17792 -0.81028,-0.3689 z m 124.56001,-4.76361 c -1.76,-0.32714 -3.992,-0.8745 -4.96,-1.21637 -0.968,-0.34186 -2.19056,-0.71576 -2.7168,-0.83089 -0.52623,-0.11512 -1.03023,-0.3059 -1.12,-0.42395 -0.13904,-0.18285 -1.26981,-0.79795 -4.50483,-2.45051 -0.34011,-0.17373 -0.61837,-0.42573 -0.61837,-0.56 0,-0.13426 -0.16531,-0.24412 -0.36735,-0.24412 -0.58092,0 -6.18168,-4.34397 -8.39492,-6.51112 -2.01668,-1.9747 -3.77217,-4.11171 -4.11463,-5.00888 -0.10077,-0.264 -0.98869,-1.628168 -1.97316,-3.031493 -0.98447,-1.403324 -1.78994,-2.804076 -1.78994,-3.112787 0,-0.528828 1.62488,-3.808179 2.29734,-4.636505 0.17002,-0.209434 0.61588,-0.425434 0.99078,-0.48 0.45274,-0.06589 0.98261,-0.676342 1.57783,-1.817782 1.79262,-3.43767 3.59419,-5.48064 5.82143,-6.601427 0.92575,-0.465859 1.48558,-1.070096 2.05748,-2.220682 0.43213,-0.869376 1.70131,-2.940595 2.82041,-4.602707 1.1191,-1.662111 2.03473,-3.085087 2.03473,-3.162172 0,-0.07708 0.18,-0.320611 0.4,-0.541175 0.22,-0.22056 1.12,-1.240121 2,-2.265689 0.88,-1.025568 1.75944,-2.027978 1.95431,-2.227574 0.19487,-0.1996 1.05045,-1.221754 1.90128,-2.271453 0.85084,-1.049702 1.71525,-2.052547 1.92091,-2.228547 0.20566,-0.176 0.90865,-1.112 1.5622,-2.08 0.65354,-0.968 1.95983,-2.764873 2.90287,-3.993056 0.94304,-1.228179 1.79891,-2.682412 1.90194,-3.231625 0.10727,-0.571776 0.86643,-1.73729 1.7762,-2.726944 1.542,-1.677398 1.63858,-1.727994 3.27458,-1.715478 0.92714,0.0071 3.12571,0.336432 4.88571,0.731872 1.76,0.395436 3.56,0.798764 4,0.896284 0.44,0.09752 1.25376,0.380176 1.80836,0.628128 0.5546,0.247949 1.3538,0.450819 1.776,0.450819 0.4222,0 0.90444,0.121546 1.07164,0.270106 0.1672,0.148557 1.11695,0.591174 2.11056,0.983594 1.4866,0.587123 1.91728,0.644342 2.4317,0.323081 0.8134,-0.507971 1.99304,-0.1948 3.08775,0.819741 0.48186,0.446579 1.40664,1.086422 2.05505,1.421875 1.77596,0.918768 4.10807,3.496259 4.50735,4.981603 0.34316,1.276589 2.59852,3.664093 3.47159,3.675001 0.22,0.0029 0.4,0.174058 0.4,0.380688 0,0.206628 0.83285,1.394628 1.85078,2.64 2.74448,3.357706 3.38019,4.509443 3.14316,5.694579 -0.40134,2.006726 -3.19399,4.480522 -4.4946,3.98143 -0.89538,-0.343587 -0.4817,-1.589043 0.70066,-2.109449 0.91731,-0.403747 1.04,-0.604976 1.04,-1.70577 0,-0.8935 -0.32075,-1.731254 -1.12915,-2.949155 -1.04086,-1.568128 -4.41385,-5.287324 -4.79515,-5.287324 -0.0906,0 -0.55869,-0.432963 -1.04021,-0.962141 -0.75739,-0.832352 -1.00499,-0.92657 -1.83549,-0.698458 -1.22961,0.337738 -1.52996,1.558151 -0.42228,1.71585 0.40466,0.05761 0.78377,0.356749 0.84247,0.664749 0.0874,0.458726 -0.12766,0.56 -1.18935,0.56 -1.70206,0 -2.5219,-1.059399 -1.99331,-2.575738 0.35969,-1.031795 1.51742,-2.195382 2.20247,-2.213616 0.22,-0.0059 0.4,-0.347219 0.4,-0.758588 0,-0.927504 -2.16032,-3.000925 -4.16,-3.992659 -1.44,-0.714164 -1.44,-0.714164 -1.92,-0.03149 -1.14983,1.635353 -1.84296,2.127862 -3.30268,2.346761 -1.25513,0.188218 -1.66275,0.111104 -2.4768,-0.468547 -0.55084,-0.39223 -0.93108,-0.922554 -0.87473,-1.219987 0.11926,-0.629511 1.54183,-0.855805 2.75678,-0.438531 1.01224,0.347654 1.65743,0.187612 1.65743,-0.411117 0,-0.394195 -3.74274,-2.39649 -4.47958,-2.39649 -0.17483,0 -1.14645,-0.271955 -2.15915,-0.604342 -1.0127,-0.33239 -2.99327,-0.848682 -4.40127,-1.147315 -1.408,-0.298634 -2.97749,-0.674679 -3.48775,-0.835658 -1.46606,-0.462509 -3.06622,-0.360745 -3.28482,0.208903 -0.3003,0.782579 0.47398,1.925062 3.41257,5.03543 2.24986,2.381379 6.32595,5.829923 9.71935,8.222982 0.37436,0.264 0.72865,0.588 0.78731,0.72 0.0587,0.132 0.29304,0.24 0.52082,0.24 0.22779,0 0.58133,0.201433 0.78565,0.447629 0.4458,0.537155 4.84013,2.715587 10.10687,5.010345 2.112,0.920214 3.984,1.782822 4.16,1.916909 0.176,0.134086 0.68,0.29359 1.12,0.354454 0.44859,0.06205 0.8,0.321504 0.8,0.590662 0,0.672599 -1.2895,0.781709 -2.14626,0.18161 -0.39388,-0.275885 -1.01968,-0.50161 -1.39067,-0.50161 -0.83412,0 -7.17015,-2.492844 -9.11336,-3.585551 -1.76228,-0.99097 -3.50115,-1.976026 -4.49144,-2.544356 -3.45787,-1.984486 -10.18877,-7.577478 -13.36588,-11.106274 -2.1662,-2.406 -3.20141,-3.062931 -2.70027,-1.713568 0.46406,1.249504 4.93093,6.835737 7.75692,9.700735 2.0988,2.127773 4.67513,3.760723 9.93096,6.294509 6.00115,2.893101 7.73423,3.581318 11.46005,4.550854 1.02911,0.267795 1.35191,0.497011 1.26941,0.901382 -0.36791,1.803184 -8.3561,-0.816185 -18.13495,-5.946546 -3.04183,-1.59586 -7.20596,-5.322365 -9.91768,-8.875382 -2.55787,-3.351431 -3.36146,-4.315802 -3.59629,-4.315802 -0.42009,0 -1.80843,1.62336 -3.41078,3.98817 -1.51148,2.230703 -2.60935,3.599503 -5.52769,6.89183 -0.85805,0.968 -2.16396,2.551999 -2.90203,3.519999 -0.73807,0.968 -1.68869,2.12 -2.11248,2.56 -0.7367,0.764858 -2.18468,3.188528 -4.23219,7.083958 -0.6509,1.238336 -1.22838,1.904471 -1.84179,2.124522 -1.60992,0.577533 -3.56093,2.259961 -4.71765,4.068198 -0.62477,0.976662 -1.13593,1.905875 -1.13593,2.064918 0,0.159047 -0.43179,0.720957 -0.95952,1.248691 -0.90988,0.909876 -0.93572,1.006349 -0.49958,1.864618 0.25297,0.497802 0.70791,1.481094 1.01099,2.185094 1.09415,2.541565 3.81234,5.591379 8.05872,9.041917 1.9417,1.5778 2.91783,2.57877 2.804,2.8754 -0.096,0.25027 -0.17461,0.51525 -0.17461,0.58886 0,0.37415 -1.13965,0.0504 -2.0306,-0.57679 -5.05294,-3.55724 -9.12072,-8.037637 -10.89264,-11.997505 -0.51669,-1.154682 -0.68887,-1.302288 -1.2,-1.028739 -0.79213,0.423933 -0.76288,1.741238 0.0623,2.806246 0.36249,0.467837 1.57069,2.146611 2.68489,3.730611 2.78256,3.955837 5.56599,6.792647 8.81604,8.985137 0.792,0.53429 2.18171,1.49419 3.08824,2.13313 2.16185,1.5237 5.94647,3.42207 7.95176,3.9886 4.97308,1.405 7.67305,2.00769 8.21855,1.83455 0.92329,-0.29304 0.17399,-1.001 -1.27081,-1.2007 -3.5738,-0.49395 -5.77678,-1.23084 -10.11937,-3.38488 -4.35181,-2.15862 -5.61873,-3.11478 -5.14429,-3.88245 0.31264,-0.50586 1.27778,-0.36396 2.76568,0.40661 0.76463,0.396 1.46224,0.80193 1.55024,0.90207 0.088,0.10014 0.808,0.48672 1.6,0.85907 3.49305,1.64222 5.19881,2.28836 6.93836,2.62822 1.0239,0.20005 2.77708,0.58288 3.89595,0.85073 1.98228,0.47454 2.05321,0.46925 2.77281,-0.20678 0.7385,-0.69378 0.7385,-0.69378 1.27327,0.12238 0.5852,0.89314 0.52186,1.07745 -0.9473,2.75627 -1.6064,1.83563 -2.77912,2.89039 -3.16694,2.84837 -0.20138,-0.0218 -1.80615,-0.30734 -3.56615,-0.63449 z M 97.772643,114.58045 c -0.345753,-0.55944 0.440874,-1.29988 1.386541,-1.30511 1.705886,-0.009 6.495396,-2.21408 8.018236,-3.69084 0.71668,-0.69499 0.75053,-0.86133 0.43331,-2.12919 -0.18926,-0.75643 -0.66148,-2.16732 -1.04937,-3.13532 -1.01286,-2.52758 -1.08192,-3.02157 -0.49103,-3.51197 0.43975,-0.36496 0.58571,-0.3619 0.92829,0.0195 0.43067,0.47941 1.94351,4.85348 2.2908,6.62335 0.30823,1.57084 1.32381,2.08663 3.65871,1.85818 1.06253,-0.10396 2.79549,-0.27379 3.85103,-0.3774 1.58002,-0.15509 1.9539,-0.0978 2.1158,0.32407 0.47684,1.24262 -0.1286,1.35541 -8.35496,1.55648 -0.352,0.009 -1.0153,-0.091 -1.47399,-0.22141 -0.55871,-0.1588 -0.98207,-0.089 -1.28258,0.21152 -0.46031,0.46032 -1.12462,0.84491 -3.53822,2.04844 -3.549,1.76969 -6.05521,2.43739 -6.492567,1.72973 z m 147.501637,-2.91851 c -0.24275,-0.76484 1.15889,-2.41034 3.16223,-3.7124 3.21544,-2.08986 5.0035,-4.4492 5.0035,-6.60209 0,-0.81768 0.66029,-1.647692 4.1056,-5.16092 4.65377,-4.745501 8.0544,-8.78793 8.0544,-9.574493 0,-0.292624 0.11961,-0.532041 0.2658,-0.532041 0.1462,0 1.29785,-1.836 2.55923,-4.08 2.78686,-4.957833 3.82814,-6.25864 4.8888,-6.10727 1.04312,0.148867 0.90552,1.180025 -0.33936,2.542988 -0.52996,0.580234 -1.20126,1.565568 -1.49176,2.189629 -0.29051,0.624058 -1.37296,2.525683 -2.40545,4.225834 -1.0325,1.70015 -1.87726,3.196223 -1.87726,3.324611 0,0.535744 -3.88908,5.044175 -7.4155,8.596454 -3.05682,3.079231 -3.7845,3.987718 -3.7845,4.724848 0,1.9953 -2.21906,4.91947 -5.75466,7.58323 -0.79494,0.59892 -1.89676,1.57286 -2.4485,2.16431 -1.14005,1.22211 -2.21091,1.39927 -2.52257,0.41731 z M 80.998998,109.35099 c -0.212391,-0.21239 -0.359104,-1.54165 -0.359264,-3.255 -6.4e-4,-5.88923 -1.334675,-16.152119 -2.705991,-20.815994 -1.043388,-3.548586 -1.573427,-5.477808 -2.725449,-9.92 -0.547722,-2.112 -1.127796,-4.128 -1.28906,-4.48 -0.569369,-1.242806 -1.599232,-4.754822 -1.599232,-5.453666 0,-0.965968 0.812384,-1.62721 1.4,-1.13953 0.242,0.200842 0.440154,0.686474 0.44034,1.079181 1.88e-4,0.39271 0.280841,1.362016 0.62367,2.154016 0.82848,1.913926 1.716106,4.475228 1.847251,5.330358 0.05823,0.379696 0.254263,1.171696 0.435623,1.76 0.388521,1.260288 0.907741,3.272924 1.163395,4.509641 0.120083,0.580896 0.385024,0.88 0.779485,0.88 0.463651,0 0.646374,-0.325453 0.815347,-1.45224 0.337843,-2.252902 1.051258,-3.669901 2.028058,-4.028157 0.531446,-0.194915 1.116387,-0.824432 1.51183,-1.627039 0.771693,-1.56626 1.542778,-2.1452 2.252122,-1.690928 0.387315,0.248044 0.878928,-0.04364 2.225693,-1.320573 1.783974,-1.691466 2.67303,-2.143894 3.368393,-1.714138 0.644212,0.398148 0.133005,1.170535 -1.597622,2.413866 -0.887472,0.637584 -1.613584,1.286416 -1.613584,1.441849 0,0.155434 -0.36072,0.51896 -0.801603,0.807837 -0.652314,0.427411 -0.892138,0.45009 -1.287732,0.121776 -0.596889,-0.495373 -0.481721,-0.62479 -1.901459,2.136646 -0.696509,1.354733 -1.428285,2.354669 -1.792998,2.450042 -0.408468,0.106816 -0.616208,0.440947 -0.616208,0.991101 0,0.456476 -0.288,1.117958 -0.64,1.469958 -0.352,0.352 -0.64,0.725286 -0.64,0.829526 0,0.10424 0.288,0.555661 0.64,1.003155 0.774528,0.984653 0.826441,1.95586 0.119052,2.227312 -0.334524,0.128368 -0.732771,-0.07562 -1.112883,-0.570044 -0.591939,-0.769949 -0.591939,-0.769949 -0.599053,-0.0046 -0.0042,0.447728 0.410807,1.164745 0.999911,1.727724 0.934909,0.89345 0.980653,1.035303 0.638745,1.980832 -0.205625,0.568643 -0.287936,1.713559 -0.186368,2.592275 0.385712,3.336999 0.693748,3.783376 1.352906,1.960506 0.972576,-2.689613 7.476388,-7.713353 10.419546,-8.048377 1.129901,-0.128618 2.254128,-0.544186 2.823959,-1.043876 0.447385,-0.392316 0.82952,-0.408886 2.315484,-0.1004 0.97882,0.203204 1.889703,0.367277 2.024186,0.364612 0.520632,-0.0103 0.431322,-1.070221 -0.127366,-1.511456 -0.56504,-0.44625 -0.559517,-0.484736 0.140796,-0.980787 0.687492,-0.48697 0.698312,-0.550128 0.190404,-1.11136 -0.727088,-0.803444 -1.079319,-0.748567 -1.079319,0.168131 0,0.786275 -1.159318,1.796803 -2.061363,1.796803 -0.266138,0 -0.713437,-0.350342 -0.994003,-0.778541 -0.396816,-0.605616 -0.431491,-0.925462 -0.156119,-1.44 0.194701,-0.363801 0.547303,-0.661459 0.783562,-0.661459 0.578378,0 1.165357,-0.74607 0.889619,-1.130733 -0.214051,-0.298601 -0.485357,-0.489958 -2.379674,-1.678435 -0.95704,-0.600435 -1.133414,-1.38383 -0.440947,-1.958528 0.480061,-0.398416 1.884157,-0.03104 2.270487,0.594042 0.117552,0.190205 0.904781,0.696006 1.749401,1.124006 1.578874,0.800077 3.219034,2.439862 3.219034,3.218301 0,0.24175 -0.252,0.588067 -0.56,0.76959 -0.88354,0.520733 0.085,0.97105 2.10104,0.976858 0.93557,0.0026 2.01557,0.17239 2.4,0.377104 1.9624,1.044998 4.37896,4.324163 4.37896,5.942044 0,0.766643 -0.94042,1.757648 -2.35886,2.485751 -0.34287,0.176 -0.9043,0.863446 -1.24762,1.527657 -0.71774,1.388608 -1.71551,2.078346 -2.24319,1.550669 -0.24129,-0.241287 -0.23005,-0.584387 0.0384,-1.173626 0.20866,-0.457961 0.30055,-0.960221 0.20419,-1.116131 -0.2823,-0.456774 -7.063158,-0.02848 -10.712937,0.67663 -4.783389,0.924138 -4.96,0.925031 -4.96,0.02506 0,-0.867097 1.475501,-1.514527 4.16,-1.82535 0.88,-0.101891 2.248,-0.318307 3.04,-0.480928 0.792,-0.162621 3.407034,-0.359136 5.811187,-0.436701 3.15293,-0.101724 4.64676,-0.283542 5.36,-0.652368 0.54385,-0.281235 0.98881,-0.598643 0.98881,-0.70535 0,-0.505795 -1.42243,-2.407392 -2.23195,-2.983827 -1.10741,-0.788538 -1.12545,-0.789027 -1.83558,-0.04981 -0.31486,0.32775 -1.19264,0.675145 -1.95064,0.771987 -0.88233,0.112726 -1.60756,0.440563 -2.01576,0.911219 -0.539276,0.621795 -0.733164,0.675456 -1.257484,0.348013 -0.82801,-0.517101 -1.426525,-0.487978 -1.908583,0.09287 -0.585193,0.705114 -1.391789,0.586723 -2.180176,-0.32 -0.760902,-0.875117 -1.067139,-0.954656 -1.904166,-0.494582 -0.305613,0.167981 -1.203658,0.603241 -1.995658,0.967244 -3.978051,1.828314 -7.04,4.831917 -7.04,6.905847 0,0.613075 0.420758,1.46591 1.2,2.432278 1.2,1.488169 1.2,1.488169 3.92,1.332048 1.496,-0.08587 3.357651,-0.360135 4.137005,-0.609479 0.779353,-0.249347 1.787353,-0.454243 2.24,-0.455328 0.452646,-9.6e-4 1.235456,-0.217084 1.739574,-0.48 0.504119,-0.262915 1.304596,-0.478028 1.778839,-0.478028 0.474243,0 1.141782,-0.211421 1.483419,-0.469824 0.7593,-0.574301 1.74116,-0.630899 1.74116,-0.100365 0,0.490035 -1.55747,1.850189 -2.118586,1.850189 -0.449011,0 -3.066092,0.809184 -4.121411,1.27431 -1.318512,0.581129 -8.297527,1.434528 -9.053696,1.107091 -0.300467,-0.130109 -0.850445,-0.207446 -1.222173,-0.171862 -0.463651,0.04438 -1.100995,-0.443069 -2.029798,-1.552423 -1.569927,-1.875104 -2.011642,-2.035772 -1.586631,-0.577116 0.377683,1.29622 0.719331,10.819434 0.446157,12.436344 -0.213619,1.2644 -0.799843,1.74967 -1.394864,1.15465 z m 154.521012,-5.05196 c -2.56057,-2.0474 -3.2,-2.68752 -3.2,-3.20341 0,-0.31577 0.59003,-0.97946 1.31117,-1.474873 3.42589,-2.35352 6.85666,-5.503558 9.56896,-8.785939 0.92477,-1.119145 1.94682,-2.288476 2.27122,-2.598508 0.3244,-0.310032 1.19904,-1.462032 1.94365,-2.56 0.7446,-1.097968 1.61176,-2.274301 1.92702,-2.614074 0.31525,-0.339776 1.61827,-2.029686 2.89558,-3.755356 1.66148,-2.244679 2.51577,-3.138909 3.00191,-3.142231 0.70004,-0.0048 3.83178,2.109888 4.08953,2.761421 0.21013,0.531123 -4.48,6.582761 -7.56366,9.759331 -2.16958,2.234963 -4.21491,4.664281 -5.75322,6.833343 -0.57684,0.81336 -7.47752,8.685126 -7.91698,9.031086 -0.72267,0.5689 -1.66479,0.47715 -2.57518,-0.25079 z m 3.8573,-3.3167 c 0.78248,-0.86772 1.9687,-2.163721 2.63604,-2.880002 0.66734,-0.716285 2.19874,-2.598333 3.40311,-4.182333 1.20436,-1.584 3.30994,-4.032 4.67907,-5.439999 2.79973,-2.879216 6.86448,-8.124733 6.86448,-8.858531 0,-0.677421 -1.09505,-1.592352 -1.65066,-1.379149 -0.25477,0.09776 -0.70466,0.569235 -0.99976,1.047715 -0.2951,0.47848 -1.22349,1.61193 -2.06307,2.518774 -0.83958,0.906845 -2.10251,2.474576 -2.80651,3.48385 -0.704,1.00927 -2.144,2.834659 -3.2,4.056419 -1.056,1.22176 -2.44231,2.894025 -3.08068,3.71615 -1.09702,1.4128 -4.64423,4.754224 -6.14926,5.792512 -0.37953,0.261837 -0.88035,0.661961 -1.11292,0.889165 -0.23257,0.2272 -0.56659,0.413089 -0.74226,0.413089 -0.70562,0 -0.0476,1.46328 0.96386,2.14323 1.24393,0.83626 1.35325,0.79195 3.25856,-1.32089 z M 90.366096,82.107026 c -0.642432,-1.674153 0.823885,-3.379872 2.53608,-2.950137 0.723385,0.181558 0.857827,0.388589 0.857827,1.320985 0,0.900752 -0.174986,1.196176 -0.944109,1.593904 -1.182307,0.611395 -2.222963,0.626368 -2.449798,0.03525 z m 1.793907,-1.46703 c 0,-0.176 -0.0635,-0.32 -0.141114,-0.32 -0.07761,0 -0.230112,0.144 -0.338886,0.32 -0.108774,0.176 -0.04527,0.32 0.141114,0.32 0.186387,0 0.338886,-0.144 0.338886,-0.32 z m 14.463997,-0.384 c -0.2112,-0.2112 -0.384,-1.026544 -0.384,-1.811875 0,-0.785331 -0.20654,-2.160531 -0.45897,-3.056 -0.25244,-0.895469 -0.70351,-2.564125 -1.00238,-3.708125 -0.61519,-2.35479 -2.50611,-6.505404 -3.92459,-8.614556 -0.77989,-1.159635 -0.885449,-1.520064 -0.58572,-2 0.585,-0.936745 1.42201,-0.683065 2.29166,0.694557 0.85399,1.352803 1.34119,1.589843 1.64428,0.8 0.20647,-0.538055 1.57018,-0.654378 1.87572,-0.16 0.30196,0.488569 1.34813,0.380976 1.55573,-0.16 0.25606,-0.667299 0.95733,-0.599062 1.64427,0.16 0.77177,0.85279 1.26129,0.806765 1.70178,-0.16 0.20048,-0.44 0.59361,-0.8 0.87362,-0.8 0.77127,0 0.44519,1.37832 -0.4154,1.755881 -0.396,0.173735 -0.72,0.482327 -0.72,0.685764 0,0.484288 -0.74055,0.755827 -1.51148,0.55422 -0.33881,-0.0886 -0.79975,0.06439 -1.03005,0.341888 -0.46115,0.555655 -1.61847,0.685975 -1.61847,0.182247 0,-0.49265 -1.27746,-0.378954 -1.47319,0.131117 -0.0952,0.248115 0.044,0.871014 0.30941,1.384223 0.26539,0.513207 0.99613,2.700445 1.62386,4.860525 1.30819,4.501565 1.77117,8.063529 1.14601,8.8168 -0.48665,0.58638 -1.02309,0.622326 -1.54209,0.103334 z m 95.81507,-4.432966 c -2.82048,-0.472851 -11.42678,-3.56527 -12.06608,-4.33559 -0.20424,-0.246096 -0.62549,-0.447444 -0.93611,-0.447444 -0.31062,0 -2.77699,-1.466799 -5.48082,-3.259555 -5.09939,-3.381119 -10.29612,-8.072738 -10.69288,-9.653567 -0.10436,-0.415789 0.0141,-1.244432 0.26333,-1.841427 0.24919,-0.596999 0.55419,-1.62545 0.67778,-2.28545 0.18341,-0.979414 0.3619,-1.2 0.97103,-1.2 0.89153,0 1.18533,-0.342163 1.92338,-2.24 0.30801,-0.792 1.2668,-2.187379 2.13066,-3.100844 0.86386,-0.913466 1.57065,-1.827702 1.57065,-2.031638 0,-0.359268 0.70919,-2.130032 1.3069,-3.263175 0.1612,-0.305613 0.2931,-0.767692 0.2931,-1.026848 0,-0.544556 0.30128,-1.208531 2.89117,-6.371667 2.25292,-4.491341 3.0231,-5.761966 5.63646,-9.298792 1.08219,-1.464609 2.37819,-3.289869 2.88,-4.056133 0.5018,-0.766265 1.10614,-1.613189 1.34297,-1.882055 0.23683,-0.268865 0.92603,-1.265303 1.53154,-2.214306 1.10094,-1.725459 1.10094,-1.725459 0.4494,-2.332465 -0.79962,-0.74496 -0.83389,-1.80129 -0.0915,-2.821555 0.77107,-1.059746 3.00597,-3.2005195 3.34124,-3.2005195 0.15112,0 0.359,0.4211949 0.46195,0.9359885 0.47528,2.376377 10.87553,10.452881 16.91681,13.137057 1.232,0.547385 2.50969,1.145147 2.83931,1.328361 1.01832,0.566014 10.33847,3.798302 10.96719,3.803493 1.55704,0.01285 1.9319,1.672755 0.41777,1.849889 -1.75366,0.205155 -15.02277,-4.911759 -18.6109,-7.176851 -0.66036,-0.416866 -1.31542,-0.757938 -1.4557,-0.757938 -0.14027,0 -0.72802,-0.432 -1.30611,-0.96 -0.57808,-0.528 -1.12184,-0.96 -1.20834,-0.96 -0.4572,0 -5.10749,-3.737514 -7.30118,-5.868068 -1.38852,-1.348562 -2.63011,-2.451932 -2.75908,-2.451932 -0.12897,0 -0.32435,0.234174 -0.43418,0.520387 -0.21484,0.559874 1.31956,2.672672 3.3113,4.559483 4.82329,4.5692 8.58876,7.091907 13.77002,9.225324 1.50145,0.618228 3.334,1.396471 4.07234,1.729428 0.73834,0.332958 1.57208,0.605378 1.85275,0.605378 0.28067,0 1.05875,0.279793 1.72906,0.621764 0.67032,0.34197 2.21258,0.849536 3.42725,1.127924 3.55556,0.814892 4.2885,1.118006 4.2885,1.773563 0,0.856768 -0.89527,1.013542 -2.69086,0.471206 -0.86397,-0.26095 -1.90646,-0.474458 -2.31663,-0.474458 -0.41018,0 -1.71929,-0.37505 -2.90915,-0.833444 -4.22336,-1.627066 -7.92558,-3.101698 -8.40112,-3.346256 -0.26524,-0.136401 -1.13024,-0.544697 -1.92224,-0.907325 -0.792,-0.362626 -2.16,-1.092496 -3.04,-1.621931 -0.88,-0.529435 -1.816,-1.060721 -2.08,-1.180634 -0.60291,-0.273849 -5.14173,-3.976154 -6.98456,-5.697287 -0.76151,-0.711217 -1.50517,-1.337007 -1.65257,-1.390645 -0.14741,-0.05364 -0.73822,0.594362 -1.31292,1.44 -0.57471,0.845638 -2.38705,3.356814 -4.02744,5.580393 -1.64038,2.223578 -2.98251,4.153193 -2.98251,4.288034 0,0.134841 -0.68497,1.339549 -1.52214,2.67713 -2.80519,4.48192 -6.79786,13.330288 -6.79786,15.065069 0,0.340169 -0.66209,1.236883 -1.47132,1.992694 -1.55883,1.455949 -3.00035,4.037142 -3.00556,5.381763 -0.007,1.737267 9.67517,10.552438 11.58997,10.552438 0.19608,0 0.58385,0.188982 0.86171,0.419958 0.27786,0.230979 1.1532,0.684535 1.9452,1.007904 3.41121,1.392771 4.16,1.83209 4.16,2.440685 0,0.864477 -0.80837,0.780445 -3.73582,-0.388349 -6.0033,-2.396838 -7.81666,-3.615776 -13.45846,-9.046726 -2.27619,-2.19112 -2.62418,-2.668553 -2.56,-3.512237 0.0522,-0.686723 -0.0812,-1.008739 -0.44984,-1.085376 -0.39533,-0.08219 -0.62059,0.293213 -0.91677,1.527824 -0.37156,1.548832 -0.35199,1.682855 0.36411,2.494099 1.58616,1.796884 4.65545,4.632064 6.06992,5.606922 5.01637,3.457318 7.19958,4.792979 10.04686,6.146544 1.76,0.836684 3.46831,1.655846 3.79626,1.820355 0.32794,0.164512 0.90394,0.357331 1.28,0.428492 0.37605,0.07116 1.78194,0.492544 3.12419,0.93641 4.08726,1.3516 12.49107,1.131366 12.0147,-0.314864 -0.0583,-0.176902 -1.03052,-0.358474 -2.16055,-0.403491 -3.00587,-0.119744 -3.4946,-0.282944 -3.4946,-1.166925 0,-0.975552 0.69599,-1.148093 2.96916,-0.736064 2.75231,0.498874 3.68778,0.101654 4.76199,-2.022032 0.48773,-0.964221 1.19049,-2.543251 1.56169,-3.508956 0.37121,-0.965706 0.88767,-1.973706 1.1477,-2.24 0.4831,-0.494736 3.80161,-4.879568 4.51359,-5.963907 0.21677,-0.330147 0.77919,-1.176266 1.24982,-1.880266 5.10865,-7.641935 6.67306,-10.891682 8.47253,-17.599999 0.99953,-3.72616 2.39284,-7.011708 3.16352,-7.459831 0.97724,-0.568236 2.56,-2.740344 2.56,-3.513238 0,-1.139109 -1.92675,-3.159092 -5.48168,-5.74693 -2.16692,-1.577434 -2.6759,-1.696412 -2.39563,-0.56 0.10852,0.44 0.27054,1.124 0.36005,1.52 0.0905,0.400208 -0.0609,1.004259 -0.34075,1.36 -0.50276,0.639066 -0.50428,0.639034 -1.04694,-0.02184 -0.59288,-0.722041 -3.68383,-2.238032 -5.48408,-2.689724 -0.62203,-0.156073 -1.92297,-0.508111 -2.89097,-0.782306 -0.968,-0.274194 -2.21623,-0.500245 -2.77383,-0.502334 -2.08175,-0.0078 -2.44552,-0.489742 -1.38617,-1.836479 0.352,-0.447496 0.64,-1.036928 0.64,-1.309849 0,-0.272922 0.29279,-0.807889 0.65066,-1.188816 0.60646,-0.645555 0.61399,-0.723025 0.11086,-1.140625 -0.51252,-0.42539 -3.83441,-1.663137 -7.32152,-2.728025 -0.88,-0.268733 -2.68,-0.5856698 -4,-0.7043043 -2.06452,-0.1855479 -2.4,-0.3002864 -2.4,-0.8208237 0,-1.1598489 0.85105,-1.3036889 4.20567,-0.7108185 1.73488,0.3066099 4.01833,0.8473107 5.07433,1.2015568 1.056,0.354246 2.712,0.8540917 3.68,1.1107687 3.39993,0.901534 5.64325,1.801179 10.4,4.170748 6.88572,3.430115 10.2275,5.931725 12.48902,9.349099 0.87815,1.326981 0.88523,1.37469 0.36573,2.46409 -0.29136,0.611 -1.19049,1.720382 -1.99805,2.465294 -0.80756,0.744912 -1.73642,1.940352 -2.06414,2.656534 -0.87986,1.922811 -1.58261,4.047515 -1.58791,4.800846 -0.005,0.700291 -0.74669,3.165171 -1.43759,4.777005 -0.22632,0.528 -0.59062,1.536 -0.80957,2.24 -0.21894,0.704 -1.07164,2.432 -1.89488,3.84 -0.82325,1.408 -1.70511,2.979948 -1.95971,3.493222 -0.52776,1.063981 -6.54659,9.715171 -7.8926,11.344457 -0.9946,1.203926 -1.95047,3.110457 -1.98657,3.96232 -0.0131,0.308 -0.15187,0.56 -0.30849,0.56 -0.15662,0 -0.60401,0.684 -0.9942,1.52 -0.39019,0.835999 -0.86624,1.712726 -1.05789,1.948278 -0.19165,0.235555 -0.60679,1.171555 -0.92252,2.08 -0.31574,0.908448 -0.92822,1.962512 -1.36107,2.342371 -1.56961,1.377433 -6.85018,2.044713 -10.8605,1.372384 z m 21.88094,-57.543849 c 0,-0.519579 -0.86488,-1.004954 -3.21498,-1.804275 -2.73847,-0.931415 -2.86502,-0.945397 -2.86502,-0.316546 0,0.452905 1.55992,1.312276 3.68,2.027327 1.21948,0.411304 2.4,0.457292 2.4,0.09349 z m 17.9912,56.422671 c -0.9468,-0.663168 -0.90656,-1.861737 0.0888,-2.644684 0.44,-0.346106 0.8,-0.784858 0.8,-0.975008 0,-0.434205 -1.43713,-1.169424 -2.78723,-1.425907 -0.92632,-0.175978 -1.14228,-0.05473 -2.19855,1.234297 -1.36147,1.661504 -2.38871,1.874515 -2.96286,0.61439 -0.20425,-0.448281 -0.37136,-1.001964 -0.37136,-1.230406 0,-0.536922 0.95087,-1.376745 1.72268,-1.521501 0.33148,-0.06217 0.85252,-0.579436 1.15787,-1.149478 0.94815,-1.77008 1.27231,-2.003558 2.78165,-2.003558 3.56533,0 7.16618,4.103865 5.35594,6.10415 -0.41881,0.462781 -0.43395,0.663273 -0.0915,1.211645 0.35611,0.570214 0.30931,0.764675 -0.35392,1.470652 -0.87351,0.929805 -2.08998,1.051939 -3.14153,0.315408 z M 90.000003,72.729024 c -0.811126,-0.288679 -0.354739,-1.062276 1.384851,-2.347386 1.355383,-1.00128 1.971367,-1.271734 2.56,-1.123997 0.426333,0.107002 0.775149,0.335805 0.775149,0.508451 0,0.172647 0.348224,0.313904 0.773827,0.313904 2.196119,0 2.447088,1.265744 0.44296,2.234032 -1.49736,0.723447 -2.363091,0.611322 -2.666739,-0.345382 -0.198672,-0.625968 -0.229098,-0.623354 -1.536368,0.132061 -0.733523,0.423872 -1.51368,0.706614 -1.73368,0.628317 z M 200.03338,70.755043 c -0.51177,-0.332819 -0.26777,-1.245187 0.40171,-1.502093 0.77967,-0.299187 3.88492,0.617658 3.88492,1.147046 0,0.364138 -0.46345,0.499975 -1.92,0.562749 -1.056,0.04551 -2.12099,-0.04795 -2.36663,-0.207702 z M 60.411176,66.799997 C 58.775714,64.632682 58.44596,61.94744 59.52364,59.572624 c 0.439655,-0.968838 0.53961,-1.555488 0.331335,-1.944649 -0.164035,-0.306499 -0.394029,-1.279325 -0.511095,-2.161827 -0.250748,-1.890221 0.336768,-3.321767 1.702781,-4.149011 0.480336,-0.290887 1.281978,-0.809898 1.781427,-1.153357 1.18841,-0.817245 2.74722,-0.540963 3.771185,0.6684 0.418403,0.494153 1.336729,1.175069 2.040729,1.513139 0.977955,0.469632 1.487658,1.026701 2.16,2.360729 0.484,0.96033 0.88,1.914698 0.88,2.12082 0,0.206121 0.200055,0.540793 0.444564,0.743718 0.244508,0.202928 0.522492,0.68856 0.617737,1.079184 0.09524,0.390624 0.315965,1.267699 0.490493,1.949056 0.379037,1.479756 0.191274,2.121171 -0.620934,2.121171 -0.395741,0 -0.662941,-0.299258 -0.785732,-0.88 -0.102336,-0.484 -0.704502,-1.924 -1.33815,-3.2 -0.81848,-1.648208 -1.326205,-2.32 -1.753411,-2.32 -0.715069,0 -1.692084,-0.866368 -1.984775,-1.76 -0.313933,-0.958486 -1.726102,-2.570358 -2.006365,-2.290096 -0.134691,0.134692 -0.04841,0.366327 0.191725,0.51474 0.754307,0.466188 1.604599,2.655267 1.272445,3.275903 -0.414333,0.774186 -0.928746,0.456404 -2.075984,-1.282457 -0.723543,-1.096666 -1.195146,-1.49809 -1.76,-1.49809 -0.629946,0 -0.789463,0.183412 -0.868829,0.998989 -0.109114,1.121258 0.935165,4.51559 1.897382,6.167254 0.348048,0.597434 0.557914,1.281434 0.466368,1.52 -0.224928,0.58615 -1.130371,0.547574 -1.821174,-0.07759 -1.303555,-1.179703 -1.660608,0.497302 -0.501981,2.357705 1.086301,1.744275 1.180755,2.165334 0.654336,2.916906 -0.634336,0.905638 -0.86431,0.858876 -1.786541,-0.363264 z M 203.63492,60.504736 c -0.55279,-0.337075 -1.10129,-0.768537 -1.21888,-0.958803 -0.1176,-0.190266 -0.49783,-0.345936 -0.84496,-0.345936 -1.06491,0 -1.01018,-0.778134 0.17904,-2.545302 0.62589,-0.93008 1.82017,-2.906323 2.65394,-4.391648 0.83377,-1.485325 1.90592,-3.376144 2.38255,-4.201821 1.92163,-3.32886 5.0364,-9.935634 5.53543,-11.741228 0.29185,-1.056 0.58626,-2.1 0.65426,-2.32 0.44991,-1.455766 3.982,1.741507 3.97698,3.6 -0.003,0.928915 -0.56021,2.817504 -1.41746,4.8 -0.22831,0.528 -0.87603,2.112 -1.43938,3.52 -1.03663,2.59087 -1.5995,3.762006 -3.61423,7.519999 -3.19144,5.952829 -4.46132,7.685331 -5.62838,7.678803 -0.1176,-6.4e-4 -0.66611,-0.276985 -1.21891,-0.614064 z m 2.45911,-2.284429 c 0.38368,-0.538828 1.05594,-1.654828 1.49391,-2.479999 0.43796,-0.825172 1.49401,-2.807491 2.34676,-4.405159 0.85275,-1.597667 1.75878,-3.469667 2.01339,-4.159999 2.31452,-6.275254 3.09192,-8.649974 3.09192,-9.444883 0,-1.280326 -0.84792,-1.21471 -1.41801,0.109731 -1.46805,3.410656 -2.33008,5.148073 -3.73114,7.520125 -0.86397,1.462729 -1.57085,2.7367 -1.57085,2.831043 0,0.09434 -0.33692,0.629926 -0.74871,1.190182 -0.41179,0.560256 -1.04034,1.594649 -1.39679,2.298649 -1.01116,1.997114 -2.00433,3.718867 -3.00113,5.202746 -0.91542,1.362742 -0.91542,1.362742 0.1156,1.813894 1.55316,0.679626 2.04091,0.596803 2.80505,-0.47633 z m -106.979627,1.4056 c -1.026134,-0.540182 -1.89519,-1.37135 -3.566726,-3.411241 -0.659437,-0.804752 -1.660388,-1.614246 -2.227456,-1.801395 -0.871172,-0.287514 -1.04138,-0.511008 -1.10465,-1.450483 -0.12592,-1.869738 1.803965,-4.779885 2.478848,-3.737949 0.10207,0.157584 1.005655,0.685946 2.007962,1.174134 1.744349,0.84961 2.374217,1.504042 2.011872,2.09033 -0.09231,0.149354 -0.973667,-0.0057 -1.958583,-0.34456 -0.984915,-0.338861 -1.917862,-0.537555 -2.073213,-0.441542 -0.460672,0.284713 -0.322905,0.78207 0.277546,1.001968 0.77097,0.282345 6.159997,5.776063 6.159997,6.279663 0,0.425783 -0.64026,1.199802 -0.944,1.141219 -0.0968,-0.01866 -0.574515,-0.243734 -1.061597,-0.500144 z M 279.60096,36.566945 c -2.22567,-0.232892 -2.32603,-2.230409 -0.2263,-4.504393 1.35976,-1.472615 1.84689,-1.580044 3.47868,-0.767183 1.33003,0.662542 2.53989,2.756482 2.04857,3.5455 -0.45356,0.728368 -2.69442,1.958268 -3.4619,1.900073 -0.352,-0.02669 -1.17957,-0.104989 -1.83905,-0.173997 z m 3.21606,-2.387273 c 0.0563,-0.297178 -0.20415,-0.846813 -0.57875,-1.221411 -0.55471,-0.554711 -0.76942,-0.607776 -1.15714,-0.285994 -0.6894,0.572147 -1.14288,1.528915 -0.90619,1.911888 0.33919,0.548819 2.52491,0.214202 2.64208,-0.404483 z m -78.48304,-0.369885 c -0.84634,-0.618857 -0.4666,-1.707939 1.1729,-3.363824 1.373,-1.386729 1.373,-1.386729 0.41307,-2.154757 -0.92376,-0.739083 -2.07994,-1.032684 -2.07994,-0.528182 0,0.133663 0.288,0.422884 0.64,0.642711 0.352,0.219828 0.64,0.631254 0.64,0.91428 0,0.399108 -0.19749,0.467318 -0.88,0.30394 -0.484,-0.115859 -1.57507,-0.296031 -2.4246,-0.400381 -1.48039,-0.181842 -1.58443,-0.141387 -2.50329,0.973348 -0.75126,0.911401 -1.18861,1.163076 -2.02118,1.163076 -2.54994,0 -1.51789,-3.641186 1.10392,-3.894749 0.92847,-0.08979 1.12814,-0.26018 1.35976,-1.160301 0.14932,-0.580278 0.49397,-1.140427 0.7659,-1.244775 0.66916,-0.256782 3.85855,0.477835 5.23949,1.20682 2.81993,1.488617 3.37942,2.820197 1.8,4.28396 -0.89202,0.826689 -1.04083,1.287159 -0.52,1.609045 0.50146,0.30992 0.37557,1.167258 -0.24,1.634544 -0.72524,0.550531 -1.72553,0.556714 -2.46603,0.01523 z m -73.55327,-2.322929 c -0.69675,-0.377717 -0.87693,-0.68052 -0.8,-1.344452 0.0646,-0.557909 0.32262,-0.898723 0.73929,-0.97669 0.352,-0.06586 0.712,-0.229005 0.8,-0.362533 0.088,-0.133529 0.62268,-0.343144 1.18818,-0.46581 0.91239,-0.197915 1.05059,-0.133728 1.22721,0.569992 0.20787,0.828227 -0.13978,1.731312 -0.99615,2.587681 -0.61953,0.619535 -1.00329,0.618079 -2.15853,-0.0082 z m 27.98432,-1.832612 c -0.70801,-0.853098 -0.58536,-2.64253 0.19498,-2.84466 0.67766,-0.175536 2.29102,0.674777 2.77163,1.460776 0.70524,1.153375 -2.07972,2.452523 -2.96661,1.383884 z"
       id="path74" />
  </g>
</svg>
