<?xml version="1.0" encoding="UTF-8" standalone="no"?>
<svg
   xmlns:dc="http://purl.org/dc/elements/1.1/"
   xmlns:cc="http://creativecommons.org/ns#"
   xmlns:rdf="http://www.w3.org/1999/02/22-rdf-syntax-ns#"
   xmlns:svg="http://www.w3.org/2000/svg"
   xmlns="http://www.w3.org/2000/svg"
   xmlns:sodipodi="http://sodipodi.sourceforge.net/DTD/sodipodi-0.dtd"
   xmlns:inkscape="http://www.inkscape.org/namespaces/inkscape"
   inkscape:version="1.0 (4035a4fb49, 2020-05-01)"
   sodipodi:docname="theape.png"
   viewBox="0 0 178.24001 91.839996"
   height="91.839996"
   width="178.24001"
   id="svg5882"
   version="1.1">
  <metadata
     id="metadata5888">
    <rdf:RDF>
      <cc:Work
         rdf:about="">
        <dc:format>image/svg+xml</dc:format>
        <dc:type
           rdf:resource="http://purl.org/dc/dcmitype/StillImage" />
        <dc:title></dc:title>
      </cc:Work>
    </rdf:RDF>
  </metadata>
  <defs
     id="defs5886" />
  <sodipodi:namedview
     inkscape:current-layer="g5890"
     inkscape:window-maximized="0"
     inkscape:window-y="34"
     inkscape:window-x="10"
     inkscape:cy="41.023176"
     inkscape:cx="93.82154"
     inkscape:zoom="4.202076"
     showgrid="false"
     id="namedview5884"
     inkscape:window-height="1034"
     inkscape:window-width="1898"
     inkscape:pageshadow="2"
     inkscape:pageopacity="0"
     guidetolerance="10"
     gridtolerance="10"
     objecttolerance="10"
     borderopacity="1"
     bordercolor="#666666"
     pagecolor="#ffffff" />
  <g
     id="g5890"
     inkscape:label="Image"
     inkscape:groupmode="layer">
    <path
       id="path6455"
       d="m 59.554339,89.901081 c -0.707731,-0.589379 -0.808899,-0.598499 -1.337069,-0.120512 -1.90119,1.720553 -3.508278,-1.330762 -3.387881,-6.432438 0.08171,-3.46256 0.01648,-3.996208 -0.683092,-5.588134 -2.297107,-5.227248 -0.75967,-11.887875 3.032929,-13.139545 1.223116,-0.403664 1.732163,-0.171191 3.52823,1.611276 1.025031,1.017274 1.027824,1.017917 1.185959,0.273972 0.562137,-2.644599 0.42936,-3.59728 -0.696909,-5.00041 -0.750679,-0.935213 -1.048055,-1.58656 -0.930167,-2.037366 0.105322,-0.402752 -0.12984,-1.120717 -0.599571,-1.830528 -1.006672,-1.521187 -1.35303,-3.162982 -0.718627,-3.406426 0.35656,-0.136825 0.4168,-0.504166 0.256205,-1.562364 -0.238611,-1.572259 0.081,-2.748608 0.746797,-2.748608 0.512982,0 2.768861,-2.622275 2.768861,-3.218576 0,-0.443347 0.27407,-0.671901 3.28,-2.735277 3.406982,-2.338675 2.288995,-2.530422 -6.241911,-1.070556 -4.169399,0.713494 -3.991741,0.610288 -4.255063,2.471868 -1.04543,7.390752 -7.127312,11.014557 -18.543028,11.048614 -3.168,0.0094 -7.488,0.02704 -9.6,0.03905 -11.196819,0.06376 -15.449373,-0.06635 -16.354961,-0.500387 -1.5910293,-0.76256 -0.789199,-1.084967 2.27496,-0.914736 3.514161,0.195232 10.452111,0.207305 14.560001,0.02534 1.672,-0.07406 4.034027,0.04022 5.24895,0.253958 3.736538,0.657376 11.532404,-0.234093 14.694238,-1.680307 0.911248,-0.416803 1.900723,-0.840461 2.198838,-0.941466 1.595642,-0.540624 4.417975,-5.576911 4.417975,-7.883625 0,-1.131466 -1.352781,-1.564019 -5.12,-1.63712 -5.741633,-0.111417 -9.135242,-4.743865 -6.745866,-9.208454 0.208294,-0.389197 0.434137,-1.145558 0.501875,-1.680803 0.653344,-5.162442 6.883991,-7.632296 6.883991,-2.728843 0,0.271832 0.439094,0.564354 1.04,0.692842 1.250941,0.267481 1.84,0.69952 1.84,1.349526 0,0.390121 -0.230128,0.433409 -1.2,0.225728 -0.66,-0.141328 -1.884,-0.242186 -2.72,-0.224128 -1.599738,0.03455 -2.164749,-0.634888 -0.88,-1.042651 0.810358,-0.257198 0.823245,-1.174974 0.02662,-1.89591 -0.922724,-0.835052 -3.546324,1.118131 -3.546781,2.640462 -9e-5,0.294496 -0.28809,1.292993 -0.64,2.218881 -1.436138,3.778509 1.1064,9.728352 3.519811,8.236781 0.165469,-0.102266 1.781242,-0.01661 3.590602,0.190355 4.04217,0.462361 4.575559,0.442592 9.369748,-0.347251 7.417536,-1.222039 13.511396,-1.400487 13.840426,-0.405287 0.196109,0.593162 -1.390928,1.07024 -2.806983,0.843802 -1.300508,-0.207959 -2.895449,0.04183 -2.833673,0.443792 0.106476,0.692832 -0.195325,1.047046 -1.79977,2.112336 -0.968,0.642716 -1.76,1.317273 -1.76,1.499017 0,0.181741 -0.671293,1.048103 -1.49176,1.925251 -1.01001,1.079783 -1.55681,1.979584 -1.693197,2.786288 -0.145267,0.859226 -0.353923,1.179088 -0.748243,1.147037 -0.62586,-0.05087 -0.688589,0.429846 -0.217706,1.668365 0.260512,0.685196 0.219104,0.987123 -0.198682,1.448774 -0.495267,0.547264 -0.456137,0.682902 0.635287,2.202083 0.822854,1.145354 1.11008,1.82999 0.981939,2.34055 -0.128906,0.513597 0.05527,0.943738 0.638839,1.491968 0.895612,0.841386 0.916934,1.938855 0.110678,5.696742 -0.553158,2.578221 -0.895325,2.646039 -2.914682,0.577706 -1.957181,-2.004649 -1.838566,-1.955334 -3.115226,-1.295149 -2.71071,1.401763 -3.504128,7.324422 -1.556633,11.619881 0.579008,1.277076 0.669737,2.038656 0.626067,5.255037 -0.0731,5.383961 1.116563,7.314988 2.611242,4.238486 0.384784,-0.792 0.814912,-1.44 0.955843,-1.44 0.344954,0 0.32336,0.556647 -0.04855,1.251565 -0.930804,1.739219 1.010227,2.338883 2.422592,0.748435 1.030653,-1.160608 1.072413,-1.176249 1.27215,-0.476499 0.273632,0.958646 1.609636,1.295059 2.317124,0.583466 1.134339,-1.140919 0.666067,-6.172544 -0.68473,-7.357466 -2.109648,-1.850588 -2.319264,-3.450284 -0.235894,-1.800224 2.182493,1.728567 6.728864,2.012595 8.545421,0.533866 0.323466,-0.263312 1.072704,-0.875491 1.664979,-1.360406 1.688711,-1.382602 2.382564,-3.301066 2.41528,-6.678131 0.03168,-3.269856 0.847082,-4.414035 1.268324,-1.779728 0.113904,0.71232 0.241398,1.293389 0.283318,1.291264 0.04192,-0.0022 1.372218,-0.439437 2.956218,-0.971815 7.095581,-2.384796 14.731844,-2.316304 16.779108,0.1505 0.933325,1.124585 0.121418,1.550828 -1.335133,0.700931 -3.113175,-1.816535 -7.701479,-1.804768 -14.163975,0.03633 -3.629655,1.034051 -4.192656,1.403072 -4.432916,2.905575 -0.664982,4.158566 -4.528102,7.609958 -9.048122,8.083775 -1.38543,0.145232 -2.549545,0.271821 -2.586921,0.281309 -0.03738,0.0095 0.01501,0.917254 0.116412,2.017254 0.406096,4.405095 -1.896307,7.561299 -3.900403,5.346797 -0.591142,-0.653206 -0.591142,-0.653206 -1.352791,0.32 -0.887372,1.133853 -1.238662,1.182256 -2.280924,0.314288 z m 41.137071,-3.37695 c -1.549532,-1.549536 -1.548953,-4.68281 10e-4,-6.920672 0.64162,-0.926214 0.78708,-1.349894 0.49671,-1.446816 -0.30962,-0.103344 -0.35962,-0.700224 -0.20332,-2.426848 0.18216,-2.012118 0.12121,-2.435648 -0.50259,-3.492496 -0.681203,-1.154105 -0.693766,-2.157302 -0.027,-2.157302 0.50993,0 1.91574,2.648617 2.00122,3.77039 0.0974,1.279008 0.0438,1.296656 1.00473,-0.33039 1.85307,-3.137584 5.09438,-5.68 7.24139,-5.68 0.61951,0 4.4962,-2.406429 4.4962,-2.790982 0,-0.09612 -0.16543,-0.726903 -0.36761,-1.401738 -0.28266,-0.943417 -0.27788,-1.335088 0.0207,-1.694809 0.484,-0.583187 -0.238,-1.033763 -2.14519,-1.338736 -0.87017,-0.139146 -1.34212,-0.397216 -1.44486,-0.790071 -0.1125,-0.430195 -0.519,-0.609718 -1.54779,-0.683542 -1.59238,-0.114269 -2.00722,-0.989248 -0.54908,-1.158109 0.56125,-0.065 0.90263,-0.334349 1.01395,-0.8 0.0923,-0.386105 0.38921,-1.278012 0.65982,-1.982012 1.67081,-4.346752 0.20095,-7.812266 -5.83617,-13.76 -3.34818,-3.298601 -4.04232,-5.492921 -1.07078,-3.384924 0.74447,0.528118 1.13849,0.577705 2.78705,0.350758 1.60664,-0.221174 10.49114,-0.62327 14.16,-0.640851 0.99065,-0.0047 1.04,-0.06288 1.04,-1.225328 0,-0.671191 0.21347,-2.79519 0.47439,-4.72 0.43112,-3.180463 0.68046,-4.303574 1.73892,-7.832805 0.31512,-1.050671 2.2819,-4.592824 2.90006,-5.222967 0.90157,-0.919048 0.78683,0.37208 -0.17683,1.989781 -3.23153,5.424759 -5.25342,21.422663 -3.48399,27.566336 0.73728,2.559926 0.73752,3.04 0.002,3.04 -1.00469,0 -1.47506,-2.271575 -1.57288,-7.596061 -0.10343,-5.62975 0.32159,-5.092563 -3.73973,-4.726592 -1.83781,0.165607 -5.31296,0.305949 -7.72257,0.311876 -5.33981,0.01312 -5.30028,-0.0426 -2.16141,3.048147 4.15642,4.092688 5.71334,9.738675 3.74252,13.571794 -0.88894,1.728935 -0.7667,1.950835 1.07469,1.950835 1.57498,0 1.6275,0.02864 1.43792,0.784 -0.16651,0.663421 -0.026,0.865031 0.91355,1.310877 1.25927,0.597565 1.78107,1.671162 1.06962,2.200739 -0.75326,0.560707 -0.12288,2.424384 0.82004,2.424384 0.40563,0 0.84771,0.108 0.98239,0.24 0.13469,0.132 1.34669,0.24 2.69334,0.24 2.44845,0 2.44845,0 2.54728,1.02056 0.0801,0.827533 0.2556,1.03937 0.92772,1.12 3.00091,0.360006 1.17945,3.796371 -3.18697,6.012531 -2.94906,1.496784 -4.84431,3.155321 -6.58631,5.763683 -4.40358,6.593625 -11.17424,10.234979 -13.92186,7.48736 z m 6.04804,-1.204484 c 2.00264,-0.932531 5.38393,-4.262943 7.4765,-7.363996 1.97695,-2.929718 3.36715,-4.145366 6.23535,-5.452448 2.91141,-1.326768 4.83307,-3.488316 3.71532,-4.17912 -0.41166,-0.254419 -1.37029,0.270436 -3.5659,1.952352 -1.64043,1.256621 -2.20071,1.438461 -2.20071,0.714244 0,-0.144461 0.57454,-0.625348 1.27676,-1.06864 1.59383,-1.006138 3.14772,-3.225562 2.62458,-3.748695 -0.79805,-0.798054 -2.85587,0.305552 -5.30797,2.846653 -1.48995,1.544038 -2.42478,2.292797 -2.56973,2.058256 -0.13417,-0.217094 0.53767,-1.155933 1.63426,-2.283715 2.01301,-2.070275 2.25426,-2.658771 1.15406,-2.815229 -1.61577,-0.229776 -5.53196,2.647821 -5.53196,4.064848 0,0.887808 -2.86405,4.019795 -3.28812,3.595728 -0.18799,-0.187997 0.10242,-0.743191 0.77356,-1.478861 1.78579,-1.957475 1.93711,-2.721027 0.53924,-2.721027 -2.21994,0 -5.12036,3.226349 -6.79539,7.559014 -0.58475,1.512493 -1.21165,2.842461 -1.39312,2.955485 -0.52817,0.328963 -1.09432,2.8923 -0.8672,3.926387 0.49832,2.268793 3.02575,2.865856 6.09047,1.438764 z m 1.2998,-6.045148 c 0.68242,-0.751024 1.62167,-1.867024 2.08723,-2.48 0.46557,-0.612976 0.9492,-1.014874 1.07474,-0.893104 0.22752,0.220688 -1.98543,3.094909 -3.20121,4.157795 -1.22012,1.066678 -1.19549,0.574179 0.0392,-0.784691 z M 60.880003,79.148067 c -0.22,-0.08877 -0.4,-0.456406 -0.4,-0.816966 0,-0.36056 -0.312054,-1.160474 -0.693449,-1.777591 -0.564106,-0.912739 -0.632567,-1.283331 -0.367034,-1.986812 0.24345,-0.64497 0.216368,-1.015293 -0.106547,-1.456903 -0.662848,-0.906499 -0.519533,-1.607629 0.415712,-2.033753 1.039114,-0.473453 1.653347,-0.02378 0.94081,0.688748 -0.432016,0.43202 -0.434512,0.539069 -0.02058,0.882612 0.548236,0.454995 0.62182,1.633852 0.132524,2.123148 -0.432288,0.432288 0.842986,2.989447 1.490864,2.989447 0.548708,0 0.585089,0.694601 0.06369,1.216 -0.400109,0.400108 -0.77969,0.444966 -1.456,0.17207 z M 87.840005,63.222064 c -4.336378,-0.979846 -9.760001,-3.781644 -9.760001,-5.041935 0,-0.478301 0.801693,-0.267108 1.159216,0.305376 0.639044,1.023273 6.014426,3.454876 9.036167,4.087596 2.1708,0.454541 5.569533,0.286231 9.547834,-0.472832 3.704759,-0.706867 8.479569,-4.000646 9.564839,-6.598057 1.00997,-2.417187 -0.0695,-9.102214 -1.46973,-9.102214 -0.15136,0 -0.37752,-0.324 -0.50259,-0.72 -0.65603,-2.077171 -4.01471,-5.34495 -6.513914,-6.337632 -1.898755,-0.754185 -2.468544,-1.262368 -1.415398,-1.262368 1.823478,0 5.090702,2.212541 6.833582,4.627645 0.968,1.34136 2.19885,3.04488 2.73522,3.785597 3.61976,4.998761 1.43546,12.111429 -4.49522,14.637676 -0.88,0.374848 -2.104,0.911616 -2.720004,1.192822 -0.968068,0.441923 -3.110455,0.851971 -7.680001,1.469936 -0.616,0.0833 -2.56,-0.17392 -4.32,-0.57161 z M 65.813338,60.586663 c -0.299978,-0.299974 -0.266541,-1.386666 0.04267,-1.386666 0.39879,0 1.024,0.722896 1.024,1.184 0,0.435962 -0.700314,0.569021 -1.066666,0.202666 z m 10.621898,-3.066666 c -0.546077,-1.015206 -0.750806,-5.413314 -0.310749,-6.675663 0.245754,-0.704973 0.25865,-1.149203 0.03972,-1.368135 -0.552391,-0.55239 -0.368989,-1.319891 0.935779,-3.916092 0.902285,-1.795351 1.152106,-2.574787 0.88,-2.745565 -1.357626,-0.852057 4.926087,-6.479225 7.661674,-6.861155 4.170538,-0.582269 9.840286,0.06949 10.546625,1.212368 0.410573,0.664317 -0.227427,0.652685 -1.921872,-0.03504 -2.282176,-0.926265 -6.893927,-1.028915 -9.357838,-0.208285 -2.336595,0.778224 -6.150355,4.240967 -5.330854,4.840199 0.521497,0.381331 0.503532,0.487651 -0.277536,1.642547 -2.09241,3.093846 -2.867265,5.074457 -1.86018,4.754822 0.804141,-0.255226 0.806935,-0.281974 -0.200355,1.91824 -0.969456,2.117565 -0.969318,5.249264 3.04e-4,7.12431 0.461587,0.892611 0.469898,1.037449 0.05953,1.037449 -0.262327,0 -0.651236,-0.324 -0.864244,-0.72 z M 64.956084,56.155825 c -1.139015,-1.212426 -0.869386,-5.053024 0.472649,-6.732413 0.861396,-1.077926 1.447908,-0.852979 0.822567,0.315482 -0.228986,0.427859 -0.336599,0.985728 -0.239139,1.239702 0.09746,0.253975 -0.0052,0.813287 -0.228061,1.242915 -0.859076,1.655866 -0.864407,2.401475 -0.02432,3.399863 1.013539,1.204521 0.282502,1.690656 -0.803696,0.534451 z m 29.187921,-0.859827 c -0.582781,-0.582781 -0.484118,-0.773712 0.787511,-1.523991 1.561757,-0.921459 2.987081,0.03197 1.87871,1.256698 -0.652304,0.720784 -2.070547,0.862966 -2.666221,0.267293 z m 2.096151,-0.816 c 0.07729,-0.232132 -0.138675,-0.4 -0.514599,-0.4 -0.699811,0 -1.120992,0.417894 -0.772457,0.766428 0.321974,0.321975 1.134905,0.09053 1.287056,-0.366428 z m -88.4162068,0.3151 C 1.01431,50.031105 3.1501597,20.485612 10.304721,20.478256 c 0.932404,-9.59e-4 3.56728,-0.370967 5.85528,-0.822241 4.680315,-0.923122 4.710434,-0.925709 14.400001,-1.236943 3.957056,-0.127102 7.978535,-0.426025 9.183171,-0.6826 2.24817,-0.478837 7.656753,-0.583825 8.715588,-0.169182 1.231011,0.482066 -0.195597,0.753576 -4.399242,0.837258 -4.734493,0.09425 -4.759235,0.107137 -6.441302,3.355451 -4.172753,8.058188 -4.978558,20.117039 -1.760785,26.350114 1.636775,3.170563 1.463671,3.900422 -0.285532,1.203901 -2.209885,-3.406694 -2.935073,-7.241456 -2.355351,-12.45502 0.210899,-1.896666 0.383453,-4.124125 0.383453,-4.949912 0,-1.881236 1.629059,-7.037444 3.155965,-9.989083 0.637325,-1.232 1.195891,-2.312 1.241261,-2.4 0.578054,-1.121177 -20.578092,0.630066 -25.603825,2.119409 -3.8457523,1.139663 -5.2905101,18.349118 -2.303244,27.435444 0.831297,2.528544 0.81324,3.465328 -0.04419,2.29272 C 6.8455831,46.990785 6.9383876,29.47189 10.195607,23.119999 10.691736,22.1525 10.77569,21.749057 10.486505,21.722084 4.089615,21.125449 2.8659521,47.66595 9.007205,53.807201 9.9240051,54.724001 8.92023,55.562049 7.8239492,54.795098 Z M 125.95628,52.79643 c -1.76919,-0.312138 -2.43456,-0.766144 -1.90253,-1.298176 0.24232,-0.242323 0.9223,-0.236471 2.33735,0.02013 1.99151,0.361129 4.33504,0.2512 14.24271,-0.668093 4.53,-0.42032 9.89832,-0.397261 14.27813,0.06133 5.14898,0.539127 9.14604,-0.118745 9.91334,-1.631625 4.79674,-9.457712 5.97202,-22.102843 2.80318,-30.159999 -0.70872,-1.802021 -4.03752,-1.295303 -5.25547,0.8 -4.96674,8.544616 -6.9566,18.201071 -5.41293,26.268149 0.6317,3.301159 0.63207,3.701117 0.003,3.071955 -1.38243,-1.382428 -1.74901,-10.560175 -0.65107,-16.300104 0.47684,-2.492834 2.47412,-7.823282 4.11236,-10.975266 1.73885,-3.345506 1.73885,-3.345506 -0.54269,-3.524087 -1.25484,-0.09822 -3.50553,-0.425832 -5.00153,-0.728028 -5.42946,-1.096765 -22.21871,-0.528287 -23.29295,0.788691 -2.55428,3.13148 -4.10091,9.345793 -4.38994,17.638689 -0.10735,3.08 -0.25326,6.968 -0.32425,8.64 -0.071,1.672 -0.13442,3.444499 -0.14097,3.938886 -0.007,0.564291 -0.14152,0.818768 -0.36015,0.683651 -0.41356,-0.255596 -0.36291,-13.790207 0.0677,-18.091291 0.38675,-3.862944 1.31128,-7.298025 2.79834,-10.397126 1.27679,-2.660908 1.27679,-2.660908 -0.2205,-2.757513 -3.34428,-0.215775 -1.81236,-1.039892 2.34272,-1.260297 2.112,-0.11203 5.064,-0.32803 6.56,-0.48 5.18719,-0.526937 16.49967,-0.279114 19.2,0.420614 2.09618,0.543179 2.91151,0.588177 6.44069,0.355467 4.69338,-0.309475 5.60616,-0.108988 5.64952,1.240886 0.016,0.498698 0.24676,1.736138 0.51276,2.749865 1.99759,7.612747 0.51697,21.296762 -2.83701,26.219882 -0.44328,0.650662 -0.81075,1.370662 -0.81661,1.6 -0.0725,2.838358 -3.86099,3.429824 -16.8242,2.626601 -2.12245,-0.13151 -4.8735,-0.02355 -8,0.313933 -9.12028,0.98448 -13.17699,1.205472 -15.28888,0.832874 z M 40.534786,51.599998 c -3.73831,-5.95552 -4.877626,-18.399987 -2.288688,-24.998757 0.858288,-2.187632 4.679946,-7.711979 5.513904,-7.970553 0.81289,-0.25204 0.345578,0.657793 -1.816841,3.537318 -5.085751,6.772296 -5.782276,18.765999 -1.579069,27.190507 0.85575,1.715181 1.55591,3.191181 1.55591,3.28 0,0.54223 -0.7423,-0.01427 -1.385216,-1.038515 z M 13.055037,51.301393 c -1.69601,-0.443581 -1.041812,-3.525664 0.796099,-3.750611 2.253488,-0.275808 19.108866,-0.456832 19.108866,-0.205226 0,0.265607 -7.391711,0.651504 -12.51306,0.653271 -6.009935,0.0021 -7.326941,0.242361 -7.326941,1.3368 0,1.314652 11.611686,1.297459 18.480001,-0.02736 1.064182,-0.205271 1.36,-0.167271 1.36,0.1747 0,0.298688 -0.417514,0.437034 -1.318932,0.437034 -0.725413,0 -2.777413,0.2056 -4.56,0.456893 -1.782588,0.251289 -5.387615,0.552461 -8.011171,0.669267 -2.623556,0.11681 -4.927556,0.25409 -5.12,0.305072 -0.192444,0.05098 -0.595132,0.02854 -0.894862,-0.04984 z m 72.384968,-1.616054 c 0,-0.162093 0.972,-0.47128 2.16,-0.687082 5.323136,-0.96696 5.847914,-1.531888 5.301034,-5.706617 -0.348797,-2.662595 -0.308925,-2.987533 0.292752,-2.385856 0.241757,0.241757 0.397737,1.591744 0.422733,3.658668 0.03961,3.275546 0.03961,3.275546 3.825363,3.232708 5.538523,-0.06267 3.840623,0.593254 -2.241882,0.866076 -2.64,0.118416 -5.16,0.359735 -5.6,0.536269 -1.202406,0.482419 -4.16,0.827827 -4.16,0.485834 z M 160.47258,48.94562 c -1.10262,-2.132217 -1.40679,-9.018998 -0.61786,-13.989068 1.02535,-6.459541 5.36895,-16.761027 6.37849,-15.127549 0.12935,0.209286 -0.0518,0.689541 -0.40533,1.074685 -4.37966,4.771099 -7.15134,22.29296 -4.39909,27.809964 0.60147,1.205671 0.60148,1.206346 0.0194,1.206346 -0.25948,0 -0.69852,-0.438471 -0.97565,-0.974378 z m -31.19257,-0.966595 c 0,-0.406262 7.18435,-0.768265 15.354,-0.773651 8.15401,-0.0054 8.15401,-0.0054 8.36988,-1.285376 0.32856,-1.94815 -2.35766,-2.081046 -18.80904,-0.930541 -2.92607,0.204631 -4.02616,-0.31984 -1.31122,-0.625123 2.10122,-0.236275 13.77936,-0.684336 17.83638,-0.684336 2.67549,0 4.50311,2.756944 2.78119,4.195405 -0.21063,0.175955 -24.22119,0.278675 -24.22119,0.103622 z M 26.662344,43.595048 c -0.292287,-0.50928 -0.933716,-1.156842 -1.4254,-1.439031 -1.158534,-0.664905 -1.422115,-1.810227 -0.908919,-3.949465 0.443446,-1.848493 0.893081,-2.113722 2.071976,-1.222218 0.591127,0.447021 0.653179,0.427917 0.812576,-0.250179 0.267321,-1.137216 2.013044,-1.198825 2.735295,-0.09653 0.7608,1.161126 0.212616,1.606557 -1.951495,1.585693 -1.730396,-0.01667 -1.730396,-0.01667 -1.663386,1.677296 0.06285,1.588713 0.118226,1.69414 0.89123,1.696678 0.99109,0.0033 2.317834,1.312842 2.162121,2.13416 -0.201905,1.064963 -2.088734,0.97048 -2.723998,-0.136404 z m 1.507,-0.543792 c -0.221022,-0.266317 -0.551357,-0.391815 -0.734078,-0.27889 -0.203521,0.125786 -0.105552,0.371066 0.252898,0.633171 0.72129,0.527421 1.026454,0.302733 0.48118,-0.354281 z m -2.459658,-2.811258 c -0.285024,-1.525478 -0.749685,-1.846124 -0.749685,-0.517334 0,1.123984 0.190704,1.557334 0.685334,1.557334 0.142266,0 0.171224,-0.468 0.06435,-1.04 z m 3.348982,-3.144 c -0.06307,-0.1892 -0.251466,-0.344 -0.418666,-0.344 -0.1672,0 -0.3556,0.1548 -0.418667,0.344 -0.06307,0.1892 0.125333,0.344 0.418667,0.344 0.293333,0 0.481733,-0.1548 0.418666,-0.344 z m 102.771162,5.544 c -0.0407,-0.960685 -0.94801,-1.460825 -1.5923,-0.877763 -0.87192,0.789082 -1.208,0.382474 -1.46011,-1.766544 -0.43473,-3.705709 1.27822,-5.903126 3.83641,-4.921456 1.17334,0.45025 0.24521,2.168647 -0.996,1.844064 -0.59652,-0.155993 -0.68162,-0.01472 -0.78666,1.306077 -0.12308,1.547453 0.14297,2.095622 1.01706,2.095622 0.91872,0 2.07538,1.49729 1.59956,2.070618 -0.41509,0.500157 -1.59958,0.682726 -1.61796,0.249382 z m -76.789827,-1.68 c 0,-0.176 0.144,-0.32 0.32,-0.32 0.176,0 0.32,0.144 0.32,0.32 0,0.176 -0.144,0.32 -0.32,0.32 -0.176,0 -0.32,-0.144 -0.32,-0.32 z m -0.576,-1.984 c -0.579296,-0.579296 -0.47487,-0.832572 0.564989,-1.370307 0.623498,-0.322422 0.885597,-0.655933 0.76417,-0.972371 -0.129124,-0.33649 0.139388,-0.594726 0.891011,-0.856909 1.07583,-0.375273 1.07583,-0.375273 0.03583,-0.644992 -1.34472,-0.348749 -1.318339,-0.807779 0.08,-1.392044 1.288176,-0.538234 1.471511,-1.099376 0.359181,-1.099376 -0.418448,0 -0.94008,-0.216 -1.159181,-0.48 -0.219101,-0.264 -0.884733,-0.48 -1.479181,-0.48 -0.867485,0 -1.080819,-0.126325 -1.080819,-0.64 0,-0.783356 1.59263,-0.848075 6.604202,-0.26837 2.801552,0.324065 3.390986,0.307407 4.32,-0.122086 0.749821,-0.34665 2.48177,-0.545621 5.715799,-0.656648 4.810496,-0.165147 6.4,-0.502351 6.4,-1.357724 0,-0.709784 1.23082,-3.035172 1.606503,-3.035172 0.392659,0 0.387757,0.07369 -0.156448,2.35188 -0.62824,2.629982 -1.70112,3.054494 -8.225575,3.254655 -2.752538,0.08444 -4.448925,0.289262 -5.28,0.637496 -0.940173,0.393949 -1.758359,0.463338 -3.523847,0.298861 -2.172928,-0.202438 -2.290407,-0.179939 -2.136355,0.409149 0.113817,0.435232 -0.104864,0.798887 -0.724583,1.204941 -0.880272,0.576774 -0.881789,0.583728 -0.183648,0.841984 0.914035,0.338125 0.889072,0.728966 -0.09605,1.503862 -0.44,0.346106 -0.8,0.83744 -0.8,1.091863 0,0.254419 -0.357161,0.625312 -0.793693,0.824211 -0.517977,0.236006 -0.728409,0.531753 -0.605763,0.851363 0.226234,0.589558 -0.538938,0.663341 -1.096544,0.105734 z m 59.312567,-2.680256 c -0.13634,-0.726729 -0.0725,-1.315504 0.17482,-1.613561 0.29502,-0.355472 0.29964,-0.559162 0.019,-0.839744 -0.45429,-0.454307 -0.48968,-1.522438 -0.0504,-1.522438 0.58385,0 0.33135,-0.525775 -0.45446,-0.946328 -0.47183,-0.25252 -0.7046,-0.596505 -0.59569,-0.880326 0.14961,-0.389854 -0.0764,-0.422415 -1.38554,-0.199598 -1.64631,0.280208 -10.66267,0.234559 -10.95269,-0.05545 -0.644687,-0.644693 0.97274,-0.962714 5.16573,-1.015693 7.30867,-0.09235 10.93189,-0.279267 11.43369,-0.58986 0.64244,-0.39764 4.56813,-0.190052 4.84389,0.256141 0.36935,0.597625 -0.0187,0.855082 -1.26865,0.841828 -3.61852,-0.03837 -7.45733,1.063079 -5.24628,1.505288 1.28139,0.256279 1.30341,0.712614 0.0571,1.183052 -1.20673,0.455488 -1.07029,0.989245 0.28699,1.122672 1.28265,0.12609 1.15693,0.734413 -0.22584,1.092723 -1.07513,0.278592 -1.41359,1.187716 -0.45823,1.230816 0.33454,0.0151 0.39895,0.09024 0.16,0.186666 -0.22,0.08877 -0.4,0.437405 -0.4,0.774736 0,1.089382 -0.87879,0.666547 -1.10344,-0.530922 z M 87.200005,30.585247 c -5.922765,-1.481884 -7.178612,-4.348 -3.41728,-7.798989 1.500105,-1.376333 4.954298,-3.266259 5.969696,-3.266259 0.984022,0 0.302941,0.77497 -0.975885,1.110409 -1.578067,0.413931 -2.518022,0.940612 -4.134691,2.316776 -4.368039,3.718223 -1.734877,6.549466 6.799424,7.310915 1.276698,0.11391 2.401197,0.336436 2.498887,0.494504 0.263222,0.4259 -4.879383,0.298211 -6.740151,-0.167356 z m 8.540452,-0.102823 c 0.06588,-0.342093 0.76366,-0.793492 1.805548,-1.168025 6.317645,-2.271033 4.989185,-3.402748 -3.739021,-3.185268 -8.179427,0.203806 -8.429507,0.191792 -8.316179,-0.399504 0.109376,-0.570689 0.586704,-0.623642 7.473021,-0.829036 9.838344,-0.293443 11.597364,-0.395105 11.889404,-0.687146 0.42948,-0.429485 -1.16024,-2.961569 -2.46547,-3.92696 -1.32367,-0.97903 -1.68097,-2.046486 -0.685,-2.046486 2.92139,0 5.76245,6.242666 3.30641,7.265177 -0.64304,0.267714 -1.24116,0.579464 -1.32916,0.692779 -0.94974,1.222936 -4.432686,3.690331 -5.942478,4.209776 -2.222205,0.76455 -2.129261,0.761074 -1.997075,0.07469 z m 55.818663,0.01002 c -0.0682,-0.06818 -1.25688,-0.178359 -2.64154,-0.244833 -1.38467,-0.06647 -5.51752,-0.29099 -9.18413,-0.498925 -3.6666,-0.207936 -7.0866,-0.294055 -7.6,-0.191376 -1.09569,0.219139 -2.85344,-0.07489 -2.85344,-0.47731 0,-0.367578 6.39559,-0.355444 11.84,0.02246 12.01364,0.833888 11.95633,0.836066 12.58307,-0.478223 0.71435,-1.498002 0.76442,-1.464693 -2.40044,-1.596684 -17.18017,-0.716499 -21.91429,-1.030825 -21.49744,-1.427339 0.15115,-0.143764 4.30681,-0.06356 9.23481,0.178242 4.928,0.241797 10.5715,0.444561 12.54111,0.450587 3.96992,0.01214 4.28054,0.16889 3.36249,1.696792 -0.34176,0.56879 -0.71351,1.425718 -0.82611,1.904283 -0.187,0.794809 -1.96548,1.255228 -2.55838,0.662325 z M 55.271219,29.884548 C 55.144051,29.75738 55.040003,29.1885 55.040003,28.620373 c 0,-2.519041 -1.615197,-6.443305 -3.497552,-8.497619 -1.410269,-1.539097 -1.622131,-2.202755 -0.703203,-2.202755 1.934739,0 5.480755,6.503938 5.480755,10.052545 0,1.090237 -0.662595,2.298193 -1.048784,1.912004 z m -45.17718,-0.741835 c -0.1010528,-0.163507 -0.01099,-0.943139 0.200133,-1.732516 0.436678,-1.632689 0.360545,-1.607067 5.865829,-1.974093 1.584,-0.105601 4.752,-0.391602 7.04,-0.635557 7.874107,-0.839566 9.120001,-0.885179 9.120001,-0.333892 0,0.406029 -0.48471,0.493344 -2.738703,0.493344 -1.506287,0 -3.702287,0.142896 -4.880001,0.317546 -1.78615,0.264879 -11.954039,1.282454 -12.814638,1.282454 -0.145161,0 -0.417596,0.337261 -0.60541,0.749468 -0.688777,1.511701 -0.330722,1.569536 6.35017,1.025713 12.275169,-0.999196 12.759982,-1.05594 13.572975,-1.588634 0.684078,-0.448225 0.795607,-0.454558 0.795607,-0.04518 0,1.067962 -1.72937,1.358613 -13.440001,2.258829 -7.298829,0.561073 -8.219734,0.580927 -8.465962,0.182521 z m 65.677133,-4.978819 c -1.570531,-1.57053 -1.396662,-4.001441 0.435447,-6.088096 1.506201,-1.715469 3.257712,-1.369756 3.669075,0.724201 0.246109,1.252773 -0.225859,1.37 -0.966262,0.24 -0.653914,-0.997995 -1.161274,-1.009262 -2.06632,-0.04589 -1.867501,1.987865 -0.573229,5.481789 1.583942,4.275896 1.28568,-0.718716 1.557341,-0.471453 0.719882,0.655228 -0.904772,1.217242 -2.298637,1.315785 -3.375764,0.238658 z m 1.192919,-1.757282 c -0.106525,-0.172362 -0.04976,-0.582302 0.126137,-0.910977 0.220887,-0.412728 0.207316,-0.710096 -0.04387,-0.96128 -0.586516,-0.586517 0.0045,-0.839478 0.874128,-0.374098 0.948342,0.507539 0.983664,0.873479 0.177577,1.839742 -0.667504,0.80014 -0.850259,0.865672 -1.133974,0.406613 z m 18.314193,-1.922211 c -0.683431,-0.537586 -0.962103,-0.581888 -1.807159,-0.2873 -1.944029,0.677692 -2.715709,-0.669224 -1.107965,-1.933876 1.345693,-1.058523 2.255498,-0.828825 1.225434,0.309383 -0.45087,0.498208 -0.427389,0.530766 0.28464,0.394652 0.426829,-0.08159 1.115965,0.06964 1.531411,0.336082 1.384861,0.888148 2.341543,0.816749 2.456615,-0.183343 0.06262,-0.544214 0.293366,-0.88 0.604723,-0.88 0.276906,0 0.690541,-0.252 0.919187,-0.56 0.388644,-0.523528 0.451104,-0.525144 0.95904,-0.02481 0.62109,0.611804 0.42119,1.459576 -0.416947,1.768228 -0.31199,0.114893 -0.884381,0.543627 -1.271977,0.952742 -0.873905,0.922418 -2.284471,0.967632 -3.377002,0.108246 z m -5.278279,-2.776332 c -0.22,-0.08877 -0.4,-0.563771 -0.4,-1.055554 0,-1.674775 1.896784,-2.433814 2.766179,-1.106946 0.809613,1.235624 -0.866633,2.76758 -2.366179,2.1625 z m 1.36,-1.06807 c 0.344595,-0.557566 -0.166173,-1.033242 -0.664966,-0.61928 -0.246394,0.204488 -0.369076,0.499481 -0.272624,0.655539 0.233433,0.377702 0.692726,0.35994 0.93759,-0.03626 z m 3.085757,0.03505 c -0.579232,-0.367017 -0.194298,-1.533037 0.656394,-1.988312 0.878541,-0.470181 2.177849,0.111591 2.177849,0.975142 0,1.038522 -1.7864,1.677114 -2.834243,1.01317 z m 1.786711,-1.18925 c -0.112676,-0.112676 -0.45904,-0.107329 -0.7697,0.01188 -0.479075,0.183839 -0.493724,0.260694 -0.09647,0.506207 0.490563,0.303185 1.239488,-0.144773 0.866173,-0.518088 z m -16.979134,0.620866 c -0.319754,-0.319752 -0.257127,-4.52183 0.07041,-4.724258 0.156058,-0.09645 0.474675,0.0547 0.708039,0.335884 0.371309,0.447399 0.485734,0.320777 0.916259,-1.013908 0.465085,-1.4418308 1.346432,-2.4365815 1.777171,-2.0058423 0.4064,0.4064013 -1.526582,5.7826533 -2.136441,5.9421353 -0.363936,0.09517 -0.588769,0.445209 -0.588769,0.916644 0,0.744283 -0.317865,0.978146 -0.746665,0.549345 z m 19.01131,-0.71206 C 97.889948,14.86839 97.297538,14.347128 96.948181,14.236247 95.884985,13.898801 94.735497,10.88 95.670201,10.88 c 0.690256,0 4.205187,3.909406 4.107645,4.568635 -0.151101,1.021188 -0.763136,0.999335 -1.513197,-0.05403 z M 82.884904,10.64 c 0.0066,-0.7500609 0.223606,-1.0186654 1.948058,-2.4108512 1.630921,-1.3166771 1.887043,-1.412927 1.887043,-0.7091491 0,0.6677007 0.216838,0.6054307 1.213965,-0.3486186 1.891936,-1.8101983 3.218307,-2.4958571 4.073949,-2.1060015 1.028221,0.4684886 1.015408,1.0146201 -0.0238,1.0146201 -1.151955,0 -2.341507,0.6964643 -3.824109,2.2389571 C 86.538507,10.005957 85.851672,10.394441 85.300021,9.9366101 84.98221,9.6728524 84.753394,9.7834751 84.353096,10.394404 83.746302,11.320491 82.877678,11.465792 82.884904,10.64 Z m 9.915101,-1.1797934 c 0,-0.7497811 1.330048,-1.140207 3.884295,-1.140207 2.871773,0 3.282742,1.0967334 0.430752,1.1495251 -0.877277,0.01624 -2.207047,0.136896 -2.955047,0.2681274 -1.136416,0.1993759 -1.36,0.1537638 -1.36,-0.2774455 z m -2.428902,-0.546974 c -0.297837,-0.4819062 1.018781,-1.4685235 2.516285,-1.8856025 1.819725,-0.5068214 2.65464,0.2906838 0.952617,0.9099324 -0.484,0.1760941 -1.412297,0.5488947 -2.06288,0.8284458 -0.851993,0.3660943 -1.245302,0.4072777 -1.406022,0.1472243 z"
       style="fill:#000000;stroke-width:0.32" />
  </g>
</svg>
