<?xml version="1.0" encoding="UTF-8" standalone="no"?>
<svg
   xmlns:dc="http://purl.org/dc/elements/1.1/"
   xmlns:cc="http://creativecommons.org/ns#"
   xmlns:rdf="http://www.w3.org/1999/02/22-rdf-syntax-ns#"
   xmlns:svg="http://www.w3.org/2000/svg"
   xmlns="http://www.w3.org/2000/svg"
   xmlns:sodipodi="http://sodipodi.sourceforge.net/DTD/sodipodi-0.dtd"
   xmlns:inkscape="http://www.inkscape.org/namespaces/inkscape"
   inkscape:version="1.0 (4035a4fb49, 2020-05-01)"
   sodipodi:docname="garbageapeclose.svg"
   viewBox="0 0 156.802 166.43889"
   height="166.43889"
   width="156.802"
   id="svg62"
   version="1.1">
  <style
     id="style11239" />
  <metadata
     id="metadata68">
    <rdf:RDF>
      <cc:Work
         rdf:about="">
        <dc:format>image/svg+xml</dc:format>
        <dc:type
           rdf:resource="http://purl.org/dc/dcmitype/StillImage" />
        <dc:title></dc:title>
      </cc:Work>
    </rdf:RDF>
  </metadata>
  <defs
     id="defs66" />
  <sodipodi:namedview
     inkscape:current-layer="layer1"
     inkscape:window-maximized="0"
     inkscape:window-y="34"
     inkscape:window-x="10"
     inkscape:cy="150.97427"
     inkscape:cx="231.62537"
     inkscape:zoom="2.0166169"
     showguides="false"
     showgrid="false"
     id="namedview64"
     inkscape:window-height="1034"
     inkscape:window-width="1898"
     inkscape:pageshadow="2"
     inkscape:pageopacity="0"
     guidetolerance="10"
     gridtolerance="10"
     objecttolerance="10"
     borderopacity="1"
     bordercolor="#666666"
     pagecolor="#ffffff"
     inkscape:document-rotation="0"
     fit-margin-top="0"
     fit-margin-left="0"
     fit-margin-right="0"
     fit-margin-bottom="0" />
  <g
     inkscape:label="Image 1"
     id="layer1"
     inkscape:groupmode="layer"
     transform="translate(-1.2689509,-31.046819)">
    <path
       id="path1022"
       d="m 128.05928,32.876263 c 0,0 0.81431,-2.763522 4.52308,-0.351253 3.70876,2.412269 3.70261,2.425582 3.70261,2.425582 l 5.93229,5.413804 7.55939,8.136298 6.61624,9.340276 0.22882,5.129061 -4.01276,2.022386 -3.97929,-2.349595 -11.10985,-10.380853 -6.0515,-9.658144 z"
       style="fill:#f9f5f2;fill-opacity:1;stroke:#000000;stroke-width:1px;stroke-linecap:butt;stroke-linejoin:miter;stroke-opacity:1" />
    <path
       id="path1024"
       d="m 78.562917,46.427804 -2.00193,2.578006 -0.0189,1.08206 2.43859,0.951825 1.99788,-0.946143 0.40054,-1.494364 -0.70738,-1.616903 z"
       style="fill:#f9f5f2;fill-opacity:1;stroke:#000000;stroke-width:1px;stroke-linecap:butt;stroke-linejoin:miter;stroke-opacity:1" />
  </g>
  <g
     style="display:inline"
     id="g70"
     inkscape:label="Image"
     inkscape:groupmode="layer"
     transform="translate(-1.2689509,-31.046819)">
    <path
       style="fill:#000000;stroke-width:0.32"
       d="m 122.14598,55.819013 c -0.50893,-0.91666 0.29241,-1.746215 2.47508,-2.562226 1.82789,-0.683371 1.82789,-0.683371 1.27836,-1.783085 -0.52881,-1.058269 -1.4554,-1.809531 -1.6669,-1.351505 -0.056,0.12135 0.0842,0.504667 0.3116,0.851813 0.22741,0.347147 0.3164,0.841411 0.19774,1.098364 -0.16732,0.362342 -0.37521,0.341474 -0.92635,-0.09298 -0.39084,-0.308094 -1.30587,-0.929081 -2.03339,-1.379969 -1.26778,-0.785719 -1.3792,-0.792608 -2.68075,-0.16578 -1.06414,0.512489 -1.56671,0.557628 -2.32258,0.208587 -2.31504,-1.069018 0.14844,-3.942104 2.63503,-3.07316 0.88058,0.307727 1.13329,0.236741 1.72093,-0.483357 0.37884,-0.464222 0.92657,-0.828281 1.2172,-0.809014 0.71517,0.04741 3.30277,2.051447 4.25088,3.292213 1.93609,2.533695 1.8858,3.977165 -0.16178,4.643939 -1.15643,0.37657 -1.48457,0.732234 -1.14667,1.242817 0.32534,0.491598 -0.14838,1.21718 -0.90314,1.383352 -0.88924,0.195767 -1.79997,-0.217974 -2.24525,-1.020018 z"
       id="path11299" />
    <path
       style="fill:#000000;stroke-width:0.32"
       d="m 45.207914,87.201546 c -1.026134,-0.540182 -1.89519,-1.37135 -3.566726,-3.411241 -0.659437,-0.804752 -1.660388,-1.614246 -2.227456,-1.801395 -0.871172,-0.287514 -1.04138,-0.511008 -1.10465,-1.450483 -0.12592,-1.869738 1.803965,-4.779885 2.478848,-3.737949 0.10207,0.157584 1.005655,0.685946 2.007962,1.174134 1.744349,0.84961 2.374217,1.504042 2.011872,2.09033 -0.09231,0.149354 -0.973667,-0.0057 -1.958583,-0.34456 -0.984915,-0.338861 -1.917862,-0.537555 -2.073213,-0.441542 -0.460672,0.284713 -0.322905,0.78207 0.277546,1.001968 0.77097,0.282345 6.159997,5.776063 6.159997,6.279663 0,0.425783 -0.64026,1.199802 -0.944,1.141219 -0.0968,-0.01866 -0.574515,-0.243734 -1.061597,-0.500144 z"
       id="path11297" />
    <path
       style="fill:#000000;stroke-width:0.32"
       d="m 113.5102,78.718676 c 0.57424,-0.328335 1.65244,-1.059694 2.396,-1.625238 0.74355,-0.565548 2.53337,-1.922523 3.97736,-3.015511 1.44399,-1.092987 3.05136,-2.412698 3.57192,-2.932695 4.7321,-4.726847 6.43344,-6.556893 6.76669,-7.278574 0.53676,-1.162381 -0.26056,-1.458286 -1.33338,-0.494854 -2.76267,2.481007 -4.27367,3.69698 -6.54011,5.263145 -1.3976,0.965776 -2.57345,1.82604 -2.613,1.911692 -0.0396,0.08565 -0.56997,0.430648 -1.1787,0.766657 -0.60874,0.336008 -1.61304,1.011603 -2.2318,1.50131 -1.75526,1.389226 -3.37876,2.535999 -4.90582,3.46529 -1.4024,0.853431 -1.4024,0.853431 -0.6555,1.695259 1.12516,1.268154 1.6027,1.397442 2.74634,0.743519 z"
       id="path11295" />
    <path
       style="fill:#000000;stroke-width:0.32"
       d="m 110.31992,79.761721 c -0.36055,-0.537771 -0.67764,-1.159435 -0.70463,-1.381471 -0.027,-0.22204 -0.30694,-0.522775 -0.6221,-0.668303 -0.9668,-0.446445 -0.5909,-1.129952 1.22963,-2.235766 0.95815,-0.582006 2.87091,-1.875514 4.25057,-2.874465 1.37966,-0.998951 3.14574,-2.266105 3.92462,-2.815897 3.14018,-2.216591 8.73779,-6.908926 9.94781,-8.338977 0.70767,-0.836367 1.41264,-1.660766 1.56661,-1.831991 1.01877,-1.133042 2.88507,3.250462 2.10137,4.935644 -0.39215,0.842084 -1.68979,2.323093 -3.29919,3.763572 -0.42864,0.383645 -1.68075,1.550179 -2.78249,2.592298 -2.02731,1.917606 -3.02931,2.744882 -6.43391,5.312043 -5.39306,4.06649 -7.27229,5.107013 -8.3291,4.611816 -0.1065,-0.04988 -0.48863,-0.530724 -0.84919,-1.068503 z"
       id="path11293" />
    <path
       style="fill:#000000;stroke-width:0.32"
       d="m 6.5046871,94.375636 c -1.635462,-2.167315 -1.965216,-4.852557 -0.887536,-7.227373 0.439655,-0.968838 0.53961,-1.555488 0.331335,-1.944649 -0.164035,-0.306499 -0.394029,-1.279325 -0.511095,-2.161827 -0.250748,-1.890221 0.336768,-3.321767 1.702781,-4.149011 0.480336,-0.290887 1.281978,-0.809898 1.781427,-1.153357 1.1884099,-0.817245 2.7472199,-0.540963 3.7711849,0.6684 0.418403,0.494153 1.336729,1.175069 2.040729,1.513139 0.977955,0.469632 1.487658,1.026701 2.16,2.360729 0.484,0.96033 0.88,1.914698 0.88,2.12082 0,0.206121 0.200055,0.540793 0.444564,0.743718 0.244508,0.202928 0.522492,0.68856 0.617737,1.079184 0.09524,0.390624 0.315965,1.267699 0.490493,1.949056 0.379037,1.479756 0.191274,2.121171 -0.620934,2.121171 -0.395741,0 -0.662941,-0.299258 -0.785732,-0.88 -0.102336,-0.484 -0.704502,-1.924 -1.33815,-3.2 -0.81848,-1.648208 -1.326205,-2.32 -1.753411,-2.32 -0.715069,0 -1.692084,-0.866368 -1.984775,-1.76 -0.313933,-0.958486 -1.726102,-2.570358 -2.006365,-2.290096 -0.134691,0.134692 -0.04841,0.366327 0.191725,0.51474 0.754307,0.466188 1.604599,2.655267 1.272445,3.275903 -0.414333,0.774186 -0.928746,0.456404 -2.075984,-1.282457 -0.7235429,-1.096666 -1.1951459,-1.49809 -1.7599999,-1.49809 -0.629946,0 -0.789463,0.183412 -0.868829,0.998989 -0.109114,1.121258 0.935165,4.51559 1.897382,6.167254 0.348048,0.597434 0.5579139,1.281434 0.466368,1.52 -0.224928,0.58615 -1.130371,0.547574 -1.821174,-0.07759 -1.303555,-1.179703 -1.660608,0.497302 -0.501981,2.357705 1.086301,1.744275 1.180755,2.165334 0.654336,2.916906 -0.634336,0.905638 -0.86431,0.858876 -1.786541,-0.363264 z"
       id="path11291" />
    <path
       style="fill:#000000;stroke-width:0.32"
       d="m 102.75289,87.557873 c -0.32509,-0.51671 0.27892,-1.242736 0.99444,-1.195308 0.83327,0.05524 3.26809,2.189445 3.04615,2.670065 -0.15266,0.330593 -0.63036,0.259623 -1.97905,-0.294019 -0.9778,-0.401393 -1.9055,-0.932722 -2.06154,-1.180738 z"
       id="path11289" />
    <path
       style="fill:#000000;stroke-width:0.32"
       d="m 36.093514,100.30466 c -0.811126,-0.28868 -0.354739,-1.062273 1.384851,-2.347383 1.355383,-1.00128 1.971367,-1.271734 2.56,-1.123997 0.426333,0.107002 0.775149,0.335805 0.775149,0.508451 0,0.172647 0.348224,0.313904 0.773827,0.313904 2.196119,0 2.447088,1.265744 0.44296,2.234032 -1.49736,0.723443 -2.363091,0.611323 -2.666739,-0.345382 -0.198672,-0.625968 -0.229098,-0.623354 -1.536368,0.132061 -0.733523,0.423874 -1.51368,0.706614 -1.73368,0.628314 z"
       id="path11287" />
    <path
       style="fill:#000000;stroke-width:0.32"
       d="m 146.80182,50.097911 c 0.21783,-0.471715 -0.36389,-1.274963 -2.1624,-2.985888 -2.09572,-1.993669 -2.20475,-2.059417 -2.46838,-1.488496 -0.18987,0.411183 0.86607,1.845357 2.49107,3.383344 0.93471,0.88466 1.9872,1.421324 2.13972,1.091036 z"
       id="path11283" />
    <path
       style="fill:#000000;stroke-width:0.32"
       d="m 102.8123,93.167536 c -2.36242,-1.611728 -8.879447,-8.027315 -9.13691,-8.994688 -0.08225,-0.309049 -0.380286,-0.668451 -0.662291,-0.798673 -0.282006,-0.130222 -1.90624,-2.495881 -3.609408,-5.25702 -3.212152,-5.207478 -5.963272,-11.645539 -5.660746,-13.247075 0.07957,-0.421237 0.534508,-1.123882 1.011058,-1.561396 0.476516,-0.437534 1.18458,-1.243377 1.573478,-1.790764 0.577117,-0.812297 0.831641,-0.937734 1.384657,-0.682367 0.809401,0.373759 1.219582,0.186287 2.685277,-1.227304 0.611669,-0.589912 2.067122,-1.454791 3.234357,-1.921948 1.167235,-0.467158 2.192191,-1.000863 2.277691,-1.186013 0.15062,-0.326171 1.53684,-1.636495 2.55454,-2.414671 0.27447,-0.20988 0.58794,-0.574094 0.69658,-0.809377 0.2283,-0.494391 0.78018,-0.970893 5.296047,-4.572627 3.92829,-3.133095 5.16021,-3.963784 9.01558,-6.079187 1.59651,-0.875998 3.53833,-1.989787 4.31515,-2.475086 0.77682,-0.485305 1.68055,-1.00085 2.00828,-1.145661 0.32773,-0.14481 1.37118,-0.760519 2.31876,-1.368249 1.72289,-1.104957 1.72289,-1.104957 1.38585,-1.929192 -0.41365,-1.011561 -0.002,-1.984947 1.09981,-2.59999 1.14432,-0.638863 4.07082,-1.645483 4.37521,-1.504926 0.1372,0.06335 0.14935,0.532898 0.027,1.043429 -0.56475,2.356715 5.49148,14.049332 9.85094,19.018941 0.88902,1.013454 1.79841,2.091799 2.02086,2.396323 0.68722,0.940785 7.7937,7.782624 8.36233,8.050917 1.40821,0.664428 1.05265,2.328574 -0.39625,1.854618 -1.67812,-0.548937 -11.57969,-10.757321 -13.88767,-14.318012 -0.42477,-0.655308 -0.87649,-1.239583 -1.00385,-1.298393 -0.12735,-0.0588 -0.47984,-0.697413 -0.78333,-1.419127 -0.30347,-0.721711 -0.61603,-1.341876 -0.69456,-1.37814 -0.41508,-0.191673 -3.0701,-5.534441 -4.16851,-8.388393 -0.69524,-1.806444 -1.35989,-3.328685 -1.47698,-3.382754 -0.11709,-0.05407 -0.39264,0.07662 -0.61234,0.290426 -0.42977,0.41823 0.0775,2.979665 1.09477,5.527663 2.46341,6.170366 4.8244,10.039287 8.63396,14.148325 1.10395,1.190733 2.44142,2.665549 2.97216,3.27737 0.53073,0.611821 1.17346,1.208677 1.42828,1.326343 0.25481,0.117666 0.84391,0.697881 1.30911,1.289365 0.4652,0.591488 1.6526,1.698862 2.63866,2.460834 2.88639,2.230431 3.42474,2.812894 3.14991,3.40806 -0.35919,0.777842 -1.23771,0.544847 -2.64052,-0.700299 -0.67498,-0.599115 -1.53193,-1.230001 -1.90431,-1.401957 -0.3724,-0.171961 -1.40368,-1.061283 -2.29175,-1.976278 -3.15218,-3.24775 -5.89513,-6.138629 -6.22434,-6.56002 -0.18362,-0.235033 -0.79777,-0.968352 -1.36478,-1.629607 -0.56702,-0.661253 -1.50301,-1.897397 -2.07999,-2.746985 -0.57697,-0.849587 -1.20401,-1.724333 -1.39342,-1.943876 -0.43257,-0.501382 -3.00115,-5.765452 -3.95266,-8.100607 -0.39319,-0.964949 -0.80599,-1.844857 -0.91732,-1.955349 -0.11135,-0.110498 -0.9194,0.230122 -1.79567,0.756926 -0.87629,0.5268 -3.57444,2.04685 -5.99591,3.377885 -2.42147,1.331038 -4.44892,2.52023 -4.50545,2.642649 -0.0565,0.122419 -1.18345,0.928986 -2.50426,1.792378 -4.42574,2.893012 -11.760117,9.252399 -12.487397,10.82737 -0.14261,0.308832 -1.11964,0.84537 -2.171183,1.192299 -2.02561,0.668312 -4.416456,2.40739 -4.984895,3.625959 -0.734675,1.574293 4.359952,13.636483 6.098358,14.43923 0.17802,0.0822 0.45084,0.416342 0.60627,0.742528 0.15543,0.326189 0.75998,1.104934 1.34346,1.730546 2.513067,2.694559 3.008697,3.407325 2.753557,3.959855 -0.36242,0.78484 -1.061087,0.369654 -3.228857,-1.918752 -4.44544,-4.692819 -5.580732,-6.559687 -8.42597,-13.855559 -1.147915,-2.943525 -1.263692,-3.522865 -0.851725,-4.261921 0.335289,-0.601578 0.349177,-0.949855 0.04663,-1.173978 -0.324455,-0.240354 -0.686345,0.006 -1.47283,1.002739 -0.986653,1.250381 -1.025073,1.380262 -0.715041,2.416986 0.686728,2.296323 2.284671,6.15707 3.160146,7.635115 3.104834,5.241853 4.526971,7.369745 6.544494,9.792291 1.2471,1.497457 2.45462,2.957337 2.68339,3.244178 0.22877,0.286841 0.67087,0.703375 0.98245,0.925637 0.311583,0.222257 1.411303,1.194218 2.443813,2.159909 3.1441,2.940603 10.86608,6.263818 11.0399,4.751107 0.0212,-0.18505 -0.7853,-0.757482 -1.79236,-1.272098 -2.67876,-1.368872 -3.05405,-1.72193 -2.68346,-2.524477 0.40899,-0.885683 1.1132,-0.750548 3.00422,0.576512 2.28962,1.606776 3.30544,1.638328 5.17101,0.160623 0.84704,-0.670923 2.14704,-1.809871 2.8889,-2.530995 0.74187,-0.72112 1.63334,-1.419745 1.98105,-1.552495 0.64601,-0.246628 5.49708,-2.836296 6.59806,-3.522259 0.33521,-0.208856 1.20054,-0.741245 1.92296,-1.183088 7.84178,-4.796236 10.62448,-7.09076 15.07052,-12.426702 2.46958,-2.963865 5.11195,-5.362623 5.9995,-5.44637 1.12544,-0.106199 3.47301,-1.414664 3.79704,-2.116358 0.47755,-1.034173 -0.42486,-3.67583 -2.5674,-7.515616 -1.30599,-2.340563 -1.7182,-2.661962 -1.94017,-1.512739 -0.0859,0.444962 -0.2256,1.133875 -0.31036,1.53092 -0.0856,0.401281 -0.4763,0.886214 -0.87951,1.091862 -0.72436,0.369421 -0.72573,0.368754 -0.94134,-0.45874 -0.23556,-0.90408 4.34336,-3.315195 -1.75183,-9.352665 -0.45562,-0.451313 -1.5328,-1.267475 -2.29668,-1.922229 -0.76387,-0.654752 -3.90961,2.977082 -4.41496,2.741422 -1.88671,-0.87982 -2.0071,-1.218614 -0.48074,-1.997173 0.50718,-0.258703 1.01576,-0.673096 1.13017,-0.920876 0.11442,-0.24778 0.60452,-0.610718 1.08912,-0.806522 0.82123,-0.331838 0.86054,-0.399015 0.57883,-0.989073 -0.28697,-0.601068 -2.78394,-3.117438 -5.50337,-5.546138 -0.68628,-0.612902 -2.18759,-1.655261 -3.33626,-2.316359 -1.79655,-1.03397 -2.05302,-1.278782 -1.83479,-1.751367 0.48624,-1.053002 1.3192,-0.826803 4.11624,1.117822 1.44652,1.005683 3.29294,2.453872 4.10315,3.218194 0.81021,0.764322 2.1041,1.912371 2.87532,2.55122 2.70877,2.243846 4.36827,4.001088 7.69342,8.146556 4.81339,6.000848 6.79856,9.672991 7.41907,13.723655 0.24094,1.572887 0.22737,1.61917 -0.70099,2.390421 -0.52067,0.432566 -1.80206,1.062806 -2.84752,1.40054 -1.04546,0.337734 -2.38992,1.03364 -2.98769,1.546456 -1.60491,1.376813 -3.13367,3.01117 -3.4543,3.692882 -0.29813,0.633683 -2.00485,2.560554 -3.30784,3.734256 -0.42683,0.384479 -1.18015,1.146894 -1.67407,1.69425 -0.49391,0.54736 -1.9925,1.758694 -3.33018,2.691858 -1.33769,0.93316 -2.79732,1.990594 -3.24365,2.349848 -0.9252,0.744711 -10.01643,6.075651 -11.92149,6.990554 -1.4077,0.67605 -3.0748,2.006217 -3.4647,2.764471 -0.14102,0.274134 -0.37265,0.444743 -0.51484,0.379082 -0.1422,-0.06566 -0.83513,0.367769 -1.53985,0.963175 -0.70473,0.595405 -1.50447,1.191791 -1.77722,1.325298 -0.27275,0.133509 -1.04205,0.809243 -1.70954,1.501637 -0.66751,0.692392 -1.66546,1.392579 -2.21768,1.555981 -2.00249,0.592516 -7.07636,-1.015467 -10.43538,-3.307119 z"
       id="path11281"
       sodipodi:nodetypes="ssssscssssssssssssscscssssssssssssssssssssssssssssssssscsssssscsssssssssssssssscssssscsssssssssssssssssssscssssscsssssss" />
    <path
       style="fill:#000000;stroke-width:0.32"
       d="m 52.717511,107.83163 c -0.2112,-0.2112 -0.384,-1.02654 -0.384,-1.81187 0,-0.78533 -0.20654,-2.16053 -0.45897,-3.056 -0.25244,-0.89547 -0.70351,-2.56413 -1.00238,-3.708125 -0.61519,-2.35479 -2.50611,-6.505404 -3.92459,-8.614556 -0.77989,-1.159635 -0.885449,-1.520064 -0.58572,-2 0.585,-0.936745 1.42201,-0.683065 2.29166,0.694557 0.85399,1.352803 1.34119,1.589843 1.64428,0.8 0.20647,-0.538055 1.57018,-0.654378 1.87572,-0.16 0.30196,0.488569 1.34813,0.380976 1.55573,-0.16 0.25606,-0.667299 0.95733,-0.599062 1.64427,0.16 0.77177,0.85279 1.26129,0.806765 1.70178,-0.16 0.20048,-0.44 0.59361,-0.8 0.87362,-0.8 0.77127,0 0.44519,1.37832 -0.4154,1.755881 -0.396,0.173735 -0.72,0.482327 -0.72,0.685764 0,0.484288 -0.74055,0.755827 -1.51148,0.55422 -0.33881,-0.0886 -0.79975,0.06439 -1.03005,0.341888 -0.46115,0.555655 -1.61847,0.685975 -1.61847,0.182247 0,-0.49265 -1.27746,-0.378954 -1.47319,0.131117 -0.0952,0.248115 0.044,0.871014 0.30941,1.384223 0.26539,0.513207 0.99613,2.700445 1.62386,4.860525 1.30819,4.501569 1.77117,8.063529 1.14601,8.816799 -0.48665,0.58638 -1.02309,0.62233 -1.54209,0.10333 z"
       id="path11279" />
    <path
       style="fill:#000000;stroke-width:0.32"
       d="m 38.253514,108.21563 c 0,-0.176 -0.0635,-0.32 -0.141114,-0.32 -0.07761,0 -0.230112,0.144 -0.338886,0.32 -0.108774,0.176 -0.04527,0.32 0.141114,0.32 0.186387,0 0.338886,-0.144 0.338886,-0.32 z"
       id="path11277" />
    <path
       style="fill:#000000;stroke-width:0.32"
       d="m 36.459607,109.68266 c -0.642432,-1.67415 0.823885,-3.37987 2.53608,-2.95013 0.723385,0.18156 0.857827,0.38859 0.857827,1.32098 0,0.90075 -0.174986,1.19618 -0.944109,1.59391 -1.182307,0.61139 -2.222963,0.62636 -2.449798,0.0353 z"
       id="path11275" />
    <path
       style="fill:#000000;stroke-width:0.32"
       d="m 27.092509,136.92663 c -0.212391,-0.21239 -0.359104,-1.54165 -0.359264,-3.255 -6.4e-4,-5.88923 -1.334675,-16.15212 -2.705991,-20.816 -1.043388,-3.54858 -1.573427,-5.4778 -2.725449,-9.92 -0.547722,-2.112 -1.127796,-4.127995 -1.28906,-4.479995 -0.569369,-1.242806 -1.599232,-4.754822 -1.599232,-5.453666 0,-0.965968 0.812384,-1.62721 1.4,-1.13953 0.242,0.200842 0.440154,0.686474 0.44034,1.079181 1.88e-4,0.39271 0.280841,1.362016 0.62367,2.154016 0.82848,1.913926 1.716106,4.475228 1.847251,5.330354 0.05823,0.3797 0.254263,1.1717 0.435623,1.76 0.388521,1.26029 0.907741,3.27293 1.163395,4.50964 0.120083,0.5809 0.385024,0.88 0.779485,0.88 0.463651,0 0.646374,-0.32545 0.815347,-1.45224 0.337843,-2.2529 1.051258,-3.6699 2.028058,-4.02815 0.531446,-0.19492 1.116387,-0.82443 1.51183,-1.62704 0.771693,-1.566261 1.542778,-2.145201 2.252122,-1.690929 0.387315,0.248044 0.878928,-0.04364 2.225693,-1.320573 1.783974,-1.691466 2.67303,-2.143894 3.368393,-1.714138 0.644212,0.398148 0.133005,1.170535 -1.597622,2.413866 -0.887472,0.637584 -1.613584,1.286416 -1.613584,1.441849 0,0.155434 -0.36072,0.518955 -0.801603,0.807835 -0.652314,0.42741 -0.892138,0.45009 -1.287732,0.12178 -0.596889,-0.49538 -0.481721,-0.624792 -1.901459,2.13664 -0.696509,1.35474 -1.428285,2.35467 -1.792998,2.45005 -0.408468,0.10681 -0.616208,0.44094 -0.616208,0.9911 0,0.45647 -0.288,1.11795 -0.64,1.46995 -0.352,0.352 -0.64,0.72529 -0.64,0.82953 0,0.10424 0.288,0.55566 0.64,1.00316 0.774528,0.98465 0.826441,1.95586 0.119052,2.22731 -0.334524,0.12837 -0.732771,-0.0756 -1.112883,-0.57005 -0.591939,-0.76995 -0.591939,-0.76995 -0.599053,-0.005 -0.0042,0.44773 0.410807,1.16475 0.999911,1.72773 0.934909,0.89345 0.980653,1.0353 0.638745,1.98083 -0.205625,0.56864 -0.287936,1.71356 -0.186368,2.59227 0.385712,3.337 0.693748,3.78338 1.352906,1.96051 0.972576,-2.68961 7.476388,-7.71335 10.419546,-8.04838 1.129901,-0.12861 2.254128,-0.54418 2.823959,-1.04387 0.447385,-0.39232 0.82952,-0.40889 2.315484,-0.1004 0.97882,0.2032 1.889703,0.36727 2.024186,0.36461 0.520632,-0.0103 0.431322,-1.07022 -0.127366,-1.51146 -0.56504,-0.44625 -0.559517,-0.48473 0.140796,-0.98078 0.687492,-0.48697 0.698312,-0.55013 0.190404,-1.11136 -0.727088,-0.80345 -1.079319,-0.74857 -1.079319,0.16813 0,0.78627 -1.159318,1.7968 -2.061363,1.7968 -0.266138,0 -0.713437,-0.35034 -0.994003,-0.77854 -0.396816,-0.60562 -0.431491,-0.92546 -0.156119,-1.44 0.194701,-0.3638 0.547303,-0.66146 0.783562,-0.66146 0.578378,0 1.165357,-0.74607 0.889619,-1.13073 -0.214051,-0.2986 -0.485357,-0.48996 -2.379674,-1.67844 -0.95704,-0.60043 -1.133414,-1.38383 -0.440947,-1.95853 0.480061,-0.39841 1.884157,-0.031 2.270487,0.59405 0.117552,0.1902 0.904781,0.696 1.749401,1.124 1.578874,0.80008 3.219034,2.43986 3.219034,3.2183 0,0.24175 -0.252,0.58807 -0.56,0.76959 -0.88354,0.52074 0.085,0.97105 2.10104,0.97686 0.93557,0.003 2.01557,0.17239 2.4,0.37711 1.9624,1.04499 4.37896,4.32416 4.37896,5.94204 0,0.76664 -0.94042,1.75765 -2.35886,2.48575 -0.34287,0.176 -0.9043,0.86345 -1.24762,1.52766 -0.71774,1.38861 -1.71551,2.07834 -2.24319,1.55067 -0.24129,-0.24129 -0.23005,-0.58439 0.0384,-1.17363 0.20866,-0.45796 0.30055,-0.96022 0.20419,-1.11613 -0.2823,-0.45677 -7.063158,-0.0285 -10.712937,0.67663 -4.783389,0.92414 -4.96,0.92503 -4.96,0.0251 0,-0.8671 1.475501,-1.51453 4.16,-1.82535 0.88,-0.10189 2.248,-0.31831 3.04,-0.48093 0.792,-0.16262 3.407034,-0.35913 5.811187,-0.4367 3.15293,-0.10172 4.64676,-0.28354 5.36,-0.65237 0.54385,-0.28123 0.98881,-0.59864 0.98881,-0.70535 0,-0.50579 -1.42243,-2.40739 -2.23195,-2.98382 -1.10741,-0.78854 -1.12545,-0.78903 -1.83558,-0.0498 -0.31486,0.32775 -1.19264,0.67514 -1.95064,0.77198 -0.88233,0.11273 -1.60756,0.44057 -2.01576,0.91122 -0.539276,0.6218 -0.733164,0.67546 -1.257484,0.34801 -0.82801,-0.5171 -1.426525,-0.48797 -1.908583,0.0929 -0.585193,0.70512 -1.391789,0.58673 -2.180176,-0.32 -0.760902,-0.87511 -1.067139,-0.95465 -1.904166,-0.49458 -0.305613,0.16798 -1.203658,0.60324 -1.995658,0.96725 -3.978051,1.82831 -7.04,4.83191 -7.04,6.90584 0,0.61308 0.420758,1.46591 1.2,2.43228 1.2,1.48817 1.2,1.48817 3.92,1.33205 1.496,-0.0859 3.357651,-0.36014 4.137005,-0.60948 0.779353,-0.24935 1.787353,-0.45424 2.24,-0.45533 0.452646,-9.6e-4 1.235456,-0.21708 1.739574,-0.48 0.504119,-0.26291 1.304596,-0.47803 1.778839,-0.47803 0.474243,0 1.141782,-0.21142 1.483419,-0.46982 0.7593,-0.5743 1.74116,-0.6309 1.74116,-0.10036 0,0.49003 -1.55747,1.85018 -2.118586,1.85018 -0.449011,0 -3.066092,0.80919 -4.121411,1.27431 -1.318512,0.58113 -8.297527,1.43453 -9.053696,1.1071 -0.300467,-0.13011 -0.850445,-0.20745 -1.222173,-0.17187 -0.463651,0.0444 -1.100995,-0.44307 -2.029798,-1.55242 -1.569927,-1.8751 -2.011642,-2.03577 -1.586631,-0.57712 0.377683,1.29622 0.719331,10.81944 0.446157,12.43635 -0.213619,1.2644 -0.799843,1.74967 -1.394864,1.15465 z"
       id="path11269" />
    <path
       style="fill:#000000;stroke-width:0.32"
       d="m 43.866154,142.15609 c -0.345753,-0.55944 0.440874,-1.29988 1.386541,-1.30511 1.705886,-0.009 6.495396,-2.21408 8.018236,-3.69084 0.71668,-0.69499 0.75053,-0.86133 0.43331,-2.12919 -0.18926,-0.75643 -0.66148,-2.16732 -1.04937,-3.13532 -1.01286,-2.52758 -1.08192,-3.02157 -0.49103,-3.51197 0.43975,-0.36496 0.58571,-0.3619 0.92829,0.0195 0.43067,0.47941 1.94351,4.85348 2.2908,6.62335 0.30823,1.57084 1.32381,2.08663 3.65871,1.85818 1.06253,-0.10396 2.79549,-0.27379 3.85103,-0.3774 1.58002,-0.15509 1.9539,-0.0978 2.1158,0.32407 0.47684,1.24262 -0.1286,1.35541 -8.35496,1.55648 -0.352,0.009 -1.0153,-0.091 -1.47399,-0.22141 -0.55871,-0.1588 -0.98207,-0.089 -1.28258,0.21152 -0.46031,0.46032 -1.12462,0.84491 -3.53822,2.04844 -3.549,1.76969 -6.05521,2.43739 -6.492567,1.72973 z"
       id="path11265" />
    <path
       style="fill:#000000;stroke-width:0.32"
       d="m 102.78804,114.82555 c -1.09157,-0.52645 -0.93756,-1.7262 0.32,-2.49295 1.44544,-0.88131 2.59088,-0.82518 3.11417,0.1526 0.35323,0.66001 0.34899,0.87749 -0.0259,1.32957 -0.36931,0.4453 -2.27476,1.45721 -2.59796,1.37968 -0.0497,-0.0119 -0.41428,-0.17792 -0.81028,-0.3689 z"
       id="path11261" />
    <path
       style="fill:#000000;stroke-width:0.32"
       d="m 150.94279,95.163893 c -0.57018,-0.68702 -0.14803,-1.50919 0.71192,-1.38652 0.82013,0.11699 1.16391,1.16872 0.51618,1.5792 -0.59991,0.38018 -0.77554,0.35262 -1.2281,-0.19268 z"
       id="path11259" />
    <path
       style="fill:#000000;stroke-width:0.32"
       d="m 39.38304,161.69149 c -0.522758,-0.30656 -1.030361,-0.89578 -1.128,-1.3094 -0.104537,-0.44282 -0.665059,-1.00502 -1.363283,-1.36737 -1.726442,-0.89594 -4.718243,-4.80981 -4.718243,-6.1724 0,-0.13012 -0.315303,-0.86792 -0.700669,-1.63954 -0.65776,-1.31703 -0.667558,-1.43606 -0.16,-1.94362 0.758339,-0.75834 1.158554,-0.26289 2.646659,3.27647 1.185827,2.82041 2.17265,4.0943 4.026743,5.19811 0.469001,0.27922 1.009757,0.8523 1.201673,1.27352 0.19192,0.42121 0.965239,1.03846 1.718484,1.37165 1.658381,0.73358 1.831952,0.89177 1.610825,1.46801 -0.236153,0.6154 -1.965984,0.52962 -3.134189,-0.15543 z"
       id="path11257" />
    <path
       style="fill:#000000;stroke-width:0.32"
       d="m 51.373511,164.32782 c -1.94309,-0.29306 -4.80659,-1.17455 -5.14668,-1.58434 -0.283458,-0.34154 -0.277122,-0.56178 0.0267,-0.92785 0.51147,-0.61628 1.50781,-0.60755 2.71872,0.0238 1.20981,0.63082 4.69344,1.06299 6.20822,0.77017 1.03538,-0.20013 2.16841,-0.53599 5.79306,-1.71716 0.616,-0.20073 2.27424,-1.13646 3.68498,-2.07939 1.92224,-1.28482 2.91765,-2.22598 3.9724,-3.75593 0.77408,-1.12284 1.50813,-2.04152 1.63122,-2.04152 0.2148,0 1.00543,-2.37718 1.41726,-4.26126 0.23115,-1.05746 1.34236,-1.10178 1.22231,-0.0488 -0.41107,3.60568 -0.72923,4.25662 -4.03503,8.2556 -0.55723,0.67407 -1.11356,1.49413 -1.2363,1.82234 -0.13359,0.35726 -0.67809,0.6821 -1.35672,0.80941 -0.62346,0.11697 -1.60304,0.6324 -2.17685,1.14541 -1.31844,1.17877 -2.15859,1.54562 -6.38904,2.78976 -3.21407,0.94524 -4.38718,1.09334 -6.33423,0.79968 z"
       id="path11255" />
    <path
       style="fill:#000000;stroke-width:0.32"
       d="m 14.693321,169.07927 c -1.587366,-1.03841 -2.986685,-2.34196 -2.994278,-2.78936 -0.0032,-0.17914 -0.348544,-0.8305 -0.767786,-1.44747 -2.0336609,-2.9928 -1.9896799,-8.38263 0.11609,-14.22681 0.380496,-1.056 0.770329,-2.244 0.866294,-2.64 0.09596,-0.396 0.301693,-0.72 0.457178,-0.72 0.155481,0 0.282694,-0.1519 0.282694,-0.33755 0,-0.18566 0.292653,-0.97997 0.650339,-1.76514 0.675348,-1.48248 0.674903,-2.64756 -0.0026,-6.37731 -0.521916,-2.8739 -1.011859,-6.91544 -1.302492,-10.74427 -0.15688,-2.06677 -0.494301,-5.2468 -0.749828,-7.06674 -0.255526,-1.81994 -0.693072,-5.25299 -0.972323,-7.62899 -0.6146689,-5.22987 -1.0234079,-8.02637 -1.6380769,-11.20731 -0.614278,-3.178905 -0.607529,-5.078144 0.01891,-5.318528 0.266243,-0.102166 0.69024,-0.01466 0.942221,0.194468 0.364758,0.302726 0.5742749,0.244591 1.0278949,-0.285197 0.448566,-0.523888 0.795392,-0.623095 1.630582,-0.466413 0.77561,0.145507 1.230355,0.04559 1.691379,-0.371632 0.606896,-0.549232 0.657863,-0.544989 1.358311,0.113046 0.570102,0.535584 0.976496,0.643328 1.875965,0.497364 1.597155,-0.259181 1.756691,0.290268 0.387513,1.334595 -1.12751,0.859993 -1.178365,0.868278 -2.075795,0.338153 -0.904515,-0.53431 -0.926221,-0.529709 -1.292419,0.27401 -0.35609,0.781757 -1.549623,1.16487 -1.549623,0.497449 0,-0.507686 -1.479062,-0.371299 -1.935321,0.178461 -0.334727,0.403322 -0.338916,0.968274 -0.02195,2.960004 0.215456,1.35384 0.609776,4.04553 0.876259,5.98153 0.266486,1.936 0.695984,4.96 0.954438,6.72 0.258455,1.76 0.602627,4.352 0.764829,5.76 0.162198,1.408 0.376301,2.848 0.475779,3.2 0.09948,0.352 0.319277,2.584 0.488439,4.96 0.169161,2.376 0.526934,5.832 0.795052,7.68 0.982679,6.77309 0.992336,6.40436 -0.24887,9.50367 -0.620333,1.54898 -1.587526,3.96833 -2.149315,5.37633 -0.827728,2.07452 -1.05393,3.16879 -1.192784,5.77021 -0.161581,3.02714 -0.120727,3.31721 0.716429,5.08681 0.524851,1.10945 1.810835,2.84835 3.145718,4.25364 1.854067,1.95185 2.197552,2.47292 1.920317,2.91318 -0.504573,0.80129 -1.088387,0.75543 -2.549219,-0.2002 z"
       id="path11253" />
    <path
       style="fill:#000000;stroke-width:0.32"
       d="m 69.436621,189.4683 c -0.10303,-0.16671 -0.32373,-0.21881 -0.49044,-0.11578 -0.16671,0.10304 -0.21881,0.32373 -0.11577,0.49044 0.10303,0.16671 0.32372,0.21881 0.49044,0.11578 0.16671,-0.10303 0.2188,-0.32373 0.11577,-0.49044 z"
       id="path11251" />
    <path
       style="fill:#000000;stroke-width:0.32"
       d="m 66.413511,191.58666 c -0.792,-0.23342 -3.1532,-0.50059 -5.24711,-0.59372 -3.19077,-0.14191 -3.90701,-0.26921 -4.42413,-0.78633 -0.58415,-0.58415 -0.58762,-0.6464 -0.0652,-1.16884 0.37784,-0.37784 0.76381,-0.47554 1.22413,-0.30986 0.75066,0.27017 6.20891,0.43566 6.83046,0.20709 0.21899,-0.0805 0.31769,-0.27663 0.21934,-0.43576 -0.0984,-0.15913 -0.082,-0.59451 0.0364,-0.96751 0.19669,-0.61973 0.38459,-0.66377 2.18065,-0.51105 2.70004,0.22958 5.00868,1.25725 4.99524,2.22358 -0.0133,0.95332 -0.55066,1.62944 -1.81393,2.28219 -1.20587,0.6231 -1.9855,0.63502 -3.9359,0.0602 z"
       id="path11249" />
    <path
       style="fill:#000000;stroke-width:0.32"
       d="m 4.7071801,195.72563 c -0.314995,-0.69134 -0.252198,-0.99513 0.428634,-2.07364 0.438736,-0.695 0.797699,-1.32153 0.797699,-1.39229 0,-0.0708 -0.54,0.0595 -1.2,0.28937 -1.142106,0.39786 -1.195319,0.47899 -1.10297,1.68152 0.107085,1.39441 -0.476291,1.91273 -1.522563,1.35278 -0.834627,-0.44668 -1.041808,-1.23409 -0.64281,-2.44306 0.420247,-1.27336 1.635114,-2.04765 4.468343,-2.84789 1.144,-0.32312 2.307338,-0.77858 2.585197,-1.01214 0.277859,-0.23356 0.781859,-0.42685 1.12,-0.42955 0.338141,-0.003 0.8308029,-0.1516 1.0948029,-0.33091 0.408688,-0.27758 0.36712,-0.40759 -0.279798,-0.8751 -2.4846339,-1.79558 -3.8486559,-3.58002 -4.5470279,-5.94849 -0.38479,-1.30498 0.606781,-3.92134 2.318167,-6.11671 2.2587129,-2.89749 6.9103229,-6.13022 7.6936669,-5.34688 0.582637,0.58264 -0.04167,1.49291 -1.637414,2.38744 -2.18433,1.22449 -5.3835269,4.52175 -5.7831619,5.96043 -0.508963,1.83229 -0.388323,2.68908 0.59752,4.24359 0.894211,1.41003 2.5007329,2.83153 3.2000709,2.83153 0.188771,0 0.579104,-0.36 0.867404,-0.8 0.610548,-0.93181 0.911517,-0.97285 2.201517,-0.3002 0.914659,0.47694 0.973674,0.46466 1.546688,-0.32197 0.741165,-1.01745 1.056759,-1.01967 2.531108,-0.0178 0.711955,0.48378 1.628489,0.8 2.318771,0.8 1.030893,0 3.358528,1.13379 3.368528,1.64082 0.0022,0.11045 -0.216304,0.38362 -0.485514,0.60704 -0.377788,0.31354 -0.673296,0.32248 -1.295059,0.0392 -0.443069,-0.20188 -1.283386,-0.36705 -1.867366,-0.36705 -0.583984,0 -1.427924,-0.288 -1.875418,-0.64 -0.447494,-0.352 -1.003258,-0.64 -1.235027,-0.64 -0.506666,0 -2.517655,2.19404 -2.517655,2.74683 0,0.21481 -0.422061,0.53769 -0.93791,0.71752 -0.746365,0.26019 -0.958759,0.54432 -1.04,1.39131 -0.09582,0.99891 -0.220122,1.1003 -2.02209,1.6493 -3.4685949,1.05678 -4.9601599,1.85351 -5.1553759,2.75379 -0.317885,1.46601 -0.415866,1.62125 -1.023216,1.62125 -0.330029,0 -0.764291,-0.36348 -0.967741,-0.81 z"
       id="path11247" />
    <path
       style="fill:#000000;stroke-width:0.32"
       d="m 83.373511,189.00559 c 0,-0.26953 -0.22568,-0.57665 -0.50151,-0.68249 -0.60183,-0.23095 -1.25813,0.33534 -0.95572,0.82465 0.32599,0.52746 1.45723,0.4171 1.45723,-0.14216 z"
       id="path11243" />
    <path
       style="fill:#000000;stroke-width:0.32"
       d="m 8.7335131,196.84382 c -0.640592,-0.38892 -0.735299,-1.12208 -0.188592,-1.45996 0.204272,-0.12625 1.181136,-0.20032 2.1708069,-0.16461 1.583417,0.0571 1.894128,-0.0377 2.588592,-0.79015 1.118752,-1.21217 4.550582,-2.69347 6.240137,-2.69347 2.647594,0 2.104372,0.87755 -1.129878,1.82527 -1.382547,0.40513 -2.113949,0.791 -2.183466,1.15196 -0.123773,0.64271 0.818884,0.70717 3.489031,0.23857 0.953353,-0.1673 3.029369,-0.52944 4.61337,-0.80475 3.901449,-0.6781 6.24,-1.45821 6.24,-2.08159 0,-0.49404 -1.221706,-2.36094 -3.356746,-5.12946 -2.52519,-3.27443 -2.477574,-3.68792 0.696912,-6.05156 1.198909,-0.89268 2.539834,-1.9139 2.979834,-2.26938 0.958864,-0.77466 4.576579,-2.54824 5.92,-2.90227 0.528,-0.13914 1.590054,-0.48435 2.360118,-0.76713 3.590039,-1.31833 11.928189,-1.52014 13.620089,-0.32966 1.25628,0.88396 1.35348,0.938 3.69979,2.05681 2.41977,1.15384 3.70582,2.21782 4.93524,4.08304 0.82712,1.25486 0.93709,1.31695 1.73395,0.97892 0.46795,-0.1985 1.14809,-0.62143 1.51144,-0.93984 0.91681,-0.80344 1.68746,-0.72298 2.1176,0.22107 0.23761,0.52149 0.62513,0.8 1.11314,0.8 0.41175,0 0.74863,0.1286 0.74863,0.28577 0,0.49126 0.97721,0.68754 1.64464,0.33034 0.48511,-0.25962 0.82241,-0.22095 1.40556,0.16115 1.0524,0.68955 1.23687,0.64216 1.63811,-0.42085 0.21527,-0.5703 1.0329,-1.36133 2.13749,-2.06793 1.76822,-1.13111 3.09804,-2.97052 3.0912,-4.27573 -0.005,-0.93597 -1.76309,-3.71958 -2.89057,-4.57645 -0.57628,-0.43796 -1.23737,-0.98298 -1.4691,-1.21115 -0.58929,-0.58025 -6.68391,-3.58515 -7.27149,-3.58515 -0.77533,0 -1.0249,-1.31764 -0.34389,-1.81561 0.31921,-0.23341 0.75092,-0.42439 0.95937,-0.42439 0.45116,0 4.28337,-6.26394 5.09007,-8.32 0.5819,-1.48309 1.19741,-5.0638 1.21016,-7.04 0.025,-3.87233 -1.46534,-9.25211 -3.27995,-11.84 -0.30853,-0.44 -0.85503,-1.448 -1.21446,-2.24 -1.72232,-3.79515 -11.8341,-11.84031 -14.88122,-11.83984 -0.90363,1.5e-4 -3.2925,0.73249 -5.18592,1.58983 -0.352,0.15938 -1,0.38695 -1.44,0.5057 -1.40271,0.37858 -5.439997,2.3813 -5.439997,2.69854 0,0.27142 -3.287267,2.88577 -3.628547,2.88577 -0.287088,0 -3.044362,2.79355 -4.263908,4.32 -2.148012,2.68858 -2.796553,4.39306 -2.983059,7.84 -0.148768,2.74949 -0.224393,3.04 -0.791366,3.04 -0.82897,0 -1.103533,-1.37582 -0.842621,-4.22233 0.167664,-1.82921 0.445725,-2.60549 1.69871,-4.74245 0.824026,-1.40537 1.973556,-3.06528 2.554509,-3.68869 1.627517,-1.74646 7.284977,-6.38653 7.786852,-6.38653 0.245801,0 0.602889,-0.29144 0.793529,-0.64766 0.405245,-0.7572 3.282077,-2.17496 7.072798,-3.48561 2.64783,-0.91548 2.68441,-0.94279 2.78242,-2.0772 0.12511,-1.44809 0.91251,-1.52114 2.84224,-0.2637 0.73786,0.48079 1.88986,1.19865 2.56,1.59523 0.67015,0.39658 2.01044,1.19323 2.97844,1.77033 0.968,0.5771 2.8631,1.94462 4.21132,3.03894 1.34822,1.09432 2.60822,1.98967 2.8,1.98967 0.44067,0 0.4563,-3.30724 0.0281,-5.9453 -0.17367,-1.06992 -0.38232,-3.80592 -0.46367,-6.08 -0.36083,-10.08655 -2.58343,-17.194288 -8.29155,-26.515869 -0.64031,-1.045647 -1.1642,-2.072015 -1.1642,-2.280819 0,-0.208803 -0.216,-0.558905 -0.48,-0.778006 -0.264,-0.219101 -0.48,-0.876234 -0.48,-1.460298 0,-0.58406 -0.12527,-1.139356 -0.27839,-1.233987 -0.15311,-0.09463 -0.68648,-0.978633 -1.18526,-1.964451 -1.81076,-3.578912 -7.16843,-8.141263 -9.56046,-8.141263 -0.647218,0 -0.815887,0.158304 -0.815887,0.765763 0,0.421171 0.226099,0.852528 0.502445,0.958569 0.672462,0.258048 0.463172,1.597559 -0.271491,1.737603 -0.312976,0.05966 -1.073987,-0.334867 -1.691136,-0.876729 -0.776685,-0.681939 -1.45288,-0.985206 -2.196717,-0.985206 -0.667143,0 -1.145527,-0.184762 -1.261607,-0.487258 -0.255248,-0.665165 0.901629,-1.752742 1.864423,-1.752742 0.432256,0 1.518592,-0.432 2.414083,-0.96 0.895491,-0.528 1.740307,-0.96 1.877377,-0.96 0.13706,0 1.13873,0.430889 2.22591,0.957529 1.92144,0.930755 2.52429,1.373104 5.39244,3.956727 1.90187,1.713209 4.00102,5.131676 4.19208,6.826834 0.0849,0.752765 0.3518,1.532602 0.59323,1.73297 0.24143,0.200368 0.43896,0.562672 0.43896,0.80512 0,0.242451 0.12992,0.440819 0.2887,0.440819 0.15878,0 0.43929,0.432 0.62335,0.96 0.18407,0.528 0.48615,0.96 0.67131,0.96 0.18515,0 0.33664,0.15777 0.33664,0.350602 0,0.192832 0.27719,0.739871 0.61597,1.215644 1.16204,1.631939 4.83611,9.274915 5.12168,10.654368 0.15705,0.75866 0.57377,2.17138 0.92604,3.13938 1.07276,2.94787 1.80238,9.72788 2.18683,20.32111 0.16457,4.53486 0.13826,4.83366 -0.4745,5.3882 -0.64836,0.58676 -0.64816,0.58787 0.36763,1.93831 1.20584,1.60313 4.14188,7.68498 4.80455,9.95238 0.25719,0.88 0.55437,3.256 0.6604,5.28 0.30331,5.78977 -0.72503,10.88216 -2.57009,12.72721 -0.24118,0.24118 -0.43851,0.61035 -0.43851,0.82039 0,0.542 -1.20122,2.71461 -1.93834,3.50582 -0.34191,0.36699 -0.61775,0.82011 -0.61297,1.00692 0.005,0.18682 1.12078,0.86989 2.48,1.51795 1.35922,0.64806 2.92555,1.59937 3.48073,2.11403 0.55518,0.51466 1.21733,1.01552 1.47145,1.11304 0.25412,0.0975 1.13188,1.116 1.95058,2.26331 1.15634,1.62046 1.48855,2.36272 1.48855,3.32584 0,1.92445 -1.35192,4.17304 -3.69406,6.14415 -1.13627,0.95626 -2.06594,1.92271 -2.06594,2.14767 0,0.22495 0.612,0.56081 1.36,0.74636 2.90733,0.72117 4.01144,1.10788 6.54707,2.2931 1.44489,0.67538 2.78701,1.52681 2.9825,1.89208 0.30563,0.57108 0.19797,0.81263 -0.76838,1.72401 -1.21667,1.14747 -1.83177,1.31536 -5.96119,1.62705 -2.89357,0.21841 -4.48,-0.11974 -4.48,-0.95491 0,-0.44536 1.0844,-0.93007 1.78063,-0.79591 0.16466,0.0317 0.78501,0.0406 1.37856,0.0198 0.86169,-0.0303 1.00772,-0.124 0.72458,-0.46516 -0.19503,-0.235 -0.96866,-0.60476 -1.71919,-0.82168 -0.75051,-0.21693 -1.8068,-0.52866 -2.3473,-0.69273 -0.54049,-0.16406 -1.35086,-0.29831 -1.80081,-0.29831 -1.18522,0 -1.64981,-0.68113 -1.17515,-1.72288 0.31738,-0.69659 0.28949,-0.93478 -0.16876,-1.44114 -0.46709,-0.51613 -0.69051,-0.55321 -1.49758,-0.24858 -0.71896,0.27138 -1.10082,0.26298 -1.57744,-0.0347 -0.81161,-0.50686 -1.82218,-0.50321 -2.01635,0.007 -0.10196,0.26807 -0.42192,0.12027 -0.97002,-0.44808 -0.81788,-0.84809 -0.81788,-0.84809 -2.19452,-0.21395 -0.75716,0.34877 -1.73665,0.84713 -2.17665,1.10746 -0.79653,0.47127 -3.20452,1.6048 -4.88,2.29719 -0.91758,0.37919 -1.16146,1.35679 -0.57129,2.29007 0.29637,0.46868 -0.40167,1.60732 -0.98535,1.60732 -0.67743,0 -2.04776,-3.76847 -0.50286,-4.82457 -0.952253,0.11431 2.682848,-1.47807 4.549193,-2.50131 1.655013,-0.90738 0.671551,-1.63049 0.181013,-2.33967 -0.514333,-0.74359 -2.143163,-2.56743 -2.635988,-2.79722 -1.608816,-0.75015 -3.467214,-2.13437 -5.241722,-2.62615 -2.481631,-0.68775 -4.764321,-0.33108 -5.663437,-0.2338 -4.387725,0.47475 -7.886216,1.7255 -13.186983,4.4033 -1.801315,0.90997 -4.275074,2.52711 -4.289505,3.7747 -0.02275,1.96657 3.532751,4.69174 3.532751,4.69174 0.122263,0.85291 0.155541,0.95826 0.401218,1.2825 0.245673,0.32423 0.544803,1.17029 0.664732,1.88014 0.195716,1.15844 0.124343,1.36901 -0.69686,2.05592 -1.728919,1.44619 -2.676292,1.76146 -7.954909,2.64729 -1.056001,0.17721 -2.900036,0.48963 -4.09786,0.69427 -1.207878,0.20636 -2.846886,0.27194 -3.68,0.14726 -1.633126,-0.24441 -1.852096,-0.24472 -4.702141,-0.007 -1.093027,0.0913 -2.1611999,0.014 -2.4799999,-0.17959 z"
       id="path74"
       sodipodi:nodetypes="csssssssssssssssssssssssssscssssssssssssssssssssssssssssssssssssssssssssssssscssssssssssssssssscsssssssssssssscsssssssscsssssscssssssscssssssccc" />
  </g>
</svg>
