<?xml version="1.0" encoding="UTF-8" standalone="no"?>
<svg
   xmlns:dc="http://purl.org/dc/elements/1.1/"
   xmlns:cc="http://creativecommons.org/ns#"
   xmlns:rdf="http://www.w3.org/1999/02/22-rdf-syntax-ns#"
   xmlns:svg="http://www.w3.org/2000/svg"
   xmlns="http://www.w3.org/2000/svg"
   xmlns:sodipodi="http://sodipodi.sourceforge.net/DTD/sodipodi-0.dtd"
   xmlns:inkscape="http://www.inkscape.org/namespaces/inkscape"
   version="1.1"
   id="svg965"
   width="74.559998"
   height="115.52"
   viewBox="0 0 1491.2 2310.3999"
   sodipodi:docname="garbageatat.svg"
   inkscape:version="1.0 (4035a4fb49, 2020-05-01)">
  <metadata
     id="metadata971">
    <rdf:RDF>
      <cc:Work
         rdf:about="">
        <dc:format>image/svg+xml</dc:format>
        <dc:type
           rdf:resource="http://purl.org/dc/dcmitype/StillImage" />
        <dc:title></dc:title>
      </cc:Work>
    </rdf:RDF>
  </metadata>
  <defs
     id="defs969">
    <rect
       x="115.49797"
       y="913.15798"
       width="1271.3672"
       height="1318.98"
       id="rect1018" />
    <rect
       x="7.5734539"
       y="58.867249"
       width="64.183029"
       height="52.251019"
       id="rect1012" />
  </defs>
  <sodipodi:namedview
     inkscape:document-rotation="0"
     pagecolor="#ffffff"
     bordercolor="#666666"
     borderopacity="1"
     objecttolerance="10"
     gridtolerance="10"
     guidetolerance="10"
     inkscape:pageopacity="0"
     inkscape:pageshadow="2"
     inkscape:window-width="1898"
     inkscape:window-height="1034"
     id="namedview967"
     showgrid="false"
     scale-x="20"
     inkscape:zoom="5.5511853"
     inkscape:cx="-4.2260284"
     inkscape:cy="67.987361"
     inkscape:window-x="10"
     inkscape:window-y="34"
     inkscape:window-maximized="0"
     inkscape:current-layer="layer1" />
  <g
     inkscape:groupmode="layer"
     id="layer1"
     inkscape:label="Layer 1" />
  <g
     inkscape:groupmode="layer"
     inkscape:label="Image"
     id="g973">
    <path
       style="fill:#000000;stroke-width:6.87746"
       d="m 665.47991,2198.3304 c -77.11106,-20.2125 -94.03635,-31.0414 -88.87229,-56.8618 5.03632,-25.1816 2.56955,-22.7042 28.18528,-28.3056 19.44757,-4.2527 19.86574,-3.9133 7.28234,5.9098 -7.34252,5.732 -15.85337,10.4217 -18.913,10.4217 -18.20291,0 -2.61386,27.1963 21.00635,36.6474 92.407,36.9739 215.77927,42.5311 306.93335,13.8254 11.74373,-3.6983 12.43782,-2.7926 4.85865,6.3398 -21.89974,26.3875 -178.16351,33.6004 -260.48068,12.0233 z m 111.24938,-39.231 c -36.26048,-4.783 -130.03848,-30.249 -139.10741,-37.7757 -22.95856,-19.0538 7.67163,-108.8123 47.07336,-137.9432 16.43087,-12.1479 19.82077,-19.6494 19.82077,-43.8616 0,-35.554 9.51799,-62.3122 30.27847,-85.1226 11.21638,-12.3239 19.9841,-38.6204 30.95655,-92.8456 28.18794,-139.304 44.65813,-209.7624 49.03351,-209.7624 2.38707,0 -7.60778,58.0285 -22.2109,128.9523 -14.60309,70.9237 -25.47616,135.2294 -24.16235,142.9015 1.48747,8.6858 -6.24694,22.9588 -20.49722,37.826 -24.05769,25.0992 -36.41813,57.0529 -36.48222,94.3124 -0.0279,14.9514 -4.63809,25.1439 -14.00484,30.9486 -35.31705,21.8862 -68.55904,96.9092 -52.30862,118.0539 19.24821,25.0455 177.38284,48.5357 237.35254,35.2577 15.31569,-3.3912 21.72857,-2.7392 18.85111,1.9171 -4.98053,8.0586 -66.11827,22.4398 -88.8246,20.8939 -8.32469,-0.5674 -24.42034,-2.2551 -35.76815,-3.7519 z m 350.75021,-47.1576 c -76.9757,-16.6383 -96.0949,-26.097 -97.8955,-48.4309 -1.3868,-17.202 -0.7612,-17.997 4.4928,-5.7095 17.5936,41.145 207.6643,59.6522 254.7925,24.8089 13.2902,-9.826 19.1377,-11.6425 16.6555,-5.1738 -12.9304,33.6961 -101.9623,50.9503 -178.0453,34.5053 z m -746.20392,-5.3524 c -28.24087,-7.3398 -31.14318,-10.0806 -33.17334,-31.3294 -2.05722,-21.5329 -1.02173,-22.9219 13.75491,-18.4488 47.07481,14.2503 69.93773,17.3596 129.45773,17.605 44.77574,0.1935 62.0895,2.3672 55.01964,6.9362 -15.23601,9.8461 -130.04577,7.724 -159.97918,-2.9571 -14.22783,-5.0769 -27.43144,-6.7023 -29.34136,-3.6122 -8.67079,14.0298 56.26503,28.5004 127.07385,28.3179 38.76319,-0.1074 54.11958,1.8634 45.05305,5.7603 -19.87797,8.5431 -111.67875,7.1328 -147.8653,-2.2719 z m 742.76522,-34.7997 c -52.345,-8.2313 -82.5295,-19.9145 -82.5295,-31.944 0,-9.1041 4.1313,-8.4258 29.5707,4.855 23.9236,12.4894 175.6837,17.6879 212.8596,7.2914 10.4168,-2.9131 18.913,-2.5421 18.913,0.8253 0,18.1964 -109.7168,29.8372 -178.8138,18.9719 z M 389.113,2033.2102 c -0.74899,-35.2343 15.41056,-75.2905 44.07338,-109.2492 15.53199,-18.4018 19.24379,-28.9112 17.71064,-50.1455 -1.20786,-16.7302 3.22202,-36.7674 11.74321,-53.1157 27.93689,-53.5981 20.01466,-230.4864 -16.04792,-358.3185 -13.38418,-47.4433 -17.63717,-275.1076 -5.13899,-275.0916 2.83695,0 5.3403,53.39 5.56296,118.6361 0.31593,92.5708 3.07377,127.5634 12.55478,159.3 33.00538,110.4823 39.55843,286.9578 13.33396,359.0875 -5.67409,15.6064 -10.96803,41.051 -11.76434,56.5434 -0.90159,17.5417 -6.91814,34.0794 -15.94847,43.8379 -22.23703,24.0301 -43.73316,69.9168 -49.87591,106.4676 -5.5454,32.9965 -5.5454,32.9965 -6.2033,2.048 z m 920.6191,19.4112 c 0,-5.9673 -4.6423,-14.7023 -10.3162,-19.4112 -6.322,-5.2468 -10.3162,-20.3288 -10.3162,-38.9543 0,-16.7159 -4.874,-70.3707 -10.8313,-119.2328 -10.4512,-85.7229 -11.1935,-144.6015 -1.3005,-103.1563 2.2573,9.4565 9.3555,66.7114 15.7738,127.233 12.4661,117.5495 12.4791,117.6186 25.3889,135.6405 6.7059,9.3612 6.7152,13.617 0.041,20.2884 -6.6688,6.6713 -8.4397,6.1665 -8.4397,-2.4073 z m -261.3433,-43.7032 c 0,-20.1097 19.0633,-56.005 37.4057,-70.4331 14.0693,-11.0669 21.529,-27.2349 31.4717,-68.2099 27.3706,-112.7994 33.3466,-123.0851 68.6717,-118.1963 17.0217,2.3557 31.1732,3.9031 31.4476,3.4387 3.0739,-5.2001 23.572,-64.4455 23.572,-68.1295 0,-2.7105 -15.0953,-4.9282 -33.5452,-4.9282 -38.692,0 -51.7281,10.7443 -45.0961,37.1682 2.5675,10.2295 1.5681,17.8515 -2.3408,17.8515 -22.0998,0 -11.9146,-57.6798 11.4973,-65.1104 11.7635,-3.7337 13.5071,-14.1862 17.5724,-105.347 2.4823,-55.6612 6.9806,-136.5637 9.9962,-179.7833 5.483,-78.5812 5.483,-78.5812 -11.9616,-93.5864 -15.7534,-13.5505 -17.7326,-21.0321 -20.4169,-77.1778 -4.2807,-89.5337 16.0139,-247.94636 29.9761,-233.98418 1.8913,1.8913 -0.014,12.37881 -4.2338,23.30558 -8.9535,23.1836 -17.3891,223.1079 -10.8782,257.814 4.439,23.662 4.439,23.662 56.0059,21.058 34.7452,-1.7546 51.5669,-0.1161 51.5669,5.0251 0,4.5579 -13.6799,7.6292 -33.9813,7.6292 -42.9538,0 -39.5625,-9.015 -47.9979,127.5915 -15.6805,253.9362 -15.523,243.7555 -3.8423,248.2378 15.4436,5.9262 14.217,13.1262 27.1211,-159.1894 6.5151,-86.9999 14.6031,-169.0135 17.9735,-182.2526 4.8679,-19.1218 5.4636,-15.2257 2.8968,18.9485 -1.7772,23.6607 -6.3462,87.1052 -10.1534,140.9878 -3.8073,53.8825 -8.3789,117.3111 -10.1592,140.9524 -2.606,34.6072 -1.2768,42.9841 6.8206,42.9841 12.9082,0 12.6571,7.7375 -1.7325,53.3863 -11.7899,37.4016 -11.7899,37.4016 -43.8032,33.155 -34.8397,-4.6217 -49.161,21.8309 -68.3418,126.2329 -5.3087,28.8957 -12.2025,42.2826 -30.3193,58.877 -14.8864,13.6353 -25.1864,30.7422 -28.2082,46.8497 -4.6638,24.8608 -16.9838,35.6218 -16.9838,14.8348 z m -270.76344,-18.6921 c -9.30878,-34.7355 5.61504,-124.9874 24.41291,-147.6375 12.08644,-14.5633 14.6487,-4.7619 3.3802,12.9304 -15.00235,23.5546 -27.05165,91.6566 -21.75924,122.982 4.93361,29.2021 0.80166,37.2316 -6.03387,11.7251 z m 36.53043,-5.9046 c -7.91768,-14.7942 -3.90171,-78.2765 5.84508,-92.3959 11.07505,-16.0434 31.44985,-6.6556 37.69327,17.3674 12.47652,48.0062 -24.18685,111.1871 -43.53835,75.0285 z m 33.61219,-22.4667 c 9.35011,-19.1867 5.31992,-73.0712 -5.46524,-73.0712 -9.79687,0 -18.99525,16.743 -23.77996,43.2847 -8.92763,49.5227 10.15551,68.959 29.2452,29.7865 z m 136.43125,25.5056 c -2.52175,-2.5217 -4.58499,-23.5667 -4.58499,-46.7667 0,-24.2782 -3.60125,-45.7829 -8.48472,-50.6664 -5.44597,-5.446 -8.75425,-32.4172 -9.23726,-75.3081 -0.49303,-43.7669 -5.7047,-85.4435 -15.10508,-120.7887 -13.5303,-50.8733 -22.19259,-71.8656 -22.19259,-53.7816 0,4.4131 -8.90912,8.0237 -19.798,8.0237 -39.37103,0 -48.16523,-82.2114 -10.33288,-96.5952 21.8564,-8.3098 20.3347,-8.5028 33.02589,4.1884 20.73813,20.7381 27.73821,-14.1212 18.73494,-93.2975 -4.3313,-38.09 -7.40133,-117.8876 -6.82237,-177.3279 1.05259,-108.0735 1.05259,-108.0735 6.83344,29.4756 3.17944,75.652 8.89543,148.7402 12.70225,162.4182 10.09301,36.2643 8.59751,54.9033 -6.83344,85.1702 -21.20836,41.599 1.83262,171.5558 32.42258,182.8718 7.87168,2.9119 15.8579,7.8324 17.7472,10.9344 7.6841,12.6167 12.5854,164.4521 5.8431,181.0152 -5.2706,12.948 -7.1065,-5.9491 -7.4347,-76.5293 -0.3542,-76.2209 -2.44324,-95.3888 -11.18464,-102.6435 -9.41139,-7.8107 -10.18104,-6.659 -6.18633,9.2572 2.5093,9.9978 0.67334,33.3529 -4.08046,51.9002 -5.23815,20.4383 -6.31144,38.8108 -2.72466,46.6397 4.47456,9.7664 6.9472,3.6905 10.13677,-24.9087 2.75655,-24.716 4.35384,-5.051 4.60884,56.739 0.21492,52.0108 -0.25317,94.565 -1.03892,94.565 -0.78597,0 -3.49231,-2.0632 -6.01397,-4.585 z m -63.77919,-357.0439 c 6.58626,-17.1635 4.86396,-70.413 -2.42314,-74.9166 -10.06851,-6.2227 -33.41678,11.1031 -37.64044,27.9314 -9.08712,36.206 27.66175,79.3039 40.06358,46.9852 z m -423.2209,309.7069 c -4.92157,-17.9 0.43027,-99.5975 7.3324,-111.9308 2.86672,-5.1226 3.97403,16.4956 2.46067,48.0403 -3.49944,72.9433 -4.86124,81.8278 -9.79307,63.8905 z m 26.42104,5.4992 c -13.44654,-23.9684 -6.09465,-111.7587 9.3591,-111.7587 3.45005,0 3.20051,7.7245 -0.56976,17.6414 -8.6288,22.6954 -8.73548,92.3979 -0.14184,92.3979 9.44971,0 16.28669,-43.7435 11.55546,-73.9326 -2.88149,-18.3861 -2.25276,-21.8415 2.18995,-12.0356 16.64213,36.7326 -4.51069,119.5631 -22.39321,87.6876 z m 660.04022,-20.0442 c -7.3548,-7.3548 -4.5747,-65.4485 4.385,-91.6307 19.0419,-55.6442 50.6123,-10.418 33.229,47.6022 -8.0093,26.7326 -29.6171,52.0253 -37.614,44.0285 z m 25.565,-32.5761 c 12.1589,-25.6231 14.2865,-57.2126 4.8562,-72.103 -9.11,-14.3848 -21.5886,13.3362 -26.225,58.2583 -4.4574,43.1877 4.6458,49.0857 21.3688,13.8447 z m -592.298,18.0801 c -14.33735,-11.0804 -47.24043,-109.7408 -39.2599,-117.7214 5.80337,-5.8033 9.94945,3.9768 21.46076,50.624 8.24575,33.414 15.1447,47.7661 24.08455,50.104 6.89076,1.8019 12.52864,9.1051 12.52864,16.2291 0,15.602 0.36579,15.5872 -18.81405,0.7643 z m 537.2714,2.292 c -7.1457,-18.6212 22.1397,-127.6526 34.287,-127.6526 1.2072,0 -3.7768,17.6882 -11.0753,39.307 -7.2985,21.619 -13.7816,52.5674 -14.4069,68.7745 -1.2183,31.5771 -2.8262,35.1512 -8.8048,19.5711 z m -535.45844,-94.8699 c -14.28441,-74.7023 -20.00497,-87.8024 -38.3418,-87.8024 -12.00812,0 -13.08096,3.2097 -9.19522,27.5098 8.71599,54.5068 -8.29647,26.1163 -19.5756,-32.6679 -6.35058,-33.0977 -16.47736,-83.1277 -22.50392,-111.1778 -6.02656,-28.05 -9.87992,-57.4511 -8.56299,-65.3358 1.33251,-7.9786 6.30016,3.9631 11.20208,26.929 30.42118,142.5255 31.06079,144.2514 54.31506,146.5568 12.95835,1.2846 22.83375,6.7445 24.87896,13.7549 7.7136,26.4401 26.1057,139.8289 23.15875,142.7758 -1.75375,1.754 -8.67275,-25.4903 -15.37532,-60.5424 z m -7.11155,41.1499 c -1.67681,-4.7282 -7.31467,-28.7134 -12.52877,-53.3003 -5.21412,-24.5869 -11.93778,-50.8931 -14.94144,-58.4583 -4.03097,-10.1526 -3.39656,-11.8653 2.42232,-6.5398 7.35297,6.7296 36.4301,126.8952 30.70552,126.8952 -1.43502,0 -3.98091,-3.8685 -5.65763,-8.5968 z m 256.22677,3.8132 c -12.53457,-3.231 -16.01215,-31.2595 -7.71803,-62.2056 3.38345,-12.6239 7.40558,-14.624 22.25779,-11.068 24.53526,5.8742 23.94111,4.4577 17.2149,41.0447 -6.08937,33.123 -10.58503,37.6858 -31.75466,32.2289 z m 17.69838,-14.1294 c 12.84557,-21.8255 11.90232,-49.8615 -1.67767,-49.8615 -7.86581,0 -14.30139,2.708 -14.30139,6.0177 0,3.3098 -1.93428,15.6892 -4.2984,27.5099 -4.06273,20.3134 10.86025,32.3343 20.27742,16.3339 z m 400.19414,-123.6024 c 3.6029,-18.3105 1.0458,-25.4746 -14.7201,-41.2405 -19.3236,-19.3236 -10.8377,-296.7994 11.1014,-363.0018 6.08,-18.3464 6.4665,-17.2035 3.4886,10.3162 -22.0706,203.9641 -24.5706,322.0727 -7.1851,339.4582 18.4155,18.4155 22.9349,47.9582 10.1442,66.3117 -5.3557,7.6848 -6.0773,4.6639 -2.829,-11.8438 z M 506.44528,1522.9029 c -4.53912,-4.5391 -7.92152,-20.7871 -7.51641,-36.1066 0.73653,-27.8537 0.73653,-27.8537 7.58168,2.89 6.35421,28.5385 7.53458,29.8008 16.45711,17.5985 12.08848,-16.532 12.07842,-24.5666 -0.0516,-41.8859 -10.28057,-14.6776 -10.00623,-30.7761 2.9878,-175.3212 3.92862,-43.7018 10.02871,-88.5772 13.55575,-99.7231 4.97457,-15.7202 5.56646,-11.7819 2.63913,17.5609 -18.12572,181.6881 -20.78736,237.5359 -11.82561,248.1299 22.7315,26.872 -0.008,90.6771 -23.82718,66.8575 z m 317.49128,-24.4149 c 1.97813,-10.4022 5.67287,-62.1542 8.21024,-115.0046 2.53744,-52.8503 7.34181,-102.3679 10.67635,-110.0393 3.7428,-8.6103 4.69023,12.3703 2.47582,54.8268 -7.58809,145.4859 -11.80309,189.1301 -18.26534,189.1301 -3.68159,0 -5.07522,-8.5109 -3.09707,-18.913 z m 32.65326,-54.6138 c 1.99252,-139.0087 10.70497,-190.0732 11.87264,-69.5863 0.68151,70.3461 -1.55044,116.4372 -5.76497,119.042 -4.38403,2.7095 -6.59838,-15.2207 -6.10767,-49.4557 z m -361.2857,-29.6024 c -5.47164,-48.3631 -3.5758,-166.3959 3.14878,-196.0401 2.57419,-11.3479 5.09841,37.3961 5.60938,108.3199 0.9766,135.5442 -1.05053,155.8468 -8.75816,87.7202 z m 807.75968,-142.4043 c -0.1139,-4.5438 4.2932,-25.5473 9.7962,-46.6746 10.6736,-40.9784 16.2451,-298.43019 6.9648,-321.8348 -3.5506,-8.95473 -11.6025,-11.96856 -29.8298,-11.16527 -13.7315,0.60522 -29.9839,-1.017 -36.1164,-3.60475 -8.2085,-3.46377 -15.8849,3.11039 -29.0986,24.92018 -52.5759,86.77924 -108.1072,131.24654 -166.4898,133.31854 -35.7631,1.2693 -48.6721,-0.034 -37.4112,-3.7693 9.4565,-3.139 33.2119,-6.0158 52.7897,-6.3928 36.9976,-0.7125 116.9297,-74.09974 149.6722,-137.41685 10.281,-19.88113 12.0413,-20.4402 79.4012,-25.21576 64.1212,-4.54593 68.8806,-5.89316 68.7932,-19.47214 -0.2149,-33.22067 -7.8105,-45.53688 -28.087,-45.53688 -23.0856,0 -21.9446,3.5996 -37.0619,-116.91675 -12.1581,-96.92489 -79.5268,-449.41601 -86.4712,-452.44074 -22.1773,-9.65956 -29.1651,-22.74329 -9.9203,-18.57452 11.34,2.45647 21.3973,5.2453 22.3493,6.19738 8.5286,8.52854 77.5116,385.44448 91.0498,497.4858 8.0974,67.01433 9.3163,70.49392 24.6958,70.49392 42.8738,0 45.936,99.02827 3.3256,107.54718 -17.6122,3.52104 -17.6122,3.52104 -17.6122,142.27506 0,95.0363 -2.9876,150.6719 -9.482,176.58 -9.7389,38.8503 -20.8787,65.156 -21.2574,50.1971 z m -88.5443,-91.4619 c -0.9572,-78.2262 6.1744,-144.2273 20.9984,-194.3324 12.3501,-41.74319 13.5119,-24.87417 1.7731,25.743 -5.9482,25.6482 -13.2874,91.8688 -16.3092,147.1567 -5.4943,100.5235 -5.4943,100.5235 -6.4623,21.4327 z m -385.3789,54.9894 c -49.45881,-11.6483 -67.35692,-144.9235 -35.78562,-266.47108 12.95129,-49.86156 12.95129,-49.86156 -24.18895,-49.86156 -39.76739,0 -42.88775,2.11246 -26.83433,18.16584 56.39267,56.39266 -35.00947,140.593 -103.73557,95.5619 -32.54431,-21.3238 -26.75537,-76.48954 10.13032,-96.53657 17.01612,-9.24811 15.49076,-9.77755 -28.92273,-10.03833 -45.57967,-0.26758 -46.7459,0.15689 -41.84867,15.19889 2.77066,8.51086 5.30036,44.8754 5.62152,80.81011 0.58394,65.3358 0.58394,65.3358 48.72615,64.1257 48.14219,-1.21 48.14219,-1.21 4.93122,7.6775 -50.05375,10.295 -45.22814,7.0202 -58.87714,39.9554 -6.14331,14.824 -15.43613,25.7905 -21.85432,25.7905 -9.52214,0 -9.0675,-2.6682 3.0878,-18.1212 16.10711,-20.4768 21.21962,-162.10877 7.18419,-199.02476 -9.46782,-24.90223 -17.8206,-22.99236 122.83871,-28.08738 140.76996,-5.09903 132.6556,-8.63464 114.41005,49.85219 -21.00375,67.32815 -19.54704,212.85975 2.48751,248.51235 2.54253,4.114 20.76007,8.6939 40.48333,10.1778 32.67408,2.4581 60.38817,12.343 34.60577,12.343 -5.99495,0 -15.02161,1.2248 -20.0592,2.7216 -5.03767,1.4969 -19.61766,0.2586 -32.40004,-2.7519 z m -96.58576,-219.5192 c 42.79965,-42.79968 -20.83182,-117.87008 -67.92992,-80.14173 -45.80027,36.68875 -48.72747,67.97853 -8.2511,88.19883 34.08686,17.0282 53.1073,15.0167 76.18102,-8.0571 z m -67.5842,-18.83878 c -11.58187,-4.67336 -10.85884,-24.21283 1.50057,-40.55352 11.82635,-15.63589 13.8124,-8.25363 3.14287,11.68252 -6.16682,11.52277 -5.03973,14.42719 6.80015,17.52335 7.80563,2.04132 12.49681,6.45434 10.42485,9.80691 -4.07793,6.59822 -8.55343,6.91352 -21.86853,1.54076 z M 855.0814,1196.8338 c -20.70142,-51.4032 -10.49809,-214.22746 17.64542,-281.58436 11.04098,-26.42484 -1.16745,-32.6043 -31.90955,-16.15158 -11.12722,5.95506 -13.45834,5.59268 -11.06107,-1.71936 1.67058,-5.09557 13.88077,-12.00282 27.13375,-15.34945 26.1197,-6.59576 122.7985,0.9766 110.38889,8.64621 -4.89813,3.02717 -5.30824,8.25692 -1.16186,14.81369 16.18693,25.59624 1.7473,221.36515 -17.63758,239.12715 -2.90581,2.6626 -3.28964,-2.8961 -0.85283,-12.3526 35.4204,-137.45634 17.15713,-240.71096 -42.57605,-240.71096 -33.3928,0 -65.35928,180.41996 -47.52288,268.22076 11.26553,55.4554 10.37787,68.9036 -2.44624,37.0605 z m -396.51323,-7.2543 c -25.31746,-10.1997 -38.9694,-87.249 -28.78952,-162.4834 6.98199,-51.60021 30.35075,-120.87932 38.1451,-113.08501 2.07505,2.07527 -0.92051,12.84934 -6.6571,23.94261 -42.38387,81.9614 -27.65328,230.8213 24.49344,247.5186 22.74843,7.284 22.74843,7.284 2.1161,7.4432 -11.3478,0.088 -24.5364,-1.4138 -29.30797,-3.336 z m 52.21694,-44.6914 c -16.27424,-28.5577 -12.03869,-160.49582 6.44969,-200.90953 8.43965,-18.44817 15.34481,-34.0747 15.34481,-34.72565 0,-0.65057 -11.6057,-0.36386 -25.79046,0.63831 -24.49285,1.73033 -24.89061,1.43933 -7.90531,-5.78587 17.88517,-7.60784 17.88517,-7.60784 5.18614,-41.02897 -16.90743,-44.49673 -5.79106,-43.03314 13.11969,1.72732 14.8498,35.14846 14.8498,35.14846 82.17507,30.5973 112.72053,-7.61959 215.19056,-9.6109 215.19056,-4.18155 0,2.82704 -51.83882,7.24527 -115.19738,9.81819 -152.28523,6.18421 -155.29687,6.83503 -169.50479,36.62933 -21.15071,44.35346 -28.04534,123.07102 -15.17844,173.29542 12.1348,47.3667 10.7338,59.5865 -3.88958,33.9257 z m 365.59192,-34.9763 c -7.49548,-12.2935 -13.58876,-26.994 -13.54068,-32.6679 0.0473,-5.6739 7.19657,2.0632 15.88555,17.1936 13.31241,23.1812 18.97578,27.2731 35.99351,26.0057 15.09986,-1.1244 17.59244,0.1505 9.87918,5.0528 -18.9029,12.0144 -34.45508,6.9878 -48.21756,-15.5842 z m 385.21287,-5.022 c -10.8461,-6.8662 -14.1524,-67.5424 -4.9825,-91.4386 4.37,-11.3881 5.5657,-11.2762 18.5814,1.7396 19.7327,19.7326 27.6818,17.2981 27.5605,-8.4409 -0.1289,-27.63985 -9.1223,-43.15519 -20.8208,-35.92512 -5.6702,3.50441 -6.9967,2.61206 -3.8017,-2.55759 18.5916,-30.08185 42.4277,25.01152 34.664,80.12041 -7.4206,52.6732 -25.5851,72.7184 -51.2009,56.5022 z m 35.4494,-28.4791 c 8.8256,-29.4571 -1.1544,-47.309 -26.4477,-47.309 -16.2304,0 -9.421,17.8012 9.9113,25.9104 18.6424,7.8197 18.5798,7.8772 -4.373,4.0147 -24.1497,-4.064 -28.1562,25.9178 -5.3979,40.3946 14.1384,8.9936 17.6349,5.9353 26.3073,-23.0107 z m -398.44905,-0.8233 c -28.93443,-21.3683 -29.36496,-22.2843 -24.92287,-53.0279 10.57869,-73.21514 59.80098,-64.92314 74.1261,12.4874 4.2819,23.1389 4.2819,23.1389 -23.23321,-1.7193 -32.94529,-29.7641 -38.53397,-30.5756 -43.18032,-6.27 -2.92077,15.279 1.52809,23.1874 24.98876,44.4214 34.85454,31.5464 31.65981,33.2338 -7.77846,4.1084 z m 39.75926,-56.04 c 0,-17.7047 -23.29279,-39.77442 -36.59226,-34.67101 -11.26824,4.32405 -10.67416,6.56066 6.50504,24.49191 20.76158,21.6705 30.08722,24.8255 30.08722,10.1791 z m -244.14969,64.5739 c -5.02742,-8.1345 1.70239,-8.1345 20.63237,0 13.26139,5.6986 13.21422,5.928 -1.31338,6.394 -8.28768,0.2659 -16.98121,-2.6114 -19.31899,-6.394 z M 1017.799,956.88837 c 5.9686,-98.84926 5.8576,-97.934 12.6942,-104.68216 2.9851,-2.94646 3.5671,8.56971 1.2934,25.59142 -2.2737,17.0217 -5.46,58.34627 -7.0807,91.83239 -1.6207,33.48618 -4.959,62.88728 -7.4185,65.33588 -2.4593,2.4485 -2.2291,-32.6863 0.5118,-78.07753 z m 90.2318,-6.87746 c 6.6712,-41.72677 16.586,-68.29141 11.5509,-30.94855 -2.2951,17.02171 -6.8226,37.13826 -10.0611,44.70347 -3.7954,8.86628 -4.3249,3.97757 -1.4898,-13.75492 z m -49.3258,3.43873 c -12.0989,-5.19908 -11.429,-5.96888 5.564,-6.39403 11.2254,-0.28069 17.5382,2.39782 15.0683,6.39403 -2.3378,3.7826 -4.8416,6.65992 -5.564,6.39404 -0.7223,-0.26586 -7.5031,-3.14313 -15.0683,-6.39404 z m 84.6786,-4.69805 c 4.9647,-1.98673 10.8965,-1.74236 13.1818,0.54267 2.2854,2.28532 -1.7767,3.9108 -9.0266,3.61217 -8.0119,-0.33012 -9.6415,-1.95964 -4.1552,-4.15508 z m -96.9907,-24.19083 c -5.0743,-3.22484 -1.1,-5.32887 10.1868,-5.39311 10.1789,-0.0559 20.3041,2.80229 22.5004,6.35595 4.6573,7.53563 -20.48,6.79512 -32.6872,-0.96284 z m 99.9996,-3.36179 c 6.6196,-1.72989 17.4516,-1.72989 24.0711,0 6.6196,1.7299 1.2036,3.14528 -12.0355,3.14528 -13.2391,0 -18.6551,-1.41547 -12.0356,-3.14528 z M 1041.5113,898.43 c 0,-8.75976 27.71,-8.75976 41.2648,0 7.6735,4.95899 3.7095,6.69382 -15.4743,6.77216 -14.1847,0.058 -25.7905,-2.98956 -25.7905,-6.77216 z m 110.0393,0 c 0,-3.78261 7.9198,-6.87746 17.5996,-6.87746 9.9816,0 15.7596,2.97684 13.3489,6.87746 -2.3377,3.7826 -10.2575,6.87745 -17.5995,6.87745 -7.342,0 -13.349,-3.09485 -13.349,-6.87745 z m -110.0393,-61.89711 c 0,-4.24532 35.5336,-6.87745 92.8457,-6.87745 57.3121,0 92.8456,2.63213 92.8456,6.87745 0,4.24533 -35.5335,6.87746 -92.8456,6.87746 -57.3121,0 -92.8457,-2.63213 -92.8457,-6.87746 z m -472.02599,-4.81091 c 2.64599,-2.64597 51.90577,-5.85177 109.46616,-7.12401 72.66692,-1.6061 101.5021,-0.16764 94.3391,4.70562 -11.44312,7.78541 -211.54678,10.15992 -203.80526,2.41839 z m -236.3519,-6.78854 c -50.96136,-8.44373 -151.30403,-46.91063 -151.30403,-58.00322 0,-4.52399 4.79598,-5.48526 12.03555,-2.41241 111.57725,47.35962 203.07928,61.56947 269.46904,41.84725 43.35185,-12.87838 46.761,-13.30525 37.95322,-4.75238 -18.9901,18.44058 -116.22176,31.92536 -168.15378,23.32076 z m 683.20029,-51.95868 c 6.5765,-85.28252 -5.9254,-270.06512 -37.69399,-557.13225 -8.18183,-73.93265 -8.18183,-73.93265 -142.87214,-73.2471 -163.13173,0.83024 -164.77922,1.19431 -184.26834,40.7197 -18.38927,37.29476 -20.70228,21.72809 -2.67088,-17.97511 12.78478,-28.15078 12.78478,-28.15078 66.22242,-32.66792 96.16531,-8.12894 257.67308,-5.573 257.7913,4.07969 0.0752,6.09007 1.89281,5.77328 6.23545,-1.08643 7.09891,-11.21356 57.50628,0.28477 139.94488,31.92249 46.5625,17.86945 46.5625,17.86945 57.2553,56.27347 5.8809,21.12221 13.4422,47.6886 16.8026,59.0364 30.3111,102.35709 69.7744,337.34699 72.1859,429.84099 2.5999,99.72311 2.5999,99.72311 -7.2081,-3.43873 -9.551,-100.45693 -19.1633,-153.70832 -70.1414,-388.57625 -28.4673,-131.15564 -21.151,-121.90189 -122.8203,-155.34488 -94.7943,-31.1815 -86.87656,-39.60969 -71.63578,76.25413 27.98038,212.71311 45.52758,588.02248 27.49238,588.02248 -7.0283,0 -8.0363,-12.36924 -4.6193,-56.68068 z m -490.63844,41.2064 c 0.004,-2.83695 10.06518,-5.37563 22.35863,-5.64151 18.45331,-0.39889 19.9527,-1.46984 8.59682,-6.13923 -10.92001,-4.49022 -11.62873,-6.39919 -3.43873,-9.26234 19.14293,-6.69232 216.51819,-10.79569 230.39477,-4.78989 9.02391,3.90558 -11.08281,6.25582 -58.45837,6.8329 -39.71731,0.48422 -84.49353,3.05895 -99.50271,5.72233 -15.63893,2.77518 20.73181,4.80809 85.19257,4.76173 112.48197,-0.0808 112.48197,-0.0808 108.04045,-106.68137 -5.35301,-128.47806 -20.58389,-277.30553 -35.81917,-350.00377 -3.32112,-15.84725 -2.81969,-16.45175 4.29813,-5.18177 12.62247,19.9859 33.46549,201.93196 38.52194,336.27253 3.05385,81.13582 7.11492,121.9961 12.10955,121.83998 14.62516,-0.45735 114.86802,-25.73516 119.18837,-30.05551 14.24362,-14.24369 -6.67141,-329.90885 -33.00603,-498.14956 -7.89792,-50.45676 -7.89792,-50.45676 -26.08913,-33.38083 -23.09603,21.68 -117.87697,82.7287 -122.01529,78.59041 -1.71249,-1.71249 21.60003,-19.33848 51.80547,-39.16894 77.69612,-51.00895 77.81972,-51.56665 11.8813,-53.59788 -86.82178,-2.67454 -150.81835,-9.54926 -144.4503,-15.5173 7.8257,-7.33414 216.49438,6.04176 226.72612,14.53337 11.90803,9.88277 19.0394,58.11454 43.79198,296.17759 7.99704,76.91343 9.08547,246.39375 1.65167,257.2003 -17.57786,25.55338 -441.81034,59.77678 -441.77804,35.63876 z m 0.007,-32.47788 c 0,-3.44066 3.11686,-8.18205 6.92637,-10.53648 39.18385,-24.2169 26.91802,-88.32813 -25.46569,-133.10434 -17.16665,-14.67361 -28.20256,-28.53925 -24.52426,-30.8126 39.54741,-24.44166 105.60914,107.60805 75.73149,151.37837 -15.49381,22.69823 -32.66791,34.82922 -32.66791,23.07505 z M 798.01465,766.85051 C 790.0394,729.26096 780.00141,648.5754 772.8869,564.87339 768.70719,515.69958 760.70636,452.70503 755.1073,424.88553 c -5.59909,-27.81953 -8.72324,-52.03789 -6.94252,-53.81859 7.97338,-7.97338 29.59301,118.31296 35.53354,207.56136 2.26599,34.04341 8.90005,92.27614 14.7423,129.40608 9.29778,59.09101 8.97867,103.14318 -0.42576,58.81613 z m -201.75329,-8.92219 c 59.25872,-21.14583 83.48443,-75.87312 56.59979,-127.86228 -9.1874,-17.76647 -12.42387,-19.31927 -27.95752,-13.41338 -22.8222,8.677 -51.05918,8.56731 -51.05918,-0.19773 0,-3.7826 10.75251,-6.87746 23.89449,-6.87746 33.96142,0 55.85311,-45.93171 40.70554,-85.4057 -6.11546,-15.93662 -41.91872,-13.97291 -52.44119,2.87623 -9.06766,14.51962 -19.0363,18.26141 -19.0363,7.14538 0,-28.94601 68.68507,-46.76878 82.28749,-21.35242 9.28289,17.34523 9.11796,59.51929 -0.30153,77.11995 -5.73756,10.7207 -5.06991,15.68878 2.94303,21.8996 51.20047,39.68505 2.85976,156.64953 -64.29649,155.57087 -14.28691,-0.22975 -12.82252,-1.83585 8.66198,-9.50243 z M 75.869413,748.16246 c -8.575601,-13.87561 9.135346,-59.82658 34.464497,-89.41799 31.27158,-36.5338 39.65739,-32.10059 10.03257,5.30383 -12.02099,15.17771 -23.699137,38.95163 -25.951435,52.83096 -4.566818,28.14199 -41.055454,26.70716 321.247815,12.63189 63.49323,-2.46667 95.9752,-1.5225 89.40693,2.59886 -5.6739,3.56011 -62.92872,8.44586 -127.23293,10.8571 -64.30419,2.41123 -157.49679,6.27587 -207.09462,8.588 -62.58931,2.91783 -91.614232,1.87991 -94.872827,-3.39265 z M 590.1783,677.49173 c 2.36413,-11.82063 4.29841,-27.29491 4.29841,-34.38728 0,-7.09238 3.09486,-12.89523 6.87746,-12.89523 7.51149,0 9.39968,40.44438 2.70293,57.89586 -7.6435,19.9187 -18.348,11.73275 -13.8788,-10.61335 z M 162.57251,642.58864 c -21.77864,-21.77863 19.07198,-61.35697 61.967,-60.03703 11.62726,0.35763 8.55366,3.11742 -11.74569,10.54595 -32.15799,11.7681 -48.24851,25.83738 -41.6885,36.4517 6.66254,10.7802 35.50722,9.30066 59.38303,-3.04602 18.42174,-9.52625 21.97539,-9.52625 35.57601,0 20.30319,14.22092 41.6543,14.33255 22.86765,0.12035 -16.70074,-12.63492 -9.88194,-20.70954 8.96897,-10.62085 8.38326,4.48657 12.50115,11.67448 10.16942,17.75084 -4.62817,12.06086 -31.86244,13.4327 -49.38792,2.48785 -9.53256,-5.95319 -17.31464,-5.16496 -33.95243,3.43873 -25.54132,13.20794 -50.68214,14.38461 -62.15754,2.90923 z m 186.6209,-57.55709 c -6.55303,-17.07691 7.39348,-34.21884 26.03165,-31.99607 22.96432,2.73873 31.40779,13.10706 22.39592,27.50149 -10.32433,16.4908 -42.67212,19.493 -48.42757,4.49458 z M 386.859,573.39122 c 1.57185,-8.16199 -2.0939,-11.95656 -11.55068,-11.95656 -15.7724,0 -24.507,10.2718 -17.86847,21.01316 6.69365,10.83056 26.78008,4.64704 29.41915,-9.0566 z m -101.79509,5.32466 c -12.28228,-14.79923 -3.32527,-31.03613 17.12095,-31.03613 9.69393,0 19.42185,4.6817 21.61763,10.40376 4.55797,11.87788 -8.7394,30.86097 -21.61763,30.86097 -4.74759,0 -12.45202,-4.60286 -17.12095,-10.2286 z m 29.51976,-13.74831 c 0.74586,-3.73079 -4.05989,-7.82629 -10.67944,-9.10109 -7.52809,-1.44979 -12.03555,1.92341 -12.03555,9.00691 0,11.96531 20.3249,12.0496 22.71499,0.0946 z m 293.64796,12.92493 c 0,-6.99846 -3.78368,-9.60007 -10.31619,-7.09332 -13.55716,5.20238 -12.82768,-2.26464 2.11869,-21.68763 12.1291,-15.76182 12.1291,-15.76182 13.2376,12.03555 0.60973,15.28856 -0.27489,27.79738 -1.96588,27.79738 -1.691,0 -3.07433,-4.97336 -3.07433,-11.05198 z M 206.50409,562.41132 c -15.87068,-25.6793 53.65215,-100.94721 114.6704,-124.14631 29.00607,-11.02808 22.30124,2.60144 -8.00194,16.26626 -31.81694,14.34745 -69.58653,51.96395 -88.74962,88.3899 -7.57797,14.40449 -15.64144,23.17505 -17.91884,19.49015 z m 336.30769,-76.89339 c -2.44732,-7.71081 -16.58272,-22.04891 -31.412,-31.86248 -23.43285,-15.50712 -34.63756,-29.76991 -23.38696,-29.76991 18.02162,0 78.95407,54.25743 78.95407,70.30484 0,11.65481 -19.98028,4.48126 -24.15511,-8.67245 z M 350.32705,413.49222 c -20.63236,-9.12189 -20.63236,-9.12189 -2.12526,-9.68047 10.17892,-0.30712 20.54711,2.74217 23.04042,6.77645 7.29157,11.79802 1.13521,12.65284 -20.91516,2.90402 z M 378.9028,404.431 c -15.78806,-17.44559 -14.62208,-19.45969 11.84143,-20.45456 15.18411,-0.57083 27.45715,3.80504 35.4532,12.64057 13.49872,14.91593 9.39692,17.30316 -10.98669,6.39419 -10.46689,-5.60171 -13.30279,-4.86864 -13.30279,3.43872 0,14.12838 -9.11607,13.32836 -23.00515,-2.01896 z m 68.43975,1.68627 c -2.57027,-6.69806 -1.03334,-9.84222 3.99245,-8.16698 10.28068,3.42689 15.94121,19.05784 6.90153,19.05784 -3.69311,0 -8.5954,-4.9009 -10.89398,-10.89086 z m 69.47043,6.32234 c -27.50664,-44.50668 13.56196,-67.63011 115.79871,-65.19974 134.27884,3.19206 137.00597,7.87116 4.58765,7.87116 -103.99644,0 -103.99644,0 -108.31002,25.79046 -6.29427,37.63275 -7.06525,39.64623 -12.07634,31.53812 z m -24.96955,-27.69352 c 1.12769,-55.89014 12.68949,-74.37878 69.68705,-111.43718 65.61793,-42.66313 94.84334,-58.00314 94.84334,-49.78197 0,3.47505 -5.18793,8.30905 -11.5287,10.74225 -6.3408,2.43318 -38.48588,21.51319 -71.43352,42.40001 -63.38669,40.18334 -68.34181,47.64897 -68.34181,102.96673 0,12.54304 -3.09486,24.71824 -6.87746,27.05602 -4.15516,2.56804 -6.66823,-6.11875 -6.3489,-21.94586 z m 137.02056,-57.14493 -106.60056,-3.98493 106.60056,-1.34088 c 59.6695,-0.75051 111.14231,1.59406 116.91675,5.32588 9.16993,5.92606 9.16993,6.51783 0,5.32588 -5.6739,-0.73761 -58.28644,-3.13417 -116.91675,-5.32588 z"
       id="path979"
       sodipodi:nodetypes="ssssscssssssssssssscsssscssssssssssscsscccscssssccsssssssssssssssssssscssssssssssssssssscsssssssssssssssssssssssssssssssssssssssssssssssssssssssssssssssssssssssssssssssssssssssssssssssssssssssssssssssssssssssssssssssscssscssssccsssssssssssssscsssssscssscsssscssssscsssssssssssssssssssssssssssssssssssssssssssscsssssssscscssssssssscssssssscssssssscsssssssssssssssssssssssssssssssssssssssssssssssscsssssssssssssssssssssssssscssssssssscsssssssssssssssscssssssssssssssssssscscsssssssssscsssssssssccccssssssssssssssccsssscssssccsssssssssssssssssssssssssssssssssssssssssssssssssssssssssssssssccssssc" />
  </g>
</svg>
