<?xml version="1.0" encoding="UTF-8" standalone="no"?>
<svg
   xmlns:dc="http://purl.org/dc/elements/1.1/"
   xmlns:cc="http://creativecommons.org/ns#"
   xmlns:rdf="http://www.w3.org/1999/02/22-rdf-syntax-ns#"
   xmlns:svg="http://www.w3.org/2000/svg"
   xmlns="http://www.w3.org/2000/svg"
   xmlns:sodipodi="http://sodipodi.sourceforge.net/DTD/sodipodi-0.dtd"
   xmlns:inkscape="http://www.inkscape.org/namespaces/inkscape"
   inkscape:version="1.0 (4035a4fb49, 2020-05-01)"
   id="svg13120"
   version="1.1"
   viewBox="0 0 15.35894 17.618185"
   height="17.618185mm"
   width="15.35894mm">
  <defs
     id="defs13114" />
  <sodipodi:namedview
     inkscape:window-maximized="0"
     inkscape:window-y="34"
     inkscape:window-x="965"
     inkscape:window-height="1034"
     inkscape:window-width="943"
     fit-margin-bottom="0"
     fit-margin-right="0"
     fit-margin-left="0"
     fit-margin-top="0"
     showgrid="false"
     inkscape:document-rotation="0"
     inkscape:current-layer="layer1"
     inkscape:document-units="mm"
     inkscape:cy="-1.9266947"
     inkscape:cx="21.961014"
     inkscape:zoom="4.30879"
     inkscape:pageshadow="2"
     inkscape:pageopacity="0.0"
     borderopacity="1.0"
     bordercolor="#666666"
     pagecolor="#ffffff"
     id="base" />
  <metadata
     id="metadata13117">
    <rdf:RDF>
      <cc:Work
         rdf:about="">
        <dc:format>image/svg+xml</dc:format>
        <dc:type
           rdf:resource="http://purl.org/dc/dcmitype/StillImage" />
        <dc:title></dc:title>
      </cc:Work>
    </rdf:RDF>
  </metadata>
  <g
     transform="translate(-73.963387,-106.85162)"
     id="layer1"
     inkscape:groupmode="layer"
     inkscape:label="Layer 1">
    <path
       id="path1224"
       d="m 82.551897,111.7064 c 0,-0.33142 -0.16096,-0.38581 -0.72761,-0.24586 -0.54859,0.13548 -0.65374,0.10448 -0.42739,-0.12601 0.42996,-0.43783 1.53044,-0.2127 1.63472,0.3344 0.0485,0.25467 -0.0396,0.46303 -0.19574,0.46303 -0.15619,0 -0.28398,-0.19151 -0.28398,-0.42556 z"
       style="fill:#000000;stroke-width:0.264583" />
    <path
       id="path1222"
       d="m 83.928697,114.23662 c -0.17762,-0.28442 -0.21562,-0.51713 -0.0844,-0.51713 0.23753,0 0.64661,0.79504 0.48978,0.95187 -0.0453,0.0453 -0.22772,-0.15032 -0.40535,-0.43474 z"
       style="fill:#000000;stroke-width:0.264583" />
    <path
       id="path1220"
       d="m 79.247267,115.3113 c -0.19514,-0.31575 0.0525,-0.79806 0.40983,-0.79806 0.32194,0 0.32403,0.71612 0.003,0.91474 -0.13547,0.0837 -0.32109,0.0312 -0.41249,-0.11668 z"
       style="fill:#000000;stroke-width:0.264583" />
    <path
       id="path1218"
       d="m 85.316057,116.12333 c 0.0822,-0.13309 0.0167,-0.28627 -0.14569,-0.3404 -0.18626,-0.0621 -0.13804,-0.22888 0.13064,-0.45187 0.37305,-0.3096 0.42589,-0.26737 0.42589,0.3404 0,0.38162 -0.12609,0.69386 -0.2802,0.69386 -0.15411,0 -0.2129,-0.10889 -0.13064,-0.24199 z"
       style="fill:#000000;stroke-width:0.264583" />
    <path
       id="path1216"
       d="m 80.501377,116.96575 c -0.53738,-0.18745 -0.37701,-0.56299 0.17839,-0.41775 0.93335,0.24407 1.89783,-2.77499 1.23114,-3.85374 -0.22802,-0.36892 -1.12222,-0.39097 -1.34339,-0.0331 -0.26193,0.42383 -0.61232,0.30703 -0.79375,-0.26458 -0.20434,-0.64384 -0.5936,-0.67259 -1.23593,-0.0913 -0.52924,0.47895 -0.68042,0.1291 -0.16636,-0.38496 0.44377,-0.44377 1.52084,-0.39659 1.70163,0.0745 0.11388,0.29678 0.27258,0.32666 0.65315,0.12298 0.58614,-0.31369 1.408,0.0274 1.66222,0.6899 0.31842,0.8298 0.15604,2.04346 -0.40758,3.04629 -0.59528,1.05916 -0.92341,1.30572 -1.47952,1.11173 z"
       style="fill:#000000;stroke-width:0.264583" />
    <path
       id="path1214"
       d="m 75.408147,120.41703 c 0,-0.13552 0.17481,-0.47752 0.38846,-0.76 0.32635,-0.43147 0.3898,-0.44473 0.39687,-0.083 0.005,0.23684 -0.17018,0.57884 -0.38846,0.76 -0.21828,0.18116 -0.39687,0.21849 -0.39687,0.083 z"
       style="fill:#000000;stroke-width:0.264583" />
    <path
       id="path853-9"
       d="m 77.118907,123.22988 c -0.0966,-0.15637 -0.0965,-0.70661 2.7e-4,-1.22275 0.15971,-0.85136 0.24268,-0.92512 0.89406,-0.79484 0.61406,0.12281 0.71426,0.0581 0.69216,-0.44682 -0.0527,-1.20302 -0.41358,-1.30874 -1.08659,-0.31831 -0.52621,0.77438 -0.70904,0.88662 -1.00251,0.61544 -0.19741,-0.18241 -0.2901,-0.44486 -0.20597,-0.58321 0.0854,-0.14051 0.20243,-0.10312 0.26505,0.0847 0.2113,0.63393 0.86867,-0.71174 1.03541,-2.11955 0.15952,-1.34692 0.15184,-1.36631 -0.47497,-1.19859 -0.35042,0.0938 -0.84548,0.17209 -1.10014,0.17408 -0.35911,0.003 -0.46302,0.22925 -0.46302,1.00903 0,0.96456 -0.36218,1.64041 -0.87906,1.64041 -0.13424,0 -0.12126,-0.14882 0.0288,-0.33072 0.48866,-0.5922 0.48206,-2.5347 -0.01,-2.90652 -1.22873,-0.9287 -0.98182,-2.75427 0.48995,-3.62263 l 0.91054,-0.53723 -0.53478,-0.53478 c -0.53738,-0.53745 -0.76471,-1.76649 -0.27013,-1.46082 0.14552,0.0899 0.26458,0.38759 0.26458,0.66146 0,0.27386 0.12699,0.57641 0.28219,0.67233 0.499,0.30841 0.57822,-0.0908 0.14167,-0.7141 -0.52305,-0.74676 -0.52978,-1.03863 -0.0391,-1.6936 0.35498,-0.4738 0.37322,-0.43932 0.23543,0.44496 -0.20233,1.29842 0.24537,1.49595 1.46887,0.64806 1.09381,-0.75802 2.40642,-1.20974 3.51523,-1.20974 0.60468,0 0.70544,-0.10478 0.6632,-0.68971 -0.0661,-0.91449 0.99292,-1.71005 2.50277,-1.88023 0.9271,-0.1045 1.289,-0.0166 1.81616,0.44091 0.58208,0.50522 0.5914,0.53903 0.0804,0.29189 -1.41252,-0.6832 -4.05229,9.2e-4 -4.05229,1.05019 0,0.69953 0.34245,0.66196 0.66487,-0.0729 0.20365,-0.46419 0.51678,-0.61362 1.4216,-0.67843 0.63824,-0.0457 1.26021,0.0167 1.38217,0.13862 0.12196,0.12196 -0.23223,0.17845 -0.78707,0.12554 -0.68864,-0.0657 -1.1483,0.0433 -1.44832,0.34329 -0.65916,0.65917 -0.53953,1.00856 0.54522,1.59233 1.12736,0.60671 2.19028,2.03809 2.19028,2.94954 0,0.79271 0.84007,0.8406 1.59001,0.0907 0.49323,-0.49322 0.50377,-0.59845 0.14579,-1.4552 -0.21223,-0.50795 -0.292,-0.92354 -0.17726,-0.92354 0.27368,0 0.82271,1.21692 0.82271,1.82352 0,0.58586 -0.80756,1.35148 -1.42551,1.35148 -0.25179,0 -0.38421,0.11906 -0.29428,0.26458 0.2801,0.4532 0.92238,0.2923 1.62069,-0.40601 0.53546,-0.53546 0.65284,-0.57545 0.58251,-0.19843 -0.0485,0.25968 -0.49051,0.67324 -0.98237,0.91901 -0.57139,0.28551 -1.06297,0.82362 -1.36147,1.49037 -0.25696,0.57393 -0.62809,1.10792 -0.82474,1.18664 -0.29433,0.11783 -0.29014,0.19005 0.0237,0.40854 0.26469,0.18427 0.60442,0.14999 1.11134,-0.11215 1.03037,-0.53282 1.2717,-0.45843 0.4918,0.15161 -0.92989,0.72738 -1.63347,0.65402 -2.51089,-0.26182 -0.77623,-0.8102 -0.75938,-1.42455 0.0213,-0.77665 0.37458,0.31088 0.50148,0.27601 0.93243,-0.25619 0.91814,-1.13385 0.4297,-2.37866 -0.57616,-1.46837 -0.46444,0.42029 -0.51252,0.42293 -0.51252,0.0282 0,-0.2396 0.22411,-0.5756 0.49802,-0.74666 0.39564,-0.24708 0.45389,-0.46489 0.28336,-1.05951 -0.32689,-1.13978 -1.20737,-2.23119 -2.09743,-2.59986 -0.44034,-0.1824 -0.80062,-0.49578 -0.80062,-0.6964 0,-0.20063 -0.12609,-0.36478 -0.2802,-0.36478 -0.15411,0 -0.21671,0.10272 -0.13912,0.22827 0.0776,0.12555 -0.49549,0.29398 -1.27354,0.37428 -0.77803,0.0803 -1.89819,0.3927 -2.48922,0.69422 -1.40505,0.7168 -2.44932,2.14282 -1.5692,2.14282 0.18377,0 0.45166,0.26789 0.59531,0.59531 0.18562,0.42309 0.44186,0.56993 0.88574,0.50758 0.42735,-0.06 0.58751,0.0235 0.50725,0.26458 -0.13468,0.40449 -1.20307,0.53284 -1.42647,0.17137 -0.0856,-0.13856 -0.30362,-0.11357 -0.51105,0.0586 -0.42301,0.35106 -0.91408,0.12412 -0.91408,-0.42242 0,-0.46213 -0.82997,-0.5038 -1.27,-0.0638 -0.35397,0.35396 -0.41723,1.49728 -0.10963,1.98105 0.10988,0.17279 0.53576,0.44191 0.94641,0.59804 0.96018,0.36506 2.11799,-0.14247 2.23756,-0.98084 0.0465,-0.32606 0.1884,-0.59284 0.31533,-0.59284 0.12694,0 0.16054,0.83792 0.0747,1.86204 -0.14157,1.68871 -0.10175,1.91267 0.42785,2.40606 0.43498,0.40525 0.54359,0.72774 0.42577,1.26418 -0.17747,0.80804 0.75153,2.27647 1.24663,1.97048 0.18555,-0.11468 0.13924,-0.28067 -0.13406,-0.48051 -0.3786,-0.27684 -0.37941,-0.42112 -0.009,-1.54711 0.23388,-0.71043 0.57084,-1.24181 0.78747,-1.24181 0.56888,0 1.98174,-0.76963 2.77609,-1.51223 l 0.70393,-0.65807 0.45098,0.68828 c 0.25016,0.38179 0.70252,0.69008 1.01586,0.69233 0.46169,0.003 0.49238,0.0509 0.16801,0.26053 -0.56234,0.36341 -0.71009,0.33226 -1.26891,-0.26756 -0.49355,-0.52977 -0.49788,-0.52981 -0.96875,-0.009 -0.26014,0.28745 -0.98498,0.71817 -1.61076,0.95716 -0.78123,0.29835 -1.23508,0.66943 -1.44829,1.18416 -0.35323,0.85278 -0.1663,1.35989 0.41854,1.13546 0.32909,-0.12628 0.36891,0.0445 0.23405,1.00375 -0.26808,1.9069 -0.3517,2.03119 -0.88812,1.32004 -0.45016,-0.59679 -0.50315,-0.60598 -1.12918,-0.19579 -0.81149,0.53171 -1.0115,0.35174 -1.0115,-0.91017 0,-0.60149 -0.14458,-1.04141 -0.3708,-1.12822 -0.60918,-0.23376 -0.69599,0.85293 -0.14086,1.76334 0.56162,0.77879 -0.61591,1.38365 -0.95208,-0.36994 z"
       style="fill:#000000;stroke-width:0.264583" />
  </g>
</svg>
