<?xml version="1.0" encoding="UTF-8" standalone="no"?>
<svg
   xmlns:dc="http://purl.org/dc/elements/1.1/"
   xmlns:cc="http://creativecommons.org/ns#"
   xmlns:rdf="http://www.w3.org/1999/02/22-rdf-syntax-ns#"
   xmlns:svg="http://www.w3.org/2000/svg"
   xmlns="http://www.w3.org/2000/svg"
   xmlns:sodipodi="http://sodipodi.sourceforge.net/DTD/sodipodi-0.dtd"
   xmlns:inkscape="http://www.inkscape.org/namespaces/inkscape"
   inkscape:version="1.0 (4035a4fb49, 2020-05-01)"
   sodipodi:docname="hamcar.svg"
   viewBox="0 0 2400 1837"
   height="1837"
   width="2400"
   id="svg292"
   version="1.1">
  <metadata
     id="metadata298">
    <rdf:RDF>
      <cc:Work
         rdf:about="">
        <dc:format>image/svg+xml</dc:format>
        <dc:type
           rdf:resource="http://purl.org/dc/dcmitype/StillImage" />
        <dc:title></dc:title>
      </cc:Work>
    </rdf:RDF>
  </metadata>
  <defs
     id="defs296" />
  <sodipodi:namedview
     inkscape:current-layer="layer2"
     inkscape:window-maximized="0"
     inkscape:window-y="10"
     inkscape:window-x="10"
     inkscape:cy="954.6645"
     inkscape:cx="1186.8718"
     inkscape:zoom="0.47262416"
     showgrid="false"
     id="namedview294"
     inkscape:window-height="1036"
     inkscape:window-width="1898"
     inkscape:pageshadow="2"
     inkscape:pageopacity="0"
     guidetolerance="10"
     gridtolerance="10"
     objecttolerance="10"
     borderopacity="1"
     bordercolor="#666666"
     pagecolor="#ffffff" />
  <g
     inkscape:label="Image 1"
     id="layer2"
     inkscape:groupmode="layer">
    <path
       id="path1279"
       d="m 1328.1249,1351.4731 11.3259,-90.2657 34.3325,-83.2493 32.0051,-24.5231 25.7433,-4.2201 25.7784,16.4804 9.3155,67.8077 9.4997,29.5995 39.8194,1.7321 25.4615,-0.4475 -4.4796,-19.9285 -29.2628,-55.3038 -24.8364,-94.5313 5.3158,-57.8477 5.9503,-43.57965 4.8106,-21.99889 10.7058,-38.31739 19.307,-65.11588 41.103,-81.66012 53.093,-67.27113 64.4591,-42.01808 67.9051,18.37155 34.3319,67.02075 9.8421,85.28474 -18.7908,135.75021 -30.0133,93.02839 -46.3189,92.0718 -35.589,47.8967 -58.8251,47.9492 -33.4592,21.0185 9.6857,18.259 -23.8503,41.8526 -30.6146,11.3471 -27.8235,-45.8018 -17.8124,-21.0827 -5.9142,-22.994 -13.0141,-2.5504 -5.3659,38.416 -22.5151,60.2738 -29.3594,31.746 -34.7055,17.3975 -22.5271,-6.3398 -20.4808,-27.2778 z"
       style="fill:#ffebf2;fill-opacity:1;stroke-width:0" />
    <path
       sodipodi:nodetypes="ccccccccccccccccccccccccccccccscccccc"
       id="path396"
       d="m 1133.3805,880.46918 -21.2687,-58.12185 29.7332,-84.42071 40.9141,-54.51272 21.7605,-23.28042 -22.4509,-19.82433 -49.7278,-54.943 -10.5887,-44.74186 4.1082,-35.46642 18.3669,-38.43584 28.1844,-29.68109 28.6367,-33.58072 -19.845,-65.2482 80.3868,32.66184 25.1146,8.89518 51.6769,-11.22107 73.6851,8.43105 62.2908,39.83367 21.1286,38.61466 19.0773,44.31677 -2.4501,50.68708 -19.5845,21.69482 -62.9005,62.05924 26.7697,22.39932 41.0977,-3.73652 16.6259,9.6024 0.8328,21.264 -10.9953,21.96907 -37.604,18.74673 -34.1762,10.5619 c 0,0 -25.2128,15.96623 -34.5869,20.49703 -9.3741,4.5308 -55.8266,24.01907 -55.8266,24.01907 l -38.4973,24.78162 -40.0896,22.95714 -29.3365,20.128 -76.6599,30.43924 z"
       style="fill:#f5b43a;fill-opacity:1;stroke-width:0" />
    <path
       id="path398"
       d="m 1517.4456,1122.8273 5.8036,-60.0343 13.2333,-71.90695 20.6112,-70.06344 27.0636,-73.26724 42.4718,-63.37419 49.1516,-56.89506 29.0472,-10.83417 10.7083,0.1855 12.1252,10.42149 13.3071,17.24769 15.364,22.56659 7.0234,41.8099 2.3039,48.56563 -14.5466,85.53873 -7.3018,29.02326 -15.6273,59.80506 -35.0389,81.273 -19.5313,39.7662 -34.607,45.169 -36.0408,28.2057 -23.9213,9.6371 -37.0494,-22.3377 -22.0819,-59.8932 z"
       style="fill:#f0c6d2;fill-opacity:1;stroke-width:0" />
    <path
       id="path400"
       d="m 1621.9611,1011.844 3.5113,-30.57566 0.5714,-13.16838 c 0,0 16.3589,-51.18347 16.9724,-53.0747 0.6134,-1.89124 17.9732,-16.89362 17.9732,-16.89362 l 16.1826,0.65563 8.2363,9.36766 5.7105,22.15101 c 0,0 -5.1129,31.31056 -5.5135,34.24814 -0.4006,2.93757 -23.4655,61.06052 -23.4655,61.06052 l -9.9708,31.0833 -21.6529,4.1743 -11.0441,-36.249 z"
       style="fill:#ffd9f2;fill-opacity:1;stroke-width:0" />
    <path
       id="path422"
       d="m 1507.6638,1189.1548 -20.4807,-98.1406 1.0141,-46.0307 5.9494,-37.5817 2.037,-26.31632 15.466,-55.51061 31.5796,-94.44992 31.6931,-46.46533 73.7202,-91.57444 12.013,-17.48337 -39.8035,6.34376 -67.68,11.15223 -133.2218,48.4876 -41.3703,19.52508 -174.4509,97.73675 -38.6606,10.49981 -135.9898,42.39668 -78.09633,34.18889 -88.29159,59.89139 -33.85272,56.3192 7.75428,31.8372 39.33449,56.435 28.98588,35.0505 60.38495,19.5987 82.85444,12.2206 17.1005,0.972 13.4999,-35.1609 34.4181,-37.5593 36.6272,-3.1719 13.3311,14.1081 18.0262,51.2849 0.7341,25.9896 96.4732,20.4432 21.0676,1.6848 39.6209,5.3317 27.1642,-70.8431 39.1734,-36.9293 25.7433,-4.2201 12.364,9.3642 17.4351,30.641 5.2948,44.2829 0.6858,30.7333 36.2377,-0.4235 42.2945,5.7442 -3.2933,-21.1911 -31.1995,-48.3577 z"
       style="fill:#bd9146;fill-opacity:1;stroke-width:0" />
    <path
       id="path426"
       d="m 1318.2206,791.24977 -4.4527,-32.21877 15.2866,-34.12462 34.5324,9.14976 -3.6525,27.82185 -8.7417,14.66648 z"
       style="fill:#ffebf2;fill-opacity:1;stroke-width:0" />
    <path
       id="path428"
       d="m 1409.0138,679.3007 5.4638,25.08734 41.9696,2.61891 27.8901,5.33885 20.8794,-13.14573 -15.4387,-7.76139 -34.6143,-21.30047 z"
       style="fill:#ffebf2;fill-opacity:1;stroke-width:0" />
    <path
       sodipodi:nodetypes="ccssssssscc"
       id="path434"
       d="m 784.8833,1405.9423 c 160.60083,-17.0949 301.1852,4.2738 303.6647,9.5399 0,0 127.8948,5.9033 205.7069,5.0467 74.871,-0.8242 297.8934,-13.7089 363.4491,-15.4376 71.3948,-1.8826 195.9343,8.7043 185.8147,36.463 -13.2981,36.4775 -38.0491,41.319 -168.7946,45.9011 -54.1214,1.8968 -123.6063,8.8485 -249.1816,4.7917 -59.0746,-1.9084 -186.281,18.3774 -271.3923,20.4601 -62.0797,1.5191 -150.5641,-11.903 -221.68748,-13.0325 -55.48282,-0.8811 -88.42794,13.5643 -189.4912,13.1512 -113.82528,-58.9222 -111.32083,-84.7063 41.91178,-106.8836 z"
       style="fill:#cccccc;fill-opacity:1;stroke-width:0" />
    <path
       id="path1277"
       d="m 1043.4569,1317.0778 8.8758,-59.9039 17.9894,-55.9768 26.3917,-39.4451 35.0491,-21.4512 32.5214,3.6701 15.2444,51.7917 9.9339,36.0061 77.3697,32.3399 -4.4825,37.251 -63.1847,-37.1516 -3.6462,-18.1231 -15.9886,-0.4302 -7.0117,48.1184 -28.9755,53.6701 c 0,0 -22.0148,37.3299 -25.3098,37.6724 -3.2951,0.3426 -39.6782,6.3774 -39.6782,6.3774 l -27.9377,-35.3662 z"
       style="fill:#ffebf2;fill-opacity:1;stroke-width:0" />
    <path
       id="path1281"
       d="m 1385.8696,510.51137 -0.1326,23.64736 30.5487,0.83423 -0.9578,-33.27649 z"
       style="fill:#ffebf2;fill-opacity:1;stroke-width:0" />
  </g>
  <g
     id="g300"
     inkscape:label="Image"
     inkscape:groupmode="layer">
    <path
       sodipodi:nodetypes="sssccscccscccsssssscccsccsccsscccssccssscccccsssssccccccccccccccccsccccssssssssssccccccsscsscsssccsccsssscccssssssccccscscscccccccccccccsssccsccccccccsssssssssscccsscsccssssccsssssssccsscsssssscccccscccssccssccssccsccccscccccccsccccccccsscccsssccscccscscccssssccccccccssssscscccscsccssssssscssssscccccsscccsccccscscccssccsscccccscccccsccccscccsssssscccscscccscccccccccscccccccccccccccccccccccccccccccccscssssccsssssccccsscscccsccscccsssccsccccssssscccscccccsssccssccccccscsscccccccccccsssssccccccssccccccccccccscccscsccsccscccccsccssssscccssssssssssscsccsccccccccccscccssssssscccsscccccscscsscscccsscsccccsssccscccscsscccccscccccsscscccccccsccccsccccccsccscccccscccscsssssccccccccccccscssssccsssssssccsccscscscssc"
       id="path304"
       d="m 883.0511,1490.5729 c -5.00038,-2.7692 -4.25361,-8.2999 1.48859,-11.0247 1.79441,-0.8515 3.71448,-1.5482 4.26683,-1.5482 0.55234,0 2.88941,-1.575 5.19348,-3.5 8.29492,-8.7234 34.72724,-0.882 35,-11.1797 0,-2.8814 -3.19911,-4.3203 -9.60494,-4.3203 -6.09072,0 -12.6293,-3.3538 -12.20776,-6.2616 13.45296,-12.885 43.04904,3.7448 54.95771,3.7616 18.28623,-3.503 19.50587,-22.7382 45.28989,-14.5248 4.5925,1.7461 2.3624,7.1895 -3.4349,8.3841 -1.375,0.2834 -3.6879,0.7646 -5.1397,1.0693 -6.09381,12.4533 2.2667,15.209 -18.09071,15.8649 -27.26339,-0.8871 -61.26934,24.7211 -89.19103,24.6711 -3.34321,-0.02 -7.18057,-0.6458 -8.52746,-1.3917 z M 721,1484.5 c 0,-0.8622 0.90249,-1.5 2.12244,-1.5 1.77324,0 1.91763,0.2468 0.87756,1.5 -0.68469,0.825 -1.63979,1.5 -2.12244,1.5 C 721.3949,1486 721,1485.325 721,1484.5 Z m 60.5,-3.3417 c -4.30883,-2.6344 -5.77043,-4.7309 -4.99705,-7.1676 19.04064,-6.7691 86.69341,-24.3031 108.51265,-14.122 2.48055,1.3303 3.4844,2.5548 3.4844,4.25 0,2.2459 -0.45482,2.425 -8,3.1498 -27.53774,-1.7378 -75.1503,27.7079 -99,13.8898 z m 264.9459,-1.6005 c -2.1465,-3.276 -1.4973,-6.7298 1.5541,-8.268 14.2711,-4.9363 75.7642,-12.0417 76.8006,-18.3754 0.4552,-3.9164 -2.1605,-5.336 -11.0334,-5.988 -5.1659,-0.3796 -8.2366,-1.0679 -8.7949,-1.9713 -1.3607,-2.2015 0.6294,-3.6293 5.9341,-4.2576 7.0207,-1.4556 40.5172,-19.697 42.896,-9.5001 -10.8478,11.3175 -9.9757,16.591 7.9491,17.863 5.704,0.3641 10.8531,1.1442 11.4425,1.7336 1.7065,1.7065 0.1052,4.206 -2.6947,4.206 -1.41,0 -4.2366,0.7331 -6.2814,1.6291 -38.47,-0.9523 -72.4071,23.808 -113.6822,25.3709 -1.5364,0 -3.1023,-0.9351 -4.0898,-2.4422 z m 134.8041,-0.589 c -2.8084,-1.1288 -2.8955,-4.0746 -0.1928,-6.5206 1.5483,-1.4012 4.2201,-1.9961 10.8012,-2.405 21.624,-17.9541 61.6087,-1.4451 79.6438,-16.911 6.6712,-4.6996 34.614,-10.1396 39.4992,-4.4033 2.486,3.1605 2.5021,4.4277 0.094,7.4014 -31.5698,-11.0944 -89.2025,37.8379 -129.8456,22.8385 z m -478.59501,-7.7975 c -3.66433,-4.0491 -0.2841,-12.6871 4.68747,-11.9787 1.81961,0.2592 2.20596,1.068 2.46666,5.1633 0.4598,7.2231 -3.43089,10.9295 -7.15413,6.8154 z m 709.01171,-4.838 c -0.3667,-0.3666 -0.6667,-1.7063 -0.6667,-2.9769 37.0737,-12.8996 105.2539,-29.4651 153.5805,-30.3564 7.4098,0 11.331,8.0441 5.7165,11.7269 -45.006,-9.3683 -109.7604,34.5998 -158.6303,21.6064 z m 202.3441,-0.8203 c -0.6817,-21.544 62.8233,-25.3774 72.7392,-16.2134 5.3498,5.091 4.5882,5.7004 -7.1243,5.7004 -12.8203,-6.7029 -59.2157,17.4349 -65.6149,10.513 z m 181.9856,-0.5197 c 44.5725,-46.2363 -39.969,-4.4219 -66.1756,-19.7708 -1.9273,-1.9299 0.1313,-4.4306 5.2836,-6.4181 31.2536,1.3314 52.0635,-10.46 89.2449,-0.8617 8.8896,10.7499 -10.907,29.0331 -17.9691,29.0573 -8.2967,0 -9.4267,-0.2184 -10.3838,-2.0067 z m -778.7739,-7.55 c -1.2224,-0.8562 -2.2225,-2.5517 -2.2225,-3.7679 0,-2.9155 4.4366,-9.3618 7.0039,-10.1766 9.8554,5.7373 32.3091,2.374 38.3184,4.8541 5.2855,2.2201 4.8109,5.3235 -1.2842,8.3971 -12.9136,1.104 -28.6746,9.239 -41.8156,0.6933 z m -297.70436,-2.4139 c -0.85991,-1.3914 2.29245,-7.7427 4.20772,-8.4777 0.71381,-0.2739 2.3902,-3e-4 3.7253,0.608 1.8936,0.8628 3.32496,0.7469 6.50839,-0.5268 2.24451,-0.8981 4.98974,-1.6329 6.10052,-1.6329 1.11079,0 3.83623,-0.9268 6.05654,-2.0595 4.95756,-2.5291 8.26925,-2.2425 8.69548,0.7525 0.26115,1.8351 -0.31012,2.3066 -3.5,2.8885 -2.09665,0.3824 -7.22935,2.4028 -11.40601,4.4896 -8.2392,4.1167 -18.99897,6.2056 -20.38794,3.9583 z M 1210,1445.7057 c -1.8109,-0.9162 -2.5,-2.0732 -2.5,-4.1978 5.0533,7.9162 55.298,-20.2728 61.5278,-9.4559 0.8642,1.6147 0.6409,2.7479 -1.0943,5.5555 -11.2685,7.9732 -46.4298,13.7155 -57.9335,8.0982 z m 125.1758,0.2357 c -2.9535,-1.1841 -2.5267,-3.5947 1.1175,-6.313 2.4064,-1.795 4.6703,-2.156 16.3409,-2.606 12.6862,-0.4892 13.6679,-0.6713 15.4421,-2.8653 7.271,-14.792 -13.9684,-10.4216 -22.2844,-21.8338 -33.7048,-46.2538 -25.4928,-84.4422 -18.666,-130.0082 6.8211,-45.5277 23.3263,-78.5371 47.3738,-113.8151 V 1152 c 0,-14.0118 -0.2719,-16.9981 -1.8032,-19.8032 -3.0554,-5.5971 -5.2774,-7.1968 -9.9968,-7.1968 -7.8137,0 -7.9655,-2.6099 -0.6202,-10.6602 14.4961,-15.4253 9.2667,-105.3346 1.9307,-107.5184 -0.014,-4.7591 -1.7771,-6.4019 -8.4808,-7.9021 -5.1954,-1.16267 -5.661,-1.09865 -9.2504,1.272 -22.3877,15.3524 -52.1852,28.4255 -66.523,50.68 -2.1441,3.4477 -2.2815,4.8756 -2.7566,28.6287 -0.4833,24.1667 -0.5667,25 -2.5,25 -1.7953,0 -2.0676,-0.8868 -2.6605,-8.6645 -0.5638,-7.395 -1.277,-9.9263 -4.8675,-17.2756 -2.3138,-4.7361 -5.1542,-9.2745 -6.312,-10.0855 -18.3259,1.1868 -51.8675,25.7531 -65.1639,40.9651 -5.3096,7.5785 -8.8885,18.5947 -6.7989,25.269 1.553,4.9266 1.5418,5.4456 -0.2059,9.5014 -1.0167,2.3595 -2.4432,4.949 -3.1699,5.7544 -1.1376,1.2606 -1.3214,1.1519 -1.3214,-0.7814 0,-2.6086 -2.0049,-3.6495 -5.3919,-2.7994 -2.9336,0.7363 -3.9583,3.0935 -2.5163,5.788 0.843,1.5753 1.8439,1.9381 4.4929,1.6288 3.9529,-0.4615 5.0744,1.3358 3.4688,5.5589 8.9367,15.7264 -4.5546,55.9741 9.6154,68.7826 22.5052,7.1632 33.4531,9.5323 53.8311,14.4228 25.029,10.4752 91.2856,12.6961 91.9514,18.6428 -0.137,9.2437 -55.1127,-14.8479 -64.8246,13.0163 -26.5259,76.1051 -8.7036,13.493 -40.6455,-6.7389 -14.7821,-8.506 -20.9549,11.731 -11.7525,10.9927 31.7334,-2.5459 -0.688,-1.0956 36.3074,18.0297 -0.2937,-12.8668 21.8364,-42.2808 24.9668,-41.3904 9.7033,2.7597 -2.5704,44.6684 -10.7949,54.6624 -10.7501,19.175 -46.0504,68.5 -71.6501,21.3389 -13.776,-30.8196 -17.2417,-51.4126 -11.7952,-83.5076 -3.1084,1.9608 -6.3835,12.2388 -7.1593,22.4677 -16.4854,74.8415 -55.2619,127.3756 -94.0832,129.2156 -62.0642,-18.1709 -52.1409,-108.3367 -36.8684,-158.4076 19.8066,-62.1028 34.7929,-74.7685 75.8419,-110.4718 18.2831,-2.9987 26.1132,11.2406 44.2607,-22.4593 l -0.7479,-4.7253 c -5.9836,-22.7539 3.6602,-59.5127 -8.5544,-80.0726 -1.7148,-2.8126 -2.4494,-3.2446 -4.6,-2.7049 -26.5115,24.2239 -62.0037,36.8537 -87.3436,60.1565 -1.6253,-0.7003 -13.1444,9.9581 -14.5086,10.3957 -2.5499,0 -8.2016,5.8704 -10.8316,11.251 -1.4112,2.8869 -2.9655,7.8037 -3.454,10.926 -0.4886,3.1224 -1.647,6.8349 -2.5742,8.25 -1.5361,2.3443 -2.2872,2.573 -8.451,2.573 -17.3606,2.0152 -28.2501,12.3214 -39.86313,26.3478 -1.32839,1.6203 -3.17642,2.6522 -4.75,2.6522 -3.82121,0 -3.51097,-4.1488 0.53645,-7.1739 9.96161,-11.0011 25.30518,-19.0582 32.89458,-32.5845 2.9011,-5.2917 3.0514,-6.0154 1.9177,-9.2353 -3.218,-15.2676 8.517,-15.6507 6.0977,-31.3835 -0.6056,-3.7824 -0.8778,-7.1005 -0.6048,-7.3735 5.7652,0.2749 8.6397,14.7448 13.1749,9.0007 2.7844,-2.1701 4.5969,10.2808 11.2104,10.75 12.2516,-24.0398 76.7541,-38.5404 89.0555,-61.9459 2.862,-5.7016 -4.8526,-6.97 -0.8947,-7.6611 5.4294,-0.948 7.7124,-2.8504 8.504,-7.0861 0.9211,-4.9287 2.1412,-6.3069 5.5835,-6.3069 3.5683,0 5.6202,-2.06509 6.9467,-6.99138 0.5787,-2.14935 2.2747,-4.86742 3.7764,-6.05253 2.802,-2.21119 2.8437,-2.21227 14.2259,-0.36876 3.5667,0.57768 4.5926,0.0198 14.1719,-7.70623 1.7743,-1.43104 3.2861,-1.90868 4.5,-1.42177 1.6107,0.64604 1.4183,1.04882 -1.6183,3.38695 -9.6305,7.41552 -18.2192,16.76125 -21.5835,23.48602 -3.1031,6.2028 -3.4706,7.7947 -3.4749,15.0521 4.6984,18.5485 0.9277,70.8695 14.1013,78.1655 8.2832,1.38 47.4074,-23.7118 56.8551,-32.1494 2.5016,-2.2548 7.0802,-5.701 10.1746,-7.6584 4.6074,-2.9144 6.1917,-4.6908 8.75,-9.8102 2.7664,-5.5361 3.1251,-7.2342 3.1348,-14.8416 0.024,-18.4543 1.671,-20.2118 10.2111,-10.8942 3.1778,3.4672 6.5608,7.5599 7.5178,9.0951 14.7347,5.2619 44.6612,-30.5644 62.9262,-40.2092 7.1018,-3.69036 8.2555,-4.61944 11.2775,-9.082 3.4556,-5.103 9.1557,-10.95448 12.2567,-12.58242 5.7187,-3.00209 12.7997,-1.01137 12.7997,3.59845 0,1.03024 -1.575,5.32928 -3.5,9.55341 -3.7793,8.29307 -4.3915,13.72283 -2.3251,20.61986 2.4093,29.1242 -1.6443,62.2996 8.695,85.7598 1.9906,1.8701 0.238,2.4128 5.393,2.3605 3.4304,-0.035 7.9796,-0.7936 10.1092,-1.6864 4.6479,-1.9484 7.6279,-2.0855 7.6279,-0.351 0,2.1647 -5.7614,8.3945 -10.5264,11.3822 -9.3353,5.8533 -12.8791,19.0709 -8.4736,31.6053 1.1,3.1297 2,7.6264 2,9.9928 0,4.791 2.198,8.7475 4.8596,8.7475 0.9604,0 5.5474,-1.843 10.1933,-4.0955 24.7664,-12.5545 40.526,-10.4877 53.9987,10.0522 16.5831,25.8686 15.5445,61.5206 17.0888,91.103 1.6771,32.1266 -16.8604,98.2472 -33.6176,116.7867 -13.0531,14.4413 -31.2473,42.7844 -51.4014,46.2223 -7.7672,1.242 -7.6894,9.5603 -0.7481,13.1515 3.3534,1.7348 6.5629,2.2422 17.1267,2.7074 12.1425,0.5346 13,0.7043 13,2.5724 0,1.8631 -0.8559,2.0389 -12.5,2.5677 -13.5567,0.6157 -15.0544,1.1001 -21.8773,7.0752 -2.4076,2.1084 -6.0076,4.2862 -8,4.8397 -4.5244,1.2567 -38.7936,1.223 -41.9469,-0.041 z M 1432.6566,1357 c 23.7901,-55.0991 25.4029,-73.3348 28.6728,-107.9148 4.504,-49.5674 -22.0316,-145.9474 -81.8906,-62.3827 -19.3957,32.3269 -24.8309,43.996 -38.9921,95.1632 -7.7693,28.0719 -19.7026,124.087 30.0087,122.7765 27.9986,-3.9104 52.2844,-33.8703 62.2012,-47.6422 z m -48.9066,-91.2281 c 6.8796,-13.5567 8.0308,-15.2719 10.25,-15.2719 2.3308,0 2.5199,0.3753 2.7938,5.5459 0.2469,4.6608 -0.1358,6.1769 -2.3984,9.5 -28.7003,71.5584 20.6123,67.0734 21.6049,1.068 0,-10.4459 0.4166,-11.6139 4.1422,-11.6139 3.8113,0 7.3598,2.3835 8.8289,5.9303 0.9986,2.4107 0.737,4.229 -1.7551,12.2013 -19.4255,120.308 -75.8685,56.7234 -43.4663,-7.3597 z m -215.4019,-8.8237 c 2.1849,-37.3673 5.1501,-94.5211 -25.5134,-104.1636 -51.0365,-16.0491 -82.0094,76.6214 -85.1104,113.0991 -2.9178,33.7399 -9.1011,84.406 16.4001,111.3419 44.5951,35.8536 91.2511,-69.4364 94.2237,-120.2774 z M 1098,1253.6871 c 0,-7.3396 1.5388,-10.2857 4.8273,-9.2419 9.3874,9.1272 -1.7327,35.7167 3.01,46.9055 2.3158,5.915 40.3868,-66.4718 3.2871,-61.2839 -3.5133,-1.8802 -3.3162,-9.0724 0.4043,-14.7505 2.4023,-3.6663 5.4068,-2.6513 9.1614,3.0952 v 0 c 2.0377,3.1188 4.9181,5.8561 7.8923,7.5 v 0 c 4.1367,2.2865 4.96,3.3328 7.0506,8.9605 v 0 c 1.6007,4.3087 2.3671,8.4942 2.3671,12.9269 v 0 c 0,0 -4.7404,22.9649 -7.0178,27.9532 -5.0642,11.7745 -15.655,41.1361 -28.2322,34.2183 -13.2688,-14.2521 -3.1363,-41.1597 -2.7501,-56.2833 z m 491.4315,182.8542 c -4.4429,-2.0255 -6.0012,-4.1499 -4.4315,-6.0413 7.0677,-0.2293 34.1581,-5.6003 41.0173,-3.613 4.8436,1.4512 6.7006,3.5431 4.9827,5.613 -5.7164,0.8402 -37.3394,5.8697 -41.5685,4.0413 z m -807.77651,-4.37 c -2.19816,-2.429 -2.14328,-8.4332 0.095,-10.3957 0.9625,-0.8439 3.325,-2.3762 5.25,-3.405 -8.45201,16.0637 157.9585,-16.0173 156.81119,-7.6287 -26.76579,1.8849 -138.97705,40.9588 -162.1562,21.4294 z M 0,1417 c 0,-8.971 0.00819013,-9 2.5398381,-9 1.3969109,0 4.3039838,-0.9 6.4601619,-2 31.720598,0.1179 50.357977,-9.8275 90.418213,-1.393 4.214107,1.6171 -0.176388,7.8818 -6.333309,9.0369 -1.960579,0.3678 -5.369237,1.4885 -7.574796,2.4904 -25.283568,4.798 -50.573648,9.825 -72.960448,9.8657 H 0 Z m 403.67268,-3.8092 c -1.08348,-1.1972 -1.69081,-3.1217 -1.49764,-4.7457 0.27842,-2.3405 1.6855,-3.4283 9.82496,-7.5959 107.56222,43.1676 237.41587,-57.5115 319.41957,5.2662 -74.90729,-24.9721 -261.96026,64.2062 -327.74689,7.0754 z m 1308.63562,11.6147 c -3.7579,-1.816 -3.5421,-3.6456 0.6846,-5.8019 6.8454,-3.4922 17.0071,-2.2937 17.0071,2.0059 0,4.0849 -11.8377,6.6249 -17.6917,3.796 z m -1529.35637,-2.7701 c -17.41138,-6.1177 -47.35719,-3.4627 -62.4122,-14.9939 -2.54184,-2.1214 -3.63394,-5.6631 -2.5916,-8.4047 17.05195,-15.2382 48.20468,-2.8562 58.67392,16.6294 2.24,4.3721 2.93704,4.7012 9.99309,4.7189 25.69167,-17.9821 123.9452,-47.1625 152.13486,-21.7339 4.39852,4.1014 2.37841,7.9432 -6.75,12.837 -49.79714,-8.0813 -105.91232,10.5207 -149.04807,10.9472 z M 1472.5,1421 c 0.3399,-0.55 2.5899,-1 5,-1 2.4101,0 4.6601,0.45 5,1 0.384,0.6213 -1.5093,1 -5,1 -3.4907,0 -5.384,-0.3787 -5,-1 z m -716.34912,-42.3182 c 29.44121,-34.3067 48.76655,-46.5847 66.34847,-29.8933 29.60356,28.1041 41.83883,7.6719 65.12584,10.1779 -31.5616,14.7638 -62.71409,14.6755 -72.33135,0.483 -19.79712,-28.4033 -17.41095,-2.881 -59.14296,19.2324 z m 728.05972,-107.0172 c 17.8248,47.2718 44.1726,4.1835 44.0826,38.5738 -0.3063,9.6086 6.0423,13.5612 10.2534,21.386 3.2796,6.0939 9.5923,11.9124 17.3255,5.9478 17.9844,-14.7544 16.9107,-47.7786 30.4292,-48.2739 26.4663,1.2878 -18.7314,90.5815 -42.4606,89.8577 -60.687,-1.8511 -71.2756,-138.3757 -59.6301,-107.4914 z M 95.454545,1373.5455 c -4.019446,-4.0195 -3.406927,-8.9994 1.753663,-14.2576 3.484102,-3.5501 4.857762,-4.2879 7.983152,-4.2879 3.52208,0 3.94354,0.3327 6.29179,4.9668 2.74355,5.4141 3.22484,9.4757 1.26685,10.691 -1.09204,0.6778 -13.758943,5.3262 -14.545455,5.3378 -0.1625,0 -1.4,-1.1001 -2.75,-2.4501 z M 0,1355 c 0,-4.327 1.3422906,-4.9898 3.4234423,-1.6905 0.755104,1.1971 0.755104,2.1839 0,3.381 C 1.3422906,1359.9898 0,1359.327 0,1355 Z m 51.556704,-2.2225 c 2.701371,-26.5649 29.460136,-1.5002 28.428554,-30.5673 8.673044,-67.5231 77.768892,-57.6755 95.265172,-42.3313 -21.70649,-73.7436 128.93164,-109.155 153.74957,-99.2171 -60.83544,-3.7958 -185.57223,51.7684 -143.95066,113.0474 -30.8645,-38.2183 -104.519655,-22.5865 -98.425769,31.3427 2.369946,20.9734 15.653129,26.8179 7.357513,27.7663 -6.554516,0.7494 -40.403419,2.5939 -42.42438,-0.041 z m 943.807846,-2.9469 c -11.72648,-12.2303 -3.10275,-100.0828 18.78875,-104.6377 1.8544,-0.2146 3.1341,0.3793 4.25,1.9725 2.3008,3.2849 1.9701,6.9476 -0.9834,10.8903 -30.96738,9.5922 -9.6867,85.9625 -16.9646,91.6006 -2.1198,1.5501 -2.24097,1.5542 -5.09075,0.1743 z m -218.97276,-27.3517 c 1.18252,-1.6172 1.6336,-1.7027 3,-0.5687 9.31185,15.1194 -11.54377,13.1261 -3,0.5687 z m 756.22191,-5.5026 c -0.3324,-0.8663 -0.093,-3.281 0.5314,-5.366 3.1655,-16.9716 17.395,-23.6742 5.5906,-31.5731 -38.524,-23.0927 -53.0945,-2.3239 -67.3102,-13.4389 -4.4319,-3.6634 -6.7239,-4.179 -0.7868,-6.6597 4.6609,-1.9474 40.3927,-1.2966 47.1016,1.0614 7.8677,2.7653 12.725,2.6256 15.8052,-0.4545 5.2262,-9.3981 -18.707,-41.7944 -27.1627,-54.5634 -9.5897,-14.4496 -11.3828,-18.8024 -11.3828,-27.6328 0,-3.8358 -0.8012,-8.6787 -2,-12.0896 -1.1,-3.1297 -2,-6.7297 -2,-8 -5.9224,-45.5246 -20.5491,-78.0298 -6,-120.5194 1.7758,-5.0525 2,-8.2538 2,-28.5588 39.5334,-172.32171 53.2882,-156.10982 56.5549,-204.23971 -1.4581,-5.99939 -1.466,-7.18544 -0.083,-12.49528 0.428,-15.75976 8.0936,-50.46557 -13.5092,-44.15383 -4.7424,1.38558 13.3392,-10.84286 13.0369,-23.03428 -1.7554,-14.63591 -10.2464,-13.82232 -13.6892,-14.74306 -28.0808,3.16128 -39.4224,12.12571 -55.9973,20.32495 -7.1256,3.63518 -9.0264,6.87371 -9.8521,16.78518 -0.7663,11.03931 -0.5453,24.92116 4.1589,32.66027 62.8957,-33.08871 18.8055,-7.3298 -0.2869,20.39173 l -5.3728,9.26498 -2.0809,41.83249 c -0.3627,21.89798 2.3327,44.96119 5.8704,66.93522 -13.0932,6.37657 3.1793,107.52314 5.0148,114.28984 -8.3912,9.0536 -2.8377,-0.1046 -7.7549,-1.6147 l -3.6475,-10.739 -1.3624,-16.2543 c -7.4922,-47.56678 3.5494,-52.4389 -6.9082,-63.79416 -1.3245,-1.40974 -3.237,-2.82622 -4.25,-3.14774 -2.7493,-0.87261 -2.2423,-3.26405 1.5917,-7.50782 1.8884,-2.09023 3.9108,-5.51977 4.4944,-7.6212 1.4357,-5.17046 1.4523,-101.41151 0.018,-106.57504 -0.8003,-2.88187 -1.9531,-4.21876 -4.9609,-5.75326 -6.3183,-3.22336 -6.9306,-6.13272 -2.3311,-11.0779 3.4291,-3.68692 7.2054,-14.86803 8.3127,-24.6131 2.5878,-11.36572 0.3622,-29.78644 -9.436,-30.30148 -76.7918,18.58583 -94.5037,39.0274 -134.2985,60.49462 -33.8506,18.50586 -31.9061,34.26003 -115.5015,66.15285 -45.272,17.27192 -43.4737,12.4449 -44.9773,10.28952 -4.4588,-5.10351 15.36,-13.56132 42.2595,-22.57243 38.7143,-12.96898 48.5357,-26.75647 64.1035,-38.02505 -17.6321,-16.0946 -55.1261,-25.49826 -82.6644,-26.15158 -10.0657,1.90265 -12.7621,6.25306 -16.9149,15.21947 -4.6985,10.14469 12.788,8.98579 14.6364,12.08604 2.0453,3.64941 -9.5849,0.92068 -29.5193,1.85791 -16.6006,-0.82316 -16.7498,-1.0088 -18.7454,8.9355 -0.5801,9.71427 20.5869,46.89359 13.5621,53.79271 -5.8536,5.62843 -8.0464,-8.50611 -23.334,-44.25456 -11.5724,-17.54573 6.6725,-60.82147 8.4769,-66.69927 12.7714,-32.30119 25.7977,-50.52497 38.2808,-69.61091 14.3074,-18.71604 21.408,-24.16918 36.9479,-41.72949 -75.6233,-70.01926 -87.4428,-101.72066 -77.9674,-153.66984 18.5156,-69.93901 67.3607,-79.86175 69.7137,-114.30905 1.1048,-19.54644 -20.9898,-37.2592 -21.2751,-47.2815 -1.2792,-44.94562 51.8457,-6.12738 64.8837,-1.42568 69.3201,41.39713 48.9268,32.84195 41.3437,40.89226 -24.5673,-5.9609 -55.0116,-34.37418 -59.2761,-15.52025 0.9472,17.30626 5.1253,36.06947 -14.6521,48.01533 -17.4747,16.77049 -22.8774,15.67732 -37.3837,34.51552 12.6393,1.92218 37.5809,9.84203 46.5369,12.47947 -20.7652,8.09423 -44.9907,8.87434 -57.3613,9.01108 -2.3665,1.47067 -3.6301,3.7552 -3.666,7.02423 14.5899,0.95686 29.459,4.11035 54.8759,8.37578 -15.5838,9.24931 -54.2775,14.65857 -65.5491,15.38967 -2.3918,2.33051 -2.896,6.39793 -1.9159,9.2322 23.247,-0.30576 32.0017,-3.4255 57.3011,1.19119 -23.7399,16.71671 -52.284,18.72382 -61.4256,24.75646 0.1735,16.29946 4.4988,25.20882 10.2987,38.4293 21.5471,-1.12195 25.7309,0.62184 57.6842,-6.51172 -23.4267,20.81991 -31.9249,18.70308 -43.9335,22.92917 0.3777,3.71141 2.6828,7.09153 6.0591,8.04803 13.1368,-0.68601 38.0779,-8.8587 46.5812,-10.48504 -6.3713,13.1847 -22.6231,14.12617 -32.6567,23.20352 1.5555,4.38625 3.0807,6.1336 7.0973,6.98946 19.8912,-2.26002 27.4657,-3.16098 39.5497,-9.92216 -3.9128,20.36772 -17.9046,22.28141 -25.0698,27.16921 6.7947,8.62375 9.1272,10.75096 17.6901,16.8619 4.3803,10.806 -4.9732,6.72163 -9.0681,9.97375 -12.2896,13.86964 -14.7948,13.27447 -36.584,41.05532 8.828,6.90638 8.378,6.77726 18.5157,8.4326 -8.5729,5.78871 -13.9409,8.14242 -23.4388,6.82605 4.7762,5.78397 7.291,6.19812 15.3583,6.19161 -7.6825,7.26712 -12.6652,6.32611 -22.1106,7.32583 8.2985,3.01653 8.5558,6.09857 17.2903,6.45545 -7.9584,7.9365 -20.0299,7.76124 -28.9601,5.98006 -5.1807,10.21758 -7.9478,14.86866 -12.3476,25.61597 -3.7629,9.91201 -3.3789,10.65817 4.9514,9.84021 19.8825,-2.64816 43.3364,2.73236 53.9401,-2.63766 11.3827,-5.76455 8.236,-30.06582 27.0811,-54.98133 -8.3056,21.1772 -8.7184,18.96554 -11.7261,37.78021 -2.5702,16.0775 -2.0918,17.39278 3.9807,19.46457 8.1242,2.77174 13.0701,2.17408 16.5405,-4.62028 5.4858,-10.7405 12.9603,-24.79674 7.0271,-0.71767 -2.6849,10.89636 -3.4062,11.08023 3.9609,13.63484 1.4235,0.49112 3.4718,1.16118 13.0857,2.48365 -0.5818,-21.87295 11.0377,-35.45322 19.3325,-47.1641 4.7676,-6.731 8.5114,-12.97486 -1.7181,-13.53956 -6.5519,-0.36168 -12.1357,0.68627 -17.3561,8.20496 -5.8887,8.48117 -11.6027,18.71404 -12.7948,18.23201 -1.4036,-0.56753 -1.8565,-2.5686 2.996,-9.25141 10.5528,-14.53325 15.9529,-37.96155 37.5139,-40.91809 11.2761,-0.37791 22.7794,13.42209 33.0742,11.14338 10.31,-1.1903 15.0588,-26.84421 23.1278,-34.35446 8.9672,-8.72636 21.713,-3.86044 30.431,-12.119 8.6589,-8.31466 7.3323,-10.80701 17.1351,-15.56523 9.0645,-4.39985 18.7999,-0.57251 27.0499,4.9536 7.4813,5.01123 12.8275,6.39681 17.3431,0.58016 6.9345,-13.77142 -13.1183,-18.70718 -3.5373,-32.36365 14.7847,-21.07362 71.6135,-64.50915 82.9073,-96.81993 10.0255,-26.35372 -15.8929,-100.56232 -60.336,-131.18031 -52.4644,-40.14716 -127.7741,-37.51549 -167.6647,-20.8124 -7.9383,3.63699 -7.9215,3.80312 -11.1282,-0.41018 -2.568,-3.37408 -2.7484,-3.52983 8.4992,-10.38042 63.9423,-16.50059 84.7072,-11.08176 115.4734,-6.29682 8.6625,1.41888 12.2737,-3.33882 17.2951,-11.3529 1.6997,-2.71271 3.7795,-14.62196 6.0315,-17.19089 14.861,-12.51481 71.1993,-34.60641 79.3477,-26.88369 8.8567,15.43086 -38.1273,88.79625 -6.2771,111.31046 11.0772,-3.15116 31.9201,-20.09074 41.4468,-29.8614 9.3229,-9.56179 1.4097,-18.70563 4.6251,-18.79648 2.8526,-0.0806 5.309,9.54362 1.3823,18.96569 -9.7976,23.50885 -41.3954,34.36872 -38.538,46.26645 7.6166,23.85068 18.4328,37.10665 22.8391,63.35807 2.0082,11.61655 26.9136,1.13856 34.5257,-4.56219 5.6036,-4.19657 5.8209,-4.7219 9.3058,-2.11723 2.3633,4.09981 2.3343,3.55114 -1.6964,6.91049 -10.9726,11.75385 -26.3457,18.25247 -40.7922,19.71659 -1.3023,4.71537 -0.5015,6.02856 -0.1009,9.30533 2.9594,2.91187 29.0886,3.50192 40.7521,2.75412 6.2646,-0.40165 6.8235,-0.9125 8.124,3.46683 1.5794,5.31847 1.7217,6.95678 -4.7385,7.76253 -4.942,0.61637 -47.5629,-5.40962 -49.9316,0.22781 -12.7524,30.35022 -52.8356,61.06253 -70.5142,80.11603 -16.8459,18.15593 22.8099,29.25099 34.0427,25.7513 14.9724,-3.18243 30.1359,-3.11308 38.0598,11.28453 4.6295,13.12506 -0.5406,20.92345 6.6062,24.83446 4.5565,2.35627 9.1549,1.84405 22.2797,-2.48181 6.6749,-2.2 13.1586,-4 14.4083,-4 84.546,-5.20981 131.4323,-29.83339 191.3217,0.98713 49.5333,42.97988 54.8509,109.94016 55.0255,171.94763 3.9415,74.25576 -32.6465,145.61414 -41.5223,206.26624 -23.5383,64.2383 -65.913,138.2639 -110.9965,176.799 -3.6809,3.025 -10.8267,9.3865 -15.8794,14.1368 -7.392,6.9493 -11.23,9.6589 -19.6443,13.8683 -5.7516,2.8773 -12.4825,6.6979 -14.9575,8.49 -8.5616,6.1994 -15.1814,18.7388 -24.4283,19.2933 -16.8555,1.5504 -15.9736,12.8673 -23.5977,30.3144 1.3768,9.557 -17.0799,-5.9238 -20.2715,-7.5514 -3.0888,-1.5751 -2.7564,-0.7088 -3.0888,-1.5751 z M 1631,1240.5071 c 4.675,-4.5273 10.525,-9.3962 13,-10.8198 56.5987,-42.5793 73.6249,-103.713 101.4548,-161.6483 22.3805,-53.0724 38.6417,-118.776 39.5452,-171.42899 5.1817,-26.99739 0.3722,-49.67667 0.029,-68.61001 -0.6145,-43.48171 -10.2729,-102.93186 -44.7013,-127.5858 C 1724.5585,689.92162 1724.8421,690 1702.6532,690 h -19.3567 l -6.8326,4.48772 c -3.758,2.46824 -8.8872,5.19863 -11.3983,6.06753 -8.7889,3.04118 -13.2684,5.83031 -16.6828,10.38748 -29.2149,10.11656 -37.6204,50.87725 -60.4978,66.03303 -26.3015,32.94095 -57.3899,88.34624 -62.3726,123.02424 -0.5042,4.63219 -1.5595,7.84625 -3.6724,11.18497 -16.1059,26.05284 -13.7813,52.62539 -24.2384,75.31503 l -0.6071,38.5 c -14.4571,48.0425 6.0007,98.2274 8.0376,136.5 13.7771,43.7531 40.3735,101.0933 82.117,101.4211 14.8834,0.058 33.028,-12.0093 43.8509,-22.414 z m -49.2116,-0.5021 c -63.4994,-11.6555 -66.9415,-76.4316 -67.3071,-116.8751 4.3509,-96.8365 29.2109,-193.80172 63.8809,-269.7853 15.7768,-34.57674 79.5299,-119.43831 106.1673,-134.24608 5.3155,-2.9549 25.4566,-8.38919 33.4715,-2.27926 7.0048,5.33992 -22.051,-0.28959 -33.2915,9.05911 -36.6617,30.49151 -89.3986,107.91213 -98.6871,134.62163 -20.0076,57.53268 -135.1405,327.8475 -0.9021,368.994 46.8995,-14.1822 91.009,-73.5302 106.42,-120.0466 10.9618,-26.4972 29.8941,-53.0342 31.3128,-77.0936 0.5198,-8.9528 1.022,-11.5603 2.5521,-13.25 17.0033,-41.96636 36.9609,-107.68989 9.0393,11.0207 -5.9527,71.4075 -56.5867,117.8801 -92.7565,172.8757 -4.7289,7.385 -23.4995,25.6047 -32.2519,31.3053 -9.7689,6.3628 -14.6443,7.3679 -27.6475,5.6997 z M 1616.9028,985.5 c 10.3406,-22.86554 17.7643,-98.51363 46.363,-98.47804 47.1152,4.28933 27.6937,58.89806 24.2722,86.03391 -11.5295,31.27403 -18.0147,59.65353 -35.369,83.64203 -40.6275,33.4079 -41.0809,-43.5044 -35.2662,-71.1979 z m 58.7084,-9.18959 c 7.2594,-13.89226 23.5228,-74.58243 -8.3578,-75.31041 -25.6577,2.48655 -35.7723,58.37585 -41.781,80.26834 -7.896,148.68886 39.0502,38.13076 50.1388,-4.95793 z m 51.2102,44.99979 c 23.9175,-61.8083 29.1667,-129.23712 34.2082,-185.36559 6.2349,-5.48371 -8.4154,-78.13817 -6.9233,-75.3032 5.6635,10.76015 8.3938,4.04988 13.9672,88.28324 10.9239,16.81317 -48.0533,219.25985 -41.2521,172.38555 z m 21.0248,-266.03587 c -30.6814,-43.90549 -42.2292,-36.08654 -34.1012,-38.46155 14.6645,-4.28502 68.7738,89.91447 34.1012,38.46155 z m -470.2697,52.03559 c 12.3938,-6.22614 18.683,-6.44906 23.4269,-13.56413 5.7751,-8.6617 12.9138,-31.59291 1.6558,-44.66045 -3.3342,-3.96245 -12.7226,-4.74185 -16.894,-5.06542 -5.6543,-0.43858 -8.4995,7.85987 -12.7575,15.11271 -16.1352,28.10522 -18.7855,40.68254 -9.8526,44.7907 11.0095,4.34962 10.1934,5.51059 14.4214,3.38659 z m 295.0095,-30.89731 c 46.0507,-72.65603 66.3602,-77.29294 79.5306,-92.95148 -22.5743,0.8839 -59.9115,7.09949 -96.6897,25.00647 -6.9401,2.72165 -6.9975,18.77758 16.3656,11.92105 -23.2165,15.31427 -12.6841,41.48681 -12.2925,59.78982 l 2.8096,2.41406 c 3.7754,3.24394 5.63,2.12868 10.2764,-6.17992 z m -218.5357,-8.77476 c 28.7635,-15.26497 53.4601,-25.16025 53.5413,-33.69103 0,-4.16882 -7.2773,-8.95626 -10.1888,-8.95626 -2.968,0 -23.6903,6.14439 -26.0688,11.82841 -5.9373,14.18858 -8.8945,33.47334 -16.356,34.44269 -10.9478,1.42224 25.8178,-41.15357 -16.2405,-40.00218 -11.5139,0.31521 -9.9065,7.22455 -15.4537,19.44694 -2.523,8.36409 -6.1709,31.84912 -3.3106,35.93811 15.0732,-0.50323 24.909,-12.34019 34.0771,-19.00668 z m 79.1992,-38.55208 c 1.8255,-1.60282 5.1037,-3.23796 7.2848,-3.63364 5.0812,-0.92178 9.0547,-2.9387 9.8445,-4.99693 1.8222,-4.74846 -0.9547,-8.4552 -6.3342,-8.4552 -2.9649,0 -4.7036,0.94322 -9.3145,5.05281 -7.2917,6.499 -10.0491,10.3666 -9.2303,12.9465 0.8991,2.83277 3.8836,2.48095 7.7497,-0.91354 z m -58.2054,-2.86958 c 27.7605,-8.64679 -9.3814,-53.58072 -29.0541,-28.77321 -15.7981,19.9215 7.5568,35.46917 29.0541,28.77321 z m 113.135,-30.48864 c -18.9703,-10.7003 2.763,-9.20627 -39.6595,-16.2558 -2.6852,-0.006 -29.9909,-4.29196 -34.3929,0.11005 -2.9891,2.98913 -0.8798,17.11666 5.6947,18.2284 14.4137,1.11144 37.7633,-0.19278 48.2381,6.57532 7.0686,4.94558 27.0462,-4.75098 20.1196,-8.65797 z m -99.7641,-21.36663 c -20.4763,6.97394 -2.3076,33.59189 8.933,30.24771 16.4959,-3.69299 10.8473,-37.31006 -8.933,-30.24771 z m 121.3776,-5.18253 c -9.2856,-15.59545 -33.7902,-3.06307 -27.6355,11.14336 11.1614,22.74718 35.9756,4.25557 27.6355,-11.14336 z M 682.66486,1302.3144 c 13.62226,-44.6948 118.57278,-12.0157 92.25882,7.7328 -9.29527,-22.6647 -60.93087,-31.8962 -92.25882,-7.7328 z m 286.434,15.0842 c -4.26982,-6.4135 0.66648,-41.8764 3.90114,-41.8986 6.06017,5.5397 8.26899,36.3033 4.65757,41.8999 -2.22674,3.3984 -5.88491,3.3978 -8.55871,0 z m -312.52743,-12.97 c -1.81531,-1.8153 -2.16005,-10.4602 -0.53799,-13.4911 1.19486,-2.2326 7.96763,-5.9375 10.85414,-5.9375 2.697,0 6.11242,4.6253 6.11242,8.2777 0,2.2645 -1.20061,4.2086 -4.85714,7.8652 -5.18087,5.1808 -8.6821,6.175 -11.57143,3.2857 z M 457,1240.9881 c -6.73725,-3.7025 4.29437,-8.0432 3.74932,-12.8788 -27.19289,-91.0592 72.16966,-110.2525 113.8656,-94.2173 -66.86459,-4.937 -124.26704,2.9905 -104.40416,98.7957 -0.66121,5.2423 -0.9896,5.7952 -4.71076,7.9304 -4.80725,2.7584 -4.2021,2.732 -8.5,0.37 z m 187.51534,-56.7382 c 3.17522,1.6414 6.8898,8.4079 6.2992,11.4746 -56.48241,-37.8188 -77.60061,34.0064 -88.31454,39.2757 4.53255,-62.9736 54.97262,-61.4163 82.01534,-50.7503 z m -293.44276,35.1152 c -4.41991,-26.6809 66.8271,-48.4741 75.061,-20.1886 -46.27631,-27.7843 -70.59506,31.8103 -75.061,20.1886 z m 614.16198,-8.5678 c -63.76999,-11.8501 -75.83072,-28.7169 -127.94593,-103.4968 -20.15813,-28.9249 -17.06017,-61.4945 23.52106,-102.3305 5.71158,-5.74744 50.7107,-38.59269 54.69319,-34.11945 4.43501,4.9815 -40.39937,37.01885 -45.81868,42.81455 -46.86776,40.1726 -37.71217,73.0956 -14.15267,103.0951 50.60277,64.435 52.01267,73.179 88.32767,57.2178 9.2144,-4.1811 11.50844,-3.4983 12.49501,5.8864 2.02898,12.8055 4.29466,14.3347 10.07861,18.2148 23.76058,9.3093 106.49428,17.1669 98.37328,20.3905 -13.8865,5.5123 -88.59828,-5.6333 -99.57154,-7.6724 z m 323.52254,-3.5473 c -7.2937,-9.9594 -4.905,-27.2836 -15.6349,-20.6668 -4.5407,2.8928 -11.5643,11.3699 -16.2498,11.3912 -9.3435,0.043 -10.5006,-4.6581 -2.326,-9.4487 7.7361,-5.4631 18.949,-10.3431 26.0368,-20.6798 l -2.6945,-15.3459 -2.9443,-5.7646 c -4.6882,-9.1787 -3.7624,-18.6173 1.7224,-17.5611 2.5355,0.4883 5.8715,5.9078 8.3893,13.6288 1.4183,4.3494 3.4398,8.0114 5.7668,10.4469 16.865,11.1512 33.4886,-24.6678 51.6647,-26.25 2.726,0 4.7654,2.1771 3.9732,4.2415 -0.3155,0.8223 -5.139,4.3668 -10.7189,7.8768 -66.0959,44.7039 -40.3001,38.7345 -42.598,71.8817 -0.4059,0 -2.3799,-1.6875 -4.3868,-3.75 z m -250.141,-45.7768 c -2.2985,-2.2984 -2.1298,-6.4732 0.2615,-6.4732 2.5134,0 4.3507,2.3804 3.9492,5.1166 -0.4188,2.8538 -2.1544,3.413 -4.2107,1.3566 z m -114.94843,-58.5559 c -9.17713,-0.2794 -13.32724,6.5381 -23.69169,5.9043 -14.21705,-0.9929 -1.93128,-0.9332 6.37975,-9.0292 18.70496,-10.8583 8.82711,-22.2563 11.07227,-35.0147 10.12915,4.3924 4.22986,20.6392 24.17539,7.6093 8.85873,-3.9187 9.35413,-4.0061 0.56341,6.0248 -8.50657,9.7067 -8.1253,15.9382 -9.99778,21.7833 3.48698,24.4036 15.84181,44.3023 21.13052,57.5198 -14.7679,-13.6633 -20.46018,-45.7012 -29.63187,-54.7976 z m 505.02623,-26.5568 c -0.9333,-0.9332 0.1945,-2.3605 1.8651,-2.3605 0.7926,0 1.441,0.675 1.441,1.5 0,1.5062 -2.111,2.0557 -3.3061,0.8605 z m -414.516,-73.2812 c -0.4736,-29.7482 -5.1154,-59.4743 -9.6891,-65.02 -8.45605,-10.25309 -51.2168,6.77053 -92.53628,41.42161 -9.07421,13.1352 8.27713,68.67289 0.3803,69.84469 -10.09758,-23.3354 -8.32648,-40.866 -14.62237,-56.96771 -5.80114,-4.61764 -3.65003,-4.88984 -2.30957,-12.68147 C 996.63477,909.03478 1040.2718,896.05395 1133.5712,875 c 5.7787,-1.50458 86.8704,-27.51522 41.2271,-4.17829 18.4748,1.59765 -20.0901,13.99392 -27.5542,15.60708 -51.6633,20.12949 -136.4257,17.00246 -131.4506,60.14087 1.2367,10.72382 4.5598,53.90924 12.0244,55.92084 6.1276,1.5379 5.8978,1.4911 1.5308,11.1223 -4.6825,7.405 1.5587,28.0687 -2.5958,29.2018 -4.5594,-35.5298 -7.2702,-30.6598 -12.575,-39.7353 z m 249.4888,-11.74597 C 1263.3,990.96667 1263,987.35221 1263,983.30121 c -1.8187,-8.11197 -3.7125,-36.66655 -5.9646,-39.75857 -8.2821,-6.62144 -13.5336,-5.24615 -2.136,-17.84278 8.5438,-8.60506 1.5283,-25.9494 7.4276,-67.81726 1.8639,1.86383 2.2246,3.68387 2.7515,13.88124 3.6912,15.26042 2.5214,31.04541 5.7453,45.0546 1.8355,7.71303 10.3508,-5.70661 39.2322,-22.59785 10.5151,-6.14971 -22.4616,21.42889 -31.056,27.88921 -26.3397,10.40594 1.8643,64.64205 -13.4312,69.8902 -0.6795,0 -1.5355,-0.3 -1.9021,-0.66667 z M 1212.75,969.9199 c -0.9625,-0.5606 -1.75,-1.63739 -1.75,-2.39286 0,-2.29652 5.0074,-7.49018 9.3649,-9.71318 30.588,-25.20628 0.1358,16.27608 -7.6149,12.10604 z m 179.7947,-1.77902 c -0.5235,-7.68756 23.3242,-22.15385 31.2613,-25.22309 3.8359,-1.33721 6.4713,0.17548 5.9923,3.43953 -2.078,2.79562 -32.7419,23.6397 -33.1855,23.64268 -2.5119,0 -3.6419,-0.51641 -4.0681,-1.85912 z m -234.0514,-1.55666 c -2.1744,-2.17444 -2.4933,-3.373 -2.4933,-9.37178 0,-6.91779 -3.4521,-19.91418 -7.5532,-28.43595 -2.1202,-4.40547 -1.7078,-5.67067 4.5942,-14.09766 5.2251,-6.98679 7.899,-7.39383 11.0286,-1.67883 1.5746,2.87526 2.6135,36.79743 1.4575,47.59126 -0.859,8.02157 -3.0977,9.92901 -7.0338,5.99296 z m 201.8841,-6.67838 c -0.715,-23.8411 -1.3209,-39.53838 -1.3839,-47.40584 -0.2164,-27.04022 -0.5247,-38.0137 -2.0544,-40.82242 -2.7209,-3.54468 -14.4379,4.58636 -16.5428,-0.0873 15.3074,-17.48304 20.4393,-19.49106 18.7406,-42.10679 0.4439,-7.61063 -1.4105,-28.79182 4.7076,-27.03283 8.449,8.91758 -2.2788,32.99487 5.0619,39.35635 12.8589,7.75172 36.4149,-23.72834 57.0188,-27.39709 -12.9704,17.17099 -44.2535,28.84277 -55.6346,47.04358 -7.4684,34.28794 -6.1004,70.5703 -9.9132,98.45236 z M 1311.2225,601.4433 c -2.798,-1.95982 -2.6429,-5.24323 -0.1071,-8.86287 10.7583,-10.6026 14.5718,18.76441 0.1071,8.86287 z m -25.9394,-22.81582 c 5.8788,-3.73026 11.4371,-0.68758 13.638,3.4555 5.1916,12.88644 -22.577,9.76482 -13.638,-3.4555 z m 109.8306,4.90816 c -6.3196,-0.10201 -7.0002,-0.23195 -7.3625,-14.36449 -3.2076,-22.16723 -38.0684,-24.58881 -34.9197,-53.19008 2.9557,-23.7138 28.794,-30.79228 32.172,-42.53849 1.6074,-5.5897 6.824,-9.66997 11.3157,-9.42172 7.6975,0.42542 -3.5406,-18.42606 3.3072,-19.14939 5.6513,-0.59693 5.3043,7.69387 17.4966,16.75622 25.8101,19.18411 30.6775,31.99573 28.5437,58.38286 -1.7269,21.35582 -39.9965,22.79503 -41.5105,52.07034 -0.577,11.15613 -1.3613,11.57873 -9.0425,11.45475 z m 9.1684,-53.89762 c 6.6414,-2.811 9.3791,-9.5249 6.3067,-15.46631 -4.6509,-8.99389 -17.3683,-7.42997 -20.6588,2.54052 -3.3105,10.03093 4.523,17.08599 14.3521,12.92579 z m -85.5906,48.20922 c -1.9122,-1.07015 -2.1941,-4.03952 -0.6563,-6.91298 6.7334,-6.99603 10.1709,10.92391 0.6563,6.91298 z m -27.7499,-91.73674 c -9.9325,-4.84787 -9.2358,-16.03136 4.9942,-16.49874 27.8117,-3.6672 2.3954,-13.70346 13.089,-20.61176 5.5624,2.49559 9.7215,7.62325 14.3817,12.28645 5.5498,5.55344 8.3995,6.89096 7.5096,14.37437 -1.4751,12.4038 -27.9035,16.34135 -39.9745,10.44968 z"
       style="fill:#000000" />
    <circle
       r="0"
       cy="513.80231"
       cx="1123.1284"
       style="fill:#ffffff;stroke:#000000"
       id="path430" />
  </g>
</svg>
