<?xml version="1.0" encoding="UTF-8" standalone="no"?>
<svg
   xmlns:dc="http://purl.org/dc/elements/1.1/"
   xmlns:cc="http://creativecommons.org/ns#"
   xmlns:rdf="http://www.w3.org/1999/02/22-rdf-syntax-ns#"
   xmlns:svg="http://www.w3.org/2000/svg"
   xmlns="http://www.w3.org/2000/svg"
   xmlns:sodipodi="http://sodipodi.sourceforge.net/DTD/sodipodi-0.dtd"
   xmlns:inkscape="http://www.inkscape.org/namespaces/inkscape"
   inkscape:version="1.0 (4035a4fb49, 2020-05-01)"
   sodipodi:docname="hamhalmatandpappy.svg"
   id="svg8"
   version="1.1"
   viewBox="0 0 210 297"
   height="297mm"
   width="210mm">
  <defs
     id="defs2" />
  <sodipodi:namedview
     inkscape:window-maximized="0"
     inkscape:window-y="34"
     inkscape:window-x="10"
     inkscape:window-height="1034"
     inkscape:window-width="1898"
     showgrid="false"
     inkscape:document-rotation="0"
     inkscape:current-layer="layer1"
     inkscape:document-units="mm"
     inkscape:cy="700.82677"
     inkscape:cx="373.15047"
     inkscape:zoom="3.4200411"
     inkscape:pageshadow="2"
     inkscape:pageopacity="0.0"
     borderopacity="1.0"
     bordercolor="#666666"
     pagecolor="#ffffff"
     id="base" />
  <metadata
     id="metadata5">
    <rdf:RDF>
      <cc:Work
         rdf:about="">
        <dc:format>image/svg+xml</dc:format>
        <dc:type
           rdf:resource="http://purl.org/dc/dcmitype/StillImage" />
      </cc:Work>
    </rdf:RDF>
  </metadata>
  <g
     id="layer1"
     inkscape:groupmode="layer"
     inkscape:label="Layer 1">
    <g
       id="g2303">
      <path
         style="fill:#ff9a1b;stroke:#000000;stroke-width:0.423333;stroke-linecap:round;stroke-opacity:0;fill-opacity:1"
         d="m 93.238618,198.32497 -1.658057,-0.64001 -0.719547,-0.84144 0.213103,-1.41769 1.051954,-0.11274 1.855571,0.96308 1.125688,0.32655 0.37982,-0.47889 -1.195477,-1.66911 0.339997,-1.07727 c 0,0 1.933276,-0.2992 1.996213,-0.2992 0.06294,0 0.45344,-0.12633 0.45344,-0.12633 l 0.79334,-2.18567 1.516337,-2.24003 1.3986,-1.58828 0.43365,-1.2214 -0.80839,-1.57378 -0.25096,-1.73164 1.20144,-0.52597 -0.28351,-3.48523 8.34639,-1.74743 0.17637,0.89962 1.03668,1.24758 c 0,0 0.68685,1.7185 0.69169,1.90731 0.005,0.18881 -0.0876,1.92504 -0.0876,1.92504 l -0.78818,2.04678 -0.89742,0.94478 0.0423,1.66115 0.55121,1.30534 1.31419,-0.0493 1.17714,0.7667 0.52475,1.76669 -0.41857,1.19056 -1.01779,1.68059 1.37275,1.3323 -0.0916,0.29864 -1.11694,0.92051 -1.17192,0.15458 -1.85521,0.45627 c 0,0 -2.31661,0.68009 -2.42728,0.69461 -0.11067,0.0145 -1.89427,0.33579 -1.89427,0.33579 0,0 -1.43778,0.43546 -1.51675,0.4161 -0.079,-0.0194 -2.96511,-1.01595 -2.96511,-1.01595 l -1.6645,-0.33666 c 0,0 -0.86111,-0.61985 -0.999731,-0.11923 -0.138623,0.50061 -0.517054,1.09754 -0.923946,1.23639 -0.406892,0.13886 -1.419823,0.59446 -1.959221,0.47735 -0.539398,-0.11712 -1.280554,-0.47103 -1.280554,-0.47103 z"
         id="path965" />
      <path
         style="fill:#ffffff;fill-opacity:1;stroke:#000000;stroke-width:0.423333;stroke-linecap:round;stroke-opacity:0"
         d="m 107.15315,179.61561 -0.0131,1.08369 c 0,0 0.92419,0.16981 0.97034,0.0733 0.0462,-0.0965 -0.0625,-1.06359 -0.0625,-1.06359 z"
         id="path967" />
      <path
         style="fill:#ffffff;fill-opacity:1;stroke:#000000;stroke-width:0.423333;stroke-linecap:round;stroke-opacity:0"
         d="m 100.55197,183.65925 -0.29407,-0.88506 0.99248,-0.74326 -0.76936,-3.3714 5.65605,-1.96727 3.1762,-0.18113 0.55772,1.31375 1.00011,0.61382 0.38371,-0.7866 0.14267,-1.57712 -0.13473,-3.28549 -1.60749,-2.16048 -9.31932,0.60212 -4.317716,3.60344 -0.596455,3.48293 2.666069,3.34888 z"
         id="path969" />
      <path
         style="fill:#000000;stroke-width:0.264583"
         d="m 93.83133,198.82974 c -1.509642,-0.34752 -1.751128,-0.58839 -2.509393,-1.05225 -0.430707,-0.4307 -0.702048,-0.99302 -0.702048,-1.4549 0,-1.59992 1.284562,-1.82831 3.070295,-0.54589 0.778087,0.55878 1.261017,0.75338 1.43582,0.57858 0.174803,-0.1748 0.03974,-0.47351 -0.401569,-0.8881 -1.243476,-1.16818 -0.499184,-2.82507 1.316181,-2.64912 1.057275,0.10247 0.680875,0.36559 1.285162,-1.35174 0.261873,-0.74422 0.925185,-1.84478 1.469185,-2.44739 1.395597,-1.54597 2.143677,-2.68379 2.143677,-3.26052 0,-0.62171 -0.74051,-1.26988 -1.736336,-1.51982 -0.946055,-0.23744 -3.099028,-2.52451 -3.878935,-4.12053 -0.793277,-1.62338 -0.790409,-4.33795 0.0067,-6.36021 0.7221,-1.83193 2.794687,-3.97154 4.802131,-4.95743 1.26185,-0.61972 1.78354,-0.71852 3.71684,-0.70394 2.80412,0.0211 4.59698,0.59607 6.16622,1.97737 1.43156,1.26011 2.03834,2.67369 2.22964,5.1943 0.1379,1.81707 0.11314,1.92552 -0.58799,2.57531 -0.66435,0.6157 -0.70292,0.74842 -0.41767,1.43708 0.80797,1.95062 0.34665,4.5191 -1.08572,6.04492 -0.49863,0.53116 -0.5156,0.67957 -0.21282,1.86097 0.31908,1.24497 0.35551,1.2807 1.20457,1.18157 2.03159,-0.23717 2.93304,2.356 1.59022,4.5745 l -0.63584,1.05048 0.65208,0.60433 c 0.35865,0.33239 0.58337,0.71554 0.49937,0.85145 -0.16778,0.52797 -1.06278,1.27287 -1.79598,1.34794 -1.24956,0.12794 -0.98855,-0.17315 -2.97588,0.63934 -0.40497,0.16557 -1.06958,0.2006 -1.4067,0.38179 -0.33713,0.18118 -0.99197,0.29932 -1.45521,0.26253 -0.46324,-0.0368 -1.19944,0.11948 -1.636,0.34726 -1.00329,0.11183 -1.09938,0.41584 -2.33214,-0.12878 -2.862179,-1.26449 -2.832895,-0.70024 -3.300677,-0.91337 -0.596889,-0.27196 -0.617352,0.0197 -0.923891,0.45735 -0.195647,0.27933 -0.884019,0.73334 -1.529716,1.00891 -0.763733,0.17362 -1.855286,0.0449 -2.063576,-0.022 z m 0.753258,-1.44755 c 0.0022,-0.1819 -0.101125,-0.33073 -0.229673,-0.33073 -0.279986,0 -0.566666,0.9635 -0.350884,1.17928 0.18349,0.18349 0.574923,-0.38863 0.580557,-0.84855 z m 1.886194,0.71152 c 0.972416,-0.52042 1.249177,-2.36516 0.354838,-2.36516 -0.518796,0 -1.876282,1.36241 -2.04311,2.05052 -0.12019,0.49574 -0.03493,0.59531 0.509752,0.59531 0.359745,0 0.890079,-0.1263 1.17852,-0.28067 z m 7.106028,0.0264 c 0.42105,-0.26628 0.4038,-0.301 -0.38921,-0.78327 l -0.52917,-0.32181 0.52917,0.12048 c 0.29104,0.0663 0.73752,0.20626 0.99219,0.3111 0.93952,0.38678 0.46354,-0.65278 -0.60885,-1.32975 l -1.07187,-0.67664 0.67499,-0.80219 c 0.37125,-0.44121 0.675,-0.90079 0.675,-1.0213 0,-0.12051 -0.50602,-0.17248 -1.12448,-0.11548 l -1.12448,0.10362 1.31951,-0.32839 c 0.85142,-0.21189 1.34988,-0.48604 1.4051,-0.77279 0.074,-0.38441 -0.122,-0.43008 -1.4518,-0.33824 -1.58028,0.10914 -1.49442,0.0166 0.24854,-0.26776 1.4498,-0.23657 1.21159,-0.66081 -0.39687,-0.70683 l -1.38907,-0.0397 1.19063,-0.15869 1.19062,-0.1587 -0.65418,-0.46303 c -0.74999,-0.53083 -2.13489,-0.61082 -2.59578,-0.14993 -0.1722,0.1722 -0.40418,0.222 -0.515522,0.11066 -0.450622,-0.45062 0.850572,-0.9883 2.045692,-0.84532 1.80579,0.21603 1.81976,0.22028 1.96469,0.59796 0.0745,0.19403 0.43677,0.35278 0.80513,0.35278 0.49978,0 0.66977,-0.13827 0.66977,-0.54478 0,-0.29963 0.11906,-0.4712 0.26458,-0.38126 0.14873,0.0919 0.26458,1.35906 0.26458,2.89393 v 2.73041 l 0.78086,0.32344 c 0.42946,0.17789 0.96799,0.60906 1.19672,0.95814 0.22873,0.34909 0.59172,0.6347 0.80665,0.6347 0.47286,0 0.50357,-0.31053 0.0733,-0.74083 -0.20686,-0.20686 -0.21815,-0.3175 -0.0324,-0.3175 0.1568,0 0.43223,0.17728 0.61206,0.39396 0.37291,0.44934 0.79617,0.29461 0.79617,-0.29105 0,-0.21726 -0.35719,-0.51954 -0.79375,-0.67172 -0.72054,-0.25118 -0.79375,-0.38461 -0.79375,-1.44649 0,-1.11565 -0.0306,-1.1621 -0.66146,-1.00376 -0.40757,0.10229 -0.66146,0.0534 -0.66146,-0.12726 0,-0.16129 0.29766,-0.29326 0.66146,-0.29326 0.36614,0 0.66146,-0.15347 0.66146,-0.34375 0,-0.23193 -0.32273,-0.32343 -0.99219,-0.28128 -0.98784,0.0622 -0.98838,0.0617 -0.12188,-0.11927 1.16536,-0.24336 1.09926,-0.67358 -0.13394,-0.8718 l -1.00095,-0.16089 1.01321,-0.0375 c 0.98279,-0.0364 1.00798,-0.0614 0.83887,-0.8313 -0.0959,-0.43656 -0.0663,-0.79375 0.0658,-0.79375 0.34909,0 0.86022,2.45265 0.86022,4.12778 0,1.30855 0.0634,1.46567 0.68706,1.70279 0.37788,0.14367 0.74896,0.49791 0.82461,0.7872 0.0756,0.28929 0.24975,0.52598 0.38688,0.52598 0.13714,0 0.17033,-0.12785 0.0737,-0.28411 -0.0966,-0.15627 0.0731,-0.12883 0.37699,0.061 0.47218,0.29488 0.62056,0.27612 1.01987,-0.12893 0.44681,-0.45323 0.44478,-0.49071 -0.0463,-0.85472 -0.28247,-0.20939 -0.66943,-0.38071 -0.85989,-0.38071 -0.47973,0 -0.4419,-0.15198 0.31515,-1.26608 0.3638,-0.53538 0.66146,-1.04422 0.66146,-1.13076 0,-0.0865 -0.38696,-0.11862 -0.8599,-0.0713 -0.93477,0.0935 -0.75662,-0.0375 0.39688,-0.29189 1.10692,-0.24413 0.86855,-0.67485 -0.39688,-0.71711 l -1.12448,-0.0375 1.03765,-0.16089 c 1.48226,-0.22983 1.55522,-0.81072 0.10888,-0.86683 l -1.14653,-0.0445 0.99219,-0.10378 c 1.10458,-0.11555 1.26872,-0.4344 0.44937,-0.8729 -0.92379,-0.4944 -1.68544,-0.21891 -1.84893,0.66876 -0.14032,0.7619 -0.15379,0.74864 -0.33556,-0.33073 -0.17525,-1.04069 -0.2532,-1.12743 -1.04613,-1.16412 -0.80031,-0.037 -0.80882,-0.0469 -0.12917,-0.14986 1.01147,-0.15323 0.91357,-0.60337 -0.13229,-0.6083 -0.65006,-0.003 -0.76305,-0.0661 -0.46302,-0.25854 0.21828,-0.13997 0.60523,-0.18966 0.8599,-0.11041 0.25466,0.0792 0.46302,0.017 0.46302,-0.13833 0,-0.15533 -0.44649,-0.30147 -0.99219,-0.32476 -0.97687,-0.0417 -0.97891,-0.044 -0.13229,-0.14906 0.57289,-0.0711 0.85989,-0.24996 0.85989,-0.53591 0,-0.23606 0.26175,-0.70782 0.58166,-1.04836 l 0.58167,-0.61914 -1.1441,0.40365 c -1.31182,0.46284 -2.55894,0.52485 -2.79735,0.13908 -0.0899,-0.14552 -0.51127,-0.26458 -0.9363,-0.26458 -0.89772,0 -2.72421,-0.66842 -3.73475,-1.36676 -0.8248,-0.56998 -1.35743,-0.66224 -0.60504,-0.10481 0.50769,0.37614 0.50755,0.38499 -0.0121,0.76985 -0.5127,0.37974 -0.51355,0.40271 -0.0348,0.93174 0.33277,0.36771 0.43803,0.75293 0.32681,1.19607 -0.13368,0.53261 -0.0537,0.67491 0.43166,0.76838 0.51127,0.0985 0.49257,0.11982 -0.13189,0.15075 -1.02159,0.0506 -0.9109,0.55672 0.1323,0.60493 0.72488,0.0335 0.67617,0.0647 -0.31019,0.19844 -0.64383,0.0873 -1.22423,0.32318 -1.29048,0.52441 -0.0901,0.27357 0.0845,0.33562 0.69309,0.24631 0.44742,-0.0657 0.75321,-0.0219 0.67955,0.0973 -0.0737,0.11919 -0.5847,0.21671 -1.13565,0.21671 -1.076354,0 -1.523652,0.3533 -2.24102,1.77005 l -0.42736,0.84401 0.990767,0.1037 0.990766,0.1037 -1.124479,0.0445 c -0.80338,0.0318 -1.124479,0.15781 -1.124479,0.44135 0,0.28928 0.298881,0.39688 1.102431,0.39688 1.197254,0 1.218338,0.31105 0.02676,0.39484 -1.330524,0.0936 -1.43882,0.13147 -1.32865,0.46505 0.06007,0.1819 0.51648,0.40435 1.014236,0.49434 l 0.90501,0.16361 -0.992188,0.0348 c -1.143691,0.0401 -1.165509,0.11578 -0.488797,1.69448 0.511018,1.19216 1.006847,1.40662 2.045499,1.40662 0.317794,0 0.992664,0.23129 1.499724,0.51398 1.02135,0.56942 1.70504,0.77113 2.29372,0.39883 z m -9.826271,-0.78456 c 0.121148,-0.82723 -0.913324,-1.87162 -1.853854,-1.87162 -0.560614,0 -0.747629,0.12696 -0.747629,0.50753 0,0.90228 0.326494,1.39589 1.164077,1.7599 1.026748,0.44624 1.326162,0.36379 1.437406,-0.39581 z m 12.363051,-0.16024 c -0.38479,-0.29104 -0.41465,-0.38846 -0.11906,-0.38846 0.21699,0 0.5374,0.14288 0.71203,0.3175 0.23313,0.23314 0.39574,0.23926 0.61194,0.0231 0.39933,-0.39933 0.15229,-0.72299 -0.95163,-1.24684 -0.83269,-0.39513 -0.93031,-0.55121 -0.93031,-1.48737 0,-0.64921 -0.12545,-1.05384 -0.33073,-1.06681 -0.26459,-0.0167 -0.26459,-0.0476 0,-0.15434 0.3803,-0.15346 0.45441,-1.14769 0.0855,-1.14769 -0.13486,0 -0.57563,0.68461 -0.9795,1.52135 -0.40387,0.83675 -0.76819,1.58089 -0.8096,1.65365 -0.0414,0.0728 0.33984,0.40128 0.84721,0.73004 0.54452,0.35283 0.92249,0.81356 0.92249,1.12447 0,0.40028 0.17469,0.52472 0.72761,0.51833 0.69693,-0.008 0.70595,-0.0248 0.21401,-0.39688 z m -9.562215,-1.60739 c 0.4323,-0.16589 0.583221,-0.63315 0.204501,-0.63315 -0.117708,0 -0.44513,0.1748 -0.727604,0.38846 -0.524324,0.39658 -0.23067,0.53394 0.523103,0.24469 z m -0.110652,-1.04865 c 0,-0.0728 -0.238125,-0.005 -0.529167,0.15091 -0.291042,0.15576 -0.529167,0.34274 -0.529167,0.4155 0,0.0728 0.238125,0.005 0.529167,-0.15091 0.291042,-0.15576 0.529167,-0.34274 0.529167,-0.4155 z M 96.69664,193.678 c 0.009,-0.34638 -0.972657,-0.44523 -1.689536,-0.17013 -0.398886,0.15306 -0.574775,0.91786 -0.279094,1.21354 0.23009,0.23009 1.95933,-0.68644 1.96863,-1.04341 z m 8.73987,-2.60174 c 0,-0.23041 -0.14139,-0.37179 -0.3142,-0.31419 -0.49059,0.16353 -0.57196,0.73311 -0.10473,0.73311 0.23041,0 0.41893,-0.18851 0.41893,-0.41892 z m 2.44739,-6.63547 c -0.1819,-0.0734 -0.47955,-0.0734 -0.66146,0 -0.1819,0.0734 -0.0331,0.13345 0.33073,0.13345 0.36381,0 0.51263,-0.0601 0.33073,-0.13345 z m 1.94192,-0.88974 c 1.01963,-0.28548 1.17548,-0.43131 1.32762,-1.24226 0.2142,-1.14179 -0.23812,-2.70705 -1.16938,-4.04666 -0.66571,-0.95762 -0.77864,-1.0142 -1.76943,-0.88649 -2.65394,0.34208 -6.48229,1.25406 -6.48229,1.54421 0,0.0452 0.23551,0.60115 0.52336,1.2355 0.62895,1.3861 0.66108,1.91551 0.14743,2.42916 -0.34033,0.34033 -0.29655,0.42523 0.35939,0.69693 1.72173,0.71316 5.02829,0.83938 7.0633,0.26961 z m -3.13254,-1.99678 c -0.90171,-0.48919 -0.70136,-1.73353 -0.0656,-2.29913 0.56024,-0.49837 0.51747,-0.85823 0.51747,-0.85823 0,0 0.43347,0.34739 0.8692,0.67898 0.97221,0.73984 1.1271,1.50977 0.19823,2.31741 -0.36491,0.31729 -0.71584,0.4162 -0.75112,0.41037 -0.0353,-0.006 -0.36804,-0.0323 -0.76822,-0.2494 z m 1.38906,-1.33219 c 0,-0.0572 -0.17859,-0.10398 -0.39688,-0.10398 -0.21828,0 -0.39687,0.11533 -0.39687,0.25628 0,0.14095 0.17859,0.18775 0.39687,0.10399 0.21829,-0.0838 0.39688,-0.19909 0.39688,-0.25629 z M 104.83,179.35772 c 0.23763,-0.38051 0.0708,-0.63245 0.3208,-0.42503 0.43596,0.36181 0.13528,0.92083 -0.5259,0.92083 -0.44508,0 -0.0728,-0.0508 0.2051,-0.4958 z m -4.15599,2.34788 c 0,-0.14552 -0.11907,-0.26458 -0.26459,-0.26458 -0.14552,0 -0.26458,0.11906 -0.26458,0.26458 0,0.14552 0.11906,0.26458 0.26458,0.26458 0.14552,0 0.26459,-0.11906 0.26459,-0.26458 z m -3.760896,-2.84427 c -0.733119,-1.28052 -0.737025,-1.2848 -0.737025,-0.80738 0,0.36933 0.954437,1.79957 1.200906,1.79957 0.05729,0 -0.151456,-0.44649 -0.463881,-0.99219 z m 14.159766,-1.25677 c 0.0287,-0.14552 -0.29824,-0.30448 -0.72651,-0.35323 -0.69304,-0.0789 -0.73936,-0.0413 -0.4212,0.34207 0.37639,0.45353 1.05917,0.46017 1.14771,0.0112 z m -10.78241,-0.8348 c -0.11461,-0.45664 -0.0552,-0.77932 0.16976,-0.92199 0.60156,-0.38152 1.20545,-0.2465 1.34877,0.30158 0.0761,0.29104 0.30648,0.52917 0.51192,0.52917 0.30777,0 0.2787,-0.36916 -0.16513,-2.09668 -0.57042,-2.22023 -1.00438,-2.57656 -0.88932,-0.73022 0.0666,1.06906 0.0417,1.10711 -0.72476,1.10711 -0.705146,0 -0.803133,-0.0978 -0.877844,-0.87584 -0.05843,-0.60851 -0.20402,-0.85079 -0.476997,-0.79375 -0.522426,0.10915 -0.522713,0.0678 0.01572,2.2649 0.323548,1.32026 0.59386,1.91823 0.867141,1.91823 0.2976,0 0.35289,-0.17598 0.22074,-0.70251 z m 3.87169,-1.34801 c 0.0658,-0.5715 0.23983,-0.74557 0.81133,-0.81133 0.51971,-0.0598 0.7276,0.0347 0.7276,0.33073 0,0.41152 0.30551,0.54991 0.58874,0.26668 0.0813,-0.0813 -0.25084,-0.80972 -0.73803,-1.61878 -0.48719,-0.80906 -0.93568,-1.60576 -0.99664,-1.77046 -0.0741,-0.20023 -0.20166,-0.21178 -0.38494,-0.0349 -0.38884,0.37534 -0.72691,4.36562 -0.36987,4.36562 0.15295,0 0.31577,-0.32742 0.36181,-0.7276 z m -0.0486,-2.21521 c 0,-0.70436 0.0585,-0.77759 0.39688,-0.49677 0.21828,0.18116 0.39687,0.55292 0.39687,0.82614 0,0.27323 -0.17859,0.49677 -0.39687,0.49677 -0.26804,0 -0.39688,-0.26818 -0.39688,-0.82614 z m 3.44364,0.87667 c 0.007,-1.16502 0.37393,-1.48885 0.79542,-0.70129 l 0.36513,0.68225 0.44197,-0.58594 0.44197,-0.58594 0.31916,0.96707 c 0.17554,0.53189 0.429,0.96707 0.56323,0.96707 0.31228,0 0.30899,-0.41735 -0.0113,-1.43642 -0.14047,-0.44689 -0.32134,-1.13996 -0.40192,-1.54014 -0.19291,-0.95807 -0.57997,-0.92598 -0.79788,0.0662 -0.22092,1.00585 -0.56509,1.00636 -1.13679,0.002 -0.57781,-1.01545 -0.79208,-1.00099 -0.95548,0.0645 -0.0725,0.47294 -0.1984,1.28513 -0.2797,1.80486 -0.0813,0.51972 -0.0703,1.0225 0.0245,1.11728 0.31246,0.31247 0.62761,-0.0971 0.63173,-0.82109 z"
         id="path853"
         sodipodi:nodetypes="ccsssssssssssscsssssssscscsssscssscccssssssssssccsscssscssssscccssssssssscsssssssssssssssscssssscsscsssssssccsscsssssscscssssscssssssssssssssssscccsssssscssssssscssscsscssssssssscccssssssscsssssscsscsscsssssssssssssscssssssssssssssssssssscssscsssssssssscscssscsccscssscssccssssscsscccss" />
      <path
         style="fill:#000000;stroke:#000000;stroke-width:0.423333;stroke-linecap:round;stroke-opacity:0"
         d="m 105.61413,182.00643 c 0,0 0.18092,-0.11819 0.21744,0.0837 0.0365,0.20191 -0.0896,0.21625 -0.19532,0.17081 -0.1057,-0.0454 -0.0221,-0.25454 -0.0221,-0.25454 z"
         id="path855" />
      <path
         style="fill:#000000;stroke:#000000;stroke-width:0.423333;stroke-linecap:round;stroke-opacity:0"
         d="m 104.62811,181.94839 c 0,0 -0.20658,-0.0672 -0.22514,0.0666 -0.0185,0.1338 0.23577,0.38085 0.3161,0.28389 0.0803,-0.0969 -0.15316,-0.37515 -0.15316,-0.37515 z"
         id="path857" />
      <path
         style="fill:#000000;stroke:#000000;stroke-width:0.423333;stroke-linecap:round;stroke-opacity:0"
         d="m 104.44649,182.80256 c -0.0269,0.0683 0.0915,0.44595 0.18587,0.29056 0.0943,-0.15539 0.14233,-0.20776 0.0409,-0.24483 -0.10139,-0.0371 -0.2268,-0.0457 -0.2268,-0.0457 z"
         id="path859" />
    </g>
    <g
       transform="translate(5.5873165,-0.88455858)"
       id="g1242" />
    <g
       id="g1340">
      <path
         transform="translate(5.5873166,-0.88455857)"
         style="fill:#ffffff;stroke:#000000;stroke-width:0.423333;stroke-linecap:round;stroke-opacity:0"
         d="m 126.38327,157.13943 c 0,0 0.40014,-0.41877 0.40014,-0.52256 0,-0.10378 0.13181,-2.29187 0.13181,-2.29187 l 2.47573,-0.16358 0.0933,1.91152 -0.50502,1.61034 -0.56629,0.5633 -0.37916,-0.13435 -0.96559,-0.58683 z"
         id="path861-6" />
      <path
         transform="translate(5.5873166,-0.88455857)"
         style="fill:#fff6d5;stroke:#000000;stroke-width:0.423333;stroke-linecap:round;stroke-opacity:0"
         d="m 127.29338,154.4897 1.92727,-0.43325 0.34624,1.69691 0.56208,1.11689 0.25439,1.09184 0.0694,1.01703 1.04619,1.26216 0.92471,0.0486 -0.12276,-0.89193 -0.44311,-1.25359 0.91318,-1.22783 3.06982,-1.93505 1.45176,-0.78472 0.96919,-1.58974 -0.15921,-0.95678 -0.4325,-0.71269 -0.90743,-2.38033 -2.69947,-1.87754 -1.98245,0.61051 -2.43013,0.54976 -1.62872,1.57078 -0.0348,0.8032 -1.5822,0.76781 -0.74263,1.16789 0.43296,0.98619 -5.3e-4,0.40082 z"
         id="path863-7" />
      <path
         transform="translate(5.5873166,-0.88455857)"
         style="fill:#ffffff;stroke:#000000;stroke-width:0.423333;stroke-linecap:round;stroke-opacity:0"
         d="m 136.10481,154.71145 0.16797,-0.70315 0.83524,0.91628 0.604,0.29401 1.31749,-0.37371 -1.52842,1.13068 -1.37226,-0.75616 z"
         id="path865-5" />
      <path
         transform="translate(5.5873166,-0.88455857)"
         style="fill:#ffffff;stroke:#000000;stroke-width:0.423333;stroke-linecap:round;stroke-opacity:0"
         d="m 137.75762,151.46152 1.42591,-0.59371 0.75732,-1.08853 -0.45595,-1.3416 1.04417,2.36114 -1.0223,1.00276 -0.82739,0.20561 -0.29654,-0.0816 z"
         id="path867-3" />
      <path
         transform="translate(5.5873166,-0.88455857)"
         style="fill:#ffffff;stroke:#000000;stroke-width:0.423333;stroke-linecap:round;stroke-opacity:0"
         d="m 134.3619,146.63416 -0.79743,0.002 0.0426,-1.10928 1.11837,-0.84396 2.20067,-0.31703 0.96154,0.54296 -0.89711,0.51447 -1.2603,-0.0224 -0.73449,0.23664 -0.44833,0.51623 z"
         id="path869-5" />
      <path
         transform="translate(5.5873166,-0.88455857)"
         style="fill:#ffffff;stroke:#000000;stroke-width:0.423333;stroke-linecap:round;stroke-opacity:0"
         d="m 127.69586,149.69597 0.40569,-0.57669 -0.60798,-1.00291 0.16634,-1.31096 -1.01793,1.36906 0.26634,0.83541 z"
         id="path871-6" />
      <path
         transform="translate(5.5873166,-0.88455857)"
         style="fill:#ffffff;stroke:#000000;stroke-width:0.423333;stroke-linecap:round;stroke-opacity:0"
         d="m 128.61471,151.50692 0.16425,-0.48726 -0.0344,-0.64404 -0.67597,0.0683 -0.34108,0.76235 0.17268,0.41542 0.43,0.17369 z"
         id="path873-2" />
      <path
         transform="translate(5.5873166,-0.88455857)"
         style="fill:#000000;stroke-width:0.264583"
         d="m 134.01151,149.00088 c 0,-0.33142 -0.16096,-0.38581 -0.72761,-0.24586 -0.54859,0.13548 -0.65374,0.10448 -0.42739,-0.12601 0.42996,-0.43783 1.53044,-0.2127 1.63472,0.3344 0.0485,0.25467 -0.0396,0.46303 -0.19574,0.46303 -0.15619,0 -0.28398,-0.19151 -0.28398,-0.42556 z"
         id="path1224" />
      <path
         transform="translate(5.5873166,-0.88455857)"
         style="fill:#000000;stroke-width:0.264583"
         d="m 135.38831,151.5311 c -0.17762,-0.28442 -0.21562,-0.51713 -0.0844,-0.51713 0.23753,0 0.64661,0.79504 0.48978,0.95187 -0.0453,0.0453 -0.22772,-0.15032 -0.40535,-0.43474 z"
         id="path1222" />
      <path
         transform="translate(5.5873166,-0.88455857)"
         style="fill:#000000;stroke-width:0.264583"
         d="m 130.70688,152.60578 c -0.19514,-0.31575 0.0525,-0.79806 0.40983,-0.79806 0.32194,0 0.32403,0.71612 0.003,0.91474 -0.13547,0.0837 -0.32109,0.0312 -0.41249,-0.11668 z"
         id="path1220" />
      <path
         transform="translate(5.5873166,-0.88455857)"
         style="fill:#000000;stroke-width:0.264583"
         d="m 136.77567,153.41781 c 0.0822,-0.13309 0.0167,-0.28627 -0.14569,-0.3404 -0.18626,-0.0621 -0.13804,-0.22888 0.13064,-0.45187 0.37305,-0.3096 0.42589,-0.26737 0.42589,0.3404 0,0.38162 -0.12609,0.69386 -0.2802,0.69386 -0.15411,0 -0.2129,-0.10889 -0.13064,-0.24199 z"
         id="path1218" />
      <path
         transform="translate(5.5873166,-0.88455857)"
         style="fill:#000000;stroke-width:0.264583"
         d="m 131.96099,154.26023 c -0.53738,-0.18745 -0.37701,-0.56299 0.17839,-0.41775 0.93335,0.24407 1.89783,-2.77499 1.23114,-3.85374 -0.22802,-0.36892 -1.12222,-0.39097 -1.34339,-0.0331 -0.26193,0.42383 -0.61232,0.30703 -0.79375,-0.26458 -0.20434,-0.64384 -0.5936,-0.67259 -1.23593,-0.0913 -0.52924,0.47895 -0.68042,0.1291 -0.16636,-0.38496 0.44377,-0.44377 1.52084,-0.39659 1.70163,0.0745 0.11388,0.29678 0.27258,0.32666 0.65315,0.12298 0.58614,-0.31369 1.408,0.0274 1.66222,0.6899 0.31842,0.8298 0.15604,2.04346 -0.40758,3.04629 -0.59528,1.05916 -0.92341,1.30572 -1.47952,1.11173 z"
         id="path1216" />
      <path
         transform="translate(5.5873166,-0.88455857)"
         style="fill:#000000;stroke-width:0.264583"
         d="m 126.86776,157.71151 c 0,-0.13552 0.17481,-0.47752 0.38846,-0.76 0.32635,-0.43147 0.3898,-0.44473 0.39687,-0.083 0.005,0.23684 -0.17018,0.57884 -0.38846,0.76 -0.21828,0.18116 -0.39687,0.21849 -0.39687,0.083 z"
         id="path1214" />
      <path
         transform="translate(5.5873166,-0.88455857)"
         style="fill:#ffffff;stroke:#000000;stroke-width:0.423333;stroke-linecap:round;stroke-opacity:0"
         d="m 129.37121,161.40802 1.09281,-0.57435 -0.25003,-1.80971 -1.06553,-0.3046 -0.40896,0.45133 z"
         id="path875-1" />
      <path
         transform="translate(5.5873166,-0.88455857)"
         style="fill:#000000;stroke-width:0.264583"
         d="m 128.57852,160.52436 c -0.0966,-0.15637 -0.0965,-0.70661 2.7e-4,-1.22275 0.15971,-0.85136 0.24268,-0.92512 0.89406,-0.79484 0.61406,0.12281 0.71426,0.0581 0.69216,-0.44682 -0.0527,-1.20302 -0.41358,-1.30874 -1.08659,-0.31831 -0.52621,0.77438 -0.70904,0.88662 -1.00251,0.61544 -0.19741,-0.18241 -0.2901,-0.44486 -0.20597,-0.58321 0.0854,-0.14051 0.20243,-0.10312 0.26505,0.0847 0.2113,0.63393 0.86867,-0.71174 1.03541,-2.11955 0.15952,-1.34692 0.15184,-1.36631 -0.47497,-1.19859 -0.35042,0.0938 -0.84548,0.17209 -1.10014,0.17408 -0.35911,0.003 -0.46302,0.22925 -0.46302,1.00903 0,0.96456 -0.36218,1.64041 -0.87906,1.64041 -0.13424,0 -0.12126,-0.14882 0.0288,-0.33072 0.48866,-0.5922 0.48206,-2.5347 -0.01,-2.90652 -1.22873,-0.9287 -0.98182,-2.75427 0.48995,-3.62263 l 0.91054,-0.53723 -0.53478,-0.53478 c -0.53738,-0.53745 -0.76471,-1.76649 -0.27013,-1.46082 0.14552,0.0899 0.26458,0.38759 0.26458,0.66146 0,0.27386 0.12699,0.57641 0.28219,0.67233 0.499,0.30841 0.57822,-0.0908 0.14167,-0.7141 -0.52305,-0.74676 -0.52978,-1.03863 -0.0391,-1.6936 0.35498,-0.4738 0.37322,-0.43932 0.23543,0.44496 -0.20233,1.29842 0.24537,1.49595 1.46887,0.64806 1.09381,-0.75802 2.40642,-1.20974 3.51523,-1.20974 0.60468,0 0.70544,-0.10478 0.6632,-0.68971 -0.0661,-0.91449 0.99292,-1.71005 2.50277,-1.88023 0.9271,-0.1045 1.289,-0.0166 1.81616,0.44091 0.58208,0.50522 0.5914,0.53903 0.0804,0.29189 -1.41252,-0.6832 -4.05229,9.2e-4 -4.05229,1.05019 0,0.69953 0.34245,0.66196 0.66487,-0.0729 0.20365,-0.46419 0.51678,-0.61362 1.4216,-0.67843 0.63824,-0.0457 1.26021,0.0167 1.38217,0.13862 0.12196,0.12196 -0.23223,0.17845 -0.78707,0.12554 -0.68864,-0.0657 -1.1483,0.0433 -1.44832,0.34329 -0.65916,0.65917 -0.53953,1.00856 0.54522,1.59233 1.12736,0.60671 2.19028,2.03809 2.19028,2.94954 0,0.79271 0.84007,0.8406 1.59001,0.0907 0.49323,-0.49322 0.50377,-0.59845 0.14579,-1.4552 -0.21223,-0.50795 -0.292,-0.92354 -0.17726,-0.92354 0.27368,0 0.82271,1.21692 0.82271,1.82352 0,0.58586 -0.80756,1.35148 -1.42551,1.35148 -0.25179,0 -0.38421,0.11906 -0.29428,0.26458 0.2801,0.4532 0.92238,0.2923 1.62069,-0.40601 0.53546,-0.53546 0.65284,-0.57545 0.58251,-0.19843 -0.0485,0.25968 -0.49051,0.67324 -0.98237,0.91901 -0.57139,0.28551 -1.06297,0.82362 -1.36147,1.49037 -0.25696,0.57393 -0.62809,1.10792 -0.82474,1.18664 -0.29433,0.11783 -0.29014,0.19005 0.0237,0.40854 0.26469,0.18427 0.60442,0.14999 1.11134,-0.11215 1.03037,-0.53282 1.2717,-0.45843 0.4918,0.15161 -0.92989,0.72738 -1.63347,0.65402 -2.51089,-0.26182 -0.77623,-0.8102 -0.75938,-1.42455 0.0213,-0.77665 0.37458,0.31088 0.50148,0.27601 0.93243,-0.25619 0.91814,-1.13385 0.4297,-2.37866 -0.57616,-1.46837 -0.46444,0.42029 -0.51252,0.42293 -0.51252,0.0282 0,-0.2396 0.22411,-0.5756 0.49802,-0.74666 0.39564,-0.24708 0.45389,-0.46489 0.28336,-1.05951 -0.32689,-1.13978 -1.20737,-2.23119 -2.09743,-2.59986 -0.44034,-0.1824 -0.80062,-0.49578 -0.80062,-0.6964 0,-0.20063 -0.12609,-0.36478 -0.2802,-0.36478 -0.15411,0 -0.21671,0.10272 -0.13912,0.22827 0.0776,0.12555 -0.49549,0.29398 -1.27354,0.37428 -0.77803,0.0803 -1.89819,0.3927 -2.48922,0.69422 -1.40505,0.7168 -2.44932,2.14282 -1.5692,2.14282 0.18377,0 0.45166,0.26789 0.59531,0.59531 0.18562,0.42309 0.44186,0.56993 0.88574,0.50758 0.42735,-0.06 0.58751,0.0235 0.50725,0.26458 -0.13468,0.40449 -1.20307,0.53284 -1.42647,0.17137 -0.0856,-0.13856 -0.30362,-0.11357 -0.51105,0.0586 -0.42301,0.35106 -0.91408,0.12412 -0.91408,-0.42242 0,-0.46213 -0.82997,-0.5038 -1.27,-0.0638 -0.35397,0.35396 -0.41723,1.49728 -0.10963,1.98105 0.10988,0.17279 0.53576,0.44191 0.94641,0.59804 0.96018,0.36506 2.11799,-0.14247 2.23756,-0.98084 0.0465,-0.32606 0.1884,-0.59284 0.31533,-0.59284 0.12694,0 0.16054,0.83792 0.0747,1.86204 -0.14157,1.68871 -0.10175,1.91267 0.42785,2.40606 0.43498,0.40525 0.54359,0.72774 0.42577,1.26418 -0.17747,0.80804 0.75153,2.27647 1.24663,1.97048 0.18555,-0.11468 0.13924,-0.28067 -0.13406,-0.48051 -0.3786,-0.27684 -0.37941,-0.42112 -0.009,-1.54711 0.23388,-0.71043 0.57084,-1.24181 0.78747,-1.24181 0.56888,0 1.98174,-0.76963 2.77609,-1.51223 l 0.70393,-0.65807 0.45098,0.68828 c 0.25016,0.38179 0.70252,0.69008 1.01586,0.69233 0.46169,0.003 0.49238,0.0509 0.16801,0.26053 -0.56234,0.36341 -0.71009,0.33226 -1.26891,-0.26756 -0.49355,-0.52977 -0.49788,-0.52981 -0.96875,-0.009 -0.26014,0.28745 -0.98498,0.71817 -1.61076,0.95716 -0.78123,0.29835 -1.23508,0.66943 -1.44829,1.18416 -0.35323,0.85278 -0.1663,1.35989 0.41854,1.13546 0.32909,-0.12628 0.36891,0.0445 0.23405,1.00375 -0.26808,1.9069 -0.3517,2.03119 -0.88812,1.32004 -0.45016,-0.59679 -0.50315,-0.60598 -1.12918,-0.19579 -0.81149,0.53171 -1.0115,0.35174 -1.0115,-0.91017 0,-0.60149 -0.14458,-1.04141 -0.3708,-1.12822 -0.60918,-0.23376 -0.69599,0.85293 -0.14086,1.76334 0.56162,0.77879 -0.61591,1.38365 -0.95208,-0.36994 z"
         id="path853-9" />
      <ellipse
         style="fill:#ffffff;fill-opacity:1;stroke:#000000;stroke-width:0.472333;stroke-linecap:round;stroke-opacity:0"
         id="path1307"
         cx="133.85355"
         cy="150.16956"
         rx="0.25826707"
         ry="0.46679404" />
    </g>
  </g>
</svg>
