<?xml version="1.0" encoding="UTF-8" standalone="no"?>
<svg
   xmlns:dc="http://purl.org/dc/elements/1.1/"
   xmlns:cc="http://creativecommons.org/ns#"
   xmlns:rdf="http://www.w3.org/1999/02/22-rdf-syntax-ns#"
   xmlns:svg="http://www.w3.org/2000/svg"
   xmlns="http://www.w3.org/2000/svg"
   xmlns:sodipodi="http://sodipodi.sourceforge.net/DTD/sodipodi-0.dtd"
   xmlns:inkscape="http://www.inkscape.org/namespaces/inkscape"
   inkscape:version="1.0 (4035a4fb49, 2020-05-01)"
   sodipodi:docname="heathcliffninja2full.jpg.svg"
   viewBox="0 0 200.96001 131.2"
   height="131.2"
   width="200.96001"
   id="svg7642"
   version="1.1">
  <style></style>
  <metadata
     id="metadata7648">
    <rdf:RDF>
      <cc:Work
         rdf:about="">
        <dc:format>image/svg+xml</dc:format>
        <dc:type
           rdf:resource="http://purl.org/dc/dcmitype/StillImage" />
        <dc:title></dc:title>
      </cc:Work>
    </rdf:RDF>
  </metadata>
  <defs
     id="defs7646" />
  <sodipodi:namedview
     inkscape:current-layer="g7650"
     inkscape:window-maximized="0"
     inkscape:window-y="33"
     inkscape:window-x="10"
     inkscape:cy="116.11997"
     inkscape:cx="72.622396"
     inkscape:zoom="3.1496842"
     showgrid="false"
     id="namedview7644"
     inkscape:window-height="1035"
     inkscape:window-width="1898"
     inkscape:pageshadow="2"
     inkscape:pageopacity="0"
     guidetolerance="10"
     gridtolerance="10"
     objecttolerance="10"
     borderopacity="1"
     bordercolor="#666666"
     pagecolor="#ffffff" />
  <g
     id="g7650"
     inkscape:label="Image"
     inkscape:groupmode="layer">
    <path
       id="path8219"
       d="m 74.880004,128.87302 c -4.312,-0.13583 -8.632001,-0.29575 -9.600001,-0.35537 -4.106643,-0.25293 -39.184595,-0.29744 -46.087728,-0.0585 -6.524165,0.22584 -7.580941,0.19646 -7.926895,-0.22039 -0.296044,-0.35671 -0.37672,-2.11486 -0.312274,-6.80531 0.07682,-5.59121 0.151114,-6.3648 0.64089,-6.67348 0.427781,-0.2696 0.678234,-0.22491 1.099313,0.19618 0.444937,0.44493 0.530702,1.06243 0.465923,3.35457 -0.04367,1.54509 0.02037,4.01764 0.142309,5.49455 l 0.221703,2.6853 5.478379,-0.2753 c 9.651414,-0.485 40.834546,-0.20081 54.598381,0.49758 3.432,0.17414 11.424,0.2439 17.760001,0.15501 15.835425,-0.22215 19.149815,-0.23364 37.280005,-0.1292 21.93061,0.12632 53.50564,-0.26121 57.84,-0.70989 3.31501,-0.34316 3.60044,-0.42555 3.60558,-1.04073 0.003,-0.36743 -0.014,-4.48406 -0.0379,-9.14806 -0.0715,-13.95416 -0.0466,-21.163322 0.12732,-36.8 0.091,-8.184 0.17886,-14.988 0.19523,-15.12 0.0623,-0.502432 1.30215,-0.212122 1.61849,0.378963 0.18425,0.344272 0.33126,2.659095 0.33126,5.216 0,2.528371 0.13599,4.733837 0.3022,4.901037 0.18961,0.190733 0.18567,2.330864 -0.0106,5.744 -0.46458,8.080125 -0.80229,23.70016 -0.56387,26.08 0.11461,1.144 0.25876,6.42872 0.32032,11.74381 0.0883,7.62258 0.024,9.75173 -0.30421,10.08 -0.33398,0.33402 -4.21006,0.40155 -19.63219,0.34205 -11.96021,-0.0461 -19.7565,0.047 -20.64734,0.24661 -2.10014,0.47065 -35.57236,0.41503 -41.64139,-0.0692 -3.96678,-0.31649 -5.09137,-0.31225 -5.92,0.0224 -1.23867,0.50018 -17.305556,0.6466 -29.342952,0.26739 z M 30.930431,117.56316 c -0.490708,-0.49071 -1.038191,-0.75958 -1.323636,-0.65005 -0.763659,0.29305 -1.354175,-0.077 -1.785775,-1.11893 -0.348525,-0.84142 -0.32101,-1.03641 0.223014,-1.58044 0.341326,-0.34132 1.828508,-1.04774 3.304849,-1.56981 1.476341,-0.52207 2.807515,-1.13253 2.958165,-1.35657 0.15065,-0.22405 0.188496,-2.06336 0.0841,-4.08736 l -0.189808,-3.68 -1.980673,-1.83474 c -1.089367,-1.0091 -2.268669,-1.83461 -2.620669,-1.83446 -0.480471,2.05e-4 -0.0585,0.56407 1.692867,2.26214 1.892513,1.83491 2.294362,2.3926 2.128887,2.95446 -0.236208,0.80203 -1.325168,2.5131 -2.477338,3.8926 -0.440989,0.528 -1.283887,1.59462 -1.873106,2.37027 -2.053762,2.70357 -2.189928,2.74973 -8.110733,2.74973 -4.817695,0 -5.304623,-0.0534 -6.136742,-0.67269 -0.49711,-0.36998 -1.044905,-1.06896 -1.217323,-1.55331 -0.271182,-0.76178 -0.198358,-0.97965 0.539635,-1.61444 0.469216,-0.4036 1.762286,-1.04264 2.873487,-1.42009 1.980475,-0.67271 4.231886,-2.40211 10.307726,-7.91777 l 1.56736,-1.422855 -0.68736,-1.222992 c -0.454103,-0.807968 -0.68736,-1.778317 -0.68736,-2.859421 0,-1.137165 -0.128108,-1.636432 -0.419894,-1.636432 -0.230942,0 -0.987208,-0.274096 -1.680592,-0.609104 C 23.398775,92.174582 20.729227,91.84 14.960192,91.84 11.988946,91.84 9.2991422,91.701504 8.9828513,91.53223 8.6665601,91.362957 8.232682,90.801744 8.0186775,90.285091 7.5887988,89.24727 8.0135831,88.025795 9.1672392,86.982365 c 1.5771778,-1.426487 9.7904888,-1.408864 12.9674438,0.02781 0.761925,0.34456 2.359288,1.061581 3.549696,1.593379 2.339019,1.044925 2.754954,1.568835 2.20455,2.776842 -0.426362,0.935763 -0.24479,0.986998 0.625253,0.176432 0.439128,-0.409111 0.679851,-1.104039 0.748225,-2.16 0.05544,-0.856263 0.20903,-2.029572 0.341303,-2.607354 l 0.240497,-1.050512 -1.279461,0.204592 c -1.859745,0.297386 -2.771454,-0.270019 -2.5127,-1.563789 0.110134,-0.550665 0.414309,-1.121008 0.675945,-1.267427 0.317779,-0.177837 0.410143,-0.52743 0.27822,-1.053053 C 26.802491,81.24761 28.005675,77.76 28.489417,77.76 c 0.140297,0 0.567199,0.966099 0.948672,2.146886 0.690255,2.136573 1.714542,3.933114 2.24244,3.933114 0.152321,0 0.994977,-0.446352 1.872567,-0.991891 1.497571,-0.930941 1.609293,-1.093171 1.818106,-2.64 0.431213,-3.194288 1.025033,-3.435373 3.618589,-1.469098 l 1.709792,1.296256 1.970208,-0.394083 c 1.083616,-0.216746 3.573962,-0.404682 5.534099,-0.417635 3.458989,-0.02285 3.60498,-0.05286 4.960001,-1.019434 C 55.014496,76.884026 56.463289,76.16 57.254214,76.16 c 0.355299,0 1.748925,-0.72 3.096951,-1.6 1.500547,-0.979568 2.807293,-1.6 3.369897,-1.6 0.789972,0 0.918941,-0.123962 0.918941,-0.88327 0,-0.503264 0.350906,-1.261706 0.815632,-1.762893 0.992516,-1.070381 1.336439,-0.933229 3.344368,1.333709 0.792,0.89416 1.596369,1.627254 1.787485,1.6291 0.191117,0.0019 1.039536,-0.535817 1.885376,-1.194806 1.699693,-1.324218 6.564567,-4.440096 8.80714,-5.640838 0.792,-0.424061 3.048208,-1.974765 5.013792,-3.44601 1.965588,-1.471245 4.989588,-3.519718 6.720001,-4.552163 1.730416,-1.032445 5.03271,-3.120445 7.338443,-4.64 4.13809,-2.727152 4.19489,-2.780819 4.39841,-4.155946 0.11341,-0.766214 0.12416,-1.525843 0.0239,-1.688057 -0.10026,-0.162218 -1.11445,0.356684 -2.25375,1.153116 -1.13931,0.796432 -2.14438,1.448058 -2.23349,1.448058 -0.0891,0 -0.622217,0.431334 -1.184672,0.958518 -0.562457,0.527188 -1.13617,0.959188 -1.274922,0.96 -0.138748,8.16e-4 -1.537225,0.865482 -3.107721,1.921482 -1.570496,1.056 -2.927501,1.92 -3.015565,1.92 -0.269754,0 -5.527242,3.742806 -6.193802,4.409366 -0.344304,0.344304 -1.47305,1.256231 -2.50832,2.026503 -1.035274,0.770272 -1.954314,1.473312 -2.042314,1.562313 -0.241955,0.244704 -2.415981,1.91656 -5.674768,4.363975 -3.206378,2.408054 -5.097642,3.532102 -5.412746,3.216998 -0.330048,-0.330048 0.537811,-1.17 2.76151,-2.672717 2.476417,-1.673497 7.308634,-5.361097 11.206004,-8.551619 0.968,-0.792435 3.464836,-2.564451 5.548525,-3.937808 6.373364,-4.200675 10.16026,-6.758419 13.171481,-8.896269 1.584,-1.124579 3.14236,-2.052803 3.46302,-2.062716 0.52376,-0.01619 0.56006,0.169033 0.35714,1.821974 -0.26689,2.174099 -0.54404,2.994042 -1.32342,3.915325 -0.66472,0.785757 -7.027116,5.050608 -11.936745,8.001462 -1.848,1.110711 -5.085434,3.31009 -7.194298,4.887511 -2.108861,1.57742 -4.124861,2.9979 -4.480001,3.15662 -0.355136,0.15872 -1.02256,0.538445 -1.483161,0.843834 -0.460605,0.305386 -1.900605,1.198502 -3.2,1.984701 -1.299399,0.786198 -2.434541,1.507017 -2.522541,1.601821 -0.088,0.0948 -0.7,0.574876 -1.36,1.066832 -0.66,0.491955 -1.2,1.051033 -1.2,1.242393 0,0.19136 0.580294,0.977475 1.289542,1.746919 1.030403,1.117852 1.227229,1.51543 0.979446,1.978419 -0.291478,0.544627 -2.810758,1.906237 -3.005193,1.624233 -1.775069,-2.574492 -2.463796,-2.967593 -2.463796,-1.406243 0,1.322743 -0.6751,2.325859 -2.059628,3.060349 -1.260525,0.668707 -1.391837,0.680134 -2.278983,0.198355 -0.517763,-0.281177 -1.247802,-0.677376 -1.622307,-0.880441 -0.951236,-0.515776 -2.745908,0.374931 -3.471981,1.723168 -0.522835,0.970851 -0.523831,1.106361 -0.01686,2.303142 0.296256,0.699379 0.61471,2.2796 0.707673,3.5116 0.155328,2.058525 0.08854,2.391702 -0.824441,4.112496 -1.519469,2.86392 -1.382298,3.168035 1.806576,4.005248 2.784374,0.731011 4.597936,2.072422 5.355651,3.961336 1.01394,2.52765 0.5357,4.55651 -1.644595,6.97692 -0.677101,0.75167 -1.087094,1.41614 -0.911094,1.4766 1.111475,0.38184 2.4,1.46339 2.4,2.01448 0,0.38819 -0.4057,0.85814 -1.04,1.2047 -0.921031,0.50322 -1.807642,0.55685 -7.750545,0.46886 -4.115642,-0.0609 -6.868874,-0.23077 -7.12,-0.43918 -0.798189,-0.66245 -0.41848,-1.71663 1.1884,-3.29935 3.358483,-3.30798 2.220886,-6.0164 -2.526893,-6.01609 -2.112186,1.4e-4 -6.034231,0.76728 -7.9056,1.54631 -1.435728,0.59767 -1.62242,2.00931 -0.896548,6.77909 0.128938,0.84724 0.426084,1.1656 1.664074,1.78287 2.528727,1.26084 2.705616,3.47771 0.293946,3.68388 -0.631591,0.054 -1.581856,-0.12601 -2.1117,-0.4 -1.442176,-0.74578 -2.478467,-0.61017 -4.137478,0.54141 -3.05441,2.12019 -3.446039,2.20477 -4.647229,1.00358 z m -1.948008,-9.22 C 28.663193,108.15442 27.550695,107.46 26.510206,106.8 c -1.917172,-1.21609 -2.99118,-1.52826 -2.752373,-0.8 0.174537,0.53227 2.327899,1.93528 3.922168,2.55547 1.350149,0.52522 2.290592,0.37191 1.302422,-0.21231 z M 61.201629,105.76 c -0.09627,-0.39306 -6.161626,-0.61446 -6.161626,-0.22492 0,0.15304 0.101021,0.37927 0.224489,0.50274 0.353645,0.35365 6.026778,0.0882 5.937137,-0.27782 z m 2.798374,0.16 c 0,-0.176 -0.396,-0.3178 -0.88,-0.3151 -0.685741,0.004 -0.774038,0.0734 -0.4,0.3151 0.62609,0.40461 1.28,0.40461 1.28,0 z m -23.360001,-5.46698 c -0.968,-0.12759 -2.48,-0.460162 -3.36,-0.739042 -1.946618,-0.616896 -2.251283,-0.635584 -1.702858,-0.104458 1.017063,0.98498 2.403386,1.34988 4.608317,1.21299 l 2.214541,-0.13749 z m -9.92,-6.05302 c 0,-0.176 -0.144,-0.32 -0.32,-0.32 -0.176,0 -0.320001,0.144 -0.320001,0.32 0,0.176 0.144001,0.32 0.320001,0.32 0.176,0 0.32,-0.144 0.32,-0.32 z M 48.80055,93.439878 c 3.122745,-0.699824 9.119453,-4.106915 9.119453,-5.181312 0,-0.454934 -2.232365,-2.467788 -3.63425,-3.276892 -1.195293,-0.689869 -4.124992,-1.411626 -7.779651,-1.916586 -3.457313,-0.477693 -11.268686,2.284083 -13.785921,4.874128 -0.748099,0.769738 -1.360179,1.574058 -1.360179,1.787379 0,0.726032 2.075088,2.370352 3.68,2.916064 3.876803,1.318221 9.883021,1.666192 13.760548,0.797219 z m -6.249345,-0.861331 c -1.121433,-0.76744 -1.260787,-1.049408 -1.266304,-2.562262 -0.0042,-1.153971 0.148234,-1.460515 1.079552,-2.170867 0.698628,-0.532868 1.681792,-0.897898 2.763418,-1.026 1.406858,-0.166621 1.762685,-0.346048 2.195546,-1.107111 0.62256,-1.094589 0.857219,-1.13064 1.351213,-0.207603 0.280979,0.525008 0.283849,0.735805 0.01126,0.826666 -0.556256,0.18542 -0.444708,0.647993 0.434112,1.800185 0.896956,1.175971 0.971942,1.700957 0.41694,2.919056 -0.835945,1.834698 -5.156566,2.779715 -6.985737,1.527936 z m 3.175428,-2.311152 C 46.346412,89.874954 45.921874,88.96 45.120002,88.96 c -0.801872,0 -1.226409,0.914954 -0.60663,1.307395 0.245648,0.155543 0.51863,0.282803 0.60663,0.282803 0.088,0 0.360983,-0.12726 0.606631,-0.282803 z M 40.960002,86.56 c 0,-0.264 0.229482,-0.48 0.509958,-0.48 0.280477,0 0.586778,-0.293757 0.680669,-0.652794 0.159415,-0.609603 0.209162,-0.61799 0.751984,-0.126742 0.475104,0.429962 0.512064,0.63687 0.202359,1.13279 -0.463511,0.742199 -2.14497,0.841556 -2.14497,0.126746 z m -11.169991,5.82201 c -0.253346,-0.253348 -0.35001,-0.170314 -0.35001,0.300656 0,0.846 0.447506,1.295052 0.59001,0.592051 0.06051,-0.298483 -0.04749,-0.700202 -0.24,-0.892707 z M 57.180588,80.08 c -0.08049,-0.308 -0.146345,-0.056 -0.146345,0.56 0,0.616 0.06586,0.868 0.146345,0.56 0.08049,-0.308 0.08049,-0.812 0,-1.12 z m 0.739415,-1.698886 c 0,-0.362388 -0.137712,-0.573776 -0.306026,-0.469751 -0.168313,0.104023 -0.224905,0.400522 -0.125763,0.658887 0.253834,0.661475 0.431789,0.583526 0.431789,-0.189136 z m 14.400001,-0.684013 c 0,-0.411968 -4.707185,-5.291696 -5.544221,-5.747447 -1.048375,-0.570819 -0.108135,0.687764 2.189155,2.930346 1.171907,1.144 2.261946,2.412666 2.422304,2.819254 0.28048,0.711156 0.932762,0.709652 0.932762,-0.0022 z m -4.375818,-1.347034 c 0.09496,-0.247465 -0.105632,-0.701782 -0.445763,-1.009597 -0.589552,-0.533539 -0.649284,-0.531731 -1.279626,0.03872 -0.624621,0.565274 -0.63009,0.621136 -0.09884,1.009597 0.740561,0.541511 1.608644,0.523085 1.824229,-0.03872 z m 81.306984,40.745183 c -0.54387,-0.15787 -1.38821,-0.65716 -1.87633,-1.10953 -1.08025,-1.00114 -0.98425,-1.90069 0.45189,-4.23472 1.02892,-1.67221 1.2766,-3.47953 0.57328,-4.18319 -0.27591,-0.27605 -0.39164,-1.51198 -0.37304,-3.984 0.0227,-3.01305 0.13735,-3.798376 0.72,-4.931061 0.38117,-0.740989 0.69304,-1.539763 0.69304,-1.775056 0,-0.235293 -0.55102,-0.965863 -1.22449,-1.623485 -0.67346,-0.657622 -1.41778,-1.688317 -1.65403,-2.290432 -0.23625,-0.602118 -0.55623,-1.016467 -0.71105,-0.920778 -0.15483,0.09569 -0.11946,0.369232 0.0786,0.607879 0.19806,0.238643 0.31305,0.765821 0.25554,1.17151 -0.14975,1.056368 -1.13399,1.083933 -4.19838,0.117578 -3.10066,-0.977792 -8.59929,-1.797783 -10.41887,-1.553728 -1.8763,0.251667 -4.1509,-0.162899 -4.50294,-0.820701 -0.51535,-0.962931 0.53025,-2.551491 2.2545,-3.425232 1.14689,-0.581174 2.05296,-0.780176 3.55049,-0.779808 4.08803,9.6e-4 11.80141,1.95487 12.55946,3.181414 0.40685,0.658301 0.72903,0.322269 0.89786,-0.93647 0.28025,-2.08936 1.49705,-4.155434 3.97463,-6.748678 1.28627,-1.346333 2.33869,-2.520743 2.33869,-2.609799 0,-0.08905 -0.5535,-0.528201 -1.22999,-0.975885 -1.29742,-0.858588 -2.21669,-2.411312 -2.51465,-4.247427 -0.10282,-0.633609 -0.3657,-1.103651 -0.61723,-1.103651 -0.24097,0 -0.42108,0.108 -0.40024,0.24 0.11465,0.726096 -0.16964,1.090234 -1.42601,1.826512 -2.47836,1.452416 -3.65681,0.902288 -3.18471,-1.48671 l 0.27266,-1.379802 1.70837,-0.209709 c 0.9396,-0.115341 1.94282,-0.444169 2.22938,-0.730733 0.48136,-0.48136 0.38458,-0.516563 -1.27143,-0.462448 -0.98585,0.03221 -1.95753,-0.04346 -2.1593,-0.168153 -0.20349,-0.125763 -0.36685,-1.006531 -0.36685,-1.977885 0,-2.135936 0.62787,-2.600086 1.75026,-1.293875 0.84835,0.987286 3.02413,2.762803 3.38563,2.762803 0.13634,0 0.85828,-0.9 1.60432,-2 1.76644,-2.604554 2.44473,-3.268944 4.46562,-4.374074 1.06793,-0.584 2.38527,-1.760966 3.6346,-3.247318 1.07776,-1.282227 2.14598,-2.392099 2.37382,-2.466384 0.25274,-0.0824 0.67654,0.485754 1.08697,1.45719 l 0.6727,1.592253 4.19304,-0.156601 c 3.53881,-0.132167 4.29151,-0.250877 4.82415,-0.760832 0.61998,-0.593578 0.55117,-0.604234 -3.90111,-0.604234 -4.18802,0 -5.48004,-0.237565 -4.51976,-0.831053 0.3219,-0.198941 6.70904,-0.696614 9.65101,-0.751984 0.79118,-0.01488 0.88889,-0.124445 0.8,-0.896963 -0.10005,-0.869549 -0.12595,-0.878986 -2.18125,-0.79463 -1.144,0.04696 -7.048,0.222521 -13.12,0.390147 -11.67085,0.322192 -20.01385,0.992198 -22.38678,1.79783 -1.22504,0.415911 -4.16655,2.835997 -3.81206,3.136323 0.16552,0.140237 12.42311,-0.992172 17.07884,-1.57782 2.112,-0.265671 4.2,-0.478314 4.64,-0.472541 1.06843,0.01402 1.85117,0.518848 1.43732,0.927017 -0.42969,0.423805 -6.32741,1.08418 -15.99732,1.791242 -2.211,0.161667 -6.10115,0.628554 -8.08,0.969741 -1.20262,0.207353 -1.36,0.164566 -1.36,-0.369744 0,-0.582413 4.09057,-4.917565 4.64012,-4.917565 0.14822,0 0.54791,-0.252 0.88821,-0.56 0.42866,-0.387968 1.41943,-0.624211 3.2252,-0.769018 1.43355,-0.11496 5.27047,-0.436 8.52647,-0.713424 3.256,-0.27742 8.008,-0.511628 10.56,-0.520454 2.552,-0.0088 7.22608,-0.14696 10.38684,-0.306963 l 5.74685,-0.290915 0.89315,-1.022976 c 0.49124,-0.562637 0.89316,-1.147463 0.89316,-1.299613 0,-0.152151 0.65944,-0.276637 1.46543,-0.276637 1.46177,0 1.4649,0.0022 1.25457,0.96 -0.19996,0.91041 -0.15582,0.962605 0.85457,1.01041 1.18861,0.05624 1.57536,0.024 3.03755,-0.253213 0.63646,-0.120666 1.39163,-0.0026 2.03461,0.318195 0.74913,0.373718 1.18558,0.4228 1.63254,0.18359 0.41583,-0.222547 0.99061,-0.220803 1.80539,0.0055 0.65744,0.182583 1.64102,0.332775 2.18574,0.333754 1.16097,0.0022 2.05048,0.847942 2.04749,1.946982 -0.002,0.877623 -0.64491,1.926423 -2.15641,3.519933 -0.80753,0.851341 -1.04138,1.379578 -1.0514,2.374871 -0.0258,2.566492 -0.98478,5.579529 -2.71584,8.533129 -0.61283,1.045639 -1.11424,2.134573 -1.11424,2.419853 0,0.285283 -1.24771,1.735888 -2.77268,3.223568 -2.3329,2.275843 -2.71403,2.787238 -2.40286,3.22416 1.70502,2.39407 2.11692,3.703494 2.12625,6.75929 0.008,2.751296 -0.0763,3.191785 -0.89193,4.638268 l -0.90122,1.598269 0.74747,0.641731 c 0.41111,0.352954 1.10539,0.929732 1.54283,1.281732 2.26263,1.820649 2.5504,4.269618 0.7923,6.742428 l -1.11985,1.57509 1.67985,0.80124 c 1.31041,0.62503 1.70099,0.98321 1.77602,1.62864 0.13135,1.13 -0.44307,1.51256 -3.10432,2.06745 -1.99578,0.41613 -2.80507,0.41875 -6.51535,0.0211 -4.16804,-0.44671 -6.63651,-1.13373 -6.63651,-1.84707 0,-0.19939 0.64854,-1.05586 1.4412,-1.90327 2.06549,-2.20818 2.35318,-2.96486 1.54169,-4.05486 -0.35655,-0.47892 -1.03245,-1.007578 -1.50201,-1.174797 -1.22158,-0.435031 -5.08131,0.293699 -6.95398,1.312937 -2.00985,1.0939 -4.61475,3.42007 -5.24531,4.68405 -0.27629,0.55383 -0.79099,2.81149 -1.14378,5.01701 -0.89974,5.62487 -1.77261,6.63854 -5.73781,6.66332 -0.792,0.005 -1.88498,-0.12017 -2.42884,-0.27803 z m 6.57547,-9.48607 0.81337,-0.20956 -0.8,-0.22791 c -1.18739,-0.33828 -4.88892,-0.32686 -5.4323,0.0168 -1.28174,0.81053 2.70469,1.12003 5.41893,0.42071 z m 10.89337,-15.461455 c 2.376,-0.166704 5.328,-0.44529 6.56,-0.619085 1.232,-0.173792 3.28957,-0.410128 4.57237,-0.52519 1.28281,-0.115063 2.28721,-0.344708 2.232,-0.510327 -0.11569,-0.347069 -0.10254,-0.346557 -2.64437,-0.102816 -3.9233,0.376211 -5.32526,0.45225 -14.4,0.781024 -11.06911,0.401031 -15.04972,0.681539 -13.92,0.980928 1.25742,0.333232 12.82834,0.33025 17.6,-0.0045 z m 9.28,-13.926611 c 0,-0.274388 -0.144,-0.409888 -0.32,-0.301114 -0.176,0.108774 -0.32,0.333274 -0.32,0.498886 0,0.165613 0.144,0.301114 0.32,0.301114 0.176,0 0.32,-0.224499 0.32,-0.498886 z m -9.62054,-2.208148 c 1.59578,-1.007372 1.80003,-1.364233 1.17569,-2.054128 -1.25231,-1.383785 -0.88106,-3.834947 0.72001,-4.753833 0.50652,-0.290704 1.09314,-1.004755 1.3036,-1.586778 0.45021,-1.245024 1.17271,-1.370432 1.66541,-0.289072 0.48068,1.054976 2.06624,1.274893 3.23583,0.44881 0.94416,-0.666864 1.12446,-1.172314 0.48,-1.345613 -0.22,-0.05916 -1.336,-0.416099 -2.48,-0.793197 -2.2235,-0.732934 -5.17406,-0.885443 -7.4583,-0.385504 -0.73794,0.161507 -2.18038,0.475066 -3.20542,0.6968 -3.30927,0.71584 -8.53628,4.341882 -8.53628,5.921722 0,0.975721 0.6951,1.745094 2.33149,2.580592 1.82778,0.933219 3.082,1.269635 6.46851,1.735017 1.232,0.169303 2.384,0.364944 2.56,0.434759 0.176,0.06981 0.35886,0.138301 0.40636,0.152195 0.0475,0.01389 0.64739,-0.328902 1.3331,-0.76177 z M 162.29928,68.88 c 0.0646,-0.340515 0.45567,-0.60023 0.99784,-0.662643 0.71689,-0.08253 0.85324,-0.223635 0.6957,-0.72 -0.23215,-0.731453 0.32814,-0.822122 0.99005,-0.160215 0.78965,0.789652 0.52732,1.413284 -0.74286,1.766032 -1.67697,0.465719 -2.06296,0.421332 -1.94073,-0.223174 z m 16.51724,5.28 c 0.35185,-0.572 0.99665,-1.544 1.43288,-2.16 1.88767,-2.665539 3.11061,-4.748131 3.11061,-5.297149 0,-0.367184 -0.55608,0.173319 -1.46877,1.42761 -2.09109,2.873776 -4.29123,6.322016 -4.29123,6.725574 0,0.666407 0.58397,0.332285 1.21651,-0.696035 z m -7.03407,-3.04143 c 0.1246,-0.87744 -0.59799,-1.224023 -1.5215,-0.729776 -0.55133,0.295062 -0.60824,0.47176 -0.32336,1.00406 0.46866,0.8757 1.70772,0.691482 1.84486,-0.274284 z m 14.45756,-8.020861 c 0,-0.144263 -0.324,-0.563171 -0.72,-0.930912 -0.396,-0.367741 -0.97872,-1.041709 -1.29494,-1.497709 -0.63942,-0.922074 -1.18506,-1.082806 -1.18506,-0.349088 0,0.266666 0.28444,0.48 0.64,0.48 0.51562,0 0.64,0.213334 0.64,1.097744 0,1.096906 0.0252,1.118211 1.68,1.418678 0.132,0.02397 0.24,-0.07445 0.24,-0.218713 z m -9.79562,-5.608976 c 0.66449,-1.73993 0.67565,-3.088733 0.0256,-3.088733 -0.62527,0 -0.66297,0.107066 -1.32614,3.766422 -0.27802,1.534061 0.63821,1.056637 1.30056,-0.677689 z m -61.90984,55.489187 c -1.62431,-0.29845 -4.03363,-1.42527 -4.77454,-2.23302 -0.9567,-1.04299 -4.34983,-3.7789 -5.6,-4.51532 -0.704,-0.41469 -1.98729,-1.36504 -2.85175,-2.11187 -1.801605,-1.55648 -3.921724,-2.35771 -6.238649,-2.35771 -1.656026,0 -3.61727,0.8334 -4.408538,1.87335 -0.671232,0.88219 -0.471139,2.54316 0.565242,4.69203 1.526682,3.16547 1.543414,3.1499 -3.709994,3.45222 -5.829674,0.33548 -13.038282,0.13651 -13.205277,-0.36448 -0.06841,-0.20522 -0.312967,-0.37312 -0.543469,-0.37312 -0.679155,0 -0.860832,-0.99105 -0.330151,-1.80097 0.585997,-0.89435 2.451869,-1.89921 4.100999,-2.20859 0.653757,-0.12264 1.263642,-0.34433 1.355296,-0.49263 0.09165,-0.1483 -0.06342,-0.81598 -0.344605,-1.48372 -0.435734,-1.03477 -0.45064,-1.39941 -0.100915,-2.46877 0.489517,-1.4968 2.532144,-3.556789 4.010653,-4.044741 0.583632,-0.192617 1.061152,-0.456102 1.061152,-0.585526 0,-0.129424 -0.421536,-0.639171 -0.936749,-1.132778 -1.383718,-1.325683 -1.707427,-2.398326 -1.572777,-5.211529 0.110873,-2.316416 0.212867,-2.62513 1.457251,-4.410746 0.735917,-1.056 1.849734,-2.350627 2.475152,-2.87695 1.279834,-1.077047 1.362042,-1.443543 0.609546,-2.717421 -0.415005,-0.702547 -0.823709,-0.926499 -1.915386,-1.049546 -1.880499,-0.211961 -2.922064,-0.968118 -3.639738,-2.642384 -1.372064,-3.200896 -1.086093,-6.464118 0.737975,-8.421008 1.235731,-1.325712 3.735318,-2.408758 5.584726,-2.419801 l 1.68,-0.01005 v -1.051431 c 0,-1.389939 0.502448,-1.327328 1.83424,0.228573 1.533146,1.791139 1.932026,1.685322 1.753687,-0.465219 -0.204781,-2.469415 0.06187,-3.245869 1.257898,-3.662803 0.555321,-0.193588 1.060192,-0.351978 1.121926,-0.351978 0.224042,0 0.103837,1.442205 -0.27177,3.260717 -0.443987,2.149565 -0.153302,2.775894 0.934653,2.013859 0.456285,-0.319594 0.808711,-1.092253 1.056845,-2.317034 0.487063,-2.404131 0.847491,-3.279577 1.345661,-3.26848 0.223773,0.005 1.113978,0.665904 1.978227,1.468711 1.465089,1.360925 1.659879,1.446832 2.879999,1.270089 3.5674,-0.516758 5.33198,-0.55983 7.81305,-0.190707 l 2.70626,0.402624 2.19613,-1.062422 c 2.99981,-1.451216 3.27009,-1.144823 1.97735,2.2416 l -0.97326,2.549542 0.71841,1.215751 c 0.98428,1.665683 2.12722,5.989136 1.8688,7.069219 -0.54348,2.271529 -1.98991,4.784192 -3.43633,5.969421 l -1.493,1.223404 1.61147,1.703888 c 1.50769,1.59416 1.59869,1.783786 1.41307,2.944554 -0.18355,1.147875 -0.13014,1.266112 0.71415,1.58088 3.49918,1.304573 4.71292,1.857699 6.53295,2.977187 1.13277,0.696762 2.17936,1.266919 2.32574,1.267018 0.14639,9.9e-5 1.15439,0.524845 2.24,1.166102 1.08562,0.641258 2.76585,1.595075 3.73385,2.119594 0.968,0.524518 2.11579,1.294918 2.55065,1.712 1.31297,1.259301 0.4967,1.662781 -4.12834,2.040661 -4.46001,0.36439 -3.89965,0.53496 -7.82689,-2.382431 -1.17295,-0.871341 -3.28391,-2.041597 -4.69101,-2.600569 l -2.55837,-1.016314 -0.79504,0.625386 c -1.63539,1.286396 -1.59577,1.572563 0.64109,4.630128 3.72915,5.09736 4.46269,5.92458 5.81991,6.56312 1.39052,0.6542 3.948,3.0056 3.948,3.62987 0,0.43685 -1.16036,1.52825 -2.19026,2.0601 -0.93927,0.48505 -6.1192,0.70985 -8.0752,0.35046 z m -2.92516,-8.54958 c 0.92916,-0.1099 1.77557,-0.33928 1.88092,-0.50973 0.11918,-0.19284 -0.39815,-0.24017 -1.36938,-0.12527 -0.85851,0.10156 -2.31692,0.27512 -3.24092,0.38568 -0.924,0.11057 -1.68,0.35048 -1.68,0.53314 0,0.21002 0.49996,0.25562 1.36,0.12405 0.748,-0.11443 2.12022,-0.29797 3.04938,-0.40787 z m -22.705677,-0.58538 c 0.09549,-0.0955 0.01517,-0.33209 -0.178512,-0.52576 -0.256182,-0.25619 -0.911494,-0.25473 -2.40488,0.005 -1.129008,0.1966 -2.940947,0.35746 -4.026528,0.35746 -1.278589,0 -1.973789,0.13012 -1.973789,0.36943 0,0.2707 1.12377,0.31568 4.205043,0.16829 2.312772,-0.11063 4.283172,-0.27927 4.378666,-0.37476 z m 43.044757,-4.322758 c 0.28013,-0.259956 -1.18451,-1.154496 -6.02846,-3.681908 -1.584,-0.82648 -3.54297,-1.921718 -4.35327,-2.433862 -0.8103,-0.512144 -2.21177,-1.150483 -3.11439,-1.418534 -2.03979,-0.605751 -10.79667,-4.661415 -14.77234,-6.841664 -2.7092,-1.485712 -3.16129,-1.617229 -3.701691,-1.076836 -0.274701,0.274704 -0.382199,0.611024 -0.238887,0.747383 0.143315,0.136358 1.700578,0.979392 3.460578,1.873408 3.24575,1.648726 5.55557,2.913865 8.16,4.469411 1.66786,0.99617 4.70803,2.489421 7.68,3.772227 2.11313,0.912103 5.87331,3.341415 6.31662,4.080931 0.54796,0.91409 1.52487,1.151962 3.92338,0.955325 1.32,-0.108217 2.5208,-0.308864 2.66846,-0.445881 z M 94.240005,95.698045 c 0.758669,-0.304624 -2.920861,-0.79224 -4.481293,-0.593869 -0.804404,0.102262 -0.675437,0.178042 0.801293,0.470835 2.166246,0.429507 2.85903,0.452669 3.68,0.123034 z m -6.956269,-1.197911 c -0.305949,-0.08009 -0.881949,-0.083 -1.280001,-0.0065 -0.398051,0.07654 -0.147731,0.142074 0.556269,0.145626 0.704,0.0036 1.02968,-0.05908 0.723732,-0.139168 z m -2.483732,-0.236697 c 0,-0.07511 -0.430717,-0.351434 -0.957152,-0.614051 -1.024269,-0.510973 -1.678474,-0.151207 -0.729577,0.401216 0.56615,0.3296 1.686729,0.470998 1.686729,0.212835 z m 7.821162,-0.653261 c -0.341638,-0.2584 -0.776061,-0.4744 -0.965382,-0.48 C 91.11835,93.114304 89.997915,91.784627 89.4825,90.551062 88.987288,89.36585 89.202852,87.10001 89.942267,85.7184 c 0.286128,-0.534634 0.271539,-0.645187 -0.07119,-0.539434 -0.647133,0.19968 -1.871076,2.812173 -1.871076,3.993783 0,2.031635 1.222704,3.673715 3.338004,4.482905 1.436493,0.54952 2.041465,0.528077 1.283158,-0.04548 z m 6.170228,-9.840931 c 1.987506,-1.969843 2.433736,-2.897635 1.555696,-3.23457 -0.469882,-0.180313 -3.281812,2.552771 -3.992333,3.880391 C 95.992318,85.092285 96.09932,85.76 96.57028,85.76 c 0.116877,0 1.116381,-0.89584 2.221114,-1.990755 z M 90.4586,84.1 c -0.102151,-0.255274 -0.177978,-0.17945 -0.193332,0.193334 -0.01389,0.337332 0.06174,0.526333 0.168071,0.42 0.106333,-0.106332 0.117699,-0.382336 0.02525,-0.613334 z m -0.538596,-1.22 c 0,-0.355555 -0.213334,-0.64 -0.48,-0.64 -0.266665,0 -0.48,0.284445 -0.48,0.64 0,0.355555 0.213335,0.64 0.48,0.64 0.266666,0 0.48,-0.284445 0.48,-0.64 z m 24.429926,-2.538534 c 2.40388,-1.030426 3.12149,-3.330612 2.1122,-6.770359 -1.03532,-3.52848 -2.07578,-3.9668 -9.42212,-3.969337 -4.90709,-0.0016 -5.21316,0.03645 -7.360005,0.917363 -2.404439,0.986605 -4.958496,2.449625 -4.959427,2.840867 -3.17e-4,0.132 0.251427,0.505277 0.559427,0.829501 0.308,0.324224 1.121725,1.277638 1.808275,2.118697 1.656727,2.029572 4.67804,3.449847 9.15173,4.302096 3.78757,0.721546 5.96809,0.649264 8.10992,-0.268828 z m -6.07342,-0.395735 c -0.77015,-0.372915 -1.3965,-1.542585 -1.3965,-2.607878 0,-1.058215 1.80619,-3.097853 2.74329,-3.097853 0.54874,0 0.77671,-0.177795 0.77671,-0.605763 0,-0.333171 0.216,-0.68865 0.48,-0.789959 0.264,-0.101305 0.48,-0.41671 0.48,-0.700902 0,-0.284189 0.18,-0.455264 0.4,-0.380163 0.22219,0.07585 0.4,0.656768 0.4,1.306877 0,0.852032 0.13713,1.170272 0.50422,1.170121 0.74113,-3.1e-4 1.89578,1.364365 1.89578,2.240611 0,1.067914 -1.25376,2.787328 -2.44837,3.357716 -1.14721,0.54776 -2.82822,0.594745 -3.83513,0.107193 z M 111.94085,77.04 c 0.085,-0.448646 -0.12129,-0.56 -1.03738,-0.56 -0.94184,0 -1.14346,0.116429 -1.14346,0.660275 0,0.551872 0.17031,0.643811 1.03737,0.56 0.68322,-0.06604 1.0736,-0.291459 1.14347,-0.660275 z m -8.26084,-3.273904 c 0,-0.260646 0.36,-0.564256 0.8,-0.674691 0.50061,-0.125645 0.8,-0.427309 0.8,-0.806096 0,-0.784611 0.52557,-0.777047 0.94874,0.01366 0.51458,0.961501 0.40814,1.211629 -0.6765,1.589731 -1.36312,0.475178 -1.87224,0.44184 -1.87224,-0.122608 z M 88.5386,78.66 c -0.102151,-0.255274 -0.177978,-0.17945 -0.193332,0.193334 -0.01389,0.337332 0.06174,0.526333 0.168071,0.42 0.106333,-0.106336 0.117699,-0.382336 0.02525,-0.613334 z m 5.454739,-2.053334 c -0.106333,-0.106333 -0.382336,-0.1177 -0.613334,-0.02525 -0.255274,0.10215 -0.17945,0.177977 0.193334,0.193331 0.337331,0.01389 0.526333,-0.06174 0.42,-0.168071 z m -3.197805,-6.873184 c 0.07433,-0.446285 -1.426742,-1.768935 -1.698803,-1.496874 -0.07673,0.07672 0.0913,0.60215 0.373389,1.167613 0.511056,1.024438 1.181875,1.191085 1.325414,0.329261 z M 11.418417,107.44 C 11.132392,106.23543 10.782643,94.831466 11.004603,93.947107 11.14621,93.382899 11.427898,93.12 11.890819,93.12 c 1.382659,0 1.528191,0.716195 1.539005,7.57383 0.0056,3.5496 -0.07723,6.6816 -0.18406,6.96 -0.303764,0.79159 -1.625328,0.63695 -1.827347,-0.21383 z m 62.181587,-7.56233 c -3.647946,-1.323382 -6.030503,-3.37014 -6.760909,-5.808025 -0.566897,-1.892135 0.0049,-4.401533 1.384403,-6.0752 1.565165,-1.898973 2.366352,-1.985421 3.759309,-0.405619 0.625459,0.70935 1.564422,2.136054 2.086589,3.170451 2.01648,3.994605 3.188173,5.380784 5.530608,6.543027 1.641082,0.814253 1.724307,1.41689 0.279066,2.020752 -0.594516,0.248403 -1.179015,0.610336 -1.298887,0.804294 -0.315037,0.50974 -3.299226,0.36013 -4.980179,-0.24968 z M 10.811503,80.56 c -0.191094,-0.558061 -0.07229,-8.157549 0.211354,-13.52 0.197889,-3.741158 0.153881,-4.673802 -0.266846,-5.65513 -0.443987,-1.03558 -0.465916,-2.166768 -0.184666,-9.525593 0.222128,-5.811917 0.215939,-8.996538 -0.02036,-10.475703 -0.186729,-1.16888 -0.259659,-2.498364 -0.162066,-2.954406 0.414937,-1.93895 0.670015,-26.21198 0.326497,-31.069168 -0.296046,-4.1859671 -0.22328,-4.2601345 4.492825,-4.5793896 4.657305,-0.3152746 13.954727,-0.404124 27.19176,-0.259854 5.456,0.059465 14.240001,0.056621 19.520001,-0.00632 5.28,-0.06294 12.336001,-0.01418 15.680001,0.1083564 3.344,0.1225365 6.622221,0.101344 7.284938,-0.047094 0.662717,-0.1484384 4.694717,-0.1449752 8.96,0.0077 4.265284,0.1526712 12.452609,0.2972757 18.194049,0.3213434 9.58992,0.0402 10.51111,-0.00349 11.32558,-0.5371565 1.05356,-0.6903193 2.1251,-0.7056144 11.35544,-0.1620865 11.91486,0.7016061 14.46246,0.7608946 16.14807,0.3758024 1.05701,-0.2414832 7.06497,-0.4080508 17.45193,-0.4838454 8.712,-0.063572 17.136,-0.2470567 18.72,-0.4077432 2.28342,-0.2316385 2.97943,-0.2029178 3.36,0.1386508 0.52649,0.472536 1.0977,4.0757109 1.58714,10.0116402 0.16688,2.024 0.30398,11.919778 0.30467,21.990618 9.6e-4,16.362697 -0.0532,18.36511 -0.511,18.822857 -0.46154,0.461543 -0.56108,0.463399 -1.00572,0.01875 -0.39462,-0.394621 -0.52457,-1.63319 -0.64871,-6.182857 -0.0854,-3.129159 -0.15049,-6.55338 -0.14469,-7.60938 0.0745,-13.562672 0.0223,-19.841261 -0.20599,-24.8 -0.24567,-5.3351132 -0.73255,-9.4635202 -1.16737,-9.898341 -0.25356,-0.2535504 -27.42638,0.00545 -33.18798,0.3163344 -5.3632,0.2893875 -13.70556,0.3729101 -14.38973,0.1440678 -0.21484,-0.071861 -3.81627,-0.2918365 -8.00316,-0.4888336 -7.51214,-0.3534525 -7.63137,-0.3490653 -9.03956,0.3326269 -1.29005,0.6245037 -1.97219,0.6932445 -7.10746,0.7162378 -3.12424,0.013998 -9.92844,-0.1045213 -15.12044,-0.263368 C 96.568005,4.7798682 90.880005,4.6551664 89.120004,4.6615994 c -11.333459,0.041426 -57.997501,0.068169 -62.880003,0.036036 -3.256,-0.021428 -7.537229,0.086681 -9.513842,0.2402419 -4.208739,0.3269735 -4.129704,0.2435674 -3.630677,3.8314314 0.226137,1.6258673 0.2345,5.7440203 0.02618,12.8899333 -0.478462,16.412297 -0.487075,37.974323 -0.01609,40.28647 0.302359,1.484339 0.313335,2.622525 0.04629,4.8 -0.192528,1.569859 -0.350457,5.095136 -0.350953,7.833949 -8.32e-4,4.568355 -0.05479,5.037507 -0.653367,5.68 C 11.40857,81.052848 11.010881,81.14225 10.811505,80.56 Z"
       style="fill:#000000;stroke-width:0.32" />
  </g>
</svg>
