<?xml version="1.0" encoding="UTF-8" standalone="no"?>
<svg
   xmlns:dc="http://purl.org/dc/elements/1.1/"
   xmlns:cc="http://creativecommons.org/ns#"
   xmlns:rdf="http://www.w3.org/1999/02/22-rdf-syntax-ns#"
   xmlns:svg="http://www.w3.org/2000/svg"
   xmlns="http://www.w3.org/2000/svg"
   xmlns:sodipodi="http://sodipodi.sourceforge.net/DTD/sodipodi-0.dtd"
   xmlns:inkscape="http://www.inkscape.org/namespaces/inkscape"
   inkscape:version="1.0 (4035a4fb49, 2020-05-01)"
   sodipodi:docname="heathcannon.svg"
   viewBox="0 0 47.217716 70.385788"
   height="70.385788"
   width="47.217716"
   id="svg903"
   version="1.1">
  <style
     id="style939"></style>
  <metadata
     id="metadata909">
    <rdf:RDF>
      <cc:Work
         rdf:about="">
        <dc:format>image/svg+xml</dc:format>
        <dc:type
           rdf:resource="http://purl.org/dc/dcmitype/StillImage" />
        <dc:title></dc:title>
      </cc:Work>
    </rdf:RDF>
  </metadata>
  <defs
     id="defs907">
    <filter
       id="filter983"
       inkscape:label="Duochrome"
       style="color-interpolation-filters:sRGB">
      <feColorMatrix
         id="feColorMatrix963"
         result="colormatrix1"
         type="luminanceToAlpha" />
      <feFlood
         id="feFlood965"
         result="flood1"
         flood-color="rgb(0,0,0)"
         flood-opacity="1" />
      <feComposite
         id="feComposite967"
         result="composite1"
         operator="out"
         in2="colormatrix1" />
      <feFlood
         id="feFlood969"
         result="flood2"
         flood-color="rgb(255,255,255)"
         flood-opacity="1" />
      <feComposite
         id="feComposite971"
         operator="in"
         result="composite2"
         in2="colormatrix1" />
      <feComposite
         k4="0"
         k1="0"
         id="feComposite973"
         result="composite3"
         operator="arithmetic"
         k3="1"
         k2="1"
         in2="composite1"
         in="composite2" />
      <feColorMatrix
         id="feColorMatrix975"
         result="colormatrix2"
         values="2 -1 0 0 0 0 2 -1 0 0 -1 0 2 0 0 0 0 0 1 0 "
         type="matrix"
         in="composite3" />
      <feComposite
         k4="0"
         k3="0"
         k1="0"
         id="feComposite977"
         result="composite4"
         k2="1.5425"
         operator="arithmetic"
         in2="composite3"
         in="colormatrix2" />
      <feBlend
         id="feBlend979"
         result="blend"
         mode="normal"
         in2="composite3"
         in="composite4" />
      <feComposite
         id="feComposite981"
         operator="in"
         in2="SourceGraphic" />
    </filter>
    <filter
       id="filter1138"
       inkscape:label="Duochrome"
       style="color-interpolation-filters:sRGB;">
      <feColorMatrix
         id="feColorMatrix1118"
         result="colormatrix1"
         type="luminanceToAlpha" />
      <feFlood
         id="feFlood1120"
         result="flood1"
         flood-color="rgb(0,0,0)"
         flood-opacity="1" />
      <feComposite
         id="feComposite1122"
         result="composite1"
         operator="out"
         in2="colormatrix1" />
      <feFlood
         id="feFlood1124"
         result="flood2"
         flood-color="rgb(255,255,255)"
         flood-opacity="1" />
      <feComposite
         id="feComposite1126"
         operator="in"
         result="composite2"
         in2="colormatrix1" />
      <feComposite
         id="feComposite1128"
         result="composite3"
         operator="arithmetic"
         k3="1"
         k2="1"
         in2="composite1"
         in="composite2" />
      <feColorMatrix
         id="feColorMatrix1130"
         result="colormatrix2"
         values="2 -1 0 0 0 0 2 -1 0 0 -1 0 2 0 0 0 0 0 1 0 "
         type="matrix"
         in="composite3" />
      <feComposite
         id="feComposite1132"
         result="composite4"
         k2="1.81706"
         operator="arithmetic"
         in2="composite3"
         in="colormatrix2" />
      <feBlend
         id="feBlend1134"
         result="blend"
         mode="normal"
         in2="composite3"
         in="composite4" />
      <feComposite
         id="feComposite1136"
         operator="in"
         in2="SourceGraphic" />
    </filter>
  </defs>
  <sodipodi:namedview
     inkscape:current-layer="g911"
     inkscape:window-maximized="0"
     inkscape:window-y="34"
     inkscape:window-x="10"
     inkscape:cy="37.215919"
     inkscape:cx="6.2497593"
     inkscape:zoom="9.4103193"
     fit-margin-bottom="0"
     fit-margin-right="0"
     fit-margin-left="0"
     fit-margin-top="0"
     showgrid="false"
     id="namedview905"
     inkscape:window-height="1034"
     inkscape:window-width="1898"
     inkscape:pageshadow="2"
     inkscape:pageopacity="0"
     guidetolerance="10"
     gridtolerance="10"
     objecttolerance="10"
     borderopacity="1"
     bordercolor="#666666"
     pagecolor="#ffffff" />
  <g
     inkscape:label="Image 1"
     id="layer1"
     inkscape:groupmode="layer">
    <path
       id="path1036"
       d="M 0.29616606,65.93995 0.18140837,64.889463 1.914407,63.733708 1.9609619,61.348149 2.5304454,59.231203 3.4334828,57.830346 c 0,0 -0.1429588,-0.04159 0.3607543,-0.336912 0.503713,-0.29532 0.5672977,-0.401119 0.5672977,-0.401119 l -0.070092,1.916011 0.8250652,1.764006 1.5929103,1.903885 2.8598532,0.965865 0.4542335,-0.06705 0.805959,0.07119 -0.08046,1.008107 -8.2570014,2.073547 z"
       style="fill:#b8965d;fill-opacity:1;stroke-width:0;stroke-linecap:round;stroke-opacity:0.996591" />
    <path
       id="path1038"
       d="m 9.2560916,69.451932 c 0,0 -0.1249356,-0.808637 -0.069083,-1.00091 0.055853,-0.192273 1.3903544,-1.02727 1.5889124,-1.131916 0.198559,-0.104646 0.09344,-0.747961 0.08082,-0.817096 -0.01262,-0.06914 -0.03911,-3.432411 0.08152,-3.6717 0.120629,-0.239289 0.851115,-3.299479 2.139092,-4.090126 1.287978,-0.790647 1.731203,-1.276565 2.97653,-1.108196 1.245328,0.16837 1.761937,0.268143 2.312166,0.931022 0.550228,0.662879 1.33881,2.40815 1.33881,2.40815 0,0 0.293137,2.607854 0.201256,3.278872 -0.09188,0.671018 0.258045,0.902202 0.258045,0.902202 l 0.817661,0.379173 0.02746,1.350888 -0.259626,0.21651 -2.299108,0.765359 -2.618435,1.040105 -1.071158,0.597149 -1.630312,0.562184 -1.208034,0.27949 z"
       style="fill:#b8965d;fill-opacity:1;stroke-width:0;stroke-linecap:round;stroke-opacity:0.996591" />
    <path
       id="path1042"
       d="m 23.916974,34.29796 -0.118845,-1.304654 -0.606331,-0.433869 c 0,0 -0.02941,-0.44414 -0.120744,-0.464702 -0.09133,-0.02056 -0.456357,0.08807 -0.947994,-0.35546 -0.491636,-0.443529 -0.865236,-1.100292 -0.808391,-1.477436 0.05685,-0.377144 0.559336,-1.039849 0.559336,-1.039849 0,0 0.462582,-0.613945 0.81362,-0.736553 0.351038,-0.122608 0.989509,-0.176341 0.989509,-0.176341 0,0 -0.171675,-0.920326 -0.07521,-1.297928 0.09647,-0.377601 0.885449,-2.028584 1.449806,-1.920305 0.564357,0.10828 1.248018,0.40405 1.248018,0.40405 0,0 1.012181,-0.553295 1.355718,-0.265099 0.343538,0.288195 0.741131,0.436664 0.741131,0.436664 l 1.235975,-0.437181 0.59573,-1.433725 c 0,0 0.683714,-1.760801 1.899978,-1.129825 1.216263,0.630976 1.764969,1.191638 1.764969,1.191638 0,0 0.935848,0.262723 1.026616,0.512746 0.09077,0.250022 0.139006,0.937723 0.06166,1.127569 -0.07734,0.189847 -1.061898,1.414512 -1.213514,1.421585 -0.151617,0.0071 -0.220133,0.10467 -0.220133,0.10467 0,0 1.449456,-0.330682 1.65037,-0.08055 0.200913,0.250134 0.391731,0.782678 0.391731,0.782678 l 0.14829,0.12653 c 0,0 1.034267,-0.152716 1.193347,0.0085 0.159081,0.161226 0.38144,0.423761 0.38144,0.423761 l -0.04489,0.957043 -0.239242,0.576301 c 0,0 0.418888,0.03138 0.61084,0.06336 0.191952,0.03199 0.638484,0.139679 0.759249,0.316406 0.120765,0.176727 0.460146,0.943088 0.460146,0.943088 l 0.539258,0.745987 c 0,0 0.339979,0.923596 0.04022,1.473573 -0.299754,0.549978 -0.702601,0.943967 -0.702601,0.943967 l -0.485577,0.132178 -0.315625,0.579855 -0.685836,0.629226 -0.754894,0.496352 c 0,0 0.07442,0.747097 -0.315353,1.035221 -0.389777,0.288124 -0.810171,0.475725 -0.810171,0.475725 l -0.733505,-0.07201 -0.711607,0.255602 -0.994879,0.320265 -0.685207,0.02719 -0.57212,-0.69868 -0.251995,-0.72469 c 0,0 -0.284143,-0.773695 -0.235872,-1.162042 0.04827,-0.388348 0.08409,-0.555762 0.08409,-0.555762 z"
       style="fill:#ffffff;fill-opacity:1;stroke-width:0;stroke-linecap:round;stroke-opacity:0.996591" />
    <path
       id="path1040"
       d="M 4.9736137,60.144707 4.3827782,58.791388 c 0,0 -0.2312381,-1.594626 0.1143958,-2.837019 0.3456339,-1.242393 1.2436174,-2.992961 2.264552,-3.832317 1.0209346,-0.839356 3.942303,-3.943517 3.942303,-3.943517 l 8.747284,-8.952378 c 0,0 6.848791,-6.816353 6.848791,-6.999939 0,-0.183587 -0.611712,-0.557617 -0.713876,-0.836988 -0.102164,-0.279371 -0.167541,-0.757732 0.425305,-0.907157 0.592846,-0.149424 0.204705,-0.257944 0.204705,-0.257944 0,0 2.234882,0.03551 3.806178,0.916031 1.571297,0.880518 2.661134,1.923758 2.661134,1.923758 l 0.489315,1.462628 -0.584857,0.49877 -0.505669,0.115064 c 0,0 -0.648718,-0.34204 -0.685762,-0.380272 -0.03704,-0.03823 -0.695474,1.50289 -0.695474,1.50289 l -3.842496,6.549697 -7.794828,13.965693 -0.904889,1.566022 c 0,0 -0.758044,-0.757358 -1.659748,-0.731442 -0.901704,0.02592 -1.686512,0.143101 -1.686512,0.143101 0,0 -1.38413,0.39457 -2.479017,1.921376 -1.094888,1.526806 -1.332063,2.963195 -1.332063,2.963195 l -0.23272,1.091983 c 0,0 -0.126713,-0.0016 -0.8002938,-0.142247 C 9.2949555,63.449766 7.248837,62.926231 7.248837,62.926231 l -1.7399587,-1.42352 z"
       style="fill:#cccfd0;fill-opacity:1;stroke-width:0;stroke-linecap:round;stroke-opacity:0.996591" />
    <path
       id="path1044"
       d="m 35.773003,19.362339 0.338497,-0.217101 0.06307,-0.559407 -0.297124,0.165783 -0.364432,0.349617 0.0041,0.201956 z"
       style="fill:#ffffff;fill-opacity:1;stroke-width:0;stroke-linecap:round;stroke-opacity:0.996591" />
    <path
       id="path1046"
       d="m 38.221523,14.865028 0.289251,-0.621653 0.212536,0.110361 0.04209,0.149047 c 0,0 -0.03052,0.234123 -0.09506,0.234123 -0.06454,0 -0.361271,0.192715 -0.361271,0.192715 z"
       style="fill:#ffffff;fill-opacity:1;stroke-width:0;stroke-linecap:round;stroke-opacity:0.996591" />
    <path
       id="path1048"
       d="m 40.671291,8.5037481 c 0,0 0.663516,0.3855986 1.144414,-0.04093 0.480897,-0.4265283 0.375716,0.1373776 0.375716,0.1373776 0,0 -0.346675,0.1634698 0.107185,0.3653676 0.453861,0.2018979 0.636726,0.3770683 0.636726,0.3770683 l 0.757527,-0.3289361 0.402955,-1.0049634 0.487129,-0.1559354 0.286856,-0.6694265 0.08078,-0.5654843 0.283983,-0.00927 0.431667,-0.5229638 0.02117,-1.3071659 -0.348154,-0.5564957 c 0,0 0.439791,-0.061815 0.724997,-0.5959541 0.285205,-0.5341391 0.467098,-1.7385461 0.467098,-1.7385461 l -0.558339,-1.22335012 -1.774305,0.27169348 -1.690118,0.78370204 0.01289,0.7878857 0.546636,0.6769887 0.138508,0.3498692 -1.547505,0.910445 -0.331061,0.4738123 0.293647,1.0085198 -0.986842,0.072589 -0.911561,0.1362316 -0.918624,0.606896 0.293287,0.3714318 0.592479,-0.082164 1.398654,-0.5394619 -0.443891,0.8609459 z"
       style="fill:#eaba25;fill-opacity:1;stroke-width:0;stroke-linecap:round;stroke-opacity:0.996591" />
  </g>
  <g
     transform="translate(-13.979094,-1.2712825)"
     id="g911"
     inkscape:label="Image"
     inkscape:groupmode="layer">
    <path
       sodipodi:nodetypes="ssssssssssssscsssssssccsssssssssssssssscsssssssssssssssscssssscssssssscssssssssscssssssssssssssccssssccssssccsssscsssssssssssssssssssssssssssssssssscsssccsssssssssssssssssssssssssssssssssssssscsssssscssssscssssssssccssssssssssssssssssssssscsssssssssssssssssssssscsssssscsssssssssssssssssssssssssssssssssssscssscsssssccsssscsssssssssssssssscssssssssssssssssssssssssssssssssssssssssssssscss"
       id="path985"
       d="m 24.48,71.323916 c -0.572,-0.179661 -1.13,-0.350781 -1.24,-0.380266 -0.121968,-0.03269 -0.2,-0.331124 -0.2,-0.764905 0,-0.685722 0.0302,-0.729896 0.84,-1.228563 0.804411,-0.495351 0.878978,-0.510832 1.76,-0.365416 0.812616,0.134123 0.92,0.120734 0.92,-0.114712 0,-0.194428 -0.193816,-0.293125 -0.716235,-0.36473 -0.39393,-0.05399 -0.815767,-0.05998 -0.937416,-0.0133 -0.33,0.126632 -0.426119,-1.628509 -0.190131,-3.471835 0.244596,-1.910581 1.000884,-3.462663 2.22658,-4.569471 1.464866,-1.322779 2.783396,-1.628835 4.496469,-1.043719 0.721384,0.246395 0.865218,0.382134 1.476058,1.392996 0.965641,1.598016 1.199294,2.410997 1.223749,4.257955 l 0.02093,1.580535 0.52,0.173163 c 0.500888,0.1668 0.52,0.204843 0.52,1.035126 0,0.688444 -0.0623,0.895304 -0.309482,1.027592 C 34.511354,68.677294 34.24,68.687425 34.24,68.49866 c 0,-0.07774 0.144,-0.178995 0.32,-0.225021 0.252989,-0.06616 0.32,-0.218241 0.32,-0.726253 0,-0.592496 -0.04364,-0.656972 -0.56,-0.827387 l -0.56,-0.184816 -0.0017,-1.547592 c -9.6e-4,-0.882334 -0.100594,-1.873385 -0.231715,-2.305488 -0.240603,-0.792901 -1.358301,-2.823285 -1.718941,-3.122589 -1.062805,-0.882049 -3.224786,0.366794 -4.353507,2.514754 -0.821797,1.563882 -1.02517,3.769011 -0.582919,6.320461 0.125975,0.726779 0.10521,0.822691 -0.24287,1.121787 -0.38784,0.333259 -0.955282,1.843483 -0.692661,1.843483 0.07939,0 0.144341,0.072 0.144341,0.16 0,0.227899 -0.410176,0.177632 -1.6,-0.196083 z m 1.032,-0.27107 c -0.174074,-0.168524 -2.026059,-0.67212 -2.121339,-0.57684 -0.03463,0.03463 0.250305,0.142315 0.633189,0.239302 0.382883,0.09699 0.84015,0.240845 1.01615,0.319686 0.43481,0.194778 0.663694,0.203434 0.472,0.01785 z m 0.248,-0.543493 c 0,-0.372402 -0.113854,-0.413851 -2.237808,-0.814671 -0.0428,-0.0081 -0.09832,0.09332 -0.123381,0.225317 -0.03277,0.172597 0.281163,0.335143 1.11781,0.578768 0.639857,0.186323 1.181379,0.348323 1.203379,0.36 0.022,0.01168 0.04,-0.145558 0.04,-0.349414 z m 0.27256,-0.846808 c 0.05919,-0.177792 -0.969306,-0.382546 -1.921558,-0.382546 -0.66584,0 -0.457412,0.149167 0.556838,0.398511 0.973843,0.239411 1.280898,0.235819 1.36472,-0.01597 z m 0.602443,-0.534461 C 26.686643,69.04453 26.492891,68.938018 26.204446,68.891391 25.102795,68.713311 24.48,68.734428 24.48,68.949862 c 0,0.257843 2.003397,0.423526 2.155003,0.178222 z m -0.197585,-2.94873 c -0.06813,-1.543825 -0.02942,-1.9883 0.254582,-2.923316 0.457931,-1.507639 1.325027,-2.703048 2.564883,-3.536039 l 1.012139,-0.68 h -0.634971 c -1.415085,0 -2.836747,1.077104 -3.767883,2.854688 -0.64551,1.232311 -0.906168,2.44776 -0.906168,4.22548 0,1.184299 0.01936,1.255251 0.316771,1.160856 0.174224,-0.0553 0.444224,-0.02634 0.6,0.06435 0.231112,0.13455 0.172823,0.165787 -0.316771,0.169757 -0.33,0.0027 -0.6,0.07252 -0.6,0.155206 0,0.08269 0.27,0.178586 0.6,0.213104 0.33,0.03452 0.680496,0.07487 0.778882,0.08966 0.126904,0.01908 0.155536,-0.502125 0.09854,-1.793749 z M 25.57,66.770702 c 0.115499,-0.04622 0.253499,-0.04054 0.306667,0.01262 0.05317,0.05317 -0.04133,0.09098 -0.21,0.08404 -0.186392,-0.0077 -0.224304,-0.04559 -0.09667,-0.09667 z m 1.15,4.672548 c 0,-0.153006 1.276117,-0.723251 1.618523,-0.723251 0.1932,0 0.574787,-0.170483 0.847973,-0.378853 0.273187,-0.208369 0.747982,-0.427761 1.055104,-0.487539 0.524075,-0.102005 0.539309,-0.09347 0.247819,0.138853 -0.170819,0.136147 -0.390832,0.247539 -0.488915,0.247539 -0.09808,0 -0.42231,0.18 -0.720504,0.4 -0.298194,0.22 -0.726181,0.402552 -0.951085,0.405671 -0.224904,0.0031 -0.588915,0.108566 -0.808915,0.234329 -0.398051,0.227547 -0.8,0.30957 -0.8,0.163251 z m 4.32,-1.773286 c 0,-0.189278 2.129342,-1.044987 2.456315,-0.987106 0.334856,0.05928 0.335464,0.06395 0.02369,0.182007 -0.176,0.06664 -0.752,0.295515 -1.28,0.508609 -0.989507,0.399354 -1.2,0.451362 -1.2,0.29649 z M 15.276491,67.947506 c -1.299826,-0.468806 -1.313432,-0.482032 -1.29374,-1.257536 0.01567,-0.617113 0.07581,-0.713075 0.657249,-1.048795 0.352,-0.203241 0.734987,-0.427304 0.851083,-0.497915 0.138944,-0.08451 0.228397,-0.567163 0.261747,-1.412285 0.02787,-0.706144 0.102591,-1.447507 0.166058,-1.647473 0.07621,-0.240114 0.06569,-0.190874 0.09924,-0.417832 0.114718,-0.48454 0.147557,-0.637996 0.199825,-0.75021 0.292075,-0.764788 1.163318,-2.035463 1.395624,-2.035463 0.08024,0 -0.103582,0.34725 -0.408496,0.771667 C 16.575659,60.527774 16.16,61.9153 16.16,63.140282 c 0,0.763157 0.03692,0.846533 0.44,0.993752 l 0.44,0.160703 -0.44,0.01262 c -0.626951,0.01801 -0.595398,0.492638 0.03275,0.492638 0.423007,0 0.482584,-0.06313 0.566213,-0.6 0.268587,-1.724216 0.455261,-2.574086 0.67652,-3.08 0.163117,-0.372971 0.251527,-1.121088 0.264715,-2.24 0.01887,-1.601259 0.04768,-1.735478 0.614612,-2.863678 0.83347,-1.562425 0.847573,-1.518357 1.869534,-2.642574 0.57703,-0.62356 4.369771,-4.481744 8.428314,-8.573744 9.294,-9.370619 8.707342,-8.717083 8.707342,-9.699951 0,-0.659746 -0.05712,-0.809228 -0.36,-0.942108 -0.372381,-0.163372 -0.572843,-0.809097 -0.327381,-1.05456 0.07961,-0.07961 0.137059,0.04876 0.133546,0.298455 -0.0043,0.304483 0.10367,0.486352 0.353835,0.596105 0.244544,0.107288 0.36,0.295517 0.36,0.586914 0,1.006406 0.15361,1.011453 1.137955,0.03738 0.513522,-0.508164 0.984338,-0.873274 1.046256,-0.811354 0.06192,0.06192 -2.330395,2.577802 -5.316253,5.59085 -15.467806,15.608671 -15.02574,15.145214 -15.664134,16.422121 -0.953762,1.907707 -0.926312,3.737545 0.08814,5.875537 0.794813,1.675095 2.182343,2.666794 4.028037,2.87893 0.861125,0.09897 1.165771,0.273093 0.731243,0.417936 -0.378344,0.126114 -2.073326,-0.201016 -2.701189,-0.521326 -1.3094,-0.668007 -2.001121,-1.529276 -2.810718,-3.499655 -0.144627,-0.351989 -0.187842,-0.294067 -0.507826,0.680674 -0.41012,1.249313 -0.635321,3.591227 -0.387859,4.033419 0.133,0.237658 0.09295,0.365058 -0.196326,0.624595 -0.344842,0.309386 -0.804917,1.341781 -0.661751,1.484949 0.03686,0.03686 0.235186,-0.02469 0.440722,-0.13677 0.205538,-0.112083 0.697704,-0.257473 1.093704,-0.323089 0.396,-0.06562 0.918,-0.168138 1.16,-0.227827 0.242,-0.05969 0.44,-0.04385 0.44,0.0352 0,0.145625 -1.085827,0.516008 -1.780747,0.607424 -0.208589,0.02744 -0.646941,0.166051 -0.974114,0.308024 -0.713672,0.309691 -0.615753,0.315881 -1.808648,-0.114359 z M 16.48,67.697118 c 0,-0.190636 -0.400099,-0.337895 -1.323292,-0.487048 -0.910324,-0.147076 -0.848875,-0.02829 0.174607,0.337529 0.871546,0.311512 1.148685,0.347586 1.148685,0.149519 z m 0.16,-0.577119 c 0,-0.16332 -0.166141,-0.241219 -0.52,-0.243817 -0.286,-0.0021 -0.79,-0.06652 -1.12,-0.143151 -0.33,-0.07663 -0.6,-0.08752 -0.6,-0.02419 0,0.08952 1.209313,0.447433 2.12,0.627435 0.066,0.01304 0.12,-0.08428 0.12,-0.216282 z m 0.08658,-0.570645 c 0.147965,-0.239412 0.112563,-0.25655 -1.006569,-0.487243 -0.769975,-0.158718 -1.043542,-0.162581 -1.189333,-0.01679 -0.254967,0.254967 -0.139358,0.339368 0.687228,0.501719 1.001647,0.196733 1.388149,0.197325 1.508674,0.0023 z M 17.28,65.923047 c 0,-0.161653 -0.2838,-0.243997 -1.317068,-0.382149 -0.841686,-0.112534 -0.91024,0.167468 -0.08616,0.351912 0.928442,0.207804 1.403229,0.218034 1.403229,0.03024 z m -0.16,-0.723048 c -0.215246,-0.259357 -0.887714,-0.326405 -1.026208,-0.102317 -0.140108,0.226701 0.08701,0.342317 0.672466,0.342317 0.473347,0 0.524257,-0.03454 0.353742,-0.24 z m 3.078478,1.804565 C 20.270856,66.787431 21.12,66.523543 21.12,66.718185 c 0,0.07178 -0.221376,0.207683 -0.491947,0.302005 -0.368778,0.128555 -0.476331,0.124643 -0.429575,-0.01563 z M 21.44,66.73941 c 0,-0.07732 0.211826,-0.228329 0.470725,-0.335569 0.386488,-0.160088 0.530939,-0.152805 0.807211,0.0407 0.262067,0.18356 0.286123,0.255009 0.108771,0.323065 -0.125241,0.04806 -0.300757,0.01434 -0.390033,-0.07494 -0.109759,-0.109759 -0.268093,-0.105711 -0.488978,0.0125 C 21.552363,66.916745 21.44,66.924321 21.44,66.739402 Z m 7.919218,-2.264046 c -0.192112,-1.137094 0.394534,-2.774946 0.835857,-2.333622 0.172323,0.172323 0.05868,2.528891 -0.133091,2.759966 -0.32691,0.393901 -0.591285,0.233515 -0.702766,-0.426344 z m 0.623664,0.07155 c 0.05342,-0.139197 0.09712,-0.693597 0.09712,-1.232 0,-0.762637 -0.04252,-0.936395 -0.192445,-0.786469 C 29.644924,62.771079 29.499055,64.8 29.724245,64.8 c 0.08883,0 0.205224,-0.113888 0.258639,-0.253086 z m -9.14501,-4.674459 c 0.156035,-0.59668 -0.219378,-0.8955 -0.973525,-0.774907 -0.4114,0.06579 -0.664347,0.04459 -0.664347,-0.05566 0,-0.08904 0.07034,-0.161892 0.156312,-0.161892 0.25253,0 0.683688,-0.769776 0.683688,-1.220636 0,-0.228666 -0.099,-0.478466 -0.22,-0.555111 -0.174147,-0.110309 -0.162277,-0.139864 0.05695,-0.141803 0.381789,-0.0034 0.536419,0.716157 0.268488,1.249349 -0.118344,0.23551 -0.244002,0.489757 -0.279237,0.564992 -0.03524,0.07523 0.09361,0.08675 0.286333,0.02558 0.655632,-0.20809 1.351104,0.941643 0.782261,1.293206 -0.12632,0.07807 -0.157136,0.0071 -0.09692,-0.22312 z m 1.365386,-0.609203 c -0.1553,-0.340843 -0.14241,-0.499464 0.07077,-0.870912 0.224212,-0.390665 0.228869,-0.480547 0.03331,-0.642845 C 22.182304,57.645723 22.08,57.359887 22.08,57.114307 22.08,56.689718 22.057592,56.676254 21.623594,56.84007 21.13793,57.023388 20.64,56.921798 20.64,56.639391 c 0,-0.118118 0.09365,-0.120532 0.304213,-0.0078 0.400499,0.214341 1.250357,-0.07635 1.375446,-0.470475 0.051,-0.160697 0.197093,-0.378789 0.324643,-0.484646 0.413444,-0.343127 0.487055,0.285702 0.0837,0.715048 -0.234238,0.249336 -0.334955,0.528384 -0.300241,0.831859 0.04971,0.434576 0.08706,0.454533 0.772235,0.412589 0.671171,-0.04109 0.698938,-0.02752 0.409419,0.2 -0.170819,0.134241 -0.43916,0.244075 -0.596312,0.244075 -0.457152,0 -0.812853,0.674629 -0.621318,1.178403 0.207217,0.545022 0.05932,0.548827 -0.188531,0.0048 z M 22.88,55.999999 c 0,-0.088 -0.03175,-0.16 -0.07056,-0.16 -0.03881,0 -0.115056,0.072 -0.169443,0.16 -0.05439,0.088 -0.02264,0.16 0.07056,0.16 0.09319,0 0.169443,-0.072 0.169443,-0.16 z m 9.44,3.217655 c 0,-0.11349 0.675144,-1.40589 1.500318,-2.872 0.825176,-1.466111 2.992373,-5.329655 4.815994,-8.585655 1.823619,-3.256 3.585002,-6.387999 3.914181,-6.959999 0.329181,-0.572 1.092341,-1.932932 1.695912,-3.02429 0.603571,-1.09136 1.123841,-1.904973 1.156155,-1.808029 0.06714,0.201419 -0.759936,1.723191 -4.8438,8.912318 -1.599661,2.816 -3.147309,5.552 -3.439218,6.08 -0.29191,0.528 -1.192742,2.148 -2.001849,3.6 -0.809107,1.452 -1.706371,3.072 -1.993922,3.6 C 32.533286,59.244251 32.32,59.524908 32.32,59.217654 Z m 0.302646,-3.977655 c 0.200599,-0.364947 0.693756,-0.967257 0.622271,-0.76 -0.158709,0.460149 -0.513439,1.04 -0.636229,1.04 -0.07697,0 -0.07069,-0.126 0.01395,-0.28 z m 1.380928,-2.135278 c 0.07316,-0.123597 0.46856,-0.728722 0.878669,-1.344722 1.165944,-1.751296 2.992666,-4.933929 2.988338,-5.206478 -0.0022,-0.135563 0.426062,-0.891563 0.95159,-1.68 0.525528,-0.788437 1.410125,-2.174925 1.96577,-3.081086 0.555645,-0.90616 1.03967,-1.618157 1.075613,-1.582215 0.07159,0.07159 -1.836359,3.210959 -3.031488,4.988071 -0.413637,0.61506 -0.752066,1.246043 -0.752066,1.402184 0,0.47099 -3.600077,6.352358 -4.063813,6.638963 -0.0839,0.05185 -0.08925,-0.0052 -0.01261,-0.134717 z M 46.36352,39.553332 C 45.847418,39.48959 45.28,38.832417 45.28,38.298422 c 0,-0.470808 0.242466,-0.503699 0.277571,-0.03765 0.03603,0.478372 0.666059,1.099232 1.115458,1.099232 0.530241,0 1.426174,-0.399775 1.602649,-0.715119 0.134101,-0.239625 0.168306,-0.241067 0.355932,-0.01499 0.337177,0.406275 0.954236,0.299104 1.47255,-0.255753 0.434166,-0.464776 0.457438,-0.472703 0.286522,-0.09758 -0.254746,0.559106 -0.815773,0.827205 -1.499002,0.716333 -0.311198,-0.0505 -0.603219,-0.0313 -0.648934,0.04267 -0.13842,0.223966 -1.413528,0.575293 -1.879226,0.517774 z M 49.64,37.490062 c -0.327694,-0.125707 -0.226589,-0.347051 0.117432,-0.257088 0.174589,0.04566 0.497269,0.03787 0.717066,-0.01729 C 51.073402,37.065369 52,36.18459 52,35.765619 c 0,-0.297064 0.06963,-0.347928 0.391946,-0.286312 0.833225,0.15928 1.395446,-1.734839 0.751124,-2.530543 C 52.872043,32.61406 52.803098,32.5999 52.352728,32.786449 51.82392,33.005489 51.52,32.92051 51.52,32.553612 c 0,-0.252604 0.686051,-0.482916 0.950906,-0.319227 0.219091,0.135407 0.214248,-0.0096 -0.01486,-0.444897 -0.255309,-0.485045 -0.475128,-0.607024 -0.909455,-0.504661 -0.236061,0.05563 -0.335576,0.02679 -0.270557,-0.07841 0.193983,-0.313871 0.856226,-0.172149 1.192351,0.255165 0.182387,0.231867 0.331613,0.491473 0.331613,0.576902 0,0.08543 0.18,0.369243 0.4,0.630699 0.785617,0.933653 0.359073,2.748336 -0.727028,3.093051 -0.172128,0.05463 -0.312966,0.189005 -0.312966,0.298612 0,0.229992 -0.729954,0.94624 -1.2,1.177468 -0.45025,0.22149 -1.083856,0.342327 -1.32,0.25174 z m 2.586914,-4.787174 C 52.580363,32.567249 52.543251,32.32 52.169443,32.32 c -0.333957,0 -0.545241,0.210868 -0.378427,0.377683 0.125082,0.12508 0.123538,0.125062 0.435898,0.0052 z m -6.385781,3.618944 c -0.05672,-0.09178 0.0099,-0.11686 0.158697,-0.05976 0.152501,0.05852 0.412522,-0.04821 0.641485,-0.263311 0.369776,-0.347387 0.375472,-0.38464 0.143749,-0.940241 C 46.399534,34.134136 45.623438,33.463264 44.08,32.720208 42.679942,32.046179 41.416355,31.68 40.490526,31.68 c -0.541324,0 -1.067588,0.638937 -0.770753,0.935772 0.231909,0.231909 0.08009,0.380181 -0.256872,0.250876 -0.395026,-0.151586 -0.317355,-0.594608 0.189358,-1.080071 0.442511,-0.423952 0.476211,-0.429894 1.563624,-0.27567 1.35545,0.192237 2.13785,0.460195 3.624067,1.241181 1.390194,0.730526 2.123751,1.436123 2.379108,2.288425 0.177872,0.593683 0.163827,0.674503 -0.181002,1.041555 -0.377995,0.402359 -1.017288,0.53042 -1.196923,0.239764 z m -0.781322,-1.307474 c -0.429102,-0.434867 -1.257102,-1.029558 -1.84,-1.321534 -1.080685,-0.541324 -1.188803,-0.581711 -2.384638,-0.890768 -0.376656,-0.09734 -0.646466,-0.239063 -0.599578,-0.31493 0.147131,-0.238064 2.292047,0.440474 3.588984,1.135365 0.872717,0.467595 2.255421,1.689014 2.255421,1.992336 0,0.354933 -0.184747,0.246192 -1.020189,-0.600469 z M 35.778578,32.85494 c -0.580327,-0.580326 -0.672724,-1.073937 -0.339392,-1.813134 0.39071,-0.866443 1.103012,-1.503691 1.725452,-1.543648 0.28345,-0.01819 0.695362,-0.07552 0.915362,-0.127394 0.22,-0.05187 0.292,-0.04785 0.16,0.0089 -0.132,0.05679 -0.339002,0.181877 -0.460003,0.277967 -0.121002,0.09609 -0.414442,0.154313 -0.652088,0.129385 -0.311035,-0.03262 -0.571056,0.09682 -0.928146,0.462061 -1.03412,1.057723 -1.033081,1.943146 0.0031,2.670879 0.317503,0.222982 0.415194,0.36 0.256672,0.36 -0.14076,0 -0.447205,-0.191277 -0.680987,-0.42506 z m 15.373,-2.739795 c 0.07337,-0.547021 0.03376,-0.671734 -0.263967,-0.831072 -0.256661,-0.137361 -0.481944,-0.141577 -0.842827,-0.01578 -0.270894,0.09444 -0.51301,0.171699 -0.538032,0.171699 -0.02502,0 -0.06828,-0.195729 -0.09613,-0.434953 -0.108885,-0.935451 -1.553821,-1.102165 -2.439385,-0.281451 -0.524996,0.486548 -0.732463,0.521872 -0.31604,0.05381 0.514368,-0.578156 1.447683,-0.916586 2.113571,-0.766404 0.561233,0.12658 0.991227,0.5013 0.991227,0.86381 0,0.104616 0.242066,0.150562 0.608922,0.115576 0.423491,-0.04039 0.675228,0.02183 0.826665,0.204298 0.260904,0.314369 0.287072,1.146657 0.04371,1.390024 -0.125387,0.125387 -0.149907,-0.0059 -0.08772,-0.469562 z M 37.44,28.473625 c 0,-0.487961 0.573662,-1.518219 1.057114,-1.898501 0.488596,-0.384331 1.147214,-0.433481 1.578896,-0.117827 0.252374,0.184541 0.361825,0.180191 0.726062,-0.02885 0.395203,-0.226816 0.481069,-0.220331 1.093245,0.08255 0.627958,0.310688 0.693725,0.314461 1.200398,0.06885 0.414906,-0.201123 0.577415,-0.413147 0.719115,-0.938224 0.261047,-0.967305 1.199,-1.96291 1.843788,-1.957113 0.664428,0.006 1.901144,0.645126 2.099323,1.084962 0.08687,0.192792 0.268846,0.350531 0.404398,0.350531 0.486147,0 0.957661,0.482312 0.957661,0.979592 0,0.529361 -0.24815,1.100408 -0.478187,1.100408 -0.08081,0 -0.02729,-0.208464 0.118941,-0.463253 C 49.139858,26.076198 48.846803,25.44 48.16343,25.44 47.853917,25.44 47.68,25.358776 47.68,25.214222 c 0,-0.332913 -0.884693,-1.018814 -1.584549,-1.228496 -0.512598,-0.153579 -0.675915,-0.139694 -1.021673,0.08685 -0.611808,0.400872 -0.943186,1.002148 -1.054445,1.913267 -0.09749,0.79832 -0.109151,0.813179 -0.599887,0.764137 -0.387392,-0.03871 -0.577169,0.0475 -0.839956,0.381578 C 42.345901,27.428523 42.24,27.484387 42.24,27.310649 42.24,27.000404 41.639806,26.56 41.216997,26.56 c -0.17149,0 -0.443469,0.119158 -0.604399,0.264798 -0.272659,0.246754 -0.314043,0.24539 -0.607296,-0.02 -0.5114,-0.462811 -1.11834,-0.359226 -1.715924,0.292851 C 37.900189,27.522328 37.76,27.82422 37.76,28.237649 37.76,28.546942 37.688,28.8 37.6,28.8 c -0.088,0 -0.16,-0.146869 -0.16,-0.326375 z m 11.936075,-7.807614 c -0.04554,-0.07369 0.120378,-0.377374 0.368717,-0.674845 0.445416,-0.533536 0.453099,-0.535897 0.567789,-0.174544 0.179261,0.564805 -0.648431,1.315503 -0.936506,0.849389 z M 50.08,20.220409 c 0,-0.212608 -0.04344,-0.22354 -0.24,-0.06041 -0.132,0.10955 -0.24,0.226366 -0.24,0.25959 0,0.03323 0.108,0.06041 0.24,0.06041 0.132,0 0.24,-0.116816 0.24,-0.259591 z m 2.005934,-3.890806 C 51.962054,16.129158 52.397014,15.36 52.634246,15.36 c 0.351482,0 0.333708,0.384773 -0.03479,0.753277 -0.271381,0.27138 -0.436501,0.340939 -0.513517,0.216324 z M 52.64,15.821114 c 0,-0.088 -0.072,-0.115501 -0.16,-0.06111 -0.088,0.05439 -0.16,0.170885 -0.16,0.258885 0,0.088 0.072,0.115502 0.16,0.06111 0.088,-0.05439 0.16,-0.170886 0.16,-0.258885 z m 1.516186,-2.867287 c -0.06177,-0.09994 -0.02161,-0.265437 0.08923,-0.367769 0.154463,-0.142604 0.175159,-0.139348 0.08862,0.01394 -0.0621,0.11 -0.04267,0.2 0.04319,0.2 0.08586,0 0.192426,-0.09 0.236811,-0.2 0.05071,-0.125668 0.0854,-0.132949 0.09333,-0.01959 0.02053,0.293203 -0.417395,0.589892 -0.551182,0.37342 z"
       style="fill:#000000;stroke-width:0.16" />
    <path
       sodipodi:nodetypes="ssssssssscsssssssssssccsssssscssssssssscssscssssssssssssssssssssssssscsssssssssssssssssscssssccccssssssssssssssssssssssssssssssssssssss"
       id="path1148"
       d="m 56.873377,10.614301 c 0,-0.255575 -0.271496,-0.6940347 -0.04,-0.6940347 0.088,0 0.16,0.1079997 0.16,0.2399997 0,0.344244 0.438665,0.296198 0.634371,-0.06948 0.348835,-0.6518047 0.0023,-1.6105177 -0.582171,-1.6105177 -0.38914,0 -0.687376,0.590578 -0.631436,1.250392 0.04132,0.4873367 -0.0028,0.6696077 -0.161996,0.6696077 -0.120324,0 -0.218768,-0.14174 -0.218768,-0.314978 0,-0.2249707 -0.07427,-0.2864777 -0.25991,-0.2152417 -0.229508,0.08807 -0.226852,0.04928 0.0227,-0.331575 0.53346,-0.814165 -0.278672,-1.639461 -0.951357,-0.966776 -0.326797,0.326797 -0.323056,0.610293 0.0064,0.483875 0.188699,-0.07241 0.231592,-0.0306 0.16,0.155967 -0.0538,0.140196 -0.09781,0.357012 -0.09781,0.481815 0,0.124803 -0.09983,0.226914 -0.22184,0.226914 -0.301149,0 -0.411957,-0.883334 -0.169445,-1.350776 0.190618,-0.367417 0.183176,-0.373089 -0.305613,-0.232906 -0.644641,0.184881 -1.33931,0.183983 -1.454179,-0.0019 -0.285704,-0.46228 0.726965,-1.121434 1.931455,-1.257198 0.666433,-0.07512 0.672336,-0.08141 0.584468,-0.622875 -0.109371,-0.673973 0.364237,-1.252336 1.240488,-1.514867 l 0.584499,-0.17512 -0.374917,-0.374917 c -0.501603,-0.501576 -0.494067,-1.244874 0.01779,-1.75673 0.216,-0.216 0.468,-0.392727 0.56,-0.392727 0.092,1e-6 0.167272,-0.09248 0.167272,-0.205502 0,-0.205635 0.7904,-0.754497 1.086527,-0.754497 0.08644,0 0.187822,0.208957 0.225305,0.464349 0.06347,0.432476 0.02354,0.472775 -0.58184,0.587108 l -0.649992,0.122759 0.56,0.09289 c 0.920957,0.152766 0.737607,0.447313 -0.228569,0.36719 -0.484584,-0.04018 -0.893538,-3.36e-4 -0.951021,0.09268 -0.05881,0.09516 0.01597,0.133137 0.17937,0.09111 0.154121,-0.03964 0.56822,-0.0042 0.92022,0.07885 0.627676,0.148013 0.620517,0.151229 -0.371731,0.166991 -0.872505,0.01386 -1.0044,0.0546 -0.958446,0.296073 0.04207,0.221072 0.24751,0.290126 0.976158,0.328116 1.006445,0.05247 1.118623,0.347904 0.144576,0.370814 l -0.590557,0.01893 0.48,0.12214 c 0.40093,0.102019 0.4193,0.125257 0.111512,0.141069 -0.202668,0.01041 -0.616732,0.1904 -0.923003,0.395732 l -0.554513,0.376802 0.843003,-0.07736 c 0.463651,-0.04255 0.794613,-0.02572 0.73547,0.0374 -0.05914,0.06311 -0.527141,0.151569 -1.04,0.196567 -0.859561,0.07542 -1.332469,0.331086 -1.332469,0.720372 0,0.07118 0.45,0.135104 1,0.142051 0.55,0.0069 0.91,0.04895 0.8,0.09333 -0.11,0.04439 -0.2,0.182702 -0.2,0.307368 0,0.145186 -0.172548,0.226667 -0.48,0.226667 -0.264,0 -0.48,0.0576 -0.48,0.128 0,0.309424 0.438269,0.512183 1.112,0.51445 0.469186,0.0016 0.650738,0.0514 0.510674,0.140151 -0.11953,0.07574 -0.65953,0.120305 -1.2,0.09904 -0.54047,-0.02126 -1.126674,0.01911 -1.302674,0.08971 -0.26535,0.106443 -0.234541,0.130097 0.18041,0.138507 0.275224,0.0056 0.587827,0.115475 0.694672,0.244216 0.170048,0.204894 0.242147,0.202701 0.578357,-0.01759 0.476438,-0.312175 0.781261,-0.204483 1.153429,0.407499 0.199923,0.328748 0.354974,0.433766 0.50423,0.341521 0.118542,-0.07326 0.174472,-0.240207 0.124288,-0.370986 -0.05019,-0.130778 0.02377,-0.401987 0.164346,-0.602685 0.140574,-0.200699 0.176116,-0.31579 0.07899,-0.255759 -0.09713,0.06003 -0.217167,0.04352 -0.266743,-0.0367 -0.04957,-0.08021 0.02969,-0.191827 0.176152,-0.248029 0.146459,-0.0562 0.322173,-0.01176 0.390475,0.09875 0.09336,0.151058 0.14972,0.134388 0.227063,-0.06716 0.05658,-0.147452 -0.01154,-0.431455 -0.151394,-0.631117 -0.282974,-0.404003 -0.342361,-1.09182 -0.09427,-1.09182 0.088,0 0.16,0.139751 0.16,0.310557 0,0.170807 0.08334,0.362066 0.185203,0.42502 0.128632,0.0795 0.153069,0.0091 0.08,-0.230557 -0.05786,-0.189761 -0.1496,-0.48902 -0.203864,-0.66502 -0.145329,-0.471367 0.17561,-0.389544 0.399506,0.101853 0.289266,0.634871 0.06992,1.777509 -0.400378,2.085659 -0.256172,0.167851 -0.380468,0.401215 -0.380468,0.714321 0,0.337318 -0.106881,0.513728 -0.389185,0.642354 -0.214053,0.09753 -0.475928,0.386737 -0.581944,0.642684 -0.106018,0.2559477 -0.322151,0.5346077 -0.480296,0.6192447 -0.311824,0.166884 -0.588575,0.362566 -0.588575,0.04792 z M 53.762918,8.0402663 c -0.02966,-0.154 -0.159951,-0.28 -0.289541,-0.28 -0.12959,0 -0.259883,0.126 -0.289541,0.28 -0.03783,0.196456 0.04856,0.28 0.289541,0.28 0.240984,0 0.327374,-0.08354 0.289541,-0.28 z m 0.567515,-0.284319 c 0.245541,0.335797 0.742944,0.159329 0.742944,-0.263581 0,-0.237258 -0.07795,-0.29155 -0.32,-0.222882 -0.176,0.04993 -0.456605,0.129287 -0.623565,0.176348 -0.225459,0.06355 -0.278756,0.177045 -0.203281,0.44 l 0.100284,0.354434 0.05612,-0.373027 c 0.04987,-0.331521 0.07741,-0.343904 0.247502,-0.111292 z m 1.826276,-0.265681 c -0.09889,-0.296675 -0.443332,-0.345881 -0.443332,-0.06333 0,0.139334 0.114,0.253334 0.253332,0.253334 0.139335,0 0.224834,-0.0855 0.19,-0.190001 z m 0.916668,2.11 c -0.05439,-0.088 -0.02264,-0.16 0.07056,-0.16 0.09319,0 0.169443,0.072 0.169443,0.16 0,0.088 -0.03175,0.16 -0.07056,0.16 -0.03881,0 -0.115056,-0.072 -0.169443,-0.16 z m 0.912,-2.271996 c -0.246828,0.224389 -0.248602,-0.843275 -0.02637,-1.258518 0.218292,-0.407883 0.524822,-0.400495 0.394691,0.0095 -0.07772,0.244878 -0.04305,0.296662 0.149217,0.222882 0.137754,-0.05286 0.250463,-0.01641 0.250463,0.08101 0,0.09741 -0.108,0.177118 -0.24,0.177118 -0.132,0 -0.24,0.06974 -0.24,0.154978 0,0.08524 0.126,0.115361 0.28,0.06694 0.263765,-0.08293 0.264088,-0.0749 0.0056,0.13859 -0.208895,0.172507 -0.229911,0.271151 -0.088,0.413061 0.141909,0.14191 0.129117,0.186432 -0.05357,0.186432 -0.132,0 -0.321497,-0.292457 -0.432,-0.192 z m -1.752,-1.5226 c 0.242,-0.03666 0.638,-0.03666 0.88,0 0.242,0.03666 0.044,0.06665 -0.44,0.06665 -0.484,0 -0.682,-0.02999 -0.44,-0.06665 z m 3.690065,-0.974155 c 0.484819,-0.506042 0.566779,-1.229158 0.195023,-1.720664 -0.1292,-0.170819 -0.2372,-0.480974 -0.24,-0.689233 -0.0043,-0.316746 -0.07048,-0.366151 -0.405088,-0.302187 -0.577048,0.110309 -0.491911,-0.101641 0.13136,-0.327018 0.706657,-0.255531 0.715824,-0.252613 0.629238,0.200337 -0.06648,0.347747 -0.02294,0.388777 0.382024,0.36 0.374187,-0.02659 0.46709,0.03842 0.51241,0.358556 0.03045,0.21507 -0.04148,0.46707 -0.159837,0.56 -0.118357,0.09293 -0.222989,0.405459 -0.232512,0.694508 -0.01859,0.56421 -0.589647,1.314456 -1.000509,1.314456 -0.171398,0 -0.116558,-0.130978 0.187891,-0.448755 z"
       style="fill:#000000;stroke-width:0.16" />
  </g>
</svg>
