<?xml version="1.0" encoding="UTF-8" standalone="no"?>
<svg
   xmlns:dc="http://purl.org/dc/elements/1.1/"
   xmlns:cc="http://creativecommons.org/ns#"
   xmlns:rdf="http://www.w3.org/1999/02/22-rdf-syntax-ns#"
   xmlns:svg="http://www.w3.org/2000/svg"
   xmlns="http://www.w3.org/2000/svg"
   xmlns:sodipodi="http://sodipodi.sourceforge.net/DTD/sodipodi-0.dtd"
   xmlns:inkscape="http://www.inkscape.org/namespaces/inkscape"
   inkscape:version="1.0 (4035a4fb49, 2020-05-01)"
   sodipodi:docname="heathcliffninjafull.svg"
   viewBox="0 0 1280 816"
   height="816"
   width="1280"
   id="svg4026"
   version="1.1">
  <style></style>
  <metadata
     id="metadata4032">
    <rdf:RDF>
      <cc:Work
         rdf:about="">
        <dc:format>image/svg+xml</dc:format>
        <dc:type
           rdf:resource="http://purl.org/dc/dcmitype/StillImage" />
        <dc:title></dc:title>
      </cc:Work>
    </rdf:RDF>
  </metadata>
  <defs
     id="defs4030" />
  <sodipodi:namedview
     inkscape:current-layer="g4034"
     inkscape:window-maximized="0"
     inkscape:window-y="33"
     inkscape:window-x="10"
     inkscape:cy="391.29098"
     inkscape:cx="760.74389"
     inkscape:zoom="0.58874945"
     showgrid="false"
     id="namedview4028"
     inkscape:window-height="1035"
     inkscape:window-width="1898"
     inkscape:pageshadow="2"
     inkscape:pageopacity="0"
     guidetolerance="10"
     gridtolerance="10"
     objecttolerance="10"
     borderopacity="1"
     bordercolor="#666666"
     pagecolor="#ffffff" />
  <g
     id="g4034"
     inkscape:label="Image"
     inkscape:groupmode="layer">
    <path
       id="path4603"
       d="m 1222.8962,798.67735 c -2.4405,-0.57732 -14.7405,-1.20126 -27.3334,-1.38651 -12.5929,-0.18525 -25.2961,-0.46479 -28.2295,-0.62119 -71.9439,-3.8358 -70.556,-3.80676 -74.8865,-1.56738 -2.9303,1.51533 -5.3462,1.76376 -9.2096,0.94701 -2.8805,-0.60896 -13.9372,-1.53967 -24.5705,-2.06821 -10.6334,-0.52856 -24.1334,-1.20422 -30,-1.50147 -25.696,-1.30197 -117.48426,-1.05629 -147.33337,0.39433 -31.14178,1.51346 -140.38854,1.6177 -146,0.13931 -4.22537,-1.1132 -20.59073,-2.56312 -50,-4.42984 C 679.1,788.18775 671.3,787.65939 668,787.40924 c -4.27719,-0.3242 -8.02039,0.47716 -13.03632,2.79089 -3.86997,1.78514 -7.50119,2.95838 -8.06937,2.60723 C 645.04735,791.66587 608.0782,789.4736 576,788.60333 558.76667,788.1358 433.01959,787.56099 296.56205,787.32596 160.10452,787.09095 45.755921,786.49355 42.454052,785.9984 c -5.186016,-0.77769 -6.210836,-1.47425 -7.526945,-5.116 -1.093432,-3.02559 -1.523695,-33.57599 -1.524076,-108.21573 -4.91e-4,-96.23648 -0.458247,-123.04876 -2.201184,-128.93068 -0.461043,-1.55588 0.638048,-2.94087 3.51402,-4.4281 4.536962,-2.34616 5.073265,-2.04802 9.639981,5.35878 1.261648,2.04628 1.727475,28.85796 2.002305,115.24704 0.196986,61.91921 0.697618,112.91921 1.112515,113.33333 0.857221,0.85563 14.097839,0.93927 300.529332,1.8984 114.76667,0.38431 215.56667,0.99443 224,1.35581 8.43333,0.36139 26.73333,1.05947 40.66667,1.55128 13.93333,0.4918 27.73333,1.0521 30.66666,1.2451 2.93334,0.19298 7.43334,-0.51447 10,-1.57212 5.33075,-2.19666 21.52816,-2.39814 37.96866,-0.47228 5.8839,0.68924 16.39801,1.60881 23.36468,2.04348 6.96666,0.43468 17.83904,1.41157 24.16082,2.17088 15.5639,1.86936 97.02998,2.1695 144.50584,0.53241 C 904.6,781.26667 942.7,780.66667 968,780.66667 c 25.3,0 58.6,0.6 74,1.33333 15.4,0.73333 32.5,1.24255 38,1.1316 19.4921,-0.39323 48.75,-0.27995 54.6667,0.21165 35.2735,2.93082 85.3038,3.7956 87.5887,1.514 0.5929,-0.592 1.0345,-10.77706 0.9814,-22.63348 -0.2818,-62.94928 -0.4023,-220.16942 -0.1688,-220.40288 0.1489,-0.14894 1.8515,-0.66753 3.7835,-1.15244 2.6794,-0.67248 4.2049,-0.14468 6.4308,2.22496 l 2.9181,3.10659 -0.011,98 c -0.01,53.9 0.054,110.11155 0.134,124.91456 0.1756,32.70325 0.062,32.95411 -13.4276,29.76279 z M 954.82929,725.19636 C 939.17843,716.22156 929.31659,701.60219 921.64277,676 c -2.11166,-7.04513 -3.65574,-20.48421 -4.8256,-42 -0.45253,-8.32288 2.03906,-18.13341 6.216,-24.47529 1.7598,-2.67192 3.5712,-6.35804 4.02534,-8.19138 1.8682,-7.54202 3.74216,-8.54477 16.46302,-8.80937 12.27432,-0.25532 37.44547,-5.14864 50.98387,-9.91139 4.12203,-1.4501 13.7946,-4.78216 21.4946,-7.40456 29.5245,-10.05521 74.217,-30.97774 80.5828,-37.72429 2.1539,-2.28272 4.7039,-4.15039 5.6667,-4.15039 2.2773,0 2.2339,-2.82917 -0.092,-6.01022 -1.7501,-2.3933 -2.1943,-2.20376 -8.841,3.77224 -15.6063,14.0314 -34.5079,23.73344 -73.9831,37.97504 -38.50289,13.89078 -75.33219,21.29201 -77.52436,15.5793 -0.42569,-1.10934 0.008,-2.95985 0.96493,-4.11226 1.24731,-1.50291 0.18431,-1.28496 -3.76001,0.77093 -6.73691,3.51148 -7.7668,4.71123 -10.36449,12.07389 -2.41142,6.83466 -4.93767,9.90108 -10.40322,12.62766 -8.39033,4.18565 -15.02028,1.15044 -18.34978,-8.4006 -0.8199,-2.35179 -2.0814,-4.27598 -2.80342,-4.27598 -0.72201,0 -5.41389,1.8 -10.42638,4 -5.21616,2.28939 -11.42679,4 -14.52258,4 -4.68108,0 -5.69193,-0.54722 -7.51188,-4.06664 -3.88238,-7.50769 -1.01465,-11.0464 18.03446,-22.25412 C 898.29484,565.81759 916,554.51183 916,553.72733 c 0,-0.32146 -0.9,-1.48448 -2,-2.58448 -1.1,-1.1 -2,-2.435 -2,-2.96666 0,-0.53168 3.29169,-4.83882 7.31487,-9.57144 4.02317,-4.73262 7.31822,-8.90475 7.32233,-9.27142 0.004,-0.36666 -4.392,-5.32069 -9.76913,-11.00894 l -9.77659,-10.34228 -5.41071,3.91948 c -8.18852,5.93173 -9.80374,5.74826 -13.6692,-1.55272 -3.97102,-7.50039 -3.26164,-9.43624 5.18844,-14.15892 3.09338,-1.72887 5.33643,-3.43128 4.98456,-3.78315 -0.35186,-0.35187 -4.03642,0.0653 -8.18789,0.92723 -10.52569,2.18512 -13.66039,1.14777 -14.79416,-4.89576 -1.42643,-7.60348 0.24321,-8.90984 13.60493,-10.64479 6.52258,-0.84692 16.65922,-2.24139 22.52588,-3.09881 L 922,473.13569 l 2.23045,-6.90117 c 1.52171,-4.70824 1.79559,-7.32487 0.86191,-8.23452 -0.91932,-0.89567 -1.87031,-0.50568 -2.89712,1.18807 -0.84072,1.38676 -3.62857,4.76917 -6.19524,7.51648 -4.31792,4.6218 -5.31285,5.03122 -13.31336,5.4786 l -8.64669,0.48352 L 890.91361,464 c -2.48441,-6.88715 -3.11293,-11.27983 -3.06102,-21.39332 0.0965,-18.8072 4.48845,-31.87225 17.17161,-51.08193 l 6.03595,-9.14191 -2.72583,-5.61057 c -3.68029,-7.57515 -2.62117,-11.69508 5.1262,-19.94084 3.53019,-3.75728 7.59328,-8.35939 9.02912,-10.2269 1.43583,-1.8675 4.99369,-4.55462 7.90637,-5.97137 l 5.2958,-2.57592 -3.8459,-4.66575 C 929.73065,330.82533 928,327.94135 928,326.98263 c 0,-0.95871 -0.94976,-3.19263 -2.11057,-4.96426 -2.98547,-4.5564 -1.38484,-8.68504 3.36709,-8.68504 2.05891,0 5.58916,-0.36913 7.84499,-0.8203 3.4716,-0.69432 4.72033,-0.14276 8.13089,3.59133 2.21617,2.42639 4.23996,4.14552 4.49732,3.82029 0.25736,-0.32522 1.54051,-2.92328 2.85143,-5.77346 1.31092,-2.85018 5.46645,-8.35162 9.2345,-12.22542 7.97112,-8.19481 14.78976,-10.45565 20.71964,-6.86994 5.83686,3.52945 5.03063,5.84432 -3.92673,11.27456 -10.34591,6.27204 -18.61128,14.31912 -18.59977,18.10856 0.005,1.5919 1.06501,4.49589 2.35596,6.45329 l 2.34717,3.55889 10.64404,-6.02845 c 5.85423,-3.31564 28.89664,-15.34933 51.20544,-26.74155 43.0048,-21.96085 44.3525,-22.38513 45.1484,-14.21333 0.2607,2.67641 -0.6877,5.00311 -3.083,7.56353 -3.7551,4.01404 -29.9122,17.63274 -44.1853,23.00512 -10.3904,3.91096 -44.34458,20.76354 -50.12115,24.87682 l -3.98584,2.83817 3.72222,1.95028 c 5.01946,2.62995 13.8675,1.46417 29.69457,-3.9124 12.3276,-4.1878 12.634,-4.22373 14.504,-1.70043 3.6582,4.93646 -0.7577,14.67691 -8.6043,18.97886 -4.6202,2.5331 -26.79472,3.70028 -29.651,1.56072 -1.50852,-1.13 -1.59044,-1.66434 -0.33333,-2.17442 2.53266,-1.02766 2.0963,-4.90422 -0.44239,-3.93004 -1.15997,0.44514 -2.67217,0.80932 -3.36043,0.80932 -0.68826,0 -0.0392,2.3761 1.44239,5.28022 4.35573,8.53796 3.66825,11.23098 -4.4274,17.34326 -3.91664,2.95708 -7.80859,5.37652 -8.64877,5.37652 -0.84019,0 -2.42807,-2.15506 -3.52862,-4.78905 l -2.00098,-4.78905 -3.50906,4.17028 c -3.82381,4.54433 -9.67548,8.06341 -13.45853,8.0937 -2.79133,0.0224 -9.08712,10.6556 -11.88267,20.06923 -3.90378,13.14547 -2.80816,38.08308 1.73824,39.56417 0.87364,0.2846 2.48704,-1.22022 3.58532,-3.34406 1.09828,-2.12384 4.14775,-6.43595 6.77659,-9.58247 l 4.77972,-5.72096 -0.86677,-14.96195 c -0.76263,-13.1642 -0.60294,-15.0632 1.32902,-15.80457 2.18779,-0.83953 22.5658,8.546 24.16168,11.12819 1.34188,2.17121 6.36996,1.4891 20.03911,-2.71852 7.17992,-2.21012 19.27158,-4.82231 26.87038,-5.80487 10.3224,-1.33473 14.5644,-2.47385 16.7762,-4.50499 6.2194,-5.71141 25.3776,-17.79692 27.14,-17.12062 1.8157,0.69674 1.7681,7.07516 -0.1919,25.73393 -0.4179,3.97831 -0.031,5.93136 1.3255,6.69048 1.0536,0.58965 5.1292,4.11789 9.0567,7.84053 8.029,7.61006 12.0538,15.12795 15.1166,28.23583 3.089,13.22017 0.1463,24.55169 -10.359,39.88876 -3.6753,5.36587 -3.731,5.66603 -1.2938,6.9704 2.0401,1.0918 2.9347,0.77899 4.4956,-1.57183 l 1.9487,-2.93489 12.5276,4.50115 c 25.6292,9.20848 30.8283,10.90496 31.4659,10.26732 1.7774,-1.77734 -34.4005,-15.50614 -40.8615,-15.50614 -3.4617,0 -4.5142,-2.02458 -2.7582,-5.30577 1.9348,-3.61519 5.1004,-3.40867 20.0148,1.30577 6.9598,2.2 12.8321,4 13.0495,4 0.2174,0 2.0781,-3.75 4.1348,-8.33333 2.0567,-4.58333 6.4878,-14.03333 9.8469,-21 8.648,-17.93612 8.8676,-19.29435 3.5629,-22.03753 -2.3723,-1.22675 -7.0765,-2.32016 -10.4537,-2.4298 l -6.1404,-0.19934 -4.2963,13.33334 C 1105.5709,469.76871 1101.2755,480 1099.2155,480 c -2.3555,0 -2.3597,-1.3208 -0.024,-7.63968 1.0219,-2.76484 2.8741,-8.62699 4.1162,-13.02699 3.2997,-11.68973 7.3491,-24.77665 9.0258,-29.16989 1.4605,-3.82664 1.4873,-3.83441 10.3847,-3.00749 4.9062,0.45598 11.166,1.76732 13.9106,2.91408 4.4655,1.8658 5.2254,1.87205 7.2283,0.0595 2.35,-2.12672 17.8252,-7.4161 21.7837,-7.44561 1.5507,-0.012 3.6428,-2.96869 6.3793,-9.0172 6.0216,-13.30904 7.561,-15.66667 10.2294,-15.66667 1.8095,0 3.2937,2.51428 5.9027,10 l 3.4853,10 15.1813,0.66667 c 8.3498,0.36667 15.0314,1.11667 14.848,1.66667 -0.1833,0.55 -0.3333,1.57764 -0.3333,2.28365 0,0.70601 -3.6,3.72836 -8,6.71635 -4.4,2.98798 -8,6.18428 -8,7.10288 0,0.9186 0.9,5.12552 2,9.3487 2.7361,10.50478 2.5765,15.14606 -0.579,16.83484 -3.7787,2.02231 -4.4653,1.83179 -11.9481,-3.31546 -6.4246,-4.41931 -7.0416,-4.58415 -10.483,-2.80064 -2.0111,1.04226 -6.3566,4.26249 -9.6566,7.15605 -5.7399,5.03299 -10.789,8.34029 -12.7326,8.34029 -0.4994,0 -0.5008,-3.25869 0,-7.24152 2.2012,-17.61746 2.1596,-20.81512 -0.2807,-21.60061 -1.2742,-0.41013 -5.128,-1.88843 -8.564,-3.28511 -7.3992,-3.0075 -7.7534,-3.04576 -7.7534,-0.83758 0,0.93602 -4.5638,10.98602 -10.1419,22.33333 -5.5781,11.34732 -10.9429,22.857 -11.9217,25.57707 l -1.7797,4.94558 6.0856,3.03931 c 3.3471,1.67161 6.3916,3.83659 6.7655,4.81103 0.9912,2.58297 -2.3255,8.06582 -6.8116,11.26017 -3.2215,2.29395 -4.5437,2.53348 -7.6052,1.37789 -3.3147,-1.25118 -4.1512,-0.93913 -7.9283,2.95791 -4.0475,4.17593 -4.1408,4.51509 -2.2495,8.17625 2.8062,5.43218 4.0568,19.9685 2.3602,27.433 -2.8194,12.40432 -7.7324,20.59115 -19.2578,32.09067 -10.2763,10.25319 -11.3018,11.78064 -14.1049,21.00983 -5.064,16.67334 -14.5696,29.79594 -27.6393,38.15658 -6.1791,3.95271 -8.0127,4.45951 -16.0406,4.43358 -10.5104,-0.034 -17.65,-2.76179 -24.0937,-9.20544 -5.9857,-5.98568 -5.7688,-10.95186 0.8838,-20.2422 4.2183,-5.89071 9.4791,-15.86247 9.4791,-17.96731 0,-0.24855 -1.3131,-1.67527 -2.918,-3.17049 -6.338,-5.90475 -22.86441,-1.62035 -36.12066,9.36413 -5.78183,4.79096 -10.29921,12.784 -10.28459,18.19747 0.0143,5.29452 6.98436,31.59673 13.35236,50.38645 6.92292,20.42709 7.98579,30.01887 4.22075,38.08991 -7.89765,16.93004 -20.07656,21.52297 -34.75387,13.10645 z m -5.56586,-69.72652 c 9.12822,-2.64175 17.37822,-4.80317 18.33333,-4.80317 0.97561,0 1.73657,-1.50003 1.73657,-3.42319 0,-2.93528 -0.42758,-3.29128 -3,-2.49775 -1.65,0.50899 -4.71789,1.79994 -6.81754,2.86878 -4.05907,2.0663 -12.65896,4.46112 -25.18246,7.01258 -6.32581,1.28879 -7.66666,2.039 -7.66666,4.28954 0,3.20613 -0.82784,3.33241 22.59676,-3.44679 z m 122.34627,-49.63228 c 0.3398,-1.01932 -5.0704,-1.71731 -17.2238,-2.22209 -9.7456,-0.40478 -19.0692,-1.15383 -20.7192,-1.66456 -1.8201,-0.56336 -3,-0.36767 -3,0.49757 0,2.20619 8.9137,4.54475 20.6666,5.422 12.0787,0.90159 19.5479,0.15272 20.2764,-2.03292 z M 958,572.67453 c 9.71335,-5.61797 34.09988,-17.62081 46.1489,-22.71409 11.2429,-4.75252 14.1729,-6.83868 12.2731,-8.73845 -1.4087,-1.40871 -6.1539,0.41266 -17.08867,6.5593 -2.2,1.23666 -11.8,6.29963 -21.33333,11.25107 -24.63537,12.79515 -33.82409,18.26917 -30.66667,18.26917 1.46667,0 6.26667,-2.08214 10.66667,-4.627 z m -30,-25.2853 c 4.35107,-3.34767 26.3618,-16.64003 32.33333,-19.52622 3.48334,-1.68358 6.33334,-3.86032 6.33334,-4.83721 0,-3.22891 -3.85963,-3.33004 -8.8716,-0.23248 -4.97246,3.07315 -19.9825,14.95856 -22.46174,17.78589 -0.73333,0.8363 -4.18333,3.17339 -7.66666,5.19354 -3.48334,2.02014 -6.33334,3.92888 -6.33334,4.24161 0,0.85507 4.39026,-0.87369 6.66667,-2.62513 z m 7.12372,-27.0559 c 0.33793,-0.55 -2.19127,-4.09758 -5.62044,-7.88352 -4.97449,-5.49201 -6.59932,-8.52636 -8.03781,-15.01044 -1.04871,-4.7271 -1.43296,-10.49313 -0.91854,-13.78314 l 0.8844,-5.65623 -3.42492,3.65441 c -2.39498,2.55544 -3.35752,4.96123 -3.20078,8 0.12333,2.39007 -0.2247,6.00395 -0.77328,8.03084 -0.89779,3.31707 -0.0168,4.68208 8.81844,13.66312 9.75706,9.9181 11.09689,10.89899 12.27293,8.98496 z m 172.20958,-9.75988 c 0,-1.86274 -11.4068,-8.16246 -12.6555,-6.98933 -0.3606,0.33873 0.5087,1.26743 1.9316,2.06375 1.4229,0.79632 3.8179,2.78346 5.3222,4.41586 2.9807,3.23451 5.4017,3.46298 5.4017,0.50972 z m -60.7705,-12.61512 c 16.6046,-2.9641 20.9293,-5.72296 28.1513,-17.95833 5.9584,-10.09473 7.9492,-18.17545 6.4519,-26.18959 -1.6883,-9.03716 -8.3294,-22.60086 -12.0433,-24.59686 -4.9061,-2.63684 -35.5206,-2.26998 -48.456,0.58066 -16.521,3.64079 -37.53691,11.12746 -49.9351,17.78876 -14.51071,7.79634 -27.73277,16.68279 -30.32171,20.379 -1.93836,2.76739 -1.7195,3.21638 4.45558,9.14086 6.96712,6.68438 22.00672,14.66532 34.45586,18.28438 15.10334,4.39066 49.64887,5.71158 67.24147,2.57112 z m -20.712,-9.93176 c -4.4911,-1.81464 -8.5175,-7.93258 -8.5175,-12.94222 0,-6.49943 4.863,-14.0821 12.275,-19.14002 3.7446,-2.55532 6.3917,-5.37964 6.3917,-6.81968 0,-1.35189 0.6699,-2.45798 1.4888,-2.45798 0.8728,0 1.2226,-1.3923 0.8455,-3.36516 -0.9004,-4.70983 0.9248,-5.26243 5.706,-1.72758 3.1391,2.32086 3.9194,3.73839 3.3365,6.06104 -0.5765,2.29667 -0.1891,3.03291 1.5978,3.03668 3.8478,0.008 10.7425,4.91376 12.9757,9.23228 3.5902,6.9427 -0.2028,17.19128 -8.8921,24.02632 -5.9559,4.6849 -20.377,6.85612 -27.2074,4.09632 z m 21.8879,-18.35058 c -0.7614,-3.86334 -4.7359,-5.21086 -8.7408,-2.9635 -4.7221,2.64986 -5.4431,6.29546 -1.5314,7.74251 3.8034,1.40695 10.8456,-1.8694 10.2722,-4.77901 z m -53.51647,-6.56488 c -1.77927,-1.77926 -0.79574,-3.19868 3.7028,-5.34388 4.55127,-2.17036 4.57377,-2.22431 2.55317,-6.13163 -1.57069,-3.03745 -1.67479,-4.28929 -0.4536,-5.45547 1.193,-1.13924 1.9629,-0.88905 3.1135,1.0118 0.8407,1.38891 2.8046,4.06328 4.3641,5.94306 l 2.8356,3.41778 -2.753,3.72362 c -2.1377,2.89145 -3.8392,3.72361 -7.61332,3.72361 -2.6732,0 -5.26037,-0.4 -5.74925,-0.88889 z m 185.66797,-12.04044 6.7702,-7.59599 3.6698,2.92049 c 5.1825,4.12431 11.0031,7.2178 11.0031,5.8478 0,-0.63736 -1.2055,-4.66276 -2.6789,-8.94532 -3.2372,-9.40912 -2.609,-11.99912 3.3907,-13.97921 8.5779,-2.83096 6.9276,-4.32357 -4.0845,-3.69415 l -10.3838,0.59352 -3.4366,-7.77557 c -1.8901,-4.27657 -3.7913,-7.77557 -4.2249,-7.77557 -0.4335,0 -2.2536,3.15 -4.0445,7 -2.2032,4.73609 -4.0025,6.9401 -5.5636,6.81481 -1.4019,-0.11253 -2.3072,0.75705 -2.3072,2.21613 0,1.76196 -1.4182,2.64092 -5.3263,3.3012 -6.8512,1.15751 -7.7284,2.70598 -2.5547,4.50954 2.2637,0.78913 4.4329,2.64757 4.8206,4.12988 0.3876,1.4823 1.5348,2.6951 2.5492,2.6951 1.3813,0 1.8445,2.1766 1.8445,8.66667 0,11.01524 1.5531,11.17275 10.5569,1.07067 z M 931.26344,383.4138 c -1.95985,-2.99113 -5.93011,-3.44019 -5.93011,-0.67073 0,1.36924 4.02855,3.82726 6.36407,3.88305 1.25097,0.0299 1.13684,-0.815 -0.43396,-3.21232 z m 40.09529,-10.12156 c 1.92434,-3.11364 -28.91053,-49.87305 -34.11706,-51.73668 -3.09646,-1.10835 -0.56811,3.39009 7.42418,13.20916 5.46802,6.71781 11.24927,16.02387 15.66667,25.21856 6.5718,13.67901 8.99204,16.60032 11.02621,13.30896 z m -44.69206,-1.05179 c 0,-0.60109 -1.5,-2.39712 -3.33334,-3.99118 C 921.5,366.6552 920,364.327 920,363.07548 c 0,-1.65407 -0.40029,-1.87519 -1.46579,-0.80969 -1.70753,1.70753 -0.56469,6.17992 2.31504,9.05965 2.1465,2.14649 5.81742,2.72388 5.81742,0.91501 z m 26.66666,-8.16176 c 0,-2.30994 -2.3468,-2.73733 -4.01218,-0.73068 -1.37116,1.65215 -1.17275,1.98532 1.18226,1.98532 1.55646,0 2.82992,-0.56458 2.82992,-1.25464 z m 57.11877,-9.88448 c 2.4335,-2.20228 3.3464,-6.19421 1.4166,-6.19421 -1.5308,0 -23.02518,8.0366 -23.83426,8.91145 -0.3856,0.41696 3.95232,0.47235 9.63984,0.12307 7.03452,-0.43199 11.12012,-1.34016 12.77782,-2.84033 z m 38.2146,-53.49992 c 13.4599,-6.57024 17.7591,-9.37962 16.4131,-10.72557 -0.5037,-0.50379 -7.7028,2.57333 -15.9979,6.83804 -8.295,4.26472 -18.821,9.57784 -23.391,11.80696 -4.5701,2.22912 -8.3201,4.47621 -8.3334,4.99353 -0.031,1.19286 15.7183,-5.30257 31.3092,-12.91296 z m -80.00003,5.4186 c 2.2,-1.76396 3.66244,-3.54854 3.24986,-3.96573 -0.41258,-0.4172 -2.81258,1.00463 -5.33333,3.15963 -5.48297,4.68738 -3.64444,5.39873 2.08347,0.8061 z m -490.31346,407.9926 c -4.51401,-2.23254 -11.69204,-13.68145 -11.65489,-18.5895 0.0389,-5.14844 5.19143,-17.95623 10.03592,-24.94684 l 3.60645,-5.20411 -3.24757,-4.34919 c -6.04744,-8.09878 -8.26452,-14.50889 -8.19116,-23.68252 0.10307,-12.88798 6.3686,-25.12297 19.92383,-38.90616 4.09617,-4.16505 7.05066,-8.21505 6.56554,-9 -1.15128,-1.86281 -18.68136,-1.8423 -29.94878,0.0351 -12.29124,2.04792 -29.03435,7.22919 -41.03834,12.69959 -8.86424,4.03956 -11.60026,4.65673 -20.91497,4.71782 -10.11551,0.0664 -10.89612,-0.13842 -13.91712,-3.65054 -2.71628,-3.15787 -3.07679,-4.62351 -2.38275,-9.68711 1.12739,-8.22513 5.43343,-13.25272 16.96302,-19.80539 13.81574,-7.85198 31.4303,-11.45138 56.51428,-11.54828 18.45565,-0.0713 21.62709,0.43544 40.78846,6.51702 2.27671,0.7226 2.54487,0.0927 2.54487,-5.97808 0,-8.11127 5.67772,-21.61856 12.67843,-30.162 5.22114,-6.37171 5.56252,-8.00943 2.56241,-12.29267 l -2.09248,-2.98744 -9.24085,4.85592 c -5.08246,2.67076 -9.23807,5.53161 -9.23467,6.35744 0.004,0.82583 1.46887,5.09241 3.2566,9.48131 2.98855,7.33686 3.07916,8.16905 1.12477,10.32862 -2.94476,3.25394 -4.78193,1.36918 -8.46364,-8.68285 -1.67044,-4.56073 -3.13318,-8.43876 -3.25056,-8.61783 -0.11733,-0.17908 -4.44418,1.55422 -9.61513,3.85176 -6.65865,2.95856 -10.43129,3.91895 -12.93055,3.29168 -4.5482,-1.14153 -9.07526,-5.68105 -8.54297,-8.56649 0.38952,-2.11155 18.20613,-12.32019 24.61483,-14.10392 2.32341,-0.64667 21.19022,-10.71125 22.94169,-12.23833 0.261,-0.22758 -0.43835,-3.00022 -1.55411,-6.16143 -1.11574,-3.16123 -3.95133,-12.64768 -6.30129,-21.08101 -2.34996,-8.43334 -4.65061,-15.753 -5.11256,-16.26595 -1.121,-1.24471 -8.99796,2.52979 -15.09027,7.23097 l -4.91702,3.79427 6.38752,12.95369 c 12.30256,24.9492 12.22548,24.74615 10.17284,26.79879 -2.37319,2.37319 -5.04706,1.33016 -6.87967,-2.68364 -0.79391,-1.73881 -3.07968,-6.76147 -5.07951,-11.16147 -1.99982,-4.4 -6.00576,-11.96126 -8.90209,-16.8028 -2.89632,-4.84154 -4.92164,-9.70026 -4.50072,-10.79718 0.42092,-1.09691 2.4956,-3.27363 4.6104,-4.83718 C 476.53516,459.87207 493.39913,452 496.84013,452 c 4.34552,0 4.81319,1.11032 12.63571,30 4.80393,17.74163 5.59123,18.60853 13.02493,14.34216 3.01242,-1.72888 4.43655,-1.93817 5.55792,-0.8168 1.58675,1.58675 0.86504,2.26431 -9.78457,9.18628 -2.78256,1.8086 -5.61904,3.28836 -6.30328,3.28836 -0.68424,0 -4.70759,1.86 -8.94079,4.13333 -13.91762,7.47411 -16.94548,9.01354 -24.69672,12.55626 -4.21666,1.92724 -7.66666,4.0165 -7.66666,4.64281 0,1.94792 4.50828,2.17207 8,0.39773 1.83333,-0.93162 14.43333,-7.13308 28,-13.78104 24.56428,-12.037 30.33909,-15.64877 27,-16.88673 -2.37604,-0.88092 -2.06403,-5.29124 0.44238,-6.25304 3.46259,-1.32872 4.38936,-0.97228 6.71983,2.58447 3.12261,4.76569 0.63157,8.90825 -8.49765,14.13146 -4.92324,2.81679 -6.93432,4.71723 -6.41742,6.0643 0.41407,1.07904 0.75286,2.21281 0.75286,2.5195 0,1.55726 3.78174,0.12 9.7331,-3.69892 3.64828,-2.34109 13.16762,-6.4329 21.15407,-9.0929 13.88796,-4.62559 14.41151,-4.93528 12.01277,-7.10612 -3.96844,-3.59138 -9.14666,-14.1158 -11.5704,-23.51607 -2.23513,-8.66879 -1.92909,-19.19105 0.7642,-26.27495 0.98436,-2.58906 0.74363,-3.08676 -1.49308,-3.08676 -1.6176,0 -3.16524,1.31134 -3.934,3.33334 -0.71708,1.88608 -2.33086,3.33333 -3.71688,3.33333 -1.34725,0 -7.69169,1.77196 -14.09876,3.93768 -10.631,3.59351 -11.72952,3.73919 -12.56792,1.66667 -1.47509,-3.64639 -1.08772,-14.6664 0.57396,-16.32808 1.50319,-1.50319 33.08168,-1.98355 36.79223,-0.55968 1.96211,0.75293 5.48471,-4.21507 4.32232,-6.09586 -0.43196,-0.69893 -3.2836,-1.07316 -6.33697,-0.83162 -4.73639,0.37465 -6.15055,-0.16498 -9.63067,-3.67499 C 540.56081,421.93465 536,415.85484 536,413.22344 c 0,-3.05637 12.21293,-15.89011 15.12145,-15.89011 1.16462,0 2.26671,1.9594 2.81234,5 1.99082,11.09428 5.48078,19.13694 10.39954,23.96586 l 5,4.90868 5,-4.70718 c 7.1771,-6.75674 14.48967,-12.17202 23.819,-17.63901 4.48378,-2.62749 9.08962,-6.20775 10.23519,-7.95612 4.14613,-6.32779 39.49095,-29.96209 42.25408,-28.25439 0.60837,0.376 0.78667,5.33331 0.39619,11.01623 L 650.32784,394 l 16.16444,-0.44488 c 8.89044,-0.24469 19.21761,0.20989 22.94927,1.0102 5.97918,1.28231 7.21097,1.15163 10.37376,-1.10048 4.93214,-3.512 27.89548,-12.46763 29.4713,-11.49372 0.77946,0.48173 0.81714,1.94459 0.0964,3.74316 -0.65069,1.62381 -2.48792,8.87451 -4.08272,16.11265 l -2.89965,13.16026 7.26351,7.50641 c 7.55289,7.80547 10.74638,12.03523 15.51306,20.54696 3.0756,5.492 3.83528,16.57619 1.44254,21.04709 -1.74486,3.26027 -6.60412,3.43947 -6.66216,0.24568 -0.0384,-2.11292 -0.22704,-2.08925 -1.99695,0.25066 -1.75307,2.31762 -1.667,2.89006 0.83492,5.55324 1.88947,2.01122 2.50477,3.86621 1.90709,5.74933 -0.55902,1.76137 -0.29732,2.78011 0.71422,2.78011 1.87325,0 1.54417,3.08132 -3.22916,30.23572 -1.82752,10.39632 -4.05342,20.26764 -4.94644,21.93628 -1.21967,2.27897 -1.23842,3.16229 -0.0753,3.54998 3.30954,1.10318 5.50072,4.66014 5.50072,8.92934 0,3.55805 -1.06734,5.36022 -5.27385,8.90476 l -5.27387,4.44392 -2.05226,15.88972 c -2.75834,21.35644 -3.32434,22.11028 -16.60082,22.11028 -13.64808,0 -14.54906,-0.95256 -12.3982,-13.10799 0.86539,-4.89061 1.94916,-10.24201 2.4084,-11.89201 0.70742,-2.54171 0.31866,-3 -2.54482,-3 -6.62124,0 -7.053,0.72094 -6.48214,10.82396 0.34788,6.15652 -0.0713,10.55781 -1.20782,12.68141 -1.6418,3.06772 -1.27987,3.72291 6.37502,11.54017 11.3575,11.59839 16.23172,20.84047 17.07382,32.37386 0.58645,8.03214 0.22616,10.07265 -2.91044,16.48364 -1.96886,4.02418 -6.17472,9.83876 -9.34636,12.92124 -3.17166,3.08249 -5.76664,6.03988 -5.76664,6.57197 0,0.53209 2.54738,5.9886 5.66085,12.12557 l 5.66085,11.15811 -3.15858,5.95401 c -4.03807,7.61183 -12.2787,12.0224 -20.58771,11.019 C 658.252,707.42257 644.37765,691.60977 630.19428,651 c -1.09837,-3.14487 -2.33075,-4.33333 -4.49344,-4.33333 -2.12144,0 -3.74412,-1.49784 -5.63229,-5.19898 -10.57748,-20.73356 -64.71131,-21.33481 -77.36588,-0.85928 -1.82448,2.95207 -2.77348,7.28044 -3.10358,14.1553 -0.84333,17.56452 -12.33882,36.65358 -28.77208,47.77804 -14.69924,9.95062 -26.9296,14.30578 -32.4738,11.56374 z m 215.4216,-56.58192 c 6.19671,-2.1835 11.96927,-8.22393 9.86767,-10.32554 -0.50037,-0.50036 -4.51972,-0.14367 -8.93189,0.79265 -5.55654,1.17917 -15.40186,1.50876 -32.03303,1.07236 -13.20599,-0.34652 -23.99755,-0.27747 -23.98124,0.15347 0.0163,0.43092 1.06631,2.12924 2.33333,3.77402 1.96186,2.54679 3.98536,3.10538 13.63702,3.76442 6.23333,0.42562 13.73333,1.26088 16.66666,1.85613 8.4169,1.70799 15.47923,1.36575 22.44148,-1.08751 z m -161.6584,-8.92885 c 0.66931,-0.41365 1.21692,-1.61669 1.21692,-2.67341 0,-1.9526 -0.65173,-2.07052 -14.66666,-2.65359 -4.03334,-0.16781 -14.98334,-0.6482 -24.33334,-1.06753 -14.18476,-0.63618 -17,-0.44764 -17,1.13844 0,2.28658 4.30939,4.78358 10.66667,6.18062 5.01223,1.10146 42.09575,0.32431 44.11641,-0.92453 z m 148.91688,-55.49484 c -0.35454,-1.06364 -5.84946,-1.67319 -17.1111,-1.89811 -15.89376,-0.31742 -36.14562,-3.56744 -56.2544,-9.02768 -3.85062,-1.04557 -14.20112,-3.52614 -23.00112,-5.51237 -27.58278,-6.22565 -60.81048,-16.31227 -66.63002,-20.22623 -1.44649,-0.97285 -3.13822,-1.76882 -3.7594,-1.76882 -1.86222,0 -0.43402,5.64306 1.72275,6.80688 2.76484,1.49193 26.17771,9.46342 40.66667,13.84598 6.6,1.99634 15.31834,4.71974 19.37409,6.052 20.13551,6.61426 39.3492,9.99879 67.29257,11.85374 25.83036,1.71469 38.2995,1.67321 37.69996,-0.12534 z m 38.01275,-14.76655 c 0.37952,-4.58333 1.14587,-9.78453 1.70299,-11.55822 0.88489,-2.81722 0.69088,-3.08943 -1.53471,-2.15332 -1.40121,0.58937 -4.64765,1.44968 -7.21432,1.9118 -3.82773,0.68916 -4.95276,1.6755 -6.25808,5.48664 -1.77119,5.17133 -2.21888,12.3917 -0.85303,13.75754 0.48888,0.4889 3.71899,0.8889 7.178,0.8889 h 6.28912 z m -212.39347,3.68364 c 2.36114,-2.84497 0.77102,-5.96525 -2.59178,-5.08586 -3.69806,0.96705 -4.63826,2.76652 -2.67899,5.12729 2.03813,2.4558 3.20588,2.44663 5.27077,-0.0415 z m 154.68076,-5.50796 c 17.3995,-4.36184 20.26004,-6.34189 4.42868,-3.06549 -12.82661,2.65455 -19.56512,3.59837 -27.76201,3.88848 -4.24343,0.15019 -4.78839,0.42293 -2.66667,1.33467 4.69311,2.01669 11.65214,1.4392 26,-2.15766 z m -36.3611,-2.6479 c -0.44306,-0.44306 -1.59307,-0.49042 -2.55556,-0.1052 -1.06364,0.42562 -0.74771,0.74157 0.80556,0.80554 1.40554,0.0579 2.19305,-0.25724 1.75,-0.70029 z m -8.15084,-3.60619 c -1.38158,-0.87353 -4.1682,-2.93825 -6.19248,-4.58825 -4.23031,-3.44814 -5.29558,-3.70018 -5.29558,-1.25291 0,0.96091 2.55,3.05257 5.66667,4.64817 5.96729,3.05499 10.10851,3.90366 5.82139,1.19299 z m 56.09638,-35.02189 c 5.27146,-2.5115 11.47146,-4.56636 13.77779,-4.56636 5.82765,0 4.42021,-2.87507 -1.6752,-3.42203 -2.94595,-0.26435 -8.16691,0.85331 -13.19981,2.82569 -14.9256,5.8493 -29.28579,3.95855 -36.10415,-4.7537 -4.32931,-5.53183 -7.48465,-4.2943 -4.07091,1.59662 3.57572,6.1704 10.49408,10.78595 18.83514,12.56572 8.89261,1.89746 9.97093,1.6934 22.43714,-4.24594 z M 730.16875,516 c 1.67561,-9.16667 3.4487,-19.86831 3.94021,-23.78141 0.86735,-6.90542 0.80188,-7.10156 -2.22501,-6.66667 -3.35971,0.48272 -3.22911,0.0685 -9.10543,28.87524 -1.39428,6.83493 -3.5392,13.53673 -4.76649,14.89289 -2.10662,2.32778 -2.05748,2.50014 0.87825,3.0809 7.93079,1.56888 8.01644,1.44432 11.27847,-16.40095 z m -17.35444,13.90395 c -0.44239,-1.15283 -0.2591,-4.60283 0.4073,-7.66667 3.06324,-14.08348 4.11767,-20.00912 3.64463,-20.48215 -0.28176,-0.28176 -3.48452,1.83711 -7.11723,4.70862 -3.63272,2.87149 -8.51236,6.20726 -10.84365,7.41281 -4.78141,2.47257 -4.88696,2.82412 -2.23869,7.45677 1.04802,1.83334 1.92677,4.98334 1.95274,7 0.0459,3.55842 0.26796,3.66667 7.52324,3.66667 6.24979,0 7.34406,-0.34379 6.67166,-2.09605 z m 11.94053,-48.66804 c 1.31444,-1.45244 1.73975,-3.45731 1.19437,-5.63024 -0.58814,-2.34335 -0.0987,-4.1272 1.60191,-5.83744 1.34688,-1.35456 4.75953,-5.61958 7.58365,-9.47779 l 5.13479,-7.01492 -5.45585,-9.18356 c -3.00072,-5.05096 -8.47974,-12.49217 -12.17559,-16.53603 -5.68273,-6.21781 -7.79028,-7.58205 -13.65673,-8.84018 -11.04926,-2.36964 -43.64572,-3.3484 -52.54871,-1.57787 -4.27131,0.84944 -13.64887,2.69973 -20.83903,4.11177 -19.10584,3.7521 -40.26725,14.71022 -44.81428,23.20642 -1.53481,2.86784 -1.32646,3.9398 1.80411,9.28169 4.26371,7.27548 7.39603,9.70537 28.08319,21.78545 18.28608,10.678 20.11452,11.46699 34.66666,14.95896 22.95242,5.50774 27.23844,6.10166 44.32602,6.14238 10.77346,0.0257 17.72562,0.56268 17.8069,1.37545 0.0733,0.73333 1.28398,-2.23107 2.6903,-6.58755 1.40632,-4.35649 3.47554,-8.93593 4.59829,-10.17654 z m -34.6702,-4.86958 c -9.17281,-2.33637 -16.74368,-12.23609 -14.91863,-19.5077 1.14134,-4.54742 9.8123,-12.5025 16.34843,-14.99867 3.2004,-1.22224 5.81889,-2.97653 5.81889,-3.89845 0,-0.92191 0.9,-2.02156 2,-2.44368 1.1,-0.42211 2,-2.2863 2,-4.14266 0,-1.85634 0.48716,-3.37517 1.08259,-3.37517 1.58639,0 7.58979,8.4178 7.217,10.11948 -0.17505,0.79905 2.08836,2.17387 5.0298,3.05515 7.15048,2.14233 9.87455,6.46892 8.99363,14.28441 -1.61762,14.35151 -18.36426,24.78073 -33.57171,20.90729 z m 16.19501,-17.70232 c 0.26999,-3.85908 0.0832,-3.99734 -5.4,-3.99734 -6.41264,0 -8.88233,1.70176 -7.90325,5.44577 0.53705,2.05367 1.87865,2.55371 6.84577,2.55157 5.9116,-0.003 6.18988,-0.1749 6.45748,-4 z m -47.94632,-14.0933 c -4.74642,-2.57499 -4.63865,-4.37059 0.36708,-6.1156 3.69738,-1.28891 3.96296,-1.78344 3.18495,-5.93064 -1.20619,-6.42947 1.22707,-5.70459 5.29748,1.57816 3.20175,5.72856 3.28107,6.30065 1.29397,9.33333 -2.41796,3.69027 -4.91749,3.96989 -10.14348,1.13475 z m 76.33334,32.17465 c 0,-0.32339 -0.6,-0.9588 -1.33334,-1.41203 C 732.6,474.88011 732,475.14469 732,475.92131 c 0,0.77661 0.6,1.41202 1.33333,1.41202 0.73334,0 1.33334,-0.26458 1.33334,-0.58797 z m 65.17646,202.07817 c -2.84705,-2.84706 -5.17646,-6.47998 -5.17646,-8.07316 0,-5.02338 5.1599,-14.4816 11.01916,-20.19832 12.44709,-12.1443 57.00469,-37.0693 74.95249,-41.92754 8.49588,-2.29974 9.17091,-2.30651 13.15848,-0.13214 2.31176,1.2606 6.18721,3.92782 8.61211,5.92712 5.66366,4.66964 4.7538,7.19018 -4.21894,11.68743 -3.77114,1.89016 -8.76661,4.88933 -11.10101,6.66483 -2.3344,1.7755 -4.59828,3.22818 -5.03084,3.22818 -1.84228,0 -22.07015,14.23735 -30.04795,21.14919 -8.52462,7.38567 -16.62724,13.51755 -17.86189,13.51755 -0.34451,0 -4.14624,2.33796 -8.44828,5.19545 -6.70635,4.45447 -15.47085,8.1044 -19.52353,8.13044 -0.63627,0.004 -3.48627,-2.32197 -6.33334,-5.16903 z m -598.97609,-64.4902 c -3.26537,-4.32896 -5.65184,-14.52038 -7.13136,-30.45449 l -0.69216,-7.45449 -14.85509,-0.26151 c -34.37344,-0.60512 -61.1513,-9.40749 -68.52376,-22.52503 -3.30107,-5.87346 -5.03274,-14.66168 -3.83182,-19.44652 1.33611,-5.32348 10.98276,-16.44214 17.66085,-20.35576 6.00594,-3.51972 6.10552,-3.67938 3.025,-4.85048 -3.55182,-1.35028 -25.24359,-0.4584 -34.5187,1.41926 -3.3,0.66805 -12,2.26493 -19.333333,3.54862 C 65.333333,515.23661 54.233333,518.07055 48,520.25056 26.233781,527.86292 15.849744,528.28637 10.724441,521.77061 9.1946532,519.8258 8,516.32015 8,513.77587 8,509.09783 13.105656,497.53661 16.229323,495.14144 18.626535,493.30329 33.71604,488 36.548917,488 c 1.380215,0 1.900911,-0.60549 1.32376,-1.53935 -0.579752,-0.93805 -0.36676,-1.17804 0.545279,-0.61436 0.823156,0.50874 8.265861,-0.076 16.539345,-1.29934 19.276988,-2.85044 49.454879,-1.80622 66.080089,2.2865 6.13783,1.51099 11.43042,2.47651 11.76132,2.14562 0.3309,-0.33091 -0.61344,-3.43631 -2.09853,-6.9009 C 129.21508,478.61359 128,474.8552 128,473.7262 c 0,-1.60377 -0.40638,-1.71545 -1.85806,-0.51067 -1.49074,1.2372 -3.10722,0.0799 -8.17667,-5.85394 l -6.3186,-7.396 -6.43288,6.01721 C 101.67571,469.29225 98.518657,472 98.198128,472 c -1.282792,0 -8.864795,-7.8304 -8.864795,-9.15521 0,-0.78027 1.779184,-3.44504 3.953743,-5.92174 l 3.953743,-4.50305 -9.4417,-5.87667 C 76.264921,439.36427 68,431.59592 68,427.93379 c 0,-5.4233 13.165903,-25.26712 16.764123,-25.26712 4.528493,0 10.984837,3.9933 27.657217,17.10624 8.21993,6.46502 9.30247,6.95729 11.33333,5.15354 1.23493,-1.09682 4.50022,-2.9254 7.2562,-4.0635 4.85545,-2.00511 5.0735,-1.9737 7.03025,1.01268 2.18112,3.32881 1.66472,5.99613 -2.25809,11.66353 -3.08994,4.46415 -3.06859,5.43288 0.16426,7.45183 3.50528,2.18908 5.35783,1.23784 9.80819,-5.03634 4.18721,-5.90316 4.01671,-8.25312 -1.15755,-15.95465 -1.72441,-2.56667 -6.81798,-13.96667 -11.31906,-25.33333 -4.50106,-11.36667 -9.26999,-23.06667 -10.59761,-26 -1.32762,-2.93334 -4.574,-11.03334 -7.21417,-18 -2.64017,-6.96667 -5.6477,-14.17012 -6.68338,-16.00768 -1.03569,-1.83755 -4.39762,-9.03755 -7.47096,-16 -4.851991,-10.99187 -5.494169,-13.53695 -4.876246,-19.32566 1.950647,-18.27368 14.674586,-43.67816 28.604996,-57.11244 4.79867,-4.62777 5.5694,-4.94498 8.12987,-3.34594 3.83974,2.39796 3.6336,7.83668 -0.58329,15.38986 -2.40123,4.301 -2.99368,6.52959 -2,7.52327 2.39858,2.39859 1.56955,11.1514 -2.01149,21.23696 -1.88288,5.30289 -3.64886,10.69388 -3.92441,11.97997 -0.27555,1.2861 -0.84225,2.89051 -1.25935,3.56538 -0.62689,1.01434 13.35937,29.66353 16.64548,34.09628 0.54364,0.73333 4.1348,7.33333 7.98034,14.66666 3.84555,7.33334 7.81454,14.21191 8.81996,15.28572 1.57958,1.687 1.82806,1.4687 1.82806,-1.60602 0,-1.95711 1.47732,-7.62836 3.28293,-12.60278 1.80561,-4.97441 2.78875,-9.53857 2.18473,-10.14258 -0.60401,-0.60402 -4.61868,-2.1433 -8.92148,-3.42063 -7.64165,-2.26849 -7.8498,-2.45653 -8.96582,-8.09992 -0.95235,-4.81571 -0.73507,-6.18216 1.30521,-8.20816 2.36868,-2.35212 2.63724,-2.34548 8.31296,0.20556 3.22585,1.44991 6.11787,2.38352 6.42671,2.07469 0.30882,-0.30884 -0.68051,-3.1322 -2.19854,-6.27413 -1.51802,-3.14195 -2.76004,-7.05832 -2.76004,-8.70307 0,-3.27712 4.00416,-10.36888 9.57152,-16.95213 4.25126,-5.02697 4.00171,-5.56456 7.01423,15.11012 3.08291,21.15775 2.96919,20.85064 6.54029,17.66135 1.58068,-1.41168 7.54991,-5.48414 13.26495,-9.04992 5.93995,-3.70611 11.55055,-8.35946 13.098,-10.86328 3.72857,-6.03296 24.06521,-24.55232 26.46373,-24.09895 1.074,0.20301 2.38576,2.16499 2.91502,4.35996 0.52925,2.19496 1.68525,6.86491 2.56886,10.37764 l 1.60658,6.3868 5.47841,-0.79311 c 6.34492,-0.91856 30.98115,2.3278 38.84621,5.11882 5.10302,1.81088 6.02379,1.68445 18.66667,-2.56307 7.31437,-2.45735 14.89144,-5.38328 16.83792,-6.50208 4.50024,-2.58663 7.79428,-2.60183 7.79428,-0.036 0,1.099 -2.40153,7.33164 -5.33673,13.85031 -7.24651,16.09349 -7.66084,18.73752 -3.69448,23.57549 5.76846,7.03609 8.77385,13.09427 11.1997,22.57603 1.31334,5.13333 2.51152,9.53216 2.66263,9.77516 0.15111,0.243 8.87571,-4.55527 19.38799,-10.66282 l 19.11322,-11.10462 20.00051,0.37482 c 20.01597,0.37512 41.06837,3.07138 47.33383,6.0622 8.64012,4.1244 -0.98148,12.33216 -15.63886,13.3408 -5.69849,0.39214 -9.3001,1.42616 -11.79038,3.38502 -4.95608,3.89845 -13.14031,5.86246 -19.72092,4.73256 -3.03408,-0.52098 -7.51068,-0.8789 -9.948,-0.79542 -5.49438,0.18822 -20.61608,9.14854 -34.90227,20.68124 -1.10024,0.88819 -8.00024,5.94007 -15.33333,11.22643 -7.33311,5.28635 -14.6817,10.67216 -16.33023,11.96847 l -2.99732,2.35692 6.33065,3.25009 c 10.55542,5.41904 17.2251,11.57964 21.09092,19.48108 3.30423,6.75361 3.54919,8.32633 2.905,18.65179 L 341.62843,468 h 12.23898 c 14.29332,0 26.24028,2.74865 32.41392,7.45752 3.80822,2.90467 4.38534,4.13119 4.38534,9.31983 0,8.09121 -2.63022,13.80744 -9.30391,20.22012 -10.16055,9.76317 -38.64237,23.95566 -62.02943,30.90928 -6.14409,1.82681 -11.86781,4.44673 -13.49964,6.17921 -1.55813,1.65424 -5.06689,8.39725 -7.79725,14.98447 -3.33371,8.04281 -6.56373,13.48826 -9.83371,16.57849 -5.34696,5.05304 -12.42698,8.39531 -15.38197,7.26137 -1.0416,-0.39969 -3.21252,-4.21802 -4.82427,-8.48517 -2.63957,-6.98837 -2.87622,-9.64053 -2.38425,-26.72008 l 0.5462,-18.96163 -3.41256,0.82354 c -1.87689,0.45293 -4.70659,1.29954 -6.2882,1.88134 -1.58161,0.5818 -6.68161,1.42896 -11.33333,1.88256 -15.54648,1.516 -14.60288,0.74438 -14.31776,11.70842 0.36158,13.90398 -2.46811,54.04145 -4.24862,60.264 -0.8346,2.9168 -3.78098,7.5668 -6.54752,10.33333 -4.16869,4.16871 -5.9586,5.03007 -10.4524,5.03007 -4.55813,0 -5.9433,-0.69066 -8.69101,-4.33334 z m -15.59179,-54 c 0.80538,-4.21666 2.83286,-12.01666 4.50552,-17.33333 l 3.04122,-9.66667 h -3.04692 c -3.80183,0 -6.72586,4.32124 -9.19124,13.58323 C 177.55759,558.28548 178.23228,568 182.04812,568 c 1.08737,0 2.32388,-2.93756 3.22713,-7.66667 z m 130.3868,-40 C 315.29861,511.07656 314.98253,510 312.62817,510 c -2.32653,0 -2.62485,0.91817 -2.59928,8 0.0336,9.32449 1.07936,12.66667 3.96314,12.66667 1.73508,0 2.00914,-1.69576 1.67002,-10.33334 z m -177.06996,-14.29554 6.50346,-3.29555 -4.30912,-4.70445 c -2.37,-2.58746 -4.74712,-4.70446 -5.28247,-4.70446 -1.47061,0 -4.83729,8.786 -4.83729,12.62384 0,4.13454 -0.0731,4.13379 7.92542,0.0807 z M 256,494.60245 c 10.63333,-0.78272 22.03333,-1.98254 25.33333,-2.66626 3.3,-0.68374 8.1,-1.56354 10.66667,-1.95512 6.98592,-1.06583 38.66667,-11.40271 38.66667,-12.61627 0,-1.83548 -5.48619,-2.57401 -9.05148,-1.21849 -1.88756,0.71765 -11.87318,2.72222 -22.19023,4.4546 -34.87351,5.85573 -126.44993,7.96269 -149.22215,3.43324 -4.28845,-0.85299 -8.05345,-1.29462 -8.36666,-0.9814 -0.31323,0.31321 0.55606,1.95949 1.93174,3.65838 3.39815,4.19654 18.89135,7.80659 34.23211,7.97639 6.6,0.0731 14.4,0.59244 17.33333,1.15419 6.52563,1.24968 34.66227,0.67493 60.66667,-1.23926 z M 130.73703,460.33333 c 0.88577,-2.75 2.26465,-5.82094 3.06417,-6.82433 1.11916,-1.40451 0.54223,-2.55359 -2.50709,-4.99337 -2.17843,-1.74298 -4.52795,-3.17203 -5.22115,-3.17567 -1.56079,-0.008 -8.73963,6.7594 -8.73963,8.23899 0,1.47154 9.37657,11.75438 10.71842,11.75438 0.59113,0 1.7995,-2.25 2.68528,-5 z m 1.7633,-32.95266 c -0.4321,-1.12603 -1.23864,-2.04734 -1.79232,-2.04734 -1.77326,0 -32.041343,31.88923 -32.041343,33.75746 0,4.78109 3.201243,2.51621 18.296923,-12.94507 11.07227,-11.34045 16.06968,-17.37624 15.53674,-18.76505 z m -22.09437,10.88497 5.62784,-5.73435 -3.68357,-3.37348 c -2.02596,-1.85541 -8.3873,-6.52549 -14.13631,-10.37794 -9.722815,-6.51534 -10.720381,-6.8936 -14.285344,-5.41695 -2.107931,0.87313 -4.976985,3.52711 -6.375677,5.89771 -3.969927,6.72852 -2.005123,9.2911 15.048909,19.62742 4.435672,2.68842 8.989932,4.93842 10.120582,5 1.13065,0.0616 4.58825,-2.4685 7.68357,-5.62241 z M 291.83769,393 c 11.16923,-6.45708 11.12702,-6.42955 21.96818,-14.33333 9.1762,-6.68995 10.06217,-7.74276 10.09829,-12 0.0501,-5.90262 -5.36248,-21.3762 -9.84839,-28.15488 -2.59296,-3.91822 -4.31466,-5.17862 -7.07469,-5.17912 -2.00625,-3.8e-4 -6.93481,-1.25002 -10.95233,-2.77698 -8.98379,-3.41452 -26.82898,-4.45984 -42.68746,-2.50052 -13.16326,1.62632 -36.95609,7.31724 -44.67462,10.68555 -2.93334,1.28008 -9.83334,3.99615 -15.33334,6.03571 -11.36024,4.2127 -16.28822,7.90926 -15.72212,11.79341 0.44796,3.07345 11.52218,12.0674 18.38879,14.93451 2.56667,1.07168 5.86667,2.49165 7.33333,3.15549 11.85299,5.36484 30.44904,12.62 36.2666,14.14923 3.88671,1.02168 10.51674,2.80377 14.7334,3.96021 4.21667,1.15644 12.16667,2.57252 17.66667,3.14684 5.5,0.57432 10.52696,1.12815 11.17103,1.23072 0.64406,0.10253 4.54406,-1.76351 8.66666,-4.14684 z m -20.15426,-8.35001 C 267.70576,382.41489 264,376.36748 264,372.11145 c 0,-7.61588 8.88891,-17.27718 17.99979,-19.56388 1.9519,-0.48989 3.86465,-1.7135 4.25054,-2.71914 0.38591,-1.00564 1.49759,-1.82843 2.47043,-1.82843 0.97283,0 1.95864,-1.60373 2.19068,-3.56384 0.23204,-1.96012 1.05544,-3.77129 1.82976,-4.02485 1.5176,-0.49694 6.56864,8.6166 6.14401,11.08554 -0.1416,0.82327 1.5752,2.25595 3.81511,3.18375 11.31905,4.68851 10.57065,17.19765 -1.60593,26.84224 -5.13919,4.07055 -6.56567,4.50899 -15.7068,4.82761 -7.11912,0.24815 -11.11978,-0.24828 -13.70416,-1.70046 z m 22.55768,-10.79959 c 3.36154,-0.90155 4.82634,-3.82047 3.69928,-7.37157 C 297.32711,364.54657 295.83112,364 291.15583,364 c -3.29879,0 -7.15836,0.62111 -8.57682,1.38024 -2.47994,1.32723 -3.5322,6.55547 -1.69012,8.39753 1.09038,1.09039 9.3891,1.13552 13.35222,0.0727 z m -48.19078,-16.84981 c -1.9261,-2.74992 -1.9112,-3.1381 0.17924,-4.66667 1.25406,-0.91699 3.43542,-1.66725 4.84744,-1.66725 2.04244,0 2.38179,-0.61336 1.6598,-3 -1.62382,-5.36783 -1.44165,-6.88994 0.88222,-7.37084 1.58993,-0.32903 2.55764,0.67009 3.17908,3.28225 0.49136,2.06539 1.81514,4.81559 2.94174,6.11156 1.87043,2.15163 1.71738,2.70179 -1.76186,6.33333 -4.53511,4.73364 -9.03831,5.10272 -11.92766,0.97762 z m 515.27223,230.97928 c -0.75636,-1.41327 -0.75657,-3.97096 -5.6e-4,-6.60703 0.67845,-2.3656 1.6208,-9.04224 2.09413,-14.83696 C 764.16245,557.39883 763.99281,556 762.13836,556 760.96227,556 760,556.53249 760,557.18331 c 0,0.65082 -3.90224,2.84178 -8.67165,4.86881 -8.39586,3.56828 -8.7563,3.60889 -11.33334,1.27671 -3.47246,-3.14254 -3.35706,-5.25951 0.56784,-10.41779 5.32951,-7.00425 5.63099,-10.85932 1.33414,-17.05968 -4.58966,-6.62288 -3.74476,-8.45745 5.43634,-11.80423 3.66667,-1.3366 10.09368,-3.84398 14.28226,-5.57198 7.42117,-3.0616 7.63461,-3.29499 8.36061,-9.14182 0.40977,-3.3 1.33276,-8.89577 2.05108,-12.43505 0.71833,-3.53928 1.30605,-9.31581 1.30605,-12.83675 0,-8.4181 1.62511,-9.64632 10.76512,-8.13602 3.97919,0.65752 8.36231,1.63717 9.74028,2.17701 2.69603,1.05619 2.6973,-1.10449 -0.0167,28.41912 l -0.84466,9.18829 4.22316,0.92756 c 6.06735,1.33262 8.5684,5.66394 6.62548,11.47399 -0.8378,2.50535 -2.04138,5.12519 -2.67464,5.82185 C 800.51811,534.63 800,536.82667 800,538.81481 c 0,3.7789 -6.45665,10.51852 -10.07689,10.51852 -2.39166,0 -3.00523,3.08084 -3.71763,18.66667 -0.88293,19.31701 -1.85207,20.58645 -16.59383,21.73576 -5.68961,0.44359 -7.29384,0.10373 -8.28909,-1.75589 z m 17.20808,-8.3132 c 0.61125,-1.65 0.89548,-5.7 0.63161,-9 -0.57905,-7.24198 1.70392,-25.16387 3.47775,-27.3012 1.31256,-1.58155 0.3234,-11.37064 -1.14779,-11.35884 -0.45405,0.004 -2.48598,1.35364 -4.5154,3 -3.47374,2.81805 -3.806,4.04764 -5.67269,20.99337 -1.09055,9.9 -2.30731,19.95 -2.70389,22.33333 -0.7015,4.21575 -0.59163,4.33334 4.04898,4.33334 3.72854,0 5.01271,-0.65504 5.88143,-3 z m 6.98493,-66 c 1.08663,-2.74862 3.89551,-26.76642 3.25639,-27.84424 -0.0579,-0.0977 -1.92719,-0.56722 -4.15396,-1.04343 -4.01781,-0.85924 -4.06099,-0.80709 -5.66643,6.84425 -0.88977,4.24055 -1.82593,11.4304 -2.08036,15.97746 -0.48697,8.7032 -0.72044,8.34132 6.16179,9.55105 0.56815,0.0999 1.68531,-1.46843 2.48257,-3.48509 z m 440.62583,13.03036 c -9.748,-8.83402 -8.8483,-8.7401 -21.7248,-2.26771 -3.5291,1.77393 -7.8563,3.67193 -9.6159,4.21777 -3.0643,0.95059 -3.1654,0.78362 -2.396,-3.95753 0.4418,-2.72249 2.8993,-9.07585 5.4611,-14.11859 2.7497,-5.41252 4.116,-9.50354 3.3351,-9.98617 -0.7276,-0.44967 -3.6908,-3.81325 -6.585,-7.47463 -4.3807,-5.542 -5.025,-7.1 -3.8469,-9.30138 1.2542,-2.34354 2.2768,-2.54067 8.9898,-1.7331 4.166,0.50118 9.8245,1.66899 12.5745,2.59515 2.75,0.92616 5,1.17285 5,0.54823 0,-0.62463 4.9382,-6.5449 10.9736,-13.15616 12.6528,-13.85986 14.046,-13.8659 14.5129,-0.0629 0.5394,15.94311 0.9114,16.49287 13.1322,19.40446 5.8653,1.39738 10.9597,3.31078 11.3208,4.25197 1.6478,4.29407 -20.1408,14.67555 -23.5809,11.23545 -2.0732,-2.07321 2.1636,-6.59096 6.78,-7.22953 4.0234,-0.55655 2.8147,-1.22036 -6.6863,-3.67205 -6.7583,-1.74395 -7.6627,-3.19999 -7.8611,-12.65696 -0.212,-10.1001 -1.3114,-10.49602 -7.9058,-2.847 -7.2452,8.40402 -14.2272,12.11904 -20.2784,10.78996 l -4.2708,-0.93803 3.9216,3.37323 3.9216,3.37322 -5.7496,10.79098 c -3.1624,5.93506 -5.1616,10.791 -4.4428,10.791 0.7188,0 5.0229,-1.75736 9.5646,-3.90524 4.5416,-2.14788 9.2455,-3.56282 10.453,-3.1443 1.2075,0.41852 4.7454,3.2008 7.8621,6.18286 l 5.6667,5.4219 v -8.94428 c 0,-8.56284 0.137,-8.94428 3.2136,-8.94428 3.0722,0 3.2556,0.50351 4.1664,11.43783 1.0498,12.60224 -0.2962,17.89551 -4.5503,17.89551 -1.4085,0 -6.5182,-3.58634 -11.355,-7.96964 z m -434.79104,-52.0028 c -0.44385,-0.71819 -0.1936,-2.45195 0.55612,-3.85283 1.98688,-3.71252 -2.92236,-4.66596 -7.10093,-1.37909 -6.98818,5.49689 -8.65998,0.18521 -2.13888,-6.79564 2.2,-2.35511 4,-5.02755 4,-5.93876 0,-0.9112 -2.44958,-2.61895 -5.4435,-3.795 -4.33476,-1.70275 -5.28098,-2.65028 -4.64564,-4.6521 1.21667,-3.83333 -6.75268,-3.58705 -15.15942,0.4685 -3.7888,1.82777 -7.44154,2.98157 -8.11719,2.564 -0.67565,-0.41758 -1.89268,-3.22598 -2.70451,-6.2409 -1.42345,-5.28628 -1.31781,-5.63414 2.96376,-9.76017 4.20058,-4.04796 4.83426,-4.23452 11.75927,-3.46204 5.87167,0.65497 7.41889,1.33736 7.82223,3.44989 0.45833,2.40062 3.7365,5.88703 5.63302,5.99084 0.42608,0.0233 1.55436,-1.41441 2.50728,-3.19496 1.86279,-3.48066 4.61943,-3.91057 11.71803,-1.82746 4.71383,1.38329 5.56256,4.30634 2.75427,9.48581 -0.86848,1.60179 -1.97336,5.46235 -2.45528,8.57901 -0.68135,4.40632 -0.45723,5.66667 1.00762,5.66667 1.03614,0 2.78203,0.89816 3.87978,1.99591 2.15716,2.15716 1.54069,5.79404 -1.86524,11.00409 -2.11252,3.23151 -3.68868,3.76872 -4.97079,1.69423 z m -0.68369,-29.93771 c 0,-1.94823 -4.9386,-4.26236 -6.2652,-2.93576 -0.402,0.40199 -0.37562,1.65677 0.0587,2.7884 0.99518,2.59339 6.20656,2.71711 6.20656,0.14736 z m -28.7294,-2.30388 c 4.12714,-1.88045 4.32038,-3.23324 0.6008,-4.20593 -4.08054,-1.06708 -6.34055,0.22058 -5.56855,3.17273 0.79472,3.03904 0.63728,3.00629 4.96775,1.0332 z M 34.806923,459.50233 c -0.835779,-1.00705 -1.231466,-2.65705 -0.879303,-3.66666 0.352161,-1.00962 0.929016,-17.43567 1.281899,-36.50234 0.638578,-34.50322 -0.153872,-44.24409 -3.84888,-47.31066 -1.187983,-0.98595 -1.372762,-3.03722 -0.634196,-7.04032 1.339814,-7.26196 1.604064,-26.30636 0.772153,-55.64902 C 30.6817,280.52029 30.508193,91.911489 31.287625,80 c 0.31191,-4.766667 0.964607,-20.496991 1.450439,-34.956276 0.964275,-28.698592 1.573404,-30.848619 7.920473,-27.9567 2.21128,1.007527 3.517344,1.040416 4.0966,0.10316 C 45.693764,15.671453 176.05137,16.809571 202,18.563045 c 8.06667,0.545104 46.16667,1.085552 84.66667,1.200995 38.5,0.11544 93.4,0.520783 122,0.900755 137.57908,1.827844 172.18393,1.962354 176.6185,0.686525 4.10822,-1.181935 35.42783,-0.302376 67.3815,1.892295 43.75132,3.004969 103.50033,3.677446 148,1.665745 13.2,-0.596733 43.2,-0.925923 66.66666,-0.731532 23.46667,0.194392 57.36667,0.195908 75.33334,0.0033 17.96666,-0.192537 41.96666,0.280126 53.33333,1.05036 64.1942,4.349972 99.083,5.600099 131.3333,4.705906 45.4941,-1.261399 114.9133,-1.695887 116.4066,-0.728578 2.2255,1.441556 5.7184,9.51024 4.7766,11.03408 -1.9712,3.189494 -3.0892,50.617344 -3.1688,134.423704 -0.05,52.15569 0.4652,91.57818 1.278,97.87177 0.7484,5.79615 1.0813,15.39615 0.7395,21.33333 -0.3417,5.93719 -0.9773,17.0949 -1.4125,24.7949 -0.4352,7.7 -1.3659,16.21381 -2.0684,18.91958 -1.5616,6.01528 -5.5059,7.76403 -9.4746,4.20059 -2.501,-2.24565 -2.6556,-3.41365 -1.825,-13.78684 1.8995,-23.72235 2.274,-50.33528 0.786,-55.86113 -1.0297,-3.82396 -1.4214,-30.83927 -1.2735,-87.83075 0.1174,-45.26947 0.3852,-86.208122 0.595,-90.974788 0.2098,-4.766667 0.7743,-18.716667 1.2544,-31 L 1234.8195,40 1218.4098,39.827977 c -21.2802,-0.223077 -32.0908,-0.11252 -89.0765,0.910972 -37.0993,0.666322 -54.1079,0.380822 -78.6666,-1.320469 -55.80097,-3.865577 -80.78766,-4.938364 -96.21058,-4.130731 -8.31753,0.435555 -22.02279,0.623992 -30.45612,0.418751 -20.36861,-0.495709 -113.88,-0.277576 -175.33333,0.409 -49.22704,0.549979 -93.14378,-0.563893 -113.33334,-2.874505 -17.7648,-2.03311 -44.67762,-1.566464 -49.322,0.855201 -2.33773,1.218943 -5.64896,1.788184 -8,1.375297 C 569.00857,33.890433 535.25232,33.373981 396,32.686827 315.7,32.290577 237.4,31.598352 222,31.148548 176.31712,29.81424 106.68514,28.616692 76.286792,28.642537 53.469701,28.661937 47.681207,29.031211 46.7554,30.526477 44.61126,33.989468 43.554563,78.995149 43.465021,170.66667 43.326265,312.72575 44.057724,364.58293 46.333089,374 c 1.904004,7.88011 1.881223,14.30104 -0.256618,72.32635 -0.229944,6.24113 -1.125019,11.86056 -2.070671,13 -2.081245,2.50774 -7.182691,2.60534 -9.198877,0.17598 z M 1226.4487,406.66667 c -3.8731,-4.4 -8.1462,-8 -9.4959,-8 -1.3497,0 -5.7314,1.6048 -9.7372,3.56622 -10.2533,5.02058 -11.5577,3.2361 -6.055,-8.28372 l 4.2276,-8.85046 -4.6941,-6.39466 c -4.949,-6.74193 -5.992,-11.62304 -2.7494,-12.86734 2.384,-0.9148 19.2252,2.79986 21.0735,4.64817 0.7347,0.73473 0.9714,2.28572 0.5259,3.44665 -0.6359,1.65714 -1.9688,1.92547 -6.2021,1.24854 -4.6331,-0.74087 -5.2747,-0.55615 -4.5578,1.31217 0.459,1.19593 1.3702,2.17443 2.0251,2.17443 1.9169,0 1.3261,4.23938 -1.4401,10.33333 -1.4147,3.11667 -2.2042,5.66667 -1.7545,5.66667 0.4497,0 3.9964,-1.00203 7.8816,-2.22672 l 7.0639,-2.22672 5.0824,5.56005 c 5.2734,5.76896 7.0188,6.73543 7.0315,3.89339 0.026,-5.86444 3.1085,-11.98431 6.8226,-13.54598 3.5204,-1.48021 3.7376,-1.8764 1.8754,-3.42188 -1.8839,-1.56344 -1.8928,-1.98344 -0.085,-3.9812 1.8884,-2.08666 2.7008,-2.0642 12.367,0.34204 5.6901,1.41648 10.6124,2.8242 10.9383,3.12826 1.5335,1.43056 -5.4636,5.7867 -13.4916,8.39945 -4.8945,1.59292 -9.4905,3.61241 -10.2132,4.48776 -0.7227,0.87536 -1.6326,4.50505 -2.022,8.066 -0.6468,5.916 -3.7263,11.52555 -6.3271,11.52555 -0.5765,0 -4.2169,-3.6 -8.09,-8 z m 11.7414,-38 c 0.396,-4.03334 0.1829,-7.33334 -0.4735,-7.33334 -0.6564,0 -3.2289,2.1 -5.7166,4.66667 -4.6072,4.75339 -7.1816,5.73627 -8.6789,3.31353 -0.835,-1.35102 10.9824,-13.31353 13.152,-13.31353 0.6301,0 0.8119,-0.86944 0.4041,-1.93209 -0.459,-1.19624 -0.1004,-1.68615 0.9415,-1.28632 0.9256,0.35518 2.788,-0.57538 4.1387,-2.0679 3.9198,-4.33132 6.5528,-3.55026 5.4599,1.61964 -0.5039,2.38334 -1.2581,7.63334 -1.676,11.66667 -0.7603,7.33724 -3.3039,12 -6.5463,12 -1.2893,0 -1.5431,-1.85227 -1.0049,-7.33333 z"
       style="fill:#000000;stroke-width:1.33333" />
  </g>
</svg>
