<?xml version="1.0" encoding="UTF-8" standalone="no"?>
<svg
   xmlns:dc="http://purl.org/dc/elements/1.1/"
   xmlns:cc="http://creativecommons.org/ns#"
   xmlns:rdf="http://www.w3.org/1999/02/22-rdf-syntax-ns#"
   xmlns:svg="http://www.w3.org/2000/svg"
   xmlns="http://www.w3.org/2000/svg"
   xmlns:sodipodi="http://sodipodi.sourceforge.net/DTD/sodipodi-0.dtd"
   xmlns:inkscape="http://www.inkscape.org/namespaces/inkscape"
   inkscape:version="1.0 (4035a4fb49, 2020-05-01)"
   sodipodi:docname="heathpipe.svg"
   viewBox="0 0 77.032614 52.414456"
   height="52.414455"
   width="77.032616"
   id="svg12815"
   version="1.1">
  <metadata
     id="metadata12821">
    <rdf:RDF>
      <cc:Work
         rdf:about="">
        <dc:format>image/svg+xml</dc:format>
        <dc:type
           rdf:resource="http://purl.org/dc/dcmitype/StillImage" />
        <dc:title></dc:title>
      </cc:Work>
    </rdf:RDF>
  </metadata>
  <defs
     id="defs12819" />
  <sodipodi:namedview
     inkscape:current-layer="layer1"
     inkscape:window-maximized="0"
     inkscape:window-y="34"
     inkscape:window-x="10"
     inkscape:cy="27.17247"
     inkscape:cx="35.496163"
     inkscape:zoom="6.4677439"
     showgrid="false"
     id="namedview12817"
     inkscape:window-height="1034"
     inkscape:window-width="1898"
     inkscape:pageshadow="2"
     inkscape:pageopacity="0"
     guidetolerance="10"
     gridtolerance="10"
     objecttolerance="10"
     borderopacity="1"
     bordercolor="#666666"
     pagecolor="#ffffff"
     inkscape:document-rotation="0"
     fit-margin-top="0"
     fit-margin-left="0"
     fit-margin-right="0"
     fit-margin-bottom="0" />
  <g
     inkscape:groupmode="layer"
     id="layer1"
     inkscape:label="Image 1">
    <path
       style="fill:#ff6600;fill-opacity:1;stroke-width:1.6;stroke-linecap:round"
       d="m 35.694515,50.568626 2.565494,-0.10372 3.525123,-1.343032 1.622009,-1.057544 0.02593,-0.763822 1.26992,-0.188766 1.601245,1.199967 2.305955,0.18151 2.042135,-0.259299 0.791239,-0.300072 0.493897,-0.855898 1.297521,-0.136224 2.807809,-0.641418 3.111389,0.0489 2.732046,-1.104285 2.015317,0.332068 1.242455,-0.902979 0.587146,-1.449955 -1.310505,-1.7349 -0.720545,-0.395515 1.143084,-2.208958 c 0,0 0.565194,-2.387056 0.565194,-2.65932 0,-0.272264 -0.581001,-2.033076 -0.581001,-2.033076 L 63.71935,33.40839 61.754692,33.278741 60.960097,32.894107 60.01501,27.897922 l 1.863614,-1.604243 1.25822,-1.155894 -1.759002,-0.807663 -2.231885,-0.223177 0.659471,-0.847195 1.837391,-0.386876 2.228167,0.818839 0.393457,-1.712427 0.170101,-2.014971 -2.934874,-3.891097 1.355754,-4.104548 c 0,0 -4.874481,2.632711 -4.831395,2.505984 0.04308,-0.126727 -4.482846,-0.139642 -4.482846,-0.139642 L 50.335508,14.170966 46.640959,12.74818 47.079123,15.859908 44.0721,19.46061 c 0,0 -0.905798,2.165973 -0.893307,2.276342 0.01249,0.110369 0.630086,4.002489 0.630086,4.002489 l 1.868236,1.812028 c 0,0 1.670378,1.787228 0.840605,2.94141 -0.829773,1.154183 -4.246332,7.965476 -4.246332,7.965476 l -1.241212,2.13985 -3.601411,0.529637 c 0,0 -1.017997,1.729629 -1.017997,1.804573 0,0.07494 2.612498,1.927639 2.612498,1.927639 0,0 1.069398,0.981783 1.088134,1.131672 0.01874,0.14989 -0.517407,1.167883 -0.517407,1.167883 l -4.191664,-0.363946 -1.622358,0.480893 -0.201689,0.977661 0.328221,1.124889 z"
       id="path1983" />
    <path
       style="fill:#552200;fill-opacity:1;stroke-width:1.6;stroke-linecap:round"
       d="m 59.242312,24.250261 2.041552,-0.182468 1.861372,1.028262 1.951073,3.836578 c 0,0 2.048505,2.766142 2.19879,2.766142 0.150286,0 3.068482,0.305659 3.068482,0.305659 0,0 -0.576091,-2.583648 -0.576091,-2.688422 0,-0.104774 -2.168447,-0.674482 -2.325805,-0.813271 -0.157359,-0.13879 -1.251095,-2.092489 -1.334587,-2.359661 -0.08349,-0.267172 -1.327514,-2.078935 -1.536242,-2.204172 -0.208728,-0.125237 -2.479693,-0.709677 -2.479693,-0.709677 l -2.240309,-0.0083 -0.568247,0.711575 z"
       id="path1985" />
    <path
       style="fill:#ffffff;fill-opacity:1;stroke-width:1.6;stroke-linecap:round"
       d="m 57.590294,18.856282 -1.400375,1.97482 1.574175,0.987001 1.621041,-0.518948 0.817653,-2.146398 z"
       id="path1992" />
    <path
       style="fill:#917c6f;fill-opacity:1;stroke-width:1.6;stroke-linecap:round"
       d="m 18.081211,38.704378 -0.063,12.348594 1.506095,-0.929057 0.51851,1.426775 1.665096,-1.279119 -0.04352,-12.493 z"
       id="path1995" />
    <path
       style="fill:#917c6f;fill-opacity:1;stroke-width:1.6;stroke-linecap:round"
       d="M 3.9610196,39.477694 3.7706581,35.940234 4.27569,2.3154015 1.9323879,3.0500518 0.80445361,36.701261 Z"
       id="path1997" />
    <text
       transform="skewY(-3.9939246)"
       id="text16496"
       y="10.862579"
       x="23.468805"
       style="font-weight:bold;font-size:6.53161px;line-height:1.25;font-family:Heathcliff;-inkscape-font-specification:'Heathcliff Bold';text-align:center;text-anchor:middle;stroke-width:1.22468"
       xml:space="preserve"><tspan
         style="font-size:6.53161px;text-align:center;text-anchor:middle;stroke-width:1.22468"
         y="10.862579"
         x="23.468805"
         id="tspan16494"
         sodipodi:role="line">ceci</tspan><tspan
         id="tspan16498"
         style="font-size:6.53161px;text-align:center;text-anchor:middle;stroke-width:1.22468"
         y="19.027092"
         x="23.468805"
         sodipodi:role="line">n est</tspan><tspan
         id="tspan16500"
         style="font-size:6.53161px;text-align:center;text-anchor:middle;stroke-width:1.22468"
         y="27.191605"
         x="23.468805"
         sodipodi:role="line">pas un</tspan><tspan
         id="tspan16502"
         style="font-size:6.53161px;text-align:center;text-anchor:middle;stroke-width:1.22468"
         y="35.356117"
         x="23.468805"
         sodipodi:role="line">garf</tspan></text>
    <path
       id="path16504"
       d="m 17.370381,12.210183 c 0,0 -0.09291,-0.05601 -0.06555,0.108543 0.02736,0.164555 -0.0215,0.269887 -0.02446,0.3341 -0.0029,0.06421 0.168421,0.259482 0.216332,0.284989 0.04791,0.0255 0.398115,0.311707 0.398115,0.456828 0,0.145121 -0.02803,0.58532 0.04454,0.4912 0.07257,-0.09412 0.218913,-0.38254 0.305626,-0.529717 0.08672,-0.147178 0.120687,-0.222976 0.156749,-0.444428 0.03606,-0.221452 -0.02077,-0.304538 -0.09963,-0.417879 -0.07886,-0.113341 -0.199305,-0.431474 -0.34143,-0.491641 -0.142125,-0.06016 -0.509439,-0.07941 -0.569471,-0.0025 -0.06004,0.07698 -0.02081,0.210434 -0.02081,0.210434 z"
       style="fill:#000000;stroke-width:1.31926;stroke-linecap:round;stroke-opacity:0.0584339" />
  </g>
  <g
     id="g12823"
     inkscape:label="Image"
     inkscape:groupmode="layer">
    <path
       sodipodi:nodetypes="sssssscccsssssssscsssssssscssscsscsscscscsssssscssscsscsssssssscssssssssssssssssssscsssccsssssccsscssssscsssccssssssssssscssssssscsssssssssssssscssssssssscsssssssssscssccssccsssssssscscsscscsscsssssssssscsssssssssssssssssssssscssccssssccccccsssssssssssssssscssscsssssssscscsssscssscssscsssssssssssscscssssscsssssssssssssssscsssccccccccssssssssssssscsssssssssssssssssssssscssssssssccsssssssssssssscccssssssssscsssssss"
       id="path13388"
       d="m 19.93,52.16761 c -0.0027,-0.214476 -0.14101,-0.605257 -0.307365,-0.8684 -0.261236,-0.413225 -0.361885,-0.397177 -0.738381,0.117709 -0.657623,0.899354 -2.888115,0.460835 -3.40291,-0.669018 -0.54428,-1.194566 0.05792,-1.694323 1.009318,-0.837616 1.244061,1.120244 1.487853,1.145354 2.271765,0.234004 l 0.748697,-0.870413 0.668431,0.668432 0.668432,0.668432 0.472943,-0.696544 c 0.3633,-0.535063 0.5629,-0.609952 0.860968,-0.323034 0.301935,0.290643 0.202209,0.573907 -0.449487,1.276733 -0.460631,0.496768 -0.837511,0.997283 -0.837511,1.11225 0,0.114969 -0.216,0.29192 -0.48,0.393229 -0.264,0.101305 -0.482205,0.0087 -0.4849,-0.205764 z m 2.946659,-0.895235 c 0.166512,-0.499536 1.792932,-1.426698 2.050637,-1.168992 0.266878,0.266877 -1.146417,1.488835 -1.739063,1.503623 -0.234667,0.0059 -0.374875,-0.14473 -0.311574,-0.334631 z m 11.563437,-0.423261 c -1.239532,-0.561107 -1.775651,-1.489078 -1.644368,-2.846249 0.07916,-0.818298 0.335245,-1.140631 1.268855,-1.597085 1.001331,-0.489562 1.460528,-0.525031 3.190438,-0.246435 2.648429,0.426518 3.099936,-0.03437 0.942768,-0.962356 -1.76793,-0.760544 -2.772275,-2.078518 -2.422858,-3.179443 0.334967,-1.055382 2.247344,-1.99665 3.802173,-1.871418 l 1.38465,0.111524 0.520909,-1.466996 c 0.286496,-0.806848 0.851548,-1.958848 1.25567,-2.56 0.404118,-0.601152 1.415891,-2.25975 2.248384,-3.68577 l 1.513622,-2.592765 1.67728,0.150299 c 2.316851,0.20761 2.520743,0.575914 0.497386,0.898468 l -1.700106,0.271023 1.36,0.111269 c 0.748,0.0612 1.36,0.24699 1.36,0.412871 0,0.165879 -0.612,0.303805 -1.36,0.306499 -0.748,0.0026 -1.576,0.14449 -1.84,0.315101 -0.339676,0.219517 0.07662,0.311632 1.424,0.315101 2.374451,0.0061 2.023984,0.567037 -0.441465,0.70657 l -1.737466,0.09833 -1.366285,2.24 c -0.751459,1.232 -1.461209,2.636 -1.577225,3.12 -0.206496,0.861463 -0.180426,0.88 1.237577,0.88 1.591168,0 2.460864,0.236548 2.460864,0.669332 0,0.15447 -0.88664,0.188185 -1.97031,0.07492 -1.454893,-0.152067 -1.910352,-0.108928 -1.741114,0.164906 0.126058,0.203965 0.616698,0.372809 1.090311,0.375213 1.195117,0.0061 2.301113,0.333795 2.301113,0.681865 0,0.167405 -0.885862,0.200832 -2.08,0.07849 -1.466419,-0.150237 -2.08,-0.105668 -2.08,0.151091 0,0.200304 0.396,0.366153 0.88,0.368557 1.240301,0.0061 2.32,0.334339 2.32,0.705177 0,0.17753 -0.637491,0.264195 -1.461356,0.198672 l -1.461357,-0.116227 0.208742,1.112691 c 0.11481,0.611978 0.565603,1.443418 1.001767,1.847639 0.901772,0.835737 0.809568,1.66703 -0.324576,2.926246 -1.559159,1.731107 -6.618493,2.792356 -8.738023,1.832896 z m 4.241773,-1.076361 c 0.224214,-0.151924 0.253344,-0.587364 0.08234,-1.230768 -0.244963,-0.921661 -0.393721,-1.010839 -2.001357,-1.199786 -0.9552,-0.112266 -1.964252,-0.116806 -2.242339,-0.01008 -1.019033,0.39104 -0.332211,1.933978 1.094387,2.458528 0.714522,0.262726 2.669664,0.251328 3.06697,-0.01789 z m 1.268701,-1.566592 c -0.303245,-1.208221 -0.598618,-0.661674 -0.318109,0.588608 0.131158,0.584585 0.302922,0.876704 0.381696,0.649152 0.07878,-0.227552 0.05016,-0.784544 -0.06359,-1.23776 z m 2.313126,0.353347 c 0.667283,-0.467383 1.006759,-1.741856 0.463971,-1.741856 -0.135974,0 -0.518652,-0.504 -0.85039,-1.12 -0.70095,-1.301588 -1.245453,-1.482096 -0.952739,-0.315844 0.111005,0.442285 0.04123,0.997671 -0.155066,1.234189 -0.433475,0.522304 -0.107859,2.441655 0.414224,2.441655 0.202842,0 0.688842,-0.224167 1.08,-0.498144 z m -1.359101,-5.198829 c -0.21502,-0.215018 -1.129696,0.58311 -1.129696,0.98575 0,0.181728 0.288884,0.06898 0.641962,-0.250553 0.353078,-0.319533 0.57256,-0.650372 0.487734,-0.735197 z m -1.086057,-0.186512 c 0.464,-0.408794 0.948697,-1.074279 1.077104,-1.478855 0.228694,-0.720556 0.198358,-0.73144 -1.483635,-0.5323 -2.198698,0.260313 -2.827453,0.963043 -1.820592,2.034796 0.861078,0.916576 1.163571,0.913367 2.227123,-0.02365 z M 17.543155,44.542724 C 17.417328,41.76618 17.408495,39.342179 17.523525,39.156058 17.822646,38.672071 14.534224,38.729104 9.534902,39.294605 3.3364158,39.995751 3.1671168,39.980368 1.6441508,38.577651 0.09111572,37.147239 -0.22207628,36.436519 0.13135272,35.144679 0.53179676,33.680995 1.3720738,16.431955 1.3787838,9.5376494 c 0.0033,-3.3439998 0.117591,-6.2557599 0.25408,-6.4705778 0.851003,-1.3393783 4.042196,-1.653191 23.5820382,-2.3189895 5.456,-0.1859072 11.764259,-0.4302785 14.018351,-0.5430476 L 43.331602,0 43.163151,0.7688247 C 43.070501,1.1916783 42.924444,6.2176496 42.838575,11.93765 42.594441,28.200482 42.300962,34.927453 41.818111,35.328183 41.153212,35.88 40.740255,35.387793 41.048245,34.410579 41.355077,33.437037 41.590313,27.132537 41.903231,11.496193 L 42.113788,0.9747357 38.464345,1.1745577 C 36.457151,1.2844598 29.054902,1.531344 22.014902,1.7231894 14.974902,1.9150347 8.2185548,2.1677705 7.0007978,2.2848243 l -2.214104,0.2128252 -0.08622,1.4400001 c -0.04742,0.792 -0.181821,8.0640004 -0.298667,16.1600014 -0.116846,8.096 -0.261799,15.332 -0.322118,16.08 -0.06032,0.748 0.02643,1.36 0.192771,1.36 0.166343,0 0.302442,0.144 0.302442,0.32 0,0.176 -0.279501,0.32 -0.621115,0.32 -0.341613,0 -0.710111,-0.144 -0.818885,-0.32 -0.108774,-0.176 -0.3543,-0.32 -0.545613,-0.32 -0.191313,0 0.04916,0.367933 0.534393,0.817626 0.649264,0.601718 1.105237,0.771155 1.726727,0.641635 0.464471,-0.0968 5.3084932,-0.609581 10.7644932,-1.13952 18.967676,-1.842329 23.044047,-2.255891 23.740387,-2.408547 0.385216,-0.08445 0.779628,-0.02534 0.876476,0.131373 0.34074,0.551325 -0.641046,0.917565 -3.016864,1.125405 -4.488035,0.392614 -12.636082,1.19799 -13.706746,1.354816 -0.761414,0.111526 -1.016169,0.288051 -0.890043,0.616729 0.09719,0.253267 0.04302,0.460483 -0.120371,0.460483 -0.163391,0 -0.285565,0.396 -0.271496,0.88 0.07303,2.512436 -0.174557,7.761594 -0.381913,8.097102 -0.579669,0.937926 -0.94943,-0.189828 -0.94943,-2.895713 v -2.840838 l -1.04,-0.100275 c -0.658157,-0.06346 -1.007717,-0.255872 -0.952072,-0.524061 0.04836,-0.233082 -0.04138,-0.343869 -0.199424,-0.246192 -0.158831,0.09816 -0.216423,1.945549 -0.128765,4.130451 0.135327,3.373076 0.08809,3.952861 -0.32206,3.952861 -0.397551,0 -0.5202,-0.872771 -0.709424,-5.048262 z M 20.6549,41.165722 c -0.22,-0.08877 -0.58,-0.08877 -0.8,0 -0.22,0.08877 -0.04,0.161405 0.4,0.161405 0.44,0 0.62,-0.07263 0.4,-0.161405 z m 0.12,-1.06807 c 0.242,0 0.44,-0.144001 0.44,-0.320001 0,-0.45335 -0.95458,-0.371884 -2.08,0.177508 l -0.96,0.468637 1.08,-0.163072 c 0.594,-0.08969 1.278,-0.163072 1.52,-0.163072 z m 0.413333,-1.484029 c 0.07333,-0.06378 -0.458168,-0.115972 -1.181114,-0.115972 -0.722947,0 -1.394979,0.130301 -1.493406,0.289559 -0.163775,0.264995 2.358496,0.101289 2.67452,-0.173587 z M 2.9748998,36.669149 c -0.264,-0.09789 -0.732,-0.307587 -1.04,-0.465997 -0.344822,-0.177347 -0.56,-0.16975 -0.56,0.01978 0,0.312407 0.727377,0.590784 1.6,0.612339 0.426667,0.01053 0.426667,-0.0079 0,-0.166118 z m 0.32,-1.335178 c 0,-0.426112 -0.282378,-0.645123 -0.96,-0.744579 -1.082333,-0.158851 -1.329679,0.461139 -0.4,1.002627 0.860845,0.501396 1.36,0.406685 1.36,-0.258048 z m -0.172684,-1.845165 c -0.736591,-0.538608 -1.845314,-0.565148 -1.670258,-0.03998 0.145334,0.436003 1.522876,0.87592 1.971419,0.629571 0.158662,-0.08714 0.02314,-0.352458 -0.301161,-0.589591 z m 0.342632,-1.375059 c -0.290433,-0.469929 -1.769948,-0.598643 -1.769948,-0.153977 0,0.227353 0.324,0.466768 0.72,0.532035 0.847279,0.139641 1.274772,-0.01427 1.049948,-0.378058 z m 0.0073,-1.588214 c -0.252203,-0.408079 -1.777228,-0.473966 -1.777228,-0.07678 0,0.414732 1.403165,0.971552 1.716118,0.68101 0.151864,-0.14099 0.179366,-0.412892 0.06112,-0.604228 z m 0.142769,-1.110577 c 0,-0.06748 -0.36,-0.191514 -0.8,-0.275625 -0.439997,-0.08411 -0.799997,-0.0289 -0.799997,0.122695 0,0.151594 0.36,0.275625 0.8,0.275625 0.44,0 0.8,-0.05521 0.8,-0.122695 z m 0.110827,-4.727546 c 0.115047,-2.139632 0.209176,-7.909336 0.209176,-12.821564 V 2.9345215 l -0.72,0.2213168 c -0.396,0.1217242 -0.736412,0.2394282 -0.756471,0.2615642 -0.02006,0.022134 -0.130806,4.4790066 -0.246103,9.9041575 -0.115297,5.42515 -0.301175,10.946876 -0.413062,12.270502 -0.211575,2.502926 -0.02297,2.968896 1.20646,2.980689 0.42868,0.0041 0.54446,-0.620673 0.72,-3.885341 z M 45.924174,48.753466 c -1.793571,-1.125693 -1.836954,-2.550925 -0.04544,-1.492649 1.276381,0.753977 2.805693,1.177414 3.017088,0.835372 0.09324,-0.150873 0.0232,-0.364764 -0.155686,-0.475312 -0.407044,-0.251568 -0.426327,-0.803225 -0.02808,-0.803225 0.16343,0 0.513142,0.216 0.777142,0.48 0.595632,0.595632 1.363376,0.620374 1.581872,0.05098 0.229619,-0.598377 -0.09005,-0.996576 -1.296157,-1.61455 -1.025619,-0.525498 -1.344572,-1.250426 -0.72,-1.636432 0.69089,-0.426992 0.29098,-1.08225 -0.72,-1.179725 -1.35279,-0.130435 -1.047849,-0.740275 0.370164,-0.740275 0.623644,0 1.152515,-0.182989 1.235868,-0.427607 0.106215,-0.311705 -0.145907,-0.402486 -0.930163,-0.334918 -1.638086,0.141129 -1.5988,-0.490426 0.04413,-0.709415 l 1.44,-0.191936 -1.68,-0.04806 c -2.064486,-0.05906 -2.20632,-0.545504 -0.224192,-0.768918 1.821242,-0.20528 2.003312,-0.389402 1.415671,-1.431629 -0.722256,-1.280973 -1.91849,-1.53367 -3.543504,-0.748547 -1.454599,0.702784 -1.684813,0.697853 -1.405472,-0.03011 0.301065,-0.784563 1.949923,-1.548867 3.341417,-1.548867 1.404407,0 2.89608,1.063846 2.89608,2.065456 0,0.542768 0.138503,0.577366 1.186515,0.296377 0.580922,-0.15575 0.694695,-0.394547 0.64,-1.343286 -0.05042,-0.87472 0.06896,-1.181879 0.493485,-1.269667 0.475555,-0.09835 0.563511,0.141065 0.58328,1.587657 0.0679,4.968304 0.01923,4.7773 1.41672,5.560048 1.763261,0.987623 1.92832,2.565421 0.415786,3.974557 -0.925552,0.862285 -3.240343,0.929335 -3.067648,0.08886 0.07308,-0.355664 0.344358,-0.519786 0.743462,-0.449789 0.580983,0.101898 0.572253,0.05011 -0.115667,-0.68624 -1.040598,-1.113866 -0.294797,-1.451926 0.796218,-0.360912 0.813008,0.813008 0.879584,0.827338 1.282684,0.276067 0.645984,-0.883437 0.547658,-1.047344 -1.094835,-1.825046 -1.184573,-0.56088 -1.541904,-0.90872 -1.619261,-1.576237 -0.08158,-0.703933 -0.247491,-0.845146 -0.931241,-0.792589 -0.650522,0.05 -0.958551,0.361984 -1.412336,1.430461 l -0.580359,1.366515 0.772141,0.293568 c 1.582704,0.601741 1.926256,2.646212 0.646672,3.84832 -1.149606,1.08 -4.056131,1.254452 -5.526361,0.331696 z m 6.730745,-8.227744 c -0.22,-0.08877 -0.58,-0.08877 -0.8,0 -0.22,0.08877 -0.04,0.161405 0.4,0.161405 0.44,0 0.62,-0.07263 0.4,-0.161405 z m 0.32609,-1.277971 c -0.21665,-0.08765 -0.64865,-0.09299 -0.96,-0.01184 -0.311351,0.08113 -0.13409,0.152851 0.39391,0.159372 0.528,0.0065 0.782739,-0.05986 0.56609,-0.147516 z m 5.11391,7.357971 c -0.22,-0.08877 -0.4,-0.447107 -0.4,-0.796301 0,-0.511478 0.139965,-0.591334 0.72,-0.410806 0.694819,0.216256 0.700413,0.202138 0.16,-0.403632 -0.589981,-0.661331 -0.742854,-1.377331 -0.294073,-1.377331 0.146259,0 0.461443,0.365324 0.700406,0.81183 0.493674,0.922442 1.367616,0.925635 1.54479,0.0056 0.140992,-0.732112 -0.741046,-1.457475 -1.772284,-1.457475 -0.702548,0 -0.907156,-0.407754 -0.762727,-1.52 0.03305,-0.254525 -0.360493,-0.4 -1.082083,-0.4 -0.623715,1.3e-5 -1.134029,-0.132211 -1.134029,-0.293815 0,-0.161606 -0.08741,-0.521606 -0.194237,-0.8 -0.145516,-0.379209 0.0084,-0.506173 0.613828,-0.506173 1.036,0 1.820409,-0.302384 1.820409,-0.701753 0,-0.172304 -0.54,-0.264896 -1.2,-0.205763 -0.66,0.05914 -1.238541,-0.03648 -1.285648,-0.212484 -0.04711,-0.176 0.504061,-0.364825 1.224816,-0.419612 l 1.310461,-0.09961 -0.188211,-1.18039 c -0.203136,-1.273991 0.169024,-2.197114 0.742806,-1.8425 0.223895,0.138375 0.355776,1.445543 0.355776,3.526308 v 3.306422 l 0.878211,0.220419 c 1.30481,0.327485 1.681789,0.768653 1.681789,1.968144 0,0.768048 0.145146,1.08082 0.501565,1.08082 0.355939,0 0.442586,-0.185818 0.298435,-0.64 -0.266928,-0.841021 0.07725,-0.813098 0.787379,0.06388 0.554103,0.684282 0.593946,0.68817 1.431165,0.139603 1.050496,-0.68831 0.952723,-1.091305 -0.446867,-1.841913 -1.660874,-0.890736 -1.804416,-1.138026 -1.108115,-1.908979 l 0.616438,-0.682528 -1.512185,0.114966 c -0.866909,0.06591 -1.517088,-0.02157 -1.52368,-0.205031 -0.0063,-0.176 0.78216,-0.363187 1.752185,-0.415968 1.274151,-0.06933 1.76368,-0.223404 1.76368,-0.555094 0,-0.370118 -0.372221,-0.420221 -1.92,-0.258445 -1.213613,0.126848 -1.92,0.08158 -1.92,-0.123037 0,-0.334512 1.7364,-0.717756 3.28,-0.723932 0.484,-0.0019 0.88,-0.145316 0.88,-0.318618 0,-0.194077 -0.737395,-0.238019 -1.92,-0.114413 -1.213613,0.126848 -1.92,0.08158 -1.92,-0.123037 0,-0.331721 1.732589,-0.717648 3.250042,-0.723932 0.719468,-0.0029 0.823132,-0.114122 0.67487,-0.723524 -0.463705,-1.905961 -2.540912,-2.545113 -3.245529,-0.998646 -0.499767,1.09687 -0.839383,0.716966 -0.839383,-0.93896 v -1.324157 l -1.36,0.09535 c -1.681533,0.117898 -1.780653,-0.414528 -0.16,-0.859446 1.123549,-0.308448 1.092967,-0.318042 -0.48,-0.150563 -1.967641,0.209501 -2.375485,-0.398254 -0.48,-0.715283 1.910301,-0.319508 1.981581,-0.477773 0.16,-0.355246 -1.222099,0.0822 -1.68,-2.43e-4 -1.68,-0.302489 0,-0.268654 0.537184,-0.449963 1.52,-0.513027 1.471984,-0.09445 1.517795,-0.127859 1.450186,-1.057533 -0.05908,-0.812351 0.123245,-1.070917 1.185433,-1.681171 2.299543,-1.321146 3.927268,-4.510043 3.391562,-6.644462 -0.280355,-1.117024 -2.850715,-4.916484 -5.440973,-5.456384 -0.487246,-0.101559 -1.877369,-0.148768 -3.099165,-0.06135 -1.221798,0.08742 -2.28862,0.05025 -2.370723,-0.08259 -0.365213,-0.590927 0.966752,-1.037622 3.20401,-1.074516 1.682643,-0.02775 2.397597,-0.158767 2.398451,-0.439531 6.4e-4,-0.22 0.14808,-0.400001 0.327578,-0.400001 0.179497,0 0.887532,-0.354253 1.573414,-0.78723 1.689174,-1.066329 2.900227,-1.35997 2.900227,-0.703211 0,0.863885 -0.941151,4.346893 -1.206662,4.631389 -0.139747,0.149742 0.589808,0.901574 1.466161,1.870905 l 1.174566,1.867478 1.169311,-0.830217 c 0.47094,-0.33437 1.089712,-0.609113 1.376067,-0.609113 0.575706,0 1.039424,0.857649 0.656279,1.213801 -0.133837,0.124409 -0.307626,0.0462 -0.386199,-0.173801 -0.189571,-0.530802 -0.881097,-0.508515 -1.338941,0.04315 -0.293414,0.353541 -0.204275,0.484188 0.440816,0.646096 0.764829,0.19196 1.171927,1.150753 0.488602,1.150753 -0.176,0 -0.32,-0.144 -0.32,-0.32 0,-0.176 -0.232631,-0.299925 -0.632902,-0.336162 -0.655231,-0.05932 -1.139089,-0.16051 -1.304773,0.590269 -0.517777,2.346257 -0.920317,3.933584 -2.016963,4.967196 -0.707296,0.666645 -1.402741,1.445287 -1.888427,1.741584 -0.485687,0.296298 -0.816727,0.686861 -0.735645,0.867918 0.08109,0.181057 0.39407,1.157195 0.695529,2.169195 0.450394,1.511971 0.672864,1.84 1.247895,1.84 3.092512,0 4.188201,2.617901 2.710688,6.476567 l -0.644602,1.683434 1.124602,0.911036 c 1.375401,1.114215 1.412345,1.791984 0.165635,3.038695 -1.061648,1.061651 -2.411642,1.484218 -3.780906,1.183475 -0.546844,-0.120105 -1.268691,-0.0053 -1.84,0.292605 -0.974998,0.508429 -1.303555,0.555264 -1.980131,0.282259 z m -0.63391,-6.397971 c -0.21665,-0.08765 -0.64865,-0.09299 -0.96,-0.01184 -0.311351,0.08113 -0.13409,0.152851 0.39391,0.159373 0.528,0.0065 0.782739,-0.05986 0.56609,-0.147517 z m 3.75391,-26.1901 c -0.219101,-0.264 -0.632733,-0.474898 -0.919181,-0.468661 -0.358368,0.0078 -0.271286,0.153986 0.279181,0.468661 1.026935,0.587048 1.127207,0.587048 0.64,0 z m 0.96,-0.8 c 0,-0.176 -0.224499,-0.320001 -0.498886,-0.320001 -0.274387,0 -0.409888,0.144001 -0.301114,0.320001 0.108775,0.176 0.333274,0.32 0.498887,0.32 0.165612,0 0.301113,-0.144 0.301113,-0.32 z m -16.190304,14.8 c -1.025904,-0.158992 -2.303759,-1.085187 -2.323002,-1.898963 -0.161416,-6.826182 -0.867575,-1.783203 2.1744,-1.701037 2.969666,0.08021 3.909523,0.60902 1.077773,0.699194 l -1.858887,0.05919 1.68,0.117528 c 2.011047,0.140688 2.245968,0.705333 0.32,0.769138 -1.358912,0.04502 -1.358672,0.04522 0.300365,0.247033 1.935187,0.235407 2.426595,0.553579 1.294023,0.837836 -0.593837,0.149043 -2.086639,0.427592 -0.69721,0.683442 0.688954,0.126864 0.231905,0.368289 -1.967462,0.186632 -2e-6,0 2e-6,7e-6 0,7e-6 z m 5.950284,-3.12 c 0,-0.264 0.144,-0.48 0.32,-0.48 0.176,0 0.32,0.216 0.32,0.48 0,0.264 -0.144,0.48 -0.32,0.48 -0.176,0 -0.32,-0.216 -0.32,-0.48 z m -0.8,-1.44 c -0.108774,-0.176 0.02672,-0.32 0.301114,-0.32 0.274387,0 0.498886,0.144 0.498886,0.32 0,0.176 -0.135501,0.32 -0.301113,0.32 -0.165613,0 -0.390112,-0.144 -0.498887,-0.32 z m 1.44,0 c 0,-0.176 0.144,-0.32 0.32,-0.32 0.176,0 0.32,0.144 0.32,0.32 0,0.176 -0.144,0.32 -0.32,0.32 -0.176,0 -0.32,-0.144 -0.32,-0.32 z m 4.48,-0.330043 c 0,-0.181524 -0.252,-0.419412 -0.56,-0.52864 -1.042553,-0.369728 -1.68,-1.156653 -1.68,-2.073954 0,-0.703335 0.291632,-1.115164 1.267856,-1.790405 0.697322,-0.482327 1.271067,-1.120519 1.28,-1.418073 0.01872,-0.623569 0.524295,-1.26435 0.987841,-0.106214 0.278805,0.696576 0.937333,0.782173 1.412722,0.962916 1.966576,0.74769 1.698176,3.001384 -0.4351,4.066726 -0.597271,0.298273 -1.237904,0.694273 -1.423632,0.88 -0.430231,0.43023 -0.849687,0.434004 -0.849687,0.0076 z m 1.94024,-2.734346 c 0.346922,-0.418014 0.339933,-0.554172 -0.04082,-0.7951 -0.252685,-0.159891 -0.634358,-0.292916 -0.848166,-0.295611 -0.460519,-0.0058 -1.11784,1.101852 -0.826666,1.393025 0.370554,0.370553 1.291968,0.208191 1.715648,-0.302314 z M 43.26606,20.64569 c 0.516614,-1.616175 0.704638,-1.80743 1.373953,-2.501616 1.678512,-1.740884 1.734707,-2.133323 1.45649,-5.406424 -0.07551,-0.888362 -0.01091,-0.952339 0.865702,-0.857337 1.305904,0.141526 3.68527,1.265649 3.908115,1.846375 0.326483,0.850798 -0.188253,0.897975 -1.678278,0.15382 -0.802087,-0.400581 -1.53105,-0.655617 -1.61992,-0.566747 -0.08887,0.08887 0.01712,0.758051 0.235545,1.487071 l 0.397127,1.325489 -1.574947,1.411325 -1.574948,1.411325 1.021114,0.01434 c 1.277488,0.01794 1.757802,0.645804 0.517773,0.676831 -0.494387,0.01237 -1.186887,0.14625 -1.538887,0.29751 -0.461507,0.198317 -0.132102,0.28129 1.181114,0.297509 2.767242,0.03418 2.659222,0.654937 -0.122227,0.702413 0,0 -2.326969,0.0421 -2.359486,0.174585 -0.09395,0.38278 1.829565,0.339522 1.829565,0.339522 2.642663,0.358944 2.459615,0.565972 1.62292,0.47385 -0.736989,-0.08114 -3.651911,0.295131 -3.526306,1.037425 0.294888,1.742718 0.70554,5.749043 -0.286712,2.603096 -0.251009,-0.348587 -0.574819,-3.521616 -0.127707,-4.920362 z m 7.708839,-1.620073 c 0,-0.195675 0.355725,-0.445055 0.790503,-0.554177 0.553926,-0.139026 0.769404,-0.393655 0.72,-0.850822 -0.03878,-0.35883 0.0735,-0.703065 0.249497,-0.764966 0.427431,-0.150331 1.193354,1.536646 0.852448,1.877552 -0.449283,0.449281 -2.612448,0.691406 -2.612448,0.292413 z"
       style="fill:#000000;stroke-width:0.32" />
    <path
       id="path1978"
       style="fill:#000000;fill-opacity:1;stroke-width:1.6;stroke-linecap:round"
       d="m 61.053258,22.720193 c -2.805936,0.155027 -2.752508,1.788702 -2.772008,1.836448 -0.02854,0.03301 -0.06797,0.06383 -0.08398,0.09961 -0.01873,0.04184 -0.0174,0.06789 -0.0059,0.08789 l -0.01172,0.02539 0.02344,-0.01758 c 0.09669,0.09179 0.667797,-0.115635 1.779297,-0.3125 2.038193,-0.273922 3.552834,1.933156 3.894531,3.753906 0.874932,1.985041 2.197715,4.65435 5.013672,5.111329 2.815956,0.456978 4.587199,-1.339316 5.089844,-2.884766 0.502645,-1.54545 -0.282879,-3.112273 -0.783203,-3.595703 -0.500323,-0.483429 -3.568458,0.09456 -4.22461,0.546875 -0.656153,0.452317 0.626523,1.544203 -0.439453,1.25 -1.065976,-0.294202 -2.532041,-2.817659 -3.102011,-3.574348 -1.419126,-1.88402 -1.537043,-2.483511 -4.377934,-2.326553 z m 5.304164,5.520041 0.291016,0.681641 c 0.628056,0.809538 1.316317,1.460499 2.589843,1.330078 l 0.142578,0.820313 c -1.80894,0.02509 -2.761317,-0.598258 -3.699218,-2.320313 -0.07293,-0.283423 0.335654,-0.367754 0.675781,-0.511719 z"
       sodipodi:nodetypes="scscccccssssssscccccc" />
    <path
       style="fill:#000000;fill-opacity:1;stroke-width:1.6;stroke-linecap:round"
       d="m 71.232628,20.334958 c -0.655982,3.403778 3.978973,3.46473 2.994932,0.338204 -0.984041,-3.126525 -2.138034,-2.332141 -1.677047,-2.495525 0.460987,-0.163384 1.444583,1.545076 2.362407,1.845056 0.917823,0.29998 1.980584,-2.643567 0.78531,-3.30337 -1.195275,-0.659802 -2.431381,0.640936 -2.359847,0.810407 0.07153,0.169471 -1.403793,-2.641687 1.18765,-2.678836 2.591443,-0.03715 2.631733,0.921981 2.435809,0.751409 -0.195925,-0.170572 -1.596919,-0.585748 -2.184435,-0.354528 -0.587517,0.231221 -1.325022,0.368504 -1.234478,0.900852 0.09054,0.532349 0.95742,-0.636161 2.037202,-0.09579 1.079782,0.540367 1.402351,1.763417 1.1954,2.218708 -0.20695,0.45529 -1.011524,2.362927 -1.319031,2.459503 -0.307507,0.09658 -0.921101,-0.266888 -0.921101,-0.266888 0,0 0.429817,0.344391 0.268856,1.172191 -0.16096,0.827799 -0.837551,1.813595 -1.573372,1.942364 -0.735822,0.128769 -2.547784,0.146524 -2.736338,-0.836997 -0.188553,-0.983522 0.738083,-2.406757 0.738083,-2.406757 z"
       id="path1990" />
  </g>
</svg>
