<?xml version="1.0" encoding="UTF-8" standalone="no"?>
<svg
   xmlns:dc="http://purl.org/dc/elements/1.1/"
   xmlns:cc="http://creativecommons.org/ns#"
   xmlns:rdf="http://www.w3.org/1999/02/22-rdf-syntax-ns#"
   xmlns:svg="http://www.w3.org/2000/svg"
   xmlns="http://www.w3.org/2000/svg"
   xmlns:sodipodi="http://sodipodi.sourceforge.net/DTD/sodipodi-0.dtd"
   xmlns:inkscape="http://www.inkscape.org/namespaces/inkscape"
   inkscape:version="1.0 (4035a4fb49, 2020-05-01)"
   sodipodi:docname="itsme.svg"
   viewBox="0 0 1849.6001 2252.8"
   height="112.64"
   width="92.480003"
   id="svg1198"
   version="1.1">
  <metadata
     id="metadata1204">
    <rdf:RDF>
      <cc:Work
         rdf:about="">
        <dc:format>image/svg+xml</dc:format>
        <dc:type
           rdf:resource="http://purl.org/dc/dcmitype/StillImage" />
        <dc:title></dc:title>
      </cc:Work>
    </rdf:RDF>
  </metadata>
  <defs
     id="defs1202" />
  <sodipodi:namedview
     inkscape:current-layer="g1206"
     inkscape:window-maximized="0"
     inkscape:window-y="33"
     inkscape:window-x="10"
     inkscape:cy="57.500889"
     inkscape:cx="49.606081"
     inkscape:zoom="6.8959852"
     showgrid="false"
     id="namedview1200"
     inkscape:window-height="1035"
     inkscape:window-width="1898"
     inkscape:pageshadow="2"
     inkscape:pageopacity="0"
     guidetolerance="10"
     gridtolerance="10"
     objecttolerance="10"
     borderopacity="1"
     bordercolor="#666666"
     pagecolor="#ffffff" />
  <g
     style="display:inline"
     inkscape:label="Image 1"
     id="layer3"
     inkscape:groupmode="layer" />
  <g
     id="g1206"
     inkscape:label="Image"
     inkscape:groupmode="layer">
    <g
       id="g1863">
      <path
         style="fill:#6021c6;fill-opacity:1;stroke-width:0;stroke-linecap:round;stroke-opacity:0.996591"
         d="m 268.26117,1123.8384 53.17204,-36.5487 c 0,0 24.45111,18.1654 25.91508,21.4155 1.46407,3.2501 7.99568,5.3144 7.99568,5.3144 0,0 9.88501,-5.4589 11.22662,-5.2104 1.34163,0.2484 50.20819,27.6896 50.20819,27.6896 l 45.73881,16.0419 34.93529,2.6564 73.80827,-6.5796 68.05872,-27.1968 28.33373,10.62 62.24053,37.914 69.25221,23.6869 68.25524,3.8725 51.63217,-5.4512 27.46854,-12.6358 29.10698,-15.0877 55.95283,-34.1071 8.0724,-4.6462 31.3309,14.7445 29.6287,18.7221 33.4338,8.1368 75.0273,-2.1574 67.4238,-20.3885 44.9426,-23.7607 c 0,0 45.5295,-41.3929 47.7648,-39.4143 2.2353,1.9786 27.2849,25.33 27.2849,25.33 l 57.5295,5.8454 32.6548,-30.1919 59.4595,-81.5962 80.9869,-154.13188 29.1838,-96.83887 4.5015,-158.11913 -15.6237,-85.72768 L 1583.1214,343.5107 1529.4141,276.95353 1396.2478,167.96935 1245.6191,117.9598 984.14368,75.375692 819.11916,88.461568 670.07709,124.45034 l -142.58693,63.02767 -133.03632,100.4141 -108.56851,128.7944 -52.77642,87.64173 -35.91488,81.11191 -43.21534,134.16984 0.79226,107.75601 16.61502,134.71169 65.71824,124.60321 z"
         id="path1781" />
      <path
         style="fill:#ff00d3;fill-opacity:1;stroke-width:0;stroke-linecap:round;stroke-opacity:0.996591"
         d="m 261.58445,1125.4699 c 0.21467,-1.6168 64.43111,-40.5896 64.43111,-40.5896 0,0 67.36531,61.3582 158.46706,69.0629 91.10176,7.7047 169.31518,-37.8935 169.31518,-37.8935 0,0 11.35778,17.6602 46.95576,38.4402 35.59798,20.78 100.77083,37.8244 125.97828,41.2752 25.20745,3.4508 76.17431,-0.2518 76.17431,-0.2518 l 49.76808,-17.8527 51.55747,-30.6349 36.8463,-23.6134 c 0,0 60.3572,55.8684 137.6963,44.0259 77.3392,-11.8425 150.7252,-34.3232 183.9937,-85.8217 18.892,-29.2442 3.9203,6.5723 3.9203,6.5723 l 14.5398,3.3402 22.6412,15.2269 46.9756,4.4063 8.0507,-2.2818 c 0,0 -8.1774,26.3109 -19.1676,31.9716 -10.9902,5.6606 -78.5697,65.4595 -103.5916,79.6776 -25.0219,14.2181 -164.0642,94.515 -213.1693,109.3756 -49.1051,14.8607 -84.539,20.7837 -84.539,20.7837 l 6.2394,3.3307 -39.311,86.3192 -105.61778,17.0394 -49.01828,2.1776 -101.98446,-11.9773 -16.76269,-68.4617 -239.20089,-93.851 -134.19957,-68.8678 z"
         id="path1783"
         sodipodi:nodetypes="ccscssccccsscccccssscccccccccc" />
      <path
         style="fill:#ff00d3;fill-opacity:1;stroke-width:0;stroke-linecap:round;stroke-opacity:0.996591"
         d="m 703.36749,394.73028 -18.35167,178.0732 45.89872,-0.39812 17.81462,-144.10065 27.06367,-9.61878 57.36072,6.20053 -7.36281,145.19641 41.62432,-2.90481 15.95171,-139.83968 32.30133,0.50516 12.05916,-12.41321 5.23227,-26.46856 -70.86497,4.48128 -85.84199,5.68518 -5.69144,12.7889 -17.05604,8.35465 -8.47882,-23.83711 z"
         id="path1785" />
      <path
         style="fill:#ff00d3;fill-opacity:1;stroke-width:0;stroke-linecap:round;stroke-opacity:0.996591"
         d="m 990.55025,518.98139 21.44875,-10.25537 c 0,0 54.7195,0.80726 54.9593,-1.32302 0.2399,-2.1303 6.1753,-18.37664 6.1753,-18.37664 l -11.3676,-19.9842 -42.4658,-27.08205 c 0,0 -4.4209,-20.89003 -2.6367,-23.62273 1.7841,-2.73269 35.7688,-27.33793 35.7688,-27.33793 l 51.3147,4.05303 26.7839,14.95793 4.9979,22.83392 c 0,0 -27.0579,4.77599 -29.8157,4.05654 -2.7579,-0.71944 -12.7663,-1.19259 -12.7663,3.48393 0,4.67646 10.0474,22.88393 12.0858,24.68256 2.0385,1.79858 20.9241,18.52062 20.9241,18.52062 l -0.064,28.04772 -32.5054,37.08527 -59.5294,7.00532 -40.72816,-13.81968 z"
         id="path1787" />
      <path
         style="fill:#ff00d3;fill-opacity:1;stroke-width:0;stroke-linecap:round;stroke-opacity:0.996591"
         d="m 962.75816,394.17724 c 0,0 10.63712,16.01031 17.18422,13.50839 6.54707,-2.50192 15.80924,-9.24176 15.80924,-9.24176 l 11.36798,-30.94425 c 0,0 -0.7237,-14.84351 -5.8087,-17.48212 -5.08505,-2.6386 -18.47476,-1.80157 -18.47476,-1.80157 z"
         id="path1789" />
      <path
         style="fill:#ff00d3;fill-opacity:1;stroke-width:0;stroke-linecap:round;stroke-opacity:0.996591"
         d="m 631.13725,805.4559 80.16947,-165.94182 39.242,2.84177 27.29882,67.98904 37.45792,-56.70532 34.01015,-5.57397 37.96888,166.30482 -44.54409,26.60724 -11.10243,-1.44687 -25.77197,-89.51424 -44.41923,64.96858 -15.69888,9.52033 c 0,0 -11.82469,-75.37641 -15.78968,-70.53701 -3.96499,4.83941 -58.651,77.92304 -58.651,77.92304 l -19.72208,-1.04974 z"
         id="path1791" />
      <path
         style="fill:#ff00d3;fill-opacity:1;stroke-width:0;stroke-linecap:round;stroke-opacity:0.996591"
         d="m 918.05618,667.25005 4.09625,108.07834 14.61862,65.61233 105.81825,-0.99711 36.3112,-8.412 4.2106,-19.53043 -6.9464,-13.54882 -37.6292,-4.30306 -36.1935,6.71617 -10.16266,-12.37926 -4.63837,-20.43433 48.36143,-20.05296 13.5841,-10.40081 c 0,0 -5.1731,-16.62824 -6.772,-17.09851 -1.5989,-0.47035 -57.04031,3.43 -57.04031,3.43 0,0 -9.27817,-20.54564 -8.996,-21.72764 0.28209,-1.18198 86.12291,-23.22504 86.12291,-23.22504 0,0 10.0268,-16.3195 9.8387,-17.54222 -0.188,-1.22279 -8.0838,-18.54053 -9.8708,-18.16431 -1.787,0.37632 -122.28346,6.58839 -122.28346,6.58839 l -20.44894,8.43688 z"
         id="path1793" />
      <path
         style="fill:#f0bd8e;fill-opacity:1;stroke-width:0;stroke-linecap:round;stroke-opacity:0.996591"
         d="m 951.81755,1846.9978 -0.11804,-8.1364 c 0,0 -42.45033,-3.017 -42.45033,-8.0527 0,-5.0356 253.48032,-66.1136 277.28542,-44.0392 23.805,22.0743 3.9414,31.0087 3.9414,31.0087 l -38.8319,24.3694 -0.3219,27.1118 14.7773,119.3609 -9.4276,53.2988 -63.9503,49.6211 -101.73493,55.5614 -82.60021,3.0916 -269.21942,-46.0717 c 0,0 -14.43877,8.0445 -17.9871,-35.3742 -3.54834,-43.4186 -7.93985,-179.7621 -7.93985,-179.7621 l -28.95701,-10.9028 c 0,0 -5.04187,-44.2345 31.43649,-26.3502 36.47834,17.8843 15.79748,23.0373 29.35764,21.7921 13.56016,-1.2452 69.58246,-6.8251 69.58246,-6.8251 l 82.26598,-4.6364 102.99078,-2.2015 53.28515,-27.7629 -36.26846,-3.3204 z"
         id="path1795"
         sodipodi:nodetypes="ccsscccccccccsccsscccccc" />
      <path
         style="fill:#f6ec9e;fill-opacity:1;stroke-width:0;stroke-linecap:round;stroke-opacity:0.996591"
         d="m 1144.7906,1875.9371 28.922,-13.1795 c 0,0 13.7569,0.1861 12.5313,2.039 -1.2256,1.852 -21.9657,31.2503 -21.9657,31.2503 l 28.1525,24.0808 1.7421,32.9997 -32.813,12.6397 c 0,0 -39.7534,12.8453 -22.4997,-28.7366 17.2536,-41.5819 20.9189,-38.3607 16.1347,-44.4548 -4.784,-6.0941 -10.2042,-16.6386 -10.2042,-16.6386 z"
         id="path1797" />
      <path
         style="fill:#f6ec9e;fill-opacity:1;stroke-width:0;stroke-linecap:round;stroke-opacity:0.996591"
         d="m 1043.8567,1907.9219 9.2545,28.8923 c 0,0 -24.389,34.5976 -24.011,39.017 0.3779,4.4194 2.5028,19.4402 9.4373,21.7996 6.9345,2.3594 29.4398,6.1645 34.4221,2.4897 4.9822,-3.6748 22.4779,-3.6283 22.4779,-3.6283 0,0 11.709,-17.8933 12.4515,-20.0079 0.7424,-2.1145 -5.9622,-24.9507 -7.5675,-27.0773 -1.6053,-2.1266 -28.85,-31.6348 -28.85,-31.6348 l 8.1322,-22.4024 -33.7106,12.512 z"
         id="path1799" />
      <path
         style="fill:#f6ec9e;fill-opacity:1;stroke-width:0;stroke-linecap:round;stroke-opacity:0.996591"
         d="m 848.67875,1927.6283 c 0,0 -28.50041,-20.8785 -37.70386,-11.1897 -9.20343,9.6888 -15.54946,19.1942 -9.49186,23.6571 6.0576,4.4628 3.08925,13.5809 3.08925,13.5809 l -38.56517,31.4886 10.07065,28.3598 23.84147,12.4001 27.89485,-3.6604 19.81277,-8.5362 13.52345,-18.1185 -1.41025,-23.7726 -3.78776,-6.4095 -18.40057,-27.4361 z"
         id="path1801" />
      <path
         style="fill:#f6ec9e;fill-opacity:1;stroke-width:0;stroke-linecap:round;stroke-opacity:0.996591"
         d="m 670.09108,1925.1824 c 0,0 0.37232,-16.9555 20.4289,-11.2025 20.05652,5.753 26.76823,17.2434 26.76823,17.2434 l -7.35649,1.6783 c 0,0 10.60297,23.6347 13.5555,29.6004 2.9525,5.9658 13.1911,36.9299 8.40179,45.828 -4.78932,8.898 -17.63243,24.4456 -33.97848,22.3822 -16.34606,-2.0634 -47.77,-25.4729 -47.90032,-37.3179 -0.13004,-11.845 3.62606,-25.8649 11.21125,-32.3302 7.58519,-6.4653 14.26051,-21.4411 14.26051,-21.4411 z"
         id="path1803" />
      <path
         style="fill:#ff9300;fill-opacity:1;stroke-width:0;stroke-linecap:round;stroke-opacity:0.996591"
         d="m 632.14343,1860.7992 c 0,0 -13.76279,-25.8173 7.73287,-28.4662 21.49567,-2.649 29.01323,12.5561 39.34602,4.0547 10.33279,-8.5015 12.02277,-13.4992 12.02277,-13.4992 l 56.82392,-97.7706 c 0,0 -67.98615,-25.3061 -52.06955,-68.5152 15.91659,-43.2092 48.63893,-77.1883 48.63893,-77.1883 0,0 35.46772,-21.3097 61.37319,-23.9587 25.9055,-2.6489 31.82127,-17.6896 42.55507,-12.0375 10.73382,5.6521 36.57769,5.5095 36.57769,5.5095 l 34.98236,-13.5822 c 0,0 5.38261,27.2455 5.75497,30.2093 0.37232,2.9638 22.41225,38.5701 22.41225,38.5701 l 1.78978,17.7753 c 0,0 -21.3461,23.3415 -10.14399,25.5984 11.20213,2.2568 22.82777,-15.6328 22.82777,-15.6328 l 25.96061,-22.9421 16.91521,18.2789 38.7661,31.1383 c 0,0 15.3128,18.6363 15.3128,22.1682 0,3.5319 -3.1166,39.464 -3.1166,39.464 0,0 -23.8231,25.9942 -27.0018,28.6431 -3.1788,2.649 -37.34332,3.2202 -37.34332,3.2202 l -13.64585,-17.1425 c 0,0 -11.49862,-2.3953 -15.9419,2.9261 -4.44328,5.3213 -6.32311,11.2114 -6.32311,11.2114 l 30.88241,43.2313 1.02533,6.4697 4.2456,3.6916 66.17014,-31.1608 107.2636,-54.4148 c 0,0 51.2282,-20.8146 51.0516,-16.7063 -0.176,4.1083 2.6464,21.7626 2.6464,21.7626 l -28.4375,28.191 -32.5914,17.0078 -40.1598,21.0926 c 0,0 -43.5471,11.9552 -45.3682,12.3801 -1.8212,0.4249 -27.22,6.9224 -27.22,6.9224 l -55.43431,17.8007 0.16206,32.5633 -53.46849,5.9125 -189.40012,-1.4703 c 0,0 -64.67371,3.128 -66.60169,4.7989 -1.92802,1.671 -38.41332,7.4615 -38.41332,7.4615 z"
         id="path1805" />
      <path
         style="fill:#000000;stroke-width:6.40205"
         d="m 909.77941,2155.8584 c -38.73242,-2.4095 -80.5058,-7.4127 -92.82974,-11.1181 -12.32395,-3.7056 -44.0141,-10.0943 -70.42256,-14.1974 -76.85358,-11.9404 -115.2369,-21.1501 -115.2369,-27.65 0,-3.3603 10.6776,-4.4635 24.00769,-2.4804 44.40066,6.6053 100.5604,16.1095 139.24459,23.5653 21.12677,4.0717 51.37645,9.8458 67.22153,12.8311 96.06622,18.0998 140.98738,8.7224 223.07118,-46.5673 64.4357,-43.4023 71.4231,-51.3566 71.4231,-81.3067 0,-13.8767 2.8809,-27.0109 6.4021,-29.1871 9.9916,-6.1751 7.7051,49.7081 -2.6381,64.4751 -13.8083,19.7141 -167.4443,121.0419 -177.39864,117 -1.33203,-0.5401 -34.11185,-2.9547 -72.84425,-5.3645 z m 77.11479,-138.0058 c -4.97593,-107.034 -3.72337,-112.5136 25.318,-110.7585 10.1684,0.6146 9.6516,1.3695 -2.5102,3.6675 l -15.31446,2.8937 3.549,94.3969 c 1.95202,51.9183 1.31862,98.0057 -1.40745,102.4165 -2.72599,4.4108 -7.06172,-37.2663 -9.63489,-92.6161 z m -214.75888,73.7276 c -13.3397,-2.9291 -1.68134,-3.5345 28.80922,-1.4964 28.16902,1.8826 52.41678,4.4764 53.88395,5.7626 4.71677,4.1353 -59.5232,0.8203 -82.69317,-4.2668 z m -158.94876,-55.8228 c -1.15417,-27.2841 -2.59469,-70.4576 -3.20103,-95.941 -0.6286,-26.4264 -3.85313,-46.0425 -7.50454,-45.6564 -14.60462,1.5447 -21.24862,-1.3906 -24.94403,-11.0206 -6.43148,-16.7602 2.16744,-22.1989 14.92584,-9.4405 11.02881,11.0288 25.7212,11.9925 196.1121,12.8622 101.30456,0.5173 186.46201,2.3442 189.23878,4.0603 6.36529,3.934 150.58782,-43.8442 184.36822,-61.0777 31.4519,-16.0455 36.8738,-24.4353 22.5569,-34.904 -6.6077,-4.8317 -8.5733,-9.832 -4.7853,-12.1731 3.5358,-2.1853 11.8948,0.088 18.5755,5.0498 27.9679,20.7756 -8.9858,46.8687 -119.1413,84.1261 l -86.03049,29.0977 -184.05735,-0.7288 -184.0574,-0.7289 -4.05046,16.1384 c -2.22777,8.8761 -0.86708,34.4191 3.02389,56.7622 10.67786,61.3169 8.47043,113.217 -4.81422,113.1902 -2.26409,0 -5.06094,-22.3316 -6.21511,-49.6159 z m 75.7221,44.9422 c -12.32394,-1.4485 -24.68296,-4.8474 -27.46453,-7.5539 -4.78719,-4.6582 68.27926,3.0134 81.88196,8.5972 7.75442,3.183 -23.55838,2.5828 -54.41743,-1.0443 z m 339.30864,-4.236 c 0,-1.3844 4.471,-4.2317 9.9356,-6.3288 5.6973,-2.1863 8.2671,-1.1124 6.0242,2.516 -3.7596,6.0833 -15.9598,8.9979 -15.9598,3.8128 z m -142.44558,-14.528 c 4.40141,-1.7766 11.60372,-1.7766 16.00513,0 4.40141,1.7765 0.80025,3.2292 -8.00256,3.2292 -8.80282,0 -12.40398,-1.4525 -8.00257,-3.2292 z m -132.84255,-8.5642 c -8.27588,-5.3483 -8.10686,-6.2196 1.22259,-6.304 5.95416,-0.06 12.60627,2.7829 14.78245,6.304 5.00756,8.1024 -3.46753,8.1024 -16.00513,0 z m 46.41486,1.8166 c 9.6831,-1.4665 25.52817,-1.4665 35.21127,0 9.6831,1.4665 1.76057,2.667 -17.60563,2.667 -19.36621,0 -27.28874,-1.2003 -17.60564,-2.667 z m -116.83742,-6.4317 c -8.80281,-1.5785 -18.88604,-5.832 -22.40717,-9.4506 -4.36146,-4.4824 -1.62912,-5.1348 8.57208,-2.0468 8.2358,2.493 28.40226,6.7993 44.81435,9.5696 25.39726,4.287 26.50399,5.0192 7.43304,4.918 -12.32394,-0.06 -29.60948,-1.4105 -38.4123,-2.9902 z m -16.96255,-20.9547 c -26.35858,-10.6343 -32.90877,-50.9581 -11.13124,-68.5255 13.38144,-10.7944 16.27965,-16.3226 10.48862,-20.0068 -6.28355,-3.9976 -5.98356,-7.7596 1.39684,-17.5174 8.50473,-11.2443 9.41838,-11.3607 9.60262,-1.223 0.22027,12.1004 28.35346,16.227 35.19207,5.1619 3.35947,-5.4357 60.41014,-2.3715 66.91084,3.5938 1.46707,1.3463 -11.86453,2.4479 -29.62586,2.4479 -20.30284,0 -35.13529,3.4243 -39.94739,9.2225 -4.20973,5.0724 -11.44739,7.7669 -16.08375,5.9878 -29.18753,-11.2004 -50.28471,53.2237 -22.32881,68.1852 37.05948,19.8335 68.65468,-1.5379 54.02774,-36.5451 -11.25257,-26.9314 -11.33988,-27.6443 -3.38381,-27.6443 3.37978,0 9.71121,11.9027 14.06979,26.4505 12.27991,40.9865 -25.07951,68.2078 -69.18766,50.4125 z m 104.30496,-16.0951 c -17.47637,-22.3482 -17.76164,-23.7622 -6.40205,-31.7352 33.221,-23.317 44.07134,-35.0055 32.69603,-35.2218 -20.40505,-0.3879 -3.70838,-31.3168 17.28554,-32.0196 3.34507,-0.112 2.62484,3.2535 -1.60051,7.4789 -11.9701,11.9701 -9.13821,17.9257 8.52356,17.9257 8.91338,0 17.74925,-4.0213 19.63529,-8.9363 2.45767,-6.4046 10.55402,-7.9807 28.57803,-5.5632 13.83183,1.8552 42.72807,-0.086 64.21379,-4.3123 21.48574,-4.2271 40.45379,-6.2968 42.15129,-4.5993 4.51173,4.5117 -60.12863,16.9842 -95.94592,18.5129 -16.9374,0.7228 -33.85546,5.0017 -37.59566,9.5084 -3.7402,4.5067 -11.48924,8.2714 -17.22003,8.3661 -5.73088,0.094 -20.16518,8.2552 -32.07627,18.1344 -31.35352,26.0049 -14.663,55.5345 27.45295,48.5711 36.20059,-5.9854 37.72486,-7.6039 33.91474,-36.0106 -2.82895,-21.0908 -1.92482,-23.8957 5.67041,-17.5922 25.86654,21.4672 0.54158,61.8375 -42.18054,67.2403 -27.31235,3.4539 -29.75961,2.428 -47.10065,-19.7473 z m 104.71912,16.0567 c -15.60712,-4.9983 -15.52756,-5.1304 3.20102,-5.3139 10.56338,-0.104 24.968,2.2877 32.01025,5.3139 17.50257,7.5212 -11.72663,7.5212 -35.21127,0 z m 155.24966,-23.4461 c -17.5877,-7.0968 -8.2708,-38.0038 20.5117,-68.0428 26.3207,-27.4698 31.5447,-43.7128 9.5924,-29.8257 -11.679,7.3883 -18.9005,7.657 -18.9005,0.7033 0,-5.5823 28.033,-20.2338 38.7135,-20.2338 13.9267,0 4.4267,24.7694 -19.7416,51.4726 -32.071,35.4349 -31.9961,53.3346 0.2343,56.0467 35.7599,3.0089 50.934,-12.0301 37.1095,-36.779 -8.4189,-15.0717 -8.961,-19.5239 -2.3772,-19.5239 4.6907,0 12.2822,9.0618 16.8698,20.1373 14.1914,34.2612 -38.2493,63.7039 -82.0119,46.0453 z m 123.5596,-40.0323 c 3.3451,-3.2229 13.2842,-6.8241 22.0871,-8.0025 23.846,-3.1923 21.8959,-29.847 -3.2011,-43.753 -23.1076,-12.8039 -29.3783,-32.0132 -10.4503,-32.0132 7.0927,0 14.9567,-3.3348 17.4756,-7.4105 4.6062,-7.4531 -6.3932,-5.9757 -31.033,4.1681 -6.4015,2.6353 -11.2035,1.7874 -11.2035,-1.9783 0,-3.6247 10.3484,-10.0058 22.9965,-14.18 29.9546,-9.8859 39.3129,-1.0939 22.1118,20.7739 l -12.8774,16.3709 19.0958,7.9098 c 36.0676,14.9397 18.6674,63.9748 -22.7015,63.9748 -11.2827,0 -16.0331,-2.2632 -12.3,-5.86 z m -41.9334,-44.3642 c 0,-2.9754 5.7618,-10.6242 12.8041,-16.9974 14.4016,-13.0333 16.8784,-5.9037 3.8921,11.2036 -9.0986,11.986 -16.6962,14.6224 -16.6962,5.7938 z m -484.95532,-45.8512 c -28.60398,-11.8049 -10.4354,-47.7617 25.22491,-49.9217 11.53964,-0.6991 21.34956,4.2038 29.7306,14.8585 11.57363,14.7134 46.02306,23.0665 45.77876,11.1001 -0.27969,-13.6982 -12.72195,-22.2963 -28.03021,-19.3699 -20.47248,3.9135 -20.98702,7.3812 5.56036,-37.4729 33.02567,-55.7998 36.30372,-59.8254 33.21409,-40.7884 -1.42865,8.8028 -4.71677,21.0467 -7.30686,27.2087 -2.81222,6.6904 -1.90361,11.2036 2.25577,11.2036 3.83074,0 8.71679,-6.9796 10.85781,-15.5102 3.46429,-13.8027 6.473,-15.1125 27.33068,-11.8979 33.35526,5.1407 36.55136,21.006 4.23175,21.006 -8.38719,0 -16.70781,2.3597 -18.4902,5.2437 -1.78237,2.884 5.97011,4.329 17.2278,3.2111 18.76408,-1.8632 18.20286,-1.1892 -6.74016,8.094 -17.30929,6.4421 -27.20872,14.0701 -27.20872,20.9657 0,8.7289 5.29752,10.5354 27.20872,9.2785 l 27.20871,-1.5609 -28.80922,9.2859 c -15.84508,5.1072 -21.45441,8.4022 -12.46518,7.3221 8.98926,-1.0802 19.22588,1.1294 22.74803,4.9098 4.18962,4.497 41.15039,6.212 106.89535,4.96 l 100.49152,-1.9136 v -16.1235 c 0,-13.7814 -2.09233,-15.472 -14.40462,-11.6385 -13.87932,4.3213 -13.82094,3.9946 1.60052,-8.9587 18.56382,-15.5927 9.66651,-18.6447 -11.37959,-3.9035 -7.82574,5.4814 -14.22861,7.3843 -14.22861,4.2287 0,-3.1556 7.57458,-9.1887 16.83245,-13.4069 9.25782,-4.2181 15.28739,-9.2143 13.39905,-11.1027 -1.88841,-1.8884 -13.06417,1.3356 -24.83504,7.1641 l -21.40159,10.5975 17.57753,-14.9269 c 21.07157,-17.8942 15.88072,-37.297 -6.73938,-25.1911 -35.89085,19.2082 -43.33227,3.276 -7.91555,-16.9472 l 25.23112,-14.4071 15.89359,20.8376 c 22.34893,29.3009 28.95653,49.9855 25.21723,78.9409 -2.19384,16.9886 -1.13296,23.0034 3.2922,18.6645 3.5911,-3.5212 8.5312,-27.0636 10.978,-52.3166 l 4.4487,-45.9146 -18.38349,-2.1008 c -10.11096,-1.1553 -18.09764,-4.9816 -17.74829,-8.5028 0.34952,-3.5211 -3.97195,-9.9367 -9.60307,-14.2569 -8.35037,-6.4064 -4.63072,-7.1314 20.1714,-3.9313 20.73365,2.675 30.40975,1.6095 30.40975,-3.3488 0,-3.9997 -5.0416,-7.3163 -11.2036,-7.3702 -6.162,-0.052 -15.52497,-3.1097 -20.80666,-6.7905 -7.14285,-4.9779 -4.27249,-5.6425 11.20356,-2.5943 13.1551,2.591 20.8067,1.5567 20.8067,-2.8126 0,-3.8009 -8.6428,-6.9107 -19.2062,-6.9107 -10.56335,0 -19.20611,-3.0115 -19.20611,-6.6922 0,-4.1808 8.40863,-5.1147 22.40721,-2.4885 21.7076,4.0723 22.4071,3.5817 22.4071,-15.7151 0,-11.922 -3.2918,-19.9186 -8.1995,-19.9186 -4.5097,0 -11.4617,-8.6428 -15.449,-19.2061 -7.71589,-20.4418 -12.29297,-22.5958 -27.53669,-12.9589 -8.25615,5.2194 -7.91268,7.2645 2.49872,14.8775 10.83573,7.9233 10.99628,9.2385 1.5693,12.856 -14.84726,5.6974 -13.0527,17.2356 2.68066,17.2356 7.9283,0 11.4534,2.7967 8.84495,7.0174 -2.3854,3.8596 -12.64309,5.7984 -22.79496,4.3084 -12.36044,-1.8142 -21.95467,1.1549 -29.04328,8.9877 -5.82202,6.4332 -13.46639,11.6968 -16.98752,11.6968 -3.52113,0 -0.91389,-6.2504 5.7938,-13.8897 12.02829,-13.6989 12.0199,-13.83 -0.6082,-9.5456 -8.33387,2.8274 -4.98117,-2.5971 9.60308,-15.5375 l 22.40717,-19.8815 -25.6082,14.2853 -25.6082,14.2853 27.20871,-25.7319 27.20872,-25.7319 v -68.5772 -68.5772 l -66.09433,4.505 c -43.68791,2.9778 -78.64528,1.8994 -103.11724,-3.1809 -51.29572,-10.649 -36.36096,-19.527 21.96442,-13.0567 26.40845,2.9295 59.53906,3.055 73.62357,0.2791 22.22446,-4.3808 19.17632,-5.1451 -23.06859,-5.784 -97.2066,-1.4704 -127.37967,-7.0973 -127.37967,-23.7545 0,-20.7318 -12.89474,-48.6501 -28.34597,-61.3714 -19.24282,-15.8429 -11.1667,-18.1139 28.14925,-7.9154 21.05628,5.4619 70.78253,9.4138 124.83139,9.9209 55.08516,0.5166 81.16668,2.6209 67.42686,5.4398 -12.32395,2.5284 -60.58184,4.3098 -107.23972,3.9588 -83.63486,-0.6294 -90.5455,0.4635 -78.96187,12.4859 3.22297,3.3451 6.82413,13.2843 8.00256,22.0871 6.87671,51.3681 235.02432,33.2799 261.42568,-20.7266 8.8028,-18.0071 19.5479,-33.8948 23.8779,-35.3062 7.3647,-2.4006 -4.2289,28.3095 -37.1278,98.3473 -15.52028,33.0409 -18.21746,136.9429 -3.55485,136.9429 4.84185,0 13.41905,9.363 19.06035,20.8066 5.6413,11.4437 10.543,16.4853 10.8925,11.2036 0.3496,-5.2817 1.7614,-15.3649 3.1374,-22.4072 4.5094,-23.0791 21.1845,-165.424 24.9635,-213.0974 l 3.6973,-46.6441 -33.6767,4.2256 c -41.42526,5.1978 -35.18056,-6.281 7.9365,-14.5887 l 28.8093,-5.5509 7.5381,-54.2337 7.5382,-54.2337 -3.4291,53.1127 -3.4291,53.1127 17.8035,-4.4684 c 101.7342,-25.5337 252.0444,-108.2608 270.8262,-149.0563 7.4763,-16.2389 11.839,-23.7635 9.695,-16.7212 -2.144,7.0422 -5.5212,18.5659 -7.5049,25.6082 -2.3617,8.384 12.2543,-1.2362 42.3397,-27.868 54.0189,-47.818 54.339,-48.7258 17.5317,-49.7287 -25.5534,-0.6962 -29.0927,1.0531 -36.0339,17.8109 -9.7312,23.4931 -15.0731,19.6979 -5.9711,-4.2422 13.6002,-35.7711 -9.3009,-46.2632 -40.1488,-18.394 -56.9888,51.4859 -161.7435,76.3751 -236.0135,56.0756 -8.0437,-2.1984 -12.0647,4.241 -17.3264,27.7469 l -6.8518,30.6097 3.4543,-31.3451 c 3.1631,-28.7043 1.926,-32.5664 -14.684,-45.841 -9.976,-7.9727 -16.4173,-16.2349 -14.314,-18.3604 2.1033,-2.1255 11.9979,2.5649 21.988,10.4232 61.6271,48.4758 192.0321,25.8075 268.7082,-46.7096 28.2516,-26.7192 32.9048,-29.1864 32.48,-17.2209 -0.6376,17.964 23.1529,30.3978 58.3996,30.5215 24.8283,0.088 85.1507,-60.8177 85.1507,-85.9729 0,-2.4286 6.8432,-13.5865 15.2071,-24.79518 95.4672,-127.93857 131.6099,-284.8139 106.1862,-460.89465 -10.3842,-71.91923 -49.5627,-159.54028 -96.6188,-216.08395 -84.5083,-101.547 -142.5668,-142.65164 -242.4442,-171.64723 -26.4085,-7.66669 -65.5618,-19.53274 -87.0074,-26.369 -151.3988,-48.261831 -393.40931,-43.630681 -537.19251,10.27979 -24.64789,9.24155 -50.5762,18.78446 -57.61845,21.20647 -26.83739,9.23003 -125.65146,61.66195 -139.44549,73.99142 -7.93895,7.09603 -34.54899,29.93764 -59.13344,50.75913 C 150.20664,507.37815 78.416861,867.95696 259.27619,1099.1273 l 12.25685,15.6664 26.22939,-17.3578 c 14.42614,-9.5468 26.22938,-14.436 26.22938,-10.8649 0,3.5711 -2.16069,6.5965 -4.80153,6.7231 -2.64085,0.1261 -13.37747,7.2379 -23.85912,15.8029 l -19.05759,15.5725 22.25861,23.1699 c 24.08573,25.0717 98.40323,86.0696 104.86396,86.0696 4.56126,0 -39.84596,-88.2619 -61.20024,-121.6389 l -14.33587,-22.4072 14.34652,12.4451 c 12.47883,10.8251 13.79417,11.0058 10.10373,1.3887 -3.2393,-8.4415 3.13096,-6.5048 26.93321,8.1881 62.39592,38.5163 140.67166,48.9687 204.03135,27.2448 63.92723,-21.9183 65.58292,-22.3117 48.01537,-11.4071 -68.62975,42.6002 -191.82094,41.141 -251.49645,-2.979 -28.25018,-20.8863 -27.17732,-12.5854 7.23682,55.9928 l 31.81933,63.4074 50.20221,23.1703 c 27.61123,12.7436 83.33283,35.1531 123.82579,49.7989 82.39509,29.8012 103.03986,42.5806 57.73677,35.74 -28.74968,-4.3411 -114.76697,-35.7202 -177.7752,-64.8524 -18.48592,-8.547 -33.61077,-14.5293 -33.61077,-13.2941 0,3.8092 37.90346,86.8752 73.40453,160.8672 39.60006,82.5353 104.35966,248.1247 109.20775,279.2428 2.07042,13.2892 -2.49232,5.5792 -11.81204,-19.9597 -48.51248,-132.9392 -75.92113,-196.9684 -171.86542,-401.4936 -9.03619,-19.2626 -22.39719,-32.9891 -46.73684,-48.0154 C 247.50876,1156.4982 139.6366,972.40992 138.5557,813.81284 136.86706,566.0434 363.49986,232.36349 590.41024,148.5306 c 17.20231,-6.35546 54.32428,-20.90773 82.4933,-32.33838 192.15337,-77.973511 526.58276,-55.200882 736.23576,50.13323 237.532,119.34111 336.9214,487.63988 199.9883,741.07902 -61.2849,113.42743 -162.8086,242.95353 -228.558,291.59913 -18.6267,13.7812 -28.4417,27.5701 -36.2381,50.9105 -5.8808,17.6057 -33.5784,91.0692 -61.5503,163.2523 -27.9719,72.1831 -56.0753,145.6466 -62.4519,163.2523 -6.3767,17.6056 -21.7565,53.6172 -34.1774,80.0256 -22.6517,48.1607 -22.3625,57.9152 1.3408,45.2295 18.5479,-9.9264 45.5902,-8.5653 45.5902,2.2946 0,16.0466 -33.5283,49.6124 -61.5588,61.6277 -31.1999,13.3738 -47.9714,35.698 -29.6468,39.4621 12.1486,2.4955 -41.6271,29.6107 -85.3376,43.0296 -13.8167,4.2417 -30.9532,10.5312 -38.0811,13.9767 -7.1367,3.4498 -89.11921,7.0619 -182.45841,8.0392 -93.2243,0.9761 -175.26055,3.6052 -182.3028,5.8426 -7.04226,2.2373 -19.28618,1.3926 -27.20871,-1.8768 z m 42.43356,-12.1418 c 10.18765,-6.4527 4.23674,-19.8238 -8.8228,-19.8238 -10.98668,0 -18.08949,10.6541 -12.8041,19.2061 4.81742,7.7948 10.05936,7.9445 21.6269,0.6178 z m 415.31306,-36.0921 c 19.6956,-8.8096 33.6107,-19.156 33.6107,-24.9909 0,-12.1261 1.3139,-12.1116 -32.0102,-0.3541 -14.9699,5.2817 -31.3472,9.6031 -36.394,9.6031 -15.4842,0 -3.0229,-11.5661 17.2613,-16.0213 11.8633,-2.6056 19.1699,-8.2657 19.2307,-14.8972 0.084,-9.2446 0.9395,-9.3927 6.304,-1.0917 5.2562,8.1333 6.221,7.8223 6.3041,-2.032 0.16,-19.0932 -64.1393,8.6895 -72.8904,31.4943 -16.3287,42.552 -4.1558,46.3524 58.5838,18.2899 z m -361.71587,-7.1778 c -4.40141,-1.776 -11.60372,-1.776 -16.00513,0 -4.40141,1.7759 -0.80025,3.2291 8.00256,3.2291 8.80282,0 12.40398,-1.4531 8.00257,-3.2291 z m 8.00256,-14.9662 c 2.1762,-3.5212 -0.70463,-6.4021 -6.40205,-6.4021 -5.6973,0 -8.57823,2.8809 -6.40205,6.4021 2.1762,3.5211 5.05712,6.402 6.40205,6.402 1.34503,0 4.22587,-2.8809 6.40205,-6.402 z m 362.45241,-56.8114 35.9479,-20.2604 7.5742,-68.6984 c 14.7164,-133.4796 59.1335,-347.1877 72.1596,-347.1877 3.839,0 4.5846,4.6775 1.7858,11.2036 -18.6908,43.5833 -77.8969,398.5276 -66.476,398.5276 2.3724,0 10.8144,-15.1248 18.7598,-33.6108 7.9455,-18.4859 21.1047,-48.0153 29.2427,-65.621 20.0956,-43.4742 134.005,-338.5826 146.4569,-379.43 4.2704,-14.0087 3.2547,-13.8237 -29.2176,5.3227 -63.4014,37.3828 -144.0598,75.2879 -189.7118,89.1543 l -45.6686,13.8714 -3.2746,33.108 c -2.9512,29.8375 -19.2581,170.1987 -27.8334,239.5741 -2.293,18.5506 -0.9571,27.2088 4.1981,27.2088 28.0083,0 27.6288,65.2212 -0.5173,88.9566 -23.5037,19.8205 -26.8005,52.5879 -3.778,37.5504 7.9225,-5.1748 30.5812,-18.5259 50.3525,-29.6692 z m -303.36679,27.3352 c -2.1274,-2.1273 -7.64917,-2.3547 -12.27063,-0.5051 -5.10709,2.0437 -3.59013,3.5607 3.86794,3.8679 6.74878,0.2779 10.53003,-1.2352 8.40269,-3.3625 z m 327.63699,-12.8618 c -9.3024,-11.2087 -15.2422,-6.8275 -9.8378,7.2563 2.1707,5.6568 6.9879,8.4055 10.7049,6.1082 4.6411,-2.8684 4.3695,-7.0548 -0.8671,-13.3645 z m 51.4062,-8.4886 c 7.5881,-4.8015 7.7407,-7.5639 0.875,-15.8365 -10.0719,-12.1359 -19.6696,-7.5382 -19.6696,9.4225 0,13.6348 4.7964,15.2717 18.7946,6.414 z m -158.0391,-11.0318 c -4.4014,-1.776 -11.60372,-1.776 -16.00513,0 -4.40141,1.7759 -0.80025,3.2291 8.00253,3.2291 8.8028,0 12.404,-1.4531 8.0026,-3.2291 z m 173.9216,-10.8489 c -2.2202,-5.7857 -6.6338,-10.5194 -9.808,-10.5194 -3.1743,0 -2.2549,5.6308 2.0431,12.5129 9.062,14.5106 13.6464,13.3336 7.7649,-1.9934 z m 29.3435,-14.5043 c 0,-9.837 -16.4414,-12.07 -22.0502,-2.9949 -1.9798,3.2034 -1.8134,10.4792 0.3701,16.1686 4.6622,12.1494 21.6803,1.8087 21.6803,-13.1737 z m -161.7851,-6.2851 c -2.1274,-2.1273 -7.6492,-2.3547 -12.2707,-0.5051 -5.1071,2.0437 -3.5901,3.5607 3.868,3.8679 6.7487,0.2779 10.53,-1.2352 8.4027,-3.3625 z m -3.0058,-28.8785 c -3.0814,-11.7835 -4.2868,-12.1889 -9.3485,-3.144 -6.3419,11.3324 -1.0796,25.3027 7.5274,19.9834 2.9473,-1.8216 3.7668,-9.3993 1.821,-16.8394 z m -67.22505,-156.1337 c 0.2925,-36.4924 -1.04793,-45.6804 -4.66817,-31.9906 -6.69099,25.3023 -7.28786,121.1357 -0.6178,99.2122 2.68142,-8.8137 5.06018,-39.0634 5.28609,-67.2216 z m 13.81275,-64.7247 c 8.8988,-8.2638 -9.08695,-8.1477 -38.71832,0.2497 l -34.37177,9.741 35.21128,-3.7569 c 19.3662,-2.0663 36.41166,-4.8716 37.87881,-6.234 z m -346.80874,343.2336 c -6.26875,-25.4587 -23.353,-125.3372 -33.90551,-198.2199 -5.33367,-36.8377 -15.37497,-89.2138 -22.31395,-116.3912 -11.89097,-46.5724 -31.77423,-143.3817 -31.77664,-154.7169 -0.003,-14.6815 11.93113,5.0882 15.64411,25.9153 2.36096,13.2431 13.8486,65.8518 25.52818,116.9081 24.98354,109.2141 57.02664,305.9288 53.34066,327.462 l -2.57581,15.0477 z m 251.31148,-48.184 c 0,-1.4869 8.64276,-7.173 19.20615,-12.6355 10.56338,-5.4626 19.20615,-7.2589 19.20615,-3.9918 0,3.2671 -8.64277,8.9531 -19.20615,12.6356 -10.56339,3.6824 -19.20615,5.4787 -19.20615,3.9917 z m -196.1071,-51.5036 c -27.57863,-29.2419 -22.292,-88.1449 9.68482,-107.9076 3.45225,-2.1336 3.13112,-14.2003 -0.78885,-29.6437 -8.84007,-34.8273 -1.63513,-40.7858 32.90916,-27.2164 25.02907,9.8316 26.49086,11.5779 16.07056,19.1974 -7.91453,5.7873 -8.7479,8.382 -2.692,8.382 4.82406,0 -4.62024,12.8311 -20.98734,28.5135 -45.69553,43.784 -47.93477,82.8692 -6.2498,109.0899 23.91037,15.0402 26.30768,22.4479 7.26472,22.4479 -7.50678,0 -23.35185,-10.2884 -35.21127,-22.863 z m 63.33952,-8.67 c -34.04444,-14.9857 -33.39087,-44.9658 1.26241,-57.9078 35.17792,-13.138 40.28434,-13.3649 44.28798,-1.9681 2.1993,6.2607 5.51344,14.4924 7.3648,18.2925 9.32642,19.1444 -31.32235,51.0881 -52.91519,41.5833 z m 22.46556,-33.6879 c -3.95691,-11.8708 -17.739,-13.8397 -17.739,-2.5342 0,5.5751 4.56146,10.1366 10.13656,10.1366 5.57517,0 8.99622,-3.4211 7.60244,-7.6024 z m 135.58851,-24.2459 c 27.68151,-24.1084 12.03604,-52.2205 -19.37734,-34.8176 -24.38785,13.5108 -30.66294,10.4304 -7.50967,-3.6865 26.14758,-15.9424 27.30999,-22.9681 1.60052,-9.6732 -10.56339,5.4625 -19.20615,7.1711 -19.20615,3.7968 0,-3.3742 5.45076,-7.865 12.11285,-9.9795 10.54476,-3.3468 19.5328,-20.4352 19.81001,-37.6636 0.052,-2.9886 -10.16052,0.6126 -22.68575,8.0026 -27.18816,16.0414 -32.9112,16.931 -21.65287,3.3655 8.97777,-10.8176 52.51288,-34.7433 63.21864,-34.7433 4.06581,0 4.484,5.3924 1.11716,14.4046 -5.91505,15.8324 -3.35609,24.9849 14.23194,50.9029 15.43252,22.7417 9.49654,39.3338 -20.02093,55.9618 l -23.72382,13.3642 z m -102.11111,-0.1619 c 0,-7.0423 2.88092,-12.8041 6.40205,-12.8041 3.52112,0 6.40205,5.7618 6.40205,12.8041 0,7.0422 -2.88093,12.8041 -6.40205,12.8041 -3.52113,0 -6.40205,-5.7619 -6.40205,-12.8041 z m 76.82462,-18.296 c 0,-6.5798 19.39102,-15.6635 23.87176,-11.1827 1.5583,1.5581 -3.17554,6.0488 -10.51933,9.979 -7.34853,3.9328 -13.35243,4.474 -13.35243,1.2036 z m -124.17483,-58.0027 c 8.9319,-9.6281 60.71104,-25.2098 71.35789,-21.4734 15.96768,5.6035 7.40828,12.9594 -19.20615,16.5055 -14.96479,1.9938 -34.41102,5.6414 -43.21383,8.1056 -12.20153,3.4156 -14.32561,2.6699 -8.93791,-3.1377 z M 692.267,1539.6069 c -5.6171,-17.0149 -28.96654,-145.0582 -28.96654,-158.8464 0,-38.0943 19.20571,39.8291 34.41699,139.6402 3.87003,25.3938 0.50576,37.2485 -5.45045,19.2062 z m -2.57388,-161.6518 c -0.52757,-7.0422 -2.44169,-20.0064 -4.25347,-28.8092 l -3.29423,-16.0051 6.85749,15.7052 c 3.77163,8.6379 5.68567,21.602 4.25345,28.8093 -2.53688,12.766 -2.62874,12.7737 -3.56324,0.2997 z m -12.57773,-67.2215 c 0,-8.8028 1.45306,-12.404 3.22913,-8.0026 1.77597,4.4015 1.77597,11.6038 0,16.0052 -1.77597,4.4014 -3.22913,0.8002 -3.22913,-8.0026 z m -6.90743,-35.7448 c 0.30729,-7.458 1.82418,-8.975 3.86786,-3.8679 1.84939,4.6215 1.62191,10.1432 -0.50517,12.2706 -2.1274,2.1274 -3.64044,-1.6539 -3.36247,-8.4027 z m -15.92856,-73.672 c -6.41408,-31.7315 -10.42734,-58.9283 -8.9183,-60.4373 1.50908,-1.509 8.01031,23.1997 14.44737,54.9082 6.437,31.7086 10.4502,58.9053 8.91825,60.4373 -1.53189,1.5318 -8.03323,-23.1768 -14.44732,-54.9082 z m 112.16059,-12.4602 c -49.00833,-14.4527 -124.4319,-63.7824 -97.52135,-63.7824 3.95225,0 7.18592,2.9522 7.18592,6.5605 0,3.6082 7.82811,9.5367 17.39586,13.1744 9.56772,3.6376 21.34597,9.8922 26.17394,13.8991 18.04674,14.9774 76.53947,31.0396 126.4152,34.7138 56.63695,4.1723 68.57916,0.491 146.9165,-45.2892 21.12674,-12.3464 42.66394,-22.5854 47.86034,-22.7533 10.3226,-0.3335 -79.46912,52.6009 -114.26318,67.3611 -30.12991,12.7815 -110.23882,10.8389 -160.16323,-3.884 z m 46.44221,-379.0834 -12.9349,-40.01281 -13.22477,25.6082 c -27.80591,53.84296 -59.40157,49.73811 -59.40157,-7.71741 0,-16.38299 -15.50672,-5.04143 -30.88937,22.59231 -15.20442,27.31353 -25.16613,31.27166 -57.13881,22.70327 -14.95507,-4.00774 -22.27786,-47.18124 -8.00257,-47.18124 3.52113,0 6.40205,-3.4751 6.40205,-7.72248 0,-4.24732 15.12485,-38.89769 33.61077,-77.00071 l 33.61076,-69.27829 25.6082,1.77657 c 24.65283,1.71035 25.98926,2.97083 35.82275,33.7869 l 10.21453,32.01025 13.76921,-22.40717 c 7.57311,-12.32395 13.78003,-24.56787 13.79316,-27.20872 0.0128,-2.64084 11.34103,-4.80153 25.17298,-4.80153 h 25.14911 l 7.42522,36.81178 c 16.51345,81.86782 20.63453,97.82327 26.14655,101.22986 17.71814,10.95039 5.43234,41.98996 -21.44995,54.19227 -38.48066,17.46712 -39.32451,17.0367 -53.68335,-27.38105 z m 49.85033,17.1048 c 14.93604,-7.72375 18.8025,-13.37924 16.41313,-24.00769 -1.71915,-7.64704 -7.77863,-32.62976 -13.46557,-55.51709 -5.68694,-22.88733 -11.90601,-52.41679 -13.82011,-65.62102 -5.97125,-41.19133 -32.87894,-34.35352 -57.09854,14.50993 -19.05492,38.44361 -29.02817,47.81991 -29.02817,27.29086 0,-88.34135 -36.71608,-103.25591 -76.54958,-31.0954 -23.00134,41.66818 -54.44021,118.723 -49.9075,122.32037 23.82523,18.90898 28.91198,16.12516 59.13172,-32.3603 34.14603,-54.7851 38.96857,-55.4714 43.06051,-6.1281 4.54147,54.76473 12.48021,55.11965 40.54962,1.81298 l 24.60864,-46.73445 12.54156,52.81691 c 13.53751,57.0111 14.35839,57.81596 43.56429,42.713 z m 70.38625,14.42818 c -6.77779,-8.16677 -13.75276,-54.28816 -22.17658,-146.64152 -4.1989,-46.03392 0.026,-48.47564 87.99926,-50.86842 l 76.35804,-2.07685 4.72,17.62653 c 6.2588,23.37252 -12.4721,36.75653 -51.6262,36.88891 -32.06131,0.10803 -48.97489,7.48157 -42.22311,18.40621 2.7511,4.45135 13.79476,5.63066 29.38431,3.13779 35.6942,-5.70775 44.8187,-0.74744 38.992,21.19692 -4.1088,15.47434 -8.6611,18.4267 -32.6602,21.18157 -30.62032,3.51492 -37.95567,12.41715 -22.75592,27.6169 7.66732,7.66741 14.57282,8.5559 30.65332,3.94412 49.1402,-14.09323 77.5465,9.37214 52.6172,43.46504 -10.7909,14.75745 -137.79294,19.96639 -149.28212,6.1228 z m 125.50832,-8.35942 c 32.8107,-8.79289 18.491,-36.48642 -16.0052,-30.95313 -55.9323,8.97184 -55.81066,9.01421 -57.94587,-20.19732 -2.04641,-27.99783 5.44475,-34.13419 41.94077,-34.35571 8.8765,-0.052 14.4046,-4.0034 14.4046,-10.29123 0,-8.52541 -5.1217,-9.49942 -31.1378,-5.92126 -28.87178,3.97087 -31.42794,3.19925 -35.1239,-10.60281 -7.41922,-27.70635 -5.1904,-29.55699 42.254,-35.08528 42.2858,-4.92721 46.6079,-6.77415 48.5849,-20.76119 2.0947,-14.81936 1.118,-15.20869 -28.1022,-11.20358 -16.6497,2.28209 -48.59623,4.14927 -70.99209,4.14927 h -40.71977 v 57.30335 c 0,31.51683 3.11963,71.84974 6.93252,89.6287 l 6.93258,32.32535 52.28638,-0.088 c 28.75758,-0.052 58.76848,-1.82459 66.69108,-3.94777 z M 679.39368,574.64039 c -2.35844,-3.81608 -2.20921,-20.53411 0.33162,-37.15117 2.54106,-16.61709 7.80744,-57.58164 11.70321,-91.03235 l 7.08323,-60.81948 25.6082,1.92202 c 14.30584,1.07374 29.14021,6.55854 33.61076,12.42721 7.00911,9.20107 8.00257,9.26845 8.00257,0.54278 0,-10.82707 157.56445,-21.90312 168.46272,-11.84215 13.52683,12.4876 -5.64181,48.16648 -25.87767,48.16648 -27.18808,0 -27.05026,-0.3227 -29.72067,69.59405 -2.71301,71.03312 -1.97064,69.50391 -34.22338,70.50167 l -24.22358,0.74944 0.13204,-35.21127 c 0.072,-19.36621 2.44917,-52.64086 5.28157,-73.94368 5.01177,-37.69483 4.75103,-38.74081 -9.73489,-39.04571 -8.1865,-0.17205 -24.75801,-1.46867 -36.82556,-2.88092 -26.65059,-3.11876 -30.31402,6.03493 -37.40577,93.46313 l -4.67376,57.61845 -26.62112,1.93982 c -14.64163,1.06694 -28.55079,-1.18238 -30.90924,-4.9984 z m 47.93607,-33.75329 c 0.005,-14.96479 4.29199,-51.54764 9.52707,-81.29525 7.51659,-42.71154 7.85135,-55.14532 1.59191,-59.12093 -7.51473,-4.77277 -30.33382,-7.3204 -30.33382,-3.38662 0,1.01412 -4.29833,36.30542 -9.55191,78.42511 -12.27523,98.41475 -12.87651,92.58641 9.55191,92.58641 18.32607,0 19.20654,-1.2468 19.21494,-27.20872 z m 140.88389,-50.02866 8.15897,-70.83532 23.10544,2.0112 c 20.1073,1.75017 23.38291,0.052 25.24349,-13.09539 l 2.13802,-15.1066 -72.56057,2.30458 c -77.60708,2.46487 -105.1131,12.87647 -48.37173,18.30971 l 33.42958,3.20102 -0.68902,22.40718 c -0.37892,12.32394 -2.96243,44.73432 -5.74098,72.02306 l -5.05192,49.61589 h 16.08984 c 15.72399,0 16.27529,-1.61052 24.24884,-70.83533 z M 1015.4132,557.166 c -55.0914,-10.67452 -42.24319,-64.35155 13.2782,-55.47333 33.2954,5.32415 49.8843,-6.48818 33.9065,-24.14349 -5.9163,-6.53739 -16.0058,-11.88616 -22.4211,-11.88616 -15.614,0 -33.3249,-27.92575 -28.1171,-44.33388 11.7985,-37.17374 57.1295,-48.1047 103.4846,-24.95387 37.2355,18.59627 33.8927,58.162 -4.075,48.23322 -15.5981,-4.07898 -10.6856,6.01265 11.4883,23.60044 19.0198,15.08601 15.5297,42.99063 -8.516,68.0889 -8.7896,9.17434 -14.689,17.97256 -13.11,19.55162 4.0113,4.01135 -66.439,5.09087 -85.9184,1.31663 z m 85.2339,-23.7358 c 22.6305,-20.97318 29.4311,-48.88898 14.0898,-57.83662 -44.5293,-25.97128 -54.3277,-72.22957 -10.3096,-48.67179 13.8872,7.43222 26.2228,4.438 26.2228,-6.36504 0,-22.37718 -76.9992,-31.46533 -95.7813,-11.305 -18.7042,20.07653 -16.4748,27.66504 14.1552,48.18235 49.8455,33.38877 35.6973,67.86741 -23.307,56.79815 -18.4065,-3.45309 -39.02414,10.23153 -28.06011,18.62444 28.08991,21.50271 80.09481,21.7923 102.99021,0.57359 z M 958.75829,406.44727 c -11.52287,-11.52287 18.78412,-68.63701 35.67951,-67.23871 17.0709,1.41286 27.1859,26.7741 15.385,38.5749 -3.9675,3.96755 -7.2137,12.39939 -7.2137,18.73741 0,6.33803 -2.1607,11.76377 -4.8015,12.05721 -2.64085,0.29349 -11.19541,1.24599 -19.01013,2.11667 -7.81466,0.87068 -16.83233,-1.04073 -20.03918,-4.24748 z m 36.74585,-24.7463 c 6.90236,-19.80022 4.90256,-31.27486 -5.45064,-31.27486 -7.07037,0 -20.32779,38.22214 -15.79912,45.54975 6.64765,10.75606 14.32082,5.60147 21.24976,-14.27489 z"
         id="path1778"
         sodipodi:nodetypes="ssssssssssscsssscssscssccsssssssssscscccsssscssccsscsssssscssssssscsssccssssssssssssssssssssssscssscssssssscsssssssssssssssssssssscsssssssssssssssssssssssscsssscsssssssscssscsssscssssscsssssssssssssssssssscccccccssscssssssssssssssssscsscccccssssssssssscsssssscssssssssscscsscscssscssssssscsssssssssssssssssssssssssssssssssssssssscscssssssssssssccssssssssscsssssscsssssssssssssssssssssssscssssssssssssssssscscsccssssssscsssssssssssssssssssssssssssssssscsssssscsssssssssssssssssssssscssssssssssssssssssssssssssssscssssssscsscscscssssssssssssssscssssscscsssssssscsscssssssscssccccccscsssssssccscsscsccssssssssccsscsscsscsscsssssssssssssssssssssscssssscssss" />
    </g>
  </g>
</svg>
