<?xml version="1.0" encoding="UTF-8" standalone="no"?>
<svg
   xmlns:dc="http://purl.org/dc/elements/1.1/"
   xmlns:cc="http://creativecommons.org/ns#"
   xmlns:rdf="http://www.w3.org/1999/02/22-rdf-syntax-ns#"
   xmlns:svg="http://www.w3.org/2000/svg"
   xmlns="http://www.w3.org/2000/svg"
   xmlns:sodipodi="http://sodipodi.sourceforge.net/DTD/sodipodi-0.dtd"
   xmlns:inkscape="http://www.inkscape.org/namespaces/inkscape"
   version="1.1"
   id="svg94"
   width="1000"
   height="923"
   viewBox="0 0 1000 923"
   sodipodi:docname="likebooth.svg"
   inkscape:version="1.0 (4035a4fb49, 2020-05-01)">
  <metadata
     id="metadata100">
    <rdf:RDF>
      <cc:Work
         rdf:about="">
        <dc:format>image/svg+xml</dc:format>
        <dc:type
           rdf:resource="http://purl.org/dc/dcmitype/StillImage" />
        <dc:title></dc:title>
      </cc:Work>
    </rdf:RDF>
  </metadata>
  <defs
     id="defs98" />
  <sodipodi:namedview
     inkscape:document-rotation="0"
     pagecolor="#ffffff"
     bordercolor="#666666"
     borderopacity="1"
     objecttolerance="10"
     gridtolerance="10"
     guidetolerance="10"
     inkscape:pageopacity="0"
     inkscape:pageshadow="2"
     inkscape:window-width="1898"
     inkscape:window-height="1034"
     id="namedview96"
     showgrid="false"
     inkscape:zoom="0.43203766"
     inkscape:cx="494.28912"
     inkscape:cy="335.81376"
     inkscape:window-x="10"
     inkscape:window-y="34"
     inkscape:window-maximized="0"
     inkscape:current-layer="layer1" />
  <g
     inkscape:groupmode="layer"
     id="layer1"
     inkscape:label="Image 1" />
  <g
     inkscape:groupmode="layer"
     inkscape:label="Image"
     id="g102">
    <path
       style="fill:#000000"
       d="m 553.5,912.30264 c -9.49798,-19.94268 -18.72068,-4.14641 -27.59034,-7.85847 -1.9177,-1.18521 -1.05792,-12.29445 1.03834,-13.41634 1.47744,-0.7907 2.02094,-2.30892 2.25,-6.28518 0.50828,-8.82364 18.802,1.12496 18.802,10.22502 0,4.4399 7.38946,9.59515 11.50868,8.02903 2.24017,-0.85171 2.49132,-1.50415 2.49132,-6.47195 -0.81151,-5.10372 7.94533,-14.7569 8,-18.53322 0,-3.72981 0.41893,-3.72644 4.17901,0.0336 3.20225,3.20224 3.39435,7.97483 0.32099,7.97483 -1.54551,5.23354 -8.98264,38.56672 -21,26.30264 z m -293.70318,-4.31247 c -1.33516,-1.21022 -12.46247,-9.93675 -13.96998,-9.99017 -0.93064,0 -1.97771,0.9 -2.32684,2 -1.40151,4.41576 -6.15859,1.98727 -7.05204,-3.60006 -0.58114,-3.63425 -0.37306,-4.21899 2.07119,-5.82053 2.41202,-1.58042 2.6562,-2.23544 2.17385,-5.83163 -1.10674,-8.25132 4.25147,-10.99226 9.92102,-5.075 14.65383,20.66709 26.35226,16.03032 26.38598,-1.27132 0,-7.52818 0,-7.52818 3.25,-7.21482 6.60155,19.40774 -10.06282,46.8332 -20.45318,36.80353 z m 300.48319,6.16136 -4.29109,-5.94554 c 19.12317,-5.65392 61.61233,-21.64366 72.26196,-8.87157 2.28264,3.43786 20.19217,9.44523 22.38549,6.09779 14.02131,-10.8458 20.83944,-2.50617 31.15206,-2.43221 12.87126,0 34.39436,2.58822 30.85977,7.98269 -2.47235,3.77328 -31.97529,4.29585 -36.43241,0.54542 -7.27538,-6.12183 -18.34315,-4.12659 -23.96011,2.17746 -13.84805,7.63669 -26.07196,-11.87215 -37.09977,-3.45832 -4.06881,3.20053 -8.49591,-0.90021 -15.61823,-1.38692 -29.81655,-2.03753 -39.25767,5.2912 -39.25767,5.2912 z M 96.919686,906.03034 C 92.5,902.06068 92.5,902.06068 73.891849,902.12674 c -18.68937,0.0663 -46.243206,1.0964 -46.243206,-3.37145 0,-3.81133 3.595391,-12.40935 4.689326,-8.96267 C 32.916417,891.61515 62.013034,895 71.032204,895 79.906177,895 81.040315,894.79319 82,893 c 2.179327,-4.07211 12.754709,-2.82795 17,2 16.41523,11.29073 28.97845,-3.98017 41.47329,-4 7.43289,0 8.58589,0.24206 9.52671,2 9.40745,6.78227 34.86754,-8.07354 40.7474,-0.0329 1.08438,1.73636 2.54969,2.00032 12.49055,2.25 13.06327,0.3281 44.38244,-1.46818 38.46394,4.45032 -4.03821,4.03821 -36.8041,7.20211 -42.37157,2.63999 -16.02162,1.53225 -37.93907,-4.25782 -54.76023,-3.01232 -15.11053,1.20742 -35.94244,16.47015 -47.650404,6.73525 z m 241.869834,0.66077 c -28.73171,-8.573 -25.06349,-8.15406 -0.23625,-14.75228 13.5192,3.45829 35.80098,0.94253 44.16411,0.92403 10.66376,-6.55498 18.80671,1.91507 25.78262,2.13714 6.03788,-1.54281 24.23403,-7.17589 26,-2 13.21912,16.61508 40.96886,-9.20823 52.48256,3.9674 0.9359,1.74875 18.43442,-9.41196 28.41823,-9.16079 10.13606,0.25501 20.05499,13.48268 14.49726,14.553 -1.05848,0.20384 -24.46445,0.72735 -25.77853,1.76101 -3.62695,2.85296 -29.34671,3.88564 -31.95743,1.00082 -25.35745,-5.60837 -51.77778,8.21557 -65.72325,-0.51321 -6.85018,-5.38836 -26.21049,-5.83016 -33.24554,3.6339 -2.62451,3.53068 -31.10736,2.36655 -34.40378,-1.55102 z m -11.57713,-4.0516 c -14.59493,10.51455 -52.38009,-0.66573 -51.91296,-2.52691 32.6324,-4.06061 41.86024,-5.17001 51.91296,2.52691 z m 385.43581,8.34318 c -0.56054,-15.64152 60.2305,-30.02849 65.7878,-29.97561 1.90565,0 -2.436,2.43377 -2.436,2.9726 -11.35607,4.08494 -28.71733,10.25561 -38.90048,17.03852 -5.02516,3.40509 -22.10924,11.67706 -24.45132,9.96449 z m -3.97053,-11.63836 C 708.60667,898.82204 708,896.0575 708,892.86852 c 0.83249,-105.76113 -0.002,-227.2325 0,-302.68146 0,-124.73716 0.0584,-128.79263 1.87882,-130.35127 1.03335,-0.88478 2.07241,-2.18947 2.30901,-2.89929 1.15176,-3.45527 2.81217,0.72937 2.81217,7.08733 -0.24419,104.22651 -0.008,184.44707 -0.0153,254.76135 -0.008,97.74315 -0.6169,190.70785 -1.02098,191.32122 -0.9513,1.44403 -3.50744,2.32141 -3.67424,1.09445 z M 777,881.40638 c 0,-0.87649 0.9,-1.82897 2,-2.11663 1.1,-0.28766 2,-0.93605 2,-1.44086 C 781,872.51796 795.40013,863 803.46552,863 c 13.93337,0 12.87673,9.05589 -1.19826,10.26971 -4.64107,0.40024 -7.56617,1.35797 -11.45421,3.75031 C 786.53891,879.64992 779.0103,883 777.37427,883 777.16842,883 777,882.28287 777,881.40638 Z M 28.111226,898.88893 C 26.634099,895.29389 29.251791,875.153 27.00772,869.71796 21.495885,855.9967 23.161335,424.05759 28.490413,419.47325 98.671601,385.7211 145.75925,386.66642 175,381 c 139.32447,5.2167 323.60699,-1.87976 411.20258,-6 111.43463,0 94.42077,-1.09038 103.35144,-1.05433 2.69888,-6.33902 3.16815,-23.03097 7.5436,-35.58434 1.5269,-4.38078 2.90971,-2.05426 5.5781,-3.98161 -1.07061,29.67076 -0.55949,33.4282 3.93052,39.34269 75.33581,-2.08026 203.27412,-5.91251 266.99957,-9.19974 5.05834,-3.31435 13.59365,4.37077 13.85773,12.47737 0.0806,2.475 0.85369,5.625 1.71792,7 1.97254,3.1383 1.64859,15.99984 -0.60158,23.88465 -1.32783,4.65284 -1.53623,16.8846 -1.53337,90 0.007,185.71977 3.38276,294.94027 -11.39466,289.12834 12.22424,-13.65794 3.49049,-169.67285 2.37982,-200.82789 -0.28796,-39.60026 2.06629,-39.50673 2.01803,-90.01342 -0.0841,-88.00358 -1.58595,-86.84916 0.36715,-87.89444 2.72038,-1.4559 4.68785,-29.63934 2.00134,-30.67025 -3.12578,-1.19948 -5.40099,-0.56291 -7.06498,1.97667 -1.69288,2.58366 -1.69288,2.58366 -14.50906,2.25751 -12.32635,-0.31369 -12.87621,-0.24045 -14.38688,1.91634 -1.42743,2.03795 -2.38322,2.24249 -10.47881,2.24249 -43.86648,8.74999 -85.30569,14.45954 -215.60906,35.70275 61.05625,-17.7274 154.6266,-28.95383 213.3849,-42.91673 9.86191,-0.29012 13.33505,-2.1696 9.09407,-4.92123 -3.06506,-1.98867 -41.86842,1.38962 -44.78511,1.29766 -28.61356,-0.90213 -19.19435,0.30643 -58.74004,1.87071 -57.15101,0.30946 -94.23692,3.2306 -125.94671,3.13521 -94.94984,5.78607 -204.23891,5.71371 -264.94311,5.79434 -91.34597,1.56337 -193.94437,1.39114 -272.80611,1.21771 -4.40851,-3.33526 -118.626686,8.78453 -105.783857,32.95176 6.33717,11.92508 -35.452702,5.81075 -36.887815,10.86778 -1.31487,4.63331 1.63068,6.02112 3.740783,6.69084 C 42.938893,441.25469 34.490022,439.4081 34,455.5 c -0.404824,47.33165 -8.609073,250.98629 0.03648,407.01158 1.89625,3.15391 2.416233,34.78514 -1.176738,35.20415 -1.395583,0.16275 -4.3566,1.56507 -4.748516,1.1732 z M 734.25,866.03651 C 731.66361,741.99744 736.12586,673.79402 736.2467,604.21658 736.5,456.5 736.5,456.5 739.75,456.18664 c 5.46369,123.13103 -0.7485,209.07457 -0.75,273.82183 0,148.31574 0.2095,142.31631 -4.75,136.02804 z m 76.20844,0.88576 c 0,-3.05436 7.98821,-11.92926 9.54156,-12.42227 -3.96376,-103.77577 7.52015,-286.31063 9.43977,-429.82848 C 834.45017,562.10169 816.04552,699.86187 833,830 c 3.61111,12.26214 12.46014,29.07276 13,10.33899 0,-4.68523 0.30437,-5.60582 2,-6.04924 1.49403,-0.3907 2,-1.36402 2,-3.84736 0,-4.43847 1.33592,-5.01556 4.43543,-1.91605 3.08755,3.08754 3.20435,4.07309 0.56457,4.76341 -1.7617,0.46069 -2,1.36401 -2,7.58145 0,6.03498 -0.29,7.21363 -2,8.1288 -1.1,0.5887 15.04249,-7.41278 15.04249,-6.64933 0,3.85435 -21.93233,16.51853 -25.77356,15.45792 -6.03955,-1.6676 -13.5777,-0.56801 -17.24172,2.51506 -4.25443,3.57987 -12.56877,11.24163 -12.56877,6.59862 z M 761,450.99153 c 6.31988,140.23421 3.98211,218.45978 -0.74995,397.82188 C 757.89493,697.21483 759.53058,610.67624 761,450.99153 Z m 98,393.0224 c 0,-0.59219 0.65787,-1.32915 1.46193,-1.6377 0.80407,-0.30854 1.73439,-1.41942 2.06739,-2.46861 24.33634,-18.80858 47.74731,-12.03987 38.83512,-5.79989 -10.57596,-6.12267 -33.30678,16.23865 -42.36444,9.9062 z M 224.5719,755.19492 c 4.28453,-1.155 8.80678,-0.61941 10.334,3.3599 -4.71745,28.31507 -6.74125,48.54566 -3.00265,63.11104 45.6708,-5.16511 42.70492,-4.68881 44.1274,-1.06709 1.60886,7.18843 1.52577,8.17441 -13.7354,10.03724 -39.30279,4.79742 -38.57204,4.38547 -40.95266,4.21703 -3.86355,-38.91276 -0.37581,-50.63826 3.22931,-79.65812 z m 69.09477,77.13841 c -2.65171,-2.6517 -0.53709,-57.61676 2.32681,-60.48066 6.90354,-6.90354 9.09153,-5.46472 9.37407,20.56862 0.44659,14.22289 -1.19403,26.53572 -1.36755,37.44338 0,3.06961 -7.85565,4.94634 -10.33333,2.46866 z m 48.25313,-2.31987 c -4.47669,-9.54062 -4.53294,-10.32182 -5.82234,-16.62073 -0.68697,-9.76405 -1.25504,-9.15532 -1.26537,-16.74749 0.41791,-11.43475 0.14362,-11.31 1.56192,-18.29485 3.59302,-15.89973 3.79944,-16.44089 5.60599,-23.13882 5.61298,-12.22384 5.25755,-11.422 8.41019,-10.21157 5.36435,2.05961 4.54959,1.59171 1.54079,14.92551 -1.45305,5.04106 -3.31529,10.36316 -3.60086,22.79708 7.90829,5.00432 21.3307,-9.37045 23.92525,-11.14844 31.38162,-17.69841 28.48365,-14.29982 28.9892,-9.88708 0.11657,3.97474 0.79674,1.56986 -15.30948,10.35076 -13.28032,7.94903 -11.80143,5.84291 -19.69106,12.61138 -7.65276,5.80031 -12.40021,6.81787 0.55717,11.10767 28.65357,15.87375 16.8455,12.5983 39.52208,26.96363 4.63765,2.9379 4.00006,4.04606 0.57523,7.32725 -2.89039,2.76917 -3.39881,2.91683 -5.88489,-0.29922 -30.84242,-22.13745 -34.04866,-31.65518 -52.60223,-31.15963 -3.96746,0.10597 -4.71981,4.33831 1.51073,21.0151 2.74093,7.33642 4.15021,6.92817 0.1348,10.47291 -4.35268,3.84247 -5.60546,5.37457 -8.15712,-0.0635 z m 439.74687,2.31987 c 3.8663,-71.80335 7.40692,-350.27374 5.08336,-392.13559 -4.83572,19.4272 -3.83695,330.33403 -5.08333,392.13559 z m 119.09542,-1.06262 c 10.30465,-22.45979 45.65274,-20.8707 58.97756,-35.68629 1.13955,-1.3106 17.16208,-10.84621 19.81242,-10.8464 1.90075,-1.3e-4 -9.44749,9.17966 -8.55207,9.9892 -13.3238,12.53726 -39.28599,21.0419 -51.02228,30.29042 -4.03645,3.19693 -19.21563,8.27141 -19.21563,6.25307 z M 413.81768,798.0094 c 6.55163,-29.27932 64.68639,-43.9286 65.18232,-19.33308 0.0484,18.46792 -37.19271,15.27835 -48.91826,20.17096 -3.11758,28.86322 46.88247,25.18806 58.17429,8.90272 1.49997,-2.25 1.49997,-2.25 4.25802,0.49969 -9.97349,18.67658 -27.67096,20.74529 -41.48185,20.75031 -19.99988,0.81614 -40.28957,-17.27228 -37.21452,-30.9906 z m 53.6792,-17.39271 c 4.56696,-12.16202 -11.11839,-9.16707 -20.9176,-4.34839 -26.52514,15.33377 -13.46017,12.35436 -5.85222,12.92153 16.45924,-1.1611 22.80909,-0.55682 26.76982,-8.57314 z m 332.23098,32.90888 c -4.74062,-94.75731 0.38638,-202.68805 3.09692,-385.32086 5.05957,167.19482 -0.3104,295.09005 -3.09722,385.32086 z m 50.3466,-359.71529 c 0.0802,-26.27545 0.35539,-27.76079 4.87755,-26.32551 2.00796,121.15773 -5.92765,242.83927 -5.952,351.05041 C 849,800.50391 848.79406,804 847.5,804 c -7.65875,-99.92186 2.22625,-245.31168 2.57446,-350.18972 z m 16.44059,341.21407 c -1.38403,-2.23941 0.55849,-163.35132 1.98312,-164.4792 1.0721,-0.84878 1.40902,-19.90326 1.79317,-101.41332 0.47957,-101.75473 0.49215,-102.1012 3.70866,-102.1012 1.90964,72.42531 -0.25871,126.37817 -0.46118,172.20765 3.5841,53.19714 -4.60241,128.30445 -4.48864,159.52439 0.13026,34.54232 -0.24859,39.96133 -2.5351,36.26168 z M 887,781.09181 c -0.67617,-42.99951 -1.0338,-48.21793 0,-69.59181 0.90609,-63.98589 -0.002,-69.6591 0,-125.78623 5.27774,-18.23513 2.22008,-155.87269 2.01331,-163.05963 3.21109,-3.10672 3.24837,-3.24289 6.6464,-0.0937 -0.55318,34.8331 -4.68181,129.61425 -3.65018,154.43238 -1.99807,1.50715 -2.0204,2.53236 -2.26375,103.93137 -0.19407,80.86287 -0.50877,102.49687 -1.49578,102.82585 -0.81932,0.27309 -1.25,-0.64279 -1.25,-2.65822 z M 289.66667,759.33333 c -5.73834,-7.24321 3.20095,-10.92922 7.75641,-10.33333 4.55638,0.59602 4.56941,3.43738 4.56941,5.53994 0,4.59427 -6.90719,11.63304 -12.32582,4.79339 z m -16.5356,-47.29245 c -3.53498,2.46264 -20.48743,-6.12212 -18.81717,-12.68005 1.33351,-7.68075 11.43749,1.29387 16.43549,5.21681 51.17235,5.90684 56.99858,11.3629 133.30805,22.92041 44.70417,4.61969 45.06876,-0.95357 51.0138,-24.76046 -0.34838,-15.93094 23.00439,-3.62504 26.70459,-22.84014 2.64128,-12.31752 -2.89152,-13.1697 -6.82179,-23.43036 16.08183,-1.90605 55.16051,-25.81918 18.66993,-49.45448 -8.86538,-3.51194 -5.93157,-4.2352 -4.27967,-7.32179 4.90759,-1.83306 16.60531,-4.21365 21.47499,-6.42952 21.20433,-10.57489 23.40855,-14.82146 18.36043,-29.50256 -3.42601,-9.96365 -26.82141,-19.28704 -40.74972,-15.14705 -41.89924,5.45608 -86.51765,22.33987 -86.43469,-2.4136 11.38224,-21.82552 8.3896,-24.82415 6.83713,-42.84915 -4.16306,-40.54697 -12.3477,-49.96041 -30.53943,-45.63752 -18.02898,4.28421 -21.61949,21.20802 -17.05836,39.74638 4.09311,16.63617 -32.69719,22.13087 -57.49026,32.44106 -19.19486,7.98217 -26.97673,29.29228 -37.71223,34.05253 -18.93182,10.89531 -13.51738,-1.3602 -14.34238,-1.3602 -1.11244,0 -8.31933,2.64148 8.12008,-5.88969 10.73606,-6.9898 10.9244,-20.95595 46.17158,-32.88232 15.22386,-5.15121 46.02386,-17.64797 45.72332,-28.53741 -9.54017,-55.32871 62.61479,-71.74936 65.46631,-13.11616 3.10756,10.73216 1.20582,35.91294 10.13236,52.42257 7.28585,12.68065 40.14591,6.2615 71.42365,2.77724 31.1873,-4.36233 72.97288,46.01305 28.99388,58.95101 -22.72305,6.92178 -18.39928,11.17027 -7.30231,19.04373 22.23821,16.26823 10.22536,48.4238 -24.27121,49.49478 14.60591,24.44065 -0.84901,43.83703 -26.73565,44.50766 -10.0926,47.52036 -89.6662,25.09088 -112.83765,22.60609 -49.68332,-8.8726 -48.51925,-16.563 -83.44307,-19.92781 z m 631.14498,30.28078 C 907.74989,674.09332 902.99812,642.19116 903,591.55891 c 1.43582,-72.8302 1.65856,-111.56367 4,-160.56738 0,-1.99247 0.50094,-2.99153 1.5,-2.99153 -1.07709,79.58668 3.65218,248.57433 0.44306,296.38039 -2.76267,40.91679 1.05157,58.72162 -6.04476,64.09798 z M 187.98201,713.75 c -0.91292,-63.43568 0.3561,-143.36059 2.03583,-156.47505 3.16899,-7.08079 -0.51328,-8.42749 17.09846,-5.38049 1.88217,2.02027 2.88139,2.10624 24.67266,2.12282 29.37723,0.0223 27.69809,-1.20421 27.31805,19.95504 1.35252,65.33964 2.33316,66.99797 -0.0358,114.91551 C 259.28452,708.90524 258.33251,711 249.02193,711 c -17.29107,9.77267 -34.53032,0.0624 -52.14585,0 -4.80181,0 -5.72077,0.29808 -6.16583,2 -0.57075,2.18255 -2.6992,2.76767 -2.72824,0.75 z M 249.75,700.63299 c 3.25,-3.34571 3.25,-3.34571 3.25,-66.60448 0,-73.47787 -1.26175,-74.09352 -17.0919,-73.22349 -11.77616,-1.36046 -13.80982,-1.12312 -22.57063,-1.71006 C 192.96364,557.68721 195.47319,551.62798 194,632.4 c -1.27542,69.92866 -0.1788,67.6 5.16482,67.6 10.6571,4.03037 42.74715,6.6095 50.58518,0.63299 z m 672,-0.61737 c -0.0457,-5.06819 -3.21265,-18.24338 -3.1242,-24.03904 C 919.16818,640.43824 923,685.90618 923,602.5 c 2.72156,-50.81751 3.98922,-80.20733 4,-102.5 -0.69642,-31.50245 -0.0113,-40.98262 0.0496,-56.77528 0.0538,-14.95878 0.46369,-27.42388 0.91084,-27.70024 1.26514,-0.7819 3.14246,2.04393 2.48906,3.74665 -0.55438,51.80231 -0.44764,38.48282 -0.44949,89.52728 0.57086,57.20316 -3.99786,108.96146 -4,138.21006 0,30.79534 1.24109,122.72216 0.82859,122.69568 -0.4125,-0.0265 -4.49441,-4.95643 -4.51421,-7.14969 z m 20.5,-16.42384 c -1.79514,-73.74187 1.74827,-132.05579 1.75,-175.61338 0,-99.40081 -0.20707,-95.49002 4.88592,-92.27908 1.81382,80.82356 -1.87013,115.50635 -2.03835,165.54966 -0.22878,68.94894 -0.68934,183.84139 -1.34757,183.83069 -0.55,-0.009 -1.63876,-82.2877 -3.25,-81.48789 z M 960,579.74055 c 2.37655,-54.5379 3.99315,-87.78212 4,-110.24902 C 964,451.05461 964.2132,448 965.5,448 c 3.98404,60.89327 -2.49755,132.22028 -2.5,164.00847 0,47.3258 1.53338,146.90666 0.21857,146.90666 C 961.89683,758.91513 960,655.74895 960,579.74055 Z M 226.26809,415 c 35.87543,-3.20801 369.01249,-11.02771 475.82767,2.44082 -109.97551,6.02521 -88.94242,0.57234 -196.50477,0.56419 -144.13954,3.29486 -300.59014,-0.60247 -426.642694,1.37578 C 140.54482,415.91897 139.6051,415.0297 226.26809,415 Z m 259.65592,-38.95947 c 0,-0.75765 1.11931,-1.62019 1.5,-2.62244 27.41972,-72.18637 73.84368,-69.90395 67.85502,-84.94958 -0.16109,-9.03055 -6.37581,-19.16837 -0.88096,-20.0802 4.4646,-0.74087 7.9312,24.67209 7.67846,28.2456 3.40641,6.92705 15.08693,8.29265 22.36272,8.89325 0.0426,7.20216 -34.69606,-2.65783 -35.99997,6.00275 -5.55885,8.62918 14.2513,8.2624 32.78746,11.46265 -24.66935,6.62699 -47.97662,-5.14648 -50.93202,5.84497 7.12943,3.06377 20.31361,2.38759 37.52378,5.58202 -21.75256,8.30555 -39.43724,2.21654 -50.17784,3.36552 -7.85033,6.52357 -21.47096,31.98544 -21.71665,37.06397 0,2.41628 -0.29746,2.56912 -5,2.56912 -3.58025,0 -5,-0.39116 -5,-1.37756 z M 757,346.2326 c -2.15931,-4.19923 -3.48844,-5.61696 -5,-8.22599 -2.60149,-3.7573 -6.55384,-2.11315 -18.14224,-1.72191 -20.94106,0.707 -24.77553,3.64677 -20.45789,-0.42839 C 716.23379,333.18154 717.91091,330 732.8032,330 c 13.2595,0 11.08137,0.56634 13.88113,-0.89016 2.01362,-1.04753 -0.76698,-5.03297 -2.5712,-8.6937 -9.3953,-0.81451 -43.65681,2.80621 -35.49551,-1.41736 9.47792,-5.89395 18.2961,-4.96193 28.62689,-5.67628 5.19545,-0.40811 3.48573,-0.74635 -0.14088,-6.97871 -2.75129,-5.6577 -6.0224,-6.95464 -9.1632,-11.63637 -4.17935,-3.54739 -0.87523,-12.05155 5.5117,-12.06486 29.30918,-17.89519 27.08618,-22.40134 46.01533,-40.97537 -5.23772,-1.75483 -0.45864,-0.21265 -14.09968,-0.7252 -9.00477,-0.33835 -10.86844,-0.57397 -20.09471,-0.17573 0,0 -0.29112,-1.90868 24.83256,-3.83817 20.03861,-1.84449 16.46379,-1.45062 22.14237,-9.6134 -12.82527,0.85668 -23.37794,2.10069 -43.94115,2.92431 20.16852,-6.6489 26.28701,-5.92452 47.55094,-9.9516 3.36836,-5.06716 1.08852,-0.64528 5.26597,-8.22281 -12.07349,-0.18221 -38.63412,5.43083 -53.00926,5.10556 10.75672,-4.75293 41.78587,-10.35582 54.29633,-13.26794 3.76177,-8.58963 8.72458,-17.33411 3.3791,-26.43375 -12.36655,-0.35744 -50.67879,4.29755 -62.32882,7.42295 7.05962,-9.56 38.51701,-13.93884 45.98959,-13.81213 11.37625,-1.17159 10.01864,-2.02942 8.12326,-6.47735 -7.78367,-3.85205 -33.60235,1.2694 -54.85148,6.8597 22.87813,-11.9179 32.83452,-13.46714 49.92824,-15.74785 -2.63447,-5.71465 -2.66505,-4.8991 -3.19173,-6.1636 -38.77877,5.30515 -37.95291,7.81875 -45.85915,10.81226 10.24255,-10.12945 16.27848,-10.96029 42.00422,-19.96759 -12.07674,-40.01403 -16.94789,-59.960208 -1.50144,-92.162636 -22.31526,10.608064 -36.12819,24.789777 -54.18214,37.07831 -2.89226,1.968637 -0.72052,1.614751 -9.90388,1.612109 -0.27975,-2.715578 0.46344,-4.559824 9.35004,-14.381068 23.79537,-18.163777 44.61168,-41.499475 80.71644,-46.625347 -17.16352,26.243896 -27.30884,56.527619 -24.03281,73.634796 1.03348,11.486836 5.49579,30.244856 20.34441,56.563226 20.13581,-2.04469 55.52802,-3.76536 56.36624,-6.39087 0.89645,-3.61823 0.69984,-3.07337 -0.0273,-6.72337 -0.21789,-3.2637 -0.0177,-3.5209 2.96466,-3.8095 3.19832,-0.30951 3.19832,-0.30951 3.5,5.5 0.30168,5.8095 0.30168,5.8095 10.03577,6.09552 36.07603,3.70492 39.29867,10.83834 34.76591,54.81967 -2.09373,24.54241 -25.80048,104.17795 -39.76654,168.2025 C 871.8271,329.19365 902.58356,260.26435 903,209.47329 c 1.3253,-61.90984 -8.39572,-48.44904 -90.02938,-42.44816 9.32485,20.02065 1.67804,40.56409 -9.27621,60.76816 -5.42755,11.47179 -24.74991,29.23905 -24.74991,30.52776 -30.32977,32.45616 -42.80833,29.88225 -39.43664,34.35853 6.86902,13.81019 17.43756,32.60866 26.10031,46.84176 3.5748,5.46504 18.23226,37.43099 12.56189,37.75745 C 772.98526,377.5773 758.50787,348.93844 757,346.2326 Z m -95.63492,-3.34484 c -10.3037,-3.23121 -0.24741,-3.3288 9.35816,-2.83144 8.97428,0.46467 18.89647,-0.88622 11.09012,1.69368 -6.4897,2.14476 -16.818,2.2762 -20.44828,1.13776 z m 163.3135,33.68386 c 12.13085,-83.33878 35.49758,-109.1453 -88.9938,-84.15321 44.48954,-18.87004 72.94563,-25.52576 110.21886,-7.85728 2.0121,16.45377 -8.7879,61.76317 -21.22506,92.01049 z M 670.48445,332.66857 c -10.18867,-2.03751 -15.54067,-7.28046 -14.58955,-7.5975 10.75849,2.25699 12.22916,3.01004 25.23415,2.9666 8.0252,0.11852 -0.34148,3.53923 -10.6446,4.6309 z m -16.21351,-15.41194 c -4.26652,-4.90333 2.17829,-2.24094 17.3674,-0.84985 16.04757,1.46971 22.1997,-0.55864 18.02769,2.15755 -4.74569,3.08967 -30.11294,4.76284 -35.39509,-1.3077 z M 496.28619,189.16329 c -9.87749,-1.56317 -24.58952,-6.63342 -42.6795,23.35744 -0.82391,0.5296 -2.77014,-1.02983 -2.60946,-1.73411 16.912,-30.90505 35.97537,-29.98093 45.87613,-28.11722 -20.87185,-28.29691 -36.40994,-26.9077 -56.43275,-8.76549 -2.83077,0.276 -3.90686,-1.19079 -2.13659,-3.65216 25.83505,-20.6347 36.51247,-20.51305 59.78996,-1.81745 10.45545,-26.59973 13.00773,-29.04717 26.22746,-42.9707 -9.86585,-24.15696 -16.14326,-16.63659 -29.45062,-13.2881 -2.71132,-0.52101 -3.29357,-1.30972 -1.17185,-3.55384 17.45143,-5.52286 21.48852,-7.24917 40.3144,8.69939 3.47326,-2.29145 7.53897,-6.02803 9.2971,-7.38672 5.05348,-12.502364 1.51127,-66.091966 9.98538,-74.493645 24.96763,5.477465 45.9114,26.398204 61.38378,45.808145 35.99314,-3.69176 48.80238,-0.783119 112.06915,1.433481 -0.004,8.439782 -8.66834,0.777904 -76.33133,3.498967 -82.54263,3.319447 -143.05039,62.714182 -142.90151,94.679682 0.15538,33.3623 2.90631,46.49617 47.87219,85.52254 5.12237,14.07915 -1.99464,7.52817 -9.14232,-0.10174 -41.35867,-28.60775 -50.72194,-51.74797 -49.95962,-77.11847 z m 86.60749,-96.65 c 19.88629,-7.600493 19.98205,-7.754597 15.30738,-13.849784 -4.70159,-6.0971 -4.84377,-6.306379 -22.02221,1.220225 -16.96505,6.600689 -17.00871,6.669945 -16.72066,13.747276 0.29014,7.520903 0.25573,7.480153 23.43549,-1.117717 z m 3.87543,-26.591628 c -4.59303,-6.180926 -3.44773,-6.203832 -17.09177,-1.279959 -11.91735,4.300743 -11.03153,4.984891 -10.93375,8.506246 0.23833,8.582485 0.3198,8.66851 16.76097,2.054631 14.9241,-4.480544 14.84557,-4.656527 11.26455,-9.280918 z m -17.67399,-5.536278 c 9.14479,-2.579108 9.48623,-2.767276 0.88752,-9.351026 -8.16697,-5.046875 -8.96555,-4.69427 -9.80087,4.780966 -0.74472,8.447583 -0.25516,8.41046 8.91335,4.57006 z m 91.59954,170.914636 c -2.4299,-0.62988 -1.59786,-2.71809 1.249,-3.13468 3.0065,-0.43996 5.12454,1.54815 3.04798,2.86099 -0.8204,0.51867 -1.71664,0.89773 -1.99164,0.84236 -0.275,-0.0554 -1.3124,-0.31128 -2.30534,-0.56867 z M 610.78171,220.55501 C 608.21035,220.54712 606,216.03927 606,214.06377 c 0,-3.0446 0.58998,-5.59623 -4.84064,-5.59623 -13.54259,-5.75636 -15.72148,-10.20621 -19.2322,-17.8792 -5.54693,-12.12332 0.37525,-32.68798 14.88968,-40.52963 9.46987,-5.11625 22.06356,-8.46956 21.63685,-10.90692 C 618.1442,137.38397 614.96681,137.51837 615,136.5 c 0.0307,-0.94061 0.68161,-2.72818 2.28106,-2.70457 9.45428,0.13954 10.32665,0.32838 9.71894,-8.03946 -0.13069,-1.79955 0.57227,-2.37405 3.7448,-2.68739 1.75396,-0.17323 5.45913,5.70224 5.0179,11.19901 -0.0264,7.14364 -0.25808,7.12195 3.15682,7.83817 3.34899,9.88943 3.40734,-2.29378 13.36894,18.60385 8.00057,19.74549 -4.43576,45.92062 -30.21764,48.2562 -2.7909,0.25283 -4.16471,3.11911 -5.07082,5.58474 -2.71543,7.38902 -1.02866,6.02039 -6.21829,6.00446 z m 21.71064,-48.58395 C 620.86966,151.44863 594.44837,159.30352 607.00004,187.5 c 4.89739,11.00167 31.34686,-5.19142 25.49231,-15.52894 z m 19.94054,45.44198 c -1.40096,-3.65084 -1.04585,-4.90544 4.32648,-5.2153 6.02128,-0.34728 6.36375,0.24871 2.33044,4.05551 -3.15883,2.98143 -5.77544,3.45689 -6.65692,1.15979 z m 18.97685,-3.78766 c -1.20786,-3.14764 0.0288,-5.11789 3.41691,-5.44384 3.19876,-0.30774 3.29955,-0.20667 2.99181,3 -0.3553,3.70237 -5.2147,5.55541 -6.40872,2.44384 z m 4.60754,-77.32741 c 0.0371,-1.7133 5.17643,-3.66716 7.45921,-3.66716 3.578,0 4.52351,-3.48194 4.52351,-8.86219 0,-5.19528 1.77808,-7.03687 4.88592,-5.06045 1.26982,0.80754 1.53888,2.33957 1.26148,7.18306 -0.44473,7.76512 -0.49168,7.7577 5.05682,8.9483 6.5365,1.90096 6.48376,1.97576 12.33096,4.16047 4.13095,1.04531 4.09238,1.22012 0.54174,4.07692 -12.70493,7.23267 -34.85675,0.96813 -36.05964,-6.77895 z"
       id="path106"
       sodipodi:nodetypes="ccssssccscccccsssscccccccccssccsccsssssccccsscccccccccsssccscccccccccsccssccsssssssssssccccccsccssscccsssssscccsscccccsscccscscccscccccssssssssscccccscccccccscccscccccccsccccccccsccsscscccccccsccccccccccccccccccscccscscccsscsccccssscscssccccccccccsccccssscccscccccccccccccccccscccccsscsscsccssccccscccsssccccscccccsccscccscccccccccsssssccssscccccccsszcccccccccccccccccsccccccsscccccccccssccsccscccccsccccccscccccccccccccsscccssccssscssscsscssscsscssssssccccscsscsccsccsccssssccccss" />
  </g>
</svg>
