<?xml version="1.0" encoding="UTF-8" standalone="no"?>
<svg
   xmlns:dc="http://purl.org/dc/elements/1.1/"
   xmlns:cc="http://creativecommons.org/ns#"
   xmlns:rdf="http://www.w3.org/1999/02/22-rdf-syntax-ns#"
   xmlns:svg="http://www.w3.org/2000/svg"
   xmlns="http://www.w3.org/2000/svg"
   xmlns:sodipodi="http://sodipodi.sourceforge.net/DTD/sodipodi-0.dtd"
   xmlns:inkscape="http://www.inkscape.org/namespaces/inkscape"
   sodipodi:docname="maskup.svg"
   inkscape:version="1.0 (4035a4fb49, 2020-05-01)"
   id="svg8"
   version="1.1"
   viewBox="0 0 63.349163 78.220978"
   height="78.220978mm"
   width="63.349163mm">
  <defs
     id="defs2" />
  <sodipodi:namedview
     inkscape:window-maximized="0"
     inkscape:window-y="34"
     inkscape:window-x="10"
     inkscape:window-height="1034"
     inkscape:window-width="1898"
     fit-margin-bottom="0"
     fit-margin-right="0"
     fit-margin-left="0"
     fit-margin-top="0"
     showgrid="false"
     inkscape:document-rotation="0"
     inkscape:current-layer="layer1"
     inkscape:document-units="mm"
     inkscape:cy="177.76091"
     inkscape:cx="198.13847"
     inkscape:zoom="1.22199"
     inkscape:pageshadow="2"
     inkscape:pageopacity="0.0"
     borderopacity="1.0"
     bordercolor="#666666"
     pagecolor="#ffffff"
     id="base" />
  <metadata
     id="metadata5">
    <rdf:RDF>
      <cc:Work
         rdf:about="">
        <dc:format>image/svg+xml</dc:format>
        <dc:type
           rdf:resource="http://purl.org/dc/dcmitype/StillImage" />
        <dc:title></dc:title>
      </cc:Work>
    </rdf:RDF>
  </metadata>
  <g
     transform="translate(-63.591316,-40.930396)"
     id="layer1"
     inkscape:groupmode="layer"
     inkscape:label="Layer 1">
    <g
       transform="translate(0.34177241,-23.37896)"
       id="g855">
      <path
         style="fill:#fc6f08;fill-opacity:1;stroke-width:0.423333;stroke-linecap:round"
         d="m 97.5186,141.5364 5.42407,-1.96855 2.522,-2.761 -0.73194,-2.6601 -4.72117,-4.08311 1.53699,-12.55059 1.66098,-0.5732 2.93134,2.49359 10.28726,3.75259 7.07045,-1.54634 2.47684,-2.46365 -0.67747,-2.11317 -15.60378,-0.89734 -2.70288,-1.49704 3.43525,-3.58955 1.80089,-5.60953 -6.49099,-9.424476 -0.67424,-1.927132 4.45035,-1.792954 3.95052,-3.937416 1.32023,-3.517818 0.0982,-4.322892 -1.96588,-4.313661 -1.02633,-3.002491 0.57955,-5.650537 -5.47077,1.31767 -1.54803,1.33723 -4.80574,-0.516151 -8.384398,0.311599 0.729427,-0.224668 -8.180845,-4.880382 -1.742615,8.609711 -6.155629,5.066662 -1.750965,6.614078 2.849295,6.74275 1.278404,1.010256 -8.713306,1.886788 -5.869374,2.505282 -0.786154,5.029682 2.525205,3.18704 1.792285,1.16266 0.640807,4.95008 1.535938,4.7465 3.388498,2.36047 1.261911,0.6326 0.600364,6.51521 -3.837104,2.68468 -4.58352,2.76487 1.775243,2.0135 4.679553,2.9332 4.827603,1.26727 7.953531,-3.63201 1.684512,3.22122 3.615436,4.09196 z"
         id="path850" />
      <path
         style="fill:#000000;stroke-width:0.264583"
         d="m 91.606703,142.16545 c -1.242272,-0.44863 -3.251295,-2.89796 -4.626171,-5.64006 -0.473276,-0.94392 -0.893122,-1.75303 -0.93299,-1.79802 -0.07957,-0.0898 -3.88489,1.84333 -4.098131,2.08187 -0.07276,0.0814 -0.712835,0.46834 -1.422387,0.85989 -2.423938,1.3376 -5.202867,0.88404 -10.002496,-1.63254 -2.760128,-1.44721 -4.124537,-2.89379 -3.831321,-4.06205 0.463899,-1.84833 2.635575,-3.41252 6.746503,-4.85932 0.776695,-0.27335 1.524897,-0.70763 1.662673,-0.96506 0.165317,-0.3089 0.112761,-1.2555 -0.154559,-2.78369 -0.222779,-1.2736 -0.405437,-2.64306 -0.405902,-3.04324 -7.94e-4,-0.62498 -0.108225,-0.7276 -0.762199,-0.7276 -0.418742,0 -0.909571,-0.1786 -1.090729,-0.39688 -0.181157,-0.21828 -0.467942,-0.39687 -0.637296,-0.39687 -0.169355,0 -0.793184,-0.44649 -1.386285,-0.99219 -0.920006,-0.84648 -1.1791,-1.34188 -1.764313,-3.37344 -0.666813,-2.31483 -0.983443,-5.56125 -0.602515,-6.1776 0.231215,-0.37412 0.874585,-0.40074 0.994923,-0.0412 0.04914,0.14684 1.728349,0.33982 3.792361,0.43582 5.285867,0.24587 5.535843,0.58703 0.44462,0.60681 l -4.317882,0.0168 0.08455,0.59531 c 0.07964,0.56074 0.253577,0.60775 2.994964,0.80953 1.60073,0.11783 4.071276,0.15257 5.490105,0.0772 1.418828,-0.0754 2.579687,-0.0331 2.579687,0.0939 0,0.3666 -3.835715,0.62794 -6.774037,0.46154 -3.99557,-0.22626 -4.197649,-0.0985 -3.480292,2.19997 l 0.329004,1.05416 1.9861,0.0188 c 2.619589,0.0248 6.005362,0.34036 6.247204,0.58221 0.410663,0.41066 -0.183473,0.44336 -3.481451,0.19163 -3.380295,-0.25799 -4.351528,-0.19472 -4.351528,0.28351 0,0.13571 1.114475,0.24675 2.476614,0.24675 1.362136,0 3.053659,0.0791 3.758938,0.17576 1.990873,0.27288 0.719466,0.5776 -2.500921,0.59939 l -2.747661,0.0186 0.656646,0.51652 c 0.701931,0.55214 2.695784,1.32536 3.433998,1.33171 0.668821,0.006 0.887208,0.56712 0.368255,0.94659 -0.311455,0.22774 -0.428998,0.61305 -0.371153,1.21663 l 0.08466,0.88334 2.711979,0.36694 c 1.491589,0.20182 2.711979,0.47468 2.711979,0.60635 0,0.2226 -3.315858,0.081 -4.696354,-0.2005 -0.604012,-0.12319 -0.777896,0.25397 -0.392824,0.85203 0.106913,0.16605 1.301292,0.41968 2.654178,0.56361 2.271657,0.24169 2.959971,0.42104 2.677536,0.69767 -0.06063,0.0594 -1.181806,0.018 -2.491494,-0.092 -1.309687,-0.10997 -2.475592,-0.11779 -2.5909,-0.0174 -0.431962,0.37612 0.603183,0.81472 2.295847,0.97278 0.962645,0.0899 1.750261,0.26529 1.750261,0.38977 0,0.12448 -0.9525,0.22632 -2.116666,0.22632 -1.164167,0 -2.116667,0.0961 -2.116667,0.21358 0,0.39055 -1.393976,1.90309 -1.753907,1.90309 -0.194834,0 -1.434642,0.46578 -2.755133,1.03508 -2.227116,0.96016 -3.691893,2.08204 -3.69272,2.82828 -5.56e-4,0.50701 1.426122,1.8068 2.526593,2.30186 l 1.059611,0.47668 1.183299,-1.09658 c 1.46404,-1.35675 3.31865,-2.47177 3.709506,-2.2302 0.171077,0.10573 -0.373822,0.61688 -1.309023,1.22794 -1.526051,0.99711 -2.672393,2.13157 -2.672393,2.64467 0,0.13046 0.20836,0.30169 0.463021,0.38051 0.254662,0.0788 0.643049,0.23699 0.863082,0.35149 0.220032,0.11451 1.098767,0.41131 1.952744,0.65957 1.826466,0.53097 3.292575,0.38091 4.658653,-0.47683 0.509323,-0.3198 1.461823,-0.81356 2.116667,-1.09725 0.654844,-0.28369 1.696403,-0.8531 2.314573,-1.26536 0.916725,-0.61136 1.077864,-0.83567 0.873992,-1.21661 -0.298288,-0.55735 -0.415308,-8.1501 -0.136281,-8.84258 0.152072,-0.37742 0.0856,-0.46409 -0.30438,-0.39688 -0.292883,0.0505 -0.498946,-0.0675 -0.498946,-0.28566 0,-0.20441 0.235964,-0.40628 0.524365,-0.44861 0.288398,-0.0423 0.566211,-0.20251 0.61736,-0.35595 0.138544,-0.41563 0.763744,-0.33709 0.938332,0.11788 0.11879,0.30957 0.645443,0.39688 2.393942,0.39688 1.232905,0 2.315231,0.11906 2.405168,0.26458 0.104608,0.16926 -0.73747,0.26458 -2.337326,0.26458 -2.090383,0 -2.528634,0.0724 -2.670122,0.44112 -0.296003,0.77137 0.288464,0.96257 2.802964,0.91696 3.207721,-0.0582 2.819738,0.42794 -0.531397,0.6658 -2.044743,0.14514 -2.432815,0.2431 -2.362103,0.59626 0.07265,0.3628 0.485958,0.40907 2.92203,0.32709 3.380724,-0.11376 3.877265,0.33182 0.6546,0.58742 -3.698886,0.29336 -3.459575,0.057 -3.316399,3.27624 0.09574,2.15278 0.04457,2.79326 -0.231656,2.89926 -0.516665,0.19826 -0.42764,0.66301 0.249928,1.30474 0.327436,0.31011 0.770054,0.90542 0.983597,1.32291 0.420463,0.82203 2.145834,3.26309 3.004018,4.25008 0.894919,1.02925 3.097641,1.38063 6.086605,0.97095 0.985512,-0.13508 1.227553,-0.27049 1.227553,-0.68676 0,-0.55469 -0.939681,-2.04968 -1.508078,-2.39928 -0.443989,-0.27308 -0.455832,-1.32456 -0.01328,-1.17875 0.543902,0.1792 2.068092,2.33809 2.233063,3.16294 0.140385,0.70193 0.223676,0.75203 0.977654,0.58812 1.52987,-0.3326 2.05214,-0.63932 3.38906,-1.9904 1.20045,-1.21315 1.3181,-1.43635 1.18605,-2.2501 -0.19985,-1.23157 -0.97304,-2.24202 -2.41109,-3.15101 -0.66415,-0.4198 -1.20754,-0.8586 -1.20754,-0.9751 0,-0.1165 -0.16014,-0.21182 -0.35587,-0.21182 -0.19572,0 -0.55791,-0.22325 -0.80485,-0.49612 -0.389533,-0.43043 -0.412745,-0.71946 -0.1753,-2.18281 0.150527,-0.92768 0.274585,-1.78139 0.275685,-1.89712 0.0021,-0.23145 -1.490051,-0.0279 -2.853184,0.38912 -0.965777,0.29548 -1.890739,0.0958 -1.476235,-0.31874 0.140245,-0.14024 0.78523,-0.32057 1.433306,-0.40073 2.649384,-0.32769 3.024278,-0.48334 3.117978,-1.2945 l 0.0876,-0.75813 -1.675081,0.20415 c -2.50294,0.30504 -2.936378,0.30137 -3.049588,-0.0258 -0.06912,-0.19979 0.731269,-0.36099 2.421568,-0.48772 2.467681,-0.18501 2.524821,-0.20429 2.524821,-0.85204 0,-0.65916 -0.009,-0.6616 -1.653646,-0.45106 -2.276131,0.29137 -3.217865,0.28371 -3.373438,-0.0274 -0.07303,-0.14605 0.282575,-0.29379 0.79375,-0.32978 0.509323,-0.0358 1.654109,-0.13291 2.543972,-0.21567 l 1.617932,-0.15048 0.13473,-2.36295 c 0.0741,-1.29963 0.277,-2.53437 0.45087,-2.74389 0.17388,-0.20951 0.69487,-0.46193 1.15776,-0.56094 0.46289,-0.099 1.31787,-0.47084 1.89995,-0.82631 l 1.05833,-0.64631 -3.01699,0.0817 c -2.236685,0.0606 -3.046453,-0.004 -3.130905,-0.24903 -0.08749,-0.25401 0.72539,-0.33073 3.504425,-0.33073 3.27025,0 3.68599,-0.0532 4.32153,-0.55324 l 0.70319,-0.55325 -4.56406,0.19304 c -4.130677,0.17471 -4.564067,0.15188 -4.564067,-0.2405 0,-0.43902 0.927804,-0.50108 8.292457,-0.55461 1.39093,-0.0101 1.61019,-0.0906 2.19143,-0.80498 0.90428,-1.11134 2.11564,-3.2959 2.32785,-4.19804 l 0.17842,-0.75845 -4.57685,0.19133 c -2.51726,0.10523 -5.38052,0.27495 -6.36278,0.37715 -1.537008,0.15992 -1.785944,0.12692 -1.785944,-0.23678 0,-0.34276 0.362432,-0.43384 1.918234,-0.48206 1.05503,-0.0327 3.87619,-0.12079 6.26926,-0.19574 2.39306,-0.075 4.40919,-0.19443 4.48028,-0.26552 0.0711,-0.0711 2e-5,-0.25848 -0.15793,-0.41642 -0.30526,-0.30525 -9.66773,-0.35304 -11.517656,-0.0588 -0.769192,0.12235 -0.992188,0.0702 -0.992188,-0.23221 0,-0.31278 0.637085,-0.42429 3.216534,-0.56298 1.7691,-0.0951 4.51627,-0.17296 6.10482,-0.17296 2.60844,0 2.87961,-0.0449 2.79878,-0.46302 -0.0805,-0.41639 -0.48877,-0.46302 -4.05429,-0.46302 -2.18064,0 -4.89948,0.0953 -6.04186,0.21187 -1.658081,0.16914 -2.053906,0.14245 -1.962354,-0.13229 0.136408,-0.40936 0.03417,-0.39937 6.486804,-0.63393 3.8994,-0.14175 5.09323,-0.26552 5.09323,-0.52805 0,-0.18859 -0.56943,-1.08469 -1.26539,-1.99132 l -1.26538,-1.648427 -2.10805,-0.02588 c -2.44154,-0.02998 -5.81056,0.228868 -6.672115,0.512637 -0.447974,0.14754 -0.595312,0.0932 -0.595312,-0.219677 0,-0.575376 1.316231,-0.779936 5.217367,-0.810852 1.78668,-0.01416 3.24868,-0.110853 3.2489,-0.214874 0.002,-0.840396 -5.63816,-1.067612 -7.263344,-0.292618 -1.061318,0.506108 -1.526413,0.295039 -0.847135,-0.384448 0.371895,-0.372009 1.068056,-0.47403 3.753379,-0.550039 1.81324,-0.05133 3.24047,-0.184476 3.17161,-0.295887 -0.37005,-0.598752 -5.48665,-0.50529 -7.08234,0.129368 -0.321929,0.128043 -0.46302,0.05825 -0.46302,-0.229034 0,-0.524094 1.011369,-0.715158 4.14038,-0.78219 2.22577,-0.04768 2.40047,-0.08956 2.17058,-0.520345 -0.13751,-0.257667 -0.19635,-0.555324 -0.13075,-0.661459 0.0656,-0.106132 -0.40514,-0.151214 -1.04609,-0.100181 -1.1858,0.09442 -1.42815,-0.115203 -0.83465,-0.721919 0.26781,-0.273767 0.12939,-0.300722 -0.7276,-0.141692 -1.44446,0.268052 -8.615437,0.189063 -13.758329,-0.151548 -2.328333,-0.154205 -5.007239,-0.317418 -5.953125,-0.362694 -2.015249,-0.09646 -3.03898,-0.56797 -4.790691,-2.206492 -1.452467,-1.358612 -1.949035,-2.570975 -2.349495,-5.736273 -0.281062,-2.221568 -0.144425,-3.933586 0.382699,-4.795085 0.178077,-0.291042 0.398467,-0.826823 0.489754,-1.190625 0.179829,-0.716666 1.413944,-2.232878 3.466645,-4.259058 1.310407,-1.293475 3.974335,-2.816537 6.90213,-3.946192 0.873125,-0.336885 1.706562,-0.693639 1.852083,-0.792786 0.145521,-0.09915 0.800365,-0.3112 1.455208,-0.471226 6.555116,-1.601896 9.209271,-1.798953 12.285881,-0.912164 1.7961,0.5177 0.65689,1.566198 -1.22904,1.131169 -1.689826,-0.389798 -4.605151,-0.328678 -7.25187,0.152034 -1.292368,0.234727 -2.647418,0.45934 -3.01122,0.49914 -1.177193,0.128784 -6.446147,2.320966 -8.069792,3.357488 -2.17382,1.387749 -5.570509,5.183238 -5.07873,5.675016 0.188806,0.18881 6.675109,0.505958 8.452167,0.413272 1.007166,-0.05253 1.521354,-0.192294 1.521354,-0.41352 0,-0.437727 1.23952,-1.586988 2.273729,-2.108158 1.044731,-0.526474 3.247933,-0.821282 4.451009,-0.595584 1.208667,0.226748 2.915965,1.799549 2.729103,2.514112 -0.131718,0.503687 0.01677,0.515125 5.59032,0.430541 3.55578,-0.05397 6.72832,-0.247703 8.37146,-0.511223 1.45521,-0.233378 2.79772,-0.425026 2.98336,-0.425884 0.25445,-0.0011 0.23212,-0.205379 -0.0907,-0.829702 l -0.42825,-0.828141 -2.15823,0.180036 c -1.18703,0.09902 -2.38354,0.203792 -2.65892,0.232828 -0.27538,0.02904 -0.54776,-0.07973 -0.60529,-0.241699 -0.12644,-0.356013 1.33548,-0.624646 3.42108,-0.628637 1.49981,-0.0029 1.91918,-0.283147 1.10525,-0.738651 -0.39062,-0.218599 -1.48483,-0.111123 -3.4865,0.342451 -0.68325,0.154822 -0.8599,0.110852 -0.8599,-0.214039 0,-0.307969 0.42447,-0.454345 1.7198,-0.593062 1.81597,-0.194475 1.86451,-0.236599 1.46954,-1.275434 -0.186,-0.489237 -0.15204,-0.73968 0.1323,-0.975662 0.21039,-0.174612 0.38253,-0.489598 0.38253,-0.69997 0,-0.295802 -0.17417,-0.258475 -0.76845,0.164688 -0.42264,0.300951 -0.83936,0.547183 -0.92604,0.547183 -0.40201,0 -0.0595,-1.103217 1.05143,-3.386932 1.12075,-2.303834 1.34112,-3.237797 0.58573,-2.482408 -0.17219,0.172189 -0.62451,0.31308 -1.00515,0.31308 -0.38063,0 -1.62952,0.476556 -2.77532,1.059013 -1.45699,0.740661 -2.14037,0.966601 -2.27325,0.751598 -0.10449,-0.169079 -0.13726,-0.444827 -0.0728,-0.612774 0.15917,-0.4148 3.18408,-1.991587 3.82066,-1.991587 0.28111,0 0.51112,-0.09524 0.51112,-0.211647 0,-0.225226 2.68197,-0.846686 3.65395,-0.846686 0.69322,0 0.70887,0.155904 0.14954,1.489042 -0.30656,0.730688 -0.43192,1.859165 -0.4371,3.934916 l -0.007,2.910416 0.98988,1.545561 c 0.54443,0.850058 1.1623,1.958222 1.37304,2.462587 l 0.38316,0.917026 0.80416,-0.676649 c 0.44227,-0.372157 0.93411,-0.67665 1.09299,-0.67665 0.15886,0 1.11714,-0.604355 2.12952,-1.34301 2.11571,-1.54367 3.53116,-2.280357 3.82156,-1.988972 0.11097,0.111342 0.20176,1.055415 0.20176,2.097941 0,1.483811 -0.11493,2.048815 -0.52917,2.601397 -0.65463,0.873263 -1.93958,1.510779 -3.46707,1.720147 -1.67756,0.229933 -1.63102,0.303156 0.99536,1.565851 2.27228,1.092454 2.2859,1.973075 0.0406,2.625799 -1.83939,0.534726 -2.57009,0.443722 -2.68052,-0.33384 -0.0465,-0.327422 -0.17916,-0.595313 -0.29479,-0.595313 -0.28924,0 -1.09624,-2.17493 -1.03875,-2.799551 0.0944,-1.025945 -0.048,-1.433753 -0.50014,-1.432507 -0.40077,0.0011 -0.4681,0.297442 -0.50074,2.203757 -0.0396,2.312771 -0.45798,3.53396 -1.8446,5.384086 -0.34717,0.463232 -0.63124,0.965144 -0.63124,1.115356 0,0.150212 -0.32742,0.607539 -0.7276,1.016278 -0.86234,0.880782 -4.12724,3.243831 -4.48182,3.243831 -0.13608,0 -0.7548,0.245136 -1.37493,0.544748 -1.30717,0.631552 -1.39038,0.420923 1.30854,3.312213 2.94187,3.151541 4.29605,5.486641 4.69812,8.101201 0.37981,2.46992 -0.86211,5.32211 -3.49859,8.03479 -1.14983,1.18307 -1.15959,1.20803 -0.56116,1.43555 1.33829,0.50882 4.78838,0.83458 10.38149,0.98025 5.00286,0.13028 5.99216,0.22347 6.65548,0.62686 1.96717,1.1963 0.97756,4.23671 -1.81909,5.58884 -5.29684,2.56092 -11.19556,1.72637 -18.64582,-2.63801 -0.81566,-0.47782 -1.55003,-1.04336 -1.63192,-1.25677 -0.0819,-0.2134 -0.41993,-0.388 -0.75119,-0.388 -0.7664,0 -0.91654,0.55037 -0.93829,3.43958 -0.009,1.23693 -0.22569,3.66687 -0.48083,5.39988 l -0.4639,3.15093 1.18952,0.81782 c 2.97237,2.04359 3.99824,3.36001 3.99824,5.13062 0,1.97398 -2.88585,4.94782 -5.36602,5.52962 -4.883093,1.14547 -7.283665,1.32812 -9.053762,0.68887 z m 26.740337,-20.18857 c 0.0359,-0.21828 0.19262,-0.93266 0.34821,-1.5875 0.47614,-2.00397 0.39468,-2.64584 -0.33577,-2.64584 -0.59012,0 -0.64042,0.11732 -0.76579,1.78594 -0.0738,0.98227 -0.22292,2.06429 -0.33138,2.40449 -0.17173,0.53869 -0.11865,0.60702 0.41111,0.52917 0.33457,-0.0492 0.63769,-0.26798 0.67362,-0.48626 z m -1.71611,-0.58011 c 0.30055,-0.72559 0.44836,-3.55798 0.19708,-3.77669 -0.0472,-0.0411 -1.29528,-0.15798 -2.77344,-0.2597 l -2.68754,-0.18495 -0.42131,1.44926 c -0.59896,2.06033 -0.57235,2.14123 0.83546,2.54082 0.69123,0.19619 1.79255,0.5105 2.4474,0.69847 1.77435,0.50932 2.01744,0.46205 2.40235,-0.46721 z m 5.55495,0.178 c 2.16304,-0.73404 2.87567,-1.39631 2.88473,-2.68086 0.005,-0.69985 -0.12816,-0.88075 -0.82735,-1.12448 -0.45828,-0.15976 -1.7017,-0.29047 -2.76317,-0.29047 h -1.92994 l 0.0132,1.52135 c 0.007,0.83675 -0.11853,1.85653 -0.27954,2.26619 -0.16101,0.40965 -0.29275,0.7966 -0.29275,0.85989 0,0.29729 1.41139,0.0536 3.1948,-0.55162 z m -11.80621,-3.77456 c 0.16214,-0.73819 0.11635,-0.85042 -0.34696,-0.85042 -0.34345,0 -0.52297,0.16508 -0.50353,0.46302 0.0166,0.25467 -0.0561,0.91153 -0.16157,1.45971 -0.26204,1.36184 0.10344,1.8631 0.50749,0.69602 0.17479,-0.50485 0.40184,-1.3006 0.50457,-1.76833 z m -1.87117,1.58185 c 0.26339,-0.42617 0.42383,-2.69685 0.19055,-2.69685 -0.29874,0 -0.82047,1.4552 -0.82047,2.28844 0,0.60443 0.36323,0.83993 0.62992,0.40841 z m -1.33102,-0.78064 c 0.0681,-0.11024 0.20556,-0.63577 0.30537,-1.16784 0.15084,-0.80402 0.0927,-1.01488 -0.34396,-1.2486 -0.41133,-0.22014 -0.76108,-0.15326 -1.61049,0.30795 -0.59677,0.32403 -1.08602,0.6597 -1.08722,0.74593 -0.001,0.0862 0.41453,0.38119 0.92386,0.65548 0.50932,0.27429 0.92604,0.59069 0.92604,0.70312 0,0.26361 0.72393,0.26685 0.8864,0.004 z m -3.92911,-25.521498 c 0.58208,-0.225729 1.40061,-0.513524 1.81896,-0.639543 l 0.76062,-0.229126 0.0381,-3.042709 c 0.0375,-2.996787 0.055,-3.078202 1.15761,-5.394436 0.61575,-1.293452 1.11954,-2.391613 1.11954,-2.440357 0,-0.04875 -0.62508,-0.01916 -1.38906,0.06574 -1.56457,0.173869 -2.79524,0.189717 -13.427605,0.172916 -11.283792,-0.01783 -11.571185,-0.02183 -14.339568,-0.199231 l -2.565606,-0.164415 -0.182978,0.975352 c -0.256932,1.369563 0.05082,5.165019 0.507397,6.257774 0.536884,1.284944 1.901465,2.562693 3.838117,3.593886 1.405422,0.748337 2.069131,0.918985 4.356073,1.12001 4.437079,0.390028 5.096754,0.411771 11.296981,0.372383 4.678099,-0.02972 6.179799,-0.125722 7.011459,-0.448239 z M 88.355638,85.078344 c -0.995249,-0.54945 -1.90831,-1.526167 -1.90831,-2.041356 0,-0.665914 0.323056,-0.604932 1.078359,0.20355 0.937409,1.003413 1.914232,1.43007 3.274127,1.43007 1.191987,0 1.592873,0.323236 0.785249,0.63315 -0.688986,0.264391 -2.581487,0.132292 -3.229425,-0.225414 z M 106.484,92.977421 c -0.0879,-0.08792 -0.31612,-0.09732 -0.50711,-0.02088 -0.21107,0.08446 -0.14838,0.147156 0.15985,0.159851 0.27891,0.01148 0.43518,-0.05105 0.34726,-0.138964 z m 2.96509,-1.549217 c 1.21512,-0.767067 1.77804,-1.490078 0.63398,-0.814261 -1.06354,0.628245 -2.11829,1.451901 -1.86851,1.459114 0.11204,0.0032 0.66757,-0.286949 1.23453,-0.644853 z m -0.30521,-1.329563 c 0.97758,-0.6526 2.37272,-1.732288 3.10032,-2.3993 l 1.32292,-1.212755 -1.5875,0.148341 c -0.87313,0.08159 -1.87133,0.226828 -2.21824,0.322758 -0.4696,0.12986 -0.59951,0.08076 -0.50853,-0.192196 0.0758,-0.227396 0.91815,-0.499192 2.21824,-0.715749 2.02964,-0.338076 2.77803,-0.653031 2.41482,-1.016248 -0.23119,-0.23119 -4.19029,0.432403 -4.62948,0.775957 -0.23183,0.181348 -0.43268,0.176744 -0.62372,-0.01429 -0.44646,-0.446455 0.43653,-0.765006 3.13381,-1.130567 1.69853,-0.230201 2.47897,-0.450181 2.58592,-0.728882 0.0842,-0.219544 0.10947,-0.442878 0.056,-0.4963 -0.13024,-0.130239 -4.12964,0.663522 -4.85617,0.963803 -0.40965,0.169312 -0.66574,0.128677 -0.8897,-0.141171 -0.40449,-0.487381 -0.28861,-0.524672 3.05242,-0.982255 l 2.64583,-0.362371 -0.0318,-0.994085 c -0.0472,-1.474478 -0.28828,-1.591439 -2.50831,-1.216982 -1.66555,0.280932 -2.03788,0.44899 -2.73223,1.233275 -0.84015,0.948971 -2.09788,3.802685 -2.41057,5.46947 -0.22115,1.178856 0.0812,3.8761 0.43447,3.8761 0.13975,0 1.05391,-0.533947 2.03148,-1.18655 z m 11.19175,-5.16345 c 0.13362,0 0.24295,-0.09615 0.24295,-0.213664 0,-0.174622 -0.96391,-0.69506 -2.48788,-1.343274 -0.13154,-0.05595 0.0952,0.336661 0.50389,0.872472 0.45319,0.594156 0.89034,0.917688 1.12058,0.829333 0.20764,-0.07968 0.48685,-0.144867 0.62046,-0.144867 z m 0.6645,-4.657569 c 0.55843,-0.233328 1.15984,-0.620281 1.33646,-0.859895 0.6567,-0.890931 0.71424,-2.949202 0.0824,-2.949202 -0.4504,0 -5.5374,3.766378 -5.396,3.995163 0.24273,0.392742 2.88801,0.268983 3.9771,-0.186066 z M 86.050453,109.42925 c -1.75147,-0.46303 -3.414017,-1.38695 -4.648322,-2.5832 l -1.006634,-0.97559 -1.00898,0.7119 c -2.831465,1.99779 -4.93734,2.28977 -9.161935,1.27031 -3.169713,-0.7649 -4.76388,-1.65373 -5.860472,-3.26751 -1.605803,-2.36315 -1.460764,-5.689283 0.333688,-7.652385 0.823294,-0.900673 1.259967,-1.139505 2.573152,-1.407358 0.869873,-0.17743 1.998305,-0.484024 2.507628,-0.681318 0.509323,-0.197295 1.640416,-0.495422 2.513541,-0.662506 0.873125,-0.167085 2.237592,-0.470408 3.032152,-0.674053 1.966097,-0.503912 2.391807,-0.476528 2.391807,0.153861 0,0.329758 -0.220766,0.570923 -0.595313,0.650316 -0.327422,0.06941 -2.024062,0.478068 -3.770312,0.908138 -6.35688,1.565582 -6.956405,1.771271 -7.802401,2.676913 -1.564782,1.675104 -0.996738,4.947652 1.186415,6.835022 0.674411,0.58304 0.701808,0.58668 0.538279,0.0714 -0.300793,-0.94771 2.997906,-6.638873 3.84801,-6.638873 0.454456,0 0.250156,0.505979 -0.524124,1.298054 -0.793663,0.811909 -2.934721,4.819349 -2.934721,5.492959 0,0.29644 1.433563,1.14649 1.933503,1.14649 0.05413,0 0.24525,-0.82164 0.424714,-1.82586 0.344221,-1.92614 1.661391,-5.053309 2.128466,-5.053309 0.151698,0 0.275817,-0.202293 0.275817,-0.449538 0,-0.774337 2.509578,-2.892917 3.816707,-3.222056 1.788332,-0.450305 3.344776,-0.362757 4.49316,0.252741 0.612849,0.328467 1.090705,0.4456 1.186706,0.290891 0.229836,-0.370391 2.934108,-1.11473 4.01206,-1.104303 0.501137,0.0048 1.83542,-0.06603 2.965074,-0.157509 l 2.053916,-0.166325 1.180266,0.96714 c 1.312222,1.075269 1.912538,2.539799 1.487665,3.629318 -0.301233,0.77247 -1.825532,2.2262 -2.567755,2.44887 -0.518591,0.15558 -0.538509,0.26454 -0.307596,1.68283 0.135794,0.83407 0.181805,2.25668 0.102245,3.16136 l -0.14465,1.64487 0.849122,-0.15832 c 2.075357,-0.38696 5.007692,-2.78285 5.43483,-4.44057 0.144156,-0.55948 0.394054,-0.83453 0.813551,-0.89545 0.5577,-0.081 0.590265,-0.0187 0.412684,0.78987 -0.405479,1.84613 -1.987134,3.60574 -4.474416,4.97786 -1.64428,0.90707 -2.134653,1.04614 -4.115652,1.16719 -1.448348,0.0885 -2.719906,0.0129 -3.571875,-0.21231 z m 4.093945,-1.39519 c 0.204039,-0.17931 0.146352,-4.09803 -0.07616,-5.17335 -0.162306,-0.78437 -0.327488,-0.99221 -0.788631,-0.99229 -0.570158,-1.1e-4 -0.583324,0.0743 -0.583324,3.29516 v 3.29528 l 0.661458,-0.15739 c 0.363803,-0.0866 0.717797,-0.2069 0.786654,-0.26741 z m -1.987637,-1.27945 c 0.201419,-1.61211 -0.05679,-4.81459 -0.405567,-5.03015 -0.121658,-0.0752 -0.494564,-0.0681 -0.828677,0.0157 -0.591066,0.14829 -0.606195,0.23059 -0.559906,3.04602 0.02617,1.59148 0.122489,3.01482 0.214053,3.16298 0.09156,0.14815 0.443389,0.26936 0.781833,0.26936 0.547905,0 0.635408,-0.16047 0.798264,-1.46392 z m -2.38238,-0.0574 c 0.09202,-0.5457 0.132265,-1.85019 0.08942,-2.89886 -0.07371,-1.80429 -0.108537,-1.89898 -0.648584,-1.76344 -1.169831,0.29361 -3.530393,-1.62143 -3.530393,-2.864083 0,-0.408016 0.07725,-0.741846 0.171654,-0.741846 0.09441,0 0.836922,0.547685 1.650026,1.217075 1.318075,1.085114 1.587468,1.202444 2.484554,1.082124 0.553402,-0.0742 1.163915,-0.26587 1.356696,-0.42586 0.541554,-0.44945 0.0977,-2.270346 -0.763143,-3.130787 -0.944843,-0.944396 -2.693456,-0.976297 -4.291253,-0.07828 l -1.089504,0.612336 -0.87217,-0.621041 c -1.180926,-0.840891 -3.105251,-0.828236 -4.732277,0.03113 -0.654844,0.345876 -1.338871,0.81263 -1.520058,1.037235 -0.346204,0.429157 -0.344963,2.047477 0.0016,1.924367 0.110665,-0.0393 0.527383,0.0968 0.926042,0.30256 0.398658,0.20573 1.639919,0.45954 2.758363,0.56402 1.380371,0.12894 2.080046,0.31117 2.178351,0.56735 0.224513,0.58507 -0.456834,0.70152 -3.302838,0.56447 l -2.630107,-0.12665 -0.31456,1.08425 c -0.173009,0.59634 -0.303345,1.65587 -0.289637,2.35451 0.01667,0.84967 -0.07608,1.23708 -0.280117,1.17006 -0.481142,-0.15804 -0.507505,-2.16315 -0.0463,-3.52159 0.401997,-1.18405 0.397669,-1.25369 -0.09958,-1.60198 -0.285914,-0.20026 -0.561557,-0.63095 -0.61254,-0.9571 -0.160308,-1.025517 -1.215784,1.36059 -1.547471,3.49836 -0.356917,2.30038 -0.226216,2.51271 1.806514,2.9347 1.950668,0.40496 3.347408,0.187 5.45188,-0.85076 1.588175,-0.78317 1.734378,-0.92665 1.807091,-1.77345 0.102367,-1.19215 0.600292,-1.33953 1.121349,-0.33192 0.658448,1.2733 1.642301,2.16596 3.720264,3.37542 0.807265,0.46986 0.867074,0.43373 1.046845,-0.63231 z m 5.70003,-6.51656 c 0.524103,-0.23803 0.677955,-0.525392 0.740908,-1.383827 0.07025,-0.957929 -0.03042,-1.179875 -0.869104,-1.916253 -0.76092,-0.668096 -1.182245,-0.832839 -2.12997,-0.832839 -1.25835,0 -1.473832,0.296677 -0.775747,1.068051 0.240027,0.265227 0.427109,1.029981 0.458173,1.872917 0.02888,0.783561 0.172757,1.509001 0.319736,1.612081 0.299876,0.21033 1.262594,0.031 2.256004,-0.42013 z M 108.67257,79.086587 c 1.8e-4,-0.280729 0.51821,-0.383498 2.16355,-0.429222 2.69734,-0.07496 2.49293,0.407922 -0.27075,0.63962 -1.51892,0.12734 -1.89299,0.08576 -1.8928,-0.210398 z m -8.39688,-1.780216 c -1.504269,-0.766212 -1.806574,-1.470416 -0.745552,-1.736715 0.356065,-0.08937 0.851442,-0.507917 1.100842,-0.93011 0.25956,-0.439405 0.60496,-0.709481 0.80781,-0.631641 0.50482,0.193718 0.44419,0.461188 -0.30686,1.353766 -0.60027,0.713382 -0.61857,0.802391 -0.19844,0.965476 0.25454,0.09881 1.26647,0.247836 2.24873,0.331178 1.20818,0.102511 1.78594,0.262457 1.78594,0.494417 0,0.477204 -0.19558,0.552803 -1.85208,0.715903 -1.22741,0.120851 -1.67205,0.03283 -2.84039,-0.562274 z m -9.277727,-0.834259 c -0.480327,-0.113756 -0.938734,-0.272241 -1.01868,-0.352189 -0.237115,-0.237113 0.170859,-0.709732 0.612653,-0.709732 0.225068,0 0.762955,-0.297656 1.195311,-0.661458 0.432353,-0.363802 0.896024,-0.661458 1.030382,-0.661458 0.373388,0 0.291029,0.520217 -0.152593,0.963839 -0.547343,0.547344 -0.496572,0.888244 0.132292,0.888244 0.630833,0 0.701836,0.406292 0.110651,0.633151 -0.492712,0.189072 -0.743394,0.175895 -1.910016,-0.100397 z m -7.828032,-4.717714 c -0.07349,-0.118916 0.06163,-0.743994 0.300279,-1.389062 0.241787,-0.653558 0.456726,-2.110032 0.485452,-3.289519 0.02835,-1.164167 0.0648,-2.265495 0.08098,-2.447396 0.04352,-0.489006 0.926134,-0.401428 1.647396,0.163463 0.347046,0.271806 1.508577,0.935388 2.581177,1.474627 1.072602,0.539239 2.084634,1.094819 2.248958,1.234623 0.164328,0.139804 0.525325,0.41066 0.80222,0.601901 0.685972,0.473781 0.320468,0.945 -0.712274,0.918292 -1.473973,-0.03812 -6.160916,1.818963 -6.442464,2.552663 -0.163195,0.425279 -0.771946,0.536019 -0.991728,0.180408 z M 88.501759,68.8598 c 0.776407,-0.165039 1.007454,-0.551842 0.456023,-0.763446 -0.238424,-0.09149 -0.990111,0.0786 -1.670415,0.377987 -0.680302,0.299385 -1.445274,0.609472 -1.699935,0.689081 -0.254661,0.07961 -0.463021,0.325338 -0.463021,0.546063 0,0.338322 0.218049,0.313128 1.389063,-0.160496 0.763984,-0.308998 1.658712,-0.619133 1.988285,-0.689189 z m -1.413425,-1.022133 c 0.423484,-0.28846 0.442211,-0.372034 0.111773,-0.498835 -0.561536,-0.215482 -1.811113,0.311639 -1.811113,0.763999 0,0.433799 0.873242,0.297538 1.69934,-0.265164 z m -1.170173,-1.010819 c 0,-0.06417 -0.119062,-0.190261 -0.264583,-0.280198 -0.145521,-0.08994 -0.264584,-0.03743 -0.264584,0.116677 0,0.154109 0.119063,0.280198 0.264584,0.280198 0.145521,0 0.264583,-0.0525 0.264583,-0.116677 z"
         id="path847"
         sodipodi:nodetypes="cssssssssscssssssssscsscssscssssssscscsscssssssccsssssssscsssssssssssssssssssssssssssssssssssssssssssscsssscsssssscscsssscccsscssscscsssscsssssssscsssscsssscssssssssssssssssssssssssssssssssssscccssscssssssssscsssscssssccsscssssssssssssssssssssssssssssscscsssccsssssssssscssssscssccsssssssssssssssssscsssscscsssssscsssssccssssssssssssscssscssssssssccssscssssssssssssssssssscscssssssssssssscsssssssssscscssssscssssssccssssccsssscssssscssssssssscsssscssscssssssssssssccsssssssssssssssssssssssssssssssssscssssssssssssssssssssssss" />
    </g>
  </g>
</svg>
