<?xml version="1.0" encoding="UTF-8" standalone="no"?>
<svg
   xmlns:dc="http://purl.org/dc/elements/1.1/"
   xmlns:cc="http://creativecommons.org/ns#"
   xmlns:rdf="http://www.w3.org/1999/02/22-rdf-syntax-ns#"
   xmlns:svg="http://www.w3.org/2000/svg"
   xmlns="http://www.w3.org/2000/svg"
   xmlns:sodipodi="http://sodipodi.sourceforge.net/DTD/sodipodi-0.dtd"
   xmlns:inkscape="http://www.inkscape.org/namespaces/inkscape"
   inkscape:version="1.0 (4035a4fb49, 2020-05-01)"
   id="svg16512"
   version="1.1"
   viewBox="0 0 75.72551 71.005791"
   height="71.005791mm"
   width="75.72551mm">
  <defs
     id="defs16506" />
  <sodipodi:namedview
     inkscape:window-maximized="0"
     inkscape:window-y="34"
     inkscape:window-x="10"
     inkscape:window-height="1034"
     inkscape:window-width="1898"
     fit-margin-bottom="0"
     fit-margin-right="0"
     fit-margin-left="0"
     fit-margin-top="0"
     showgrid="false"
     inkscape:document-rotation="0"
     inkscape:current-layer="layer1"
     inkscape:document-units="mm"
     inkscape:cy="-20.48014"
     inkscape:cx="140.88462"
     inkscape:zoom="0.91584383"
     inkscape:pageshadow="2"
     inkscape:pageopacity="0.0"
     borderopacity="1.0"
     bordercolor="#666666"
     pagecolor="#ffffff"
     id="base" />
  <metadata
     id="metadata16509">
    <rdf:RDF>
      <cc:Work
         rdf:about="">
        <dc:format>image/svg+xml</dc:format>
        <dc:type
           rdf:resource="http://purl.org/dc/dcmitype/StillImage" />
        <dc:title></dc:title>
      </cc:Work>
    </rdf:RDF>
  </metadata>
  <g
     transform="translate(-91.596857,-48.054733)"
     id="layer1"
     inkscape:groupmode="layer"
     inkscape:label="Layer 1">
    <path
       id="path17091"
       d="m 107.35424,105.34952 1.13911,5.18759 4.84101,5.03117 4.35967,1.52165 c 0,0 2.68555,0.46146 2.96905,0.26478 0.28349,-0.19668 2.80029,-1.72779 2.80029,-1.72779 l 0.66329,-2.99366 -1.80879,-3.46064 3.76328,-2.5756 4.37057,0.62867 4.17182,-0.6648 -2.24089,4.45985 -0.78633,3.30977 1.42742,2.71295 3.78222,1.32524 3.05884,-0.74558 3.29318,-3.03458 1.78446,-4.05936 0.43919,-3.8636 0.73546,-1.66561 -1.44193,-0.83388 -2.95823,0.69095 -0.54268,-0.83529 3.70438,-4.742488 c 0,0 0.62503,-5.416249 0.60754,-5.790899 -0.0175,-0.374647 0.035,-0.888542 0.035,-0.888542 l 5.68603,-2.858831 2.66219,-2.943672 1.52078,-4.341463 -9.48499,0.112604 -1.0249,1.94156 -2.62887,0.998114 -2.8711,-0.01085 0.19695,-1.533157 3.11261,-2.509258 1.28411,-4.504939 -0.47041,-4.019729 -2.8817,-2.983233 1.07641,-1.315818 0.33957,-4.293986 -4.5697,3.882702 -4.30806,-0.580078 -5.46187,0.918363 -0.86625,0.07569 -6.3241,-2.753011 -0.58487,6.091222 -1.67642,1.042569 -3.30163,4.324152 -0.47235,3.714316 4.24168,5.149231 1.00842,1.46758 -2.28627,1.665396 -4.97291,3.619608 -1.40045,1.653059 -0.654,2.057776 v 0.839835 l 0.035,0.406556 -3.16453,0.183634 -9.930114,-1.292429 -3.455572,0.297413 -1.732275,1.792242 1.497492,2.682201 2.7345,1.49502 14.962969,-2.82951 1.78556,1.64257 0.5977,0.79092 -3.5014,0.46127 -2.0009,0.82067 z"
       style="fill:#f1c109;fill-opacity:1;stroke-width:0.423333;stroke-linecap:round;stroke-opacity:0.0584339" />
    <path
       id="path17093"
       d="m 133.81442,75.469172 0.48958,2.804713 2.93767,-0.741447 -0.15283,-3.256415 z"
       style="fill:#ffffff;fill-opacity:1;stroke-width:0.423333;stroke-linecap:round;stroke-opacity:0.0584339" />
    <path
       id="path17095"
       d="m 143.13962,82.536841 -0.87123,-1.872908 1.53019,-1.410518 0.27506,-4.632981 -2.61061,-4.279265 c 0,0 1.12976,-5.339776 1.12976,-5.784469 0,-0.444693 2.5079,-1.223878 2.5079,-1.223878 l 1.55025,0.03755 0.53757,-2.700367 -0.30945,-1.442362 c 0,0 0.62414,-1.716773 0.53819,-2.00872 -0.086,-0.291949 0.63579,-4.266673 0.63579,-4.266673 l 0.75642,-2.801377 3.13386,-1.538102 5.3935,0.584512 0.54274,4.413663 -0.4148,8.028284 2.68188,-0.785831 4.37671,0.232923 1.72356,1.461492 0.45649,3.694615 -0.96913,2.957984 1.14014,0.286689 -0.65839,7.064184 -1.52604,5.896716 -19.82766,0.441862 z"
       style="fill:#ff5555;fill-opacity:1;stroke-width:0.423333;stroke-linecap:round;stroke-opacity:0.0584339" />
    <path
       id="path17089"
       d="m 134.54537,118.41763 c -3.64629,-1.73812 -4.39284,-4.99152 -2.0333,-8.86088 0.27268,-0.44715 0.49622,-1.00848 0.49676,-1.2474 0.004,-1.62772 4.96964,-4.98956 7.37031,-4.98956 2.7765,0 6.25121,-8.253081 3.86088,-9.170336 -0.21026,-0.08068 -0.38228,-0.287258 -0.38228,-0.45906 0,-0.373655 -2.28274,-2.627238 -3.065,-3.025857 -0.35477,-0.180782 -1.74668,-0.224531 -3.9026,-0.122663 -2.44408,0.115482 -3.35115,0.07584 -3.35115,-0.146453 0,-0.191061 0.51833,-0.305495 1.38906,-0.306676 2.25804,-0.0031 4.9566,-0.320249 4.80544,-0.564835 -0.0772,-0.12487 -1.56204,-0.227033 -3.2997,-0.227033 -1.92987,0 -3.15938,-0.102966 -3.15938,-0.264584 0,-0.159588 1.10243,-0.264583 2.77812,-0.264583 2.74879,0 2.77813,-0.0066 2.77813,-0.629063 0,-1.080915 0.75787,-1.462889 1.35964,-0.685273 1.06859,1.380839 4.61244,4.74926 4.99036,4.743325 0.97667,-0.01534 1.37824,-0.686043 0.68337,-1.141341 -1.10366,-0.723146 -1.99307,-1.744519 -2.17301,-2.495412 -0.43291,-1.806517 -0.85657,-2.247863 -2.00937,-2.093238 -2.73656,0.367049 -4.24614,-1.544013 -2.22752,-2.819966 5.46077,-3.45172 5.29782,-12.121973 -0.254,-13.515393 -0.38389,-0.09635 -0.86211,-0.339312 -1.06272,-0.539917 -1.41004,-1.410046 -6.48557,-1.85239 -9.0345,-0.787379 -1.32245,0.552556 -2.1785,0.503082 -2.1785,-0.125902 0,-1.131768 6.10864,-1.933691 9.45885,-1.241729 0.89097,0.184023 1.12483,0.156552 1.12615,-0.132291 8e-4,-0.200502 0.32834,-0.569566 0.72761,-0.820145 0.39926,-0.250579 1.38077,-0.939128 2.18114,-1.53011 2.22573,-1.643462 3.54217,-2.206736 4.77193,-2.041789 0.57689,0.07738 1.0489,0.03295 1.0489,-0.09872 0,-0.131673 0.67866,-0.239406 1.50812,-0.239406 1.17176,0 1.43742,-0.07071 1.1911,-0.317034 -0.17437,-0.174369 -0.74133,-0.305007 -1.25991,-0.290306 -1.27044,0.03601 -1.01347,-5.744472 0.49243,-11.077253 0.70763,-2.50587 7.59703,-3.853598 9.74805,-1.906947 0.62705,0.567476 0.67497,4.975048 0.0974,8.961332 -0.54488,3.760769 -0.55489,3.665495 0.33662,3.204477 1.05693,-0.546558 2.64904,-0.799671 3.03647,-0.482738 0.21771,0.178099 0.81886,0.18278 1.78973,0.01394 3.68253,-0.640437 5.18185,2.904463 3.29119,7.781512 -0.13724,0.354005 -0.0441,0.463021 0.39554,0.463021 1.21344,0 -0.19695,10.812854 -1.82911,14.022917 -0.17261,0.339494 -1.57282,0.407667 -9.68461,0.471521 -11.58226,0.09118 -11.62266,0.116354 -5.012,3.123655 0.78901,0.358934 0.93335,0.507707 0.56721,0.584618 -0.27012,0.05674 -0.62135,-0.02706 -0.78052,-0.186232 -0.15917,-0.159168 -0.47394,-0.289764 -0.6995,-0.290211 -0.22556,-5.29e-4 -1.23466,-0.416131 -2.24244,-0.923739 -1.00779,-0.507609 -1.88712,-0.868143 -1.95407,-0.801193 -0.20778,0.207782 0.71598,1.430808 1.43807,1.903934 0.37785,0.247578 1.01065,0.773792 1.40623,1.169368 1.85748,1.857486 4.66475,0.791221 5.60387,-2.12848 0.49376,-1.535078 1.29136,-2.190163 1.29136,-1.060617 0,2.038355 -3.95261,5.958782 -7.60447,7.542548 -1.62064,0.702853 -1.62064,0.702853 -1.46844,2.518379 0.24516,2.924281 -0.67749,5.420207 -3.14626,8.511187 -0.74121,0.92802 -0.62136,1.01581 0.9088,0.66566 2.24357,-0.51341 3.52387,1.30849 2.17383,3.0934 -0.23737,0.31383 -0.38846,1.10757 -0.38846,2.04073 0,4.60154 -2.95836,8.31604 -7.54063,9.46795 -0.7276,0.18291 -1.44424,0.36617 -1.59252,0.40725 -0.14829,0.0411 -0.94331,-0.24647 -1.76672,-0.63897 z m 4.81194,-1.15442 c 2.78237,-0.74325 4.9455,-4.22293 4.68831,-7.54179 -0.11451,-1.47758 -0.0571,-1.75401 0.50288,-2.41945 0.76107,-0.90448 0.83743,-2.0147 0.15092,-2.19422 -0.93944,-0.24567 -2.24848,0.40819 -2.4669,1.2322 -0.18309,0.69074 -0.61928,1.19788 -1.03994,1.20913 -0.0834,0.002 -0.14292,-0.59549 -0.13229,-1.32826 0.0438,-3.01686 -6.10723,-0.90671 -7.13624,2.44814 -0.10188,0.33218 -0.2781,0.72302 -0.3916,0.86854 -0.94853,1.2162 -1.5744,5.68854 -0.79605,5.68854 0.11507,0 0.35718,0.35719 0.53801,0.79375 0.18083,0.43657 0.34867,0.79375 0.37298,0.79375 0.0243,0 0.69448,0.23524 1.48926,0.52275 1.46625,0.53041 1.99582,0.52124 4.22066,-0.0731 z m -2.24756,-2.30355 c -0.21471,-0.34741 0.89508,-1.90507 1.2686,-1.78057 0.5092,0.16974 0.47945,0.61816 -0.0889,1.34075 -0.59086,0.75115 -0.91302,0.87126 -1.17967,0.43982 z m -0.25417,-2.89358 c -0.36657,-0.59312 1.11676,-2.54904 1.58104,-2.08476 0.21746,0.21745 -0.71903,2.13873 -1.10307,2.26304 -0.16857,0.0546 -0.38366,-0.0257 -0.47797,-0.17828 z m 2.76883,-0.3515 c 0,-0.80822 0.94708,-1.7327 1.35607,-1.32371 0.38357,0.38357 -0.27099,1.75459 -0.89507,1.87478 -0.33567,0.0646 -0.461,-0.0852 -0.461,-0.55107 z m 9.05213,-21.059666 c 0.91455,-0.692563 0.45245,-1.887204 -0.72998,-1.887204 -0.0913,0 -0.89826,-0.714375 -1.7933,-1.5875 -1.70447,-1.662729 -2.76949,-2.094323 -2.44837,-0.992187 0.0954,0.327421 0.24687,1.000434 0.33661,1.495581 0.41607,2.295707 3.18404,4.070122 4.63504,2.97131 z m -4.8573,-6.100897 c 1.22851,-0.626735 1.41981,-1.077974 0.45702,-1.077974 -0.91337,0 -1.47685,-0.263175 -1.47685,-0.689766 0,-0.570412 -0.29997,-0.438364 -1.5875,0.698826 -1.89267,1.671666 -0.0527,2.425975 2.60733,1.068914 z m 18.03615,-2.351593 c 2.25493,-0.0493 2.25493,-0.0493 2.69148,-0.909193 0.89176,-1.756585 1.86792,-7.853765 1.63085,-10.186458 -0.18841,-1.853894 -0.27434,-1.927818 -1.15331,-0.992188 -0.84263,0.896932 -3.43959,0.996815 -3.43959,0.132292 0,-0.459679 0.17639,-0.529167 1.34327,-0.529167 2.40488,0 3.44838,-1.840108 3.07808,-5.427924 -0.19447,-1.884247 -0.79735,-2.774159 -1.87936,-2.774159 -1.59702,0 -1.90917,0.479819 -1.74547,2.683039 0.34981,4.708136 -2.13219,7.757305 -4.91462,6.037667 -1.6543,-1.022413 -2.08012,-3.473889 -1.14536,-6.593856 0.34046,-1.136354 1.22537,-1.583102 0.93731,-0.473204 -0.73961,2.849721 -0.79182,3.349648 -0.46408,4.44355 1.17533,3.922884 4.50517,2.431348 4.52163,-2.025373 0.0133,-3.605852 -0.51219,-4.549285 -2.1454,-3.851605 -1.06884,0.456586 -1.94104,0.540012 -2.26446,0.216596 -0.0726,-0.07263 -0.002,-1.78494 0.15654,-3.80513 0.67585,-8.601942 0.66113,-8.6508 -2.62183,-8.703955 -4.47365,-0.07243 -5.7457,0.979067 -6.36509,5.261462 -0.422,2.917732 -0.38244,3.106642 0.65067,3.106642 0.89951,0 1.48109,-0.805368 1.48109,-2.051016 0,-0.63782 2.09374,-4.899752 2.67152,-5.438036 0.67437,-0.628267 1.00398,-0.355 0.51081,0.423481 -1.00488,1.586204 -2.24495,4.499287 -2.69249,6.325018 -0.53194,2.170044 -0.636,3.203247 -0.92065,9.141074 -0.17824,3.718266 -0.89211,5.795028 -0.89211,2.595303 0,-0.646255 -0.11906,-1.248595 -0.26458,-1.338532 -0.14552,-0.08994 -0.26458,-0.416711 -0.26458,-0.726168 0,-1.506746 -1.73627,-2.222156 -2.63136,-1.084223 -0.88224,1.121588 -2.1155,6.742208 -1.61415,7.35656 0.45253,0.554535 0.68671,2.701753 0.47722,4.375706 -0.64309,5.138584 -1.16385,4.742844 6.34797,4.824023 6.71446,0.07256 7.05917,0.07218 10.92005,-0.01222 z m -0.62334,-3.929854 c -0.097,-0.09701 -0.17639,-0.394668 -0.17639,-0.661458 0,-0.703405 -1.69807,-0.670994 -2.31035,0.0441 -1.10055,1.285346 -1.41567,0.467225 -0.57304,-1.48772 2.16114,-5.013942 2.27848,-5.060871 3.23627,-1.294236 0.86946,3.419274 0.81882,4.394628 -0.17649,3.399316 z m -0.84063,-2.200359 c 0.24609,-0.398185 -0.1579,-2.198611 -0.43187,-1.924646 -0.32618,0.326184 -0.74158,1.846345 -0.55541,2.032521 0.24005,0.240049 0.81079,0.177687 0.98728,-0.107875 z m 2.69271,2.200359 c -0.097,-0.09701 -0.17639,-1.31853 -0.17639,-2.714479 0,-2.317967 -0.0498,-2.569194 -0.57425,-2.896717 -0.85007,-0.530878 -0.0202,-0.908891 1.49609,-0.681506 1.88146,0.282141 2.17852,0.967812 0.53337,1.231146 -0.4809,0.07698 -0.53608,0.319712 -0.60489,2.661322 -0.0699,2.377856 -0.20722,2.866951 -0.67393,2.400234 z m -15.13771,-1.741839 c 0.61606,-4.162076 2.51649,-6.932822 2.52995,-3.688551 0.007,1.57543 0.38462,1.845574 0.87338,0.624041 1.13119,-2.827126 2.02334,-2.226141 2.02894,1.366766 0.005,3.199664 -0.60736,3.60444 -0.73515,0.485955 -0.10541,-2.57248 -0.63713,-2.396413 -1.4578,0.482722 -0.53561,1.879054 -1.24149,1.778508 -1.24663,-0.177576 -0.005,-1.708126 -0.37278,-2.704277 -0.6647,-1.79792 -0.0924,0.286962 -0.27743,0.795242 -0.41111,1.129511 -0.13368,0.33427 -0.24306,1.07841 -0.24306,1.653646 0,0.779018 -0.1072,1.045885 -0.42013,1.045885 -0.34399,0 -0.38997,-0.203787 -0.25369,-1.124479 z m 6.81215,0.542396 c -0.93804,-0.938049 -0.23647,-5.177147 0.87313,-5.275628 1.31007,-0.116274 2.28897,0.04881 2.17987,0.367607 -0.0701,0.204946 -0.47372,0.298537 -1.06118,0.246084 -0.7507,-0.06703 -1.0115,0.03404 -1.25321,0.485682 -0.38535,0.720034 -0.25373,0.843476 0.98494,0.923708 1.40841,0.09123 1.39854,0.08753 1.39854,0.524219 0,0.216567 -0.20836,0.376296 -0.46302,0.354954 -1.64028,-0.137459 -1.95468,0.01479 -1.86885,0.904936 0.0729,0.756105 0.1867,0.869903 0.9428,0.942806 0.53264,0.05136 0.8599,0.227573 0.8599,0.463021 0,0.479446 -2.12478,0.530751 -2.59292,0.06261 z m -11.16541,4.28625 c 0,-0.145521 -0.0525,-0.264584 -0.11668,-0.264584 -0.0642,0 -0.19026,0.119063 -0.2802,0.264584 -0.0899,0.14552 -0.0374,0.264583 0.11668,0.264583 0.15411,0 0.2802,-0.119063 0.2802,-0.264583 z m -0.26459,-10.31875 c 0,-0.299371 -0.17639,-0.529167 -0.40618,-0.529167 -0.3242,0 -0.34902,0.106812 -0.12298,0.529167 0.15576,0.291041 0.33854,0.529166 0.40618,0.529166 0.0676,0 0.12298,-0.238125 0.12298,-0.529166 z m 0.26459,-1.559193 c 0,-0.129952 -0.18833,-0.308546 -0.41852,-0.396875 -0.59136,-0.226927 -0.63982,-0.209031 -0.63982,0.236276 0,0.220485 0.23519,0.396875 0.52917,0.396875 0.29104,0 0.52917,-0.106325 0.52917,-0.236276 z m -2.38125,-0.928213 c 0,-0.780161 -1.74729,-1.956555 -2.21354,-1.490303 -0.31537,0.315365 1.31081,1.913276 2.14739,2.110065 0.0364,0.0086 0.0661,-0.270335 0.0661,-0.619762 z m 0.37951,-2.371887 c 0.18513,-1.022837 0.18513,-1.022837 -0.62636,-0.445005 -0.96815,0.689388 -1.00454,0.901851 -0.21617,1.262232 0.71436,0.326554 0.61872,0.419319 0.84253,-0.817227 z m 2.61595,0.824397 c 0.1715,-0.181901 0.54685,-0.806979 0.83409,-1.389063 0.28725,-0.582083 0.56017,-1.132961 0.6065,-1.224171 0.18043,-0.355238 -0.85566,-0.495808 -1.67103,-0.226714 -0.70588,0.232963 -0.88922,0.457499 -1.03205,1.263962 -0.0955,0.53937 -0.23489,1.189033 -0.3097,1.443694 -0.16493,0.561467 1.06959,0.665345 1.57219,0.132292 z m 4.62465,-3.569351 c -0.32329,-0.389549 -1.69708,-0.44808 -1.92337,-0.08194 -0.0854,0.138218 0.0862,0.380532 0.38126,0.538475 0.29512,0.157943 0.53658,0.418682 0.53658,0.579419 0,0.160739 0.20836,0.445508 0.46302,0.632819 0.55579,0.408803 1.03736,-1.072512 0.54251,-1.668769 z m 0.26964,-2.669082 c 0.0711,-0.483299 -0.0445,-0.574588 -0.7276,-0.574588 -0.62546,0 -0.81215,0.117181 -0.81215,0.509767 0,0.92392 1.40464,0.983055 1.53975,0.06482 z m 0.31233,-1.649685 c 0,-0.456301 -0.14082,-0.532318 -0.85773,-0.463021 -1.28919,0.124616 -1.36607,1.008951 -0.0877,1.008951 0.77873,0 0.94544,-0.09627 0.94544,-0.54593 z m -34.13125,58.141657 c -4.25606,-1.21983 -8.51666,-6.3847 -8.4433,-10.23531 0.0668,-3.50576 3.28487,-5.8095 5.29683,-3.79186 0.77753,0.77972 0.23234,1.40749 -0.74495,0.85777 -1.92724,-1.08406 -3.36289,0.0492 -3.35802,2.65077 0.0113,6.05068 9.41992,12.05699 14.22998,9.08421 2.83896,-1.75458 1.14056,-4.95939 -2.63699,-4.9759 -4.4095,-0.0193 -7.11266,-1.96939 -6.9352,-5.00318 0.0883,-1.50952 -0.35579,-1.37657 4.04686,-1.2116 1.74842,0.0655 1.79285,0.0821 0.79375,0.29644 -0.58209,0.12488 -1.68164,0.20863 -2.44345,0.18611 -1.71537,-0.0507 -1.77673,0.0113 -1.26848,1.28152 0.84864,2.12096 3.88808,3.67446 6.38811,3.26504 0.85643,-0.14025 1.58294,-0.25569 1.61446,-0.25654 0.0315,-7.9e-4 0.66058,-0.53731 1.3979,-1.19216 2.04023,-1.81201 2.51359,-1.62645 0.80437,0.31532 -1.04771,1.19026 -1.04771,1.19026 -0.38523,2.45723 2.44823,4.68214 -2.07061,8.07379 -8.35664,6.27214 z m 4.5466,-2.89824 c -0.74521,-1.79795 -0.73385,-2.40928 0.0258,-1.39094 0.45644,0.61184 1.21767,2.27511 1.24441,2.71897 0.038,0.63041 -0.83819,-0.2856 -1.27025,-1.32803 z m 7.49194,-6.74017 c -1.82285,-0.11114 -2.36672,-0.44792 -1.6171,-1.00133 0.37183,-0.27451 0.63337,-0.29721 1.02281,-0.0888 0.28777,0.15401 1.42192,0.2387 2.52033,0.18818 1.37599,-0.0633 2.02987,0.006 2.10245,0.22193 0.0991,0.29518 -1.58508,0.93387 -2.17641,0.82536 -0.14552,-0.0267 -0.97895,-0.0921 -1.85208,-0.14535 z m -32.014583,-4.21194 c -3.583143,-0.77238 -5.052506,-5.121647 -2.224393,-6.584121 2.290609,-1.184521 6.573713,-0.880769 16.048876,1.138169 0.88029,0.187571 0.78103,1.066974 -0.1323,1.172064 -0.74625,0.08586 -0.91997,1.021438 -0.30785,1.657988 0.42894,0.44606 0.25901,0.67469 -0.50147,0.67469 -0.40875,0 -0.96841,0.16469 -1.24369,0.36598 -0.36345,0.26576 -0.62155,0.29039 -0.94253,0.0899 -0.32232,-0.20129 -0.73934,-0.15709 -1.5398,0.16319 -0.60377,0.24158 -1.42873,0.43923 -1.83324,0.43923 -0.40451,0 -0.84859,0.11012 -0.98683,0.2447 -0.49137,0.47835 -4.980787,0.93048 -6.336773,0.63818 z m 1.455208,-2.32086 c 0,-0.64537 0.101629,-1.449044 0.225841,-1.785938 0.807618,-2.190454 0.182934,-2.607815 -2.638162,-1.762593 -1.834731,0.549698 -1.723799,3.035901 0.183932,4.122271 1.698605,0.96727 2.228389,0.83087 2.228389,-0.57374 z m 1.854995,-0.37881 c 0.0016,-0.67425 0.07671,-1.672399 0.166911,-2.218103 0.214777,-1.299397 -0.531926,-1.406853 -0.919291,-0.132291 -0.730809,2.404604 -0.628733,3.936714 0.247023,3.707694 0.401754,-0.10506 0.503029,-0.37707 0.505357,-1.3573 z m 3.83355,0.75942 c 3.87249,-0.78857 2.36088,-3.96971 -1.88632,-3.96971 -0.908352,0 -1.662541,2.377903 -1.246784,3.93101 0.180663,0.67488 0.01879,0.67289 3.133104,0.0387 z m 3.525,-1.822709 c 0.0997,-1.0404 -0.36214,-1.706017 -0.75384,-1.086456 -0.13724,0.217064 -0.25134,0.790348 -0.25357,1.273958 -0.006,1.247977 0.88575,1.082047 1.00741,-0.187502 z m 1.75086,0.07074 c 0.20042,-0.798561 0.19188,-0.814134 -0.51336,-0.935813 -0.42698,-0.07367 -0.54518,0.07476 -0.61208,0.768596 -0.10802,1.120286 0.85049,1.262706 1.12544,0.167217 z m 6.01808,3.323979 c -1.00978,-0.40499 -0.42274,-0.71302 0.93361,-0.48989 0.69641,0.11456 1.76519,0.21539 2.37506,0.22406 0.60988,0.009 1.18245,0.13484 1.27239,0.28036 0.20952,0.33902 -3.73069,0.32652 -4.58106,-0.0145 z m 12.57903,0.1191 c -0.25271,-0.2527 0.30622,-0.89832 0.7777,-0.89832 1.71308,0 2.18236,-2.671495 0.70501,-4.013398 -0.53369,-0.484764 -1.28154,-1.206812 -1.66187,-1.60455 -0.73385,-0.767426 -1.34712,-0.765492 -4.51775,0.01426 -2.38049,0.585436 -2.51319,0.931728 -0.91981,2.400448 0.65484,0.603613 1.19062,1.22734 1.19062,1.38606 0,0.39661 -1.85646,0.0351 -2.42131,-0.471556 -1.30796,-1.173118 -7.27687,-0.455819 -6.32083,0.759586 1.22015,1.55118 0.0264,1.76284 -1.5362,0.27238 -2.48693,-2.372123 -2.12703,-6.354171 0.73813,-8.166805 0.66183,-0.418703 1.82378,-1.386716 2.58212,-2.15114 0.75834,-0.764423 1.53281,-1.389954 1.72105,-1.390067 0.18824,-1.14e-4 0.81036,-0.416833 1.3825,-0.926042 0.57214,-0.509209 1.19722,-0.925835 1.38906,-0.925835 0.55573,0 0.40342,0.829011 -0.18035,0.98167 -0.78224,0.204563 -0.64216,0.803553 0.23288,0.995741 0.80997,0.1779 1.02753,2.159682 0.31526,2.871943 -0.54553,0.545532 -0.26957,0.635241 1.55298,0.504839 1.43892,-0.102955 1.92584,-0.04211 2.24896,0.281011 0.60626,0.60625 0.55806,0.626806 -1.17569,0.501396 -1.69817,-0.122836 -3.03241,0.255513 -3.29265,0.933693 -0.12963,0.33782 0.0138,0.380122 0.84089,0.248084 0.54844,-0.08755 1.86956,-0.240136 2.93582,-0.339087 1.81486,-0.168421 1.92732,-0.215376 1.7612,-0.735327 -0.55267,-1.729833 -0.31583,-3.068969 0.54278,-3.068969 0.27742,0 0.38757,0.308655 0.38757,1.086054 0,1.536433 1.09649,3.564819 2.7951,5.170609 1.71928,1.625338 1.98309,2.477691 1.22467,3.956942 -0.85249,1.66274 -2.67549,2.94873 -3.29784,2.32638 z m -7.99131,-4.552874 c -0.18886,-0.190056 -6.04171,-0.512374 -6.49608,-0.357741 -0.85337,0.290428 0.38853,0.576316 2.60243,0.599088 1.41024,0.0145 2.86173,0.111501 3.22553,0.215543 0.64093,0.183298 1.03588,-0.08679 0.66812,-0.45689 z M 117.92452,97.6974 c -0.011,-0.901501 -0.47554,-1.059844 -3.50066,-1.193342 -2.22618,-0.09824 -3.08825,-0.04788 -3.23462,0.188955 -0.36264,0.586767 0.2511,0.800087 2.78182,0.966878 1.37627,0.0907 2.55191,0.210663 2.61255,0.266578 0.27232,0.251124 1.34455,0.06795 1.34091,-0.229069 z m 4.76655,-1.88896 c 0.65485,-0.07407 1.45852,-0.140719 1.78594,-0.148114 0.36825,-0.0083 0.59531,-0.177853 0.59531,-0.444498 0,-0.408522 -1.41258,-0.407969 -3.43958,0.0013 -1.99854,0.403569 -2.40588,0.520087 -2.53208,0.724279 -0.34107,0.55187 0.21533,0.710551 1.28001,0.365043 0.61588,-0.199864 1.65556,-0.42399 2.3104,-0.49806 z m -4.91958,0.03688 c 0.20332,-0.739775 0.62373,-3.246564 0.55676,-3.319804 -0.29449,-0.322053 -3.97126,-0.02921 -4.58504,0.365181 -2.9582,1.900849 -3.04384,2.974268 -0.24641,3.088505 1.20055,0.04903 2.63303,0.113371 3.1833,0.142991 0.61489,0.0331 1.03553,-0.07361 1.09139,-0.276873 z m 1.3194,-4.321119 c 0.3122,-0.813586 0.17584,-0.96756 -0.6993,-0.789583 -0.47294,0.09618 -1.24685,0.241784 -1.71979,0.323559 -1.61903,0.279945 -0.87531,0.767392 1.29461,0.848508 0.65902,0.02463 1.01467,-0.09634 1.12448,-0.382484 z m 2.42701,10.681899 c -0.52969,-0.75625 -0.1117,-1.27173 0.64702,-0.7979 0.81631,0.50979 1.83625,0.38193 2.69107,-0.33735 0.82501,-0.69421 1.92782,-0.90395 1.73896,-0.33073 -0.53391,1.62051 -4.22276,2.68565 -5.07705,1.46598 z m 18.14441,0.34898 c -0.53655,-0.33997 0.0686,-0.60794 0.90111,-0.399 0.51499,0.12925 0.60517,0.23469 0.3429,0.40091 -0.45099,0.28583 -0.79073,0.2853 -1.24401,-0.002 z m -1.46027,-1.29881 c -0.0876,-0.14166 0.10737,-0.329 0.43316,-0.41632 0.96397,-0.25836 3.37046,-0.18796 3.37046,0.0986 0,0.14552 -0.56555,0.26621 -1.25677,0.2682 -0.69123,0.002 -1.51123,0.0719 -1.82223,0.15534 -0.311,0.0834 -0.63708,0.0358 -0.72462,-0.10582 z m -2.96832,-3.797854 c -0.0762,-0.123219 0.67224,-0.22465 1.66309,-0.225401 0.99086,-7.94e-4 2.99218,-0.07553 4.44739,-0.166172 1.78966,-0.111474 2.56021,-0.07786 2.38125,0.103873 -0.32482,0.329843 -8.29872,0.600001 -8.49173,0.2877 z m -0.90098,-1.392084 c 0,-0.274124 0.51339,-0.415449 1.91823,-0.528045 3.54322,-0.283985 7.32944,-0.299032 7.26846,-0.02889 -0.0341,0.150921 -1.55227,0.278704 -3.63044,0.305567 -1.96453,0.0254 -3.90705,0.176559 -4.3167,0.33592 -0.98436,0.382924 -1.23955,0.365514 -1.23955,-0.08455 z m 1.05833,-1.421167 c 0,-0.637974 6.04823,-1.17017 7.39802,-0.650968 0.48325,0.185883 -0.26718,0.287785 -2.91041,0.395206 -1.95886,0.07961 -3.76992,0.229251 -4.02459,0.332544 -0.25749,0.104439 -0.46302,0.07035 -0.46302,-0.07678 z m -1.85208,-6.942651 c 0,-0.293002 2.89657,-0.29477 4.10104,-0.0024 0.53,0.128606 -0.0195,0.203837 -1.65364,0.226412 -1.43487,0.01982 -2.4474,-0.07282 -2.4474,-0.223912 z M 118.0393,86.306347 c -4.78659,-3.293769 -5.17468,-8.170087 -1.00316,-12.604441 1.76501,-1.876216 1.93407,-2.149438 1.78652,-2.887186 -0.11595,-0.579758 2.7e-4,-1.091652 0.40306,-1.774208 0.42019,-0.712169 0.54755,-1.310921 0.49434,-2.323886 -0.0934,-1.77777 0.91445,-1.863233 3.52895,-0.299252 0.93006,0.556355 1.95891,1.172091 2.28633,1.368296 1.97525,1.183658 -0.0123,1.095602 -2.30528,-0.10213 -2.13022,-1.112731 -2.48746,-1.015301 -2.12365,0.579195 0.49621,2.174792 -0.006,3.558706 -1.56064,4.304127 -0.95574,0.45814 -0.95574,0.45814 0.43332,0.538113 1.88696,0.108638 1.74529,0.393533 -0.39687,0.798089 -2.1648,0.408831 -3.34112,1.267169 -1.38906,1.013574 0.65484,-0.08507 1.66994,-0.256734 2.25578,-0.381471 0.58584,-0.124736 1.21092,-0.178208 1.38907,-0.118827 0.74801,0.24934 0.20169,0.50723 -1.72663,0.815051 -2.51821,0.40199 -4.10007,0.899562 -4.24534,1.335381 -0.0789,0.236617 0.13973,0.288322 0.77798,0.184002 1.69043,-0.276296 3.64493,-0.287869 3.64939,-0.02162 0.002,0.145521 -0.3203,0.272079 -0.71718,0.281241 -2.85697,0.06596 -4.50732,0.70063 -4.42868,1.703134 0.12318,1.57027 0.43454,1.917917 1.56046,1.742302 1.98516,-0.309634 2.66875,-0.353957 3.40337,-0.220668 1.27996,0.232238 0.77973,0.595043 -0.82041,0.595043 -1.62107,0 -3.21448,0.408937 -3.21448,0.824973 0,0.144008 1.01468,0.172715 2.47545,0.07004 1.70018,-0.119513 2.53219,-0.08218 2.65665,0.119192 0.18672,0.302114 -0.69629,0.616074 -1.42793,0.507714 -0.75471,-0.111778 -2.91042,0.363614 -2.91042,0.641821 0,0.161105 0.25184,0.210812 0.59531,0.117499 1.28086,-0.347983 4.09532,-0.494903 4.26363,-0.222573 0.10263,0.166053 -0.25095,0.337632 -0.88907,0.431432 -0.5827,0.08566 -1.5357,0.225735 -2.11779,0.311288 -1.3717,0.201604 -1.33479,0.421542 0.27204,1.621152 2.204,1.645441 1.32085,2.619711 -0.95506,1.053603 z m 10.47261,-4.799063 c 0,-0.22687 0.11906,-0.412491 0.26458,-0.412491 0.14552,0 0.26458,0.112035 0.26458,0.248968 0,0.136932 -0.11906,0.322553 -0.26458,0.412491 -0.14552,0.08994 -0.26458,-0.02209 -0.26458,-0.248968 z m -1.05834,-0.941657 c -0.33917,-0.219189 -0.32955,-0.257069 0.0662,-0.260533 0.25466,-0.0021 0.46302,0.115012 0.46302,0.260533 0,0.322688 -0.0298,0.322688 -0.52917,0 z m 7.40834,-0.233175 c 0,-0.367855 -0.30545,-0.574667 -1.17042,-0.792469 -2.98735,-0.752224 -2.5261,-5.853523 0.52926,-5.853523 0.20712,0 0.37657,-0.164708 0.37657,-0.366017 0,-0.201308 0.23813,-0.428286 0.52917,-0.504396 0.29104,-0.07611 0.52917,-0.338042 0.52917,-0.582073 0,-0.546555 0.52416,-0.404709 0.90714,0.245481 0.21011,0.356732 0.19789,0.512429 -0.0473,0.601612 -0.5752,0.209267 -0.36266,0.510627 0.6972,0.988555 0.91465,0.412453 1.61791,1.287621 1.61791,2.013421 0,0.830466 -1.21242,2.711741 -1.90271,2.952379 -0.41756,0.145561 -0.93724,0.608939 -1.15483,1.029724 -0.4502,0.870577 -0.91121,1.005819 -0.91121,0.267306 z m 1.32291,-3.867867 c 0,-1.080786 -1.07102,-1.361924 -1.57819,-0.414269 -0.51958,0.970854 -0.33982,1.340311 0.65215,1.340311 0.88194,0 0.92604,-0.0441 0.92604,-0.926042 z m -6.75508,3.823171 c -0.25141,-0.406792 0.093,-0.669256 0.43255,-0.329666 0.19001,0.190019 0.19458,0.338011 0.0139,0.449697 -0.14814,0.09156 -0.34904,0.03754 -0.44642,-0.120031 z m -3.0345,-6.204421 c 0,-0.375801 0.5802,-0.519904 1.65365,-0.410713 0.51564,0.05245 0.61958,-0.517514 0.17538,-0.961715 -0.5861,-0.586103 0.2328,-0.588338 0.91459,-0.0024 1.3226,1.13648 0.75112,1.760574 -1.61914,1.768192 -0.82476,0.0026 -1.12448,-0.102175 -1.12448,-0.393264 z"
       style="fill:#000000;stroke-width:0.264583" />
  </g>
</svg>
