<?xml version="1.0" encoding="UTF-8" standalone="no"?>
<svg
   xmlns:dc="http://purl.org/dc/elements/1.1/"
   xmlns:cc="http://creativecommons.org/ns#"
   xmlns:rdf="http://www.w3.org/1999/02/22-rdf-syntax-ns#"
   xmlns:svg="http://www.w3.org/2000/svg"
   xmlns="http://www.w3.org/2000/svg"
   xmlns:sodipodi="http://sodipodi.sourceforge.net/DTD/sodipodi-0.dtd"
   xmlns:inkscape="http://www.inkscape.org/namespaces/inkscape"
   width="210mm"
   height="297mm"
   viewBox="0 0 210 297"
   version="1.1"
   id="svg8"
   sodipodi:docname="monocle-color.svg"
   inkscape:version="1.0.1 (3bc2e813f5, 2020-09-07)">
  <defs
     id="defs2" />
  <sodipodi:namedview
     id="base"
     pagecolor="#ffffff"
     bordercolor="#666666"
     borderopacity="1.0"
     inkscape:pageopacity="0.0"
     inkscape:pageshadow="2"
     inkscape:zoom="0.41828931"
     inkscape:cx="62.988862"
     inkscape:cy="502.4224"
     inkscape:document-units="mm"
     inkscape:current-layer="layer1"
     inkscape:document-rotation="0"
     showgrid="false"
     inkscape:window-width="943"
     inkscape:window-height="1034"
     inkscape:window-x="10"
     inkscape:window-y="34"
     inkscape:window-maximized="0" />
  <metadata
     id="metadata5">
    <rdf:RDF>
      <cc:Work
         rdf:about="">
        <dc:format>image/svg+xml</dc:format>
        <dc:type
           rdf:resource="http://purl.org/dc/dcmitype/StillImage" />
        <dc:title></dc:title>
      </cc:Work>
    </rdf:RDF>
  </metadata>
  <g
     inkscape:label="Layer 1"
     inkscape:groupmode="layer"
     id="layer1">
    <path
       style="fill:#e8a53d;stroke:#d3d300;stroke-width:0.965999;stroke-linecap:square;stroke-opacity:0;paint-order:markers stroke fill;fill-opacity:1"
       d="m 73.32211,176.35334 c 0,0 -0.237884,1.49433 0.129434,1.93925 0.367319,0.44493 2.506509,3.20209 2.506509,3.20209 l 2.082255,0.57451 2.315348,-0.5429 0.855654,-1.1118 0.286301,-2.25981 -1.551797,-3.23099 1.836126,-0.0144 3.74854,-0.0696 0.94855,1.2483 c 0,0 -0.969886,0.0759 -0.985446,0.58692 -0.01556,0.51104 0.236741,2.21106 0.236741,2.21106 l 0.366728,1.51672 3.745381,0.16799 1.64765,-1.421 1.997919,-2.38499 0.632791,-2.44974 0.0491,-1.41087 1.015871,-0.25601 1.854993,-0.60305 0.701106,-0.78805 -2.264251,-1.93842 1.931765,-0.93229 4.205322,0.17571 0.79034,-0.17834 0.49132,-0.0148 -0.0568,-1.70273 -1.22458,-0.54162 -3.948575,-0.42336 c 0,0 -3.59509,0.65889 -3.558874,0.81384 0.03622,0.15495 -1.051192,-1.88036 -1.051192,-1.88036 0,0 0.385011,0.98379 0.64098,0.94784 0.255971,-0.036 1.792287,-0.97025 1.792287,-0.97025 0,0 0.766874,-2.21293 0.630605,-2.39933 -0.136265,-0.1864 -2.090351,-0.86214 -2.090351,-0.86214 l -2.131652,-0.75154 0.986089,-1.43572 1.197924,-1.59956 0.19199,-4.13457 -1.337784,-2.68036 -0.114654,-3.09989 -2.611726,0.97002 c 0,0 -1.25199,-0.12429 -1.482095,-0.23216 -0.230106,-0.10786 -1.953041,-0.599 -1.953041,-0.599 0,0 -2.602042,1.06999 -2.945032,1.0628 -0.342987,-0.007 -1.98397,-0.33586 -2.134386,-0.37145 -0.150413,-0.0356 -1.810633,-0.28205 -1.781868,-0.0376 0.02876,0.24449 -0.400677,1.95318 -0.400677,1.95318 l -1.883291,1.82796 -1.326819,1.95347 -0.3566,2.32733 1.308724,3.01585 1.0721,1.63197 -2.094907,0.25191 -1.33893,-0.10226 -0.919149,1.28896 0.441505,2.21665 0.107863,1.11265 -0.693373,1.64409 -0.05024,2.36918 1.069983,1.87928 c 0,0 1.40766,1.27855 1.285885,1.71387 -0.121777,0.43531 -0.70276,0.52168 -0.70276,0.52168 0,0 -1.375346,-0.30782 -1.497589,-0.31501 -0.122243,-0.007 -1.118121,0.86645 -1.118121,0.86645 l 0.463351,1.30566 z"
       id="path849" />
    <path
       style="fill:#ffffff;fill-opacity:1;stroke:#d3d300;stroke-width:0.965999;stroke-linecap:square;stroke-opacity:0;paint-order:markers stroke fill"
       d="m 82.297285,153.64602 0.148291,1.41641 2.798656,0.30705 1.706634,0.70743 1.365888,-0.51168 0.711658,-1.11354 0.399616,-2.0509 -0.712661,-2.17408 -0.932405,-0.48634 -1.447247,0.51102 -1.804233,2.27115 -0.503579,0.34769 z"
       id="path851" />
    <path
       style="fill:#000000;stroke-width:0.264583"
       d="m 80.030345,184.0685 c -1.736799,-0.47995 -2.136061,-0.70526 -0.934358,-0.52726 0.577509,0.0855 1.410946,0.31413 1.852084,0.50798 1.002503,0.44053 0.634619,0.44826 -0.917726,0.0193 z m -8.110128,-1.01272 c -0.129746,-0.20901 0.741923,-0.29813 2.289294,-0.23407 0.509323,0.0211 1.132864,-0.1231 1.385647,-0.32041 0.42422,-0.33114 0.375896,-0.44676 -0.62769,-1.50174 -1.063376,-1.11785 -1.81629,-2.48294 -1.81629,-3.2931 0,-0.69364 0.463589,-0.44499 0.761005,0.40818 0.881533,2.52877 3.683609,4.15594 5.703441,3.312 1.09702,-0.45836 1.473054,-1.10399 1.473054,-2.52915 0,-1.54336 -0.571929,-2.71568 -1.985769,-4.07038 -1.400043,-1.34147 -2.018639,-1.59045 -2.698287,-1.08602 -0.400924,0.29756 -0.423553,0.43756 -0.14459,0.89446 0.181901,0.29793 0.330729,0.66237 0.330729,0.80987 0,0.50658 -0.781846,0.26772 -1.196848,-0.36565 -0.712666,-1.08767 -2.242735,-1.15224 -2.242735,-0.0946 0,0.29581 0.196784,0.68172 0.437298,0.85759 0.240511,0.17587 0.355322,0.4524 0.255132,0.61451 -0.266774,0.43165 -1.407469,-0.14949 -1.578702,-0.80429 -0.358469,-1.37078 1.072454,-2.68236 2.310839,-2.11812 0.537305,0.24481 0.713541,0.19228 1.188873,-0.35441 0.804929,-0.92574 1.828337,-0.82861 3.327112,0.31579 l 1.254146,0.95762 2.860699,-0.0455 c 1.7663,-0.0281 2.926557,0.061 3.03285,0.23302 0.09468,0.15319 0.700905,0.27854 1.347161,0.27854 0.646255,0 1.175009,0.11906 1.175009,0.26458 0,0.14552 -0.409691,0.26459 -0.910426,0.26459 -1.275064,0 -1.377593,0.39406 -0.194736,0.74846 1.411148,0.42279 2.768452,-0.007 3.643101,-1.1538 0.795078,-1.04241 1.34992,-0.97974 0.793523,0.0896 -0.737926,1.41825 -1.637798,1.99526 -3.268941,2.09609 -1.758908,0.10873 -2.682507,-0.27543 -3.185813,-1.32509 -0.335333,-0.69936 -0.408819,-0.71987 -2.579688,-0.71987 -1.228984,0 -2.23452,0.0654 -2.23452,0.14543 0,0.08 0.197308,0.52648 0.438462,0.99219 0.396928,0.76655 0.569621,3.04756 0.314502,4.15405 -0.07285,0.31597 0.313034,0.42761 1.892869,0.54765 l 1.984375,0.15077 -2.167197,0.0477 c -2.56486,0.0564 -3.104946,0.46448 -0.945229,0.71417 2.371916,0.27422 3.447677,0.66896 1.260343,0.46246 -1.018646,-0.0962 -2.090209,-0.15254 -2.38125,-0.12528 -0.291042,0.0273 -1.541198,0.12743 -2.778125,0.2226 -1.999978,0.15389 -2.169994,0.20625 -1.535703,0.47295 0.592545,0.24915 0.241345,0.29866 -2.075244,0.29253 -1.533673,-0.004 -2.843929,-0.0967 -2.911681,-0.20582 z m 10.425232,-0.10908 c 0.181901,-0.0734 0.479557,-0.0734 0.661458,0 0.181901,0.0734 0.03307,0.13345 -0.330729,0.13345 -0.363802,0 -0.51263,-0.0601 -0.330729,-0.13345 z m -1.5875,-0.26459 c 0.181901,-0.0734 0.479557,-0.0734 0.661458,0 0.181901,0.0734 0.03307,0.13346 -0.330729,0.13346 -0.363802,0 -0.51263,-0.0601 -0.330729,-0.13346 z m 5.55625,-0.0115 c 0.327422,-0.0631 0.863203,-0.0631 1.190625,0 0.327422,0.0631 0.05953,0.11467 -0.595312,0.11467 -0.654844,0 -0.922735,-0.0516 -0.595313,-0.11467 z m 2.052394,-0.86858 c -0.09269,-0.14998 0.01352,-0.19433 0.248968,-0.10398 0.45837,0.17589 0.542234,0.36554 0.16165,0.36554 -0.136933,0 -0.321712,-0.1177 -0.410618,-0.26156 z m -0.977524,-0.18377 c 0.190995,-0.0764 0.419198,-0.067 0.507119,0.0209 0.08792,0.0879 -0.06835,0.15045 -0.347266,0.13896 -0.308226,-0.0127 -0.370919,-0.0754 -0.159853,-0.15985 z m -1.46671,-0.26719 c 0.257432,-0.0671 0.614619,-0.0627 0.79375,0.01 0.179131,0.0725 -0.03149,0.12737 -0.468056,0.12197 -0.436562,-0.005 -0.583125,-0.0647 -0.325694,-0.13177 z m 7.766638,-0.26911 c -0.10333,-0.10333 -1.700752,-0.21079 -3.549825,-0.2388 -4.075348,-0.0617 -7.235434,-0.3577 -7.048519,-0.66013 0.07574,-0.12256 0.682183,-0.1482 1.347645,-0.057 1.164691,0.15964 1.198885,0.1452 0.91453,-0.38612 -0.319694,-0.59735 -0.393576,-2.13971 -0.1348,-2.81407 0.305128,-0.79515 0.585274,-0.41438 0.567354,0.77114 -0.01206,0.79731 0.140237,1.36448 0.461788,1.71979 0.660138,0.72944 1.00236,0.66563 1.413682,-0.26361 0.193241,-0.43656 0.474316,-0.79375 0.624612,-0.79375 0.265459,0 0.207394,0.43928 -0.183618,1.38906 -0.156274,0.3796 -0.04956,0.46302 0.592315,0.46302 0.973799,0 2.606977,-1.07628 2.507673,-1.65258 -0.04652,-0.26997 0.146828,-0.45664 0.529167,-0.51089 0.710046,-0.10075 2.057678,-2.52103 2.057678,-3.69549 0,-0.85549 -0.913702,-1.53525 -1.404239,-1.04471 -0.382225,0.38222 -0.994619,0.37064 -0.910866,-0.0172 0.03865,-0.17899 -0.29002,-0.31647 -0.790659,-0.33073 -1.437701,-0.0409 -0.965383,-0.54832 0.589179,-0.63291 0.802037,-0.0436 1.458251,-0.18568 1.458251,-0.31563 0,-0.12996 -0.892968,-0.18448 -1.984375,-0.12117 -1.121889,0.0651 -1.984375,0.009 -1.984375,-0.12956 0,-0.39933 0.960049,-0.58636 2.65488,-0.51719 0.875382,0.0357 1.713103,-0.0565 1.861603,-0.20504 0.148497,-0.1485 0.294367,-0.77854 0.324154,-1.40008 l 0.05415,-1.13008 -2.629202,0.0473 c -1.446059,0.026 -2.714074,0.0697 -2.817812,0.097 -0.103736,0.0273 -0.230283,-0.0694 -0.281215,-0.21494 -0.05632,-0.16092 1.047755,-0.31732 2.817812,-0.39918 1.966463,-0.0909 2.751738,-0.21065 2.421173,-0.3691 -0.269086,-0.12898 -1.679072,-0.16202 -3.133301,-0.0734 -2.345111,0.14287 -2.606374,0.11567 -2.310779,-0.2405 0.261102,-0.3146 0.882394,-0.39137 2.868719,-0.35447 1.394491,0.0259 2.535438,-0.057 2.535438,-0.18416 0,-0.12719 -1.339453,-0.19842 -2.976562,-0.15829 -1.685518,0.0413 -2.976563,-0.0325 -2.976563,-0.17013 0,-0.43042 0.783908,-0.56429 3.304162,-0.56429 2.336869,0 2.459826,-0.0279 2.328751,-0.52917 -0.160356,-0.6132 -5.29e-4,-0.58124 -3.251663,-0.65016 -2.762919,-0.0586 -3.343619,-0.446 -1.058333,-0.70608 l 1.455208,-0.16561 -1.836764,0.0131 c -1.181018,0.008 -1.873721,-0.0977 -1.940279,-0.29741 -0.05797,-0.17391 0.1485,-0.31053 0.469283,-0.31053 h 0.572794 l -0.568942,-0.92057 c -0.551307,-0.89203 -0.554503,-0.945 -0.103158,-1.70907 0.437751,-0.74105 0.438846,-0.81826 0.0182,-1.28308 -0.545367,-0.60262 -0.560758,-1.33937 -0.0423,-2.02483 0.514099,-0.6797 0.491027,-0.86811 -0.14819,-1.21021 -0.428853,-0.22952 -0.675188,-0.17824 -1.226307,0.25527 -0.379309,0.29837 -0.903441,0.54249 -1.164738,0.54249 -0.291238,0 -0.507802,0.23037 -0.559631,0.59531 -0.103166,0.7264 -0.639739,0.6404 -0.549746,-0.0881 0.04476,-0.36234 -0.21254,-0.6497 -0.856824,-0.95694 -1.505577,-0.71796 -1.551302,-2.76006 -0.07944,-3.54778 0.503697,-0.26957 0.522123,-0.34106 0.156763,-0.60822 -0.367782,-0.26892 -0.345089,-0.38919 0.203186,-1.07679 l 0.61721,-0.77406 0.26693,0.70208 c 0.146812,0.38614 0.658998,0.90073 1.138193,1.14353 1.34144,0.67969 1.797304,1.18616 1.797304,1.99684 0,1.51289 2.04112,1.69279 2.645709,0.23319 0.475139,-1.14709 0.210415,-3.34719 -0.486614,-4.04422 -0.462465,-0.46247 -0.687784,-0.51529 -1.291807,-0.30287 -0.4024,0.14152 -0.970518,0.63707 -1.262483,1.10123 -0.619496,0.98485 -0.927722,1.08752 -0.927722,0.309 0,-0.66535 1.389803,-2.03083 2.299351,-2.25911 0.95599,-0.23994 1.909315,0.30951 2.344605,1.3513 0.768837,1.84009 0.284115,4.43483 -0.983834,5.26652 -0.339577,0.22274 -0.84441,0.82711 -1.121852,1.34305 -0.484085,0.9002 -0.485437,0.95905 -0.03353,1.4584 0.338159,0.37366 0.419055,0.72808 0.286964,1.25723 -0.421513,1.68856 -0.332964,2.05478 0.515589,2.13234 1.399511,0.12792 2.010431,0.3327 1.83575,0.61534 -0.101166,0.16369 -0.577733,0.20665 -1.174292,0.10586 -0.609806,-0.10303 -1.072764,-0.0584 -1.179086,0.11362 -0.117518,0.19015 0.388268,0.28326 1.538708,0.28326 0.94257,0 1.902097,0.0723 2.13228,0.1606 0.264832,0.10162 0.418515,0.0176 0.418515,-0.22891 0,-0.21422 0.244213,-0.69997 0.542695,-1.07942 l 0.542695,-0.68993 -1.204154,-0.3032 c -1.399622,-0.35243 -1.496573,-0.60476 -0.44192,-1.15014 0.41923,-0.21679 1.092303,-0.78539 1.495719,-1.26356 l 0.733486,-0.8694 -1.363427,-0.08 c -1.824096,-0.10698 -1.749201,-0.58147 0.09177,-0.58147 1.096156,0 1.455208,-0.0949 1.455208,-0.38441 0,-0.3058 -0.270552,-0.35237 -1.322916,-0.22773 -0.820963,0.0972 -1.322917,0.0549 -1.322917,-0.11169 0,-0.283 1.212263,-0.59909 2.297647,-0.59909 0.3542,0 0.581004,-0.10193 0.504013,-0.2265 -0.07699,-0.12458 -0.738865,-0.16897 -1.470824,-0.0986 -0.804495,0.0773 -1.330836,0.0221 -1.330836,-0.13952 0,-0.32891 0.898787,-0.58526 2.068923,-0.59007 0.758661,-0.003 0.86678,-0.0847 0.79375,-0.59893 -0.0749,-0.52736 -0.258197,-0.60437 -1.605902,-0.67466 -1.866326,-0.0973 -2.03158,-0.58211 -0.198438,-0.58211 0.727605,0 1.322917,-0.11906 1.322917,-0.26458 0,-0.14552 -0.678656,-0.26458 -1.508125,-0.26458 -1.769303,0 -1.632651,-0.44162 0.185208,-0.59853 l 1.190625,-0.10278 -1.256771,-0.0462 c -1.421265,-0.0523 -1.706218,-0.49842 -0.399041,-0.62477 0.626475,-0.0606 0.874889,-0.22558 0.921377,-0.61208 0.035,-0.29104 -0.0037,-0.38034 -0.08603,-0.19844 -0.159424,0.35228 -1.164587,0.46663 -1.16292,0.1323 5.29e-4,-0.10914 0.245083,-0.59882 0.543425,-1.08818 0.663644,-1.08855 0.54261,-1.25988 -0.506688,-0.71727 -0.911968,0.4716 -1.360643,0.52877 -1.360643,0.17338 0,-0.41929 1.724414,-1.33045 2.65947,-1.40523 l 0.89472,-0.0716 0.03227,1.71979 c 0.02257,1.2024 0.219657,2.11779 0.655135,3.04271 0.465375,0.98842 0.624842,1.79272 0.630679,3.18093 0.0081,1.92941 -0.365739,2.87814 -1.693243,4.29698 -0.733894,0.78438 -0.545492,1.01615 0.991785,1.22008 1.686184,0.22367 2.443763,0.77586 2.443763,1.78119 0,1.00572 -0.638241,2.25127 -1.348317,2.63129 -0.786601,0.42098 -0.964194,0.0759 -0.286075,-0.55586 0.650864,-0.60637 0.792514,-1.02509 0.172789,-0.51076 -0.729343,0.6053 -0.722588,0.0479 0.01109,-0.91397 0.395769,-0.51888 0.589275,-0.94342 0.430011,-0.94342 -0.307221,0 -2.032238,1.78408 -2.007753,2.07649 0.0079,0.0949 0.285813,0.76778 0.617492,1.49539 0.331677,0.7276 0.611926,1.82893 0.622776,2.44739 0.01085,0.61846 0.06522,1.12448 0.120828,1.12448 0.0556,0 0.441073,-0.25135 0.856596,-0.55856 0.415523,-0.30721 1.303671,-0.62035 1.973662,-0.69587 0.669989,-0.0755 1.218163,-0.16359 1.218163,-0.19571 0,-0.0321 -0.134244,-0.44349 -0.29832,-0.91416 -0.291629,-0.83656 -0.328726,-0.85338 -1.653646,-0.74958 -0.745429,0.0584 -1.563685,0.20034 -1.818346,0.31542 -0.332518,0.15027 -0.463021,0.0929 -0.463021,-0.2035 0,-1.26703 6.824646,-1.2422 8.268236,0.0301 0.57363,0.50556 0.59912,1.58921 0.0516,2.19421 -0.35508,0.39236 -0.78312,0.43564 -3.126065,0.31606 -1.851676,-0.0945 -2.903329,-0.0376 -3.308189,0.17911 -0.585893,0.31356 -0.579702,0.32768 0.480227,1.09549 0.628922,0.45559 1.073774,0.99385 1.073774,1.29925 0,0.68419 -1.111213,1.39206 -2.332485,1.48585 -0.536143,0.0412 -1.034338,0.0823 -1.107098,0.0913 -0.07276,0.009 -0.134713,0.52726 -0.137671,1.15156 -0.0032,0.67706 -0.280003,1.69001 -0.685943,2.51027 -0.374309,0.75634 -0.619935,1.43579 -0.545835,1.50989 0.0741,0.0741 0.620897,0.14158 1.215109,0.14997 0.59421,0.008 1.556631,0.116 2.138715,0.23913 0.715595,0.15138 0.242742,0.17803 -1.460119,0.0823 -2.061335,-0.11589 -2.579513,-0.068 -2.854857,0.26375 -0.294479,0.35483 -0.09602,0.43697 1.592411,0.65912 l 1.928815,0.25378 -2.186043,-0.0126 c -2.768026,-0.016 -3.541279,0.49548 -1.156984,0.76523 0.892779,0.10101 1.623235,0.28733 1.623235,0.41406 0,0.27946 -0.11402,0.29277 -0.364265,0.0425 z m 3.076244,-9.11833 c 0.254662,-0.13057 0.463021,-0.32935 0.463021,-0.44174 0,-0.19501 -2.26164,-1.89371 -2.521278,-1.89371 -0.06851,0 -0.124555,0.2816 -0.124555,0.62578 0,0.34418 -0.238125,0.92851 -0.529167,1.2985 -0.291042,0.37 -0.529167,0.73764 -0.529167,0.81697 0,0.21069 2.697451,-0.12703 3.241146,-0.4058 z m 5.852669,-4.06124 c 0.15339,-0.39972 -0.66832,-1.44921 -1.13467,-1.44921 -0.13362,0 -0.43128,-0.0723 -0.66146,-0.1606 -0.33977,-0.13037 -0.41852,0.0439 -0.41852,0.92605 0,1.08638 2.5e-4,1.08664 1.03003,1.08664 0.67832,0 1.08281,-0.13757 1.18462,-0.40288 z m -2.743814,-0.49077 c 0,-0.34598 -0.199242,-0.79247 -0.442757,-0.99219 -0.397539,-0.32603 -0.424931,-0.29557 -0.268197,0.29834 0.09601,0.3638 0.176188,0.81028 0.178175,0.99218 0.0021,0.18191 0.122675,0.33073 0.268195,0.33073 0.145521,0 0.264584,-0.28307 0.264584,-0.62906 z m -6.614584,-3.74859 c 0,-0.22489 0.297656,-0.70656 0.661458,-1.07036 0.81869,-0.81869 0.820862,-0.90199 0.02352,-0.90199 -0.387546,0 -0.906793,0.31952 -1.322917,0.81405 -0.806244,0.95817 -0.848389,1.22112 -0.221956,1.38482 0.798653,0.20871 0.859896,0.19258 0.859895,-0.22652 z m -8.73125,-9.39744 c 0,-0.4563 -0.140822,-0.53232 -0.857729,-0.46302 -0.564899,0.0546 -0.887675,0.24098 -0.945441,0.54593 -0.07027,0.37095 0.100282,0.46302 0.857729,0.46302 0.778729,0 0.945441,-0.0963 0.945441,-0.54593 z m -7.054896,25.79587 c -0.231158,-0.60239 0.385342,-1.15792 0.711862,-0.64146 0.137231,0.21706 0.251338,0.54349 0.253566,0.72539 0.0058,0.47611 -0.776624,0.40809 -0.965428,-0.0839 z m -1.950244,-1.84551 c -0.249121,-0.30017 -0.260654,-0.48612 -0.04361,-0.70316 0.350594,-0.3506 1.11125,0.16057 1.11125,0.74677 0,0.48944 -0.647186,0.463 -1.067639,-0.0436 z m 2.059827,0.11388 c -0.560668,-0.31635 -0.617667,-1.29329 -0.07545,-1.29329 0.477845,0 1.067321,1.0334 0.761423,1.33484 -0.122621,0.12084 -0.431308,0.10214 -0.685969,-0.0416 z m -7.184158,-2.24767 c -0.203745,-0.53095 0.281014,-2.39828 0.687872,-2.64973 0.213752,-0.13211 0.234273,-0.0385 0.07003,0.31956 -0.12778,0.27853 -0.23731,1.01244 -0.243401,1.6309 -0.01138,1.15616 -0.226816,1.44896 -0.514498,0.69927 z m -1.341514,-0.34604 c -0.173897,-0.5479 0.07541,-1.87458 0.352272,-1.87458 0.09336,0 0.169754,0.53578 0.169754,1.19062 0,1.23813 -0.244475,1.55844 -0.522026,0.68396 z m 5.062448,-3.88861 c -1.175192,-1.17519 -1.304346,-4.10154 -0.245192,-5.55552 0.526648,-0.72297 0.52665,-0.72587 0.0016,-1.61572 -0.37847,-0.64146 -0.482848,-1.15719 -0.3722,-1.83903 0.237294,-1.46227 0.826551,-1.93961 2.40021,-1.94434 1.869639,-0.006 2.190004,-0.2665 1.315982,-1.07164 -0.847121,-0.78037 -1.673976,-2.49531 -1.681908,-3.48837 -0.0084,-1.05288 -0.701776,-0.92359 -1.400821,0.26121 -0.456488,0.77369 -0.603848,0.88273 -0.677325,0.50119 -0.054,-0.28041 0.25392,-0.84649 0.72463,-1.33214 0.979305,-1.01035 1.014336,-1.2162 0.207005,-1.2162 -0.619438,0 -1.769682,0.86656 -1.769682,1.33323 0,0.13985 -0.119062,0.25427 -0.264583,0.25427 -0.447255,0 -0.296879,-0.45018 0.444804,-1.33162 0.64139,-0.76225 0.818915,-0.83071 1.852083,-0.71426 0.871199,0.0982 1.142696,0.0395 1.142696,-0.24691 0,-0.20664 0.546071,-0.9595 1.213488,-1.67303 L 78.224,150.87132 77.190831,149.7637 c -0.934879,-1.00223 -1.090234,-1.07706 -1.633022,-0.78657 -0.769601,0.41187 -1.071946,0.12852 -0.402929,-0.37762 0.977101,-0.73922 1.689399,-0.3787 3.1216,1.57995 0.583454,0.79792 0.904182,0.235 0.84048,-1.47514 -0.04012,-1.07703 0.04763,-1.6562 0.263462,-1.73902 0.177985,-0.0683 0.962581,0.28405 1.743543,0.78301 1.095278,0.69978 1.616544,0.87816 2.27983,0.78018 0.506799,-0.0749 0.859896,-0.0125 0.859896,0.15198 0,0.39767 -0.236545,0.49929 -1.657067,0.7119 -1.095772,0.164 -1.238792,0.13284 -1.096171,-0.23882 0.185169,-0.48255 -0.321868,-0.56938 -0.950929,-0.16285 -0.339169,0.21919 -0.329551,0.25707 0.06615,0.26054 0.829204,0.007 0.488717,0.7324 -0.661458,1.40874 -2.351884,1.38297 -3.643667,3.2366 -3.630734,5.20989 0.0074,1.1322 0.932629,2.77216 2.073915,3.67608 0.601588,0.47647 1.093798,0.94727 1.093798,1.04624 0,0.2008 -1.962036,1.09851 -2.400895,1.09851 -0.160192,0 -0.208529,0.22707 -0.112647,0.52917 0.09237,0.29104 0.05932,0.52917 -0.07345,0.52917 -0.132774,0 -0.456907,-0.23813 -0.720297,-0.52917 -0.26339,-0.29104 -0.698561,-0.52917 -0.967049,-0.52917 -0.586859,0 -0.646991,0.41161 -0.09128,0.62485 0.599435,0.23002 0.481917,0.78203 -0.132292,0.62141 -0.437671,-0.11446 -0.529167,-0.008 -0.529167,0.61498 0,1.05352 0.310674,1.13602 1.349574,0.35842 1.512057,-1.13175 2.811513,-1.69049 3.931552,-1.69049 1.104213,0 1.531631,0.50531 0.473562,0.55986 -0.447984,0.0231 -0.480724,0.0606 -0.132291,0.15169 0.938747,0.24532 0.422457,0.61276 -0.926042,0.65906 l -1.389063,0.0477 1.256771,0.0991 c 1.56041,0.12304 1.66452,0.59781 0.132292,0.60328 -1.544839,0.006 -3.247734,0.55503 -3.904451,1.25993 l -0.547934,0.58814 h 2.788431 c 2.05405,0 2.788584,0.0871 2.78901,0.33073 5.29e-4,0.24862 -0.672105,0.30961 -2.708857,0.24566 -1.490189,-0.0468 -2.641778,-0.0174 -2.55909,0.0653 0.08269,0.0827 1.127286,0.16891 2.321327,0.1916 1.194041,0.0227 2.233335,0.14215 2.309543,0.26546 0.14904,0.24115 -0.510252,0.29948 -2.803083,0.24801 -1.748322,-0.0392 -2.970734,0.19371 -2.76482,0.52688 0.08262,0.13368 1.244518,0.24488 2.581998,0.24711 1.667796,0.003 2.307095,0.0846 2.034905,0.26053 -0.218281,0.14107 -1.312582,0.25831 -2.43178,0.26053 -2.116101,0.004 -2.478546,0.17982 -2.197677,1.06476 0.150617,0.47455 0.403135,0.52679 2.546234,0.52679 1.51865,0 2.319898,0.0957 2.215515,0.26459 -0.08994,0.14552 -1.049465,0.26458 -2.132283,0.26458 -1.136118,0 -1.968759,0.1119 -1.968759,0.26458 0,0.15119 0.79375,0.26459 1.852083,0.26459 1.058334,0 1.852084,0.11339 1.852084,0.26458 0,0.14552 -0.528754,0.26458 -1.17501,0.26458 -0.646255,0 -1.248595,0.11907 -1.338532,0.26459 -0.291642,0.47188 -1.10222,0.28083 -1.809578,-0.42653 z m 14.377287,-1.0353 c 0,-0.2334 0.250261,-0.39026 0.622646,-0.39026 0.342456,0 1.370624,-0.0782 2.284821,-0.17373 1.29727,-0.13559 1.637202,-0.0988 1.548423,0.16752 -0.06854,0.20562 -0.687488,0.37973 -1.557218,0.43804 -0.793904,0.0532 -1.770886,0.15347 -2.171068,0.22274 -0.521817,0.0903 -0.727604,0.0156 -0.727604,-0.26431 z m -3.569953,-22.08297 c -0.25359,-0.41033 1.490909,-1.32481 2.511623,-1.31662 1.051063,0.008 1.852084,0.50331 1.852084,1.14424 0,0.54278 -0.620565,0.56446 -1.058334,0.037 -0.42034,-0.50648 -1.401053,-0.50688 -2.379374,-0.001 -0.473649,0.24493 -0.826762,0.29693 -0.925999,0.13637 z"
       id="path847"
       sodipodi:nodetypes="scssscssssssssssssssssssscsssssssssssssssccsssssccccsscssssssssssssssssscccccsssssssssssssssssccsssssscssscscsssssssssccsscssssssssssssscsssssssssssssssssssssscsssccsssssscscscsssscccssssssccssssssssssscssssssssssssscssssssscsssscssssssssssssssssssssscssssssssssssssssssssssscssccsssssssssssssscsssssssssssscssssssscsssscssssssssssssssscscscscscsssscscscssssssssssssssssssscsssss" />
  </g>
</svg>
