<?xml version="1.0" encoding="UTF-8" standalone="no"?>
<svg
   xmlns:dc="http://purl.org/dc/elements/1.1/"
   xmlns:cc="http://creativecommons.org/ns#"
   xmlns:rdf="http://www.w3.org/1999/02/22-rdf-syntax-ns#"
   xmlns:svg="http://www.w3.org/2000/svg"
   xmlns="http://www.w3.org/2000/svg"
   xmlns:sodipodi="http://sodipodi.sourceforge.net/DTD/sodipodi-0.dtd"
   xmlns:inkscape="http://www.inkscape.org/namespaces/inkscape"
   inkscape:version="1.0 (4035a4fb49, 2020-05-01)"
   sodipodi:docname="nohelm-line.svg"
   viewBox="0 0 690 960"
   height="960"
   width="690"
   id="svg4074"
   version="1.1">
  <metadata
     id="metadata4080">
    <rdf:RDF>
      <cc:Work
         rdf:about="">
        <dc:format>image/svg+xml</dc:format>
        <dc:type
           rdf:resource="http://purl.org/dc/dcmitype/StillImage" />
        <dc:title></dc:title>
      </cc:Work>
    </rdf:RDF>
  </metadata>
  <defs
     id="defs4078" />
  <sodipodi:namedview
     inkscape:current-layer="g4082"
     inkscape:window-maximized="0"
     inkscape:window-y="34"
     inkscape:window-x="10"
     inkscape:cy="318.33996"
     inkscape:cx="495.45227"
     inkscape:zoom="0.93310571"
     showgrid="false"
     id="namedview4076"
     inkscape:window-height="1034"
     inkscape:window-width="1898"
     inkscape:pageshadow="2"
     inkscape:pageopacity="0"
     guidetolerance="10"
     gridtolerance="10"
     objecttolerance="10"
     borderopacity="1"
     bordercolor="#666666"
     pagecolor="#ffffff" />
  <g
     id="g4082"
     inkscape:label="Image"
     inkscape:groupmode="layer">
    <path
       style="fill:#000000"
       d="m 427.06502,956.93096 c -1.30485,-1.99147 -1.43242,-3.05121 -0.58987,-4.9004 1.21296,-2.66217 3.95024,-3.68493 16.20867,-6.05626 4.675,-0.90435 11.425,-2.32871 15,-3.16523 3.575,-0.83653 10.55,-2.12701 15.5,-2.86774 13.90499,-2.08077 19.74517,-3.2068 22.87834,-4.41113 1.58308,-0.6085 7.43308,-1.56697 13,-2.12992 5.56691,-0.56296 14.62166,-1.95381 20.12166,-3.09078 10.64138,-2.19981 26.13245,-4.15066 46.5,-5.85592 6.875,-0.57561 16.1,-1.67985 20.5,-2.45387 4.4,-0.77402 13.85,-1.69823 21,-2.05381 10.5192,-0.52313 13.365,-0.37139 14.9125,0.79515 2.9574,2.22935 1.3436,4.51467 -3.6042,5.10398 -2.3696,0.28222 -11.94864,1.27726 -21.28683,2.21119 -9.33819,0.93393 -19.68819,2.30922 -23,3.05619 -3.31181,0.74698 -12.09647,2.04454 -19.52147,2.88347 -16.55308,1.87029 -22.36506,2.7663 -41.5,6.3979 -8.25,1.56576 -17.925,3.32795 -21.5,3.91597 -19.74349,3.24745 -39.68641,7.41971 -48.5,10.14669 -8.05823,2.49327 -19.38095,4.87725 -23.72695,4.99567 -0.39982,0.0109 -1.47615,-1.12362 -2.39185,-2.52115 z m -142.71818,-5.2789 c -2.1688,-2.39651 -0.8123,-4.17995 5.83698,-7.67407 4.54123,-2.38636 10.95472,-4.18267 23.5,-6.58196 2.475,-0.47334 6.975,-1.51759 10,-2.32055 3.025,-0.80296 9.325,-2.18602 14,-3.07346 4.675,-0.88744 10.525,-2.10532 13,-2.70639 2.475,-0.60108 7.2,-1.66577 10.5,-2.36598 3.3,-0.70022 10.275,-2.22958 15.5,-3.3986 5.225,-1.16901 13.1,-2.36402 17.5,-2.65558 13.03126,-0.86349 24.21621,-2.97005 47,-8.85192 7.92458,-2.04581 19.03229,-4.32955 32,-6.57917 6.6,-1.14496 14.025,-2.70077 16.5,-3.45735 2.475,-0.75659 10.125,-2.09885 17,-2.98282 6.875,-0.88396 15.65,-2.06721 19.5,-2.62944 3.85,-0.56222 11.5,-1.46118 17,-1.99768 5.5,-0.53649 16.75,-1.63773 25,-2.44719 8.25,-0.80946 20.46265,-1.46864 27.13922,-1.46486 10.17368,0.006 12.49761,0.29709 14.35267,1.79923 2.01635,1.63274 2.06901,1.91222 0.59135,3.13857 -1.89826,1.57542 -11.07901,2.51255 -44.58324,4.5509 -19.85849,1.20816 -27.81537,2.15572 -42,5.00165 -23.76541,4.76818 -26.01931,5.19308 -37.5,7.0695 -13.96353,2.28221 -23.82852,4.11685 -32,5.95119 -7.5877,1.70329 -48.25571,9.76183 -58,11.49295 -3.3,0.58626 -12.75,2.60067 -21,4.47646 -8.25,1.8758 -19.725,4.3685 -25.5,5.53934 -25.63135,5.19656 -43.15955,9.08755 -51.5,11.43219 -10.77663,3.0295 -11.71539,3.07936 -13.83698,0.73504 z m 365.76578,-11.60797 c -0.8889,-3.54144 0.3681,-6.48309 3.0588,-7.1584 4.3175,-1.08363 5.9885,-0.14805 6.3411,3.55028 0.3815,4.00142 -1.6412,6.03595 -6.0008,6.03595 -2.1197,0 -2.9362,-0.58317 -3.3991,-2.42783 z m -408.6788,-10.65227 c -1.79296,-1.0443 -2.30411,-4.50066 -0.97467,-6.59062 1.126,-1.77012 4.5412,-2.29067 18.22467,-2.77778 14.89884,-0.53037 19.9811,-1.33867 20.73273,-3.29739 0.74861,-1.95085 -1.47106,-3.21466 -5.73273,-3.26404 -3.94139,-0.0457 -20.39601,-4.11841 -35.71834,-8.84077 -12.276,-3.78347 -14.65871,-3.83958 -28.61482,-0.67382 -5.95823,1.35155 -12.25823,2.40505 -14,2.34112 -4.08106,-0.1498 -5.90496,0.43864 -19.25665,6.21273 -11.17998,4.83492 -33.41819,10.97067 -39.76171,10.97067 -1.88515,0 -6.96475,0.63828 -11.28801,1.4184 -4.32326,0.78013 -15.06047,1.95088 -23.86047,2.60168 -40.128513,2.96767 -69.941493,-4.09509 -87.599143,-20.75242 -8.1100001,-7.65056 -12.3292001,-13.34039 -13.3458701,-17.99763 -0.88456,-4.05207 0.69596,-12.18237 4.613,-23.72956 7.0725001,-20.84931 14.6711301,-31.45499 25.4405301,-35.50829 13.11513,-4.93617 20.23057,-6.21286 30.73146,-5.514 8.76512,0.58333 11.29998,1.24072 23.206,6.01823 7.35131,2.94985 15.748319,6.45895 18.660023,7.79799 14.4946,6.66582 22.21314,7.12514 31.52108,1.87576 4.93508,-2.78322 4.75798,-7.74625 -0.44442,-12.45436 -2.33046,-2.10904 -11.10617,-5.21494 -17.36699,-6.14653 -2.52139,-0.37517 -7.41659,-2.35324 -10.87823,-4.3957 -17.184013,-10.13904 -22.247493,-21.99424 -16.534973,-38.71357 1.50336,-4.4 3.45617,-8.82188 4.33958,-9.8264 4.610769,-5.24285 26.653583,-14.36099 42.657953,-17.6457 25.49178,-5.2319 28.6905,-5.52892 40.95313,-3.80282 1.67151,0.23528 2.11743,-0.66228 3.09269,-6.22508 1.61503,-9.21208 3.18293,-14.55005 6.46194,-22 1.57349,-3.575 4.73842,-11 7.03317,-16.5 7.56244,-18.12546 18.66445,-34.4245 36.44126,-53.5 13.60533,-14.59926 22.40142,-25.26058 27.8027,-33.69831 2.53434,-3.95906 6.57895,-9.61824 8.98803,-12.57594 2.40908,-2.9577 5.38614,-7.59347 6.61569,-10.3017 1.22954,-2.70823 2.86706,-6.27405 3.63893,-7.92405 3.83858,-8.2056 3.16064,-11.09102 -3.80705,-16.20345 -2.84586,-2.0881 -8.71279,-6.78945 -13.03763,-10.44743 -4.32483,-3.65798 -11.6976,-8.80286 -16.38393,-11.43306 l -8.5206,-4.78218 0.62343,-4.56694 c 0.41729,-3.05692 1.3632,-5.12771 2.86083,-6.26295 4.23736,-3.21201 1.07482,-3.98529 -17.41159,-4.25734 -27.31787,-0.40201 -42.85613,-4.51468 -60.90089,-16.11925 -15.17422,-9.75854 -25.14009,-19.53778 -29.57098,-29.01724 -2.09437,-4.48071 -2.4585,-7.11357 -3.0426,-22 l -0.66351,-16.91016 -5.67656,-6 c -8.94169,-9.45117 -17.70123,-23.98315 -22.001364,-36.5 -1.22819,-3.575 -4.820269,-13.25 -7.982409,-21.5 -3.16214,-8.25 -7.80797,-21.75 -10.32405,-30 -9.26885,-30.39164 -11.08455,-41.64528 -11.13269,-69 -0.0524,-29.78674 1.60001,-37.49453 16.61009,-77.47777 8.615,-22.94826 12.132749,-29.57928 26.016943,-49.04233 28.94201,-40.57131 42.42593,-56.084535 61.81702,-71.120375 15.66001,-12.14276 41.34315,-26.93556 60.5,-34.84637 13.70309,-5.65868 25.15542,-10.55086 37,-15.80557 10.76365,-4.77517 34.83502,-14.14753 51,-19.85723 14.27959,-5.0437395 33.16162,-9.2591095 46.5,-10.38100949 21.66094,-1.82193001 75.04614,2.26340999 96.5,7.38470999 29.85875,7.1276595 42.25361,11.1103995 58.37039,18.7557095 24.7036,11.71862 34.57861,20.39175 51.91627,45.59761 14.68385,21.34767 16.47547,24.67595 21.75247,40.409295 5.33131,15.89527 6.83544,22.81833 8.99109,41.38333 1.59507,13.73711 1.54515,17.87436 -0.45847,38 -2.39266,24.03348 -10.04066,49.56753 -22.97436,76.70354 -5.54213,11.62787 -7.95515,14.32249 -14.53993,16.23673 -9.6528,2.80615 -19.16215,1.64349 -32.52815,-3.97705 -7.78085,-3.27194 -16.26974,-3.91111 -16.80944,-1.26568 -0.39234,1.92318 3.98931,4.96925 15.14651,10.52968 11.00304,5.48359 17.50782,10.48139 26.72767,20.53559 17.39379,18.96782 24.35891,29.38188 29.7718,44.514 3.8691,10.81632 4.87131,11.92759 8.88515,9.85195 1.59207,-0.82329 3.52135,-2.252 4.2873,-3.17491 0.76595,-0.92291 4.10818,-3.41821 7.42717,-5.54509 3.31899,-2.12689 9.76193,-6.46277 14.31753,-9.63528 10.0388,-6.99089 14.1531,-8.55556 20.1372,-7.6582 6.906,1.03562 11.7546,6.13913 13.6662,14.38457 1.9896,8.58159 1.0128,11.00015 -4.4425,11.00015 -4.443,0 -5.1155,-0.64953 -7.5823,-7.32315 -2.1467,-5.80737 -4.472,-6.96913 -10.0288,-5.01057 -9.4701,3.33782 -22.5328,13.07066 -22.5328,16.78888 0,2.84158 2.41309,4.64798 13.1716,9.86003 9.8934,4.79293 16.279,11.53524 17.2862,18.25188 0.547,3.6477 0.3302,5.00973 -1.0382,6.52176 -2.7144,2.99939 -4.8873,2.31867 -11.5362,-3.61402 -11.2876,-10.07177 -29.7326,-19.98053 -32.36128,-17.38471 -0.55665,0.5497 -1.00581,8.38419 -1.04272,18.18778 -0.068,18.06585 -0.72894,22.15044 -5.94198,36.72212 -6.31764,17.65931 -25.20921,46.25958 -37.74958,57.14972 -17.46329,15.16524 -31.55672,24.79928 -44.67415,30.53853 -5.26489,2.30353 -9.74722,4.71233 -9.96073,5.35287 -0.21352,0.64055 0.81874,4.38084 2.2939,8.31175 1.47516,3.93092 3.77837,10.07213 5.11825,13.64713 1.33988,3.575 3.07117,8.975 3.8473,12 0.77614,3.025 2.09432,7.09758 2.92931,9.05018 0.83498,1.95261 2.244,8.02761 3.13116,13.5 2.9058,17.92438 4.55156,28.89869 4.79135,31.94982 0.36555,4.65137 4.41237,4.45579 17.89202,-0.86473 6.23906,-2.4626 12.72605,-4.7561 14.41553,-5.09667 3.77006,-0.75998 24.90235,2.91857 31.9809,5.567 6.35675,2.37836 16.35528,11.78783 19.78851,18.62268 1.3183,2.62444 4.06754,8.96925 6.10942,14.09957 3.26716,8.20885 3.82304,10.88647 4.63374,22.32018 1.06888,15.07487 -0.0529,28.02999 -2.96318,34.22151 -1.06783,2.27175 -3.34507,7.38583 -5.06055,11.36462 -6.02598,13.9764 -15.37633,31.83144 -20.03909,38.26584 -2.59067,3.575 -5.04412,7.08229 -5.45211,7.79398 -1.23818,2.15981 2.09422,5.92124 6.63905,7.4938 7.16438,2.47896 15.36163,4.71222 17.29638,4.71222 2.9677,0 14.64425,6.83731 19.35935,11.33606 10.8098,10.31374 9.6397,21.61445 -3.885,37.52019 -3.4402,4.04594 -7.43042,7.87461 -8.86708,8.50816 -5.60121,2.47008 -14.18956,8.99511 -13.8917,10.55428 0.43884,2.29713 15.00679,2.58386 31.27958,0.61564 7.15,-0.8648 17.05,-2.06989 22,-2.67798 10.0509,-1.23471 31.1519,-0.39015 33.2243,1.32978 2.2764,1.88928 -0.4351,3.58833 -7.5296,4.7181 -14.2754,2.2733 -37.2283,5.15213 -48.6947,6.10747 -20.91038,1.74218 -36.48631,3.96199 -46.75,6.66261 -1.04384,0.27466 -1.75,-0.0965 -1.75,-0.91983 0,-2.32564 -5.27026,-6.52029 -9.64789,-7.67883 -2.28134,-0.60376 -7.45634,-1.22768 -11.5,-1.38648 -6.6877,-0.26264 -7.4558,-0.51016 -8.49955,-2.73895 -0.79024,-1.68747 -0.87575,-4.31802 -0.27468,-8.45022 0.48002,-3.3 0.59892,-10.07041 0.26423,-15.04536 -0.51935,-7.71963 -0.3587,-9.29519 1.0961,-10.75 4.48116,-4.48115 10.29348,1.44627 12.05661,12.29536 1.04559,6.43387 1.80427,7 9.38081,7 13.37419,0 29.08036,-6.90013 38.41039,-16.8747 5.34028,-5.70921 5.73718,-7.75587 2.2967,-11.84462 -3.64554,-4.33249 -10.93137,-7.85026 -28.84478,-13.92698 -17.59008,-5.96704 -21.62212,-7.97793 -24.72005,-12.32857 -3.02661,-4.25048 -2.58163,-7.45245 1.56296,-11.24685 12.19035,-11.16032 20.97937,-23.34015 21.68497,-30.05104 0.20899,-1.98762 -0.19617,-2.2144 -3.76582,-2.10791 -3.84315,0.11466 -16.06747,2.14076 -25.5,4.22646 -2.475,0.54726 -7.65,1.26929 -11.5,1.60449 -3.85,0.33521 -9.2802,0.84312 -12.06711,1.1287 -4.68736,0.48032 -5.15375,0.32908 -6.22316,-2.01802 -1.72048,-3.77603 -0.59018,-5.30844 5.14526,-6.97578 7.69283,-2.23637 28.64104,-5.32144 41.14501,-6.05948 17.78025,-1.04947 19.45838,-2.1929 21.07212,-14.35786 0.80235,-6.0484 1.3193,-5.87081 -10.89252,-3.74182 -4.49878,0.78431 -14.0296,2.17579 -21.1796,3.09216 -7.15,0.91638 -19.48509,2.77256 -27.41131,4.12484 -17.24979,2.94297 -19.1014,2.84713 -20.97828,-1.08582 -1.20299,-2.52085 -1.20405,-3.29844 -0.007,-5.4231 1.84228,-3.27093 8.42707,-4.6213 29.89697,-6.1311 9.075,-0.63817 22.125,-1.86342 29,-2.72278 6.875,-0.85936 15.09935,-1.47236 18.27633,-1.36223 l 5.77633,0.20023 1.55644,-3.7251 c 1.71121,-4.09548 2.18827,-16.42793 0.9823,-25.39312 -1.96821,-14.63168 -11.82592,-29.5996 -22.93219,-34.82016 -6.44071,-3.02749 -18.3135,-5.15967 -23.65921,-4.24885 -6.0431,1.02965 -14.01972,3.77343 -20.21647,6.95401 -4.96316,2.54742 -5.16187,2.82174 -7.68918,10.615 -2.42432,7.47568 -2.9213,8.213 -7.58291,11.25 -9.61685,6.26528 -11.50332,4.02027 -11.53095,-13.72251 -0.0107,-6.89012 -0.68123,-18.37749 -1.49001,-25.52749 -0.80877,-7.15 -1.475,-13.7875 -1.48049,-14.75 -0.0138,-2.41189 -6.74005,-2.34785 -14.56582,0.13868 -14.59889,4.6386 -25.94558,6.20991 -28.24417,3.91132 -1.57186,-1.57186 -1.54064,-6.28433 0.05,-7.54875 1.33519,-1.06136 10.35546,-3.08875 25.75,-5.78757 14.6166,-2.56243 14.45264,-2.48302 14.80149,-7.16848 0.34016,-4.56873 -1.58645,-7.30586 -5.12292,-7.2781 -1.19821,0.009 -5.32857,0.84609 -9.17857,1.85929 -11.12378,2.92746 -27.60197,7.09356 -32.47267,8.20992 -3.84822,0.882 -4.65101,0.78124 -5.75,-0.72172 -1.90004,-2.59845 -1.61698,-8.11585 0.47267,-9.21328 0.9625,-0.50548 3.775,-1.21088 6.25,-1.56755 11.13379,-1.60451 30.97995,-4.92317 36.75,-6.1453 1.85258,-0.39239 2.25,-1.1444 2.25,-4.25751 0,-2.07952 -0.54,-4.32095 -1.2,-4.98095 -1.59819,-1.59819 -6.18964,-1.49742 -12.3,0.26995 -2.75,0.79541 -9.69091,2.81507 -15.42424,4.48813 -11.96281,3.49089 -13.35216,3.62266 -15.50433,1.47049 -1.87962,-1.87962 -2.07409,-6.80122 -0.32143,-8.13477 2.75865,-2.09899 16.8346,-5.22249 26.50483,-5.88151 13.8851,-0.94627 14.23814,-1.27128 10.89218,-10.02758 -2.84742,-7.45161 -3.40629,-14.06839 -1.39701,-16.5402 0.6875,-0.84576 2.8606,-2.49594 4.82911,-3.66707 1.96851,-1.17113 5.84097,-4.72985 8.60547,-7.90826 3.35062,-3.85229 8.0751,-7.59895 14.171,-11.23803 18.20827,-10.86984 30.89944,-21.88664 44.61683,-38.73043 21.69218,-26.63661 29.15338,-54.45292 22.87995,-85.30072 -3.80792,-18.72434 -8.51571,-29.9791 -17.01964,-40.68823 -14.91031,-18.77679 -27.9281,-30.41096 -52.3331,-46.77073 -6.325,-4.23994 -11.65868,-8.14723 -11.85262,-8.68287 -0.19394,-0.53564 0.34233,-1.74182 1.19172,-2.68038 1.63318,-1.80464 2.56746,-10.60388 1.26442,-11.90859 -0.94151,-0.94273 -6.41753,-0.92886 -32.10352,0.0813 -19.23537,0.75647 -48.1193,4.08169 -63,7.25278 -3.85,0.82043 -9.7,1.94396 -13,2.49671 -3.3,0.55276 -9.49055,1.89175 -13.75678,2.97554 -4.26624,1.08378 -12.14124,2.85434 -17.5,3.93456 -12.24804,2.46898 -23.78386,6.14222 -42.24322,13.45111 -15.78129,6.24852 -20.31687,9.03842 -22.65084,13.93279 -1.41334,2.96381 -1.34292,3.8801 0.97219,12.65063 1.37275,5.20046 2.77342,11.48038 3.11261,13.95538 0.33919,2.475 1.48514,8.1 2.54656,12.5 3.08335,12.78169 3.92548,22.79305 3.50022,41.61113 -0.57197,25.30961 -1.03954,27.7334 -11.61591,60.21365 -3.78877,11.6354 -6.26282,17.20733 -11.49983,25.89928 -8.10905,13.45874 -20.20557,28.14379 -25.34094,30.76367 -5.39246,2.75102 -10.02406,6.90115 -10.02406,8.98201 0,1.23441 2.34075,2.94855 7.52315,5.50922 6.40006,3.16233 19.64971,12.41423 22.97685,16.04416 0.55,0.60005 2.575,2.2529 4.5,3.67299 1.925,1.42009 5.51494,4.45735 7.97764,6.74948 8.77807,8.17007 12.0307,9.71887 22.05801,10.50329 9.69295,0.75826 10.71973,1.40529 9.56039,6.02449 -0.77209,3.07625 -3.76073,4.73803 -8.47191,4.71067 -1.99327,-0.0116 -6.76671,0.48312 -10.60764,1.09934 -6.31357,1.01291 -7.39784,1.54669 -11.30237,5.56416 -3.22837,3.32175 -4.24251,5.10136 -4.01649,7.04812 0.30124,2.5946 0.33791,2.60467 9.80237,2.69347 16.39717,0.15385 16,0.0803 16,2.9619 0,3.66389 -5.46514,5.82905 -15,5.94267 -4.125,0.0492 -9.075,0.44988 -11,0.8905 -4.18305,0.95747 -13.71379,7.21496 -15.76178,10.34854 -1.36847,2.09385 -1.28342,2.29958 1.36741,3.30742 2.24474,0.85345 4.58346,0.61561 11.36051,-1.15529 8.95559,-2.34018 24.53386,-3.21953 24.53386,-1.38487 0,0.55 -0.71638,2.01109 -1.59196,3.24687 -1.20057,1.69447 -4.39667,2.97132 -13,5.19353 -34.68827,8.95985 -35.64845,9.39254 -43.29657,19.51072 -2.93045,3.87689 -9.65123,11.56552 -14.93506,17.08586 -8.35527,8.72928 -22.67641,28.15378 -22.67641,30.75721 0,0.49347 -0.62648,2.09166 -1.39218,3.55152 -3.00314,5.72574 -4.76017,10.97453 -4.93007,14.72771 l -0.17775,3.92658 13.25,0.27903 13.25,0.27902 v 2.81599 c 0,5.07477 -2.72282,6.33447 -15.3876,7.119 -8.44382,0.52305 -12.25846,1.20148 -14.65873,2.60701 -4.20651,2.46321 -7.10064,6.40902 -7.55347,10.29827 -0.41631,3.57549 -1.19139,3.42528 16.50503,3.19868 13.13883,-0.16824 14.09477,0.12665 14.09477,4.34794 0,1.8206 -0.57251,3.78531 -1.27224,4.36604 -0.69973,0.58072 -7.51876,1.37985 -15.1534,1.77584 -15.99943,0.82985 -17.57436,1.58602 -17.57436,8.43793 0,3.4619 0.38122,4.16969 2.72597,5.06116 3.15918,1.20112 17.73169,0.96142 24.21608,-0.39832 3.99529,-0.8378 4.62388,-0.70692 6.25,1.30125 4.42084,5.45951 0.95661,7.51564 -16.53445,9.81368 -15.69036,2.06145 -17.55562,3.03702 -16.04792,8.39337 0.76329,2.71176 2.12295,3.93305 7.58405,6.81229 4.98423,2.62782 8.25749,5.38821 13.0438,11 8.84675,10.37254 13.55695,17.4661 14.47911,21.80554 2.04309,9.61424 -0.73083,31.72117 -5.17944,41.27778 -1.38471,2.97467 -2.52206,6.28056 -2.52743,7.34641 -0.006,1.14559 -4.50712,6.2995 -11.00977,12.60586 -6.05,5.86738 -11,11.19396 -11,11.83685 0,0.64288 1.07185,1.5764 2.38189,2.07447 2.78484,1.0588 17.18255,-0.10775 18.53974,-1.50214 0.55006,-0.56514 0.58236,-2.78428 0.0794,-5.45295 -0.83349,-4.42227 0.35237,-13.57667 1.98587,-15.33011 1.33318,-1.43107 8.08404,1.09008 13.96492,5.21528 7.63899,5.35845 27.07877,11.62017 40.54819,13.06091 5.5,0.5883 17.44207,1.35801 26.53793,1.71046 17.3749,0.67325 20.96207,0.0784 20.96207,-3.47618 0,-2.83967 -10.17508,-10.55842 -18.64185,-14.14159 -17.02116,-7.20342 -18.05129,-7.75734 -18.64443,-10.02551 -0.84712,-3.23939 2.93142,-6.58408 8.34923,-7.39056 11.46542,-1.70671 28.77984,10.15783 38.78299,26.57567 3.88484,6.37606 5.56772,6.15479 20.63587,-2.71329 5.21617,-3.06988 10.98942,-7.38595 12.96178,-9.69022 3.0186,-3.52656 3.5564,-4.89061 3.5564,-9.02031 0,-3.73493 -0.53113,-5.39659 -2.28584,-7.1513 -3.85992,-3.85992 -14.78051,-9.37388 -23.71416,-11.97361 -4.675,-1.36044 -9.82295,-2.98451 -11.43989,-3.60903 -1.61694,-0.62453 -6.43736,-1.0512 -10.71204,-0.94818 -9.62089,0.23189 -12.84807,-1.39231 -12.84807,-6.46626 0,-5.71178 2.11899,-9.85497 9.27042,-18.12617 3.80433,-4.4 7.68953,-9.575 8.6338,-11.5 0.94426,-1.925 2.24063,-4.4 2.88082,-5.5 8.2477,-14.17161 12.20339,-30.60047 12.21094,-50.71482 0.004,-9.71846 -0.18326,-10.81504 -2.00999,-11.79268 -1.10771,-0.59283 -3.47021,-0.84338 -5.25,-0.55677 -1.7798,0.2866 -7.32648,0.74511 -12.32596,1.01891 -4.99948,0.27381 -11.29948,0.93051 -14,1.45934 -2.70052,0.52883 -9.63503,1.67751 -15.41003,2.55261 -5.775,0.87511 -13.425,2.06856 -17,2.65212 -3.575,0.58356 -8.75,0.90808 -11.5,0.72115 -4.95268,-0.33664 -5.00287,-0.37417 -5.30295,-3.96548 -0.44205,-5.29037 1.42795,-6.59155 10.53762,-7.3323 4.27093,-0.34728 14.29033,-1.52504 22.26533,-2.61724 7.975,-1.0922 21.63116,-2.49907 30.34702,-3.12638 12.18797,-0.8772 15.97613,-1.47701 16.40619,-2.59772 0.74103,-1.93108 -1.63696,-11.28022 -3.37749,-13.27868 -1.17939,-1.35417 -4.33163,-1.55263 -22.22867,-1.39945 -11.46991,0.0982 -21.38978,0.50937 -22.04415,0.91379 -1.83007,1.13105 -29.32297,6.54562 -30.26854,5.96123 -1.26858,-0.78403 -0.99597,-5.80362 0.41564,-7.65321 1.40099,-1.83568 7.29253,-4.18548 16.25,-6.4812 5.36353,-1.37462 15.35063,-1.81499 50.82946,-2.24124 1.54045,-0.0185 1.71703,-0.53381 1.11783,-3.26198 -1.05612,-4.80847 -4.72016,-9.0088 -12.23252,-14.02297 -9.79394,-6.53703 -14.8304,-8.84293 -20.59237,-9.42805 -6.67072,-0.67741 -15.84816,1.07657 -21.7327,4.15351 -9.69842,5.07117 -21.95208,13.77704 -25.52002,18.13125 -4.23854,5.17257 -5.78749,6.1657 -10.87834,6.97476 -4.43783,0.70529 -7.49134,-1.54783 -7.49134,-5.52771 0,-3.84175 5.13388,-11.34315 10.15688,-14.84079 2.38871,-1.66332 6.59312,-5.35564 9.34312,-8.20514 5.87197,-6.08444 14.39646,-12.12394 22.33163,-15.82167 5.20479,-2.4254 6.73156,-2.64272 18.66837,-2.65731 7.39307,-0.009 14.72521,0.50847 17,1.19985 2.2,0.66865 6.7,1.95089 10,2.84943 5.28606,1.43931 6.86301,2.52202 13.25287,9.09924 5.47955,5.64022 8.27377,9.58901 11.42838,16.15057 2.29654,4.77677 4.65775,9.02224 5.24714,9.4344 0.58938,0.41215 7.59661,0.63715 15.57161,0.5 l 14.5,-0.24937 0.077,-7 c 0.0424,-3.85 -0.34698,-12.51914 -0.8652,-19.26477 -1.0684,-13.90706 -0.30386,-17.36059 4.37937,-19.78239 3.8908,-2.01201 8.63317,-1.86682 9.70617,0.29716 0.47724,0.9625 0.95095,3.325 1.05267,5.25 0.10173,1.925 0.63766,7.1 1.19097,11.5 2.15716,17.15419 3.507,48.01678 4.83297,110.5 l 0.62603,29.5 5.5,1.15357 c 3.025,0.63447 7.62836,1.19697 10.22969,1.25 5.09506,0.10388 17.75098,2.27591 27.00521,4.63468 3.1542,0.80396 6.65962,1.46175 7.78984,1.46175 3.56107,0 10.21815,4.05437 17.83213,10.86031 l 7.35687,6.57612 -0.35687,13.03179 -0.35685,13.03178 5.68278,-0.18956 c 6.8774,-0.2294 11.81722,-2.51295 11.81722,-5.46278 0,-1.29145 -2.5055,-4.46034 -6.50262,-8.22432 -8.08053,-7.60922 -9.39982,-11.58819 -4.65567,-14.04149 3.43206,-1.77478 6.74805,-2.05465 7.6204,-0.64315 0.31909,0.51628 3.15814,2.40037 6.30902,4.18687 3.15088,1.78649 8.68394,6.31408 12.29569,10.0613 6.96889,7.23029 10.20575,8.48027 13.1111,5.06313 2.89361,-3.40333 7.82208,-13.25214 7.82208,-15.63126 0,-4.44913 -10.05996,-11.6337 -19,-13.56932 -3.025,-0.65495 -6.85,-1.6598 -8.5,-2.233 -7.30274,-2.53695 -13.65359,-3.93453 -22.5,-4.95141 -12.90797,-1.48374 -17.1862,-2.82016 -18.68009,-5.83524 -0.87212,-1.76018 -1.21058,-9.75737 -1.1775,-27.82224 0.0255,-13.94361 -0.22597,-25.62443 -0.55891,-25.95737 -0.59076,-0.59076 -3.44465,-0.18874 -26.0835,3.67429 -12.40329,2.11647 -14.5,1.6885 -14.5,-2.95963 0,-4.91805 2.78172,-6.69091 11.65586,-7.42861 4.31428,-0.35864 11.87576,-1.25076 16.8033,-1.9825 4.92753,-0.73173 9.50552,-1.12076 10.1733,-0.86451 2.10332,0.80712 3.4728,-3.50362 3.16468,-9.96154 l -0.29714,-6.22766 -6,0.0145 c -6.12994,0.0148 -12.96213,1.27319 -24.5,4.51259 -3.575,1.00373 -9.30453,2.36523 -12.73228,3.02556 -5.43683,1.04737 -6.55363,0.99006 -8.75,-0.44906 -3.90527,-2.55884 -3.35733,-6.13458 1.3045,-8.51287 5.14691,-2.62576 18.88418,-5.76897 28.67778,-6.56173 4.4,-0.35617 9.35,-1.033 11,-1.50407 1.65,-0.47107 4.64703,-1.13218 6.66007,-1.46914 3.52089,-0.58935 3.68624,-0.80284 4.34791,-5.61377 1.01132,-7.35316 -0.15615,-8.32775 -8.9703,-7.48832 -3.87072,0.36863 -9.73768,1.36709 -13.03768,2.21878 -6.78209,1.7504 -17.27791,3.4687 -22.5,3.68355 -3.13471,0.12897 -3.53363,-0.14932 -3.82226,-2.66647 -0.45351,-3.95516 0.93415,-5.16775 8.59732,-7.51267 10.88586,-3.33105 17.11013,-4.45768 25.75291,-4.66142 4.47671,-0.10553 8.66429,-0.51623 9.30575,-0.91267 1.59524,-0.98591 1.44415,-6.01238 -0.3788,-12.60277 -2.1677,-7.83668 -4.417,-21.67461 -4.43746,-27.29966 -0.0275,-7.5614 4.25176,-13.70036 9.55006,-13.70036 4.75743,0 6.86823,5.94242 12.43229,35 1.10582,5.775 2.69907,12.975 3.54055,16 1.22491,4.40335 1.50871,11.28235 1.42336,34.5 -0.0586,15.95 -0.0745,37.42167 -0.0352,47.71482 0.0831,21.77749 -0.52879,20.62768 11.41964,21.45711 12.20743,0.84742 21.00628,2.0387 24.65181,3.33763 9.9328,3.53914 16.82732,7.81899 24.14846,14.99044 l 7.65655,7.5 0.76695,7 c 0.91698,8.36933 0.70298,10.51732 -1.24532,12.5 -0.8107,0.825 -4.06424,5.29488 -7.23009,9.93306 -4.13393,6.0565 -7.4245,9.59217 -11.67632,12.54605 -8.88047,6.16959 -13.36515,7.52089 -24.96023,7.52089 -11.40003,0 -15.733,-0.9687 -19.38469,-4.33371 -3.0274,-2.78973 -5.33665,-3.74082 -6.83474,-2.81495 -1.74631,1.07928 -11.24054,14.48986 -11.24054,15.87725 0,1.52747 -0.60993,1.54247 10.5,-0.25833 4.95,-0.80235 13.05,-1.91791 18,-2.47903 4.95,-0.56112 12.24353,-1.68869 16.20784,-2.50572 3.96431,-0.81703 9.04579,-1.48551 11.29216,-1.48551 2.24637,0 7.32785,-0.62563 11.29216,-1.39029 3.96431,-0.76466 10.53991,-1.97497 14.61243,-2.68957 8.89641,-1.56105 31.40315,-1.85622 32.0363,-0.42014 0.84056,1.90651 -5.95479,5.35957 -11.74135,5.96638 -11.96389,1.2546 -21.87508,2.78381 -26.45642,4.08199 -2.61629,0.74135 -8.35752,1.4347 -12.7583,1.54077 -7.23562,0.17439 -12.71663,0.72923 -38.35087,3.88223 -4.32633,0.53214 -8.60133,1.19547 -9.5,1.47408 -0.89867,0.27861 -7.72683,1.17711 -15.17367,1.99667 -7.44685,0.81956 -18.24685,2.40997 -24,3.53425 -5.75316,1.12428 -18.33528,3.17291 -27.96028,4.55252 -9.625,1.37961 -18.85,2.91854 -20.5,3.41984 -1.65,0.50131 -5.025,1.25384 -7.5,1.67228 -2.475,0.41845 -4.725,0.80942 -5,0.86883 -0.275,0.0594 -2.75,0.448 -5.5,0.86352 -6.59081,0.99586 -34.78422,7.78347 -73,17.57488 -20.2894,5.19842 -46.61457,10.09675 -53.96536,10.04135 -2.21905,-0.0167 -4.82214,-0.48908 -5.78464,-1.04969 z M 94.276037,908.39539 c 2.217229,-1.84014 3.428979,-10.79967 3.641309,-26.92347 0.18192,-13.81388 -0.0208,-15.98952 -1.863589,-20 -2.81936,-6.13579 -9.11794,-12.32955 -14.44926,-14.20879 -2.43137,-0.85703 -7.12068,-2.55982 -10.42068,-3.78397 -7.53484,-2.79508 -23.79908,-3.85466 -31.35276,-2.04256 -8.86001,2.12548 -15.8102,12.04883 -20.03897,28.61127 -2.79364,10.94162 -2.00544,13.50846 6.55745,21.35479 6.43471,5.89624 17.33749,12.06926 21.31672,12.06926 1.0874,0 3.6737,0.61647 5.74733,1.36993 4.4987,1.63461 16.37018,4.43535 21.27023,5.01811 5.5529,0.6604 18.16805,-0.28262 19.59222,-1.46457 z m 24.305993,-0.56473 c 2.33849,-1.63794 2.34229,-1.6768 1.88437,-19.25 -0.41746,-16.02031 -0.67363,-18.04091 -2.83982,-22.39958 -1.81734,-3.65672 -2.86174,-4.72199 -4.41187,-4.5 -1.86659,0.26731 -2.08715,1.26167 -2.72632,12.29084 -0.38249,6.6 -1.06184,16.39565 -1.50966,21.76812 -0.7513,9.01324 -0.66106,9.92128 1.16766,11.75 2.41144,2.41145 5.31191,2.52857 8.43564,0.34062 z m 25.78844,-3.25299 c 13.64459,-3.30796 39.0462,-13.37657 44.01884,-17.44804 1.53698,-1.25844 4.5025,-3.32061 6.59004,-4.5826 4.24878,-2.56851 13.40761,-13.46514 16.45326,-19.57511 2.27914,-4.57226 4.25578,-14.86307 4.24144,-22.08191 -0.0165,-8.32046 -6.01845,-18.79136 -16.47374,-28.73992 -8.59078,-8.17442 -15.31902,-8.43072 -26.30015,-1.00185 -10.45962,7.07605 -14.94998,11.94945 -19.73754,21.42117 -4.35864,8.62312 -11.13072,16.11979 -17.5696,19.44947 -1.49386,0.7725 -3.67169,2.9507 -4.83961,4.84045 -2.08011,3.36568 -2.09045,3.5959 -0.50615,11.266 0.88954,4.30655 1.85551,8.21545 2.1466,8.68644 0.29108,0.47098 0.47631,7.33719 0.41161,15.25824 -0.13625,16.67981 -1.14484,15.589 11.565,12.50766 z m 241.5055,-10.10575 c 5.8351,0 8.31507,-2.99336 9.14667,-11.04016 0.45235,-4.3771 1.23078,-6.89285 2.41439,-7.80287 1.7207,-1.32298 7.40649,-1.23329 21.89377,0.34536 4.01381,0.43737 5.51563,0.1922 6.82143,-1.1136 1.48315,-1.48314 1.50428,-1.84461 0.18495,-3.16394 -1.87062,-1.87063 -7.86889,-5.56761 -13.36869,-8.23969 -7.06917,-3.43455 -9.06915,-8.63361 -5.77311,-15.00745 1.33089,-2.57367 1.89861,-2.84973 4.75,-2.30976 4.75709,0.90085 14.74734,8.36683 21.92896,16.38809 8.94537,9.99123 11.74256,10.42085 21.07803,3.23738 6.16216,-4.74168 7.73145,-7.31546 7.73145,-12.68032 0,-5.39473 -7.70824,-13.92188 -15.54473,-17.19618 -4.43253,-1.85203 -21.94048,-4.87003 -39.95527,-6.88745 -12.81553,-1.43517 -18.67679,-2.77918 -21.37613,-4.90162 -1.13188,-0.88999 -1.30937,-6.85439 -1,-33.60491 l 0.37613,-32.52288 -9.5,-0.29317 c -13.97466,-0.43127 -13.2907,-0.87675 -16.94567,11.03703 -8.21931,26.79168 -12.55374,37.31469 -18.42717,44.73693 -3.98242,5.03257 -4.14104,8.36519 -0.52836,11.10066 1.32066,0.99998 4.2012,2.10176 6.4012,2.44839 5.12156,0.80695 20.6289,5.98511 25.75372,8.5996 6.06039,3.09178 12.4267,9.51802 15.35142,15.49593 3.25362,6.65016 3.00403,11.72359 -1.0901,22.15885 -2.31334,5.89633 -4.03991,8.35979 -9.66574,13.79107 -3.76711,3.63685 -6.8493,7.08431 -6.8493,7.66103 0,0.68741 2.11723,0.8273 6.14669,0.40614 3.38068,-0.35335 7.90114,-0.64246 10.04546,-0.64246 z m -227.19215,-82.992 c 5.09158,-3.37564 12,-10.67421 12,-12.67769 0,-1.79096 -2.45767,-1.68871 -3.99719,0.16631 -0.68315,0.82314 -4.00075,2.891 -7.37245,4.59524 -3.3717,1.70425 -6.86951,3.75676 -7.77291,4.56114 -0.9034,0.80437 -2.80734,1.77401 -4.23098,2.15475 -3.24998,0.86918 -3.4612,2.4904 -0.43549,3.34257 4.5951,1.29418 7.39058,0.78704 11.80902,-2.14232 z m -18,-5.41533 c 0,-2.55232 9.58247,-10.01246 19.11973,-14.88509 11.3612,-5.80449 16.46006,-9.75429 15.57371,-12.06408 -1.7086,-4.45253 -16.18335,1.29539 -27.19344,10.7985 -3.3,2.84832 -8.3625,6.68988 -11.25,8.5368 -2.8875,1.84692 -5.25,3.94287 -5.25,4.65768 0,1.49078 4.65039,4.26401 7.25,4.32348 0.9625,0.022 1.75,-0.59326 1.75,-1.36729 z m -15.72432,-4.52986 c 1.8399,-1.61545 4.43906,-5.06385 5.7759,-7.66311 1.57321,-3.05881 5.66935,-7.57863 11.61177,-12.81281 9.68577,-8.53137 16.27895,-11.68008 27.61215,-13.18676 5.65158,-0.75134 7.7245,-3.07369 7.7245,-8.65402 0,-4.76224 -1.64095,-5.50705 -7.21729,-3.27584 -2.31728,0.92719 -9.63551,2.76489 -16.26273,4.08377 -11.83666,2.35562 -30.4762,8.38293 -38.79713,12.54551 -6.34159,3.17241 -11.72285,8.74362 -11.72285,12.13664 0,3.47165 3.9672,11.48566 7.15815,14.45997 2.11436,1.9708 8.21393,5.16383 10.05705,5.2647 0.39337,0.0215 2.22058,-1.2826 4.06048,-2.89805 z m 259.72432,-62.66431 v -8.3985 l -2.75,-0.11842 c -1.5125,-0.0651 -3.10758,-0.0584 -3.54462,0.0149 -0.43704,0.0733 -3.58704,0.18485 -7,0.24786 -3.53366,0.0652 -7.22657,0.74895 -8.5772,1.588 -2.11673,1.31497 -2.30428,1.96626 -1.74377,6.0556 0.34543,2.52019 1.3165,5.63287 2.15794,6.91707 1.44368,2.20333 2.09131,2.32805 11.49377,2.21345 l 9.96388,-0.12147 z m -5.5,-19.23611 c 4.46102,-0.59099 5.033,-0.94736 5.30616,-3.30601 0.16838,-1.45399 -0.0761,-4.11882 -0.54331,-5.92183 l -0.84947,-3.2782 -12.4479,0.24957 c -6.84635,0.13726 -13.01436,0.71968 -13.70669,1.29427 -1.80415,1.49731 -1.55303,7.81719 0.3962,9.97107 1.34256,1.48352 3.08873,1.8122 9.25,1.74113 4.17725,-0.0482 9.84501,-0.38568 12.59501,-0.75 z m -142.5,-210.80591 c 7.72419,-2.15585 18.12339,-9.28123 23.02974,-15.77964 9.43067,-12.49084 16.484,-25.89159 21.13746,-40.15945 9.99155,-30.63486 11.8136,-39.64087 11.8187,-58.41739 0.002,-8.5247 -2.03081,-24.49234 -3.94091,-30.95085 -0.56132,-1.89797 -1.74496,-7.70328 -2.63032,-12.9007 -0.88535,-5.19742 -2.24084,-11.23862 -3.0122,-13.42488 -0.87682,-2.48516 -1.40247,-8.09071 -1.40247,-14.95588 v -10.98085 l 7.1322,-7.35547 c 6.52697,-6.73129 8.07565,-7.75376 18.25,-12.04899 17.5078,-7.39113 34.87455,-13.16525 47.49472,-15.7911 10.83316,-2.25403 17.72333,-3.72934 40.62308,-8.69812 4.95,-1.07405 18.45,-3.32167 30,-4.9947 20.02859,-2.90116 22.66527,-3.05012 57,-3.22017 34.52261,-0.17097 36.43091,-0.0816 46.5,2.17757 5.775,1.29572 12.75,3.2542 15.5,4.35217 11.22061,4.47995 12.88271,4.90311 16.71541,4.25558 3.55306,-0.60029 4.11381,-1.17065 7.18414,-7.30736 8.6811,-17.35104 19.06258,-47.9258 21.78388,-64.15625 2.94983,-17.59345 2.94309,-38.62055 -0.0172,-53.6735 -2.42659,-12.33914 -9.35963,-33.87909 -13.56704,-42.15083 -2.96525,-5.829655 -23.22389,-35.539705 -27.74471,-40.688625 -6.71352,-7.64628 -34.21567,-23.05163 -50.85448,-28.48619 -6.52706,-2.13186 -28.29803,-8.00159 -39.5,-10.64971 -22.20157,-5.24839 -74.9329,-9.02801 -90,-6.45092 -12.27079,2.0988 -30.66901,6.9773 -41.5,11.0042 -23.67337,8.80163 -37.56807,14.29594 -49.44577,19.55208 -6.89237,3.05003 -19.17418,8.27747 -27.29291,11.61655 -35.40519,14.56146 -66.87643,34.32197 -85.32653,53.575755 -12.22946,12.76218 -45.91501,59.45101 -52.9222,73.35119 -4.61266,9.15017 -17.258483,42.84532 -21.174353,56.4197 -3.82717,13.2669 -6.18652,31.81827 -5.35095,42.0742 0.81657,10.02265 4.1392,31.12694 6.11349,38.83083 2.93679,11.45972 11.484693,37.65319 15.768173,48.31868 2.39813,5.97113 5.37399,14.00659 6.61302,17.85659 1.23904,3.85 5.00464,12.175 8.36802,18.5 4.72895,8.89305 7.75034,13.15677 13.32822,18.80851 l 7.21301,7.30851 0.53651,17.29236 c 0.57974,18.68547 1.15633,21.07479 7.05811,29.24811 4.04071,5.59594 17.80828,15.32884 30.22166,21.36503 8.75508,4.25728 12.12218,5.29036 23.66357,7.26036 14.73284,2.51474 23.80921,2.53522 32.62893,0.0736 z m -24.70154,-37.4351 c -9.50529,-0.90579 -12.99008,-2.3636 -19.58222,-8.19191 -4.3109,-3.8114 -4.8787,-4.82256 -5.74421,-10.22947 -1.6459,-10.28213 -1.21644,-24.8353 0.89702,-30.39749 2.79262,-7.34958 7.99056,-14.80172 11.27257,-16.16117 5.73657,-2.37617 10.07329,-0.74643 19.57019,7.35446 14.82625,12.64684 15.30244,13.29311 16.45857,22.33672 1.48775,11.63768 0.65498,18.78949 -3.0403,26.10979 -4.67641,9.26393 -7.11188,10.39118 -19.83162,9.17907 z m 5.07564,-11.87351 c 3.14481,-1.19566 4.48358,-3.69143 6.64439,-12.38671 2.68005,-10.78471 0.54645,-16.62148 -8.9713,-24.54223 -6.79079,-5.65135 -10.98986,-7.04174 -14.43978,-4.78126 -2.71805,1.78093 -3.58522,6.97235 -3.59872,21.5443 -0.0107,11.59964 1.59661,14.80541 9.28984,18.52807 5.76888,2.79148 7.4049,3.03341 11.07557,1.63783 z m 31.82399,-185.72068 c -1.81605,-0.89501 -3.9051,-2.79726 -4.64233,-4.22723 -1.27505,-2.47318 -4.01229,-15.3465 -8.42008,-39.59996 -4.23213,-23.28694 -9.33893,-70.90954 -8.47155,-79 0.67551,-6.30078 -0.98218,-15.41547 -3.84679,-21.1513 l -2.20802,-4.42112 2.94534,-5.58856 c 1.61994,-3.0737 4.39704,-7.1589 6.17134,-9.07822 2.69306,-2.91316 3.68427,-3.3807 6,-2.8301 6.21448,1.47758 11.63524,7.76174 12.80333,14.84259 1.61122,9.76713 5.50647,19.50184 10.52236,26.29674 2.7778,3.76301 6.38148,9.33667 8.00817,12.3859 3.30557,6.19632 18.9711,22.74804 34.22814,36.16441 13.76231,12.10198 34.712,23.3954 34.712,18.71232 0,-6.12953 -8.66562,-43.13938 -14.47773,-61.83266 -2.0129,-6.47401 -2.46849,-10.91997 -3.33036,-32.5 -0.97211,-24.340035 -0.53372,-35.137515 1.5864,-39.073085 1.62877,-3.02349 5.411,-6.04581 9.12091,-7.28839 4.96466,-1.66285 6.72651,-1.42188 9.43939,1.29099 2.1525,2.1525 2.33724,2.92345 1.62022,6.76147 -0.44512,2.38258 -0.65443,12.2018 -0.46515,21.820485 0.38646,19.63835 2.96704,37.83559 6.82602,48.13443 4.81567,12.85203 8.6829,28.84518 11.68464,48.32248 3.61919,23.48373 3.76049,26.38888 1.63851,33.68824 -2.08158,7.16039 -10.6785,15.84338 -15.68633,15.84338 -4.0368,0 -28.16629,-9.47893 -41.29065,-16.22046 -7.82641,-4.02015 -12.11384,-7.09572 -19.14015,-13.73008 -4.97999,-4.7022 -11.07305,-10.23036 -13.54013,-12.28478 -5.9067,-4.91874 -5.4565,-4.42612 -10.08208,-11.03201 -2.22112,-3.17204 -4.45805,-5.50798 -4.97096,-5.19099 -4.34649,2.68629 5.37659,49.15731 11.95491,57.13796 5.4537,6.61628 3.94433,13.54406 -4.4984,20.6469 -3.09983,2.60788 -7.45266,4.69396 -9.70416,4.65069 -0.65169,-0.0125 -2.67076,-0.75504 -4.48681,-1.65004 z m 198.30191,-41.39407 c -20.38088,-1.13505 -27.5999,-3.85994 -40.80016,-15.4004 -16.70723,-14.60647 -20.82,-21.22462 -23.76886,-38.24817 -2.29506,-13.24928 -2.35325,-17.14638 -0.39502,-26.45549 3.04527,-14.4767 12.20901,-31.2636 26.0569,-47.73319 4.34893,-5.172263 8.99412,-10.797265 10.32264,-12.499995 5.91948,-7.58681 9.47241,-10.59575 12.53745,-10.61784 1.67588,-0.0121 5.07205,-0.94912 7.54705,-2.08232 7.22065,-3.30602 26.07281,-6.89145 30.73149,-5.84471 4.79816,1.07807 20.79652,6.66971 24.42569,8.53711 4.86193,2.5017 20.29254,16.596922 23.85556,21.791045 3.5575,5.18609 15.98726,34.17662 15.98726,37.28786 0,0.9301 -0.85764,4.64801 -1.90587,8.26203 -1.04822,3.61402 -2.5964,9.5534 -3.44038,13.19862 -4.30094,18.57601 -14.15185,34.7131 -31.17055,51.06146 -7.96768,7.65385 -15.8947,13.79672 -17.81661,13.80659 -0.45838,0.002 -4.20488,1.35428 -8.32556,3.00428 -4.12068,1.65 -8.24565,2.92285 -9.16659,2.82856 -0.92094,-0.0943 -7.52444,-0.49724 -14.67444,-0.89544 z m 21.28984,-25.818 c 2.04059,-1.03668 6.55448,-2.67991 10.03088,-3.65162 7.78276,-2.1754 12.76063,-6.58505 20.56608,-18.21846 5.8722,-8.75208 7.99289,-14.34384 9.80878,-25.86357 1.04575,-6.63408 0.94038,-7.7014 -1.54832,-15.68355 -3.63485,-11.65822 -10.5717,-21.81014 -21.32957,-31.21532 -13.82187,-12.083913 -23.36547,-14.421745 -42.81769,-10.48877 -6.05,1.22322 -12.19346,2.8388 -13.65213,3.59018 -3.34205,1.72151 -17.5543,24.28302 -21.36482,33.91599 -2.39487,6.05423 -2.78345,8.48622 -2.87602,18 l -0.10703,11 4.36033,8.6433 c 2.39818,4.75382 6.31454,10.87725 8.70301,13.60763 6.86319,7.84566 23.09935,14.94607 38.93666,17.0278 3.85,0.50607 7.13043,0.98788 7.28984,1.07069 0.15941,0.0828 1.95941,-0.69762 4,-1.7343 z m 184.87686,613.21821 c -1.5918,-1.59174 -0.5746,-7.07122 1.7113,-9.21867 2.5741,-2.41826 11.329,-3.90698 16.0331,-2.72633 5.1908,1.3028 2.1446,8.79288 -4.1357,10.16891 -1.5264,0.33446 -4.08,1.02091 -5.6746,1.52544 -3.4072,1.07804 -6.9934,1.19133 -7.9341,0.25065 z m -380.48251,-49.8263 c -1.20131,-1.52721 -2.18419,-3.15023 -2.18419,-3.6067 0,-1.22711 2.87298,-2.49587 8.5,-3.75375 7.08609,-1.58405 47.23576,-4.36361 51.83456,-3.58851 4.11757,0.694 10.55371,4.29793 10.62311,5.94845 0.0691,1.64365 -7.46575,3.49348 -14.22993,3.49348 -3.46706,0 -11.68665,0.67363 -18.26575,1.49696 -6.57909,0.82333 -16.94161,1.78718 -23.0278,2.14189 l -11.06582,0.64492 z m 241.65163,-79.67121 c -1.84333,-1.84333 -2.46737,-7.34401 -1.07051,-9.43624 0.40408,-0.60523 2.30969,-1.09482 4.23469,-1.08797 1.925,0.007 7.1,-0.48947 11.5,-1.10293 15.77598,-2.19953 26.34708,-3.20868 33.61334,-3.20885 4.06266,-1e-4 10.8709,-0.6669 15.12941,-1.48178 7.98973,-1.52887 18.26213,-1.60263 20.57239,-0.14772 2.07148,1.30453 -1.25537,4.29612 -6.68275,6.0093 -4.65442,1.4692 -18.46909,3.60492 -36.13239,5.58601 -5.225,0.58602 -13.55,1.97227 -18.5,3.08055 -15.75925,3.52842 -20.54731,3.9065 -22.66418,1.78963 z M 378.91441,469.74708 c -2.0283,-0.25112 -3.85617,-1.30028 -4.81508,-2.76377 -1.38898,-2.11985 -1.39065,-2.65878 -0.0165,-5.31608 1.92211,-3.71697 7.16859,-8.19531 9.60099,-8.19531 1.0156,0 3.23108,1.165 4.92327,2.58889 2.56822,2.16102 3.07673,3.30857 3.07673,6.9433 0,6.61698 -2.61851,7.9997 -12.76941,6.74297 z m -25.24155,-18.52516 c -1.08986,-1.7875 -1.98325,-4.94411 -1.9853,-7.0147 -0.003,-3.17609 0.50439,-4.07451 3.24626,-5.74626 4.57267,-2.78801 10.27671,-2.641 12.21341,0.31477 2.70434,4.12735 -0.56565,11.14634 -6.66139,14.29857 -3.85359,1.99277 -4.59075,1.79234 -6.81298,-1.85238 z m 94.24572,-10.38155 c -0.52931,-1.02765 -1.22351,-4.52722 -1.54267,-7.77683 -0.31915,-3.24961 -1.2061,-6.53421 -1.971,-7.29911 -0.7649,-0.7649 -5.18376,-2.00474 -9.81969,-2.75519 -12.88155,-2.08526 -21.4296,-6.00456 -29.23382,-13.40378 -5.31926,-5.04322 -6.82745,-8.3281 -8.32565,-18.13354 -2.06049,-13.48557 -1.60932,-20.76896 1.79643,-29 1.2521,-3.02609 12.79199,-12.9331 21.79745,-18.71314 10.71059,-6.87447 10.94318,-7.09627 11.58855,-11.05143 0.33523,-2.05448 1.30816,-5.39061 2.16206,-7.4136 1.44226,-3.41688 2.66025,-4.29751 8.57859,-6.20247 5.041,-1.62256 3.81483,-10.66361 -2.14555,-15.82001 -4.36585,-3.77694 -5.72924,-7.58316 -3.70695,-10.34881 1.05244,-1.4393 2.98471,-1.96411 8.34722,-2.26712 7.67613,-0.43374 11.24027,0.77669 11.24027,3.81734 0,1.96275 5.50281,12.64071 9.79113,18.99924 2.10567,3.12219 2.28957,4.20665 1.70363,10.04637 l -0.65684,6.54636 11.79835,1.29418 c 7.18511,0.78814 13.17966,2.00852 15.33104,3.12111 4.45938,2.30618 10.69451,8.89274 15.11319,15.96502 3.17305,5.07859 3.44386,6.16447 3.75747,15.06644 0.40994,11.63609 -0.60308,15.73983 -5.91367,23.95634 -10.31104,15.95319 -26.91838,28.42561 -39.59092,29.73353 -2.96561,0.30608 -5.66875,1.00427 -6.00698,1.55155 -0.33824,0.54727 -0.52417,4.4302 -0.41318,8.62873 0.18373,6.95073 -0.0182,7.8404 -2.25742,9.94401 -3.36727,3.16338 -10.11118,4.05785 -11.42104,1.51481 z m 20.67068,-52.32021 c 2.10418,-1.07347 6.02375,-2.48919 8.71017,-3.14605 2.68641,-0.65686 6.17802,-1.84415 7.75913,-2.63842 l 2.87473,-1.44414 -0.4442,-10.65981 c -0.75639,-18.15133 -3.21505,-20.13793 -22.5617,-18.22987 -13.18265,1.30014 -20.17213,3.55817 -21.96174,7.09501 -1.86675,3.6893 -1.54194,11.90592 0.73192,18.515 3.70462,10.76766 5.58119,12.29052 15.27609,12.39665 3.8729,0.0424 7.0565,-0.58281 9.6156,-1.88837 z m -82.23877,50.28509 c -2.35748,-2.35748 1.09305,-10.81934 5.62188,-13.78674 3.61758,-2.37033 8.60552,-1.02814 10.19084,2.74222 2.24045,5.32848 0.1156,8.48448 -7.09541,10.53867 -4.62294,1.31693 -7.72616,1.497 -8.71731,0.50585 z m -51.16871,-82.61911 c -2.20112,-0.66782 -4.56362,-1.57828 -5.25,-2.02324 -1.81543,-1.17689 -1.52739,-5.13786 0.50204,-6.90373 1.9111,-1.66289 12.11848,-5.3376 19.25,-6.93008 12.09218,-2.70022 12,-2.65154 12,-6.33649 0,-2.52785 -1.02385,-4.58201 -3.99467,-8.01452 -6.70888,-7.7515 -6.80678,-12.78203 -0.31477,-16.1749 6.64678,-3.47377 8.63649,-2.36736 16.61276,9.23769 13.06595,19.01031 12.95924,18.56116 5.94668,25.02881 -2.6125,2.4095 -5.15752,4.38571 -5.65561,4.39157 -0.49808,0.006 -2.29808,1.0549 -4,2.33118 -5.59515,4.19584 -11.53323,5.9212 -21.59439,6.27441 -5.58881,0.19621 -11.14766,-0.16638 -13.50204,-0.8807 z"
       id="path4669" />
  </g>
</svg>
