<?xml version="1.0" encoding="UTF-8" standalone="no"?>
<svg
   xmlns:dc="http://purl.org/dc/elements/1.1/"
   xmlns:cc="http://creativecommons.org/ns#"
   xmlns:rdf="http://www.w3.org/1999/02/22-rdf-syntax-ns#"
   xmlns:svg="http://www.w3.org/2000/svg"
   xmlns="http://www.w3.org/2000/svg"
   xmlns:sodipodi="http://sodipodi.sourceforge.net/DTD/sodipodi-0.dtd"
   xmlns:inkscape="http://www.inkscape.org/namespaces/inkscape"
   inkscape:version="1.0 (4035a4fb49, 2020-05-01)"
   sodipodi:docname="nolike.svg"
   viewBox="0 0 290 257"
   height="257"
   width="290"
   id="svg1399"
   version="1.1">
  <style
     id="style1411"></style>
  <metadata
     id="metadata1405">
    <rdf:RDF>
      <cc:Work
         rdf:about="">
        <dc:format>image/svg+xml</dc:format>
        <dc:type
           rdf:resource="http://purl.org/dc/dcmitype/StillImage" />
        <dc:title></dc:title>
      </cc:Work>
    </rdf:RDF>
  </metadata>
  <defs
     id="defs1403">
    <clipPath
       id="clipPath1420"
       clipPathUnits="userSpaceOnUse">
      <path
         style="fill:#000000;stroke-width:0;stroke-linecap:round;stroke-opacity:0.996591"
         d="M 19.31576,234.8466 28.400877,208.64874 22.710342,109.257 102.78164,101.34069 79.328312,54.253081 c 0,0 58.431648,0.861015 60.125008,0.583801 1.69337,-0.277213 22.15726,-47.6190244 22.15726,-47.6190244 l 40.29976,13.6589494 23.66446,-7.445181 5.31597,17.836469 -2.5366,11.071824 28.75667,2.613762 -2.13967,45.665837 25.20578,23.749832 -11.59678,24.89766 -0.20536,3.62672 0.0276,37.74535 -0.0537,4.42186 10.77274,35.73441 -78.75127,32.76624 -174.570615,-5.36126 z"
         id="path1422" />
    </clipPath>
  </defs>
  <sodipodi:namedview
     inkscape:current-layer="layer1"
     inkscape:window-maximized="0"
     inkscape:window-y="33"
     inkscape:window-x="10"
     inkscape:cy="106.2185"
     inkscape:cx="142.72498"
     inkscape:zoom="2.9553362"
     showgrid="false"
     id="namedview1401"
     inkscape:window-height="1035"
     inkscape:window-width="1898"
     inkscape:pageshadow="2"
     inkscape:pageopacity="0"
     guidetolerance="10"
     gridtolerance="10"
     objecttolerance="10"
     borderopacity="1"
     bordercolor="#666666"
     pagecolor="#ffffff" />
  <g
     inkscape:label="Image 1"
     id="layer1"
     inkscape:groupmode="layer">
    <path
       sodipodi:nodetypes="ccscssccccccscccccccccccccccccsccccscscccscc"
       id="path2141"
       d="m 144.01268,110.28489 c 0,0 -8.29148,-6.54742 -8.27752,-7.22862 0.014,-0.68121 3.17226,-9.601587 3.62124,-11.500665 0.44898,-1.899078 13.97605,-14.547929 13.97605,-14.547929 0,0 -13.02764,2.790928 -15.17675,2.359974 -2.1491,-0.430954 -24.54555,0.309847 -24.54555,-0.0064 0,-0.31624 -0.25134,9.633014 -0.25134,9.633014 l -6.70726,4.325091 -3.46298,-2.521569 1.40069,-9.773001 -8.522315,-1.894247 0.378368,-5.179288 c 0,0 -0.252641,-3.080409 -1.250406,-4.35207 -0.997765,-1.271662 -1.833922,-5.36112 -1.833922,-5.36112 l 4.328967,-2.215471 48.855578,-0.399702 10.22109,3.857199 -7.11288,-8.412713 0.21304,-10.781137 6.62848,-11.030555 8.64024,-7.964808 1.0325,-11.008203 10.0629,5.060214 0.64185,-0.288011 c 0,0 4.41426,6.981852 12.57666,3.189176 11.01726,1.165351 12.01332,2.419317 11.64153,2.408475 l 9.07341,-3.065615 5.6369,-2.645283 4.22155,0.573626 -1.58789,8.431925 c 0,0 -3.19003,3.371001 -0.15001,7.238802 3.04003,3.867802 7.00603,11.822613 7.00603,11.822613 l -0.40635,4.307994 -3.08636,12.575688 -11.87601,7.352281 c 0,0 -0.85629,2.594035 0.62676,4.640801 1.48305,2.046765 -0.70559,3.676126 -0.70559,3.676126 0,0 2.82902,4.4177 3.04666,4.759787 0.21764,0.342087 4.38081,8.56497 4.38081,8.56497 l -0.8943,8.385511 -1.32315,2.74616 c 0,0 -3.37283,2.34189 -9.96051,3.44501 -6.58767,1.10312 -22.20726,0.66585 -22.20726,0.66585 z"
       style="fill:#f3c300;fill-opacity:1;stroke-width:0;stroke-linecap:round;stroke-opacity:0.996591" />
    <path
       id="path2143"
       d="m 29.891238,233.90638 c 0,0 1.833065,-17.69485 1.367902,-21.671 -0.465164,-3.97615 -0.07518,-35.49679 -0.07518,-35.49679 l -2.136036,-56.3567 2.950895,-4.40327 c 0,0 6.982893,-2.93186 7.383989,-2.79121 0.401097,0.14065 7.554349,0.52103 7.554349,0.52103 l 52.144767,-3.54571 7.734066,-0.37242 25.95484,-0.60797 63.8376,0.23044 65.10019,-1.02827 c 0,0 5.41882,-0.72136 5.51172,3.92663 0.0929,4.64799 -2.54501,91.7848 -2.54501,91.7848 0,0 0.31711,7.6377 -0.16848,8.79529 -0.48558,1.15759 -4.76648,2.17983 -4.76648,2.17983 l -4.8989,3.44726 c 0,0 -6.79401,6.39414 -9.56802,3.95399 -2.77401,-2.44016 -5.84056,6.64501 -9.99726,6.11133 -4.1567,-0.53368 -5.59589,2.64712 -5.59589,2.64712 l -14.41042,5.29481 -3.56824,5.0015 c 0,0 -1.96309,1.78593 -4.59507,1.2881 -2.63197,-0.49783 -21.04326,-0.74269 -21.04326,-0.74269 l -6.57414,0.87663 c 0,0 -5.09675,-1.35562 -8.19126,-0.22214 -3.0945,1.13347 -10.17932,-2.90527 -10.17932,-2.90527 0,0 -10.85649,1.12299 -13.92285,2.3743 -3.06636,1.25131 -13.49915,-1.94303 -13.49915,-1.94303 l -39.17256,-0.13037 -4.017859,0.0215 c 0,0 -5.869325,-3.50306 -10.990414,-2.28128 -5.121088,1.22177 -13.055143,1.42478 -14.680684,0.88348 -1.62554,-0.54131 -16.835261,-0.46348 -16.835261,-0.46348 l -19.667635,-2.79714 z"
       style="fill:#f7cd89;fill-opacity:1;stroke-width:0;stroke-linecap:round;stroke-opacity:0.996591" />
    <path
       id="path2147"
       d="m 57.987128,189.28717 7.814399,0.40323 -1.002885,19.48048 2.469877,1.86322 9.645908,-0.0435 -0.148729,9.8719 -15.952806,0.19213 -3.64681,-0.84983 -1.210006,-9.02137 z"
       style="fill:#ffffff;fill-opacity:1;stroke-width:0;stroke-linecap:round;stroke-opacity:0.996591" />
    <path
       id="path2149"
       d="m 85.221299,198.83669 -1.836175,16.69266 1.206869,5.58743 9.977194,-0.93755 -0.602068,-22.9493 z"
       style="fill:#ffffff;fill-opacity:1;stroke-width:0;stroke-linecap:round;stroke-opacity:0.996591" />
    <path
       id="path2151"
       d="m 86.727073,190.76739 c 0,0 1.327565,-2.77862 4.099846,-2.96438 2.772281,-0.18575 4.088084,3.17997 4.088084,3.17997 0,0 -0.343901,2.65617 -3.643044,2.65617 -3.299142,0 -3.69887,-0.59001 -4.544886,-2.87176 z"
       style="fill:#ffffff;fill-opacity:1;stroke-width:0;stroke-linecap:round;stroke-opacity:0.996591" />
    <path
       id="path2153"
       d="m 104.10385,192.48437 -0.29833,30.95855 6.68563,-0.32349 1.37164,-12.85147 9.24012,13.77825 7.90557,-4.25266 -7.64189,-11.84648 12.40835,-11.43908 -3.56139,-5.8719 -10.31449,6.19736 -5.06802,3.13524 1.21161,-10.73896 -7.777,-1.02018 -3.66166,-0.38692 -0.96837,4.13334 z"
       style="fill:#ffffff;fill-opacity:1;stroke-width:0;stroke-linecap:round;stroke-opacity:0.996591" />
    <path
       d="M 174.79688 194.42969 C 174.31025 194.42298 173.81656 194.45289 173.32617 194.5293 C 169.4031 195.14054 164.64258 197.27539 164.64258 197.27539 L 163.60547 199.94727 L 163.5918 203.26367 L 166.08594 206.29492 L 168.00391 208.44336 C 168.00391 208.44336 169.77063 212.4839 169.95508 212.83594 C 170.13952 213.18798 170.34961 216.31445 170.34961 216.31445 L 163.78125 215.48828 L 160.1582 214.38281 L 157.24805 217.63086 L 155.83984 217.2207 L 153.49219 214.01172 L 142.20898 212.80664 C 142.20898 212.80664 141.03955 211.9246 140.81641 211.73828 C 140.59328 211.55196 140.43555 209.79492 140.43555 209.79492 C 140.43555 209.79492 152.37361 209.44418 152.63672 209.20703 C 152.89983 208.96987 156.0401 209.35444 155.97852 207.91992 C 155.91692 206.4854 156.28602 202.15253 154.20312 200.86523 C 152.12023 199.57792 149.42545 197.70137 145.54102 198.74414 C 141.6566 199.78691 140.9115 197.72323 138.10352 199.78711 C 134.91572 202.13016 130.52539 206.97461 130.52539 206.97461 C 130.52539 206.97461 131.35267 212.8862 131.44922 213.21875 C 131.54582 213.5513 134.47881 218.7435 134.69336 218.99023 C 134.90791 219.23697 139.10938 221.34961 139.10938 221.34961 L 145.72461 221.87305 L 150.79492 220.73633 L 154.80469 218.49805 L 156.67969 218.25781 L 159.61328 221.35352 L 168.58398 223.69727 L 178.36328 219.24219 L 178.99219 211.87109 L 177.71875 207.92383 L 171.5957 204.33984 L 173.25391 202.35938 L 180.05664 202.43164 L 181.31641 196.30273 C 181.31641 196.30273 178.20324 194.47664 174.79688 194.42969 z M 146.79102 200.95117 L 147.84961 204.41406 L 140.41602 204.97852 L 140.45117 203.43555 L 143.80664 201.2793 L 146.79102 200.95117 z "
       style="fill:#ffffff;fill-opacity:1;stroke-width:0;stroke-linecap:round;stroke-opacity:0.996591"
       id="path2155" />
    <path
       id="path2160"
       d="m 116.73728,174.38295 c 0,0 2.57453,3.46175 5.73141,3.22858 3.15688,-0.23316 20.97421,2.37826 20.97421,2.37826 l 15.23955,-1.71259 1.89417,-2.16105 5.25917,-9.31846 -1.744,-5.40528 1.67243,-5.93225 -4.16311,-4.12545 3.49749,-5.31482 -5.28833,-3.38985 -20.73681,0.83103 1.25741,-20.66728 -3.76698,-3.23933 -7.21418,1.80939 -2.19874,5.33509 -0.91648,10.30187 -11.59267,11.59268 1.06974,-1.54991 z"
       style="fill:#ffffff;fill-opacity:1;stroke-width:0;stroke-linecap:round;stroke-opacity:0.996591" />
    <path
       id="path2162"
       d="m 176.89052,43.729988 0.19746,6.737042 -9.08656,-1.181254 -1.71988,-3.356855 5.51706,-3.785599 z"
       style="fill:#ffffff;fill-opacity:1;stroke-width:0;stroke-linecap:round;stroke-opacity:0.996591" />
    <path
       id="path2164"
       d="m 115.72407,150.98772 -0.24443,25.02494 -15.833166,-1.77947 -0.467153,-15.26198 1.491329,-10.76562 13.19936,-1.5482 1.98826,1.68808 z"
       style="fill:#43b5f4;fill-opacity:1;stroke-width:0;stroke-linecap:round;stroke-opacity:0.996591" />
    <path
       id="path2166"
       d="m 231.2153,108.89788 c 0,0 6.20788,-13.352934 7.3879,-19.276653 1.18001,-5.923719 1.10793,-8.66393 -0.0426,-8.882055 -1.15052,-0.218125 -28.28292,-2.387527 -28.28292,-2.387527 0,0 -1.42481,-3.525995 -1.06029,-4.150939 0.36452,-0.624945 13.86825,-8.352612 13.83366,-9.896889 -0.0346,-1.544277 1.233,-8.484325 1.12875,-9.798459 -0.10425,-1.314135 -1.16377,-6.030921 -0.0335,-6.003066 1.13028,0.02786 25.80039,1.164152 26.38207,2.787553 0.58168,1.623401 0.85204,11.269479 0.81243,11.493885 -0.0396,0.224405 -2.41061,16.905385 -2.41061,16.905385 l -5.24208,19.92088 c 0,0 -2.9188,8.876335 -4.62131,10.934725 -1.70251,2.05839 -7.85153,-1.64684 -7.85153,-1.64684 z"
       style="fill:#f7cd89;fill-opacity:1;stroke-width:0;stroke-linecap:round;stroke-opacity:0.996591" />
  </g>
  <g
     id="g1407"
     inkscape:label="Image"
     inkscape:groupmode="layer">
    <path
       sodipodi:nodetypes="sssscsssssssssscssssssssssscssssssssscssssssssscssssssssssscsssssssssssssssssssssssssssscsssscssssssssssssssscsssssscsssscsssssssssssssssscssssssssssscscsssssssssssssssssssssssscsssscssscssssssssssssssssssssssssssscssssssssssssscsssssssscsscssssssssssscssscssssscssssssscscssssssssssssssssssssssssssssssssssssssssssssssssssssscscccssssscssssssssssssssscssssscssssccssscsscsssscssssssssssssscsssssccsccsssssssssssssssccssscssscssccssssssssssssssssssssscscsssssssscsssssssssssssssssssssssssssssssscssssscssssssscssssssssssssssssssssssssssssssssssssssssccccsssssccccssssssssssssssssscssscsscsssssssssssssssssssssssssssssssssssssssssssssssssssscsss"
       id="path1424"
       d="m 162.46808,242.96473 c -1.01304,-1.11939 -2.43278,-1.79439 -3.15498,-1.5 -0.72221,0.2944 -1.9881,0.80841 -2.8131,1.14226 -2.62529,1.06235 -1.61445,-1.14626 1.61863,-3.53658 l 3.11863,-2.3057 2.19209,2.74915 c 1.84191,2.30998 2.78145,2.68034 5.88137,2.31844 4.01817,-0.46909 4.81256,0.49617 1.75502,2.13252 -3.04459,1.62941 -6.59135,1.21685 -8.59766,-1.00009 z m 14.19859,0.3686 C 176.3,242.96667 176,242.35213 176,241.9677 c 0,-1.14295 14.34388,-1.8341 16.32088,-0.78642 1.17921,0.62491 2.83696,0.61074 4.70424,-0.0402 2.93376,-1.02272 9.46326,0.0802 11.39834,1.9253 1.18809,1.13286 -17.56026,1.02036 -18.95767,-0.11376 -0.56882,-0.46164 -2.81882,-0.42557 -5,0.0802 -4.77809,1.10784 -6.90969,1.18998 -7.79912,0.30054 z M 135,242.018 c -0.825,-0.52325 -6,-0.7496 -11.5,-0.50299 -11.63438,0.52166 -34.5,-0.48204 -34.5,-1.5144 0,-1.19678 15.17377,-2.10129 16.51917,-0.9847 1.00382,0.83309 25.17504,0.63259 28.24873,-0.23433 0.40266,-0.11357 1.7875,0.37791 3.07744,1.09218 1.28994,0.71426 4.66494,1.20403 7.5,1.08837 6.69235,-0.27302 7.46397,-0.13139 5.65466,1.03787 -1.93093,1.24786 -13.03989,1.2612 -15,0.018 z m 75.00089,-0.768 c 0.002,-1.86935 7.91487,-8.25 10.23084,-8.25 1.3742,0 3.77997,-1.00797 5.34616,-2.23993 1.56618,-1.23195 3.69045,-2.09713 4.7206,-1.92261 1.03016,0.17452 2.68975,-0.42183 3.68798,-1.32522 1.08813,-0.98474 2.05968,-1.24659 2.42601,-0.65385 0.71799,1.16174 -5.35988,5.75494 -7.08953,5.35774 -0.65077,-0.14944 -2.67715,0.63911 -4.50308,1.75234 -1.82593,1.11323 -4.24818,2.02574 -5.38278,2.02779 -1.1346,0.002 -3.35629,1.35374 -4.93709,3.00374 -2.79794,2.92042 -4.50091,3.77207 -4.49911,2.25 z M 52.451524,240.11819 c -0.331786,-0.33178 -4.056609,-0.69231 -8.277385,-0.80116 -12.54401,-0.3235 -20.3273,-1.3647 -19.873234,-2.65851 0.22362,-0.63719 1.087752,-1.03999 1.920293,-0.89512 3.485707,0.60654 4.787239,-34.91629 2.647682,-72.2634 -1.099841,-19.19831 -1.156184,-42.38407 -0.111683,-45.95854 1.381329,-4.72715 8.427779,-6.27511 32.114828,-7.05496 C 71.667411,110.13108 82.075,109.65742 84,109.43394 c 1.925,-0.22349 26.51547,-0.44093 54.64548,-0.48321 l 51.14548,-0.0769 0.47592,-2.18693 c 0.26176,-1.20281 0.80694,-2.97443 1.21151,-3.93693 0.56786,-1.35097 0.24714,-1.75 -1.40658,-1.75 -2.67674,0 -7.07181,2.8017 -7.07181,4.50802 0,1.63765 -2.7407,2.72056 -3.55417,1.40433 -0.93257,-1.50893 2.02109,-5.41977 5.90717,-7.8215 2.89795,-1.79103 3.86348,-1.949336 5.9873,-0.981661 2.59068,1.180393 6.19036,0.558454 5.28127,-0.912478 C 195.66656,95.651472 198.21166,88 199.68066,88 c 0.79055,0 1.19743,0.388238 0.90416,0.862751 -0.29326,0.474513 2.56306,1.281877 6.34739,1.794142 l 6.8806,0.931392 -2.9064,-4.224318 c -2.91373,-4.234962 -3.84277,-9.667232 -1.86261,-10.89104 0.5741,-0.354809 1.5866,-0.20409 2.25,0.33493 0.66341,0.53902 7.23222,1.216474 14.59735,1.505452 8.38224,0.328885 13.65384,0.950475 14.09347,1.6618 2.43797,3.944718 -3.77825,26.564601 -6.54103,23.801821 -0.32435,-0.32436 0.56815,-4.255089 1.98334,-8.734958 C 238.64711,84.848281 238.70555,82.422343 235.75,81.630286 233.19351,80.945173 212,80.769618 212,81.433554 c 0,0.238455 1.42674,2.728702 3.17054,5.533881 2.1808,3.508182 3.30331,6.728617 3.59587,10.316446 0.37605,4.611759 0.12502,5.496579 -2.16659,7.636729 -2.87837,2.68812 -4.70018,2.071 -2.81197,-0.95252 1.73424,-2.77695 1.50615,-4.303388 -0.8642,-5.783701 -2.58535,-1.614574 -11.17545,-2.697638 -13.60933,-1.715902 -1.61591,0.651799 -1.54092,0.840023 0.68568,1.721155 1.375,0.544127 3.52724,1.113792 4.78275,1.265922 2.46457,0.29863 4.33993,1.544436 2.3249,1.544436 -0.67413,0 -0.96679,0.41891 -0.65036,0.9309 1.08381,1.75364 -1.45231,2.186 -3.67804,0.62703 C 201.5559,101.70107 199.78778,101 198.85007,101 197.12069,101 193,105.42626 193,107.28387 c 0,0.67399 11.90488,0.88032 35.49247,0.61515 23.3573,-0.26259 35.40956,-0.0571 35.25,0.60098 -0.13336,0.55 -0.76938,0.94343 -1.41339,0.87429 -0.64401,-0.0691 -0.93336,0.49336 -0.64301,1.25 0.29035,0.75664 0.0573,1.37571 -0.51781,1.37571 -0.57514,0 -1.3102,1.9125 -1.63346,4.25 -0.45602,3.29745 -1.579,72.11993 -1.50117,92 0.009,2.17233 -0.47012,3.75 -1.13766,3.75 -0.8541,0 -0.94087,-3.68806 -0.33527,-14.25 0.44938,-7.8375 0.726,-27.075 0.6147,-42.75 -0.11129,-15.675 0.15879,-31.67915 0.6002,-35.56478 l 0.80255,-7.06478 -5.53908,0.42768 c -3.04649,0.23522 -5.91208,0.77238 -6.36797,1.19368 -1.60533,1.48352 -2.63029,21.91959 -3.05983,61.0082 -0.42075,38.288 -0.21092,45 1.40674,45 1.80017,0 2.28585,-5.00988 3.10227,-32 1.25389,-41.45305 2.68946,-68.07614 3.85541,-71.5 0.96787,-2.84217 0.99705,-2.78956 0.55457,1 -0.875,7.49385 -2.43179,44.93047 -3.05648,73.5 -0.59562,27.24012 -0.71721,28.60077 -2.75048,30.77947 -1.17002,1.25371 -2.66706,2.07235 -3.32677,1.8192 -0.6597,-0.25315 -1.42667,0.40858 -1.70437,1.47053 -0.27771,1.06194 -1.04519,1.9308 -1.70553,1.9308 -0.68897,0 -0.93935,-0.68082 -0.58754,-1.59763 1.77506,-4.62573 2.52677,-19.05614 3.06834,-58.90237 0.32892,-24.2 0.97288,-45.9125 1.43103,-48.25 0.80972,-4.13125 0.75991,-4.24957 -1.78273,-4.23469 -1.43865,0.008 -3.19316,0.38171 -3.8989,0.82952 -1.58565,1.00614 -3.17634,48.38333 -2.74624,81.79388 0.15675,12.1763 -0.10312,22.7513 -0.57748,23.5 -0.47437,0.74871 -0.88186,0.91129 -0.90554,0.36129 -0.60033,-13.94243 0.7147,-101.74852 1.5622,-104.30986 0.31673,-0.95724 -0.57386,-1.22645 -3.30818,-1 L 228.5,115.5 227.6906,124 c -0.44517,4.675 -0.89517,29.49989 -1,55.16642 -0.10483,25.66653 -0.58037,47.04153 -1.05676,47.5 -0.99458,0.95717 -0.0912,-103.70558 0.93144,-107.91642 l 0.66787,-2.75 h -6.00958 c -4.79554,0 -6.14812,0.35353 -6.69529,1.75 -1.56998,4.00684 -3.74106,72.7891 -3.55101,112.5 0.0125,2.6125 -0.32362,4.75 -0.74694,4.75 -1.51947,0 0.68304,-105.34745 2.3991,-114.75 C 213.098,117.68259 212.88416,117 211.61129,117 210.72508,117 210,116.57757 210,116.06127 c 0,-1.13147 2.85895,-1.50824 28,-3.69009 10.725,-0.93076 19.88603,-2.02857 20.35785,-2.43959 0.47182,-0.41101 -0.65318,-0.60317 -2.5,-0.42701 -7.2027,0.68702 -45.52417,1.54077 -68.16687,1.51866 -15.58029,-0.0152 -23.596,0.32143 -23.19267,0.97403 0.33899,0.54849 3.85305,0.94576 7.80902,0.88281 15.20492,-0.24194 35.00145,0.14447 34.47303,0.67289 -0.30413,0.30414 -37.7818,0.51775 -83.28371,0.4747 -50.085936,-0.0474 -83.177794,0.29138 -83.863695,0.85854 -0.623125,0.51525 -2.482955,1.08914 -4.132955,1.2753 -5.258454,0.59331 -5.757106,4.3029 -4.336328,32.25899 1.381285,27.17901 1.70883,70.91053 0.60166,80.3295 -0.690402,5.87342 -0.611125,6.25 1.315742,6.25 1.127725,0 2.960242,0.48693 4.07226,1.08206 1.112018,0.59514 7.90766,1.15764 15.101426,1.25 10.17115,0.1306 13.182575,0.47728 13.542784,1.55907 0.340405,1.02232 -0.167866,1.23877 -1.917167,0.81644 -1.309207,-0.31608 -4.280554,-0.21726 -6.602992,0.21959 -2.322439,0.43685 -4.494076,0.52282 -4.825861,0.19103 z M 143,111.81464 c 0,-0.44805 -11.3625,-0.71568 -25.25,-0.59473 l -25.25,0.2199 21.5,0.5301 c 11.825,0.29155 23.1875,0.55918 25.25,0.59473 2.0625,0.0356 3.75,-0.30195 3.75,-0.75 z M 214.091,93.690996 C 212.64906,92.249056 200,91.428155 200,92.776516 c 0,1.349088 2.4644,2.220231 6.33179,2.238226 1.74251,0.0081 4.29321,0.591579 5.66821,1.296602 2.08167,1.067364 2.55753,1.047123 2.84378,-0.120962 0.18908,-0.771552 -0.14967,-1.896276 -0.75278,-2.499386 z M 69,238.97026 c 0,-0.39895 0.711541,-1.3159 1.581201,-2.03765 1.210669,-1.00477 2.009596,-1.04474 3.409322,-0.1706 1.026857,0.64128 3.401912,0.88629 5.418799,0.55899 C 81.60747,236.96429 83,237.14279 83,237.78126 c 0,1.16828 -5.798538,2.27878 -10.75,2.05878 -1.7875,-0.0794 -3.25,-0.47082 -3.25,-0.86978 z m 135.3493,-40.61883 c 0.25182,-21.91829 0.95496,-43.00143 1.56252,-46.85143 1.45207,-9.20141 1.86847,-14.27897 1.9887,-24.25 0.0663,-5.50199 0.48324,-8.25 1.25161,-8.25 1.33935,0 0.51438,22.19197 -1.2263,32.98771 -0.57534,3.56824 -1.16799,24.2429 -1.317,45.94369 -0.2061,30.01604 -0.56359,39.55352 -1.49416,39.86371 -0.95574,0.31858 -1.12311,-8.30679 -0.76537,-39.44368 z M 135,229.74321 C 116.025,229.3255 87.675,228.64989 72,228.24186 L 43.5,227.5 43.60404,221 c 0.286454,-17.89648 1.683979,-39 2.582672,-39 0.945361,0 0.426979,22.56863 -0.712043,31 -0.260054,1.925 -0.133132,5.72937 0.28205,8.45416 l 0.754877,4.95415 4.994202,0.18251 c 2.746811,0.10037 20.969202,0.47086 40.494202,0.8233 19.525,0.35245 48.43604,0.88659 64.24675,1.18698 l 28.74676,0.54618 1.07074,-2.81628 c 1.09105,-2.86966 1.84882,-41.75126 0.8335,-42.76659 -0.3012,-0.30119 -31.45132,-0.6639 -69.22251,-0.80602 C 79.904061,182.61628 49.000283,182.1625 49.000183,181.75 49.000082,181.3375 68.6875,180.91059 92.75,180.8013 c 24.0625,-0.10928 40.39511,-0.35586 36.29468,-0.54795 C 121.06965,179.87975 119,178.9462 119,175.72257 c 0,-1.92493 0.0994,-1.9426 1.87734,-0.33358 1.03253,0.93443 2.94503,1.86573 4.25,2.06955 6.00826,0.93842 26.91658,1.62385 30.28096,0.99268 4.14169,-0.77698 5.82823,-3.17972 3.24619,-4.6247 -2.48825,-1.3925 -2.01057,-2.43508 1.58864,-3.46732 4.43187,-1.27104 4.89338,-4.1819 0.79305,-5.00196 -3.45812,-0.69163 -3.58681,-2.67961 -0.20566,-3.17708 2.55978,-0.37662 4.42324,-3.3553 3.53962,-5.65797 -0.34248,-0.89249 -1.91586,-1.88133 -3.49641,-2.19744 -3.43998,-0.688 -3.73037,-2.47467 -0.62373,-3.83762 1.24114,-0.54452 2.25,-1.8731 2.25,-2.96305 0,-3.17627 -4.23532,-4.00986 -14.712,-2.8956 -5.31519,0.56531 -9.54583,0.61188 -9.89078,0.10887 -0.33153,-0.48343 -0.23862,-2.7596 0.20645,-5.05816 1.02097,-5.27273 1.10065,-15.81142 0.13102,-17.32924 -0.76028,-1.19012 -2.53225,-1.67315 -5.38686,-1.46843 C 130.77817,121.02994 129,125.9716 129,131.5749 c 0,3.79378 -0.56675,4.84921 -5.0212,9.35078 -2.76166,2.79088 -5.23666,5.07432 -5.5,5.07432 -1.30777,0 -0.099,-2.14993 3.5212,-6.26266 2.94044,-3.34051 4.00632,-5.43071 4.02386,-7.89079 0.038,-5.33646 1.71887,-11.18526 3.6123,-12.56977 0.96036,-0.70223 3.44972,-1.27678 5.53192,-1.27678 6.06435,0 7.26916,2.78219 6.52122,15.05903 -0.60214,9.88371 -0.59014,9.95491 1.60201,9.50081 6.21512,-1.28748 15.54867,-1.57118 18.22421,-0.55394 4.66648,1.77419 5.92317,5.41255 2.91018,8.42554 -1.4324,1.43241 -1.4255,1.63141 0.0766,2.20782 2.79146,1.07118 3.79086,5.26437 1.93117,8.10262 -1.17174,1.7883 -1.31737,2.77422 -0.52657,3.56502 1.92812,1.92812 1.25601,5.66175 -1.22248,6.79103 -1.83396,0.8356 -2.22632,1.66323 -1.88643,3.97908 0.37233,2.53684 -0.0162,3.11554 -2.93441,4.37033 -3.14379,1.35179 -2.28781,1.46611 13.09931,1.74948 l 16.46289,0.30318 -0.27216,21 c -0.1497,11.55 -0.38791,22.02479 -0.52937,23.2773 -0.44338,3.92577 -3.75881,5.32823 -11.84597,5.01095 C 172.77522,230.6312 153.975,230.16093 135,229.74321 Z m -32.54555,-5.50852 C 100.69487,222.99827 103.23849,187 105.08543,187 c 0.50569,0 0.57115,3.34189 0.15182,7.75 C 104.83176,199.0125 104.5,207 104.5,212.5 v 10 l 2.75,0.31642 c 2.66159,0.30625 2.75044,0.16159 2.76365,-4.5 0.0147,-5.1938 0.83519,-9.31786 1.85298,-9.31405 0.34835,10e-4 2.41915,2.92631 4.60178,6.5 3.85982,6.31984 5.32251,7.28256 8.9498,5.89064 2.29122,-0.87922 1.98999,-2.06897 -1.84737,-7.2965 -1.88603,-2.5693 -3.57353,-5.13736 -3.75,-5.7068 -0.17646,-0.56945 2.49166,-3.3815 5.92916,-6.24899 3.4375,-2.8675 6.25,-5.56122 6.25,-5.98605 0,-0.42482 -0.62398,-1.62575 -1.38661,-2.66871 -1.34015,-1.83277 -1.51606,-1.80052 -5.25,0.96265 -2.12487,1.57243 -5.28701,4.19034 -7.02698,5.81759 -3.01086,2.81579 -5.67372,3.06243 -4.87768,0.45177 0.20426,-0.66988 0.626,-3.35547 0.9372,-5.96797 l 0.56581,-4.75 h -3.42185 c -3.14918,0 -5.13286,-1.0737 -4.02692,-2.17964 0.25223,-0.25223 2.3775,-0.19424 4.72281,0.12886 l 4.26422,0.58745 -0.30008,4.73166 c -0.16505,2.60242 0.0665,4.73167 0.51447,4.73167 0.44801,0 3.59529,-2.25 6.99397,-5 3.39868,-2.75 6.38953,-5 6.64632,-5 0.2568,0 1.47173,2.07568 2.69984,4.61262 l 2.23293,4.61262 -2.89373,2.66942 c -1.59154,1.46819 -4.35622,3.69815 -6.14372,4.95548 -1.7875,1.25733 -3.25,2.9574 -3.25,3.77795 0,0.82054 1.575,3.55461 3.5,6.0757 1.925,2.5211 3.5,5.18806 3.5,5.92659 0,1.40472 -6.0416,4.36962 -8.904,4.36962 -0.97414,0 -3.19002,-2.58174 -5.3643,-6.25 l -3.70455,-6.25 -0.0136,3.6849 c -0.0234,6.34043 -1.49792,8.81728 -5.23883,8.79979 -1.80111,-0.008 -3.74525,-0.34592 -4.3203,-0.75 z m 58.84792,-0.70354 c -1.75869,-0.76481 -3.73782,-2.25556 -4.39807,-3.31278 -1.15503,-1.8495 -1.2684,-1.85427 -2.9966,-0.12607 -4.08119,4.08119 -15.92557,3.6171 -20.33962,-0.79695 -2.61834,-2.61833 -3.11466,-3.89181 -3.97812,-10.2071 -1.23567,-9.03765 16.60494,-16.00235 24.33331,-9.49936 2.43802,2.05146 3.07673,3.37487 3.07673,6.375 0,3.44044 -0.28531,3.84317 -3.125,4.41111 -1.71875,0.34375 -5.20625,0.66986 -7.75,0.72468 -3.80642,0.082 -4.18252,0.24139 -2.125,0.90032 1.375,0.44035 4.427,0.8455 6.78222,0.90032 3.45557,0.0804 4.45682,0.53403 5.18662,2.34968 0.49741,1.2375 0.93291,1.77351 0.96777,1.19113 0.0349,-0.58238 0.64783,-1.85814 1.36214,-2.83502 1.23575,-1.68999 1.4718,-1.67404 4.86633,0.32878 3.57554,2.10963 6.83492,1.92782 6.83492,-0.38125 0,-0.6778 -1.8,-2.8978 -4,-4.93331 -3.92185,-3.62863 -5.11208,-7.39315 -3.23469,-10.2308 2.11965,-3.2038 11.33376,-5.65628 12.73469,-3.38953 0.3614,0.58475 -0.67284,1 -2.49064,1 -1.70978,0 -4.43633,0.68656 -6.05902,1.52568 -4.19552,2.16959 -3.86094,5.31053 1.04966,9.85399 5.01563,4.64064 5.59391,9.18218 1.3062,10.25833 -1.77104,0.4445 -3.71182,0.0918 -5.6657,-1.02954 -2.73386,-1.56902 -3.09879,-1.57643 -4.5562,-0.0925 -1.44769,1.474 -1.39004,1.77245 0.66852,3.46116 5.63783,4.62489 14.62538,3.0598 17.81163,-3.10172 2.19009,-4.23517 1.18815,-7.12705 -3.2855,-9.48291 -2.07842,-1.09451 -3.77895,-2.62978 -3.77895,-3.41171 0,-2.20883 4.48383,-4.05977 6.81385,-2.81278 1.41886,0.75935 2.15026,0.69912 2.7208,-0.22404 C 181.07338,199.26324 180.13132,197 178.39301,197 177.62686,197 177,196.55 177,196 c 0,-1.57423 4.99893,-1.16635 5.62255,0.45876 0.30788,0.80232 0.0237,3.08316 -0.63156,5.06855 -0.91504,2.77259 -1.57398,3.4481 -2.84116,2.91264 C 175.83699,203.04009 173,202.78336 173,203.88342 c 0,0.61412 0.41547,1.11658 0.92327,1.11658 2.29026,0 7.07655,5.30458 7.07299,7.83889 -0.0125,8.90263 -10.59604,14.64868 -19.69389,10.69226 z m -10.31123,-3.82101 c 1.37013,-0.6932 2.64063,-2.03657 2.82333,-2.98526 C 154.08342,215.32831 153.39974,215 150.22255,215 c -4.11275,0 -9.80406,-1.56991 -12.03574,-3.31998 -1.90745,-1.49581 1.41074,-3.15093 5.60741,-2.79699 1.81182,0.1528 5.07432,-0.0229 7.25,-0.3905 3.2213,-0.54424 3.95578,-1.08118 3.95578,-2.89187 0,-1.22294 -0.91753,-3.20839 -2.03896,-4.4121 -3.64519,-3.91266 -14.78359,-2.35708 -19.36416,2.70438 -3.68316,4.06985 -0.71197,13.86349 4.90312,16.1617 3.0514,1.24892 9.70441,1.06543 12.49114,-0.3445 z m -11.28929,-14.34162 c -2.15848,-2.15848 4.23068,-6.09911 7.71869,-4.76064 2.04413,0.78441 2.04257,4.00043 -0.002,4.78513 -2.07139,0.79487 -6.91237,0.7795 -7.71636,-0.0245 z m 6.72893,-2.48052 c -0.75979,-1.22936 -1.74064,-1.11313 -3.89402,0.46146 -1.66737,1.21921 -1.54202,1.30493 1.29866,0.888 1.7293,-0.2538 2.89721,-0.86106 2.59536,-1.34946 z m 70.68466,-27.46842 c 0.0667,-27.45577 -0.0939,-51.83208 -0.35678,-54.16958 -0.34581,-3.07439 -0.11682,-4.25 0.82785,-4.25 1.06216,0 1.24733,9.99134 0.99213,53.53422 -0.17256,29.44383 -0.59966,53.82014 -0.94911,54.16958 -0.34945,0.34945 -0.58079,-21.82845 -0.51409,-49.28422 z M 56.477575,221.33472 c -1.570772,-1.57077 -1.673136,-3.26829 -1.040034,-17.24704 0.386219,-8.52764 0.858841,-15.75822 1.050272,-16.06796 0.643392,-1.04103 11.019135,-0.17506 10.768435,0.89875 -0.134064,0.57422 -0.534687,5.48349 -0.890273,10.90947 -0.624112,9.52352 -0.571823,9.88497 1.508737,10.42905 1.185392,0.30998 3.161014,0.40087 4.390273,0.20197 6.581633,-1.06495 6.111783,-1.46157 5.971772,5.04104 -0.07105,3.3 -0.153392,6.28489 -0.182973,6.63308 -0.02958,0.34819 -4.504323,0.70301 -9.943871,0.78848 -8.206757,0.12896 -10.186626,-0.14113 -11.632338,-1.58684 z m 17.940638,-0.94171 C 75.43054,220.00454 76,218.5645 76,216.39301 76,213.00605 75.991432,213 71.19113,213 c -7.091589,0 -8.119122,-1.22073 -7.15477,-8.5 0.437181,-3.3 0.832847,-7.9125 0.879257,-10.25 0.08286,-4.17308 0.0236,-4.25 -3.273954,-4.25 h -3.358337 l -0.639012,11.75 c -0.351456,6.4625 -0.449635,12.65 -0.218174,13.75 0.231461,1.1 0.455268,2.5312 0.497349,3.18045 0.04208,0.64925 1.089011,1.37546 2.326511,1.61382 3.618847,0.69702 12.448761,0.75856 14.168213,0.0987 z m 8.057578,-0.46929 C 81.7711,217.70344 82.56609,206.26188 83.860143,200 c 0.714855,-3.45916 0.784042,-3.5 5.929124,-3.5 h 5.205828 l 0.129159,9 c 0.07104,4.95 0.184642,10.575 0.252453,12.5 l 0.123293,3.5 -6.168142,0.29559 c -5.579875,0.2674 -6.23375,0.0889 -6.856067,-1.87187 z M 93.386364,216.25 c -0.0625,-1.7875 -0.175,-6.35077 -0.25,-10.14059 L 93,199.21881 l -3.5,-0.4086 c -1.925,-0.22474 -3.519761,-0.16147 -3.543912,0.14059 -0.02415,0.30206 -0.437357,3.9242 -0.918232,8.0492 -0.480876,4.125 -0.625285,8.7604 -0.320909,10.30089 0.511681,2.5897 0.863681,2.77821 4.668232,2.5 3.941235,-0.2882 4.110027,-0.43799 4.001185,-3.55089 z M 253,219.16736 c 0,-1.69265 8.10988,-7.33917 9.67717,-6.73775 0.86698,0.33269 2.15423,0.12528 2.86055,-0.46092 0.77801,-0.64568 1.51302,-0.6956 1.86467,-0.12663 0.76668,1.24052 -4.19254,4.45245 -5.87673,3.80616 -0.72201,-0.27706 -2.3391,0.58874 -3.59352,1.92401 C 255.70013,219.9481 253,220.82136 253,219.16736 Z m 10.42579,-8.50014 c -0.35187,-0.91697 -0.34281,-2.44109 0.0201,-3.38692 0.36296,-0.94584 0.90526,-18.83334 1.20513,-39.75 0.29987,-20.91667 0.67475,-39.1553 0.83306,-40.5303 0.15831,-1.375 0.33915,-5.5375 0.40186,-9.25 0.0648,-3.8383 0.55315,-6.75 1.13204,-6.75 0.67229,0 0.99674,11.75788 0.95539,34.62206 -0.58065,45.73528 -0.89825,22.99125 -0.89825,49.30603 0.0724,0.825 -0.27836,4.59917 -0.7795,8.38704 -0.95388,7.20982 -1.72603,10.33292 -2.8699,7.35205 z M 86.572033,193.0796 C 84.754627,191.07138 84.752154,190.93135 86.5,189 c 1.977636,-2.18526 5.536339,-2.5861 8.565741,-0.96482 3.723756,1.9929 1.778117,5.44605 -3.684028,6.53848 -2.192447,0.43849 -3.400299,0.0633 -4.80968,-1.49406 z M 93,192.02085 c 1.326416,-0.83876 1.31803,-1.13054 -0.07246,-2.52143 C 91.226201,187.79759 88,188.41363 88,190.44032 c 0,2.54811 2.313407,3.2794 5,1.58053 z m 11.70384,-14.97027 c -3.44342,-0.3457 -6.210061,-1.18442 -6.815855,-2.06624 -1.035476,-1.5073 -0.504403,-22.43878 0.674856,-26.59844 0.534494,-1.88535 1.537289,-2.17262 9.267619,-2.6549 4.76756,-0.29744 8.89357,-0.40098 9.16891,-0.23009 0.27535,0.17089 0.50063,7.41767 0.50063,16.10396 v 15.79325 l -3.5,0.11719 c -1.925,0.0644 -6.10827,-0.14468 -9.29616,-0.46473 z M 115.4,173.25 c -0.055,-0.6875 -0.1675,-6.65 -0.25,-13.25 L 115,148 h -6.52475 c -6.13975,0 -6.58426,0.15653 -7.5333,2.65268 -0.5547,1.45897 -0.88106,7.19647 -0.72525,12.75 L 100.5,173.5 l 4,0.63066 c 6.0583,0.95519 11.01483,0.55473 10.9,-0.88066 z M 269,141.07258 c -179.333333,-94.048387 -89.66667,-47.024193 0,0 z M 140,106.01308 C 140,105.44816 142.50679,105 145.66667,105 c 6.85944,0 6.59367,0.80573 -0.49864,1.51171 C 142.00634,106.82644 140,106.63285 140,106.01308 Z m -3.87643,-2.36419 c -3.13366,-3.775821 0.13392,-12.520461 7.53731,-20.171261 6.22926,-6.437425 10.55344,-8.526826 16.1057,-7.782112 2.32838,0.312302 4.23342,0.974069 4.23342,1.470595 0,0.49991 -2.13905,0.619018 -4.79338,0.266909 -3.57171,-0.473804 -5.10034,-0.266002 -5.99777,0.815334 -1.02558,1.235742 -0.61092,1.391852 2.79291,1.051469 2.19851,-0.219851 4.78501,0.05907 5.74777,0.619814 1.37356,0.800016 0.75461,1.026092 -2.87453,1.049953 -5.50622,0.0362 -10.875,1.00854 -10.875,1.969565 0,0.379036 1.9125,0.70705 4.25,0.728921 8.57534,0.08024 9.03698,0.657905 1.01691,1.272503 -6.51488,0.499251 -8.55314,1.040855 -9.76662,2.595171 C 141.88753,89.601486 139,95.691853 139,97.027741 c 0,0.430922 4.42993,0.539391 9.84428,0.241043 6.7871,-0.373989 10.43612,-0.169799 11.75,0.657503 1.66795,1.050241 1.54138,1.12199 -1.01445,0.575072 -4.36923,-0.934964 -20.57942,0.543834 -20.58201,1.877621 -10e-4,0.76458 3.25764,1.07541 10.25,0.97759 l 10.25218,-0.14343 -9.35807,0.8015 c -5.14694,0.44083 -9.84944,1.29287 -10.45,1.89343 -1.43379,1.43379 -2.21012,1.37741 -3.56836,-0.25918 z M 241.30941,100.25 c 0.29847,-0.9625 1.64965,-4.903981 3.00263,-8.758847 C 246.74296,84.565067 250,65.871923 250,58.846232 c 0,-2.056958 -0.81273,-4.628341 -1.87909,-5.945246 -1.69507,-2.093319 -2.8769,-2.360659 -12.06765,-2.729808 l -10.18854,-0.409226 0.65357,3.483876 c 0.71842,3.8295 -2.35177,12.444684 -5.36076,15.042711 C 219.53756,69.687255 208.30683,76 207.43841,76 207.19728,76 207,75.436727 207,74.748283 c 0,-0.688445 2.04538,-2.33679 4.54529,-3.66299 4.65838,-2.471262 4.54478,-4.03704 -0.29529,-4.06998 C 210.0125,67.006891 209,66.56125 209,66.025 c 0,-0.851897 4.05813,-0.586482 7.67689,0.502093 0.64728,0.194714 1.69033,-0.264641 2.31788,-1.020787 0.91926,-1.107648 0.39907,-1.580834 -2.67689,-2.434983 C 214.21805,62.48823 211.4875,62.008644 210.25,62.005577 209.0125,62.00251 208,61.558609 208,61.01913 c 0,-1.098292 8.48571,-0.260293 11.15004,1.101113 1.11798,0.571259 1.82909,0.376532 2.20531,-0.603892 0.66421,-1.730896 -4.7877,-3.502278 -10.80535,-3.510774 -3.07234,-0.0043 -3.68335,-0.272223 -2.74994,-1.20564 0.93342,-0.933418 2.49104,-0.933418 7.0102,0 8.53324,1.762511 8.51668,1.767977 7.72321,-2.549937 -0.379,-2.0625 -1.05748,-4.1309 -1.50773,-4.596444 -0.45024,-0.465544 -4.08007,-1.467883 -8.06627,-2.22742 -3.9862,-0.759537 -7.4828,-1.616138 -7.77022,-1.903556 -1.25123,-1.251228 0.94514,-1.639743 3.99375,-0.706452 6.50667,1.991932 11.06185,2.42119 10.59994,0.998884 -0.23878,-0.735243 -3.92238,-2.033297 -8.355,-2.944202 -5.03085,-1.033838 -7.32166,-1.882399 -6.26885,-2.322104 0.9125,-0.381103 3.3875,-0.212978 5.5,0.373613 C 216.40844,42.518774 217.26852,42.370247 216,40 215.17499,38.458454 213.90618,38 210.46482,38 207.80862,38 206,37.541581 206,36.868331 c 0,-0.740674 1.36494,-0.948592 3.95059,-0.601783 2.5061,0.336138 4.10447,0.110052 4.37143,-0.618331 0.71001,-1.93718 3.8809,0.563879 7.51448,5.927074 L 225.173,46.5 l 11.4043,0.586686 c 16.47657,0.847626 17.73321,2.619637 15.52326,21.889554 -2.04959,17.871588 -6.60437,32.9534 -9.96719,33.00343 -0.84486,0.0126 -1.15944,-0.64781 -0.82396,-1.72967 z M 102,91.5 c -0.60591,-1.593658 -0.59693,-3.429943 0.0247,-5.0651 0.53644,-1.410804 0.9753,-2.704554 0.9753,-2.875 0,-0.170445 -1.43297,-0.596494 -3.184383,-0.946777 -1.75141,-0.350282 -4.00141,-1.376276 -5,-2.279987 -2.035355,-1.841972 -2.440314,-6.829018 -0.644648,-7.938801 0.775902,-0.479533 0.438516,-0.994651 -1,-1.526793 -3.235965,-1.197061 -2.936215,-6.120439 0.539064,-8.854094 2.64905,-2.083743 3.302681,-2.120562 29.047197,-1.636206 l 26.33716,0.495507 -0.7972,-2.186375 c -1.3968,-3.830865 -0.78247,-13.974206 1.05793,-17.467697 2.01463,-3.824198 7.02285,-8.839434 10.76119,-10.776263 C 163.00704,28.944732 164,25.731558 164,17.875 164,15.122617 164.4593,13 165.05487,13 c 1.78314,0 13.02872,8.055739 12.48152,8.941112 -0.28286,0.457689 -2.19849,1.148117 -4.25694,1.534285 C 168.89409,24.298095 166,25.695725 166,26.990825 c 0,0.506251 1.88128,0.256702 4.18063,-0.554555 2.4287,-0.856896 4.55194,-1.103699 5.06669,-0.588948 0.51475,0.514751 -1.97053,1.884808 -5.93063,3.269371 C 157.96328,33.086165 151,41.608192 151,51.533623 c 0,5.49471 1.06502,7.706561 5.64855,11.73095 4.81677,4.229179 2.8861,6.016782 -2.58672,2.39504 -3.77792,-2.500108 -8.93909,-3.407841 -12.23004,-2.150989 C 139.89201,64.249444 140.60418,77 142.58533,77 143.3634,77 144,77.565719 144,78.257153 c 0,0.92931 -3.45486,1.345075 -13.24807,1.594297 -7.28643,0.185429 -13.58643,0.546267 -14,0.801863 C 116.33837,80.90891 116,82.238823 116,83.608677 c 0,3.277063 -2.53168,8.070318 -4.94461,9.361679 C 109.99724,93.53666 107.74076,94 106.04099,94 103.6646,94 102.73087,93.422341 102,91.5 Z m 9.00884,-2.010654 c 0.7113,-0.857057 1.19898,-3.885668 1.12718,-7 C 112.04166,78.395944 112.36475,77 113.40655,77 c 1.697,0 3.34734,-11.646108 1.86098,-13.132474 -0.52252,-0.522512 -4.91141,-0.818961 -9.75311,-0.658774 -6.997106,0.231498 -9.023052,0.641046 -9.875289,1.996305 -0.841799,1.33866 -0.579843,2.229149 1.219029,4.143961 2.006658,2.13599 2.127609,2.700907 0.973831,4.5484 -1.904578,3.049713 -0.0036,5.487145 4.770119,6.116324 2.78807,0.367467 3.79624,0.936913 3.54089,2 -0.19635,0.817442 -0.59311,3.173758 -0.88167,5.236258 -0.48639,3.476406 -0.3416,3.75 1.98456,3.75 1.38007,0 3.0734,-0.679794 3.76295,-1.510654 z M 119.35815,73.25 C 120.42069,66.821668 120.13133,63 118.58206,63 c -1.05731,0 -1.5024,1.780922 -1.75,7.002253 -0.36229,7.639744 1.42114,9.932669 2.52609,3.247747 z M 134,70 v -7 h -4 -4 l -0.0304,6.75 c -0.0205,4.552505 -0.32745,6.242448 -0.94282,5.190963 -0.50183,-0.85747 -0.75593,-3.89497 -0.56468,-6.75 C 124.76241,63.70765 124.56132,63 122.98697,63 c -1.55864,0 -1.87098,1.014943 -2.15491,7.002253 L 120.5,77.004506 127.25,77.002253 134,77 Z m 5,0 c 0,-6.276191 -0.20186,-7 -1.95219,-7 -1.65935,0 -1.893,0.562533 -1.55762,3.75 0.21702,2.0625 0.42051,5.2125 0.45219,7 0.0389,2.196615 0.5438,3.25 1.55762,3.25 1.19048,0 1.5,-1.444444 1.5,-7 z m 33.13466,-48.797245 c -1.30093,-0.204647 -2.77757,0.04015 -3.28141,0.543999 -0.55478,0.554777 0.37811,0.701528 2.36533,0.372084 2.77692,-0.460363 2.91777,-0.601205 0.91608,-0.916083 z M 180,88.768947 C 180,88.346026 183.15,88 187,88 c 3.85,0 7,0.382795 7,0.850656 0,0.467861 -3.15,0.813888 -7,0.768947 -3.85,-0.04494 -7,-0.427735 -7,-0.850656 z m -1.62897,-3.560276 c 1.12327,-1.817482 7.002,-2.470692 12.77799,-1.419814 l 5.35098,0.973551 -7.66821,0.118796 c -4.21752,0.06534 -8.45384,0.420268 -9.41405,0.788735 -1.16277,0.446196 -1.51234,0.292144 -1.04671,-0.461268 z M 179.00217,80.875 c -0.004,-1.180361 6.35909,-1.895962 11.17652,-1.256908 7.31514,0.970388 5.77698,1.881908 -3.17567,1.881908 -4.39928,0 -7.99966,-0.28125 -8.00085,-0.625 z M 143.24447,70.523501 C 143.77767,64.161777 145,63.681231 145,69.833333 145,72.822422 144.55099,75 143.93464,75 c -0.65102,0 -0.91944,-1.740967 -0.69017,-4.476499 z M 185,61 c 0,-0.55 0.45,-1 1,-1 0.55,0 1,0.45 1,1 0,0.55 -0.45,1 -1,1 -0.55,0 -1,-0.45 -1,-1 z m -14.78172,-2.361531 c 0.35634,-1.864079 -0.23427,-2.730806 -2.80377,-4.114575 -5.89577,-3.175083 -5.32814,-9.913401 1.09172,-12.959826 2.01979,-0.958453 4.53216,-2.602462 5.58306,-3.653355 C 176.39484,35.605156 178,35.450421 178,37.533725 c 0,0.843549 1.52668,2.434492 3.39263,3.535428 7.50877,4.43028 4.5225,10.870905 -6.64263,14.32646 C 173.68685,55.724652 173,56.93077 173,58.468615 173,60.1332 172.44645,61 171.38342,61 c -1.15984,0 -1.48903,-0.667202 -1.16514,-2.361531 z M 176.28975,47 c 0.29951,-1.145325 0.0289,-2.005835 -0.63337,-2.013655 -0.63601,-0.0075 -2.10691,-0.268788 -3.26867,-0.580618 -1.55462,-0.417279 -2.25193,-0.03294 -2.64123,1.45575 C 169.07512,48.428743 169.67642,49 173.05004,49 c 1.87569,0 2.8786,-0.619136 3.23971,-2 z M 181,58 c 0,-0.55 0.675,-1 1.5,-1 0.825,0 1.5,0.45 1.5,1 0,0.55 -0.675,1 -1.5,1 -0.825,0 -1.5,-0.45 -1.5,-1 z m 6,-1.5 c 0,-0.825 0.45,-1.5 1,-1.5 0.55,0 1,0.675 1,1.5 0,0.825 -0.45,1.5 -1,1.5 -0.55,0 -1,-0.675 -1,-1.5 z m 1.25,-15.162281 C 186.54794,40.650924 186.66153,38 188.39301,38 c 0.76616,0 1.67675,-0.739408 2.02354,-1.643128 0.84577,-2.204035 1.83531,-1.036984 2.23776,2.639186 0.33065,3.020387 -0.9866,3.720738 -4.40431,2.341661 z m 29,-8.77152 c -2.66053,-1.230295 -2.79899,-2.603888 -0.67626,-6.708789 0.86555,-1.673799 1.30549,-3.311512 0.97764,-3.639363 -0.32785,-0.327851 -2.94853,0.423235 -5.82374,1.669081 -2.8752,1.245845 -5.67764,2.35606 -6.22764,2.467143 -0.55,0.111083 -1.52513,0.530277 -2.16696,0.931542 -0.64182,0.401265 -4.24182,0.289746 -8,-0.247819 -3.75817,-0.537566 -9.25606,-0.696958 -12.21754,-0.354204 -4.36402,0.505081 -5.29629,0.357198 -4.91911,-0.780301 0.55212,-1.665042 16.71385,-2.502184 21.97701,-1.138362 2.73565,0.708879 4.38086,0.24843 10.58662,-2.962908 C 214.8012,19.710999 219.41742,18 221.01827,18 h 2.91066 l -1.96038,4.573375 c -1.43502,3.347761 -1.69349,5.072071 -0.96446,6.434258 2.02088,3.776059 0.28159,5.424765 -3.75409,3.558566 z"
       style="fill:#000000" />
  </g>
</svg>
