<?xml version="1.0" encoding="UTF-8" standalone="no"?>
<svg
   xmlns:dc="http://purl.org/dc/elements/1.1/"
   xmlns:cc="http://creativecommons.org/ns#"
   xmlns:rdf="http://www.w3.org/1999/02/22-rdf-syntax-ns#"
   xmlns:svg="http://www.w3.org/2000/svg"
   xmlns="http://www.w3.org/2000/svg"
   xmlns:sodipodi="http://sodipodi.sourceforge.net/DTD/sodipodi-0.dtd"
   xmlns:inkscape="http://www.inkscape.org/namespaces/inkscape"
   sodipodi:docname="nutmegandpal.svg"
   inkscape:version="1.0 (4035a4fb49, 2020-05-01)"
   id="svg8"
   version="1.1"
   viewBox="0 0 40.585403 95.8983"
   height="95.8983mm"
   width="40.585403mm">
  <defs
     id="defs2" />
  <sodipodi:namedview
     inkscape:window-maximized="0"
     inkscape:window-y="34"
     inkscape:window-x="10"
     inkscape:window-height="1034"
     inkscape:window-width="1898"
     fit-margin-bottom="0"
     fit-margin-right="0"
     fit-margin-left="0"
     fit-margin-top="0"
     showgrid="false"
     inkscape:document-rotation="0"
     inkscape:current-layer="layer1"
     inkscape:document-units="mm"
     inkscape:cy="113.4983"
     inkscape:cx="91.554256"
     inkscape:zoom="3.4151653"
     inkscape:pageshadow="2"
     inkscape:pageopacity="0.0"
     borderopacity="1.0"
     bordercolor="#666666"
     pagecolor="#ffffff"
     id="base" />
  <metadata
     id="metadata5">
    <rdf:RDF>
      <cc:Work
         rdf:about="">
        <dc:format>image/svg+xml</dc:format>
        <dc:type
           rdf:resource="http://purl.org/dc/dcmitype/StillImage" />
        <dc:title></dc:title>
      </cc:Work>
    </rdf:RDF>
  </metadata>
  <g
     transform="translate(-78.308643,-32.568701)"
     id="layer1"
     inkscape:groupmode="layer"
     inkscape:label="Layer 1">
    <g
       transform="translate(60.791398,-26.71268)"
       id="g1305">
      <path
         transform="translate(63.591316,40.930396)"
         style="fill:#f9e9b8;fill-opacity:1;stroke-width:0.423333;stroke-linecap:round"
         d="m -21.449186,36.014361 0.114892,-1.223899 -1.660238,-4.982314 -0.623045,-1.816811 0.674119,-1.763916 -0.05945,-0.787153 0.239842,-0.776629 0.791625,-0.803061 1.150601,-1.550253 2.359374,-1.453205 3.525223,-0.381543 1.73,1.722341 0.443251,0.976065 -0.433036,0.492555 0.335364,0.986346 1.774199,0.215949 0.585103,1.150051 -1.506556,2.118839 -0.02897,5.144116 -0.937267,4.328218 -1.352136,1.434656 -3.135927,-1.677067 -1.907267,-0.293907 -1.614573,-0.497393 z"
         id="path1274" />
      <path
         transform="translate(63.591316,40.930396)"
         style="fill:#acd5e7;fill-opacity:1;stroke-width:0.423333;stroke-linecap:round"
         d="m -24.221866,61.141839 -2.66878,-5.469355 0.673667,-5.475462 1.446818,-3.418073 2.540661,-5.985827 0.631191,-1.864839 2.28695,0.92501 0.965552,0.921112 1.043464,5.865651 0.948628,5.515994 0.284627,1.088041 -0.221222,3.486462 -0.371113,2.102712 4.60378,-0.90832 0.437842,-1.33749 -0.655841,-6.656691 c 0,0 -0.893377,-5.051367 -0.880877,-5.388856 0.0125,-0.337492 -0.324367,-3.746339 -0.324367,-3.746339 l 1.703841,-1.761527 1.009726,4.148148 1.7999034,6.327746 0.7645746,4.23242 0.01206,1.374675 -0.4960337,1.365414 -1.0649511,1.626722 -8.9635252,3.202268 z"
         id="path1256" />
      <path
         transform="translate(63.591316,40.930396)"
         style="fill:#ed1a37;fill-opacity:1;stroke-width:0.423333;stroke-linecap:round"
         d="m -44.415217,60.143135 -0.58148,-2.971585 0.196175,-1.014892 0.682045,-0.916942 -0.03853,-4.249047 1.456751,-3.373409 1.658615,-4.46609 0.981744,-3.05925 0.576763,-1.368329 1.883375,0.445428 0.755552,1.132295 1.160188,6.219521 1.008028,6.496373 -0.119989,4.658071 0.826521,-1.026321 2.984956,-0.380471 0.266025,-1.584283 -1.329222,-10.245068 0.01384,-2.325103 2.21847,6.041996 2.775299,6.568916 -0.653833,2.671842 -0.851865,1.127728 -8.771893,3.15246 -4.983887,-0.532127 z"
         id="path1258" />
      <path
         transform="translate(63.591316,40.930396)"
         style="fill:#f9e9b8;fill-opacity:1;stroke-width:0.423333;stroke-linecap:round"
         d="m -32.756681,37.180877 c 0,0 -0.493599,-2.164803 -0.330697,-2.583347 0.162904,-0.418544 1.920629,-1.445035 1.920629,-1.445035 0,0 2.48087,-1.384559 2.546492,-3.514082 0.06562,-2.12952 0.118706,-1.632373 0.118706,-1.632373 l 0.07864,-1.260703 -0.451302,-1.577641 c 0,0 -0.821714,-0.998404 -0.902076,-1.05064 -0.08037,-0.05224 -2.80066,-1.237594 -2.893078,-1.285812 -0.09242,-0.04822 -1.337623,-0.40655 -1.337623,-0.40655 l -2.620753,0.221859 -3.773247,1.476876 -1.707639,2.097865 -0.183092,1.312705 -1.335085,-0.620011 -0.602146,1.456793 -0.0028,1.340244 0.471937,1.040223 0.914297,0.321453 1.819664,2.028317 2.453288,1.265785 1.57444,0.308541 0.857234,1.523862 1.440413,1.117645 0.765556,0.84078 0.290523,0.249796 z"
         id="path1276" />
      <path
         transform="translate(63.591316,40.930396)"
         style="fill:#ffffff;fill-opacity:1;stroke-width:0.423333;stroke-linecap:round"
         d="m -39.428081,38.225944 -0.0028,-2.299923 3.490683,0.605335 0.835554,0.127604 1.26325,1.6232 2.302754,-2.028045 1.038619,1.077908 0.04995,0.94597 -0.4723,0.389932 -1.227693,0.148222 0.16669,3.491516 -0.174059,2.182265 1.271992,7.198891 0.109162,4.57508 -4.091358,0.39973 -0.442063,-7.233396 -0.832969,-6.126517 -0.977479,-4.075541 z"
         id="path1260" />
      <path
         transform="translate(63.591316,40.930396)"
         style="fill:#ffffff;fill-opacity:1;stroke-width:0.423333;stroke-linecap:round"
         d="m -34.042686,28.576029 -0.905581,1.01926 -0.15589,2.292326 0.590426,0.893564 c 0,0 1.547825,-0.06172 1.951752,-0.154662 0.403928,-0.09295 -0.624518,-0.402985 -0.624518,-0.402985 0,0 1.6694,0.451898 2.467076,-0.09925 0.797679,-0.551148 -0.428077,-0.08675 -0.428077,-0.08675 0,0 1.752372,-0.275532 1.780727,-0.457626 0.02836,-0.182092 -0.602175,-0.375785 -0.602175,-0.375785 0,0 0.982742,-0.213236 1.169215,-1.432703 0.186473,-1.21947 0.354615,-1.706909 0.354615,-1.706909 l -0.224361,-0.180211 -1.431057,1.139047 -2.253909,0.449239 -1.401567,-0.801788 z"
         id="path1262" />
      <path
         transform="translate(63.591316,40.930396)"
         style="fill:#ffffff;fill-opacity:1;stroke-width:0.423333;stroke-linecap:round"
         d="m -41.891592,25.993299 -1.151046,-0.02499 -0.833917,0.04198 -0.969907,-0.971229 -0.16026,-0.674668 0.03499,-0.181776 -0.718987,1.142598 -0.279207,0.562215 0.145418,0.633437 0.349723,0.576132 1.037662,0.758312 1.036301,-0.81771 0.969627,0.45739 0.436451,0.439325 0.10699,0.08743 z"
         id="path1264" />
      <path
         transform="translate(63.591316,40.930396)"
         style="fill:#ffffff;fill-opacity:1;stroke-width:0.423333;stroke-linecap:round"
         d="m -20.934134,27.189959 c 0,0 0.795265,-0.908897 0.438967,-1.789491 -0.356297,-0.880594 -0.414832,-1.090822 -0.414832,-1.090822 0,0 -0.376501,-0.558305 -0.925862,-0.362759 -0.549361,0.195546 -0.893599,0.968994 -0.893599,0.968994 l -0.09894,0.888264 1.28425,0.664012 z"
         id="path1266" />
      <path
         transform="translate(63.591316,40.930396)"
         style="fill:#ffffff;fill-opacity:1;stroke-width:0.423333;stroke-linecap:round"
         d="m -17.287354,29.10613 c 0,0 -0.102623,0.761018 0.210239,1.415534 0.312862,0.654518 0.380078,0.676134 0.601509,0.890584 0.221431,0.21445 1.500801,1.217494 1.967288,0.541973 0.466487,-0.675524 1.788623,0.447 2.394653,-0.03568 0.606029,-0.482682 1.755064,-0.274405 1.767431,-0.853292 0.01237,-0.578885 1.0366076,-0.437571 0.746007,-1.038696 -0.2906006,-0.601125 -1.000546,-1.424575 -1.000546,-1.424575 0,0 -0.612561,-0.606335 -1.105924,-0.466249 -0.493364,0.140089 -1.366233,0.92287 -1.940385,0.898282 -0.574152,-0.02458 -1.4442,-0.119557 -1.656529,-0.215582 -0.212328,-0.09603 -0.393928,-0.403511 -0.727837,-0.415878 -0.333908,-0.01238 -1.255906,0.703578 -1.255906,0.703578 z"
         id="path1268" />
      <path
         transform="translate(63.591316,40.930396)"
         style="fill:#ffffff;fill-opacity:1;stroke-width:0.423333;stroke-linecap:round"
         d="m -17.462973,26.032087 c -0.06184,-0.544147 0.0038,-1.368483 0.204246,-1.591089 0.200441,-0.222606 0.818424,-0.637497 0.867892,-0.649863 0.04947,-0.01237 1.352657,-0.05359 1.426859,-0.09069 0.0742,-0.0371 1.156638,-0.358946 1.218299,-0.280796 0.06166,0.07815 0.582256,0.507775 0.582256,0.507775 0,0 0.204998,0.44189 0.139041,0.561437 -0.06596,0.119548 -0.717285,0.882178 -0.865689,0.952258 -0.148404,0.07008 -1.139943,0.593615 -1.139943,0.593615 l -0.510679,0.369583 -0.25934,0.466212 -0.728097,0.48595 -0.829627,-0.855221 z"
         id="path1270" />
      <path
         transform="translate(63.591316,40.930396)"
         style="fill:#ffffff;fill-opacity:1;stroke-width:0.423333;stroke-linecap:round"
         d="m -42.531903,31.665407 c 0,0 -0.451665,0.778055 -1.181862,0.847431 -0.730194,0.06938 -1.157102,-0.05701 -1.157102,-0.05701 0,0 1.391846,0.645827 1.918743,0.0037 0.526893,-0.642091 0.586348,-0.509429 0.586348,-0.509429 0,0 -0.108873,0.959231 -0.602872,1.192858 -0.493998,0.233624 -1.27214,0.390316 -1.583325,0.262668 -0.311187,-0.127651 1.890755,1.239258 2.456665,-0.181356 0.565909,-1.420612 0.947589,-0.14731 1.551974,0.03557 0.604385,0.18288 -0.109045,-0.481087 -0.280763,-0.577284 -0.171714,-0.09619 -0.498337,-0.507572 -0.617524,-0.885791 -0.119184,-0.378216 -0.652327,-0.894265 -0.794644,-0.90851 -0.142319,-0.01423 -0.443963,0.202745 -0.414631,0.309075 0.02933,0.106331 0.118993,0.468046 0.118993,0.468046 z"
         id="path1272" />
      <path
         transform="translate(63.591316,40.930396)"
         style="fill:#f9e9b8;fill-opacity:1;stroke-width:0.423333;stroke-linecap:round"
         d="m -42.522354,108.06063 0.06457,3.66557 3.575545,1.74471 4.233857,0.49982 3.469928,-0.67985 1.806221,-0.71608 0.716611,-0.7194 1.974715,-0.13816 1.727609,-0.31407 1.16853,-0.58136 1.071842,-0.27548 2.949018,0.4954 2.32764,-0.0535 2.730662,-0.37831 0.998578,-0.16811 1.557758,-0.96894 0.514849,-0.70064 3.4611138,-0.11204 1.4964285,-0.68643 0.5780673,-0.63991 -0.5805199,-0.68887 -2.3035842,-0.2522 -1.0933695,-0.75608 -1.444835,0.0563 -0.820489,-0.11731 -1.652312,-0.61294 -1.894334,-0.28957 -1.840252,0.25601 -0.114469,-0.0786 -1.84721,0.68334 -7.037846,0.46912 -0.854306,1.0571 -0.391509,0.93284 -1.40445,0.12329 c 0,0 -4.35977,-0.45785 -4.53316,-0.44996 -0.173389,0.008 -2.752597,-0.20067 -2.752597,-0.20067 l -1.445446,0.14428"
         id="path1278"
         sodipodi:nodetypes="ccccccccccccccccccccccccccccccccccccc" />
      <path
         style="fill:#000000;stroke-width:0.264583"
         d="m 25.391762,154.94432 c -0.617959,-0.1219 -1.905601,-0.59487 -2.861427,-1.05105 l -1.737863,-0.8294 0.139637,-4.41007 c 0.0768,-2.42554 0.246652,-5.66022 0.377449,-7.18819 0.255773,-2.98789 0.205537,-18.68629 -0.09695,-30.2948 l -0.186141,-7.14375 -0.873209,-0.97039 c -1.576322,-1.75174 -1.753717,-2.17969 -1.786517,-4.309728 -0.01913,-1.241806 0.08961,-2.112571 0.288639,-2.311603 0.193781,-0.193781 0.319318,-1.116018 0.319318,-2.345807 0,-1.760892 0.12234,-2.291278 0.933455,-4.046829 1.18047,-2.554975 3.035295,-7.712678 3.035295,-8.440234 0,-0.303869 0.187732,-0.759934 0.417184,-1.013474 0.288623,-0.318923 0.423799,-1.018405 0.438645,-2.269791 0.0118,-0.994844 0.06895,-1.897669 0.126995,-2.006275 0.05805,-0.108609 0.450058,-0.01932 0.871135,0.198438 0.992547,0.513265 2.114791,0.517691 2.114791,0.0083 0,-0.490157 -0.816528,-0.935347 -1.715537,-0.935347 -1.299062,0 -3.314952,-1.468999 -2.911568,-2.121689 0.126166,-0.204144 0.431186,-0.06923 0.935204,0.41365 0.498793,0.477872 1.260377,0.817769 2.286082,1.020286 1.354611,0.267454 1.583264,0.405509 1.916589,1.157177 0.208161,0.469421 0.535583,0.853493 0.727604,0.853493 0.192019,0 0.349718,0.0893 0.350441,0.198437 7.94e-4,0.109141 0.293121,0.555625 0.649777,0.992188 l 0.648462,0.79375 1.184608,-1.292268 1.184609,-1.29227 0.538022,0.884711 c 0.629295,1.034788 0.935358,2.225633 0.678738,2.640852 -0.09942,0.160861 -0.45733,0.223062 -0.795359,0.138223 -1.209415,-0.303546 -1.109842,1.073055 0.400389,5.535335 0.443257,1.309688 1.271924,3.512344 1.841482,4.894792 0.56956,1.382448 1.112263,2.751666 1.20601,3.042708 0.238662,0.740934 0.542899,0.116848 0.760884,-1.560806 0.09263,-0.712923 0.290073,-1.442805 0.438758,-1.621959 0.148685,-0.179155 0.728665,-1.441323 1.288849,-2.804819 2.266434,-5.516552 2.749473,-6.580124 2.988485,-6.580124 0.323006,0 0.08483,0.730202 -1.035627,3.175 -1.083646,2.36448 -2.562947,6.2845 -2.989858,7.92286 -0.168534,0.64679 -0.297278,2.066169 -0.286091,3.154172 0.02569,2.498165 1.081101,5.009271 2.458307,5.848931 0.48223,0.29401 0.958146,0.53501 1.057593,0.53555 0.332901,0.002 2.597314,-2.480527 2.597314,-2.847287 0,-0.199118 -0.281213,-0.741042 -0.62492,-1.204275 -1.005625,-1.355347 -1.227164,-2.438297 -1.227164,-5.998776 0,-2.493002 0.136441,-3.891257 0.529776,-5.429184 0.291377,-1.139272 0.589034,-2.130661 0.661458,-2.203088 0.3879,-0.3879 0.335261,0.361596 -0.164087,2.336242 -0.462581,1.829266 -0.539924,2.780154 -0.453017,5.569532 0.104159,3.342984 0.110848,3.373454 1.088253,4.956974 0.540898,0.876324 0.983451,1.7242 0.983451,1.884167 0,0.159967 0.406982,0.290849 0.904401,0.290849 0.497422,0 1.068224,0.06286 1.26845,0.139697 0.264469,0.101486 0.451321,-0.282826 0.683098,-1.404988 0.464363,-2.248217 0.424374,-2.709299 -0.739283,-8.524293 -0.582083,-2.908771 -1.058333,-5.762106 -1.058333,-6.340748 0,-1.018857 -0.0462,-1.073208 -1.46305,-1.721289 -0.804675,-0.368067 -1.557828,-0.669213 -1.67367,-0.669213 -0.115843,0 -0.475239,-0.281673 -0.798663,-0.625941 -0.546129,-0.581329 -0.565711,-0.718042 -0.27473,-1.918229 0.306255,-1.263195 0.77053,-2.144035 0.77053,-1.461881 0,0.183213 0.108077,0.266319 0.24017,0.184682 0.134038,-0.08284 0.0069,-0.878938 -0.287832,-1.801554 -0.290399,-0.909214 -0.595908,-1.946944 -0.678905,-2.306063 -0.083,-0.359122 -0.372949,-0.835372 -0.644337,-1.058333 -0.605701,-0.497626 -0.725033,-2.771566 -0.195932,-3.733538 0.193788,-0.35233 0.319944,-0.852028 0.280344,-1.110438 -0.08159,-0.532434 1.177505,-2.169517 1.396307,-1.815486 0.07826,0.126624 -0.09303,0.443185 -0.380638,0.703469 -0.67043,0.606731 -0.670702,1.184978 -5.29e-4,1.184978 0.310857,0 0.685824,0.31608 0.926042,0.780611 0.60574,1.171369 0.46841,1.570794 -0.241549,0.702554 -0.724323,-0.885807 -1.36825,-0.795841 -1.624975,0.227036 -0.234889,0.935876 0.10659,2.599849 0.500393,2.438339 1.381292,-0.566513 1.403125,-0.562287 0.757849,0.146661 -0.481574,0.529098 -0.556464,0.782357 -0.345033,1.166847 0.350539,0.637463 1.305004,3.742018 1.40879,4.582322 0.08555,0.692663 0.917504,1.013235 2.858611,1.101495 0.59032,0.02684 1.389523,0.378086 2.204495,0.968861 l 1.278454,0.926759 0.603202,-0.633764 c 0.41089,-0.431705 0.749086,-1.350783 1.060768,-2.88272 0.251658,-1.236928 0.516223,-2.505197 0.587922,-2.818377 0.106231,-0.464021 -0.02066,-0.602588 -0.685575,-0.748625 -0.903467,-0.198435 -1.11207,-0.666332 -0.297074,-0.666332 0.468252,0 1.611434,0.940345 1.588514,1.306661 -0.0051,0.0817 -0.170763,0.90139 -0.368115,1.821534 -0.300157,1.399474 -0.300707,1.695286 -0.0034,1.809383 0.195492,0.07502 0.473109,0.06367 0.616923,-0.02522 0.422344,-0.261025 1.35136,0.943488 1.35136,1.752102 0,0.650124 -0.100026,0.743861 -0.79375,0.743861 -0.436563,0 -0.79375,-0.119063 -0.79375,-0.264584 0,-0.145521 0.178593,-0.264583 0.396875,-0.264583 0.220485,0 0.396875,-0.235186 0.396875,-0.529167 0,-0.854032 -0.65399,-0.617926 -2.198587,0.79375 -0.796116,0.727604 -1.527194,1.322917 -1.624619,1.322917 -0.09743,0 -0.781518,-0.460872 -1.520208,-1.024162 -1.628871,-1.242092 -2.203866,-1.176364 -2.646966,0.302572 -0.297331,0.992404 -0.278352,1.097507 0.263091,1.457013 0.389877,0.258865 0.586602,0.662122 0.59277,1.215077 0.01019,0.914056 0.404323,3.134469 1.429073,8.051028 0.713957,3.425433 0.826315,5.313045 0.420465,7.063864 -0.136099,0.587127 -0.144415,1.158963 -0.01868,1.284693 0.125693,0.125693 1.091875,0.125796 2.169816,2.33e-4 1.924731,-0.224206 1.943987,-0.234191 2.023367,-1.049158 0.04408,-0.452538 -0.28045,-3.310038 -0.721177,-6.35 -0.44077,-3.039952 -0.878819,-6.539225 -0.973484,-7.776152 -0.251175,-3.281921 0.267554,-2.350871 0.66335,1.190625 0.178898,1.600729 0.622197,4.696354 0.98511,6.879167 0.379494,2.282542 0.624861,4.695656 0.577511,5.679638 l -0.08233,1.710889 1.298927,-0.07982 c 0.714406,-0.0439 1.591201,-0.190942 1.948428,-0.326757 0.542404,-0.206222 0.622714,-0.177115 0.487014,0.176506 -0.0894,0.232897 -0.16399,0.62207 -0.16581,0.86483 -0.003,0.421637 -0.495448,1.090227 -2.708664,3.678747 l -0.992187,1.16044 -0.0046,5.60631 c -0.0026,3.08347 -0.202232,9.53536 -0.443741,14.33755 -0.241509,4.80219 -0.447783,11.46969 -0.458388,14.81667 -0.01855,5.85324 -0.04089,6.10703 -0.585806,6.65194 -0.653201,0.6532 -2.729294,1.0146 -3.914151,0.68135 -0.814448,-0.22906 -1.259734,-0.851 -0.60929,-0.851 0.500893,0 0.718844,-4.25218 0.732319,-14.2875 0.0056,-4.14734 0.121502,-9.74328 0.257627,-12.43542 0.657347,-13.00023 0.650061,-12.40524 0.154242,-12.5955 -0.970521,-0.37242 -1.020752,-0.12473 -1.588482,7.833 -0.07786,1.09141 -0.20365,6.92547 -0.279524,12.96459 -0.180766,14.38808 -0.338971,18.78522 -0.69115,19.20957 -0.471517,0.56814 -0.07641,0.83028 1.983304,1.31586 1.829715,0.43135 2.016844,0.43279 2.882302,0.0221 0.577167,-0.27388 1.508043,-0.42506 2.473063,-0.40164 l 1.547513,0.0376 -1.719791,0.19224 c -2.784592,0.31126 -3.277865,0.70149 -1.811433,1.43304 1.679932,0.83807 7.103097,0.35316 7.103097,-0.63511 0,-0.36538 -1.14259,-0.80071 -2.101578,-0.80071 -0.409316,0 -1.171646,-0.17859 -1.694069,-0.39687 -0.52242,-0.21828 -1.320789,-0.39688 -1.77415,-0.39688 -0.516504,0 -0.785376,-0.11676 -0.720064,-0.3127 0.100293,-0.30088 3.224226,-0.34362 3.698346,-0.0506 0.544356,0.23986 0.564386,0.29668 2.062355,0.66558 0,0.12479 0.16014,0.22689 0.35586,0.22689 0.19573,0 0.57962,0.24724 0.85309,0.54942 0.48894,0.54027 0.48632,0.55785 -0.15743,1.05564 -0.89234,0.69002 -2.222681,1.03754 -3.978586,1.0393 -1.298641,0.001 -1.563304,0.0974 -2.248958,0.8169 -0.427408,0.44848 -1.1786,0.98426 -1.669312,1.19062 -1.049541,0.44137 -5.851909,0.51256 -7.934397,0.11763 -1.222878,-0.23192 -1.483508,-0.19085 -2.6158,0.41215 -0.96016,0.51134 -1.584331,0.65481 -2.639071,0.60659 -0.944375,-0.0432 -1.530376,0.0668 -1.852083,0.34759 -0.786009,0.68603 -1.450819,0.94304 -3.573553,1.3815 -2.185257,0.45138 -3.902882,0.49378 -5.693534,0.14054 z m 6.362996,-0.93932 c 1.047374,-0.23386 2.023377,-0.53794 2.168898,-0.67575 0.384691,-0.36428 -0.763468,-1.15996 -2.645833,-1.83356 -4.424043,-1.58314 -5.140198,-1.76236 -7.491505,-1.87477 l -2.43037,-0.1162 v 1.3634 c 0,1.68126 0.346355,2.03922 2.816465,2.91088 2.187277,0.77184 4.790197,0.84942 7.582345,0.226 z m -7.488394,-1.18923 c 0,-0.20419 3.670001,-0.88919 3.842079,-0.71711 0.05685,0.0568 -0.784366,0.28417 -1.869361,0.50516 -1.084996,0.221 -1.972718,0.31637 -1.972718,0.21195 z m 14.61823,-0.80804 c 1.677088,-0.66284 0.61392,-1.42369 -3.375787,-2.41588 -2.275642,-0.56592 -3.043206,-0.6382 -5.516073,-0.51942 -2.267374,0.10891 -2.92661,0.0607 -3.128997,-0.22869 -0.217438,-0.31095 -0.241234,-0.31023 -0.15657,0.005 0.1593,0.59256 5.115639,2.15024 5.976982,1.87845 1.078746,-0.34039 3.223882,-0.4954 3.223882,-0.23296 0,0.12765 -0.647816,0.23208 -1.439592,0.23208 -1.698739,0 -2.003227,0.2894 -1.005531,0.95569 1.250723,0.83527 3.752557,0.98571 5.421686,0.32602 z m 11.026817,-0.84981 c 1.099902,-0.51336 0.902269,-0.88418 -0.957939,-1.79739 -1.591662,-0.78138 -2.01834,-0.87683 -3.692478,-0.82608 -1.132713,0.0343 -2.461085,0.27336 -3.307808,0.59518 -1.680919,0.63888 -1.697503,0.64105 -1.307052,0.17058 0.335016,-0.40367 2.250348,-0.95544 3.31656,-0.95544 0.885315,0 0.860658,-0.31851 -0.05607,-0.7243 -0.546896,-0.24207 -1.156256,-0.25608 -2.403314,-0.0553 -1.142166,0.18394 -2.140532,0.18219 -3.15604,-0.006 -1.606616,-0.297 -1.855864,-0.19979 -1.968611,0.76779 -0.06504,0.55821 0.102333,0.68603 1.418249,1.083 0.8206,0.24755 1.935829,0.78862 2.478289,1.20237 0.808445,0.61663 1.35047,0.78331 3.005918,0.92432 2.481037,0.21134 5.767723,0.0233 6.630299,-0.37924 z m -13.877676,-3.49417 c 0.254196,-0.66561 0.62756,-1.27366 0.829693,-1.35123 0.288492,-0.1107 0.36842,-0.91722 0.371708,-3.75074 0.0024,-1.98534 0.113287,-4.97893 0.246629,-6.65242 0.133342,-1.67349 0.313865,-6.2574 0.401161,-10.18646 0.177268,-7.97851 0.635088,-19.36699 0.803042,-19.97604 0.06019,-0.21828 -0.481345,-1.05172 -1.20342,-1.85209 -0.722072,-0.80036 -1.381567,-1.66928 -1.465548,-1.93093 -0.163936,-0.51075 0.294672,-1.24148 0.783323,-1.24812 0.833948,-0.0113 0.966247,-0.41785 0.498297,-1.531173 -0.2555,-0.607875 -0.550785,-1.10644 -0.65619,-1.107919 -0.105405,-0.0016 -0.371586,0.345284 -0.591518,0.770586 -0.219933,0.425299 -0.864442,1.310036 -1.432246,1.966086 l -1.032367,1.1928 -0.181385,5.37611 c -0.215961,6.4008 -0.336518,40.39069 -0.14429,40.68103 0.142102,0.21463 1.520756,0.75471 2.016148,0.78981 0.162132,0.0115 0.502764,-0.5237 0.756963,-1.1893 z m -7.875186,-12.21741 c 0.02884,-7.09414 0.08763,-16.69818 0.130644,-21.3423 0.06071,-6.55378 0.0045,-8.46859 -0.250889,-8.55432 -0.181004,-0.0607 -0.454954,0.22056 -0.608774,0.62514 -0.315114,0.82881 -0.996001,40.9658 -0.707695,41.71711 0.09556,0.24905 0.446125,0.4528 0.779021,0.4528 h 0.605263 z m -2.833851,-35.2657 c 0,-0.13119 -0.258231,-0.688628 -0.573847,-1.238758 -1.864249,-3.249446 -1.844437,-3.177738 -1.665356,-6.02732 0.287271,-4.5711 1.458568,-10.035788 2.106911,-9.829797 0.452739,0.143846 0.460827,0.95695 0.02283,2.29602 -0.465236,1.422373 -0.832007,3.974113 -1.063842,7.401486 l -0.152128,2.248958 1.068565,1.918229 c 1.125582,2.020584 1.447123,2.208427 2.757948,1.611175 0.638749,-0.291033 0.672925,-0.411813 0.655082,-2.315104 -0.0191,-2.037813 -0.27894,-4.688165 -0.741593,-7.5643 -0.140451,-0.873125 -0.325551,-2.123281 -0.411334,-2.778125 -0.08578,-0.654844 -0.354807,-2.051936 -0.597829,-3.10465 -0.408781,-1.77074 -0.514475,-1.94995 -1.411875,-2.39395 l -0.970015,-0.479925 -0.287391,0.674158 c -0.158065,0.370787 -0.42345,1.20994 -0.589748,1.864784 -0.30729,1.210042 -1.755699,5.097415 -3.049339,8.184083 -0.648409,1.54713 -0.696719,1.891073 -0.531556,3.784476 0.09992,1.145477 0.364445,2.520114 0.58783,3.054747 0.623832,1.493044 1.879783,3.186453 2.670612,3.600813 0.639868,0.33526 0.787625,0.32017 1.444424,-0.14751 0.40241,-0.28654 0.731647,-0.62831 0.731647,-0.75949 z m -5.027084,0.006 c 0.255889,-0.16799 0.300289,-0.33103 0.124989,-0.458975 -0.149537,-0.10914 -0.500017,-0.715483 -0.77884,-1.34743 -0.456719,-1.035127 -0.527783,-1.092695 -0.717106,-0.580906 -0.239741,0.648084 0.29673,2.658141 0.707774,2.651891 0.146471,-0.002 0.444902,-0.12129 0.663183,-0.26458 z m 11.44323,-1.100198 c 0.496223,-0.254315 0.649292,-1.541597 0.183308,-1.541597 -0.701773,0 -2.630704,0.617791 -2.630704,0.842555 0,0.137811 0.123825,0.481936 0.275169,0.764723 0.281676,0.526319 1.063175,0.502687 2.172227,-0.06569 z m 4.006588,-1.430938 c 0.08833,-0.23019 0.160599,-0.797417 0.160599,-1.260512 0,-0.799759 -0.204782,-1.434666 -1.76259,-5.464731 C 33.77981,89.984276 33.115979,88.226133 32.670256,87.023173 32.224534,85.820216 31.81186,84.883972 31.7532,84.94263 c -0.05866,0.05866 0.07479,0.923835 0.296555,1.922613 0.605608,2.727548 1.246246,8.807398 1.062578,10.084189 l -0.161759,1.12448 h 1.318131 c 0.957884,0 1.362019,-0.11438 1.478727,-0.418516 z M 32.27001,96.837421 c 0.497732,-0.295111 -0.05291,-5.039312 -1.422643,-12.25726 -0.695354,-3.664225 -0.99972,-4.752332 -1.458915,-5.215585 -0.319135,-0.321959 -0.772081,-0.85774 -1.006544,-1.190626 -0.361797,-0.513675 -0.465053,-0.5452 -0.682469,-0.208372 -0.741939,1.149435 -0.765418,2.190559 -0.127648,5.659811 0.974177,5.299196 1.169241,6.629093 1.510622,10.298983 l 0.315445,3.391085 1.336857,-0.180189 c 0.735272,-0.0991 1.426155,-0.233135 1.535295,-0.297847 z m -2.315104,-4.584317 c 0.08994,-0.145521 0.216027,-0.264583 0.280199,-0.264583 0.06417,0 0.116676,0.119062 0.116676,0.264583 0,0.145521 -0.12609,0.264583 -0.280199,0.264583 -0.154109,0 -0.206613,-0.119062 -0.116676,-0.264583 z m -0.275463,-4.515519 c -0.09592,-0.155202 -0.110868,-0.345718 -0.03322,-0.423371 0.189526,-0.189523 0.705556,0.144418 0.705556,0.456589 0,0.33813 -0.456779,0.315561 -0.672338,-0.03322 z m -0.650579,-4.480314 c 0,-0.145521 0.119063,-0.264584 0.264584,-0.264584 0.145521,0 0.264583,0.119063 0.264583,0.264584 0,0.14552 -0.119062,0.264583 -0.264583,0.264583 -0.145521,0 -0.264584,-0.119063 -0.264584,-0.264583 z m 1.984376,-2.645834 -0.178806,-1.058333 h 0.982372 c 0.965247,0 0.979402,-0.01484 0.812046,-0.851628 -0.26665,-1.333246 -0.571929,-1.426498 -1.465856,-0.447775 -0.900588,0.98602 -0.954405,1.262726 -0.493479,2.537388 0.426302,1.178915 0.561326,1.108343 0.343723,-0.179652 z m 13.443479,-2.135185 c -0.410827,-0.400674 -2.589678,-1.019241 -2.810912,-0.798007 -0.122592,0.122592 -0.183822,0.550201 -0.136065,0.950246 0.06982,0.584872 0.320059,0.819576 1.277456,1.19816 l 1.190625,0.470813 0.346604,-0.806098 c 0.19063,-0.443354 0.250161,-0.900155 0.132292,-1.015114 z m -17.616054,0.32729 0.257416,-1.014143 -1.28501,-0.263231 c -0.706755,-0.144777 -1.343893,-0.204351 -1.41586,-0.132384 -0.07197,0.07197 -0.130847,0.452035 -0.130847,0.844597 0,0.576022 0.191458,0.7923 0.992188,1.120815 1.357384,0.556898 1.294074,0.579133 1.582113,-0.555654 z m 27.944067,18.257387 c 0.482809,-0.533498 0.552429,-1.94191 0.178803,-3.617188 -0.435459,-1.952524 -1.53593,-6.069449 -2.086375,-7.805235 -0.684635,-2.158952 -1.359468,-5.340948 -1.190635,-5.614125 0.30776,-0.497964 0.562718,-0.116298 0.701468,1.050089 0.08223,0.691224 0.457955,2.200688 0.834949,3.354366 1.170075,3.580665 2.528844,9.361475 2.528844,10.758835 0,1.513848 -0.349297,2.357104 -0.976362,2.357104 -0.391649,0 -0.390848,-0.04169 0.0093,-0.483854 z m -6.1767,-4.543238 c 0,-0.14552 0.185621,-0.264583 0.41249,-0.264583 0.22687,0 0.338905,0.119063 0.248968,0.264583 -0.08994,0.145521 -0.275558,0.264584 -0.412491,0.264584 -0.136932,0 -0.248967,-0.119063 -0.248967,-0.264584 z m -0.407755,-4.25094 c -0.09592,-0.155202 -0.110869,-0.345717 -0.03322,-0.42337 0.189527,-0.189524 0.705557,0.144417 0.705557,0.456589 0,0.338129 -0.456779,0.31556 -0.672338,-0.03322 z m -0.117361,-4.943335 c 0.0031,-0.566986 0.06067,-0.639992 0.260532,-0.330729 0.334542,0.517666 0.334542,1.058334 0,1.058334 -0.145521,0 -0.26276,-0.327422 -0.260532,-0.727605 z M 30.03657,76.242277 c -0.05969,-0.511267 -0.04295,-1.031054 0.0372,-1.155083 0.255071,-0.394724 2.438894,-1.399482 2.618758,-1.204868 0.09504,0.102836 0.05373,0.230677 -0.09179,0.284091 -0.145521,0.05342 -0.629405,0.319561 -1.075296,0.591437 -0.711621,0.433898 -0.797018,0.61164 -0.698659,1.45416 0.08483,0.726604 0.01561,0.95984 -0.284819,0.95984 -0.256876,0 -0.435155,-0.327909 -0.505396,-0.929577 z M 19.205531,74.592166 c -0.328864,-0.419335 -0.319572,-0.428871 0.09849,-0.101065 0.253886,0.199078 0.70037,0.299521 0.992187,0.223208 0.291817,-0.07631 0.530577,-0.03083 0.530577,0.101065 0,0.425982 -1.246733,0.254339 -1.62125,-0.223208 z m 1.885833,-0.299499 c 0,-0.145521 0.119063,-0.338167 0.264584,-0.428104 0.14552,-0.08994 0.264583,-0.04446 0.264583,0.101063 0,0.145521 -0.119063,0.338167 -0.264583,0.428104 -0.145521,0.08994 -0.264584,0.04446 -0.264584,-0.101063 z m 7.649782,-0.509974 c -0.231002,-0.246012 -0.496747,-0.659802 -0.590542,-0.91953 -0.226161,-0.626266 0.292222,-2.987649 0.736875,-3.356676 0.193236,-0.160375 0.290214,-0.525336 0.215503,-0.811028 -0.197519,-0.755319 0.111234,-0.641125 1.09937,0.406604 0.973892,1.032624 2.014998,1.206299 3.287282,0.548378 0.790532,-0.408802 1.409697,-1.888926 1.17139,-2.800223 -0.260485,-0.996093 -1.911959,-0.929068 -4.004091,0.16251 -1.002893,0.523261 -1.363485,0.457721 -1.363485,-0.247817 0,-0.814231 0.274431,-1.057812 0.635481,-0.564047 0.255344,0.349203 0.468903,0.325327 1.745954,-0.195204 0.800261,-0.326191 1.505863,-0.627375 1.568,-0.669298 0.257628,-0.17382 -0.989216,-0.849643 -2.097352,-1.136824 -1.952659,-0.506043 -1.966521,-0.512829 -1.664639,-0.814711 0.589838,-0.589838 4.931995,1.185908 5.235107,2.140924 0.09315,0.293481 0.278325,0.533604 0.411509,0.533604 0.371544,0 0.204909,4.198509 -0.1871,4.714158 -0.40662,0.534871 -0.457298,0.0865 -0.09726,-0.860476 0.167656,-0.440973 0.167656,-0.678682 0,-0.678682 -0.141919,0 -0.258034,0.116004 -0.258034,0.257789 0,0.923604 -3.366183,1.404712 -4.461341,0.637632 -0.795814,-0.557408 -1.115743,-0.228952 -1.290934,1.325346 -0.09653,0.856406 -0.01074,1.399945 0.294492,1.865783 0.674116,1.028835 0.425463,1.326166 -0.386185,0.461788 z m 16.386424,0.148016 c -0.548492,-0.446146 -1.081058,-1.864326 -0.973003,-2.591036 0.05277,-0.354914 0.457534,-0.785963 1.013881,-1.079727 1.243492,-0.656595 1.852083,-1.099738 1.852083,-1.348584 0,-0.113395 -0.238125,-0.444299 -0.529166,-0.735341 -0.291042,-0.291041 -0.529167,-0.70776 -0.529167,-0.926041 0,-0.26066 -0.260826,-0.396875 -0.759933,-0.396875 -0.680152,0 -0.777447,0.109516 -0.926741,1.043151 -0.09174,0.573731 -0.304141,1.128025 -0.471993,1.231765 -0.218868,0.135269 -0.256087,-0.05687 -0.131593,-0.679349 0.09548,-0.47738 0.173593,-1.183648 0.173593,-1.569487 0,-0.658876 0.06434,-0.695386 1.058334,-0.600594 0.837054,0.07982 1.058333,0.01214 1.058333,-0.323736 0,-0.643954 1.017524,-1.525402 1.670386,-1.447009 0.318215,0.03821 0.846463,-0.07751 1.173885,-0.257151 0.434565,-0.23843 0.738198,-0.250153 1.124479,-0.04342 0.833557,0.446106 0.673542,-0.346318 -0.291991,-1.446001 -0.705393,-0.803396 -0.984615,-0.935249 -1.980579,-0.935249 -1.906389,0 -3.522543,0.562309 -4.361079,1.517346 -0.890543,1.014272 -1.143569,1.090258 -0.894395,0.268592 0.467852,-1.542772 2.353831,-2.426301 5.196319,-2.434328 1.207116,-0.0034 1.632111,0.115416 2.148755,0.600781 0.933249,0.876742 1.729002,2.471777 1.307449,2.620701 -0.674912,0.238429 -0.339299,0.866492 0.463021,0.866492 0.796478,0 1.852084,0.781793 1.852084,1.371674 0,0.172336 -0.245282,0.820023 -0.545071,1.439304 -0.395737,0.817486 -0.853549,1.275297 -1.671034,1.671034 -1.322851,0.640382 -2.874532,0.709227 -3.340146,0.148196 -0.48969,-0.590042 -0.731964,-0.486751 -0.925538,0.394586 -0.109125,0.496846 -0.02601,1.087785 0.223281,1.5875 0.406525,0.814899 0.08665,1.132928 -0.524658,0.521624 -0.187124,-0.187124 -0.498533,-0.189206 -0.978958,-0.0066 -1.190681,0.452694 -0.766998,1.339297 0.640014,1.339297 0.279138,0 0.507526,0.119063 0.507526,0.264584 0,0.375054 -1.143048,0.328623 -1.628378,-0.06615 z m 5.781191,-4.684713 c 1.662131,-1.013465 2.239364,-2.954504 0.933717,-3.139776 -0.727538,-0.103237 -3.763613,1.281531 -3.763613,1.716601 0,0.170006 -0.135284,0.354198 -0.30063,0.409313 -0.21454,0.07151 -0.197766,0.264922 0.05857,0.675386 0.59822,0.957903 1.832944,1.093949 3.071953,0.338476 z m -2.85578,-2.167789 c 0.374454,-1.074158 0.365895,-1.343726 -0.06121,-1.927823 -0.549643,-0.751684 -1.40974,-0.147145 -1.566167,1.100812 -0.21726,1.733262 1.081395,2.393217 1.627376,0.827011 z m 1.828077,-1.293744 c 0.70553,-0.657299 0.708089,-0.695767 0.06906,-1.037767 -0.767062,-0.41052 -1.342083,-0.0627 -1.342083,0.8118 0,0.90782 0.45454,0.988504 1.273026,0.225967 z m -31.427865,7.69356 c -0.637778,-0.403344 -0.206451,-0.46201 0.786088,-0.106921 0.802336,0.287044 0.837681,0.332756 0.264583,0.342186 -0.363802,0.006 -0.836604,-0.09989 -1.050671,-0.235265 z m 11.525483,-0.24865 c -0.687908,-0.760135 -0.132932,-0.857197 0.77011,-0.134689 0.710941,0.568809 0.735872,0.635095 0.239315,0.636272 -0.304868,7.94e-4 -0.759108,-0.224991 -1.009425,-0.501583 z M 21.64142,73.048764 c 0.0127,-0.308226 0.07539,-0.370919 0.159851,-0.159853 0.07643,0.190995 0.06703,0.419201 -0.02088,0.507119 -0.08792,0.08792 -0.150453,-0.06835 -0.138965,-0.347266 z m 10.364007,-0.02089 c -0.181901,-0.0734 -0.330729,-0.255501 -0.330729,-0.40467 0,-0.309076 1.311532,-0.05236 1.706562,0.334036 0.2656,0.259797 -0.774684,0.313204 -1.375833,0.07063 z m 16.746165,-0.409422 c -0.417767,-0.359349 -0.647409,-0.722686 -0.510318,-0.807413 0.357492,-0.22094 1.516563,0.72077 1.382427,1.123177 -0.07858,0.235747 -0.341688,0.140484 -0.872109,-0.315764 z m -27.924811,0.106053 c 0,-0.173334 -0.231373,-0.315153 -0.514165,-0.315153 -0.753398,0 -1.337918,-1.013807 -1.337918,-2.32052 0,-0.873602 -0.15148,-1.282327 -0.640078,-1.727068 -0.839303,-0.763966 -1.041371,-1.546619 -0.563872,-2.184001 0.356111,-0.475345 0.374203,-0.439425 0.2334,0.463376 -0.110837,0.710673 -0.03321,1.098081 0.283466,1.414761 0.432226,0.432226 1.21625,0.362702 1.21625,-0.107855 0,-0.134516 0.189402,-0.317259 0.420894,-0.40609 0.50636,-0.19431 1.960356,0.779944 1.960356,1.313537 0,0.531466 -0.236434,0.472247 -0.776274,-0.194429 -0.6253,-0.772215 -1.231926,-0.484717 -1.451954,0.688128 -0.235704,1.256414 0.293227,2.352485 1.220343,2.528835 0.648417,0.123336 0.675547,0.176906 0.3282,0.648041 -0.208256,0.282475 -0.378648,0.371772 -0.378648,0.198438 z m 12.7,-0.315153 c 0,-0.145521 0.112035,-0.264584 0.248968,-0.264584 0.136932,0 0.322553,0.119063 0.412491,0.264584 0.08994,0.145521 -0.02209,0.264583 -0.248968,0.264583 -0.22687,0 -0.412491,-0.119062 -0.412491,-0.264583 z m 18.520834,-0.529167 c 0,-0.145521 0.357187,-0.264583 0.79375,-0.264583 0.436562,0 0.79375,0.119062 0.79375,0.264583 0,0.145521 -0.357188,0.264583 -0.79375,0.264583 -0.436563,0 -0.79375,-0.119062 -0.79375,-0.264583 z M 20.63781,70.498475 c -0.0069,-0.185944 -0.103558,-0.558229 -0.214751,-0.827299 -0.183386,-0.44377 -0.148879,-0.45606 0.371424,-0.132292 0.315474,0.19631 0.541097,0.525656 0.501383,0.731877 -0.09295,0.482629 -0.641503,0.672452 -0.658056,0.227714 z m 31.938972,-0.867246 c 0,-0.218282 0.119062,-0.396875 0.264583,-0.396875 0.145521,0 0.264583,0.178593 0.264583,0.396875 0,0.218281 -0.119062,0.396875 -0.264583,0.396875 -0.145521,0 -0.264583,-0.178594 -0.264583,-0.396875 z M 41.123035,69.234354 c -0.08343,-0.319019 -0.0081,-0.529167 0.189627,-0.529167 0.474123,0 0.665271,0.261736 0.501957,0.687327 -0.204137,0.531971 -0.530635,0.457303 -0.691584,-0.15816 z m -13.67762,-1.653646 c 0.006,-0.485542 0.468884,-1.136613 0.667179,-0.938318 0.231338,0.231338 -0.115758,1.269047 -0.424477,1.269047 -0.135712,0 -0.24493,-0.148828 -0.242702,-0.330729 z M 21.223656,67.38227 c -0.08994,-0.14552 -0.495464,-0.264583 -0.901174,-0.264583 -1.009777,0 -1.950571,-0.854673 -1.801346,-1.636448 0.113424,-0.594217 0.117991,-0.595177 0.152947,-0.0322 0.04649,0.748739 0.993847,1.406049 2.013133,1.396781 0.60657,-0.0055 0.961596,-0.230415 1.462482,-0.926439 0.8056,-1.119455 3.00515,-2.260708 4.700209,-2.438744 1.558422,-0.163684 1.227037,0.231738 -0.573781,0.684652 -1.607455,0.404283 -3.29566,1.512128 -3.994137,2.621055 -0.561858,0.89203 -0.794406,1.022972 -1.058333,0.595926 z m 21.432838,-1.315685 c -0.238406,-1.085459 0.03304,-1.3569 0.397716,-0.397717 0.175033,0.46037 0.187979,0.835078 0.03417,0.988889 -0.153811,0.15381 -0.317458,-0.0702 -0.431885,-0.591172 z M 28.116108,61.734993 c 0.252084,-1.004385 -0.09373,-1.733545 -1.025679,-2.162691 -0.641194,-0.295256 -0.683326,-0.350599 -0.178231,-0.234106 0.363802,0.08391 0.869817,0.393525 1.124479,0.688044 0.508291,0.58784 0.623075,1.934215 0.187833,2.203209 -0.177522,0.109715 -0.215995,-0.06578 -0.108402,-0.494456 z m -1.585209,-0.843428 c -0.282475,-0.213654 -0.38635,-0.388461 -0.230833,-0.388461 0.155514,0 0.430974,0.178593 0.612132,0.396875 0.412009,0.496443 0.2824,0.493582 -0.381299,-0.0084 z"
         id="path1253"
         sodipodi:nodetypes="sscssscssssssssscssssssscscccsssssssssssssscsssscssssssssssssssscsssssssssssssssscssssscsscsssssssssssssssscsssscssccsccssssscsssssssccsssssssccssscsssscsssssssscsssscsscssscsssscccscssssccssssccsscssssscscsscsssssscssscssssssscssssssscssssssssssssscssssssscscsssscsccssssssscsssssssssssssssssscssssssssscssscssssscsssssssccsssssssssscsscsssssssssssssssssssssssssssssssssssssssssssscssssssssssssssssssscsssssssssscssccssssssssssssssssscscccsccssssssssssssssssssssssssssssssssssssssscssscssssssssscsscsssscsssssssssssssssscsscc" />
    </g>
  </g>
</svg>
