<?xml version="1.0" encoding="UTF-8" standalone="no"?>
<svg
   xmlns:dc="http://purl.org/dc/elements/1.1/"
   xmlns:cc="http://creativecommons.org/ns#"
   xmlns:rdf="http://www.w3.org/1999/02/22-rdf-syntax-ns#"
   xmlns:svg="http://www.w3.org/2000/svg"
   xmlns="http://www.w3.org/2000/svg"
   xmlns:sodipodi="http://sodipodi.sourceforge.net/DTD/sodipodi-0.dtd"
   xmlns:inkscape="http://www.inkscape.org/namespaces/inkscape"
   width="40.585403mm"
   height="95.8983mm"
   viewBox="0 0 40.585403 95.8983"
   version="1.1"
   id="svg8"
   inkscape:version="1.0 (4035a4fb49, 2020-05-01)"
   sodipodi:docname="nutmegandpal.svg">
  <defs
     id="defs2" />
  <sodipodi:namedview
     id="base"
     pagecolor="#ffffff"
     bordercolor="#666666"
     borderopacity="1.0"
     inkscape:pageopacity="0.0"
     inkscape:pageshadow="2"
     inkscape:zoom="1.8390864"
     inkscape:cx="176.76198"
     inkscape:cy="72.352643"
     inkscape:document-units="mm"
     inkscape:current-layer="layer1"
     inkscape:document-rotation="0"
     showgrid="false"
     fit-margin-top="0"
     fit-margin-left="0"
     fit-margin-right="0"
     fit-margin-bottom="0"
     inkscape:window-width="1898"
     inkscape:window-height="1034"
     inkscape:window-x="10"
     inkscape:window-y="34"
     inkscape:window-maximized="0" />
  <metadata
     id="metadata5">
    <rdf:RDF>
      <cc:Work
         rdf:about="">
        <dc:format>image/svg+xml</dc:format>
        <dc:type
           rdf:resource="http://purl.org/dc/dcmitype/StillImage" />
        <dc:title></dc:title>
      </cc:Work>
    </rdf:RDF>
  </metadata>
  <g
     inkscape:label="Layer 1"
     inkscape:groupmode="layer"
     id="layer1"
     transform="translate(-78.308643,-32.568701)">
    <path
       style="fill:#000000;stroke-width:0.264583"
       d="m 86.18316,128.23164 c -0.617959,-0.1219 -1.905601,-0.59487 -2.861427,-1.05105 l -1.737863,-0.8294 0.139637,-4.41007 c 0.0768,-2.42554 0.246652,-5.66022 0.377449,-7.18819 0.255773,-2.98789 0.205537,-18.68629 -0.09695,-30.2948 l -0.186141,-7.14375 -0.873209,-0.97039 c -1.576322,-1.75174 -1.753717,-2.17969 -1.786517,-4.309728 -0.01913,-1.241806 0.08961,-2.112571 0.288639,-2.311603 0.193781,-0.193781 0.319318,-1.116018 0.319318,-2.345807 0,-1.760892 0.12234,-2.291278 0.933455,-4.046829 1.18047,-2.554975 3.035295,-7.712678 3.035295,-8.440234 0,-0.303869 0.187732,-0.759934 0.417184,-1.013474 0.288623,-0.318923 0.423799,-1.018405 0.438645,-2.269791 0.0118,-0.994844 0.06895,-1.897669 0.126995,-2.006275 0.05805,-0.108609 0.450058,-0.01932 0.871135,0.198438 0.992547,0.513265 2.114791,0.517691 2.114791,0.0083 0,-0.490157 -0.816528,-0.935347 -1.715537,-0.935347 -1.299062,0 -3.314952,-1.468999 -2.911568,-2.121689 0.126166,-0.204144 0.431186,-0.06923 0.935204,0.41365 0.498793,0.477872 1.260377,0.817769 2.286082,1.020286 1.354611,0.267454 1.583264,0.405509 1.916589,1.157177 0.208161,0.469421 0.535583,0.853493 0.727604,0.853493 0.192019,0 0.349718,0.0893 0.350441,0.198437 7.94e-4,0.109141 0.293121,0.555625 0.649777,0.992188 l 0.648462,0.79375 1.184608,-1.292268 1.184609,-1.29227 0.538022,0.884711 c 0.629295,1.034788 0.935358,2.225633 0.678738,2.640852 -0.09942,0.160861 -0.45733,0.223062 -0.795359,0.138223 -1.209415,-0.303546 -1.109842,1.073055 0.400389,5.535335 0.443257,1.309688 1.271924,3.512344 1.841482,4.894792 0.56956,1.382448 1.112263,2.751666 1.20601,3.042708 0.238662,0.740934 0.542899,0.116848 0.760884,-1.560806 0.09263,-0.712923 0.290073,-1.442805 0.438758,-1.621959 0.148685,-0.179155 0.728665,-1.441323 1.288849,-2.804819 2.26643,-5.516552 2.74947,-6.580124 2.98848,-6.580124 0.32301,0 0.0848,0.730202 -1.03562,3.175 -1.08365,2.36448 -2.562949,6.2845 -2.98986,7.92286 -0.168534,0.64679 -0.297278,2.066169 -0.286091,3.154172 0.02569,2.498165 1.081101,5.009271 2.458311,5.848931 0.48223,0.29401 0.95814,0.53501 1.05759,0.53555 0.3329,0.002 2.59731,-2.480527 2.59731,-2.847287 0,-0.199118 -0.28121,-0.741042 -0.62492,-1.204275 -1.00562,-1.355347 -1.22716,-2.438297 -1.22716,-5.998776 0,-2.493002 0.13644,-3.891257 0.52977,-5.429184 0.29138,-1.139272 0.58904,-2.130661 0.66146,-2.203088 0.3879,-0.3879 0.33526,0.361596 -0.16408,2.336242 -0.46259,1.829266 -0.53993,2.780154 -0.45302,5.569532 0.10416,3.342984 0.11085,3.373454 1.08825,4.956974 0.5409,0.876324 0.98345,1.7242 0.98345,1.884167 0,0.159967 0.40698,0.290849 0.9044,0.290849 0.49743,0 1.06823,0.06286 1.26845,0.139697 0.26447,0.101486 0.45132,-0.282826 0.6831,-1.404988 0.46436,-2.248217 0.42438,-2.709299 -0.73928,-8.524293 -0.58208,-2.908771 -1.05833,-5.762106 -1.05833,-6.340748 0,-1.018857 -0.0462,-1.073208 -1.46305,-1.721289 -0.80468,-0.368067 -1.55783,-0.669213 -1.67367,-0.669213 -0.11585,0 -0.47524,-0.281673 -0.79867,-0.625941 -0.54613,-0.581329 -0.56571,-0.718042 -0.27473,-1.918229 0.30626,-1.263195 0.77053,-2.144035 0.77053,-1.461881 0,0.183213 0.10808,0.266319 0.24017,0.184682 0.13404,-0.08284 0.007,-0.878938 -0.28783,-1.801554 -0.2904,-0.909214 -0.59591,-1.946944 -0.6789,-2.306063 -0.083,-0.359122 -0.37295,-0.835372 -0.64434,-1.058333 -0.6057,-0.497626 -0.72503,-2.771566 -0.19593,-3.733538 0.19378,-0.35233 0.31994,-0.852028 0.28034,-1.110438 -0.0816,-0.532434 1.17751,-2.169517 1.39631,-1.815486 0.0783,0.126624 -0.093,0.443185 -0.38064,0.703469 -0.67043,0.606731 -0.6707,1.184978 -5.3e-4,1.184978 0.31086,0 0.68582,0.31608 0.92604,0.780611 0.60574,1.171369 0.46841,1.570794 -0.24155,0.702554 -0.72432,-0.885807 -1.36825,-0.795841 -1.62497,0.227036 -0.23489,0.935876 0.10659,2.599849 0.50039,2.438339 1.38129,-0.566513 1.40313,-0.562287 0.75785,0.146661 -0.48157,0.529098 -0.55646,0.782357 -0.34503,1.166847 0.35054,0.637463 1.305,3.742018 1.40879,4.582322 0.0855,0.692663 0.9175,1.013235 2.85861,1.101495 0.59032,0.02684 1.38952,0.378086 2.20449,0.968861 l 1.27846,0.926759 0.6032,-0.633764 c 0.41089,-0.431705 0.74909,-1.350783 1.06077,-2.88272 0.25166,-1.236928 0.51622,-2.505197 0.58792,-2.818377 0.10623,-0.464021 -0.0207,-0.602588 -0.68557,-0.748625 -0.90347,-0.198435 -1.11208,-0.666332 -0.29708,-0.666332 0.46825,0 1.61144,0.940345 1.58852,1.306661 -0.005,0.0817 -0.17077,0.90139 -0.36812,1.821534 -0.30016,1.399474 -0.30071,1.695286 -0.003,1.809383 0.19549,0.07502 0.47311,0.06367 0.61692,-0.02522 0.42235,-0.261025 1.35136,0.943488 1.35136,1.752102 0,0.650124 -0.10002,0.743861 -0.79375,0.743861 -0.43656,0 -0.79375,-0.119063 -0.79375,-0.264584 0,-0.145521 0.1786,-0.264583 0.39688,-0.264583 0.22048,0 0.39687,-0.235186 0.39687,-0.529167 0,-0.854032 -0.65399,-0.617926 -2.19858,0.79375 -0.79612,0.727604 -1.5272,1.322917 -1.62462,1.322917 -0.0974,0 -0.78152,-0.460872 -1.52021,-1.024162 -1.62887,-1.242092 -2.20387,-1.176364 -2.64697,0.302572 -0.29733,0.992404 -0.27835,1.097507 0.26309,1.457013 0.38988,0.258865 0.58661,0.662122 0.59277,1.215077 0.0102,0.914056 0.40433,3.134469 1.42908,8.051028 0.71395,3.425433 0.82631,5.313045 0.42046,7.063864 -0.1361,0.587127 -0.14441,1.158963 -0.0187,1.284693 0.12569,0.125693 1.09188,0.125796 2.16982,2.33e-4 1.92473,-0.224206 1.94398,-0.234191 2.02336,-1.049158 0.0441,-0.452538 -0.28045,-3.310038 -0.72117,-6.35 -0.44077,-3.039952 -0.87882,-6.539225 -0.97349,-7.776152 -0.25117,-3.281921 0.26756,-2.350871 0.66335,1.190625 0.1789,1.600729 0.6222,4.696354 0.98511,6.879167 0.3795,2.282542 0.62486,4.695656 0.57752,5.679638 l -0.0823,1.710889 1.29892,-0.07982 c 0.71441,-0.0439 1.5912,-0.190942 1.94843,-0.326757 0.5424,-0.206222 0.62271,-0.177115 0.48701,0.176506 -0.0894,0.232897 -0.16399,0.62207 -0.16581,0.86483 -0.003,0.421637 -0.49544,1.090227 -2.70866,3.678747 l -0.99219,1.16044 -0.005,5.60631 c -0.003,3.08347 -0.20223,9.53536 -0.44374,14.33755 -0.24151,4.80219 -0.44778,11.46969 -0.45839,14.81667 -0.0185,5.85324 -0.0409,6.10703 -0.5858,6.65194 -0.6532,0.6532 -2.7293,1.0146 -3.91415,0.68135 -0.81445,-0.22906 -1.25974,-0.851 -0.60929,-0.851 0.50089,0 0.71884,-4.25218 0.73232,-14.2875 0.006,-4.14734 0.1215,-9.74328 0.25762,-12.43542 0.65735,-13.00023 0.65006,-12.40524 0.15425,-12.5955 -0.97053,-0.37242 -1.02076,-0.12473 -1.58849,7.833 -0.0779,1.09141 -0.20365,6.92547 -0.27952,12.96459 -0.18077,14.38808 -0.33897,18.78522 -0.69115,19.20957 -0.47152,0.56814 -0.0764,0.83028 1.9833,1.31586 1.82972,0.43135 2.01685,0.43279 2.88231,0.0221 0.57716,-0.27388 1.50804,-0.42506 2.47306,-0.40164 l 1.54751,0.0376 -1.71979,0.19224 c -2.78459,0.31126 -3.27787,0.70149 -1.81143,1.43304 1.67993,0.83807 7.10309,0.35316 7.10309,-0.63511 0,-0.36538 -1.14259,-0.80071 -2.10157,-0.80071 -0.40932,0 -1.17165,-0.17859 -1.69407,-0.39687 -0.52242,-0.21828 -1.32079,-0.39688 -1.77415,-0.39688 -0.51651,0 -0.78538,-0.11676 -0.72007,-0.3127 0.1003,-0.30088 3.22423,-0.34362 3.69835,-0.0506 0.54436,0.23986 0.56439,0.29668 2.06235,0.66558 0,0.12479 0.16014,0.22689 0.35586,0.22689 0.19573,0 0.57962,0.24724 0.85309,0.54942 0.48894,0.54027 0.48632,0.55785 -0.15743,1.05564 -0.89234,0.69002 -2.22268,1.03754 -3.97858,1.0393 -1.29864,0.001 -1.56331,0.0974 -2.24896,0.8169 -0.42741,0.44848 -1.1786,0.98426 -1.66931,1.19062 -1.04954,0.44137 -5.85191,0.51256 -7.9344,0.11763 -1.22288,-0.23192 -1.48351,-0.19085 -2.615799,0.41215 -0.96016,0.51134 -1.584331,0.65481 -2.639071,0.60659 -0.944375,-0.0432 -1.530376,0.0668 -1.852083,0.34759 -0.786009,0.68603 -1.450819,0.94304 -3.573553,1.3815 -2.185257,0.45138 -3.902882,0.49378 -5.693534,0.14054 z m 6.362996,-0.93932 c 1.047374,-0.23386 2.023377,-0.53794 2.168898,-0.67575 0.384691,-0.36428 -0.763468,-1.15996 -2.645833,-1.83356 -4.424043,-1.58314 -5.140198,-1.76236 -7.491505,-1.87477 l -2.43037,-0.1162 v 1.3634 c 0,1.68126 0.346355,2.03922 2.816465,2.91088 2.187277,0.77184 4.790197,0.84942 7.582345,0.226 z m -7.488394,-1.18923 c 0,-0.20419 3.670001,-0.88919 3.842079,-0.71711 0.05685,0.0568 -0.784366,0.28417 -1.869361,0.50516 -1.084996,0.221 -1.972718,0.31637 -1.972718,0.21195 z m 14.61823,-0.80804 c 1.677088,-0.66284 0.613918,-1.42369 -3.375787,-2.41588 -2.275642,-0.56592 -3.043206,-0.6382 -5.516073,-0.51942 -2.267374,0.10891 -2.92661,0.0607 -3.128997,-0.22869 -0.217438,-0.31095 -0.241234,-0.31023 -0.15657,0.005 0.1593,0.59256 5.115639,2.15024 5.976982,1.87845 1.078746,-0.34039 3.223882,-0.4954 3.223882,-0.23296 0,0.12765 -0.647816,0.23208 -1.439592,0.23208 -1.698739,0 -2.003227,0.2894 -1.005531,0.95569 1.250723,0.83527 3.752557,0.98571 5.421686,0.32602 z m 11.026818,-0.84981 c 1.0999,-0.51336 0.90227,-0.88418 -0.95794,-1.79739 -1.59166,-0.78138 -2.01834,-0.87683 -3.69248,-0.82608 -1.13271,0.0343 -2.46108,0.27336 -3.30781,0.59518 -1.68092,0.63888 -1.6975,0.64105 -1.30705,0.17058 0.33502,-0.40367 2.25035,-0.95544 3.31656,-0.95544 0.88532,0 0.86066,-0.31851 -0.0561,-0.7243 -0.54689,-0.24207 -1.15625,-0.25608 -2.40331,-0.0553 -1.14217,0.18394 -2.14053,0.18219 -3.156042,-0.006 -1.606616,-0.297 -1.855864,-0.19979 -1.968611,0.76779 -0.06504,0.55821 0.102333,0.68603 1.418249,1.083 0.8206,0.24755 1.935834,0.78862 2.478294,1.20237 0.80844,0.61663 1.35047,0.78331 3.00591,0.92432 2.48104,0.21134 5.76773,0.0233 6.6303,-0.37924 z m -13.877677,-3.49417 c 0.254196,-0.66561 0.62756,-1.27366 0.829693,-1.35123 0.288492,-0.1107 0.36842,-0.91722 0.371708,-3.75074 0.0024,-1.98534 0.113287,-4.97893 0.246629,-6.65242 0.133342,-1.67349 0.313865,-6.2574 0.401161,-10.18646 0.177268,-7.97851 0.635088,-19.36699 0.803042,-19.97604 0.06019,-0.21828 -0.481345,-1.05172 -1.20342,-1.85209 -0.722072,-0.80036 -1.381567,-1.66928 -1.465548,-1.93093 -0.163936,-0.51075 0.294672,-1.24148 0.783323,-1.24812 0.833948,-0.0113 0.966247,-0.41785 0.498297,-1.531173 -0.2555,-0.607875 -0.550785,-1.10644 -0.65619,-1.107919 -0.105405,-0.0016 -0.371586,0.345284 -0.591518,0.770586 -0.219933,0.425299 -0.864442,1.310036 -1.432246,1.966086 l -1.032367,1.1928 -0.181385,5.37611 c -0.215961,6.4008 -0.336518,40.39069 -0.14429,40.68103 0.142102,0.21463 1.520756,0.75471 2.016148,0.78981 0.162132,0.0115 0.502764,-0.5237 0.756963,-1.1893 z m -7.875186,-12.21741 c 0.02884,-7.09414 0.08763,-16.69818 0.130644,-21.3423 0.06071,-6.55378 0.0045,-8.46859 -0.250889,-8.55432 -0.181004,-0.0607 -0.454954,0.22056 -0.608774,0.62514 -0.315114,0.82881 -0.996001,40.9658 -0.707695,41.71711 0.09556,0.24905 0.446125,0.4528 0.779021,0.4528 h 0.605263 z m -2.833851,-35.2657 c 0,-0.13119 -0.258231,-0.688628 -0.573847,-1.238758 -1.864249,-3.249446 -1.844437,-3.177738 -1.665356,-6.02732 0.287271,-4.5711 1.458568,-10.035788 2.106911,-9.829797 0.452739,0.143846 0.460827,0.95695 0.02283,2.29602 -0.465236,1.422373 -0.832007,3.974113 -1.063842,7.401486 l -0.152128,2.248958 1.068565,1.918229 c 1.125582,2.020584 1.447123,2.208427 2.757948,1.611175 0.638749,-0.291033 0.672925,-0.411813 0.655082,-2.315104 -0.0191,-2.037813 -0.27894,-4.688165 -0.741593,-7.5643 -0.140451,-0.873125 -0.325551,-2.123281 -0.411334,-2.778125 -0.08578,-0.654844 -0.354807,-2.051936 -0.597829,-3.10465 -0.408781,-1.77074 -0.514475,-1.94995 -1.411875,-2.39395 l -0.970015,-0.479925 -0.287391,0.674158 c -0.158065,0.370787 -0.42345,1.20994 -0.589748,1.864784 -0.30729,1.210042 -1.755699,5.097415 -3.049339,8.184083 -0.648409,1.54713 -0.696719,1.891073 -0.531556,3.784476 0.09992,1.145477 0.364445,2.520114 0.58783,3.054747 0.623832,1.493044 1.879783,3.186453 2.670612,3.600813 0.639868,0.33526 0.787625,0.32017 1.444424,-0.14751 0.40241,-0.28654 0.731647,-0.62831 0.731647,-0.75949 z m -5.027084,0.006 c 0.255889,-0.16799 0.300289,-0.33103 0.124989,-0.458975 -0.149537,-0.10914 -0.500017,-0.715483 -0.77884,-1.34743 -0.456719,-1.035127 -0.527783,-1.092695 -0.717106,-0.580906 -0.239741,0.648084 0.29673,2.658141 0.707774,2.651891 0.146471,-0.002 0.444902,-0.12129 0.663183,-0.26458 z m 11.44323,-1.100198 c 0.496223,-0.254315 0.649292,-1.541597 0.183308,-1.541597 -0.701773,0 -2.630704,0.617791 -2.630704,0.842555 0,0.137811 0.123825,0.481936 0.275169,0.764723 0.281676,0.526319 1.063175,0.502687 2.172227,-0.06569 z m 4.006588,-1.430938 c 0.08833,-0.23019 0.160599,-0.797417 0.160599,-1.260512 0,-0.799759 -0.204782,-1.434666 -1.76259,-5.464731 -0.365631,-0.945985 -1.029462,-2.704128 -1.475185,-3.907088 -0.445722,-1.202957 -0.858396,-2.139201 -0.917056,-2.080543 -0.05866,0.05866 0.07479,0.923835 0.296555,1.922613 0.605608,2.727548 1.246246,8.807398 1.062578,10.084189 l -0.161759,1.12448 h 1.318131 c 0.957884,0 1.362019,-0.11438 1.478727,-0.418516 z m -3.477422,-0.818083 c 0.497732,-0.295111 -0.05291,-5.039312 -1.422643,-12.25726 -0.695354,-3.664225 -0.99972,-4.752332 -1.458915,-5.215585 -0.319135,-0.321959 -0.772081,-0.85774 -1.006544,-1.190626 -0.361797,-0.513675 -0.465053,-0.5452 -0.682469,-0.208372 -0.741939,1.149435 -0.765418,2.190559 -0.127648,5.659811 0.974177,5.299196 1.169241,6.629093 1.510622,10.298983 l 0.315445,3.391085 1.336857,-0.180189 c 0.735272,-0.0991 1.426155,-0.233135 1.535295,-0.297847 z m -2.315104,-4.584317 c 0.08994,-0.145521 0.216027,-0.264583 0.280199,-0.264583 0.06417,0 0.116676,0.119062 0.116676,0.264583 0,0.145521 -0.12609,0.264583 -0.280199,0.264583 -0.154109,0 -0.206613,-0.119062 -0.116676,-0.264583 z m -0.275463,-4.515519 c -0.09592,-0.155202 -0.110868,-0.345718 -0.03322,-0.423371 0.189526,-0.189523 0.705556,0.144418 0.705556,0.456589 0,0.33813 -0.456779,0.315561 -0.672338,-0.03322 z m -0.650579,-4.480314 c 0,-0.145521 0.119063,-0.264584 0.264584,-0.264584 0.145521,0 0.264583,0.119063 0.264583,0.264584 0,0.14552 -0.119062,0.264583 -0.264583,0.264583 -0.145521,0 -0.264584,-0.119063 -0.264584,-0.264583 z m 1.984376,-2.645834 -0.178806,-1.058333 h 0.982372 c 0.965247,0 0.979402,-0.01484 0.812046,-0.851628 -0.26665,-1.333246 -0.571929,-1.426498 -1.465856,-0.447775 -0.900588,0.98602 -0.954405,1.262726 -0.493479,2.537388 0.426302,1.178915 0.561326,1.108343 0.343723,-0.179652 z m 13.443482,-2.135185 c -0.41083,-0.400674 -2.58968,-1.019241 -2.81091,-0.798007 -0.1226,0.122592 -0.18383,0.550201 -0.13607,0.950246 0.0698,0.584872 0.32006,0.819576 1.27746,1.19816 l 1.19062,0.470813 0.34661,-0.806098 c 0.19063,-0.443354 0.25016,-0.900155 0.13229,-1.015114 z m -17.616057,0.32729 0.257416,-1.014143 -1.28501,-0.263231 c -0.706755,-0.144777 -1.343893,-0.204351 -1.41586,-0.132384 -0.07197,0.07197 -0.130847,0.452035 -0.130847,0.844597 0,0.576022 0.191458,0.7923 0.992188,1.120815 1.357384,0.556898 1.294074,0.579133 1.582113,-0.555654 z m 27.944067,18.257387 c 0.48281,-0.533498 0.55243,-1.94191 0.1788,-3.617188 -0.43546,-1.952524 -1.53593,-6.069449 -2.08637,-7.805235 -0.68464,-2.158952 -1.35947,-5.340948 -1.19064,-5.614125 0.30776,-0.497964 0.56272,-0.116298 0.70147,1.050089 0.0822,0.691224 0.45796,2.200688 0.83495,3.354366 1.17008,3.580665 2.52884,9.361475 2.52884,10.758835 0,1.513848 -0.34929,2.357104 -0.97636,2.357104 -0.39165,0 -0.39085,-0.04169 0.009,-0.483854 z m -6.1767,-4.543238 c 0,-0.14552 0.18562,-0.264583 0.41249,-0.264583 0.22687,0 0.3389,0.119063 0.24897,0.264583 -0.0899,0.145521 -0.27556,0.264584 -0.41249,0.264584 -0.13693,0 -0.24897,-0.119063 -0.24897,-0.264584 z m -0.40775,-4.25094 c -0.0959,-0.155202 -0.11087,-0.345717 -0.0332,-0.42337 0.18952,-0.189524 0.70555,0.144417 0.70555,0.456589 0,0.338129 -0.45678,0.31556 -0.67234,-0.03322 z m -0.11737,-4.943335 c 0.003,-0.566986 0.0607,-0.639992 0.26054,-0.330729 0.33454,0.517666 0.33454,1.058334 0,1.058334 -0.14552,0 -0.26276,-0.327422 -0.26054,-0.727605 z M 90.827968,49.529597 c -0.05969,-0.511267 -0.04295,-1.031054 0.0372,-1.155083 0.255071,-0.394724 2.438894,-1.399482 2.618758,-1.204868 0.09504,0.102836 0.05373,0.230677 -0.09179,0.284091 -0.145521,0.05342 -0.629405,0.319561 -1.075296,0.591437 -0.711621,0.433898 -0.797018,0.61164 -0.698659,1.45416 0.08483,0.726604 0.01561,0.95984 -0.284819,0.95984 -0.256876,0 -0.435155,-0.327909 -0.505396,-0.929577 z M 79.996929,47.879486 c -0.328864,-0.419335 -0.319572,-0.428871 0.09849,-0.101065 0.253886,0.199078 0.70037,0.299521 0.992187,0.223208 0.291817,-0.07631 0.530577,-0.03083 0.530577,0.101065 0,0.425982 -1.246733,0.254339 -1.62125,-0.223208 z m 1.885833,-0.299499 c 0,-0.145521 0.119063,-0.338167 0.264584,-0.428104 0.14552,-0.08994 0.264583,-0.04446 0.264583,0.101063 0,0.145521 -0.119063,0.338167 -0.264583,0.428104 -0.145521,0.08994 -0.264584,0.04446 -0.264584,-0.101063 z m 7.649782,-0.509974 c -0.231002,-0.246012 -0.496747,-0.659802 -0.590542,-0.91953 -0.226161,-0.626266 0.292222,-2.987649 0.736875,-3.356676 0.193236,-0.160375 0.290214,-0.525336 0.215503,-0.811028 -0.197519,-0.755319 0.111234,-0.641125 1.09937,0.406604 0.973892,1.032624 2.014998,1.206299 3.287282,0.548378 0.790532,-0.408802 1.409697,-1.888926 1.17139,-2.800223 -0.260485,-0.996093 -1.911959,-0.929068 -4.004091,0.16251 -1.002893,0.523261 -1.363485,0.457721 -1.363485,-0.247817 0,-0.814231 0.274431,-1.057812 0.635481,-0.564047 0.255344,0.349203 0.468903,0.325327 1.745954,-0.195204 0.800261,-0.326191 1.505863,-0.627375 1.568,-0.669298 0.257628,-0.17382 -0.989216,-0.849643 -2.097352,-1.136824 -1.952659,-0.506043 -1.966521,-0.512829 -1.664639,-0.814711 0.589838,-0.589838 4.931995,1.185908 5.235107,2.140924 0.09315,0.293481 0.278325,0.533604 0.411509,0.533604 0.371544,0 0.204909,4.198509 -0.1871,4.714158 -0.40662,0.534871 -0.457298,0.0865 -0.09726,-0.860476 0.167656,-0.440973 0.167656,-0.678682 0,-0.678682 -0.141919,0 -0.258034,0.116004 -0.258034,0.257789 0,0.923604 -3.366183,1.404712 -4.461341,0.637632 -0.795814,-0.557408 -1.115743,-0.228952 -1.290934,1.325346 -0.09653,0.856406 -0.01074,1.399945 0.294492,1.865783 0.674116,1.028835 0.425463,1.326166 -0.386185,0.461788 z m 16.386426,0.148016 c -0.54849,-0.446146 -1.08106,-1.864326 -0.973,-2.591036 0.0528,-0.354914 0.45753,-0.785963 1.01388,-1.079727 1.24349,-0.656595 1.85208,-1.099738 1.85208,-1.348584 0,-0.113395 -0.23813,-0.444299 -0.52917,-0.735341 -0.29104,-0.291041 -0.52916,-0.70776 -0.52916,-0.926041 0,-0.26066 -0.26083,-0.396875 -0.75994,-0.396875 -0.68015,0 -0.77744,0.109516 -0.92674,1.043151 -0.0917,0.573731 -0.30414,1.128025 -0.47199,1.231765 -0.21887,0.135269 -0.25609,-0.05687 -0.13159,-0.679349 0.0955,-0.47738 0.17359,-1.183648 0.17359,-1.569487 0,-0.658876 0.0643,-0.695386 1.05833,-0.600594 0.83706,0.07982 1.05834,0.01214 1.05834,-0.323736 0,-0.643954 1.01752,-1.525402 1.67038,-1.447009 0.31822,0.03821 0.84646,-0.07751 1.17389,-0.257151 0.43456,-0.23843 0.73819,-0.250153 1.12448,-0.04342 0.83355,0.446106 0.67354,-0.346318 -0.292,-1.446001 -0.70539,-0.803396 -0.98461,-0.935249 -1.98057,-0.935249 -1.90639,0 -3.52255,0.562309 -4.36108,1.517346 -0.89055,1.014272 -1.14357,1.090258 -0.8944,0.268592 0.46785,-1.542772 2.35383,-2.426301 5.19632,-2.434328 1.20712,-0.0034 1.63211,0.115416 2.14876,0.600781 0.93324,0.876742 1.729,2.471777 1.30744,2.620701 -0.67491,0.238429 -0.33929,0.866492 0.46303,0.866492 0.79647,0 1.85208,0.781793 1.85208,1.371674 0,0.172336 -0.24528,0.820023 -0.54507,1.439304 -0.39574,0.817486 -0.85355,1.275297 -1.67104,1.671034 -1.32285,0.640382 -2.87453,0.709227 -3.34014,0.148196 -0.48969,-0.590042 -0.73196,-0.486751 -0.92554,0.394586 -0.10912,0.496846 -0.026,1.087785 0.22328,1.5875 0.40653,0.814899 0.0867,1.132928 -0.52466,0.521624 -0.18712,-0.187124 -0.49853,-0.189206 -0.97895,-0.0066 -1.19068,0.452694 -0.767,1.339297 0.64001,1.339297 0.27914,0 0.50753,0.119063 0.50753,0.264584 0,0.375054 -1.14305,0.328623 -1.62838,-0.06615 z m 5.78119,-4.684713 c 1.66213,-1.013465 2.23936,-2.954504 0.93372,-3.139776 -0.72754,-0.103237 -3.76362,1.281531 -3.76362,1.716601 0,0.170006 -0.13528,0.354198 -0.30063,0.409313 -0.21454,0.07151 -0.19776,0.264922 0.0586,0.675386 0.59822,0.957903 1.83295,1.093949 3.07196,0.338476 z m -2.85578,-2.167789 c 0.37445,-1.074158 0.36589,-1.343726 -0.0612,-1.927823 -0.54964,-0.751684 -1.40974,-0.147145 -1.56617,1.100812 -0.21726,1.733262 1.0814,2.393217 1.62738,0.827011 z m 1.82808,-1.293744 c 0.70553,-0.657299 0.70809,-0.695767 0.0691,-1.037767 -0.76707,-0.41052 -1.34209,-0.0627 -1.34209,0.8118 0,0.90782 0.45454,0.988504 1.27303,0.225967 z m -31.427869,7.69356 c -0.637778,-0.403344 -0.206451,-0.46201 0.786088,-0.106921 0.802336,0.287044 0.837681,0.332756 0.264583,0.342186 -0.363802,0.006 -0.836604,-0.09989 -1.050671,-0.235265 z m 11.525483,-0.24865 c -0.687908,-0.760135 -0.132932,-0.857197 0.77011,-0.134689 0.710941,0.568809 0.735872,0.635095 0.239315,0.636272 -0.304868,7.94e-4 -0.759108,-0.224991 -1.009425,-0.501583 z m -8.337256,-0.180609 c 0.0127,-0.308226 0.07539,-0.370919 0.159851,-0.159853 0.07643,0.190995 0.06703,0.419201 -0.02088,0.507119 -0.08792,0.08792 -0.150453,-0.06835 -0.138965,-0.347266 z m 10.364007,-0.02089 c -0.181901,-0.0734 -0.330729,-0.255501 -0.330729,-0.40467 0,-0.309076 1.311532,-0.05236 1.706562,0.334036 0.2656,0.259797 -0.774684,0.313204 -1.375833,0.07063 z m 16.746165,-0.409422 c -0.41777,-0.359349 -0.64741,-0.722686 -0.51032,-0.807413 0.35749,-0.22094 1.51657,0.72077 1.38243,1.123177 -0.0786,0.235747 -0.34169,0.140484 -0.87211,-0.315764 z m -27.924811,0.106053 c 0,-0.173334 -0.231373,-0.315153 -0.514165,-0.315153 -0.753398,0 -1.337918,-1.013807 -1.337918,-2.32052 0,-0.873602 -0.15148,-1.282327 -0.640078,-1.727068 -0.839303,-0.763966 -1.041371,-1.546619 -0.563872,-2.184001 0.356111,-0.475345 0.374203,-0.439425 0.2334,0.463376 -0.110837,0.710673 -0.03321,1.098081 0.283466,1.414761 0.432226,0.432226 1.21625,0.362702 1.21625,-0.107855 0,-0.134516 0.189402,-0.317259 0.420894,-0.40609 0.50636,-0.19431 1.960356,0.779944 1.960356,1.313537 0,0.531466 -0.236434,0.472247 -0.776274,-0.194429 -0.6253,-0.772215 -1.231926,-0.484717 -1.451954,0.688128 -0.235704,1.256414 0.293227,2.352485 1.220343,2.528835 0.648417,0.123336 0.675547,0.176906 0.3282,0.648041 -0.208256,0.282475 -0.378648,0.371772 -0.378648,0.198438 z m 12.7,-0.315153 c 0,-0.145521 0.112035,-0.264584 0.248968,-0.264584 0.136932,0 0.322553,0.119063 0.412491,0.264584 0.08994,0.145521 -0.02209,0.264583 -0.248968,0.264583 -0.22687,0 -0.412491,-0.119062 -0.412491,-0.264583 z m 18.520831,-0.529167 c 0,-0.145521 0.35719,-0.264583 0.79375,-0.264583 0.43657,0 0.79375,0.119062 0.79375,0.264583 0,0.145521 -0.35718,0.264583 -0.79375,0.264583 -0.43656,0 -0.79375,-0.119062 -0.79375,-0.264583 z m -31.409802,-1.38171 c -0.0069,-0.185944 -0.103558,-0.558229 -0.214751,-0.827299 -0.183386,-0.44377 -0.148879,-0.45606 0.371424,-0.132292 0.315474,0.19631 0.541097,0.525656 0.501383,0.731877 -0.09295,0.482629 -0.641503,0.672452 -0.658056,0.227714 z m 31.938972,-0.867246 c 0,-0.218282 0.11906,-0.396875 0.26458,-0.396875 0.14552,0 0.26459,0.178593 0.26459,0.396875 0,0.218281 -0.11907,0.396875 -0.26459,0.396875 -0.14552,0 -0.26458,-0.178594 -0.26458,-0.396875 z m -11.45375,-0.396875 c -0.0834,-0.319019 -0.008,-0.529167 0.18963,-0.529167 0.47412,0 0.66527,0.261736 0.50196,0.687327 -0.20414,0.531971 -0.53064,0.457303 -0.69159,-0.15816 z M 88.236813,40.868028 c 0.006,-0.485542 0.468884,-1.136613 0.667179,-0.938318 0.231338,0.231338 -0.115758,1.269047 -0.424477,1.269047 -0.135712,0 -0.24493,-0.148828 -0.242702,-0.330729 z M 82.015054,40.66959 c -0.08994,-0.14552 -0.495464,-0.264583 -0.901174,-0.264583 -1.009777,0 -1.950571,-0.854673 -1.801346,-1.636448 0.113424,-0.594217 0.117991,-0.595177 0.152947,-0.0322 0.04649,0.748739 0.993847,1.406049 2.013133,1.396781 0.60657,-0.0055 0.961596,-0.230415 1.462482,-0.926439 0.8056,-1.119455 3.00515,-2.260708 4.700209,-2.438744 1.558422,-0.163684 1.227037,0.231738 -0.573781,0.684652 -1.607455,0.404283 -3.29566,1.512128 -3.994137,2.621055 -0.561858,0.89203 -0.794406,1.022972 -1.058333,0.595926 z m 21.432836,-1.315685 c -0.2384,-1.085459 0.033,-1.3569 0.39772,-0.397717 0.17503,0.46037 0.18798,0.835078 0.0342,0.988889 -0.15381,0.15381 -0.31746,-0.0702 -0.43189,-0.591172 z M 88.907506,35.022313 c 0.252084,-1.004385 -0.09373,-1.733545 -1.025679,-2.162691 -0.641194,-0.295256 -0.683326,-0.350599 -0.178231,-0.234106 0.363802,0.08391 0.869817,0.393525 1.124479,0.688044 0.508291,0.58784 0.623075,1.934215 0.187833,2.203209 -0.177522,0.109715 -0.215995,-0.06578 -0.108402,-0.494456 z m -1.585209,-0.843428 c -0.282475,-0.213654 -0.38635,-0.388461 -0.230833,-0.388461 0.155514,0 0.430974,0.178593 0.612132,0.396875 0.412009,0.496443 0.2824,0.493582 -0.381299,-0.0084 z"
       id="path1253"
       sodipodi:nodetypes="sscssscssssssssscssssssscscccsssssssssssssscsssscssssssssssssssscsssssssssssssssscssssscsscsssssssssssssssscsssscssccsccssssscsssssssccsssssssccssscsssscsssssssscsssscsscssscsssscccscssssccssssccsscssssscscsscsssssscssscssssssscssssssscssssssssssssscssssssscscsssscsccssssssscsssssssssssssssssscssssssssscssscssssscsssssssccsssssssssscsscsssssssssssssssssssssssssssssssssssssssssssscssssssssssssssssssscsssssssssscssccssssssssssssssssscscccsccssssssssssssssssssssssssssssssssssssssscssscssssssssscsscsssscsssssssssssssssscsscc" />
  </g>
</svg>
