<?xml version="1.0" encoding="UTF-8" standalone="no"?>
<svg
   xmlns:dc="http://purl.org/dc/elements/1.1/"
   xmlns:cc="http://creativecommons.org/ns#"
   xmlns:rdf="http://www.w3.org/1999/02/22-rdf-syntax-ns#"
   xmlns:svg="http://www.w3.org/2000/svg"
   xmlns="http://www.w3.org/2000/svg"
   xmlns:sodipodi="http://sodipodi.sourceforge.net/DTD/sodipodi-0.dtd"
   xmlns:inkscape="http://www.inkscape.org/namespaces/inkscape"
   version="1.1"
   id="svg1951"
   width="422.66666"
   height="440"
   viewBox="0 0 422.66666 440"
   sodipodi:docname="poopbutt.svg"
   inkscape:version="1.0 (4035a4fb49, 2020-05-01)">
  <metadata
     id="metadata1957">
    <rdf:RDF>
      <cc:Work
         rdf:about="">
        <dc:format>image/svg+xml</dc:format>
        <dc:type
           rdf:resource="http://purl.org/dc/dcmitype/StillImage" />
        <dc:title></dc:title>
      </cc:Work>
    </rdf:RDF>
  </metadata>
  <defs
     id="defs1955" />
  <sodipodi:namedview
     inkscape:document-rotation="0"
     pagecolor="#ffffff"
     bordercolor="#666666"
     borderopacity="1"
     objecttolerance="10"
     gridtolerance="10"
     guidetolerance="10"
     inkscape:pageopacity="0"
     inkscape:pageshadow="2"
     inkscape:window-width="1898"
     inkscape:window-height="1034"
     id="namedview1953"
     showgrid="false"
     inkscape:zoom="1.8032392"
     inkscape:cx="202.90613"
     inkscape:cy="219.34318"
     inkscape:window-x="10"
     inkscape:window-y="34"
     inkscape:window-maximized="0"
     inkscape:current-layer="layer4" />
  <g
     inkscape:groupmode="layer"
     id="layer4"
     inkscape:label="Image 1" />
  <g
     inkscape:groupmode="layer"
     inkscape:label="Image"
     id="g1959">
    <path
       id="path2526"
       style="fill:#000000;stroke-width:1.33333"
       d="M 204.25,7.8164062 C 195.08558,7.6098645 185.40292,11.026823 177.70703,18.125 c -22.0227,20.312269 -26.58627,29.314556 -26.11914,51.517578 0.38856,18.468283 7.66877,29.338455 23.74609,35.460942 4.74839,1.80826 21.159,0.98854 30.92579,-1.54493 13.54458,-3.51342 25.44666,-16.952449 27.35937,-30.892574 3.96227,-28.877642 2.46276,-42.369614 -5.93359,-53.414063 C 222.06106,11.85357 213.41442,8.022948 204.25,7.8164062 Z m -0.74219,2.0605469 c 6.48285,0.077797 14.92448,3.6549609 19.54883,8.5527349 18.87576,19.991811 10.41711,65.401859 -14.21289,76.296874 -6.55103,2.897833 -20.91646,4.30533 -27.3457,2.679688 -7.41036,-1.873721 -15.08562,-8.264953 -20.11719,-16.751953 -4.50984,-7.606951 -4.71484,-8.503822 -4.71484,-20.636719 0,-10.897044 0.46934,-13.60315 3.33007,-19.205078 3.83372,-7.507271 15.79155,-18.762128 22.16993,-20.867188 2.70296,-0.892057 4.10118,-2.100457 3.68554,-3.183593 -0.77307,-2.014589 6.57682,-5.29257 15.01563,-6.697266 0.82931,-0.1380439 1.7145,-0.1986138 2.64062,-0.1874999 z M 114.5293,12.527344 c -1.21162,0.01215 -2.44495,0.08695 -3.69922,0.228515 -9.55957,1.078948 -24.895701,7.393726 -33.015627,13.59375 -8.782951,6.706283 -5.096072,7.000687 4.619141,0.369141 16.18191,-11.045672 31.528286,-13.678715 44.666016,-7.664062 6.90282,3.160217 8.01056,4.256404 11.08984,10.982421 7.40304,16.170384 -1.1278,33.934992 -21.18945,44.125 -3.48334,1.769305 -6.33398,3.806364 -6.33398,4.527344 0,2.025617 1.46604,1.594656 8.66796,-2.552734 C 134.99165,67.119895 141.34714,58.7236 143.27539,44.513672 145.73572,26.382746 132.70357,12.345073 114.5293,12.527344 Z m 168.88086,1.427734 c -1.02912,0.01739 -2.04968,0.09494 -3.05664,0.234375 -20.30381,2.811532 -43.28895,30.176242 -43.44532,51.722656 -0.18543,25.548804 5.90219,35.881111 24.33399,41.294921 11.74924,3.45099 21.39304,2.81799 31.39062,-2.05664 4.7175,-2.30017 9.7458,-5.450166 11.17383,-6.999999 5.6232,-6.102872 14.59468,-23.808735 15.83594,-31.253907 1.62428,-9.742697 2.83698,-0.04718 2.96484,23.69336 0.0733,13.608076 0.50387,27.060616 0.95703,29.894536 0.82393,5.15255 0.82485,5.15271 6.29688,4.42578 27.18656,-3.61163 30.03892,-5.59898 27.66211,-19.26954 -0.85805,-4.93516 -1.72513,-10.9389 -1.92774,-13.339839 -0.20263,-2.400937 -0.94427,-4.200937 -1.64843,-4 -1.45235,0.414433 -1.01523,9.505573 0.875,18.208989 0.69803,3.21397 0.94152,6.17175 0.54101,6.57226 -0.80325,0.80325 -19.69916,4.06751 -24.19336,4.17969 -2.66293,0.0665 -2.86078,-0.69683 -3.33398,-12.92774 -0.80323,-20.761094 -0.58155,-77.368687 0.30664,-78.255855 2.71377,-2.71064 20.9815,-6.075508 32.83984,-6.048828 22.5392,0.0507 32.40587,8.066895 32.32227,26.261719 -0.0723,15.750831 -16.83423,33.417822 -33.82227,35.65039 -2.28233,0.299946 -4.42,0.585276 -4.75,0.634766 -0.33,0.04949 0.0872,0.77663 0.92578,1.615234 1.14409,1.144091 3.86094,0.772831 10.88086,-1.484375 31.76522,-10.213882 40.30818,-54.930006 12.26758,-64.210937 -6.49734,-2.150498 -37.45475,-0.68448 -47.14062,2.232422 C 324.08205,23.01244 324,23.093227 324,28.107422 c 0,2.787866 -0.60065,5.439353 -1.33398,5.892578 -0.73333,0.453225 -1.3931,3.638071 -1.4668,7.078125 -0.13393,6.254644 -0.13308,6.254743 -1.36133,1.015625 -3.58726,-15.301626 -20.99095,-28.399548 -36.42773,-28.138672 z m -0.10938,3.191406 c 8.17034,-0.09759 16.67144,3.23696 23.46875,9.205078 19.8781,17.4532 12.98928,57.861903 -12.20117,71.572266 -22.95242,12.492272 -55.31074,-5.831812 -55.19727,-31.257812 0.10231,-22.91969 23.48429,-49.275321 43.92969,-49.519532 z M 198.88281,32 c -4.40674,0 -5.99379,0.834639 -9.98633,5.253906 -10.4719,11.591143 -12.59791,24.306187 -5.39648,32.263672 3.95802,4.373568 13.76784,3.404574 18.75586,-1.851562 6.28444,-6.622256 8.41016,-11.929693 8.41016,-20.994141 C 210.66602,36.411213 207.1238,32 198.88281,32 Z m -89.66015,1.142578 c -2.30283,-0.01958 -4.84043,0.303334 -7.55664,1.03125 -2.066585,0.553821 -3.000004,1.811087 -3.000004,4.041016 0,4.937395 4.169404,20.451172 5.496094,20.451172 1.61665,0 1.45392,-2.151192 -0.80469,-10.638672 -2.31297,-8.691716 -1.45989,-9.950545 5.90039,-8.707032 10.8937,1.840477 11.99584,11.216679 1.88281,16.015626 -2.4605,1.167587 -4.4746,2.734076 -4.4746,3.482421 0,2.64001 6.04161,-0.401275 11,-5.537109 9.61761,-9.961778 3.9919,-20.032911 -8.44336,-20.138672 z m -35.841801,1.523438 c -0.578794,0 -0.748911,2.7 -0.376953,6 0.447524,3.970422 0.166986,6 -0.830078,6 -3.444146,0 -0.596942,22.921229 8.00586,64.441404 2.741402,13.23098 3.222918,14.38502 5.740234,13.78906 4.854875,-1.14938 20.014468,-6.42452 22.080078,-7.68359 1.1,-0.67049 3.31643,-1.79031 4.92578,-2.48828 3.22966,-1.40072 3.19306,-4.03341 -0.26758,-18.72461 -0.95008,-4.033333 -2.12893,-9.662294 -2.61914,-12.507812 -0.52779,-3.063685 -1.38159,-4.682853 -2.09179,-3.972657 -0.71019,0.710196 -0.13431,6.354226 1.41015,13.839844 3.90576,18.930395 4.32357,17.792215 -7.6914,20.876955 -5.683342,1.45914 -11.312776,3.09095 -12.50977,3.625 -1.811462,0.8082 -2.436093,-0.44056 -3.726562,-7.44531 C 82.556707,94.821271 81.436627,87.416488 78.708984,66 75.06034,37.352137 74.604676,34.666016 73.380859,34.666016 Z M 347.33398,35.525391 347.76953,49.375 c 0.23958,7.616942 0.98985,14.885246 1.66797,16.152344 3.20189,5.982772 21.03801,-2.55485 22.75195,-10.890625 2.50702,-12.192861 -2.88413,-18.199721 -16.85547,-18.779297 z m -61.67382,1.660156 c -3.32382,0.03304 -6.91151,1.987898 -10.71875,5.867187 -10.26146,10.455679 -13.34419,25.46506 -6.6875,32.550782 2.25223,2.39739 4.31483,3.0625 9.48632,3.0625 5.99914,0 7.13404,-0.52271 12.28125,-5.669922 8.63855,-8.638552 11.01112,-20.185801 5.85938,-28.521485 -3.02505,-4.894646 -6.45371,-7.326503 -10.2207,-7.289062 z m -88.0293,2.912109 c 2.23402,-0.03162 4.55995,0.86036 6.85547,2.666016 6.02448,4.738851 3.86136,16.006462 -4.40821,22.964844 -8.34812,7.024484 -17.4121,2.584867 -17.4121,-8.529297 0,-5.87921 3.83707,-14.880935 5.99023,-14.054688 0.80094,0.307353 2.59551,-0.274548 3.98828,-1.292969 1.5676,-1.146255 3.24876,-1.729311 4.98633,-1.753906 z m 158.74609,2.615235 c 10.02068,0.25745 16.64398,12.109456 7.75977,18.1875 -5.99924,4.104323 -11.87158,4.150441 -12.69727,0.09961 -2.31511,-11.357961 -2.17118,-16.800788 0.46875,-17.638672 1.53489,-0.487154 3.03723,-0.685216 4.46875,-0.648437 z m -70.41406,2.291015 c 4.24134,0.04584 4.40096,1.673443 6.93164,17.070313 0.57123,3.475316 -0.13149,4.797456 -4.7832,9 C 278.18256,80.044271 268,76.765415 268,64.599609 c 0,-10.222984 7.38086,-19.313125 15.87695,-19.554687 0.79134,-0.0225 1.48004,-0.04756 2.08594,-0.04102 z M 111.76562,134.01758 c -6.84881,0.0725 -13.767243,0.6971 -18.76562,1.89844 -7.666667,1.84264 -7.666016,1.84316 -7.666016,8.29687 0,3.8523 -0.600079,6.45313 -1.486328,6.45313 -0.989059,0 -1.203709,1.89308 -0.646484,5.66796 1.103071,7.47268 1.805752,17.68254 2.77539,40.33204 1.103636,25.77948 2.989582,39.60744 5.685547,41.66796 5.333488,4.07639 38.639111,-1.46615 45.257811,-7.53125 1.32768,-1.21662 5.16406,-3.81229 8.52539,-5.76757 16.54335,-9.62321 22.89156,-25.81294 14.9336,-38.08594 -4.05916,-6.26017 -8.85412,-8.99792 -19.51368,-11.13867 l -7.26562,-1.45899 4.5957,-4.03515 c 12.26183,-10.76601 9.89033,-28.30818 -4.58203,-33.89258 -4.35135,-1.67904 -13.04204,-2.49948 -21.84766,-2.40625 z m 2.23438,2.75 c 16.68646,-0.1252 22.45322,2.29435 26.99414,11.33008 4.95607,9.86184 0.92463,18.14745 -12.04297,24.74804 -3.51048,1.78685 -6.07818,3.74397 -5.70508,4.34766 0.3731,0.60369 4.94141,1.20447 10.15039,1.33594 12.30279,0.31048 19.19467,3.13579 24.07227,9.86914 6.23992,8.61395 4.75609,17.42027 -4.61719,27.38281 -7.37208,7.8355 -23.42393,14.03428 -40.3789,15.5957 -5.75995,0.53044 -11.83116,1.10629 -13.492191,1.2793 -2.129802,0.22182 -3.206893,-0.51601 -3.652344,-2.50391 -3.00895,-13.42798 -8.47119,-85.89174 -6.691406,-88.77148 1.5922,-2.57624 12.254251,-4.51488 25.363281,-4.61328 z m 150.43555,4.0664 c -1.91062,0.0723 -2.56996,0.87972 -2.86328,3.16602 -0.23521,1.83333 -1.27529,3.99212 -2.31055,4.79688 -1.21236,0.94243 -2.19125,5.49272 -2.75195,12.7871 -1.01138,13.15787 -1.53744,12.59694 13.05468,13.95313 5.5008,0.51125 9.60208,1.54947 9.97657,2.52539 0.34976,0.91148 0.0129,7.27042 -0.75,14.13086 -0.76288,6.86044 -1.79522,20.12266 -2.29297,29.47266 l -0.9043,17 h 14.20313 c 11.73617,0 14.20312,-0.34739 14.20312,-2 0,-1.34664 1.34669,-2 4.12305,-2 4.1234,0 4.12329,6.5e-4 3.35547,-7.66602 -0.42229,-4.21667 -1.14505,-17.3276 -1.60743,-29.13477 l -0.84179,-21.46679 5.15234,-0.85156 c 2.83347,-0.46809 6.8017,-0.85724 8.81836,-0.86524 2.01667,-0.008 3.66602,-0.61432 3.66602,-1.34766 0,-0.73333 1.18134,-1.33398 2.625,-1.33398 1.67566,0 2.37164,0.66108 1.92382,1.82812 -1.29372,3.37141 3.25793,5.93931 12.23243,6.9004 10.27199,1.10003 9.75314,-3.07175 3.91015,31.45898 -2.06497,12.20356 -3.38436,23.15421 -2.93164,24.33398 1.85826,4.84258 29.73363,1.84107 33.17383,-3.57226 0.56446,-0.88821 1.03617,-13.16654 1.04687,-27.2832 L 378.66602,180 h 6.04296 c 4.14055,0 6.28265,-0.62937 6.8086,-2 0.46932,-1.223 2.48968,-2 5.20117,-2 5.56089,0 5.881,-0.95352 6.26953,-18.74414 l 0.30274,-13.92188 -15.54688,-0.8496 c -8.55062,-0.46685 -19.94128,-0.70118 -25.3125,-0.52149 -5.37122,0.17969 -13.19687,0.41189 -17.39258,0.51563 -7.40252,0.18313 -7.66673,0.31653 -8.88086,4.52148 -1.25119,4.33333 -1.25082,4.33269 -1.37109,0.17969 -0.12025,-4.153 -0.12109,-4.15277 -33.12109,-5.1543 -18.15,-0.55084 -34.49871,-1.08129 -36.33204,-1.17969 -0.32661,-0.0175 -0.62549,-0.0221 -0.89843,-0.0117 z m -79.61524,2.28321 c -3.24084,-0.16092 -3.60591,0.61828 -4.86914,3.66797 -0.93522,2.25783 -3.09097,4.63368 -4.78906,5.27929 -6.72471,2.55673 -12.50435,26.76207 -9.98047,41.79493 3.01434,17.95418 15.41607,35.29111 28.58398,39.95703 6.78765,2.40515 8.50781,2.56482 9.54493,0.88671 0.44071,-0.71308 -1.46563,-2.36335 -4.23633,-3.66796 -6.98664,-3.28977 -18.1423,-19.79984 -23.22266,-34.36719 -4.3903,-12.58861 -4.104,-19.63438 1.46875,-36.08399 4.822,-14.23352 4.86057,-14.27205 13.61719,-13.63867 4.21985,0.30524 7.95283,0.83368 8.29492,1.17578 0.34209,0.34209 0.0489,6.60575 -0.65234,13.91797 -1.2874,13.42472 -0.68079,23.06977 1.75781,27.96094 6.48868,13.01453 17.6029,10.96536 24.78906,-4.57031 2.9605,-6.40029 3.48457,-9.54297 3.78321,-22.6875 0.27146,-11.94761 0.78235,-15.5044 2.35546,-16.38477 2.67673,-1.49796 15.12809,0.22573 17.29688,2.39453 4.49352,4.49352 2.98574,39.58039 -2.36914,55.12305 -1.33602,3.87778 -1.45813,5.44232 -0.39453,5.10352 2.21876,-0.7068 6.03635,-12.9643 7.71484,-24.7754 1.51849,-10.68521 0.61037,-35.94627 -1.36328,-37.91992 -1.67975,-1.67975 -16.05252,-3.36839 -21.95703,-2.58008 -5.13477,0.68555 -5.13745,0.68971 -4.31641,5.82422 0.73731,4.61088 0.53046,5.13868 -2.01562,5.13868 -2.69054,0 -2.79094,0.43835 -1.93555,8.42578 1.14908,10.72992 -0.79169,18.46736 -6.65625,26.53906 -5.23008,7.19843 -7.06856,7.18985 -11.3418,-0.0527 -3.28592,-5.56921 -3.92804,-15.51865 -2.15429,-33.42773 1.07414,-10.8453 1.02682,-11.16391 -1.60156,-10.47656 -1.49073,0.38983 -2.88894,0.26494 -3.10743,-0.2793 -0.21849,-0.54425 -3.77696,-1.37752 -7.90625,-1.85156 -1.85917,-0.21343 -3.25761,-0.37214 -4.33789,-0.42578 z m 175.90235,1.21875 c 6.56056,0.016 14.07522,0.18776 21.49023,0.53125 l 17.54688,0.8125 0.46484,5.86719 c 0.25659,3.22605 0.16272,9.29701 -0.21094,13.49218 l -0.67969,7.62696 -10.62695,0.39453 c -6.429,0.2388 -11.02914,1.02873 -11.64648,2 -0.56119,0.88293 -1.03032,13.97479 -1.04102,29.09179 L 376,231.63672 l -6.18555,0.84961 c -6.55705,0.89868 -11.13194,0.86433 -16.33593,-0.11914 -3.13664,-0.59277 -3.17417,-0.776 -2.34766,-11.48438 0.46197,-5.98547 2.33557,-18.65516 4.16211,-28.15429 3.6976,-19.22976 3.68563,-19.27045 -5.29297,-19.47657 -6.89325,-0.15824 -10.06077,-0.77951 -11.54688,-2.26562 -1.24647,-1.24647 0.79113,-24.00704 2.28321,-25.50195 0.76593,-0.76739 9.05205,-1.17507 19.98633,-1.14844 z m -85.06446,0.0644 c 6.15193,-0.0267 14.4858,0.09 23.51368,0.35547 L 332,145.7207 l -0.0937,9.47266 c -0.1337,13.51532 -0.094,13.47266 -12.28906,13.47266 -7.7435,0 -10.72633,0.50848 -11.72852,2 -1.39379,2.07432 -0.71471,44.89439 0.88281,55.6621 l 0.83985,5.66016 -13.59766,-0.32617 c -7.47951,-0.17907 -13.77283,-0.62657 -13.98437,-0.99414 -0.67403,-1.17113 4.51681,-56.06138 5.44336,-57.56055 1.02794,-1.66326 -4.38546,-3.77376 -9.71875,-3.78906 -2.79821,-0.008 -7.41559,-0.39899 -10.26172,-0.86914 -5.17479,-0.85481 -5.17514,-0.85572 -4.27539,-11.64453 0.49487,-5.93384 1.40147,-11.28819 2.01367,-11.90039 0.30609,-0.30609 4.2758,-0.47716 10.42773,-0.50391 z M 114.64844,152 c -9.01731,0 -11.85013,2.82056 -11.1211,11.07227 0.33665,3.81045 0.86267,7.67708 1.16797,8.59375 1.73291,5.20302 15.08543,-1.59352 17.12891,-8.71875 C 123.84464,155.9025 121.28696,152 114.64844,152 Z m -2.91211,6.26562 c 1.88155,0.0707 3.86261,0.93006 5.26367,2.74805 2.45604,3.1869 2.11405,4.08554 -2.66602,7 -6.42237,3.9158 -6.73975,3.74567 -8.03515,-4.31836 -0.55828,-3.47535 2.30158,-5.54748 5.4375,-5.42969 z m 9.48437,32.95313 c -5.44216,-0.14636 -13.22458,2.01541 -13.21093,3.99219 0.0167,2.40716 2.68097,18.65179 3.38281,20.625 0.49773,1.39937 2.31128,1.62742 7.63086,0.96094 C 128.02346,215.66927 132,211.61015 132,203.55469 c 0,-7.19549 -2.71682,-11.01772 -8.61914,-12.125 -0.6524,-0.12239 -1.38271,-0.19003 -2.16016,-0.21094 z m -2.64062,8.54102 c 8.99165,-0.12409 13.81959,6.38428 8.38476,11.30273 -1.30249,1.17873 -4.81577,2.53511 -7.80859,3.01367 -5.44149,0.87013 -5.44165,0.87049 -6.36523,-6.09179 -1.09854,-8.28119 -1.20726,-8.12811 5.78906,-8.22461 z m 137.08594,8.79492 c -0.36892,-0.36893 -8.64153,7.90488 -18.38477,18.38672 -9.74324,10.48186 -18.59357,19.78067 -19.66602,20.66211 -1.10002,0.90408 -1.57927,2.56833 -1.09961,3.81836 0.98625,2.57006 0.35162,2.94945 15.72266,-9.42188 5.46688,-4.4 13.70702,-10.89336 18.31055,-14.42969 4.60354,-3.53632 8.04297,-6.75585 7.64453,-7.15429 -0.39844,-0.39844 -7.20421,4.23906 -15.125,10.30468 -7.9208,6.06564 -15.30234,11.66108 -16.40234,12.43555 -2.46181,1.73325 1.17526,-2.53691 17.21679,-20.21094 6.84923,-7.54625 12.15213,-14.0217 11.78321,-14.39062 z m 4.21875,20.3125 c -0.5307,-0.16046 -2.8237,1.00346 -5.55079,2.85742 -3.11667,2.11883 -9.24257,5.79571 -13.61328,8.17187 -10.04771,5.46248 -15.38672,9.25437 -15.38672,10.92579 0,0.71864 2.54935,-0.42807 5.66602,-2.54688 3.11666,-2.11883 9.10485,-5.72046 13.30664,-8.00391 C 253.41786,235.32001 260,230.59922 260,229.01758 c 0,-0.0788 -0.0394,-0.12747 -0.11523,-0.15039 z m -46.22852,24.55469 c -1.08687,0.033 -2.09221,0.7642 -2.69922,2.24414 -0.54908,1.3387 -2.57748,2.44873 -4.75976,2.60351 -5.54388,0.3932 -9.7785,3.67607 -13.00977,10.08399 -3.24076,6.42678 -23.85352,27.73303 -23.85352,24.65625 0,-1.1093 -0.89632,-2.76011 -1.99023,-3.66797 -1.73418,-1.43925 -1.57425,-2.14112 1.24219,-5.48828 4.53988,-5.39533 5.32498,-8.77133 2.90234,-12.46875 -4.23491,-6.46329 -16.38503,-5.16548 -18.24805,1.94921 -1.493,5.70156 -3.03621,-0.43672 -2.02539,-8.05664 1.12614,-8.48924 -0.0902,-8.48098 -11.03906,0.082 -8.46722,6.62215 -14.68442,8.54461 -15.00976,4.64062 -0.0917,-1.1 -0.31666,-2.60065 -0.5,-3.33398 -0.18333,-0.73334 -0.4083,-2.23204 -0.5,-3.33204 -0.0917,-1.1 -1.00023,-2 -2.01954,-2 -2.58586,0 -16.98068,14.41871 -16.52148,16.54883 0.20666,0.95862 -2.16952,4.29254 -5.2793,7.40821 -6.50468,6.51698 -9.017904,13.77981 -7.812497,22.57421 0.895592,6.53405 5.999108,14.18881 10.968747,16.45313 3.22684,1.47024 3.22588,1.47051 -0.4082,5.26367 -1.99874,2.08624 -5.983737,4.42737 -8.857422,5.20117 -4.792391,1.29047 -5.527988,1.11648 -8.882812,-2.09765 -2.01167,-1.9273 -6.460343,-4.34831 -9.884766,-5.37891 -9.597116,-2.88831 -15.007887,0.50734 -15.935547,8.98633 -0.110679,1.01162 -1.664053,2.55985 -5.505859,6.69336 -7.061821,7.7785 -11.1005,13.98569 -15.949219,22.41406 -6.459214,9.39005 -6.916198,11.53702 -3.28125,15.40625 2.350264,2.50174 10.544844,5.85274 17.332031,7.50391 1.786744,-1.34222 4.6412,-4.14384 4.681641,-4.1836 0.412958,-0.57452 1.12807,-1.33882 2.236328,-2.49609 C 63.242466,377.24974 76,356.29684 76,353.78711 76,350.14107 73.830141,352.21608 69.603516,359.9043 63.358687,371.26364 53.678855,384 51.291016,384 48.171645,384 36,377.4873 36,375.81836 c 0,-1.79966 8.181656,-15.09971 12.441406,-20.22461 2.773254,-3.33649 3.297589,-3.51386 4.855469,-1.63672 1.454207,1.7522 1.346627,2.99523 -0.650391,7.42383 -2.326747,5.1598 -2.493085,5.25704 -5.523437,3.27148 C 45.405044,363.52666 44,363.1505 44,363.81641 c 0,1.26592 6.605111,6.05663 7.294922,5.29101 0.217977,-0.24192 1.773391,-3.67049 3.457031,-7.61719 2.931648,-6.87226 2.9587,-7.24963 0.650391,-8.9375 -2.281975,-1.66862 -2.213998,-1.99713 1.271484,-6.1582 2.983348,-3.5616 12.505528,-8.1701 10.78711,-5.2207 -0.26458,0.4541 0.02875,2.17617 0.652343,3.82617 1.374451,3.63669 10.552735,4.50645 10.552735,1 0,-1.1 -1.098916,-2 -2.44336,-2 -3.557645,0 -4.213101,-1.1833 -2.765625,-4.99023 1.283312,-3.37536 1.272904,-3.38049 -4.751953,-2.55469 -6.523488,0.89414 -8.146268,-1.04671 -3.853516,-4.60938 4.633327,-3.84532 16.316871,1.34401 19.322266,8.58203 0.858904,2.06855 1.470495,8.54513 1.359375,14.39258 -0.185944,9.78443 0.07076,10.90668 3.234375,14.07031 2.542234,2.54223 3.828477,3.04653 4.935547,1.93946 0.823334,-0.82333 3.327786,-1.49228 5.564453,-1.48828 l 4.066402,0.008 -3.999996,2.08594 c -2.2,1.14755 -10.3,3.90258 -18,6.12109 -9.055346,2.609 -14.973123,5.08986 -16.753906,7.02539 -0.357504,0.38857 -0.684782,0.70427 -1.001953,0.98828 -0.08269,0.11219 -0.171051,0.23798 -0.246094,0.33203 -0.766021,0.96005 -0.894396,3.18994 -0.90625,4.53125 0.15068,0.19709 0.240235,0.41303 0.240235,0.64844 0,0.96172 1.282636,3.12469 2.849609,4.80664 3.329156,3.57342 12.555302,3.40455 21.646484,-0.39648 2.839557,-1.18723 5.473607,-2.15821 5.851563,-2.15821 0.377957,0 0.274246,5.06936 -0.228516,11.26563 -0.914114,11.26596 -0.913599,11.26503 3.298828,13.44336 2.894035,1.49656 6.670466,2.03961 12.066406,1.73437 5.63223,-0.3186 7.85356,0.0275 7.85156,1.22266 -0.001,0.91667 0.56191,1.66602 1.25196,1.66602 2.01864,0 3.35954,-2.9899 3.58593,-8 0.11598,-2.56667 0.27377,-5.41537 0.35157,-6.33204 0.09,-1.06049 2.2848,-1.66796 6.0332,-1.66796 9.81845,0 11.81777,-1.91237 2.78711,-2.66602 -5.66752,-0.47299 -8.09945,-1.24706 -8.36914,-2.66602 -0.3031,-1.59472 1.04674,-1.9563 6.65625,-1.77929 3.86929,0.1221 8.6845,-0.1029 10.70117,-0.5 6.74897,-1.32893 3.76362,-2.55866 -6,-2.47266 -9.20709,0.0811 -9.68795,-0.0674 -10.11719,-3.10351 -0.36564,-2.58628 -0.004,-3.0157 1.91992,-2.27735 3.37421,1.29481 20.65252,-0.59211 19.68946,-2.15039 -0.46284,-0.74889 -3.99913,-0.90478 -8.54688,-0.37695 -9.56301,1.10991 -13.68447,0.0348 -12.6289,-3.29102 0.94367,-2.97325 -2.7665,-4.73952 -3.87696,-1.8457 -0.42951,1.11929 -1.47393,9.11058 -2.32031,17.75977 l -1.53711,15.72656 -5.45898,-0.62891 C 98.1457,415.01248 96,413.6922 96,407.71484 c 0,-5.41116 -6.56e-4,-5.40991 5.66602,-4.73242 3.11666,0.37262 7.16667,0.21301 9,-0.35351 2.87277,-0.88769 2.59643,-1.05137 -2,-1.18164 -7.78097,-0.22047 -11.332036,-1.4641 -11.332036,-3.97071 0,-1.78561 1.052749,-2.11264 5.449216,-1.69336 2.99691,0.2858 6.11522,-0.14841 6.93164,-0.96484 1.09032,-1.0903 -0.17829,-1.48438 -4.78125,-1.48438 -9.706034,0 -8.418673,-3.60834 1.4961,-4.19336 5.08848,-0.30024 8.22544,-2.4746 3.57031,-2.4746 -3.19346,0 -2.24487,-1.69182 3.54688,-6.33204 3.85394,-3.08769 6.80369,-4.33901 10.26367,-4.35351 2.6707,-0.0112 5.75547,-0.64015 6.85547,-1.39649 1.45501,-1.00037 -0.0891,-1.26825 -5.66797,-0.98046 -4.21767,0.21756 -7.66702,-0.0535 -7.66602,-0.60352 10e-4,-0.55 3.30066,-1 7.33399,-1 11.04042,0 8.88092,-2.63705 -2.33204,-2.84766 -10.71651,-0.20129 -9.43184,-0.59138 6.19727,-1.88086 5.79221,-0.47789 9.89904,-1.25909 9.12695,-1.73632 -1.61239,-0.99663 -5.44231,-0.93582 -27.86132,0.4414 -15.671876,0.96273 -16.197493,0.96395 -18.277349,-2.18359 0.842864,-0.0428 1.803363,-0.12458 2.97461,-0.24805 3.428222,-0.3614 7.196899,-4.62337 14.310549,-5.01758 13.70244,-0.75935 22.69358,-0.74428 20.86328,-3.29492 -1.03561,-1.44318 -5.73079,-0.0781 -19.47461,0.86914 -7.9757,0.5497 -17.505771,1.20073 -20.767579,1.28516 0.0019,-0.0915 -0.0084,-0.1816 -0.0039,-0.27344 3.267833,-0.47091 13.793115,-1.58616 36.638675,-3.77734 9.52667,-0.91373 18.23398,-2.03794 19.33398,-2.65821 2.73733,-1.54357 0.0183,-1.52867 -17.33398,0.0918 -7.7,0.71907 -19.89106,1.67958 -27.0918,2.13477 -5.86941,0.37103 -9.22321,0.7293 -10.951172,1.22851 0.122454,-0.36645 0.249294,-0.73299 0.410156,-1.10742 0.07814,-0.18189 0.758205,-0.22772 1.552735,-0.26562 1.137662,-0.0543 42.938601,-3.13465 43.158201,-4.41016 0.47347,-2.75003 -41.778658,2.92615 -42.429686,2.38477 -0.686476,-0.57087 -0.531077,-1.04395 -0.371093,-1.28126 2.196793,-3.25844 5.598287,-5.87751 9.662109,-6.80273 2.93333,-0.66784 11.20253,-1.62371 18.375,-2.125 17.36455,-1.21363 18.63118,-3.02964 1.42578,-2.33203 0,0 -16.24174,1.54673 -15.2539,0.26172 0.70715,-0.91989 13.69531,-1.52735 13.69531,-1.52735 15.53946,-2.1404 16.68867,-4.01699 1.74219,-2.8457 -6.59132,0.51653 -13.71685,1.22497 -12.9629,0.22461 1.04978,-1.39287 10.74581,-2.06779 17.39063,-2.21094 2.42661,-0.0523 4.07471,-0.64099 3.66211,-1.30859 -1.12777,-1.82476 -20.51512,-0.61802 -23.125,1.43945 -2.10044,1.65584 -2.10812,1.55078 -0.0977,-1.56054 1.44758,-2.24024 3.37107,-3.33204 5.86328,-3.33204 6.37067,0 5.12211,-2.94992 -2.31445,-5.4707 l -7.06641,-2.39453 5.33204,-0.99219 c 2.93334,-0.54471 8.63463,-1.06159 12.66796,-1.15039 6.36785,-0.1401 6.89448,-0.34137 4,-1.52929 -1.83577,-0.75335 -7.82666,-1.06522 -13.33398,-0.69336 -7.52138,0.50785 -8.67742,0.3911 -4.66602,-0.47071 2.93333,-0.6302 9.68333,-1.18035 15,-1.22265 8.93346,-0.071 9.54209,1.10511 9.61719,-1.50391 0.029,-1.00647 -0.23689,-0.3734 -17.17383,0.1543 -7.00794,0.21835 -12.18109,1.28827 -14.26562,-0.40625 -1.038189,-0.84394 29.51034,-0.89805 29.33398,-2.32813 -0.22806,-1.84927 -20.32584,0.49214 -27.46484,0.0645 -5.619406,-0.33663 -5.046876,-4.1705 -5.046876,-5.04101 0,-5.77356 2.570779,-6.72008 21.361326,-7.86133 8.19969,-0.49802 14.63867,-1.47149 14.63867,-2.21289 0,-1.30435 -22.61826,-0.35135 -30.8789,1.30078 -2.08377,0.41676 -3.789064,0.18243 -3.789064,-0.51953 0,-2.27339 8.697124,-4.02575 21.228514,-4.2793 6.73545,-0.13628 13.56443,-0.82513 15.17578,-1.52929 1.99885,-0.87352 -2.78951,-1.13328 -15.07031,-0.81836 -19.69402,0.50502 -18.24157,-1.14761 2.29297,-2.60938 7.02318,-0.49995 11.96324,-1.40676 11.52539,-2.11523 -0.70905,-1.14726 -17.00426,-0.43525 -24.15234,1.05469 -5.38573,1.12258 -3.11072,-1.35899 4.10937,-4.48243 3.88427,-1.68036 10.16673,-3.87411 13.96094,-4.875 3.79421,-1.0009 9.24094,-3.67461 12.10547,-5.94336 2.86453,-2.26874 5.42245,-4.12595 5.68359,-4.12695 0.26114,-0.001 0.47461,2.82273 0.47461,6.27735 0,5.92899 0.296,6.44793 5.28516,9.25781 11.52424,6.49042 16.02349,18.22637 9.38086,24.46679 -3.2707,3.07267 -4.44837,6.66602 -2.18555,6.66602 0.63062,0 2.27166,-1.50065 3.64844,-3.33398 3.26791,-4.35159 3.2228,-4.36944 7.8125,3.36132 2.16822,3.65212 4.41822,6.63868 5,6.63868 1.65437,0 1.27114,-1.28921 -1.57422,-5.28516 -3.65102,-5.12738 -5.32144,-9.96436 -4.11524,-11.91602 0.68822,-1.11359 1.54381,-0.37303 2.64649,2.28907 1.56892,3.7877 9.43554,12.46347 9.43554,10.40625 0,-0.5528 -1.38763,-2.9156 -3.08398,-5.25 -4.25183,-5.85104 -6.19365,-10.84367 -4.98047,-12.80664 0.68506,-1.10847 2.1504,0.28115 4.46485,4.23046 3.16491,5.40053 7.5996,10.39189 7.5996,8.55469 0,-0.42389 -1.51526,-3.00346 -3.36718,-5.73242 -4.73096,-6.97147 -5.43089,-10.73117 -2.58399,-13.87695 3.16232,-3.49434 4.00442,-3.30986 5.91016,1.29101 1.45274,3.50723 6.70703,9.59509 6.70703,7.77149 0,-0.40547 -1.49192,-3.34755 -3.31641,-6.53907 -1.82451,-3.19152 -3.32498,-6.55208 -3.33398,-7.46875 -0.0292,-3.0267 2.54708,-1.73532 4.65039,2.33204 1.13766,2.2 2.71305,4 3.5,4 0.78693,0 0.14353,-2.18125 -1.42969,-4.84766 -2.81544,-4.77181 -2.82133,-4.8917 -0.32617,-7.66602 1.39426,-1.55025 3.90755,-5.32511 5.58594,-8.38867 2.73048,-4.98394 8.31397,-8.56493 10.2832,-6.5957 1.36064,1.36064 -1.1782,5.91397 -3.6582,6.5625 -3.83871,1.00384 -3.1988,3.35936 1.04492,3.84765 4.99058,0.57423 5.2913,5.75586 0.33398,5.75586 -2.91388,0 -4.24119,1.83746 -10.54296,14.60352 -5.86954,11.89042 -8.90484,16.27489 -16.33399,23.60156 -8.52425,8.40669 -10.79866,11.79492 -7.92187,11.79492 1.85937,0 16.9459,-15.43307 21.36328,-21.85351 2.17214,-3.15711 5.53386,-9.69601 7.46875,-14.5293 2.9804,-7.44489 4.11121,-8.9169 7.40625,-9.64062 4.78674,-1.05133 8.07456,-5.45387 7.06836,-9.46289 -0.63078,-2.51318 -0.30849,-2.8795 1.99414,-2.27735 4.78981,1.25256 5.98879,3.93518 2.76758,6.19141 -3.72283,2.60756 -2.73397,5.60107 4.03515,12.21094 5.18294,5.06098 5.34994,5.11757 7.99414,2.72461 1.48536,-1.34424 2.70117,-3.04402 2.70117,-3.77735 0,-0.73334 -1.21449,-0.23448 -2.69726,1.10742 -2.63447,2.38416 -2.80043,2.33556 -7.33203,-2.05664 -5.1419,-4.98371 -5.63965,-6.81147 -2.55078,-9.375 1.79257,-1.48771 3.42584,-0.39251 11.59179,7.77344 9.27025,9.27027 9.45972,9.5911 7.62696,13.01563 -1.0336,1.93131 -4.22571,5.37105 -7.09375,7.64257 l -5.21485,4.13086 -7.21094,-7.91211 c -3.96555,-4.3516 -8.69788,-10.16211 -10.51562,-12.91211 C 206.73416,285.48777 204,283.8413 204,286.75977 c 0,2.18464 7.00912,11.62547 15.74609,21.20898 l 7.875,8.63672 4.81641,-3.67383 c 6.61062,-5.04218 11.89648,-12.28214 11.89648,-16.29687 0,-3.51113 -23.3226,-28.63477 -26.58203,-28.63477 -2.87598,0 -3.39144,-2.78366 -1.0039,-5.42188 1.92516,-2.12726 2.07251,-3.18061 0.82617,-5.91601 -0.98809,-2.16864 -2.52056,-3.28269 -3.91797,-3.24023 z m -94.24414,13.24414 c 0.32339,0 0.58789,0.60065 0.58789,1.33398 0,0.73333 -0.6355,1.33398 -1.41211,1.33398 -0.77662,0 -1.04112,-0.60065 -0.58789,-1.33398 0.45322,-0.73333 1.08872,-1.33398 1.41211,-1.33398 z m 43.63086,7.18554 c 1.76961,0.0885 3.68926,1.28597 3.23633,2.64649 -0.698,2.09662 -4.50241,2.63149 -5.63868,0.79297 -0.5178,-0.83784 -0.37511,-2.0917 0.31836,-2.78516 0.50607,-0.50607 1.27962,-0.69454 2.08399,-0.6543 z m 13.97851,52.81446 c -2.72209,0 -2.2159,4.01349 0.93555,7.41406 3.45496,3.72798 3.45613,3.72743 -0.73633,5.49023 -2.30586,0.96953 -5.17391,1.77251 -6.37304,1.78321 -3.15443,0.0295 -6.61786,2.6702 -4.58985,3.5 0.87548,0.35822 1.33339,1.36313 1.01563,2.23242 -0.31778,0.86928 -0.0161,2.46641 0.67187,3.54883 1.09872,1.72855 2.23387,1.70536 9.32031,-0.19336 7.47606,-2.00305 8.06141,-2.00145 7.97461,0.0312 -0.22904,5.36183 -2.26883,7.28527 -10.36132,9.76953 -4.56123,1.40021 -7.96099,3.08748 -7.55274,3.74804 0.41742,0.67538 3.13505,0.35604 6.20899,-0.72851 7.12772,-2.51481 7.78697,-2.3847 3.98437,0.7832 -1.73126,1.44226 -4.54704,2.6211 -6.25586,2.6211 -1.70881,0 -3.47646,0.60064 -3.92969,1.33398 -0.45639,0.73845 0.54882,1.3515 2.25391,1.375 3.04289,0.0419 3.04777,0.0672 0.41211,2.15039 -1.46667,1.15927 -5.19105,3.25715 -8.27734,4.66211 -6.34311,2.88754 -8.1762,4.96215 -5.72266,6.47852 2.46094,1.52095 0.34621,4 -3.41211,4 -1.79005,0 -3.25391,0.6714 -3.25391,1.49023 0,0.86906 1.38624,1.22352 3.33204,0.85156 4.47553,-0.8556 4.48485,2.65222 0.01,3.77539 -1.82827,0.45887 -2.97801,1.39515 -2.55469,2.08008 0.42331,0.68493 2.00681,0.85317 3.51953,0.37305 2.53541,-0.80472 2.6963,-0.4586 2.03907,4.4414 -0.73501,5.47996 0.45955,9.2176 2.53711,7.9336 0.6501,-0.40179 3.26786,-0.26502 5.8164,0.30469 4.63372,1.03583 4.63361,1.03721 0.88672,2.55859 -2.0608,0.83676 -3.37522,2.12267 -2.91992,2.85937 0.54941,0.88894 1.72308,0.86072 3.48828,-0.084 4.45377,-2.38359 5.7244,-0.69338 2.35156,3.12695 -4.58158,5.18944 -17.23358,8.09422 -31.78906,7.30078 -6.26108,-0.34131 -12.07464,-0.85747 -12.91797,-1.14843 -3.77272,-1.30162 -1.99337,2.38301 2.20117,4.55859 5.4181,2.81023 15.70924,2.42035 29.58399,-1.11914 11.67158,-2.97745 18.05966,-7.37731 19.15039,-13.19141 1.1205,-5.97271 0.1855,-7.26517 -5.96094,-8.24804 -8.14946,-1.30314 -8.30351,-1.58576 -7.31836,-13.39844 0.88821,-10.65053 0.88708,-10.65101 6.63672,-13.70117 7.10451,-3.76895 14.42819,-10.94455 18.85938,-18.48047 5.25518,-8.93724 4.05915,-19.76938 -2.97657,-26.97461 -2.85106,-2.91974 -5.67959,-5.30859 -6.28711,-5.30859 z m -73.81054,7.36718 c 0.39408,-0.11044 0.23507,0.25669 -0.43555,1.0918 C 100.86725,337.5012 96,340.62307 96,339.4707 c 0,-0.34253 1.950652,-1.99082 4.33398,-3.66211 1.53728,-1.078 2.48288,-1.66494 2.87696,-1.77539 z m -10.699221,5.06836 c 0.362817,-0.0962 0.901284,0.51764 1.28125,1.50782 0.901578,2.34948 0.133092,2.76204 -1.181641,0.63476 -0.483377,-0.78212 -0.591691,-1.70713 -0.242187,-2.05664 0.04369,-0.0437 0.09075,-0.0722 0.142578,-0.0859 z m 91.132811,1.04102 c 0.40887,0.0706 0.29299,0.41987 -0.37695,1.05078 -0.69666,0.65606 -3.36693,1.55077 -5.9336,1.98828 l -4.66796,0.79492 4.66796,-1.88672 c 3.48668,-1.40977 5.6291,-2.06493 6.31055,-1.94726 z m -95.17578,0.28515 c 0.218114,0.0135 0.575297,0.69874 1.177734,1.94922 1.084144,2.25035 1.061025,3.44874 -0.08984,4.59961 -1.186441,1.18644 -1.535587,0.46338 -1.466797,-3.04297 0.04767,-2.42998 0.09847,-3.52321 0.378906,-3.50586 z m 96.17383,3.90039 c 0.6265,-0.009 0.6914,0.28212 0.6914,0.76758 0,0.70114 -2.25,1.68135 -5,2.17969 -10.71251,1.94136 -11.47049,1.95126 -5.81445,0.0684 6.47245,-2.15469 9.07888,-3.00082 10.12305,-3.01563 z M 80.177734,348.3457 c -0.342171,0.0113 -0.673715,0.0705 -0.978515,0.1875 -1.755978,0.67383 -1.853854,1.20865 -0.519531,2.81641 1.834827,2.21084 4.776495,2.60979 5.894531,0.80078 0.984274,-1.5926 -2.001287,-3.88347 -4.396485,-3.80469 z m 8.253907,8.93946 c -0.02187,0.0323 -0.04407,0.0638 -0.06836,0.0937 -0.141872,-0.0168 -0.115032,-0.0479 0.06836,-0.0937 z M 108.12109,372 c 1.44641,0 2.99391,0.95025 3.43946,2.11133 0.47465,1.23691 -0.37,3.29187 -2.04102,4.96289 -2.85193,2.85187 -2.85351,2.85107 -2.85351,-0.0332 0,-1.58634 -0.60822,-3.26009 -1.35352,-3.72071 C 103.31909,374.08831 105.08529,372 108.12109,372 Z m -6.28125,2.6543 c 0.47744,0.11875 1.25024,0.97852 2.19727,2.74804 0.8055,1.5051 1.27657,3.67054 1.04687,4.81055 -0.25311,1.25619 -1.27234,0.17828 -2.58789,-2.73633 -1.42453,-3.15607 -1.45197,-5.02018 -0.65625,-4.82226 z m -4.048824,2.75586 c 0.563901,0.0464 1.470058,1.10107 2.468754,3.29296 0.95682,2.09999 1.06335,3.84094 0.2832,4.6211 -0.780159,0.78016 -1.797748,-0.48899 -2.69922,-3.36914 -0.938181,-2.99743 -0.777751,-4.60456 -0.05273,-4.54492 z m -5.845704,1.25586 c 2.508046,0 4.589285,4.32607 4.314454,8.96875 -0.0336,0.56763 -2.447999,1.7265 -5.365235,2.57617 -5.304068,1.54482 -5.305284,1.54521 -5.8125,-3.77344 -0.542624,-5.68996 1.295767,-7.77148 6.863281,-7.77148 z m -11.658203,2.89648 c 0.178658,-0.0425 0.492778,0.16643 0.955079,0.5957 0.92792,0.86162 1.380567,3.675 1.072265,6.66602 -0.301908,2.92898 -0.638245,3.72816 -0.775391,1.8418 -0.133288,-1.83334 -0.615845,-4.83269 -1.072265,-6.66602 -0.39821,-1.59952 -0.477451,-2.36669 -0.179688,-2.4375 z m -4.666015,1.5625 c 2.347965,0.0465 3.129466,2.23537 2.726562,6.875 -0.412782,4.75339 -4.090545,5.86786 -8.68164,2.63086 -4.277336,-3.01578 -3.717655,-5.66405 1.746093,-8.26953 1.750233,-0.83463 3.141728,-1.25749 4.208985,-1.23633 z"
       sodipodi:nodetypes="sssssssssssssssssssssssssssssssssssssssssssssssssssssssssscssssssssssssssssssssssssssssssssssssssscsssccssssssssssssssssssssssssssssssssssscccsscsssssssssscsssssssccssssccccsssssssscssscccscssssssssssssssssssssssssssssssssssssssccccccssccssssssssccssscccsssssssssssssssssssssssscssscsssssssssssssssssssssssssssssssssssssssssssccsccssssssssssssssssssssssssscccsscscssssssscssssssssssssssscccsssssssssssssssssssscssssccsssscsssscsscscsssssssccccssssssssssssssssssssssscsssssssssssssssssssscsssssssssssssssssssssssssscccsscccsssssssssssssssssscsssscsssssssssssssssssssssssssssssssssssssssssssssscccsssssssscssssssscccssssssssssssssssssssssssssssssss" />
  </g>
</svg>
