<?xml version="1.0" encoding="UTF-8" standalone="no"?>
<svg
   xmlns:dc="http://purl.org/dc/elements/1.1/"
   xmlns:cc="http://creativecommons.org/ns#"
   xmlns:rdf="http://www.w3.org/1999/02/22-rdf-syntax-ns#"
   xmlns:svg="http://www.w3.org/2000/svg"
   xmlns="http://www.w3.org/2000/svg"
   xmlns:xlink="http://www.w3.org/1999/xlink"
   xmlns:sodipodi="http://sodipodi.sourceforge.net/DTD/sodipodi-0.dtd"
   xmlns:inkscape="http://www.inkscape.org/namespaces/inkscape"
   inkscape:version="1.0 (4035a4fb49, 2020-05-01)"
   sodipodi:docname="robotchill-color.svg"
   viewBox="0 0 344.85312 490.10669"
   height="490.10669"
   width="344.85312"
   id="svg980"
   version="1.1">
  <metadata
     id="metadata986">
    <rdf:RDF>
      <cc:Work
         rdf:about="">
        <dc:format>image/svg+xml</dc:format>
        <dc:type
           rdf:resource="http://purl.org/dc/dcmitype/StillImage" />
        <dc:title></dc:title>
      </cc:Work>
    </rdf:RDF>
  </metadata>
  <defs
     id="defs984">
    <linearGradient
       id="linearGradient1895"
       inkscape:collect="always">
      <stop
         id="stop1891"
         offset="0"
         style="stop-color:#e2e2e2;stop-opacity:0.50073105" />
      <stop
         id="stop1893"
         offset="1"
         style="stop-color:#464646;stop-opacity:0;" />
    </linearGradient>
    <linearGradient
       id="linearGradient1885"
       inkscape:collect="always">
      <stop
         id="stop1881"
         offset="0"
         style="stop-color:#fc7a02;stop-opacity:1" />
      <stop
         id="stop1883"
         offset="1"
         style="stop-color:#464646;stop-opacity:1" />
    </linearGradient>
    <filter
       id="filter1724"
       inkscape:label="Duochrome"
       style="color-interpolation-filters:sRGB">
      <feColorMatrix
         id="feColorMatrix1704"
         result="colormatrix1"
         type="luminanceToAlpha" />
      <feFlood
         id="feFlood1706"
         result="flood1"
         flood-color="rgb(0,0,0)"
         flood-opacity="1" />
      <feComposite
         id="feComposite1708"
         result="composite1"
         operator="out"
         in2="colormatrix1" />
      <feFlood
         id="feFlood1710"
         result="flood2"
         flood-color="rgb(255,255,255)"
         flood-opacity="1" />
      <feComposite
         id="feComposite1712"
         operator="in"
         result="composite2"
         in2="colormatrix1" />
      <feComposite
         k4="0"
         k1="0"
         id="feComposite1714"
         result="composite3"
         operator="arithmetic"
         k3="1"
         k2="1"
         in2="composite1"
         in="composite2" />
      <feColorMatrix
         id="feColorMatrix1716"
         result="colormatrix2"
         values="2 -1 0 0 0 0 2 -1 0 0 -1 0 2 0 0 0 0 0 1 0 "
         type="matrix"
         in="composite3" />
      <feComposite
         k4="0"
         k3="0"
         k1="0"
         id="feComposite1718"
         result="composite4"
         k2="1.4576"
         operator="arithmetic"
         in2="composite3"
         in="colormatrix2" />
      <feBlend
         id="feBlend1720"
         result="blend"
         mode="normal"
         in2="composite3"
         in="composite4" />
      <feComposite
         id="feComposite1722"
         operator="in"
         in2="SourceGraphic" />
    </filter>
    <linearGradient
       gradientUnits="userSpaceOnUse"
       y2="137.78764"
       x2="280.50043"
       y1="140.07635"
       x1="260.01168"
       id="linearGradient1887"
       xlink:href="#linearGradient1885"
       inkscape:collect="always" />
    <linearGradient
       gradientUnits="userSpaceOnUse"
       y2="31.55514"
       x2="325.69812"
       y1="139.96848"
       x1="284.13043"
       id="linearGradient1897"
       xlink:href="#linearGradient1895"
       inkscape:collect="always" />
  </defs>
  <sodipodi:namedview
     fit-margin-bottom="0"
     fit-margin-right="0"
     fit-margin-left="0"
     fit-margin-top="0"
     inkscape:current-layer="g988"
     inkscape:window-maximized="0"
     inkscape:window-y="34"
     inkscape:window-x="10"
     inkscape:cy="118.39976"
     inkscape:cx="225.29856"
     inkscape:zoom="2.8463535"
     showgrid="false"
     id="namedview982"
     inkscape:window-height="1034"
     inkscape:window-width="1898"
     inkscape:pageshadow="2"
     inkscape:pageopacity="0"
     guidetolerance="10"
     gridtolerance="10"
     objecttolerance="10"
     borderopacity="1"
     bordercolor="#666666"
     pagecolor="#ffffff" />
  <g
     transform="translate(-25.868041,-0.45942414)"
     id="g988"
     inkscape:label="Image"
     inkscape:groupmode="layer">
    <path
       id="path1870"
       d="m 300.55124,226.54255 -0.66615,32.08074 2.61996,21.12686 10.21368,3.076 33.98329,-4.46482 5.26695,-8.80307 -1.99042,-45.12939 z"
       style="fill:#caa11b;fill-opacity:1;stroke-width:1.6;stroke-linecap:round;stroke-opacity:0.0584339" />
    <path
       transform="translate(25.868041,0.45942414)"
       d="M 137.61133 69.566406 L 109.19141 72.490234 L 83.644531 78.638672 L 67.289062 89.712891 L 63.853516 130.5625 L 63.904297 190.26172 L 67.050781 206.76367 L 90.076172 219.57617 L 100.25391 220.44336 L 115.45117 220.66406 L 112.21289 231.98242 L 111.21094 241.8418 L 98.320312 244.5625 L 96.546875 240.48633 L 84.027344 238.52344 L 71.007812 240.73438 C 71.007812 240.73437 63.244207 249.32519 61.572266 250.9043 C 59.900325 252.48342 57.753906 261.09961 57.753906 261.09961 L 58.972656 274.60938 L 37.410156 287.55273 L 30.451172 288.74414 L 20.185547 287.32617 L 11.244141 291.68555 L 5.4667969 296.34375 L 2.21875 302.31055 L 2.3320312 312.88086 L 19.806641 335.94336 L 51.097656 360.98633 L 58.355469 367.81055 L 54.318359 377.12305 L 52.566406 386.14844 L 51.181641 400.3125 L 43.990234 407.34961 L 40.611328 417.48633 L 48.490234 424.45703 L 64.246094 422.42383 L 75.488281 413.73438 L 73.878906 430.11328 L 72.335938 491.16406 L 108.58984 490.72656 L 108.76562 480.58398 L 111.55273 470.77734 L 115.4082 456.49805 L 123.8457 454.94531 L 130.13867 457.70898 L 128.17383 491.23438 L 164.52734 491.89062 L 171.83203 431.26172 L 175.31641 420.52344 L 180.83398 400.60742 L 182.54492 355.79102 L 183.33398 330.66602 L 186.08398 304.16211 L 197.59375 333.83008 L 207.20117 355.4375 L 213.31836 357.63086 L 220.43945 359.59961 L 230.26562 355.06445 L 235.32617 345.43164 L 240.46875 336.45703 L 253.84766 312.97266 L 263.09766 295.12891 L 270.8125 283.96289 L 273.29883 281.13477 L 309.32227 281.74805 L 323.55078 276.91992 L 326.26367 259.94922 L 334.06641 251.25781 L 333.05469 247.17578 L 334.08594 241.51367 L 337.97852 240.3125 L 344.45312 235.18555 L 341.05273 228.99414 L 338.75586 227.9043 L 324.98828 227.2832 L 317.48047 233.27539 L 319.68555 239.01758 L 324.12305 240.8125 L 324.39648 249.15039 L 322.45703 274.13086 L 314.54688 279.15039 L 284.95312 281.32227 L 276.24805 279.33398 L 275.50391 273.73633 L 275.03711 250.08398 L 287.4375 240.91797 L 289.45312 235.72852 L 289.27539 235.68555 L 287.43359 231.41406 L 274.65234 232.16406 L 258.46484 237.15234 L 255.03516 243.51172 L 250.16211 267.81836 L 248.38672 277.43555 L 241.58594 295.05078 L 234.49023 306.875 L 226.70312 322.44922 L 220.87305 321.79297 L 212.9668 327.41992 L 198.79883 287.14453 L 189.74609 266.60156 L 193.75586 262.67383 L 199.01758 244.98633 L 190.72266 233.75586 L 179.48242 230.15625 L 168.76367 234.98242 L 167.95508 238.99805 L 152.47461 238.98438 L 150.9707 218.44922 L 182.07617 211.45703 L 186.51562 178.76367 L 190.35547 148.20508 L 189.63867 78.466797 L 186.77148 73.699219 L 179.83984 71.560547 L 137.61133 69.566406 z M 64.470703 284.61523 L 67.507812 284.99023 L 73.048828 289.52539 L 73.369141 309.58594 L 72.255859 335.80469 L 56.308594 324.58008 L 38.474609 316.33984 L 41.017578 299.94922 L 64.470703 284.61523 z "
       style="fill:#ffffff;fill-opacity:1;stroke-width:1.6;stroke-linecap:round;stroke-opacity:0.0584339"
       id="path1872" />
    <path
       id="path1877"
       d="m 140.15159,333.48906 2.1595,-34.54164 0.13059,-10.17945 2.83843,-3.08629 12.55516,-1.12583 19.75493,-2.29218 6.25858,0.81124 3.01031,0.8269 2.62796,3.41727 -1.58187,38.90901 -1.93861,2.92687 -10.9354,1.12373 -18.1489,1.12266 c 0,0 -5.32213,1.69731 -5.31051,1.82867 0.0116,0.13137 -4.62558,0.82314 -4.62558,0.82314 l -5.97925,1.25365 z"
       style="fill:#fcfba0;fill-opacity:1;stroke-width:1.6;stroke-linecap:round;stroke-opacity:0.0584339" />
    <path
       id="path1868"
       d="m 175.00213,158.84324 35.52586,-12.2932 47.3855,-14.67531 4.26476,-0.0719 -1.29777,3.27552 -0.49155,9.1558 c 0,0 2.88693,7.46976 2.88693,8.03215 0,0.56239 -4.52146,2.37565 -4.52146,2.37565 l -21.39145,6.47477 -39.37043,2.57036 -10.79093,2.0901 -10.55879,1.93705 z"
       style="fill:#c4a16c;stroke-width:1.6;stroke-linecap:round;stroke-opacity:0.0584339;fill-opacity:1" />
    <path
       id="path1889"
       d="m 262.54082,129.20055 c 0,0 -4.6051,-5.11216 1.8443,-10.39011 6.4494,-5.27795 21.43422,-13.53957 21.43422,-13.53957 l 5.79706,-7.284821 -2.98828,-12.364544 0.31024,-4.279752 -0.32954,-11.550073 2.92039,-8.584368 4.39815,-7.810819 6.07206,-10.176291 c 0,0 0.99661,-4.83261 0.97138,-5.057979 -0.0252,-0.225369 -1.89272,-4.943733 -1.89272,-4.943733 l -4.85302,-12.251047 -6.00956,-9.35518 -2.38191,-0.365846 h 60.293 l -3.74933,6.646156 -1.64499,6.594145 2.15048,2.495793 6.61889,3.488071 1.6403,3.978553 -1.78645,3.844474 -15.44104,5.795495 -2.41697,2.861591 0.30097,2.615261 2.02864,6.415662 3.15162,5.882926 1.4366,6.667004 -1.51374,3.757916 -1.97911,3.417247 -14.15119,9.76304 -7.59098,2.92747 -6.51676,8.436452 -3.9801,9.931487 0.11032,3.04123 1.89581,2.02475 9.68097,2.38683 5.23401,1.71195 5.71921,3.85834 3.37066,11.9941 -4.5641,11.71153 -8.22279,10.58799 -10.1802,8.23246 -10.29922,4.24858 -7.91287,0.45531 -5.13129,-1.89946 c 0,0 -14.93551,-0.34659 -19.46114,-11.62778 -4.52563,-11.28119 -3.19478,-15.62374 -3.19478,-15.62374 z"
       style="fill:url(#linearGradient1897);fill-opacity:1;stroke-width:1.6;stroke-linecap:round;stroke-opacity:0.0584339" />
    <path
       id="path1879"
       d="m 263.18881,152.60049 -3.17713,-7.37008 1.26977,-13.73359 21.20803,-3.94462 5.58658,0.74008 3.70541,11.52424 -1.19153,8.52488 -19.22264,3.45981 z"
       style="fill:url(#linearGradient1887);fill-opacity:1;stroke-width:1.6;stroke-linecap:round;stroke-opacity:0.0584339" />
    <path
       id="path1919"
       d="m 170.25702,28.044947 4.71895,-2.434513 0.69137,-2.299866 -0.99849,-3.342241 -3.01968,-2.09471 -4.7132,3.038706 -0.67685,6.300716 z"
       style="fill:#ffffff;fill-opacity:1;stroke-width:1.6;stroke-linecap:round;stroke-opacity:0.0584339" />
    <path
       sodipodi:nodetypes="ssssssssscsssssssssssssssssssscsssssssssssssssssscscccsssssssssscssssssssssssssssssssssssssssssssssssssssssssssssssssssssssssssscsssssssssssssscssscsssssssssssssssssssssssssssssssssssssssssssssssssssssssssscsssssscsssssssssssssssssssssssssssscssssssssssssssssssssssssssssscsssssssssssssssssssssssssssssssssssssssssssssssssssssssssssssssssssssssssssssssssssssssssssssssssssssccsccssssccsssssssssssscsssssssssssssss"
       id="path1790"
       d="m 97.215152,478.23277 c 0.334951,-6.78333 0.919869,-22.50432 1.299817,-34.93553 0.379948,-12.43121 1.289823,-23.20121 2.021941,-23.93333 0.88595,-0.88596 1.35396,-0.23864 1.3994,1.93553 0.15077,7.21389 36.5889,33.82292 45.72129,33.38807 2.8176,-0.13416 5.91349,0.41221 6.87977,1.21414 1.78275,1.47955 13.00547,-5.25958 29.33067,-17.61277 6.76523,-5.11921 8.66667,-5.9762 8.66667,-3.90611 0,1.34424 -14.40246,12.1076 -26.25222,19.61902 -9.19328,5.82752 -9.7037,6.84514 -9.72958,19.39765 -0.0107,4.85833 -0.3932,10.70833 -0.85154,13 -1.6864,8.43201 -2.48772,3.75223 -2.02622,-11.83329 0.51224,-17.29951 0.84368,-16.55648 -7.14044,-16.00764 -4.839,0.33262 -5.57227,1.38372 -6.70354,9.60901 -0.4838,3.51759 -1.42341,6.73169 -2.08804,7.14245 -0.66464,0.41076 -1.2506,2.96144 -1.30214,5.66816 -0.16524,8.67787 -2.3733,11.22026 -2.47923,2.85464 -0.0516,-4.07 0.44221,-7.97 1.09724,-8.66666 1.07235,-1.14052 4.14237,-13.50412 4.14237,-16.68219 0,-0.70635 -3.45,-3.47252 -7.66666,-6.14704 -4.21667,-2.67452 -12.36503,-9.07423 -18.10747,-14.22157 -13.00668,-11.6588 -12.84251,-11.86843 -12.88371,16.4508 -0.0341,23.46045 -1.018306,36 -2.82549,36 -0.611539,0 -0.837839,-5.55 -0.502888,-12.33334 z m 93.240158,2 c 1.82845,-20.97992 6.26042,-52.9545 7.44114,-53.68422 9.04136,-5.58787 15.26391,-144.94043 7.50096,-167.98244 -6.24997,-18.55119 -7.67424,-19.80807 -20.30052,-17.91464 -4.99846,0.74957 -6.11534,0.56932 -5.6292,-0.90847 0.34244,-1.04093 2.88356,-2.03154 5.83675,-2.27534 2.87664,-0.2375 6.13027,-1.16332 7.23027,-2.05742 10.01882,-8.14338 24.09462,-5.8771 31.53875,5.07792 3.70058,5.4459 -0.14418,18.50776 -9.02888,30.67395 -3.9895,5.46299 -6.05803,30.07067 -2.52777,30.07067 2.28572,0 15.19849,35.39277 13.766,37.73141 -0.90757,1.48168 -4.41477,-1.64575 -4.41477,-3.93673 0,-2.39043 -4.42498,-15.49986 -7.58163,-22.46135 -2.41403,-5.32375 -2.41988,-5.25663 -3.25835,37.33333 -0.6439,32.70698 -1.34609,44.68974 -3.0081,51.33334 -1.19247,4.76666 -2.85189,11.96666 -3.68761,16 -0.83571,4.03333 -2.39904,8.35458 -3.47407,9.60278 -1.87596,2.17817 -5.39153,26.39296 -7.65555,52.73055 -0.52006,6.05 -1.55361,11 -2.29678,11 -0.87396,0 -1.03312,-3.64976 -0.45064,-10.33334 z m 29.56195,-224.54401 c 5.45804,-15.52334 -5.63525,-26.87057 -20.14922,-20.61044 -3.7686,1.62547 -3.83487,1.77879 -1.14539,2.65024 3.85855,1.25026 9.56904,14.821 11.79745,28.03616 1.23279,7.31075 4.66384,3.67059 9.49716,-10.07596 z m -76.55595,210.21068 c 0.0272,-2.2 0.326,-2.93859 0.66405,-1.64129 0.33805,1.29729 0.31583,3.09729 -0.0493,4 -0.36524,0.9027 -0.64183,-0.15871 -0.61466,-2.35871 z M 67.918583,423.76496 c -4.94199,-4.33912 -3.299217,-10.41057 6.023713,-22.26276 1.942815,-2.46989 2.592411,-5.39462 2.592411,-11.67202 0,-5.45895 0.944055,-10.57871 2.710552,-14.69978 3.072433,-7.1677 1.271701,-9.42941 -21.980892,-27.60786 -9.674709,-7.56351 -16.790791,-16.0064 -15.000186,-17.79702 0.393233,-0.39322 4.36497,2.93503 8.826082,7.39615 9.801564,9.80156 9.198871,9.75919 15.802794,1.11111 2.939971,-3.85 6.605957,-8.31836 8.146633,-9.9297 3.157374,-3.30217 3.134186,-3.32921 -6.856844,-7.99713 -6.351861,-2.96767 -6.351861,-2.96767 -10.916645,0.13013 -14.097616,9.56686 -31.39816,2.99031 -31.39816,-11.93558 0,-13.96547 16.178391,-26.26866 28.624489,-21.7681 4.803919,1.73712 14.822661,-2.34521 25.501365,-10.39102 2.26922,-1.70974 4.554403,-3.1086 5.078184,-3.1086 0.523781,0 3.316915,-1.90023 6.206962,-4.22274 2.89005,-2.3225 5.695902,-3.78148 6.23523,-3.24214 1.414417,1.41441 -7.971899,8.3015 -31.285293,22.95521 -2.8694,1.80356 -2.898073,2.02416 -0.827503,6.36619 2.145059,4.49824 22.183017,-6.8467 37.690795,-21.33947 0.30666,-0.28659 -0.24424,-2.01927 -1.22423,-3.85039 -2.173247,-4.06074 -1.1084,-5.58458 1.84127,-2.63492 5.60665,5.60666 2.71653,8.66568 -29.573172,31.30159 -4.195488,2.94115 -6.885059,5.89919 -7.273933,8 -0.33936,1.83333 -1.059239,4.36553 -1.59973,5.62711 -1.150646,2.68576 12.374099,9.79118 17.605565,9.24934 1.891866,-0.19594 3,0.4135 3,1.6499 0,1.07834 1.190488,2.33846 2.64553,2.80028 9.299978,2.95169 24.59098,25.52957 23.48275,34.67337 -1.4358,11.84645 -11.22671,48.66667 -12.941013,48.66667 -1.705884,0 -1.44296,-2.15996 1.541863,-12.66667 11.30592,-39.79733 10.51309,-45.71244 -8.407058,-62.72328 -9.69136,-8.71336 -12.387693,-9.00321 -18.435057,-1.98169 -10.66419,12.38204 -11.397216,15.32904 -4.922576,19.79034 14.498492,9.99007 18.280295,15.98971 14.222924,22.56391 -2.576499,4.17473 -3.104177,6.88255 -3.141957,16.12311 -0.03543,8.66513 -0.520543,11.45353 -2.207487,12.68842 -7.368669,5.39412 -10.747293,15.03292 -6.588603,18.79648 4.15144,3.75701 10.389607,-3.68935 18.335238,-21.88632 4.904467,-11.23216 5.977489,-9.67738 1.549845,2.24568 -7.966169,21.45183 -15.359536,28.36424 -23.083856,21.5822 z M 57.617523,316.31742 c 15.170104,-11.49634 2.936232,-32.03704 -15.001015,-25.18675 -10.88605,4.15743 -16.152327,13.46255 -12.250247,21.64529 4.231512,8.87358 17.875484,10.64668 27.251262,3.54146 z m 23.583851,107.58202 c -0.453226,-0.73333 0.450809,-1.33333 2.008965,-1.33333 1.558157,0 4.044955,-0.64862 5.526219,-1.44136 3.471651,-1.85798 4.715435,-0.61879 2.052117,2.04453 -2.314803,2.3148 -8.325043,2.77253 -9.587301,0.73016 z m 19.563346,-9.3567 c 0.701,-2.103 1.15893,-2.1654 28.43665,-3.87555 32.3329,-2.02707 67.33334,-1.86145 67.33334,0.3186 0,1.38591 -4.25819,1.68561 -20.33334,1.43116 -19.4827,-0.30839 -51.58717,1.1028 -68.17946,2.99692 -6.21039,0.70896 -7.72335,0.52735 -7.25719,-0.87113 z M 235.56061,359.617 c -10.09743,-4.87297 -8.12307,-33.05089 2.31579,-33.05089 0.72873,0 1.32497,-0.88857 1.32497,-1.9746 0,-1.08603 1.65,-2.33613 3.66667,-2.77803 2.01666,-0.44189 4.3915,-1.02484 5.27742,-1.29544 3.18628,-0.97324 14.25887,7.84556 15.54566,12.3814 1.15606,4.075 3.51025,6.02854 3.51025,2.91283 0,-0.78128 3.03395,-6.91996 6.74209,-13.64152 3.97931,-7.21307 6.13322,-12.42399 5.25623,-12.71631 -0.81723,-0.27241 -4.11959,-2.50565 -7.33857,-4.96276 -6.41204,-4.89442 -7.73675,-4.0115 -12.61462,8.40776 -0.93609,2.38334 -2.53673,4.33334 -3.55698,4.33334 -1.31034,0 -0.44988,-2.79022 2.93046,-9.50268 3.39291,-6.73742 4.54207,-10.47247 3.94903,-12.83531 -0.64983,-2.58915 -0.39759,-3.16423 1.13067,-2.57779 4.30285,1.65116 9.53985,-12.54681 14.34769,-38.89784 3.28944,-18.02898 2.79643,-17.32562 14.154,-20.19225 5.66667,-1.43025 5.66667,-1.43025 5.66667,-9.96684 0,-4.69512 0.49757,-8.84411 1.10573,-9.21996 5.98091,-3.6964 51.59487,-5.4322 55.59128,-2.11548 1.929,1.60092 0.62743,10.86667 -1.63227,11.61989 -1.12196,0.37399 -1.36872,-0.84694 -0.8354,-4.13342 0.9609,-5.92128 -2.95166,-6.92983 -22.02273,-5.67688 -23.73952,1.55965 -26.14469,2.19453 -26.61397,7.02508 -0.4246,4.37069 8.67421,7.14854 14.40736,4.39853 3.14609,-1.50908 30.75114,-2.17848 30.26965,-0.73401 -1.16901,3.50704 -11.11741,5.04465 -27.88601,4.31004 -9.32234,-0.40842 -17.27247,-0.2203 -17.66698,0.41801 -0.39449,0.63832 1.59638,0.85024 4.42416,0.47096 13.72451,-1.84084 14.74355,10.20011 1.43774,16.98823 -5.24523,2.67592 -5.24523,2.67592 -5.24523,17.29008 0,17.46002 -0.93355,16.77014 21.14839,15.62853 23.72785,-1.22671 24.46021,-1.98956 23.6921,-24.67873 -0.27716,-8.18707 -0.003,-9.653 1.74864,-9.31994 3.35575,0.63839 3.6042,27.32886 0.3041,32.66852 -2.76267,4.47011 -37.65362,8.32418 -48.44642,5.35143 -4.11336,-1.13297 -5.90444,1.63149 -23.78014,36.70376 -5.5,10.79104 -10.75,19.62563 -11.66667,19.6324 -0.91667,0.007 -1.67253,0.76233 -1.67969,1.679 -0.1044,13.36085 -16.93824,23.85307 -28.96107,18.05089 z m 19.99536,-6.15417 c 11.30448,-10.53339 0.32163,-38.13477 -11.27699,-28.34061 -0.95936,0.8101 -3.40626,2.71936 -5.43758,4.2428 -10.90991,8.18214 -9.5746,24.57488 2.25144,27.6393 5.8103,1.50562 10.20016,0.4307 14.46313,-3.54149 z m 28.94011,-51.89672 c 5.51834,-10.62256 11.14002,-19.60956 12.96914,-20.73292 4.07335,-2.50165 2.23942,-30.67899 -1.93052,-29.66129 -2.01666,0.49217 -5.01666,1.22226 -6.66666,1.62241 -5.86788,1.42307 -2.89039,-1.67761 3.33333,-3.47123 20.45135,-5.89388 29.32837,-15.7344 13.66667,-15.15 -19.81144,0.73924 -27.47502,9.93071 -28.12,33.72636 -0.16379,6.04263 -2.0352,12.1336 -6.71078,21.84187 -4.25681,8.83873 -4.24837,8.87675 3.16395,14.2462 6.84021,4.95503 6.41033,5.05613 10.29487,-2.4214 z m -137.29471,53 c -1.5373,-2.87249 -0.36785,-6.26163 3.17531,-9.20219 2.86528,-2.37797 7.49136,0.39298 7.49136,4.4872 0,6.50392 -7.85179,9.97466 -10.66667,4.71499 z m 25,-0.1068 c -3.1046,-1.80827 -2.95541,-5.93779 0.33334,-9.22653 3.21029,-3.2103 5.76242,-3.38044 8.57142,-0.57143 5.86887,5.86887 -1.57961,14.06447 -8.90476,9.79796 z m -32.18062,-32.19943 c 2.37556,-41.0319 1.139,-37.58808 13.84729,-38.565 40.24061,-3.09342 39.23612,-4.00408 35.52312,32.20456 -1.71999,16.77299 -0.42431,15.33334 -13.79995,15.33334 -11.88557,0 -29.77428,2.52166 -34.08182,4.80432 -2.21327,1.17285 -2.30502,0.32368 -1.48864,-13.77722 z m 14.8382,7.9729 c 0.72457,-0.91667 1.24804,-4.66667 1.16325,-8.33334 -0.16579,-7.16952 -0.47035,-7.36406 -8.44475,-5.39425 -2.8382,0.70108 -3.34698,0.54736 -2.16628,-0.65453 0.84872,-0.86395 3.54872,-1.9777 6,-2.475 8.45439,-1.71519 7.38428,-11.4491 -1.11948,-10.1831 -8.20628,1.22172 -7.5827,0.0477 -8.20094,15.44022 -0.52147,12.98302 6.5772,19.43222 12.7682,11.6 z m 20.50246,-1.35088 c 12.376,0 11.44408,1.86605 12.68947,-25.40875 0.90224,-19.75963 0.90224,-19.75963 -4.28853,-19.33333 -7.10056,0.58313 -8.01359,13.07798 -1.06699,14.60188 3.83935,0.84224 3.83935,0.84224 -0.49399,1 -5.349,0.19472 -7.0664,12.15774 -1.74536,12.15774 1.42339,0 2.9588,0.6 3.41203,1.33334 0.48077,0.77789 -0.87504,1.33333 -3.25464,1.33333 -3.94512,0 -4.07869,0.19649 -4.07869,6 0,3.58975 -0.60842,6 -1.51456,6 -1.02799,0 -1.25036,-1.9276 -0.69218,-6 0.82239,-6 0.82239,-6 -7.81877,-6 -8.64116,0 -8.64116,0 -8.64116,7.11111 0,8.05584 0.68176,9.2754 4.50655,8.06145 1.4847,-0.47123 7.32877,-0.85677 12.98682,-0.85677 z m 0.33291,-19.98246 c 2.07432,-7.74026 1.49579,-8.37001 -7.23673,-7.87756 -8.28492,0.46722 -10.58955,2.41815 -10.58955,8.96436 0,3.64495 16.83325,2.61868 17.82628,-1.0868 z m -17.15961,-9.16301 c 16.1856,-0.20032 18,-1.07068 18,-8.63457 0,-7.20242 0,-7.20242 -5,-7.18422 -9.22227,0.0336 -10.79386,1.03006 -11.7573,7.45475 -1.12409,7.49597 -3.15998,7.6354 -2.82848,0.19372 0.22803,-5.11876 -8.1591,-8.11053 -12.16274,-4.33857 -4.64144,4.37286 -1.16012,14.82498 4.58117,13.75425 3.57537,-0.66679 7.70068,-1.2272 9.16735,-1.24536 z m -60.638614,28.82968 c -0.768855,-4.18583 0.371012,-33.60115 1.368017,-35.30295 1.462707,-2.49672 1.468807,-2.42944 1.266807,13.96962 -0.14044,11.40182 -1.876775,25.46033 -2.634824,21.33333 z M 231.33824,314.23278 c -0.62175,-1.65 -1.55514,-5.1 -2.07419,-7.66667 -1.21736,-6.01981 -5.34452,-17.3652 -8.73369,-24.00853 -2.79659,-5.48175 -3.43096,-9.3248 -1.53924,-9.3248 2.82274,0 16.21025,35.2167 16.21025,42.64216 0,2.533 -2.72659,1.37397 -3.86313,-1.64216 z M 95.201373,289.82075 c 0,-1.93515 0.577123,-3.05533 1.333334,-2.58797 0.733333,0.45322 1.333333,1.98864 1.333333,3.41202 0,1.42339 -0.6,2.58798 -1.333333,2.58798 -0.733334,0 -1.333334,-1.53542 -1.333334,-3.41203 z m 12.048317,2.41203 c 0.0266,-0.55 2.54834,-2.2 5.60393,-3.66667 13.63971,-6.547 20.98325,-35.67505 10.01442,-39.72208 -1.28333,-0.47349 -2.33333,-1.76432 -2.33333,-2.86851 0,-6.23485 -13.09037,-7.59022 -21.541882,-2.23042 -10.653082,6.75598 -13.124788,10.36062 -13.124788,19.14072 0,7.74562 -1.673724,10.22489 -3.159618,4.68029 -5.056438,-18.86803 22.075908,-37.65081 39.115958,-27.07863 7.20414,4.46968 14.71033,2.3793 14.71033,-4.09665 0,-2.51737 0.86938,-6.65776 1.93196,-9.20088 1.93197,-4.62384 1.93197,-4.62384 -7.33333,-4.62384 -15.46759,0 -12.17225,-3.25379 3.73586,-3.68875 14.09259,-0.38533 48.13657,-3.53832 60.99884,-5.64942 4.4,-0.72218 8.15,-1.31652 8.33333,-1.32078 7.66308,-0.17753 -3.15417,3.90227 -15.27686,5.76179 -10.195,1.56383 -10.195,1.56383 -9.8706,10.46956 0.27141,7.45088 -0.0712,9.11499 -2.0974,10.18661 -3.2492,1.71847 -26.16199,5.57432 -33.12446,5.57432 -12.97837,0 -13.99624,1.23652 -13.62641,16.55346 0.32907,13.62889 0.32907,13.62889 -5.56342,21.28692 -6.72484,8.73977 -17.62557,15.31621 -17.39253,10.49296 z m 61.13367,-54.86166 c 3.95009,-0.80942 7.48367,-1.47168 7.85239,-1.47168 1.19308,0 -0.91931,-13.7516 -2.32892,-15.16121 -1.30816,-1.30816 -29.98423,0.6622 -31.48542,2.1634 -1.83428,1.83427 -3.70765,15.87241 -2.23926,16.77992 1.82177,1.12592 17.83284,-0.18581 28.20121,-2.31043 z m 153.76582,40.24564 c -1.14136,-0.42564 0.42148,-3.17358 4.65175,-8.17916 8.54032,-10.10554 9.31333,-10.87149 10.97187,-10.87149 2.45257,0 1.56766,1.81451 -3.59451,7.3706 -2.74441,2.95384 -6.18693,6.93445 -7.65004,8.84583 -1.46312,1.91137 -3.43369,3.18677 -4.37907,2.83422 z m 6.38552,-0.59146 c 0,-2.84627 11.13412,-15.99906 14.69603,-17.36047 1.44748,-0.55325 2.00983,0.29244 2.11825,3.18556 0.0827,2.20705 -0.28694,3.23563 -0.8408,2.33947 -1.0155,-1.64311 -7.47316,4.12188 -11.62298,10.37625 -2.13878,3.22343 -4.3505,3.96527 -4.3505,1.45919 z m -5.34402,-20.47208 c -0.90704,-1.09291 -2.44028,-1.98711 -3.40722,-1.98711 -2.74474,0 -3.39284,-2.11411 -1.87329,-6.11083 1.05415,-2.7726 0.97511,-3.93404 -0.3238,-4.75813 -0.99159,-0.62912 -1.10416,-1.09884 -0.26617,-1.11063 0.79868,-0.0107 2.59868,-2.41353 4,-5.33845 2.43834,-5.08949 4.54784,-6.92125 4.54784,-3.94908 0,0.76975 -0.88734,3.11547 -1.97187,5.21271 -1.93287,3.73774 -1.88896,3.84206 2.22017,5.27452 6.61128,2.30469 11.96883,-3.48411 6.75379,-7.29744 -3.62365,-2.64968 -0.99765,-3.75139 2.88223,-1.20919 6.6222,4.33903 -0.92143,13.7464 -8.81616,10.99429 -6.4116,-2.2351 -9.10506,3.72804 -3.12862,6.92655 3.40304,1.82124 10.06046,-0.82465 10.06046,-3.99839 0,-0.71642 0.6,-1.3026 1.33333,-1.3026 2.09959,0 1.55939,3.44555 -1,6.37826 -3.16817,3.63028 -8.90276,4.81542 -11.01069,2.27552 z m 32.01069,-0.57508 c 0,-0.69006 0.6,-1.62547 1.33333,-2.0787 4.41196,-2.72673 0.51312,-11.51638 -4.92454,-11.10205 -11.15882,0.85028 -14.64207,-9.10733 -5.07546,-14.50923 15.0961,-8.52417 33.54087,4.34528 18.742,13.07684 -2.66381,1.57168 -4.30826,3.44662 -3.91708,4.46606 0.87448,2.27886 -2.93164,11.40172 -4.75688,11.40172 -0.77076,0 -1.40137,-0.56459 -1.40137,-1.25464 z m 10.61351,-18.01464 c 4.90157,-5.90604 -3.19946,-11.18332 -12.94284,-8.4314 -6.96624,1.96754 -9.02562,5.59154 -4.89415,8.61254 3.30587,2.41732 15.78564,2.29058 17.83699,-0.18114 z M 101.69741,215.56611 c -13.611911,-6.90999 -12.698671,-3.60788 -13.920344,-50.33333 -0.837275,-32.02327 1.168632,-67.237037 4.294017,-75.381662 3.11834,-8.126261 32.435357,-18.61721 56.093147,-20.072652 8.22957,-0.506288 14.68364,-1.372321 14.34236,-1.924517 -1.08648,-1.75796 2.19061,-29.898693 3.64357,-31.287835 0.96804,-0.92551 1.12353,1.317519 0.50836,7.333333 -2.82215,27.598055 -4.97385,24.719906 18.71049,25.027329 24.65392,0.320006 28.49088,1.088568 30.97488,6.204426 2.04283,4.207223 2.94747,56.446418 1.06967,61.768248 -2.6847,7.60858 -3.44028,1.51833 -2.72946,-22 1.3466,-44.553264 2.77474,-42.82698 -35.48273,-42.890348 -41.87913,-0.06937 -56.89272,2.467147 -75.50768,12.75687 -11.130933,6.152798 -11.838219,10.460097 -11.790053,71.800138 0.04173,53.13891 -0.876956,49.57691 14.634833,56.74339 6.09948,2.81796 11.47929,5.7535 11.95512,6.52342 1.95635,3.16543 -6.27424,1.07458 -16.79618,-4.26681 z m 106.06311,-8.66797 c 0.42376,-2.01595 1.35712,-10.52118 2.07414,-18.90052 1.7,-19.86655 4.73014,-23.87643 3.54751,-4.69454 -1.19568,19.39358 -2.25083,25.67127 -4.4571,26.5179 -1.5018,0.57629 -1.76252,-0.078 -1.16455,-2.92284 z m -97.088,-18.33203 c -1.61264,-23.87649 2.28268,-101.531597 5.24142,-104.490345 1.08688,-1.086875 0.55349,13.461856 -0.87342,23.823685 -0.7574,5.5 -1.78663,29.8 -2.28719,54 -0.86783,41.95681 -0.96446,43.1951 -2.08081,26.66666 z m 36.51261,-18.0007 c -16.97526,-2.6735 -19.03006,-5.94226 -4.58624,-7.29575 15.26043,-1.43003 32.95671,-6.11976 65.26915,-17.29713 49.24696,-17.03529 76.37208,-22.97373 81.50261,-17.84319 5.80768,5.80767 4.74443,22.43677 -1.43457,22.43677 -2.62326,0 -2.65478,-1.8532 -0.068,-4 2.61358,-2.16909 2.56926,-10.5939 -0.0756,-14.36999 -2.43216,-3.47238 -8.73866,-3.99864 -11.2763,-0.94098 -3.9581,4.76919 -0.97114,17.97764 4.06543,17.97764 17.35288,0 -39.36312,13.78751 -68.71357,16.70408 -11.73333,1.16596 -25.53333,2.61744 -30.66667,3.22553 -18.57296,2.20014 -26.80032,2.53947 -34.01624,1.40302 z m 65.16253,-8.61627 c 36.95036,-3.75001 50.9944,-7.47076 48.16359,-12.76017 -1.02769,-1.92027 -1.287,-5.38511 -0.72187,-9.64536 0.76971,-5.80234 0.60538,-6.54243 -1.29116,-5.81466 -1.19522,0.45864 -6.77597,2.01864 -12.40166,3.46664 -19.05891,4.9056 -62.08201,19.599 -63.37117,21.64275 -2.38774,3.78535 0.0393,6.77396 4.82468,5.94092 2.37488,-0.41343 13.5338,-1.68699 24.79759,-2.83012 z m 60.29164,-11.43901 c 2.13743,-1.14391 2.33635,-1.87442 1.12615,-4.1357 -0.8084,-1.5105 -1.26603,-5.71632 -1.01695,-9.34624 0.41516,-6.0503 0.23082,-6.54014 -2.2138,-5.88251 -1.46666,0.39454 -3.35797,0.72555 -4.20289,0.73556 -0.84493,0.01 -2.19493,1.90774 -3,4.21717 -4.00269,11.4821 0.82219,18.95293 9.30749,14.41172 z m 12.8954,16.54814 c -1.28333,-0.37822 -2.33333,-1.28413 -2.33333,-2.0131 0,-0.78811 1.21619,-0.91156 3,-0.30455 19.76051,6.72433 45.85339,-18.32627 41.76859,-40.10015 -1.08544,-5.78591 -4.5403,-8.26103 -14.04776,-10.06409 -10.61435,-2.01296 -13.29059,-5.52131 -8.71306,-11.42209 1.90994,-2.46205 1.95418,-2.42574 0.9079,0.74516 -1.91827,5.8136 -0.61472,7.6437 6.15498,8.64114 9.62608,1.41831 14.98026,4.48836 17.23375,9.88173 8.60193,20.58733 -21.58727,51.23302 -43.97107,44.63595 z M 146.86804,126.45931 c -4.19616,-2.44404 -0.36859,-9.22653 5.20683,-9.22653 2.8607,0 3.54513,5.32745 1.04004,8.09555 -2.65056,2.92882 -3.03932,2.99921 -6.24687,1.13098 z m 5.66667,-4.70252 c 0,-2.13187 -3.4346,-2.51753 -4.66667,-0.52401 -0.45323,0.73333 -0.46943,1.90713 -0.036,2.60843 1.09677,1.77459 4.70267,0.1763 4.70267,-2.08442 z m 33.95316,2.06688 c -0.47898,-0.77502 -0.50296,-2.87502 -0.0533,-4.66667 1.00863,-4.0187 9.57874,-4.83436 11.03098,-1.04988 1.62061,4.22324 -8.60851,9.54997 -10.9777,5.71655 z m 8.2534,-3.31506 c 0.43425,-1.13163 0.41796,-2.42909 -0.0363,-2.88326 -1.29189,-1.29189 -7.75348,2.12455 -6.83351,3.6131 1.27535,2.06357 5.99,1.56268 6.86972,-0.72984 z m 87.12677,-12.04598 c 0,-0.76869 1.84528,-3.15986 4.10061,-5.31373 3.52675,-3.368067 3.98747,-4.569211 3.29207,-8.582787 -3.58031,-20.664025 -1.7067,-31.964028 7.2447,-43.693714 7.2517,-9.502447 6.75434,-15.224597 -2.7702,-31.871745 7.08639,7.036689 11.58625,12.395039 10.11398,19.453958 0.82006,4.853916 0.4389,5.963659 -3.84324,11.189455 -9.92194,12.108403 -13.18999,27.769102 -8.91026,42.698436 1.847,6.443056 1.847,6.443056 -3.69033,11.980397 -3.04553,3.04553 -5.53733,4.90841 -5.53733,4.13973 z m 26.86645,-12.563184 c 0.76693,-2.2 1.86573,-4 2.4418,-4 0.57607,0 1.32653,-1.05 1.66771,-2.333333 0.34873,-1.311784 3.4244,-3.359872 7.02517,-4.678063 17.82144,-6.524165 23.07112,-14.804004 16.85168,-26.578623 -6.43668,-12.185887 -5.72504,-14.242171 6.14927,-17.768464 10.99926,-3.26643 12.60837,-8.151968 3.88537,-11.796671 -6.38895,-2.669474 -6.68049,-3.769901 -2.93224,-11.06782 1.82024,-3.54403 3.30369,-5.543691 3.29657,-4.443692 -0.007,1.1 -0.87042,3.5 -1.91845,5.333334 -2.87468,5.028725 -2.42483,6.625232 2.43948,8.657669 11.54343,4.823153 7.5976,13.524816 -7.27212,16.037037 -7.697,1.3004 -7.56892,9.108139 0.31379,19.12938 5.05518,6.426633 -4.09583,17.916928 -19.28223,24.211335 -5.54891,2.299895 -7.93076,4.21398 -10.14392,8.151774 -3.46621,6.167301 -4.424,6.602591 -2.52188,1.146137 z M 164.53471,27.34183 c 0,-4.212612 1.28189,-7.442383 2.95386,-7.442383 0.7495,0 0.97722,1.426391 0.51912,3.25162 -0.98078,3.907761 0.17726,4.819425 4.19368,3.301461 3.71842,-1.405332 3.92502,-5.227505 0.33334,-6.166749 -3.66192,-0.957612 -3.37959,-3.339719 0.33333,-2.8124 4.00289,0.568501 5.09472,8.750961 1.51677,11.367215 -4.21146,3.079501 -9.8501,2.221542 -9.8501,-1.498764 z"
       style="fill:#000000;stroke-width:1.33333" />
  </g>
</svg>
