<?xml version="1.0" encoding="UTF-8" standalone="no"?>
<svg
   xmlns:dc="http://purl.org/dc/elements/1.1/"
   xmlns:cc="http://creativecommons.org/ns#"
   xmlns:rdf="http://www.w3.org/1999/02/22-rdf-syntax-ns#"
   xmlns:svg="http://www.w3.org/2000/svg"
   xmlns="http://www.w3.org/2000/svg"
   xmlns:sodipodi="http://sodipodi.sourceforge.net/DTD/sodipodi-0.dtd"
   xmlns:inkscape="http://www.inkscape.org/namespaces/inkscape"
   version="1.1"
   id="svg4806"
   width="317.29916"
   height="383.99615"
   viewBox="0 0 317.29917 383.99615"
   sodipodi:docname="sunsoutgunsoutheathcliff-flex2.svg"
   inkscape:version="1.0 (4035a4fb49, 2020-05-01)">
  <style
     id="style1035" />
  <metadata
     id="metadata4812">
    <rdf:RDF>
      <cc:Work
         rdf:about="">
        <dc:format>image/svg+xml</dc:format>
        <dc:type
           rdf:resource="http://purl.org/dc/dcmitype/StillImage" />
        <dc:title></dc:title>
      </cc:Work>
    </rdf:RDF>
  </metadata>
  <defs
     id="defs4810" />
  <sodipodi:namedview
     inkscape:document-rotation="0"
     pagecolor="#ffffff"
     bordercolor="#666666"
     borderopacity="1"
     objecttolerance="10"
     gridtolerance="10"
     guidetolerance="10"
     inkscape:pageopacity="0"
     inkscape:pageshadow="2"
     inkscape:window-width="1898"
     inkscape:window-height="1034"
     id="namedview4808"
     showgrid="false"
     inkscape:zoom="3.5107718"
     inkscape:cx="207.84577"
     inkscape:cy="72.604756"
     inkscape:window-x="10"
     inkscape:window-y="34"
     inkscape:window-maximized="0"
     inkscape:current-layer="layer4"
     fit-margin-top="0"
     fit-margin-left="0"
     fit-margin-right="0"
     fit-margin-bottom="0" />
  <g
     inkscape:groupmode="layer"
     id="layer4"
     inkscape:label="Image 1"
     transform="translate(-1242.4298,-183)">
    <path
       style="fill:#f7b22c;fill-opacity:1;stroke-width:0;stroke-linecap:round;stroke-opacity:0.996591"
       d="m 1357.0175,435.01049 c 0,0 -17.7739,7.83732 -32.176,6.25753 -14.4021,-1.57979 -73.3545,-5.76162 -73.3545,-5.76162 l -5.5964,15.54342 15.2699,23.39843 42.1123,-5.1098 40.2151,-11.01325 25.9996,-17.31249 -4.5078,7.14255 -0.3869,58.27434 -28.9574,23.85111 -0.1799,7.82705 13.6233,16.74625 22.0831,5.91963 15.5075,-1.4637 32.8512,-21.26115 12.6686,-26.98918 15.8398,6.37175 26.2636,5.35544 21.2952,-5.80041 10.8146,-8.54505 2.9019,-15.35914 c 0,0 -14.2109,-6.0038 -16.2422,-7.16457 -2.0314,-1.16077 -14.1693,-11.25004 -14.1693,-11.25004 l 16.0304,-51.60577 c 0,0 12.8082,-10.49869 13.9689,-12.23983 1.1608,-1.74113 18.8898,-23.33341 18.8898,-23.33341 l 3.4407,-35.57717 -21.4133,-29.6562 24.73,-18.70701 21.3831,-34.05946 -4.4544,-27.06929 -18.769,-12.61706 -16.6542,-6.64823 -17.8765,-1.56004 4.5513,-31.46278 -28.9365,14.06465 -18.4714,7.91193 -24.2516,-0.58039 -21.5022,2.18483 -15.1033,4.91373 -28.1948,-12.64837 c 0,0 -2.6664,10.76848 -2.6664,12.21943 0,1.45094 0,12.14523 0,12.14523 0,0 -2.0919,5.28624 -20.789,16.22736 -18.697,10.94113 -34.5371,22.2406 -34.5371,22.2406 l -5.2246,24.87974 6.6553,24.5953 37.0751,27.27684 -15.835,16.96597 -6.9591,15.77794 1.8122,26.84433 z"
       id="path5523" />
    <path
       style="fill:#ffffff;fill-opacity:1;stroke-width:0;stroke-linecap:round;stroke-opacity:0.996591"
       d="m 1462.3293,250.29828 -20.0412,0.11371 1.0417,16.48683 16.2617,5.04901 14.7732,-9.99898 z"
       id="path5531" />
  </g>
  <g
     inkscape:groupmode="layer"
     inkscape:label="Image"
     id="g4814"
     style="display:inline"
     transform="translate(-1242.4298,-183)">
    <path
       style="fill:#000000"
       d="m 1361.0064,564.24212 c -3.5785,-1.27407 -7.4064,-2.6021 -8.5064,-2.95116 -18.9348,-6.0086 -28.6122,-23.19377 -19.075,-33.87364 7.7256,-8.65132 9.9755,-10.68852 18.1128,-16.40067 8.4819,-5.95411 8.1071,-5.28032 7.3758,-13.25915 -0.3613,-3.94123 -0.2442,-8.53649 0.2602,-10.21169 0.5043,-1.67519 0.796,-8.08271 0.648,-14.23892 -0.1479,-6.15622 0.057,-11.51872 0.4546,-11.91667 0.398,-0.39795 0.7236,-3.5186 0.7236,-6.93476 0,-3.41617 0.7014,-7.88981 1.5586,-9.94142 0.8572,-2.05162 1.4197,-3.80929 1.25,-3.90595 -0.1697,-0.0967 -2.1086,-0.78643 -4.3086,-1.53284 -2.2,-0.74641 -4.225,-1.63726 -4.5,-1.97967 -0.275,-0.34241 -2.7493,-1.74149 -5.4985,-3.10907 C 1344.1296,431.3143 1327,415.04133 1327,412.61036 c 0,-0.79403 -0.4575,-1.59619 -1.0166,-1.78257 -6.9304,-2.31011 -7.5731,-33.65169 -0.9214,-44.93291 1.6159,-2.74059 2.9484,-5.30059 2.9612,-5.68889 0.013,-0.38829 1.5878,-2.44318 3.5,-4.56641 1.9122,-2.12323 3.4768,-4.28513 3.4768,-4.80423 0,-0.5191 1.3218,-2.35809 2.9372,-4.08664 3.5161,-3.76224 3.4478,-3.91575 -3.2063,-7.20641 -2.877,-1.42274 -6.3496,-3.23372 -7.7168,-4.02439 -1.3673,-0.79067 -3.5048,-1.18187 -4.75,-0.86934 -1.5001,0.3765 -2.2641,0.12049 -2.2641,-0.75872 0,-0.72983 -2.2944,-3.65019 -5.0986,-6.48969 -5.3015,-5.36817 -5.6225,-5.81847 -10.1682,-14.26126 -1.5218,-2.82639 -3.1479,-5.1389 -3.6137,-5.1389 -2.1475,0 -1.8456,-24.91023 0.3605,-29.73944 0.9448,-2.06831 2.5658,-5.57457 3.6022,-7.79168 2.7307,-5.84185 8.9,-11.80724 16.6464,-16.0962 3.7243,-2.06203 9.6916,-5.68944 13.2607,-8.06091 6.779,-4.50422 12.2745,-5.67262 13.3612,-2.84071 0.7663,1.99689 -1.6795,4.23711 -7.7788,7.12499 -2.8092,1.33012 -6.3175,3.54016 -7.7961,4.91118 -1.4786,1.37102 -3.1738,2.49277 -3.7671,2.49277 -1.0498,0 -4.9764,2.29506 -8.0081,4.68063 -5.8208,4.58028 -8.0004,6.63189 -8.0004,7.53071 0,0.68178 0.4254,0.70068 1.25,0.0555 0.6875,-0.53791 2.15,-1.23819 3.25,-1.55618 1.1,-0.318 4.025,-1.33432 6.5,-2.25849 2.475,-0.92418 5.625,-1.84284 7,-2.04146 1.375,-0.19862 4.6568,-0.658 7.2929,-1.02083 4.1493,-0.57111 4.9679,-1.07803 6.0954,-3.77481 4.5787,-10.95151 12.7594,-20.33779 16.6495,-19.10312 2.8845,0.91553 2.406,3.11087 -1.5378,7.05468 -5.1933,5.19332 -1.8591,7.20135 7.5,4.51691 1.375,-0.39439 3.9982,-0.38888 5.8292,0.0122 7.6244,1.6702 4.8216,3.51169 -6.7685,4.4471 -4.7084,0.38001 -10.1357,1.37445 -12.0607,2.20988 l -3.5,1.51896 3.5,0.87642 c 2.1356,0.53477 6.4236,0.45913 11,-0.19404 4.125,-0.58875 8.5125,-1.20688 9.75,-1.37362 2.434,-0.32796 3.113,1.76361 1,3.08052 -1.3943,0.86898 -10.0476,2.33908 -16.3913,2.7847 -11.2225,0.78834 -14.2372,2.79189 -8.2131,5.45841 2.5086,1.11045 3.8042,1.15417 6.3989,0.21592 4.2953,-1.55319 16.4555,-2.66551 16.4555,-1.50521 0,1.5079 -3.3284,3.09866 -8.0385,3.84189 -2.4538,0.38721 -5.8115,1.10444 -7.4615,1.59386 -1.65,0.48941 -4.6875,1.14863 -6.75,1.46493 -3.9012,0.59828 -5.0047,2.82976 -2.5924,5.24209 0.8111,0.81106 0.8456,1.54452 0.1152,2.45 -2.7916,3.46083 0.3893,6.11126 6.496,5.4128 13.6858,-1.56532 23.2312,-1.90531 23.2312,-0.82746 0,2.26057 -5.1359,3.64946 -18.4896,5.00009 -5.3955,0.54571 -7.0627,1.09006 -7.3098,2.38671 -0.4124,2.16328 7.5317,3.54435 11.5632,2.01026 4.3802,-1.66681 16.937,-2.48314 17.7582,-1.15448 1.4684,2.37605 0.3428,2.72532 -18.272,5.66928 -3.2748,0.51792 -4.1388,1.62783 -2.1999,2.82613 0.5775,0.35694 4.8553,-0.33857 9.5062,-1.54557 4.6509,-1.207 9.1617,-1.92385 10.0239,-1.59299 1.9333,0.74188 1.4512,4.09488 -0.5935,4.12837 -2.2017,0.0361 -12.9867,3.44332 -12.9867,4.1028 0,0.31224 0.9285,1.87159 2.0632,3.46525 4.166,5.85059 -5.7874,6.09073 -12.1925,0.29416 -2.3885,-2.16151 -3.6785,-0.44926 -8.3169,11.03881 l -3.9461,9.77369 2.4461,1.92626 c 1.7189,1.35354 3.3382,1.75527 5.4462,1.35118 19.7427,-3.78454 33.5,-4.1916 33.5,-0.99123 0,1.3604 -3.1352,1.84156 -19,2.91598 -8.3742,0.56712 -15.5977,2.40736 -17.2198,4.38686 -1.1185,1.36497 -0.9644,1.46632 1.2198,0.80234 1.375,-0.41798 4.525,-1.17016 7,-1.6715 2.475,-0.50135 5.625,-1.1896 7,-1.52944 3.8042,-0.94026 18.9517,-1.61842 20.7485,-0.92892 3.9971,1.53384 -1.6696,3.07479 -18.2802,4.97095 -1.6675,0.19035 -5.7175,1.05765 -9,1.92735 -3.2826,0.86969 -6.8683,1.77825 -7.9683,2.01902 -3.6382,0.79634 14.8363,-0.41071 23.7981,-1.55486 9.0516,-1.15563 13.2542,-0.23899 9.0593,1.97593 -2.4978,1.31881 -12.2615,3.28189 -15.9136,3.19955 -4.5721,-0.10308 -13.7269,1.04991 -15.9438,2.00803 -1.1,0.47541 -4.6479,1.15916 -7.8842,1.51943 -7.1791,0.7992 -10.7653,3.99485 -14.648,13.05281 -3.1926,7.44787 -2.8026,8.81885 2.2822,8.0226 7.2872,-1.14114 23.9748,-3.62357 30.25,-4.49998 11.2583,-1.57236 25.025,-1.37508 26.4812,0.37948 1.8683,2.25119 1.9391,2.23615 -13.9551,2.96534 -7.9607,0.36521 -14.7107,1.03611 -15,1.49088 -0.2894,0.45477 -3.8617,1.15878 -7.9386,1.56448 -4.0769,0.40569 -11.2769,1.58167 -16,2.61329 l -8.5875,1.87567 8,-0.49516 c 4.4,-0.27233 12.05,-0.74193 17,-1.04355 4.95,-0.30162 10.6239,-0.97609 12.6087,-1.49882 1.9848,-0.52274 4.6848,-0.91074 6,-0.86222 1.3152,0.0485 6.5989,-0.43121 11.7414,-1.06604 5.1426,-0.63483 9.5942,-0.91017 9.8925,-0.61187 0.8256,0.82554 -1.8422,3.64717 -2.8559,3.02066 -0.4877,-0.3014 -1.4492,-0.18395 -2.1367,0.26101 -0.6875,0.44496 -5.525,1.39713 -10.75,2.11592 -5.225,0.7188 -11.975,1.76892 -15,2.33362 -3.025,0.56469 -8.65,1.10239 -12.5,1.19488 -10.7504,0.25828 -21.5019,1.78148 -21.4847,3.04381 0.033,2.42016 1.7221,3.72518 4.0796,3.15207 3.5561,-0.8645 15.6779,-2.54996 21.4051,-2.97625 2.75,-0.20469 9.8316,-0.85255 15.7369,-1.4397 12.9243,-1.285 18.2631,-1.00218 18.2631,0.96747 0,0.94252 -1.3398,1.50605 -4,1.68248 -4.7616,0.31578 -16.8722,1.78348 -32,3.87811 -6.05,0.8377 -13.1375,1.75406 -15.75,2.03636 -5.2083,0.5628 -5.7109,1.535 -2.75,5.32025 1.0755,1.375 1.9655,3.01014 1.9778,3.63364 0.069,3.53406 8.1709,8.53319 12.8648,7.93831 14.4594,-1.83247 45.8797,-2.83025 46.7121,-1.48339 1.0291,1.66506 -2.5565,4.13726 -5.0547,3.48512 -1.1,-0.28714 -6.05,-0.11101 -11,0.3914 -4.95,0.50242 -13.4709,1.17423 -18.9354,1.49292 -5.4644,0.31868 -10.1594,0.8035 -10.4333,1.07738 -1.6202,1.6202 3.1122,2.68257 13.9963,3.14196 13.617,0.57474 13.718,0.59886 11.8635,2.83336 -0.8897,1.0721 -2.5058,1.43783 -5.1742,1.17099 -2.1342,-0.21342 -4.0987,-0.0347 -4.3656,0.39708 -0.9976,1.61413 41.5027,1.11701 49.0487,-0.57371 1.65,-0.3697 5.7,-0.85909 9,-1.08754 3.3,-0.22845 9.15,-0.90081 13,-1.49412 3.85,-0.59332 9.2447,-1.26825 11.9883,-1.49985 2.7435,-0.2316 7.0185,-1.06063 9.5,-1.84228 2.4814,-0.78166 10.1367,-2.41493 17.0117,-3.62949 14.7944,-2.61364 15.8923,-3.06442 15.2788,-6.27352 -0.6968,-3.64546 11.5874,-5.52674 13.5214,-2.07075 0.7631,1.36358 1.5355,0.98421 5.0901,-2.5 3.7363,-3.66227 4.1419,-4.5398 1.9703,-4.26278 -0.3517,0.0449 -3.7267,0.58895 -7.5,1.20909 -3.7734,0.62014 -8.4356,1.3102 -10.3606,1.53346 -1.925,0.22327 -4.9625,0.68354 -6.75,1.02283 -2.8122,0.5338 -3.25,0.34016 -3.25,-1.43759 0,-2.41049 1.367,-3.43479 4.9234,-3.68911 1.4171,-0.10134 6.8516,-0.75567 12.0766,-1.45407 5.225,-0.69839 10.9765,-1.42281 12.7812,-1.60982 4.4196,-0.45799 4.8098,-0.77761 8.2302,-6.74141 4.8842,-8.51603 4.1259,-9.69837 -4.8874,-7.62033 -2.4067,0.5549 -9.9742,1.21989 -16.8166,1.47776 l -12.4407,0.46887 0.3167,-2.61524 0.3166,-2.61524 14.5,-0.43213 c 22.6701,-0.67563 23.0729,-0.72065 24.1821,-2.70279 0.5507,-0.98396 0.7778,-2.01241 0.5048,-2.28544 -1.2755,-1.27546 -30.6324,0.66506 -45.1869,2.9869 -0.55,0.0877 -1,-0.96547 -1,-2.34047 v -2.5 l 17,-1.55881 c 9.35,-0.85735 19.8125,-1.39491 23.25,-1.19459 4.6661,0.27192 6.2461,0.0334 6.2347,-0.94119 -0.029,-2.43366 -1.7084,-4.02785 -3.6099,-3.42574 -1.0311,0.32653 -5.9248,0.8064 -10.8748,1.06639 -8.1715,0.4292 -18.1944,1.51707 -29.0415,3.15214 -3.1163,0.46975 -4.3667,0.21733 -5.4622,-1.10271 -2.1699,-2.61447 1.1479,-4.4942 7.9448,-4.50128 3.0574,-0.003 8.0923,-0.42079 11.1886,-0.928 3.0964,-0.50721 9.6214,-1.01833 14.5,-1.13581 16.1648,-0.38927 16.6329,-1.01419 10.4333,-13.9304 l -2.6399,-5.5 -7.4616,0.29041 c -4.1038,0.15972 -12.341,0.98018 -18.3049,1.82323 -5.9639,0.84306 -11.0603,1.31601 -11.3253,1.05099 -0.265,-0.26501 -1.7784,-0.10999 -3.3631,0.3445 -3.4626,0.99304 -6.9682,0.23672 -6.9682,-1.50332 0,-2.60263 3.0473,-3.7626 9.5162,-3.62233 3.5756,0.0775 8.4097,-0.30093 10.7424,-0.84103 2.3328,-0.5401 8.433,-1.17473 13.5561,-1.4103 10.3487,-0.47584 10.9803,-0.69429 8.6746,-3 -1.9156,-1.9156 -10.9496,-1.58936 -24.4893,0.88437 -21.3239,3.89591 -21,3.8813 -21,0.94752 0,-2.28573 4.4812,-4.56953 8.6457,-4.40618 2.1199,0.0831 8.9053,-0.54723 15.0787,-1.40085 6.1734,-0.85362 12.1359,-1.37649 13.25,-1.16194 2.5744,0.49578 2.6336,-1.0993 0.091,-2.45989 -3.4643,-1.85407 -8.5894,-1.3568 -30.4417,2.9537 -6.4173,1.26584 -8.249,0.55558 -7.188,-2.78726 0.5398,-1.70067 1.8631,-2.1072 8.8493,-2.71849 4.5181,-0.39532 11.0923,-1.24599 14.6093,-1.89037 l 6.3946,-1.1716 -3.1446,-2.64602 c -5.8096,-4.88849 -1.8057,-12.70911 4.2459,-8.29315 1.1602,0.84663 3.8247,2.68266 5.921,4.08005 l 3.8115,2.54072 8.3559,-5.61743 c 7.9412,-5.3386 15.6367,-12.58359 20.0211,-18.84894 1.1,-1.5719 2.5625,-3.451 3.25,-4.17577 0.6875,-0.72477 1.25,-1.79991 1.25,-2.38919 0,-0.58929 0.4652,-1.07143 1.0337,-1.07143 2.2106,0 7.8055,-14.45029 7.9708,-20.58666 0.3207,-11.90537 0.6444,-11.20309 -4.7545,-10.31442 -2.6125,0.43002 -8.6312,0.80868 -13.375,0.84147 -14.4018,0.0995 -16.9301,1.35105 -13.956,6.90827 0.5791,1.08214 0.4633,4.14215 -0.3132,8.27447 l -1.2323,6.55729 7.2892,2.78298 c 7.9938,3.05204 15.156,8.40285 13.9214,10.40054 -0.5614,0.90833 -2.134,0.45225 -6.0383,-1.75117 -7.4231,-4.18936 -16.1941,-6.64956 -18.0917,-5.07464 -2.3441,1.94543 -1.7566,2.76491 3.8073,5.30986 5.3248,2.43564 11.7386,8.02778 11.7386,10.23486 0,1.99671 -2.6035,2.3525 -4.2393,0.57934 -2.9011,-3.14468 -6.1248,-5.12239 -10.9758,-6.73363 l -4.8618,-1.61482 -5.8392,5.84313 c -10.5861,10.59326 -14.829,12.26794 -15.0521,5.94108 -0.033,-0.92849 8.0106,-8.55859 9.0487,-8.58383 0.3192,-0.008 2.0961,-2.15162 3.9485,-4.76412 1.8524,-2.6125 3.6396,-4.975 3.9716,-5.25 4.9464,-4.09749 6.5571,-33 1.839,-33 -0.4618,0 -0.8396,-1.08803 -0.8396,-2.41784 0,-6.05959 -10.5861,-20.14756 -17.6411,-23.47673 -1.5724,-0.74199 -4.0533,-1.96925 -5.5132,-2.72725 -1.4599,-0.758 -3.3026,-1.37818 -4.095,-1.37818 -0.7924,0 -2.1915,-0.82957 -3.1091,-1.84349 -0.9175,-1.01391 -4.2498,-2.39748 -7.4049,-3.07459 -3.1552,-0.67711 -7.3117,-1.64767 -9.2367,-2.1568 -11.2712,-2.98103 -41.3723,-1.32959 -50.82,2.78814 -3.3426,1.45684 -6.18,1.17366 -6.18,-0.61678 0,-2.67115 2.1083,-5.89593 4.1755,-6.38669 1.2785,-0.30351 5.0483,-1.23647 8.3774,-2.07323 15.2118,-3.82347 44.3685,-3.65854 54.8066,0.31001 4.3448,1.65189 4.9814,1.25076 2.036,-1.28278 -3.22,-2.76975 -2.6477,-4.24407 2.4766,-6.38022 1.9953,-0.83179 4.7529,-2.31141 6.1279,-3.28804 1.375,-0.97663 2.95,-1.82978 3.5,-1.8959 0.55,-0.0661 4.6,-2.25308 9,-4.85992 8.7584,-5.18906 12.0663,-5.95123 11.8905,-2.73971 -0.06,1.1 -0.8663,7.61924 -1.7912,14.48721 -2.4464,18.16411 -2.3751,20.96149 0.5975,23.45276 1.3519,1.13302 3.4867,3.55111 4.7439,5.37354 1.6287,2.36083 2.7565,3.11266 3.9226,2.61494 0.9002,-0.38421 3.1959,-1.26554 5.1017,-1.9585 4.1571,-1.51161 5.1547,-3.46995 1.7676,-3.46995 -2.6019,0 -8.7184,-1.81523 -10.0198,-2.97364 -5.9017,-5.25333 5.6638,-7.39537 17.0695,-3.16143 4.2447,1.5757 9.7095,3.4739 12.1439,4.21821 21.4302,6.55216 27.5041,34.81884 12.5574,58.43961 -7.5903,11.99527 -23.2541,28.59234 -31.3463,33.21399 l -5.3301,3.04413 3.8464,4.34886 c 2.1155,2.39188 4.4026,4.94202 5.0824,5.66699 5.0515,5.38714 13.0896,31.45278 11.3185,36.70328 -0.1855,0.55 -0.2947,1.87926 -0.2427,2.95391 0.052,1.07466 -0.3847,2.53143 -0.9705,3.23727 -1.6574,1.99708 -0.1821,4.30882 2.7498,4.30882 2.2455,0 2.4623,0.23075 1.4089,1.5 -0.6847,0.825 -2.0971,1.5 -3.1386,1.5 -1.1797,0 -2.5231,1.3197 -3.5628,3.5 -0.918,1.925 -2.0357,3.5 -2.4838,3.5 -0.4481,0 -0.8148,0.68952 -0.8148,1.53226 0,1.35533 -6.9125,12.46053 -10.2505,16.46774 -2.0395,2.44842 -12.9621,11.0601 -16.9158,13.33689 -2.8631,1.64873 -3.7786,2.88381 -4.1786,5.63721 -0.4443,3.05831 -2.4522,13.44815 -4.3049,22.2759 -0.3175,1.5125 -0.8833,2.75 -1.2574,2.75 -0.3741,0 -1.263,2.8125 -1.9752,6.25 -0.7122,3.4375 -1.93,8.24266 -2.7063,10.67814 -2.5456,7.98704 -2.8966,7.57595 11.5887,13.57186 15.1401,6.26696 16.9134,7.70922 16.9667,13.79966 0.2341,26.733 -52.9482,40.39883 -76.0681,19.54661 -4.6816,-4.22239 -4.4762,-9.37843 0.2864,-7.19014 2.2946,1.05433 9.6097,3.24484 17.315,5.18496 5.3704,1.35223 15.9909,2.8864 21.3977,3.09097 2.4187,0.0915 4.8374,0.25674 5.375,0.36716 2.5739,0.52877 1.4362,-2.54876 -2.2107,-5.98026 -5.474,-5.15065 -5.3051,-8.50248 0.3207,-6.36356 2.2385,0.85108 7.8934,7.37305 8.8306,10.18456 0.8906,2.67161 8.7926,-1.63133 12.183,-6.63402 6.0872,-8.98202 5.1378,-12.35939 -4.3549,-15.49226 -2.2228,-0.73359 -4.0414,-1.71177 -4.0414,-2.17374 0,-0.46197 -0.6613,-0.83994 -1.4696,-0.83994 -0.8083,0 -3.0719,-0.9 -5.0304,-2 -1.9585,-1.1 -4.238,-2 -5.0656,-2 -4.3358,0 -6.6683,-3.17901 -6.0044,-8.18348 0.3514,-2.64908 0.4277,-4.81652 0.1695,-4.81652 -0.2581,0 -1.6467,0.44766 -3.0858,0.99479 -6.5911,2.50592 -12.5137,2.22813 -12.5137,-0.58693 0,-1.54755 4.1661,-3.54082 7.5,-3.58833 3.9708,-0.0566 10.4054,-2.94616 11.0445,-4.95972 0.879,-2.76953 0.3187,-3.02027 -2.9545,-1.32214 -1.5502,0.80428 -3.5772,1.46233 -4.5043,1.46233 -0.9271,0 -2.1921,0.50639 -2.811,1.1253 -1.7784,1.7784 -8.4791,0.17462 -8.0734,-1.93231 0.1794,-0.93114 0.7699,-1.71329 1.3124,-1.7381 2.372,-0.10849 9.0744,-1.69867 9.9863,-2.36929 0.55,-0.40449 2.9332,-1.28849 5.296,-1.96444 2.8836,-0.82495 4.6631,-2.0346 5.4124,-3.67931 1.6396,-3.59844 0.2216,-4.1527 -4.5117,-1.76348 -6.1525,3.10559 -16.2379,4.9473 -18.1954,3.3227 -2.2308,-1.85139 -0.048,-4.00107 4.0621,-4.00107 1.8252,0 3.5652,-0.39899 3.8665,-0.88664 0.3014,-0.48765 2.1834,-1.19343 4.1822,-1.56841 1.9987,-0.37497 4.3662,-1.0738 5.261,-1.55296 0.8948,-0.47915 2.8941,-1.13938 4.4428,-1.46718 3.1137,-0.65902 5.6841,-5.31347 5.6841,-10.29269 0,-1.55767 0.5008,-3.33291 1.1129,-3.94499 1.3932,-1.39322 0.17,-3.58753 -1.432,-2.56875 -0.6495,0.41304 -1.4059,0.79559 -1.6809,0.8501 -1.9768,0.39184 -6.8557,2.92416 -10.609,5.50651 -2.4517,1.68683 -6.3552,3.92148 -8.6743,4.96589 -2.3192,1.04441 -6.2417,3.26055 -8.7167,4.92474 -2.475,1.6642 -5.0144,3.02774 -5.643,3.0301 -0.6287,0.002 -1.3978,0.66817 -1.7092,1.47959 -0.3113,0.81143 -2.6146,1.99115 -5.1184,2.62161 -4.9141,1.23737 -4.9539,1.30698 -5.947,10.40308 -0.5175,4.73924 -1.2205,9.34407 -3.626,23.75 -0.574,3.4375 -1.4508,10.525 -1.9485,15.75 -1.0909,11.4539 -1.5803,13.25189 -4.0229,14.77731 -2.2509,1.40568 -4.985,-0.69507 -4.985,-3.83018 0,-2.59215 1.9791,-15.70557 2.9567,-19.59115 0.7804,-3.10157 0.7522,-3.13195 -2.0828,-2.25 -1.5807,0.49171 -4.3334,1.34402 -6.1173,1.89402 -1.7839,0.55 -4.5169,1 -6.0733,1 -4.4528,0 -3.1104,-3.27291 1.8273,-4.45528 2.1942,-0.52541 4.2144,-1.21928 4.4894,-1.54194 0.275,-0.32266 2.4229,-1.20573 4.773,-1.96238 3.2572,-1.04866 4.4063,-1.98963 4.8336,-3.95806 0.3082,-1.42029 0.7537,-3.19677 0.9898,-3.94773 0.4584,-1.4576 -1.2612,-1.31408 -9.0964,0.75922 -6.4422,1.70469 -10.7102,1.43821 -10.3117,-0.64383 0.3215,-1.67984 2.2393,-2.40219 14.2723,-5.37593 4.7987,-1.1859 6.5394,-2.51367 6.5394,-4.9881 0,-1.829 -3.8845,-2.24647 -6.5452,-0.70342 -2.6217,1.52036 -11.6858,2.98648 -12.6294,2.04281 -3.3475,-3.34744 0.9223,-5.44508 15.9246,-7.82344 8.4139,-1.33388 4.1859,-9.37618 -4.9503,-9.41647 -1.8149,-0.008 -5.0997,-0.63891 -7.2997,-1.402 -2.2,-0.76309 -5.35,-1.52703 -7,-1.69765 -1.65,-0.17062 -3.45,-0.61569 -4,-0.98905 -1.9733,-1.33951 -16.4183,-4.05746 -18.3335,-3.44959 -1.1214,0.35591 -2.5636,0.0129 -3.3805,-0.80404 -0.914,-0.914 -1.9724,-1.11833 -2.9522,-0.56999 -0.8464,0.47367 -3.9365,0.46996 -6.9306,-0.008 -6.5404,-1.04475 -5.7066,-2.216 -6.029,8.46922 -0.3522,11.67775 -0.9792,11.12293 12.8397,11.36264 13.354,0.23165 13.7701,0.28137 17.5283,2.09437 3.8077,1.83692 1.9321,3.92118 -3.02,3.35596 -2.0472,-0.23366 -9.2566,-0.54376 -16.0208,-0.68911 l -12.2987,-0.26428 0.2987,3.5532 0.2986,3.5532 10.5,0.18472 c 12.9724,0.22821 20.7667,1.12876 21.6124,2.49707 1.3567,2.19525 -2.6127,2.79463 -16.957,2.5605 l -14.8446,-0.24229 -0.3157,4.14966 c -0.3003,3.9467 -0.1612,4.18102 2.8446,4.79076 4.4653,0.90583 5.2024,0.90862 14.3045,0.0542 9.4832,-0.89021 14.1502,-0.15669 12.4024,1.94929 -1.3258,1.5975 -12.7262,2.9816 -22.1504,2.68922 l -6.6038,-0.20487 -0.6134,5.86856 c -0.7952,7.6083 -1.11,8.29751 -4.951,10.83977 -14.282,9.45301 -26.3389,21.7932 -25.3076,25.90232 1.2502,4.98113 15.6411,15.91325 22.2188,16.87865 0.7166,0.10518 1.6159,0.50425 1.9985,0.88684 1.6432,1.64314 3.3183,0.44729 3.9283,-2.80439 0.3611,-1.925 1.0565,-3.5 1.5453,-3.5 0.4888,0 0.8887,-0.63247 0.8887,-1.4055 0,-4.74045 12.5492,-20.08847 15.4995,-18.95634 1.6403,0.62944 0.9247,2.52144 -2.2171,5.86184 -3.3239,3.53409 -7.2824,9.9113 -7.2824,11.73213 0,0.97233 -0.3596,1.76787 -0.7991,1.76787 -0.9215,0 -3.2009,5.86904 -3.2009,8.24154 0,3.82179 13.9914,3.3124 22.5,-0.81917 8.7779,-4.26235 19.3876,-13.2028 23.3768,-19.69889 1.2755,-2.07709 2.8523,-4.32709 3.5041,-5 0.6517,-0.67292 2.2734,-2.79848 3.6038,-4.72348 3.9433,-5.70565 7.0153,-6.78985 7.0153,-2.47589 0,2.26667 -1.3259,4.61326 -9.2322,16.33945 -4.107,6.09133 -19.9209,21.13644 -22.2164,21.13644 -0.4085,0 -2.1621,1.01075 -3.897,2.24611 -1.7349,1.23536 -3.1544,2.09386 -3.1544,1.90779 0,-0.74793 -7.5631,1.1392 -8.1096,2.02349 -1.0821,1.7509 -15.5421,0.50073 -22.384,-1.93527 z M 1343.1244,329.25 c 2.5891,-6.58331 7.438,-16.77775 8.1256,-17.08333 1.1564,-0.51398 0.8872,-3.16667 -0.3214,-3.16667 -1.6822,0 -3.1997,2.00266 -6.8197,9 -1.8495,3.575 -3.9806,6.99961 -4.7358,7.61024 -1.7159,1.3874 -1.7946,5.05299 -0.1231,5.72748 2.3096,0.93195 2.7883,0.67403 3.8744,-2.08772 z M 1337,321.73813 c 1.925,-3.43097 3.6455,-6.80063 3.8233,-7.48813 0.1779,-0.6875 0.7404,-1.25 1.25,-1.25 0.5097,0 0.9267,-0.49303 0.9267,-1.09563 0,-0.6026 0.9373,-2.41193 2.0829,-4.02074 l 2.0828,-2.92512 -2.5828,-4.40732 c -1.4206,-2.42403 -2.5854,-5.0022 -2.5885,-5.72926 -0.018,-4.35536 -2.1341,-8.75673 -3.7865,-7.87692 -0.9393,0.50016 -6.1043,2.91078 -11.4776,5.35693 -5.3734,2.44614 -10.7734,5.19809 -12,6.11543 -1.2267,0.91735 -2.882,2.06789 -3.6785,2.55676 -2.8313,1.7378 8.4357,20.13557 13.074,21.34853 1.2728,0.33282 2.4374,-0.49783 3.8085,-2.71643 1.0864,-1.75772 2.8956,-4.25705 4.0204,-5.55405 1.1249,-1.29701 2.0453,-2.75757 2.0453,-3.24568 0,-1.95539 5.5229,-8.7526 7.143,-8.79119 3.1928,-0.076 -0.7242,7.85547 -9.5135,19.26362 -2.3591,3.0621 -2.6491,3.99257 -1.6275,5.22343 2.1162,2.5499 3.3752,1.69276 6.998,-4.76423 z M 1313,294 c 1.375,-1.07554 2.9991,-1.96553 3.6091,-1.97776 0.61,-0.0122 3.76,-1.36654 7,-3.00957 3.24,-1.64304 6.4713,-2.99304 7.1807,-3 3.982,-0.0391 9.2102,-4.10396 9.2102,-7.1608 0,-3.24535 -4.5372,-3.67216 -9.7937,-0.9213 -0.9385,0.49114 -3.7313,1.72043 -6.2063,2.73177 -10.2314,4.18075 -16,8.53292 -16,12.07129 0,3.76802 1.3611,4.11276 5,1.26637 z m 6.4748,-15.98804 c 5.7879,-2.74343 12.4364,-5.27986 14.7743,-5.63652 4.6944,-0.71614 6.7509,-1.92429 6.7509,-3.96605 0,-1.57423 -8.7379,-1.07148 -10.4082,0.59885 -0.5455,0.54547 -1.766,0.99176 -2.7122,0.99176 -4.1985,0 -19.8796,9.49638 -19.8796,12.03896 0,1.40794 0.033,1.3965 11.4748,-4.027 z m 222.8743,-25.6587 c 4.208,-0.3557 7.6509,-1.10072 7.6509,-1.65561 0,-2.26574 -5.2229,-7.87474 -6.3154,-6.78224 -0.5965,0.59652 -3.5821,1.08993 -6.6346,1.09646 -9.1941,0.0197 -20.05,3.55167 -20.05,6.52331 0,1.64697 11.2488,2.01 25.3491,0.81808 z m -9.7095,-11.00568 c 9.5655,-0.73527 10.027,-1.28658 4.0225,-4.80543 -4.4373,-2.60046 -8.1028,-3.25609 -9.1083,-1.62916 -0.3104,0.50214 -2.2727,1.20163 -4.3609,1.55441 -5.3631,0.9061 -10.072,4.76842 -8.3472,6.84662 1.1406,1.37444 1.7494,1.38731 5.3601,0.11336 2.2404,-0.79045 7.8356,-1.72636 12.4338,-2.0798 z M 1492.5,217.80505 c -1.1,-0.62377 -2.225,-1.43637 -2.5,-1.80579 -0.6695,-0.89932 -7.2184,-3.11416 -7.7213,-2.61131 -0.6853,0.68531 8.1219,5.40854 10.2213,5.48161 l 2,0.0696 -2,-1.13413 z m 1.2007,-6.14265 c -0.6498,-1.69324 -9.4037,-6.29276 -10.2899,-5.40656 -1.0376,1.03761 1.5696,3.74416 3.6067,3.74416 0.9749,0 2.8323,1.10518 4.1275,2.45596 2.2454,2.3416 3.5976,1.9217 2.5557,-0.79356 z M 1480,212 c -0.825,-0.53316 -1.95,-0.96937 -2.5,-0.96937 -0.55,0 -0.325,0.43621 0.5,0.96937 0.825,0.53316 1.95,0.96937 2.5,0.96937 0.55,0 0.325,-0.43621 -0.5,-0.96937 z m 16.1898,-9.5 c 0.2247,-1.925 0.1615,-3.49311 -0.1406,-3.48469 -1.5021,0.0419 -2.5532,1.76133 -2.5886,4.23469 -0.057,4.00541 2.248,3.37187 2.7292,-0.75 z M 1268.344,478.94221 c -4.8869,-0.8518 -11.268,-3.85248 -14.1654,-6.66123 -0.7268,-0.70454 -1.9643,-1.28098 -2.75,-1.28098 -0.7857,0 -1.4286,-0.42955 -1.4286,-0.95455 0,-0.525 -1.1498,-2.1043 -2.555,-3.50957 -3.0734,-3.07332 -5.2562,-8.11589 -4.9938,-11.53588 0.4963,-6.46787 1.8241,-13 2.6426,-13 0.4984,0 0.7937,-0.34622 0.6562,-0.76938 -0.3692,-1.13636 3.4726,-5.74419 5.8502,-7.01665 3.4061,-1.8229 16.5147,-2.05733 30.6169,-0.54755 7.3056,0.78214 20.7079,1.65903 29.7829,1.94865 21.0472,0.6717 23.4026,1.13058 23.8131,4.63934 0.3746,3.20234 -1.8607,4.04968 -9.3993,3.56289 L 1321.5,443.5 l 0.038,6 c 0.081,12.81907 2.2139,14.0783 13.462,7.94844 3.575,-1.94826 7.2875,-3.79865 8.25,-4.11199 0.9625,-0.31334 1.75,-0.96723 1.75,-1.45308 0,-0.48585 0.5625,-0.88614 1.25,-0.88953 0.6875,-0.003 2.5855,-0.70257 4.2179,-1.55373 3.0598,-1.5955 7.5321,-1.20933 7.5321,0.65037 0,1.48938 -2.1341,3.44026 -6.0961,5.57283 -1.8767,1.01018 -4.8299,2.84919 -6.5625,4.08669 -1.7326,1.2375 -3.6067,2.25 -4.1647,2.25 -1.2604,0 -7.1375,3.09281 -8.8708,4.66829 -0.7069,0.64255 -2.7525,1.48202 -4.5456,1.86547 -1.7932,0.38345 -3.7103,1.03846 -4.2603,1.45557 -0.55,0.41711 -3.25,1.08456 -6,1.48322 -2.75,0.39866 -5.8781,1.19476 -6.9514,1.7691 -1.8598,0.9953 -15.685,4.40323 -22.0486,5.43503 -6.2522,1.01374 -15.188,1.13146 -20.156,0.26553 z m 21.5958,-8.93945 c 3.0581,-0.54848 7.5852,-1.23516 10.0602,-1.52596 l 4.5,-0.52872 0.1754,-12.5273 0.1755,-12.52731 -5.1755,0.063 c -2.8464,0.0347 -8.1589,-0.19507 -11.8053,-0.51054 l -6.63,-0.57359 -1.12,3.21304 c -0.6161,1.76717 -1.1201,4.00839 -1.1201,4.98048 0,0.97209 -0.4015,1.91744 -0.8922,2.10078 -0.8356,0.31218 -1.5869,9.93424 -1.2559,16.08333 0.1711,3.17784 3.0172,3.55898 13.0879,1.75276 z m -16.3373,-16.39297 c 0.8623,-5.43961 1.8027,-10.50211 2.0897,-11.25 0.287,-0.74788 0.076,-1.35979 -0.4686,-1.35979 -0.5447,0 -1.272,0.7875 -1.6162,1.75 -2.2872,6.39473 -2.8695,8.35738 -3.9952,13.46671 -1.0684,4.84913 -1.0323,6.21499 0.2378,9 1.4588,3.19861 1.5063,3.21881 1.841,0.78329 0.189,-1.375 1.0492,-6.95059 1.9115,-12.39021 z m -9.2615,8.14021 c 0.3238,-2.8875 1.0795,-7.5 1.6793,-10.25 2.6045,-11.93963 2.6679,-11.50068 -1.6609,-11.49442 -15.5439,0.0225 -18.9784,13.59949 -6.0023,23.72832 5.3406,4.16878 5.2922,4.18481 5.9839,-1.9839 z m 53.3191,-2.64885 c -0.307,-2.53063 -0.8621,-7.22256 -1.2337,-10.42651 -0.9843,-8.48639 -2.5694,-5.64016 -2.7639,4.96282 -0.1728,9.42492 0.446,11.64185 2.9786,10.67002 1.2409,-0.47617 1.4581,-1.58603 1.019,-5.20633 z M 1516.5,308.54102 c -3.4097,-1.49417 -6.5,-4.84716 -6.5,-7.05245 0,-2.60163 2.8622,-1.61454 7.2196,2.48981 4.7288,4.45419 4.3606,6.78886 -0.7196,4.56264 z m -92.5,-22.482 c 0,-1.06754 0.45,-2.2191 1,-2.55902 0.55,-0.33992 1,-1.49148 1,-2.55902 0,-1.3912 0.6914,-1.94098 2.441,-1.94098 3.1387,0 4.1483,1.66713 2.309,3.81301 -0.7953,0.92785 -1.7253,2.47449 -2.0666,3.43699 -0.8701,2.45357 -4.6834,2.29807 -4.6834,-0.19098 z m -7.3333,-0.72569 c -1.1939,-1.19388 -0.7038,-3.10513 0.96,-3.74359 2.0654,-0.79256 4.4266,1.1078 3.7069,2.98337 -0.5635,1.46841 -3.4831,1.94401 -4.6669,0.76022 z m 38,-1 C 1454.3,283.96667 1454,282.67464 1454,281.46216 c 0,-1.87352 -0.7131,-2.30049 -4.75,-2.84389 -26.354,-3.54746 -22.3514,-35.19522 4.6224,-36.54937 1.1137,-0.0559 1.1349,-0.35523 0.112,-1.58766 -1.9563,-2.3572 1.1465,-5.26241 5.0141,-4.69477 3.4699,0.50928 3.7944,-0.63568 1.3517,-4.77071 -3.8052,-6.44173 1.2916,-8.14407 5.2867,-1.76576 1.4641,2.3375 3.0448,4.4 3.5126,4.58333 3.0701,1.20323 -2.5304,7.16667 -6.7305,7.16667 -0.7805,0 -1.419,0.45 -1.419,1 0,0.55 1.1038,1 2.4529,1 7.3486,0 16.5471,8.76258 16.5471,15.76281 0,6.35068 -10.1754,16.6627 -18,18.24168 -2.0553,0.41475 -2.5552,1.17078 -2.8104,4.25 -0.2977,3.59288 -2.5058,5.09597 -4.5229,3.07884 z m 6.0833,-20.59207 c 4.1373,-3.26404 -0.1849,-8.66801 -6.75,-8.43933 -3.4829,0.12133 -8.3251,8.03961 -6.2099,10.15485 0.8133,0.81327 11.5572,-0.60892 12.9599,-1.71552 z M 1523,273 c 0,-0.55 0.45,-1 1,-1 0.55,0 1,0.45 1,1 0,0.55 -0.45,1 -1,1 -0.55,0 -1,-0.45 -1,-1 z m -126,-27.953 c 0,-2.34824 4.9301,-4.0044 9.795,-3.2904 6.0577,0.88908 10.3388,-1.84627 7.6096,-4.862 -0.8775,-0.96959 -1.665,-3.25502 -1.75,-5.07874 -0.2355,-5.05056 2.9217,-4.43145 6.0386,1.18414 1.3737,2.475 2.8379,4.86067 3.2537,5.30149 2.0047,2.12515 -0.2223,5.40234 -4.7815,7.03634 C 1410.12,247.86288 1397,247.67366 1397,245.047 Z m -31.6693,-6.1163 c -0.9266,-0.92659 -2.8933,-1.58004 -5.5807,-1.85419 -1.2367,-0.12617 -0.8947,-18.8616 0.3519,-19.27714 0.7777,-0.25925 0.8303,-2.16178 0.1786,-6.46738 -1.116,-7.37335 -0.099,-9.3369 4.8297,-9.32117 6.4454,0.0206 21.0426,5.96298 26.6032,10.82991 1.0427,0.9126 2.7712,2.15831 3.8412,2.76826 2.4157,1.37707 2.5193,4.31103 0.2038,5.77159 -1.3777,0.86906 -2.8401,0.49526 -7,-1.78928 -2.8921,-1.58831 -6.2674,-3.38362 -7.5006,-3.98957 -1.2332,-0.60595 -2.2457,-1.43923 -2.25,-1.85173 0,-0.4125 -0.8866,-0.75 -1.9607,-0.75 -1.0742,0 -3.1314,-0.53691 -4.5717,-1.19314 -3.2609,-1.48577 -4.6147,0.11906 -3.4146,4.04773 4.2479,13.90656 1.8618,28.668 -3.7301,23.07611 z"
       id="path5383"
       sodipodi:nodetypes="cssssssssssssssssssssssssssssssssssssssssssssssssscsssssssssssssssssssssssssssscssssssssssssssssssssssssscsssssssssssssssssssscsssssssssssssssssssssssssssssscccssssscsscsssssssscssssssssssssssssssscssscsssssssssscsssssssscssssssssssssssssssssssssssssssssssscsssssssssssssssssssssssssssssssssssssssssssssssssssssssssssssscsssssssssssssssssssssssssssssscssssscccssscssssscsssssssssssssssssssssssccsssssssssssscscsssssssssssssssssssssssssssssssssssssssssssssccssssssssssssscsssssssssssssscsssscsssssssssssssscccsscssssssssscssssscsssssssssssssssssssssssssssssssssssssssssssssssssssssssssssssssssscssss" />
  </g>
</svg>
