<?xml version="1.0" encoding="UTF-8" standalone="no"?>
<svg
   xmlns:dc="http://purl.org/dc/elements/1.1/"
   xmlns:cc="http://creativecommons.org/ns#"
   xmlns:rdf="http://www.w3.org/1999/02/22-rdf-syntax-ns#"
   xmlns:svg="http://www.w3.org/2000/svg"
   xmlns="http://www.w3.org/2000/svg"
   xmlns:sodipodi="http://sodipodi.sourceforge.net/DTD/sodipodi-0.dtd"
   xmlns:inkscape="http://www.inkscape.org/namespaces/inkscape"
   version="1.1"
   id="svg4806"
   width="348.76941"
   height="374.71042"
   viewBox="0 0 348.7694 374.71042"
   sodipodi:docname="sunsoutgunsoutheathcliff-flex.svg"
   inkscape:version="1.0 (4035a4fb49, 2020-05-01)">
  <style
     id="style912" />
  <metadata
     id="metadata4812">
    <rdf:RDF>
      <cc:Work
         rdf:about="">
        <dc:format>image/svg+xml</dc:format>
        <dc:type
           rdf:resource="http://purl.org/dc/dcmitype/StillImage" />
        <dc:title></dc:title>
      </cc:Work>
    </rdf:RDF>
  </metadata>
  <defs
     id="defs4810" />
  <sodipodi:namedview
     inkscape:document-rotation="0"
     pagecolor="#ffffff"
     bordercolor="#666666"
     borderopacity="1"
     objecttolerance="10"
     gridtolerance="10"
     guidetolerance="10"
     inkscape:pageopacity="0"
     inkscape:pageshadow="2"
     inkscape:window-width="1898"
     inkscape:window-height="1034"
     id="namedview4808"
     showgrid="false"
     inkscape:zoom="0.88448909"
     inkscape:cx="-7.1052292"
     inkscape:cy="83.470427"
     inkscape:window-x="10"
     inkscape:window-y="34"
     inkscape:window-maximized="0"
     inkscape:current-layer="layer4"
     fit-margin-top="0"
     fit-margin-left="0"
     fit-margin-right="0"
     fit-margin-bottom="0" />
  <g
     inkscape:groupmode="layer"
     id="layer4"
     inkscape:label="Image 1"
     transform="translate(-428.25018,-183.03175)" />
  <g
     inkscape:groupmode="layer"
     inkscape:label="Image"
     id="g4814"
     style="display:inline"
     transform="translate(-428.25018,-183.03175)">
    <path
       style="fill:#000000"
       d="m 613.83689,557.34782 c -0.91471,-0.25355 -3.72043,-2.46053 -6.23494,-4.90441 C 605.08744,549.99953 602.68005,548 602.25219,548 c -0.42786,0 -1.22214,-0.87252 -1.76506,-1.93894 -0.54292,-1.06642 -3.69633,-5.90392 -7.00758,-10.75 -5.35918,-7.84328 -8.11272,-13.02493 -9.86339,-18.56106 -0.30436,-0.9625 -1.13001,-1.75026 -1.83478,-1.75058 -1.59803,-7.2e-4 -2.09736,-7.74312 -2.16047,-33.49942 -0.0437,-17.836 -0.17137,-19.10889 -2.08374,-20.77734 l -2.03717,-1.77735 2.25,-1.59463 c 5.56433,-3.94357 -2.27328,-10.92853 -14.25,-12.69974 -5.58268,-0.82561 -14.74617,-3.07924 -23,-5.65651 -3.85,-1.20217 -8.125,-2.4346 -9.5,-2.73873 -1.375,-0.30414 -3.57319,-1.38609 -4.88486,-2.40434 C 524.80347,432.83311 523.11597,432 522.36514,432 521.61431,432 521,431.61834 521,431.15187 c 0,-0.46646 -1.8,-1.65981 -4,-2.65187 -2.2,-0.99206 -4,-2.18541 -4,-2.65187 C 513,425.38166 512.36099,425 511.57999,425 507.93211,425 495,406.96045 495,401.87186 c 0,-0.9646 -0.41084,-2.00774 -0.91299,-2.31808 -0.50214,-0.31034 -1.21669,-2.3619 -1.5879,-4.55902 C 492.12791,392.79764 491.41376,391 490.9121,391 c -1.29681,0 -1.12867,-2.68036 0.31295,-4.98876 1.03128,-1.65134 0.91475,-2.18853 -0.73672,-3.39611 -1.86759,-1.36562 -1.87839,-1.52663 -0.22505,-3.35355 C 492.18157,377.14189 492.55185,375 491,375 c -1.79015,0 -1.02234,-2.44603 1.52689,-4.86421 1.37079,-1.30032 2.74415,-3.55032 3.05193,-5 1.21128,-5.70536 4.52219,-11.17737 11.74683,-19.41424 1.55411,-1.77185 3.45897,-4.6513 4.23301,-6.39877 0.77405,-1.74747 2.38943,-3.48892 3.58974,-3.86988 1.85885,-0.58998 13.05394,-7.64153 16.43522,-10.3522 2.68354,-2.15131 7.55866,-2.32511 9.41222,-0.33554 1.3838,1.48533 3.78526,2.13196 9.89813,2.66519 14.16652,1.23576 11.63726,4.07465 -3.38183,3.79583 -5.50668,-0.10223 -11.58714,0.209 -13.51214,0.69161 l -3.5,0.87749 5,0.24991 c 7.06057,0.35291 22.6649,-0.0724 24.75,-0.67457 1.24311,-0.35901 1.75,0.062 1.75,1.45358 0,2.84786 -3.57094,3.55852 -19,3.78125 -14.99467,0.21645 -21.4541,1.03186 -23.00821,2.90445 -0.82608,0.99536 3.14979,1.19035 19.48518,0.95561 C 558.77038,341.18827 560,341.27972 560,342.99197 c 0,2.02286 -5.03259,2.55492 -31.83554,3.36576 l -13.33553,0.40342 -3.89886,3.80714 c -2.14438,2.09393 -4.41453,5.41017 -5.04479,7.36942 -0.63026,1.95926 -1.50345,4.01764 -1.94042,4.57417 -0.43698,0.55653 -0.94083,2.35653 -1.11968,4 L 502.5,369.5 l 9,-0.4833 c 19.94616,-1.07111 53.5,-0.10215 53.5,1.54495 0,2.54467 -9.43326,3.20102 -33.5,2.33089 -1.65,-0.0597 -3.225,-0.0455 -3.5,0.0316 -0.275,0.077 -6.11891,0.367 -12.98647,0.64443 -6.86756,0.27743 -12.86927,0.88721 -13.33713,1.35507 -1.5725,1.5725 1.60608,2.39972 8.23822,2.14398 7.12751,-0.27485 17.97356,-0.888 19.58538,-1.1072 0.55,-0.0748 8.0014,-0.0678 16.55866,0.0156 8.55726,0.0834 16.18053,0.0104 16.94061,-0.16219 0.76007,-0.17258 1.54923,0.44807 1.75369,1.37921 0.51732,2.35606 -2.18261,2.66218 -29.25296,3.31672 -12.65,0.30587 -24.575,0.84642 -26.5,1.20122 -1.925,0.35481 -4.58529,0.6775 -5.91175,0.71709 -1.32646,0.0396 -2.58337,0.5802 -2.79313,1.20137 -0.55393,1.64035 7.34554,2.31535 29.20488,2.49551 29.55661,0.24361 29.50043,0.24046 29.5002,1.65648 -3.2e-4,2.02651 -1.00186,2.10826 -29.66705,2.42163 -30.95853,0.33844 -28.88725,-0.19813 -26.57717,6.88489 4.43086,13.58561 5.20794,13.95145 29.19029,13.74205 11.23936,-0.0981 17.56869,0.21493 17.79037,0.87998 0.57849,1.73547 -8.07326,3.28476 -18.92946,3.38975 -5.66895,0.0548 -11.43218,0.4199 -12.80718,0.81128 l -2.5,0.71161 2.18426,1.18871 c 1.20134,0.6538 5.56648,1.18872 9.70031,1.18872 5.90861,0 7.7112,0.34872 8.42854,1.63054 0.98446,1.75913 0.67905,1.71876 25.18689,3.32912 8.525,0.56015 20.225,1.51414 26,2.11997 13.56156,1.42267 72.66156,0.81126 75.52324,-0.78131 1.11278,-0.61928 4.48778,-1.23785 7.5,-1.3746 3.51124,-0.1594 7.09174,-1.1206 9.97676,-2.6783 7.39551,-3.99305 7.2523,-4.52247 -1,-3.69685 -4.125,0.41269 -10.2,0.62209 -13.5,0.46533 -8.79547,-0.41783 -10.12919,-0.3628 -19.94715,0.82307 -9.09917,1.09904 -12.00517,0.50533 -10.95257,-2.23769 0.69265,-1.80502 17.77385,-3.93378 25.41121,-3.1669 11.56474,1.16123 34.37877,-1.40105 35.36532,-3.97195 0.6378,-1.66209 -4.41671,-1.49347 -17.37681,0.57969 -3.025,0.48389 -12.925,1.15455 -22,1.49034 -9.075,0.33579 -18.26527,0.80945 -20.42283,1.05257 C 630.79183,413.12226 628,412.33695 628,410.45166 c 0,-2.13415 8.72784,-3.18541 33,-3.97481 13.64538,-0.44378 30.26754,-2.09086 36.1758,-3.58463 3.24255,-0.81981 3.85192,-1.48702 5.17009,-5.66078 3.56893,-11.30043 2.98954,-16.65495 -1.37479,-12.70529 -3.00108,2.71594 -76.9711,3.11151 -76.9711,0.41162 0,-3.57988 4.07263,-4.08278 28.46429,-3.51486 16.30759,0.3797 21.8935,0.24504 19.125,-0.46104 -2.15089,-0.54857 -5.30089,-1.81357 -7,-2.81112 -3.12439,-1.83433 -13.22077,-1.77728 -39.83929,0.22511 -6.56403,0.49379 -6.75,0.44297 -6.75,-1.84427 0,-2.36639 6.97049,-3.55354 19.5,-3.32106 7.1689,0.13301 19.65303,-0.64912 20.02731,-1.25472 1.57487,-2.54819 -2.32663,-4.14093 -7.59362,-3.10002 -2.98853,0.59063 -8.35869,0.85635 -11.93369,0.59051 -3.575,-0.26585 -10.23337,0.0505 -14.79637,0.70308 -7.25446,1.03745 -8.49358,0.98924 -9.86667,-0.38385 -2.85744,-2.85744 1.81462,-4.08774 17.16304,-4.51953 7.7,-0.21663 15.125,-0.52757 16.5,-0.69098 1.375,-0.16342 3.48909,-0.35515 4.69798,-0.42607 1.99835,-0.11724 2.10299,-0.40143 1.15218,-3.12895 -0.99438,-2.85246 -0.76483,-4.29441 1.61558,-10.14845 0.50293,-1.23684 0.0915,-1.67593 -1.64772,-1.75853 -1.27491,-0.0605 -8.60384,-0.2887 -16.28651,-0.50701 -7.68267,-0.21831 -14.08785,-0.77698 -14.23374,-1.24147 -0.83208,-2.64922 1.68847,-3.50147 9.81161,-3.31751 23.70332,0.53682 27.21672,0.44799 27.6064,-0.69796 C 660.4397,341.2002 639.31006,339.8223 624,341 c -6.15498,0.47346 -6.51696,0.38057 -6.81955,-1.75 -0.25858,-1.82071 0.15945,-2.25 2.19098,-2.25 1.3808,0 2.78865,-0.45 3.12857,-1 0.33992,-0.55 -0.0284,-1 -0.81854,-1 -2.17101,0 -4.22134,-2.86012 -2.95683,-4.12463 3.0821,-3.0821 38.27537,-1.57916 38.27537,1.63456 0,2.40213 7.37241,2.84703 11.6505,0.70306 3.53827,-1.77322 8.40013,-3.44051 10.8495,-3.72065 0.55,-0.0629 3.475,-0.83929 6.5,-1.72529 3.025,-0.886 10.45,-1.91213 16.5,-2.2803 12.34019,-0.75095 11.90918,-0.62217 11.05805,-3.30384 -0.81703,-2.57423 -5.81389,-4.59357 -9.30021,-3.75841 -1.51681,0.36335 -4.61188,1.06697 -6.87792,1.5636 -5.37455,1.17788 -20.45559,5.92749 -22.37992,7.0483 -13.84789,8.06566 -13,7.71242 -13,5.41585 0,-3.32581 7.67938,-8.27472 18.5,-11.92217 2.75,-0.92698 5.91372,-2.12364 7.03048,-2.65924 1.11677,-0.53561 4.26677,-1.31045 7,-1.72187 L 699.5,315.40093 696,314.25725 c -6.43762,-2.10359 -11.04441,-1.82332 -23.79059,1.44738 -7.05841,1.81121 -9.70215,0.91527 -7.53569,-2.55378 1.04038,-1.66591 0.63829,-1.79373 -5.4265,-1.72504 -7.05247,0.0799 -9.48515,-1.62445 -4.83966,-3.39066 4.50966,-1.71457 15.70178,-2.47627 16.53664,-1.12543 1.12776,1.82475 5.20313,0.39329 9.01034,-3.16487 4.12475,-3.8549 3.04451,-4.39209 -5.85218,-2.91022 -26.02505,4.33486 -31.25125,4.32291 -29.56645,-0.0676 0.45704,-1.19103 2.68613,-1.70268 9.28278,-2.1307 4.77472,-0.30981 10.48131,-0.81637 12.68131,-1.1257 2.2,-0.30933 7.68512,-0.80917 12.18917,-1.11075 5.37333,-0.35979 8.60293,-1.04689 9.3925,-1.99826 1.82752,-2.20204 1.24869,-2.25275 -10.44069,-0.91478 -5.97246,0.68361 -12.7816,1.02623 -15.13142,0.76137 -2.34982,-0.26486 -5.83208,0.0332 -7.73836,0.66231 -4.12725,1.36211 -6.7712,0.58178 -6.7712,-1.99844 0,-2.48155 1.51473,-2.73178 20.5,-3.38659 24.43411,-0.84275 24.58946,-0.92685 26.14414,-14.15477 l 0.62851,-5.34763 -8.38632,0.59151 c -21.12615,1.49008 -33.45981,0.66048 -34.60649,-2.32772 -0.88637,-2.30984 1.51742,-3.12382 6.07065,-2.05566 4.45886,1.04603 33.79697,0.41373 35.71173,-0.76965 2.99976,-1.85396 -2.95523,-2.53867 -20.56222,-2.36429 -22.41827,0.22205 -21.5,0.28775 -21.5,-1.53824 0,-2.34151 1.04161,-2.5157 17.41682,-2.91261 8.60718,-0.20863 15.88205,-0.61195 16.16637,-0.89626 0.28432,-0.28432 2.09288,-0.16151 4.01902,0.2729 2.49744,0.56327 3.39289,0.4581 3.12144,-0.3666 -0.43015,-1.30684 -9.85063,-2.34024 -23.22365,-2.54755 -10.27329,-0.15926 -12.66723,-0.99755 -10.45634,-3.6615 1.26738,-1.52711 2.95646,-1.63167 16.1857,-1.00196 14.41081,0.68596 18.33737,-0.12304 13.90199,-2.86426 -0.47775,-0.29527 -1.15126,-2.30421 -1.49667,-4.46431 l -0.62803,-3.92745 -4.00332,0.53696 C 680.46285,240.06713 679,239.86701 679,239.17872 679,237.52594 681.22622,233 682.03919,233 c 0.395,0 1.27736,-1.35 1.96081,-3 0.68345,-1.65 1.57434,-3 1.97974,-3 0.62574,0 7.85429,-10.00156 8.85359,-12.25 0.53404,-1.20159 -4.10294,-0.86756 -8.90519,0.64149 -2.43548,0.76532 -7.12814,1.93323 -10.42814,2.59536 -3.3,0.66213 -7.03367,1.61096 -8.29705,2.10851 -1.26338,0.49755 -3.43218,0.90464 -4.81955,0.90464 -6.71045,0 1.4628,-8.3253 9.23931,-9.4112 5.052,-0.70545 9.84661,-1.84808 10.87729,-2.59221 0.55,-0.39709 3.78394,-0.99889 7.18654,-1.33732 3.4026,-0.33844 7.9026,-0.88168 10,-1.2072 5.70958,-0.88614 8.47498,1.38481 5.53246,4.54324 -1.16561,1.25113 -2.82916,3.67651 -3.69679,5.38973 -0.86762,1.71323 -1.96291,3.78996 -2.43397,4.61496 -0.47105,0.825 -1.3132,2.625 -1.87143,4 -3.0809,7.58866 -3.49535,9.21087 -2.51453,9.84236 0.56178,0.3617 1.25554,2.00764 1.54168,3.65764 0.9756,5.6258 6.65119,19.94997 8.45607,21.34163 1.27996,0.98692 1.43885,1.52325 0.54997,1.85646 C 703.76656,262.25418 703.55866,265 705,265 c 0.55,0 1,0.675 1,1.5 0,0.825 -0.45,1.5 -1,1.5 -0.55,0 -1,2.16 -1,4.8 0,2.64 -0.37414,5.2275 -0.83142,5.75 -0.45728,0.5225 -1.40344,2.95628 -2.10258,5.40839 -1.41806,4.97364 -6.6748,13.66896 -11.13661,18.42137 l -2.92945,3.12024 9.25003,0.78071 c 22.28274,1.88067 33.0073,13.91271 27.21751,30.53572 -0.82687,2.37403 -1.2777,4.68162 -1.00185,5.12796 0.27586,0.44635 -1.40355,2.06902 -3.73203,3.60592 -2.32848,1.53691 -5.99079,4.46199 -8.13846,6.50019 l -3.90485,3.70581 2.1158,2.97136 c 3.07105,4.3129 1.47259,10.27233 -2.75527,10.27233 -2.24922,0 -3.06899,-0.61337 -3.86267,-2.89011 -0.55412,-1.58955 -2.38403,-3.70324 -4.06646,-4.69708 -4.8777,-2.88133 -4.21017,-6.16065 1.91971,-9.43076 3.17886,-1.69582 11.03017,-8.24382 10.50926,-8.76472 -2.72577,-2.72577 -36.82064,-2.25178 -39.80661,0.5534 C 669.43893,344.99683 667.77788,346 667.05284,346 664.50688,346 662,350.18814 662,354.44157 662,361.95743 668.90039,372 674.06465,372 c 1.47975,0 3.25066,0.675 3.93535,1.5 0.68469,0.825 1.97729,1.51431 2.87244,1.5318 4.24546,0.083 6.7837,5.81817 2.71089,6.1253 -1.14583,0.0864 0.16667,0.42952 2.91667,0.76246 6.23437,0.7548 6.11692,0.84915 3.05538,-2.4543 -4.79353,-5.17231 0.0582,-11.61917 5.36588,-7.12995 4.05057,3.42599 7.75798,3.97683 14.06012,2.08905 6.30109,-1.88748 6.90173,-2.67268 4.48682,-5.86549 C 710.77057,364.99229 712.04914,361 715.88901,361 c 8.48544,0 8.0919,14.77556 -0.48034,18.03472 -1.45121,0.55175 -2.30807,1.61082 -2.17468,2.68789 1.16663,9.42019 -4.73891,23.36423 -13.98399,33.01867 -2.9629,3.0941 -3.20998,2.8618 4.5,4.23083 3.7125,0.65921 8.1,1.58784 9.75,2.06362 1.65,0.47578 14.25,1.13287 28,1.46019 26.92322,0.64092 32.64071,1.44857 34.3432,4.8513 5.14321,10.2796 -7.2644,25.44358 -23.86796,29.17026 -4.11138,0.92281 -8.40989,2.03877 -9.55223,2.47991 -4.21609,1.62814 -36.68956,-0.93576 -38.87301,-3.06916 C 703.0275,455.4177 701.35369,455 699.83042,455 c -1.52327,0 -4.27621,-0.84622 -6.11765,-1.88049 -1.84143,-1.03427 -4.78012,-2.19503 -6.53041,-2.57946 C 685.43206,450.15562 684,449.42684 684,448.92054 684,448.41425 683.1,448 682,448 c -1.1,0 -2,-0.4151 -2,-0.92245 0,-0.50734 -1.575,-1.44224 -3.5,-2.07755 -2.00364,-0.66126 -3.56512,-1.87013 -3.65231,-2.82755 -0.0838,-0.91985 -0.19628,-2.34745 -0.25,-3.17245 -0.22025,-3.38193 -8.97923,-2.29989 -10.03004,1.23906 -1.09319,3.68169 -2.58951,14.53261 -3.5524,25.76094 -0.49523,5.775 -1.37037,14.64105 -1.94474,19.70233 -0.57438,5.06129 -0.79371,9.78629 -0.4874,10.5 C 657.3259,497.93307 668.5118,507 669.90423,507 670.5069,507 671,507.35111 671,507.78023 c 0,0.42913 2.47259,2.56663 5.49465,4.75 3.02205,2.18338 5.49705,4.2795 5.5,4.65805 0.003,0.37856 1.35535,2.16634 3.00535,3.97286 8.95992,9.80986 -6.53606,29.30887 -27.76644,34.93926 -4.57983,1.2146 -39.85689,2.22862 -43.39667,1.24742 z m 23.95846,-6.99542 6.29535,-0.5213 -3.60959,-6.56683 c -3.46348,-6.30104 -3.52458,-8.179 -0.26837,-8.24896 0.8231,-0.0177 8.12951,10.62728 9.08392,13.23469 1.35293,3.69613 9.80859,1.71338 18.94179,-4.44161 14.97182,-10.08972 14.85287,-13.38249 -0.95378,-26.40273 -3.94323,-3.24811 -9.71334,-7.70295 -12.82248,-9.89964 -7.52927,-5.31964 -7.6723,-5.70054 -6.40577,-17.05895 1.27945,-11.47416 1.63228,-10.89187 -5.10711,-8.42854 -7.45523,2.72498 -15.94931,2.72526 -15.94931,5.2e-4 0,-2.0306 0.72648,-2.33071 8.5,-3.51133 10.20459,-1.54985 14.5,-2.95255 14.5,-4.73511 0,-2.16656 -1.93178,-2.2267 -8.40893,-0.26179 C 634.19714,475.75385 627,475.53099 627,473.05902 c 0,-2.77537 0.95196,-3.11083 11.71846,-4.12944 C 651.94888,467.67785 652,467.65436 652,462.82562 c 0,-3.45146 -0.25479,-3.93607 -1.75,-3.3285 -2.64458,1.07461 -14.13379,3.49572 -19.5,4.10922 -5.24876,0.60007 -6.96673,-1.80752 -2.5,-3.50355 3.35446,-1.2737 15.68625,-4.32699 20.22315,-5.00715 4.25822,-0.63838 4.60063,-1.38888 5.89448,-12.9197 0.62487,-5.5689 -2.14818,-5.80293 -18.70435,-1.57855 -7.7898,1.98761 -15.28828,3.82092 -16.66328,4.07404 -7.27663,1.33952 -20.62366,4.75313 -21.45,5.48601 C 597.0275,450.62085 595.31042,451 593.73426,451 589.53335,451 587,452.70609 587,455.53518 c 0,2.43986 0.0925,2.46482 9.13398,2.46482 10.60296,0 24.82844,3.80473 15.11602,4.04292 -6.74374,0.16538 -21.14398,0.66408 -23,0.79652 -1.66434,0.11877 -2.25,0.78583 -2.25,2.56273 0,3.26803 3.55879,4.24579 13.12853,3.60703 8.93255,-0.59624 10.87147,-0.33636 10.87147,1.45714 0,1.50451 -2.72448,2.82197 -4.09024,1.97789 -0.50037,-0.30925 -0.90976,-0.1759 -0.90976,0.29633 0,0.47223 -3.2625,0.96283 -7.25,1.09023 -9.81898,0.3137 -15.21807,3.55396 -9.5,5.70143 2.42643,0.91126 8.28428,1.08967 11.0573,0.33675 C 602.34391,479.04448 605,479.64592 605,481.15802 605,482.89535 598.12376,485 592.44759,485 h -5.61664 l 0.52952,11.93201 c 0.5785,13.03584 1.42989,15.59577 8.42522,25.33277 2.0095,2.79707 4.34228,6.31216 5.18397,7.81132 3.81134,6.7885 15.11739,18.69755 18.43656,19.41985 1.15158,0.2506 3.44378,0.57903 5.09378,0.72984 1.65,0.15082 3.9,0.35829 5,0.46106 1.1,0.10277 4.83291,-0.0477 8.29535,-0.33445 z m 95.1659,-101.76199 c 1.03959,-2.42527 2.14027,-5.68777 2.44596,-7.25 0.30569,-1.56223 0.84015,-4.0704 1.18768,-5.57373 0.34754,-1.50333 0.3729,-3.40824 0.0564,-4.23314 -0.84651,-2.20597 -3.79919,-0.67425 -3.55557,1.84447 0.33792,3.49372 -1.293,14.62591 -2.22737,15.20338 -0.93308,0.57668 -1.22242,4.41861 -0.33276,4.41861 0.29454,0 1.38611,-1.98432 2.42571,-4.40959 z m -6.8151,0.65959 C 731.1776,436.63293 728.2716,429 718.43657,429 c -4.02519,0 -7.59665,-0.45 -7.93657,-1 -2.4837,-4.01872 -11.5,-0.1189 -11.5,4.9741 0,1.15807 -0.9507,3.96911 -2.11268,6.24676 -2.26313,4.43612 -1.19039,6.77914 3.10381,6.77914 0.88488,0 2.09987,0.491 2.69998,1.09111 4.38255,4.38255 21.92441,5.99717 23.45504,2.15889 z m 30.05585,-0.12226 c 18.24763,-7.82185 15.01888,-20.12142 -4.89206,-18.63579 -10.26767,0.76612 -9.14155,-0.27008 -10.82603,9.96154 -0.35799,2.17441 -1.55186,5.71953 -2.65304,7.87804 l -2.00216,3.92455 7.95878,-0.6092 c 4.37733,-0.33506 9.96386,-1.46867 12.41451,-2.51914 z M 694.31556,433.28379 C 695.78111,428.83211 695.64302,426 693.9604,426 c -0.45409,0 -1.11725,1.0125 -1.47368,2.25 -0.35643,1.2375 -1.52454,4.18479 -2.59579,6.54953 -1.07126,2.36474 -1.66528,4.75656 -1.32006,5.31514 1.06286,1.71974 4.13063,-1.92808 5.74469,-6.83088 z M 684,436.90437 c 0,-0.6026 0.83438,-2.2901 1.85417,-3.75 3.6645,-5.24597 3.50301,-11.3687 -0.20212,-7.66356 -0.83006,0.83005 -2.18978,1.50919 -3.0216,1.50919 -1.93955,0 -2.98778,1.66113 -1.59243,2.5235 0.7175,0.44344 0.51432,1.51077 -0.61596,3.23579 -1.59381,2.43246 -1.58628,2.64746 0.13679,3.9074 2.21451,1.61929 3.44115,1.70401 3.44115,0.23768 z M 689.5,337.5 c 6.6,0 15.04186,0.34911 18.75969,0.77579 6.54465,0.75112 6.79522,0.69779 7.87691,-1.67626 3.85794,-8.46724 -7.86925,-9.4891 -35.53309,-3.09621 -8.13251,1.87936 -14.2729,6.03834 -6.93471,4.69699 C 675.77596,337.81514 682.9,337.5 689.5,337.5 Z m -38.75,-1.01911 c 4.58809,-1.05831 2.62779,-3.64922 -2.55298,-3.37425 -2.64164,0.14021 -5.27887,-0.0392 -5.86052,-0.39867 -0.58165,-0.35948 -1.38281,-0.32833 -1.78035,0.0692 -0.91202,0.91201 -1.1981,0.94669 -9.05615,1.09781 -9.89826,0.19035 -7.7512,1.76899 2.67372,1.96586 5.04555,0.0953 9.2981,0.29762 9.45011,0.44963 0.57237,0.57237 4.96176,0.68965 7.12617,0.1904 z M 529.5,535.21177 c -5.27586,-1.87759 -16.49639,-8.62504 -17.00437,-10.22555 -0.31447,-0.9908 -1.2093,-2.0461 -1.98852,-2.34512 -3.58088,-1.37411 -8.03663,-15.30799 -6.55129,-20.48704 1.06805,-3.72408 2.32948,-5.04885 7.04418,-7.39789 1.925,-0.95911 4.175,-2.18905 5,-2.73321 1.65477,-1.09145 15.93317,-7.94158 16.28165,-7.81119 3.81052,1.42575 5.92995,-7.51929 3.78196,-15.96177 -0.035,-0.1375 -0.71205,-0.25 -1.50459,-0.25 -2.60794,0 -2.93836,-2.27441 -0.60492,-4.16392 1.81852,-1.47255 2.1544,-2.48867 1.68186,-5.08805 -1.1988,-6.59438 -1.06159,-14.53025 0.27915,-16.14575 3.76334,-4.53454 8.08489,-0.0578 8.08489,8.3752 0,4.09733 4.62039,6.02252 14.45385,6.02252 2.48277,0 4.79634,0.59653 5.47226,1.41097 1.88504,2.27134 -0.20189,2.77813 -10.14398,2.4634 -14.20841,-0.4498 -13.95618,4.51125 0.27123,5.33486 13.89414,0.80432 13.82559,4.27194 -0.0791,4.00001 L 545,470.03372 v 2.78314 c 0,4.28304 1.66591,5.18314 9.59301,5.18314 12.23033,0 11.54303,3.59135 -0.88841,4.64219 -6.36764,0.53827 -7.92053,1.0535 -10.53248,3.49458 -1.68501,1.57478 -3.39472,2.86323 -3.79937,2.86323 -1.05751,0 -16.68065,6.3526 -17.87275,7.26732 -0.55,0.42203 -2.575,1.78639 -4.5,3.03192 -7.94733,5.14216 -3.69545,16.03243 9.15585,23.45076 2.14381,1.2375 4.021,2.25 4.17155,2.25 0.15054,0 2.86512,-3.15 6.03239,-7 3.52429,-4.28396 6.51171,-7 7.69945,-7 2.92235,0 2.34569,2.19987 -1.5854,6.04814 -3.10414,3.03873 -6.47384,7.90821 -6.47384,9.3552 0,3.2069 16.27478,1.44357 22,-2.38365 8.34238,-5.57674 20.21804,-10.23029 21.8619,-8.56672 1.6374,1.65704 -3.2668,7.43786 -6.37977,7.52013 -0.55982,0.0148 -2.76,1.21071 -4.88927,2.65759 -12.67932,8.61582 -29.92714,12.843 -39.09286,9.58108 z M 485.69848,355.65662 c -0.28379,-0.73953 -3.19739,-1.91364 -6.47468,-2.60913 -12.52916,-2.65886 -32.66681,-20.42141 -30.88346,-27.24095 0.32051,-1.22561 -0.37961,-1.87589 -2.52758,-2.34766 -1.63397,-0.35889 -4.62279,-2.47668 -6.64181,-4.70621 -2.01902,-2.22954 -4.92166,-5.25643 -6.4503,-6.72644 -1.85696,-1.78573 -2.75562,-3.64405 -2.70785,-5.59949 0.0393,-1.60971 -0.43568,-5.62674 -1.05556,-8.92674 -6.69976,-35.66654 35.87984,-74.5748 57.30146,-52.36075 1.51728,1.57341 3.63361,2.86075 4.70294,2.86075 5.3043,0 11.03836,4.23067 11.03836,8.14426 0,6.5785 -6.35645,17.44389 -11.2073,19.15719 -2.75101,0.97164 -7.27409,8.783 -5.66246,9.77905 1.04745,0.64735 0.88419,1.40871 -0.7867,3.6687 -3.48653,4.71579 -1.02937,6.91338 4.22591,3.7795 8.75239,-5.21929 27.01849,-6.63408 35.68055,-2.76361 4.45681,1.99144 5.84383,1.87982 3.91528,-0.31509 -3.66154,-4.16724 -5.83015,-19.61064 -3.99883,-28.47701 1.65162,-7.99632 -2.83092,-10.20657 -9.13298,-4.50328 -2.28209,2.06526 -5.03347,1.94 -5.03347,-0.22916 0,-1.80352 1.95409,-3.3622 7.86521,-6.27368 l 3.36522,-1.65751 -4.36522,-1.77919 c -2.40086,-0.97856 -5.81003,-1.73753 -7.57593,-1.68661 -3.88649,0.11207 -5.27374,-1.65054 -2.75093,-3.49526 4.92396,-3.60049 19.43986,2.07854 20.59388,8.05689 0.31831,1.64899 0.56443,1.53723 1.83013,-0.83105 3.01292,-5.63754 14.21606,-17.37065 20.22459,-21.18132 l 3.68695,-2.33831 -1.61318,-3.2337 c -2.71269,-5.43773 -6.4583,-9.0162 -8.94061,-8.54167 -1.31545,0.25146 -2.44203,-0.15447 -2.76508,-0.99634 -0.37289,-0.97172 -1.2578,-1.19357 -2.8001,-0.70198 -1.24021,0.39529 -3.15493,0.8081 -4.25493,0.91735 -2.9618,0.29416 -6.5,1.63211 -6.5,2.45795 0,1.81545 -4.84549,2.93498 -6.10976,1.41163 -1.44644,-1.74286 -1.18674,-1.98822 6.16855,-5.82786 12.11339,-6.32348 22.61806,-4.0389 27.86678,6.06055 2.89569,5.57181 6.89875,6.22708 7.21954,1.18178 0.47646,-7.49382 0.26726,-9.77987 -0.89511,-9.781 -2.0644,-0.002 -1.41377,-3.22084 1.20316,-5.95233 2.00166,-2.08928 2.52015,-3.8029 2.81715,-9.31077 0.34617,-6.41969 1.96355,-9.57737 4.9716,-9.70632 0.77151,-0.0331 23.27718,16.37807 25.55591,18.63537 1.91938,1.90133 -0.2253,5.33283 -3.333,5.33283 -1.35565,0 -2.46833,-0.3375 -2.47262,-0.75 -0.004,-0.4125 -1.18612,-1.29698 -2.62627,-1.96551 C 583.68066,203.03798 576,204.4895 576,206.24348 576,206.65957 575.35156,207 574.55902,207 c -0.79254,0 -1.73526,0.47614 -2.09492,1.05809 -0.44052,0.71277 1.09044,0.91675 4.69098,0.62501 2.93971,-0.23819 6.27917,-0.0802 7.42104,0.35105 1.17084,0.44222 4.5316,0.21333 7.70744,-0.52492 6.8401,-1.59003 33.57525,-1.99862 38.01696,-0.581 1.75971,0.56163 5.89948,1.65853 9.19948,2.43756 14.55139,3.43513 22.6676,11.02872 12,11.22728 -2.75,0.0512 -5.675,-0.23381 -6.5,-0.63333 -6.76624,-3.27665 -11.03456,-4.32988 -24.31619,-6.00016 -8.90851,-1.12033 -14.15633,-0.98429 -27.18381,0.70469 -1.65,0.21391 -5.925,0.65525 -9.5,0.98074 -3.575,0.3255 -6.95,0.92648 -7.5,1.33551 -0.55,0.40904 -2.2375,1.03933 -3.75,1.40064 -1.5125,0.36132 -2.75,1.09837 -2.75,1.63789 0,0.53952 -0.58552,0.98095 -1.30116,0.98095 -1.09268,0 -11.848,6.49914 -15.18569,9.17629 -26.59711,21.33344 -29.81777,44.08126 -9.2874,65.59763 5.63004,5.90043 5.9006,6.40319 4.54475,8.4452 -2.14158,3.2254 -2.99231,3.16932 -8.53826,-0.56284 -3.45129,-2.32254 -5.8458,-3.26165 -7.50685,-2.94412 -1.57662,0.30139 -4.99329,-0.87178 -9.66271,-3.31786 -10.50004,-5.50045 -22.85827,-4.8507 -36.97632,1.94406 -1.80717,0.86976 -2.51029,0.87397 -2.7983,0.0167 -0.49591,-1.47601 -4.03028,-0.30708 -15.28806,5.05626 -4.675,2.22722 -8.90876,3.92205 -9.40836,3.76628 -0.4996,-0.15577 -1.1746,0.0824 -1.5,0.52915 -0.3254,0.44679 -2.32856,1.70805 -4.45146,2.80278 -4.27875,2.20647 -5.48436,4.04625 -3.77296,5.75765 0.62303,0.62303 1.13278,1.99788 1.13278,3.05522 0,1.56282 0.27028,1.69814 1.44481,0.72336 1.1731,-0.97359 1.97234,-0.59097 4.25,2.03459 7.20445,8.30489 15.26561,15.85877 18.90529,17.7156 l 3.99908,2.04017 1.85265,-4.16808 c 3.44901,-7.75959 5.52623,-17.1263 6.19128,-27.91808 0.582,-9.44428 0.88133,-10.75 2.46437,-10.75 3.16272,0 3.2071,22.55718 0.0541,27.5 -0.56183,0.88075 -4.28941,10.94644 -5.83264,15.75 -0.46188,1.4377 0.055,1.75 2.89613,1.75 3.20023,0 3.55434,-0.3172 4.74447,-4.25 2.81007,-9.28584 4.32935,-17.70765 4.91583,-27.25 0.48669,-7.9186 0.92483,-10 2.105,-10 2.72182,0 3.36669,8.22691 1.50037,19.14116 -2.6182,15.31127 -2.72608,15.82742 -3.41899,16.35884 -2.33875,1.79367 -3.14068,10 -0.97721,10 C 497.72971,350 504,326.91794 504,317.21745 504,312.77568 505.23065,310 507.2,310 c 2.78666,0 -0.3216,23.98662 -4.59964,35.49567 -1.4302,3.84761 -2.60036,7.05836 -2.60036,7.13499 0,2.59177 -13.38166,5.4231 -14.30152,3.02596 z M 449.25733,309.25 c 2.88347,-1.5125 5.39267,-3.0875 5.576,-3.5 0.18334,-0.4125 1.08334,-0.76008 2,-0.77241 C 457.75,304.96527 461.2,303.62535 464.5,302 c 3.3,-1.62535 6.5074,-2.96527 7.12756,-2.97759 1.84045,-0.0366 3.33345,-2.46747 2.42161,-3.94286 -0.56767,-0.9185 -1.75425,-1.13283 -3.6928,-0.66703 -1.571,0.37749 -3.6347,0.80494 -4.586,0.94988 -0.95129,0.14494 -2.03879,0.57269 -2.41667,0.95056 -0.37787,0.37787 -1.71048,0.68704 -2.96135,0.68704 -1.25087,0 -2.52823,0.41084 -2.83857,0.91299 -0.31034,0.50214 -2.34866,1.21446 -4.52958,1.58292 -2.18093,0.36847 -4.99107,1.47072 -6.24476,2.44945 -1.25369,0.97874 -3.29194,2.09675 -4.52944,2.48447 -2.25304,0.7059 -3.26007,4.57017 -1.19098,4.57017 0.58246,0 0.80465,0.41157 0.49377,0.91459 -0.46371,0.75029 0.26151,1.41035 2.20454,2.00646 0.14153,0.0434 2.61653,-1.15855 5.5,-2.67105 z m -4.81886,-11.14942 c 2.71616,-1.2584 5.69925,-2.43452 6.6291,-2.61359 0.92985,-0.17908 3.88254,-1.08201 6.56153,-2.00653 2.679,-0.92451 5.3209,-1.77582 5.8709,-1.89179 0.55,-0.11596 1.9,-0.47903 3,-0.80681 1.1,-0.32778 3.2375,-0.87137 4.75,-1.20797 5.08977,-1.1327 3.10929,-2.806 -2.5,-2.11225 -6.82255,0.8438 -15.84708,2.49674 -17.75,3.2511 -0.825,0.32705 -2.24615,0.50419 -3.15812,0.39365 C 445.69081,290.84566 436,296.80275 436,298.38577 c 0,1.65097 2.25426,3.79692 2.94443,2.80295 0.30556,-0.44007 2.77788,-1.82973 5.49404,-3.08814 z m 9.07045,-13.11122 c 1.65491,-0.51946 7.50491,-1.22921 13,-1.57723 6.17055,-0.39079 10.53041,-1.14356 11.40147,-1.96855 1.66727,-1.57908 4.05317,-8.05464 4.07455,-11.05872 0.008,-1.16333 0.96699,-3.32532 2.13045,-4.80443 2.60092,-3.30653 6.42344,-3.23393 6.31055,0.11985 -0.0934,2.77334 1.1337,2.05196 3.15353,-1.85395 2.464,-4.76487 -2.71726,-9.66908 -8.59219,-8.13275 -1.60567,0.41989 -2.86478,-0.32245 -5.05619,-2.98101 -13.57967,-16.4745 -44.85869,6.81661 -44.92027,33.44872 l -0.0108,4.68129 7.75,-2.46438 c 4.2625,-1.35541 9.10402,-2.88939 10.75892,-3.40884 z M 578,200 c 0,-0.55 -0.42344,-1 -0.94098,-1 -0.51754,0 -1.2191,0.45 -1.55902,1 -0.33992,0.55 0.0835,1 0.94098,1 0.85746,0 1.55902,-0.45 1.55902,-1 z m 18.66667,96.33333 C 595.14859,294.81526 596.14699,293 598.5,293 c 1.83333,0 2.5,0.53333 2.5,2 0,1.95113 -2.84129,2.82537 -4.33333,1.33333 z M 562.86022,292.75 c -0.0769,-0.6875 -0.0393,-2.92654 0.0836,-4.97564 0.21645,-3.6101 0.0557,-3.79977 -5.18255,-6.11639 C 539.97726,273.79303 550.96676,250 572.38344,250 h 4.99074 l -2.68709,-2.80472 C 570.62507,242.95544 571.1011,241 576.19528,241 c 3.15431,0 4.86793,-0.64444 6.90615,-2.59718 1.93264,-1.85158 3.31196,-2.40639 4.80472,-1.93261 2.7871,0.88459 2.64024,2.31216 -0.49126,4.7754 -2.17953,1.71441 -2.48582,2.56274 -1.95224,5.40698 0.47092,2.51023 0.24595,3.522 -0.87911,3.95372 -1.15093,0.44166 -0.44595,1.63114 2.95224,4.98122 C 596.89762,264.81683 585.22704,285 570.52852,285 569.50635,285 569,285.96672 569,287.91821 c 0,5.17728 -5.60767,9.59032 -6.13978,4.83179 z m 10.55621,-24.2628 c 1.59593,-2.43569 1.56677,-2.54309 -0.95009,-3.5 -5.66319,-2.15314 -10.90629,-0.15048 -6.86912,2.62373 1.04653,0.71914 2.35278,1.75338 2.90278,2.2983 1.67056,1.65514 3.18772,1.21632 4.91643,-1.42203 z m 16.28481,24.8807 C 587.94322,291.60989 589.05957,289 591.56955,289 c 2.08969,0 2.50988,0.41827 2.25,2.23978 -0.31628,2.21686 -2.76448,3.48195 -4.11831,2.12812 z m 12.75832,-1.85442 c -1.94608,-1.50307 -1.94608,-1.52389 0,-3.02696 C 605.00338,286.52179 606.5,287.0824 606.5,290 c 0,2.9176 -1.49662,3.47821 -4.04044,1.51348 z M 619,259.53539 c -1.375,-0.78931 -4.1875,-2.18154 -6.25,-3.09383 -5.07296,-2.2439 -4.90566,-4.69908 0.5,-7.33752 2.3375,-1.1409 5.32051,-3.65604 6.6289,-5.5892 2.46405,-3.64064 6.1211,-4.76556 6.1211,-1.88287 0,1.7656 -3.51401,7.94113 -5.89963,10.36803 -1.30168,1.32419 -1.24746,1.53455 0.46257,1.79479 3.22345,0.49055 6.81977,3.76551 6.12454,5.57725 -0.76916,2.00438 -4.34792,2.08042 -7.68748,0.16335 z"
       id="path5383"
       sodipodi:nodetypes="ssssssssscsssssssssssssssssssssssssssscsssssssscsssscssssssssssssssssssssssscssssssssssssssssssssssssssssssssssssssssssssssssssssssssssssssscssssssssssssssssssscssssssssssssssscssssssssssssssssssssssssssssscssssscsssssssssssssssssssssssssssssssssssssssssssssssssscsssssssssssssssssssssssssssssssssssssscsssssssssssssssssssssssssssscssssssssssssssssssssssssssssssssssssssssssssssssscssssssssssssssssssssssssssssssssssssssscsssssscsssssssssssssssscssssssssssssssssssssssssssssssssssscsssssssssssssssssssssssssssssssssssssssssssssssssscsssssscsssssssssssssssscsssssssssssssssssssssssssssssssss" />
  </g>
</svg>
