<?xml version="1.0" encoding="UTF-8" standalone="no"?>
<svg
   xmlns:dc="http://purl.org/dc/elements/1.1/"
   xmlns:cc="http://creativecommons.org/ns#"
   xmlns:rdf="http://www.w3.org/1999/02/22-rdf-syntax-ns#"
   xmlns:svg="http://www.w3.org/2000/svg"
   xmlns="http://www.w3.org/2000/svg"
   xmlns:sodipodi="http://sodipodi.sourceforge.net/DTD/sodipodi-0.dtd"
   xmlns:inkscape="http://www.inkscape.org/namespaces/inkscape"
   inkscape:version="1.0 (4035a4fb49, 2020-05-01)"
   sodipodi:docname="waow-line.svg"
   viewBox="0 0 533.33331 374.39999"
   height="374.39999"
   width="533.33331"
   id="svg901"
   version="1.1">
  <metadata
     id="metadata907">
    <rdf:RDF>
      <cc:Work
         rdf:about="">
        <dc:format>image/svg+xml</dc:format>
        <dc:type
           rdf:resource="http://purl.org/dc/dcmitype/StillImage" />
        <dc:title></dc:title>
      </cc:Work>
    </rdf:RDF>
  </metadata>
  <defs
     id="defs905" />
  <sodipodi:namedview
     inkscape:current-layer="g909"
     inkscape:window-maximized="0"
     inkscape:window-y="34"
     inkscape:window-x="10"
     inkscape:cy="209.70393"
     inkscape:cx="227.16215"
     inkscape:zoom="1.6889813"
     inkscape:snap-page="true"
     inkscape:snap-global="false"
     showgrid="false"
     id="namedview903"
     inkscape:window-height="1034"
     inkscape:window-width="1898"
     inkscape:pageshadow="2"
     inkscape:pageopacity="0"
     guidetolerance="10"
     gridtolerance="10"
     objecttolerance="10"
     borderopacity="1"
     bordercolor="#666666"
     pagecolor="#ffffff" />
  <g
     id="g909"
     inkscape:label="Image"
     inkscape:groupmode="layer">
    <path
       id="path913"
       d="m 88.533329,374.03054 c 0,-0.48937 2.898223,-6.87059 4.809694,-10.58986 1.965714,-3.82481 0.239566,-8.03099 -3.659229,-8.91661 -15.052983,-3.4193 -44.848449,-16.70374 -56.272126,-25.08918 -5.753615,-4.22338 -15.278335,-15.05043 -15.278335,-17.36736 0,-0.73529 -0.96,-2.20568 -2.133334,-3.26754 -1.173333,-1.06185 -2.133333,-2.99151 -2.133333,-4.28814 0,-1.29662 -0.898955,-3.50223 -1.997677,-4.90134 -2.2087189,-2.8126 -6.3413867,-16.36292 -7.7701993,-25.47718 -2.0926439,-13.34879 -2.1586475,-16.59264 -0.4697635,-23.0873 0.9373688,-3.60468 1.7043069,-8.68955 1.7043069,-11.29968 0,-4.95202 3.1532319,-15.48817 5.8813309,-19.65177 0.871935,-1.33075 1.585335,-3.09714 1.585335,-3.92533 0,-1.68553 12.182881,-26.11214 13.860038,-27.7893 1.687121,-1.68711 1.256308,-7.37787 -0.77793,-10.27594 C 23.518995,174.7374 20.569287,166.17488 19.645454,160 c -0.904133,-6.0432 -1.99539,-8.12638 -6.465302,-12.34205 -6.8881494,-6.49636 -4.4895958,-8.76132 10.862137,-10.25718 7.98747,-0.77828 14.611272,-0.76522 22.2828,0.0439 12.375147,1.30526 14.047411,1.76938 14.961896,4.15249 0.900151,2.34576 -1.463248,3.65007 -5.286987,2.91777 -6.508249,-1.2464 -23.58412,-1.76451 -27.199999,-0.82528 -4.363289,1.13338 -5.814389,5.00866 -2.293889,6.12603 1.153427,0.36608 4.104792,2.92731 6.558588,5.69162 2.453795,2.76429 5.654181,6.30212 7.111967,7.86182 2.784705,2.97938 3.173126,8.33375 0.664287,9.15716 -0.710809,0.23329 -3.447161,-1.88934 -6.080782,-4.71696 -3.377974,-3.6268 -5.121995,-4.80753 -5.920953,-4.00857 -1.808867,1.80887 -0.03422,7.77345 3.306935,11.1146 3.462801,3.4628 3.799824,6.148 1.363075,10.86015 -2.374482,4.59174 -0.516192,6.38456 3.956817,3.8174 1.782095,-1.02278 3.801273,-1.87589 4.487063,-1.89579 0.68579,-0.0199 3.166891,-0.96364 5.513558,-2.09716 4.878898,-2.35668 6.527182,-2.58679 7.480481,-1.04431 0.370179,0.59895 -0.921494,1.81508 -2.870381,2.70249 -1.948889,0.88741 -5.65893,2.79736 -8.244537,4.24431 -2.585606,1.44697 -5.569056,2.63084 -6.629888,2.63084 -1.060833,0 -3.401887,1.44 -5.202341,3.2 -1.800455,1.76 -3.977004,3.2 -4.836777,3.2 -0.859772,0 -1.563223,0.9183 -1.563223,2.04068 0,2.17076 0.443714,2.12182 9.866666,-1.08836 1.906667,-0.64956 5.386667,-1.56801 7.733333,-2.04102 2.346667,-0.47299 5.466667,-1.22477 6.933333,-1.67062 2.376152,-0.72232 2.511008,-0.62079 1.237859,0.93201 -1.830367,2.23241 -12.86538,7.55484 -20.437858,9.85764 -4.155899,1.26382 -7.042248,3.04732 -9.898042,6.11608 -2.217257,2.3826 -3.85966,4.85436 -3.649784,5.4928 0.599407,1.82338 5.006011,2.02578 6.969122,0.32009 1.551483,-1.34803 6.708557,-2.59158 13.404081,-3.23219 4.190704,-0.40095 2.842207,2.37063 -1.689719,3.4729 -4.992605,1.21432 -16.72206,6.87398 -20.790712,10.03187 -3.601841,2.79557 -5.530423,8.14797 -6.741365,18.70931 -1.0637001,9.27717 -0.5421843,18.25901 1.2636333,21.763 0.7861817,1.5255 1.7653787,1.7655 4.9237327,1.20684 2.168312,-0.38355 5.382387,-1.32544 7.142387,-2.09311 1.76,-0.76767 5.311111,-1.72495 7.891359,-2.1273 2.580248,-0.40235 6.273418,-1.39257 8.207043,-2.20048 1.933626,-0.80793 4.284146,-1.17406 5.223379,-0.81364 1.521897,0.584 1.49937,0.80013 -0.207043,1.98644 -1.053107,0.73213 -3.594739,1.68378 -5.648072,2.11477 -2.053334,0.43101 -7.573333,2.59781 -12.266666,4.81512 -4.693334,2.21731 -9.373333,4.31094 -10.4,4.65251 -2.144541,0.71348 -2.469004,3.92565 -0.586667,5.80799 1.672372,1.67237 4.236631,1.61819 8.550478,-0.18069 7.52346,-3.13727 24.089349,-8.13931 26.956019,-8.13931 3.242851,0 1.469665,1.6574 -4.279442,4 -3.239486,1.32 -6.478817,2.40608 -7.198515,2.41351 -1.302038,0.0134 -9.903969,4.233 -16.501795,8.09472 -4.026175,2.35653 -4.507265,5.65137 -1.688314,11.56278 2.014929,4.22535 2.576744,4.24305 13.324436,0.4196 7.977172,-2.83784 20.398984,-3.25854 20.918171,-0.70844 0.294331,1.44567 -0.806929,1.90895 -5.832432,2.45362 -3.407401,0.36929 -7.771558,1.36731 -9.698129,2.21782 -1.92657,0.85052 -4.83057,1.54639 -6.453333,1.54639 -3.371055,0 -5.510478,1.71481 -5.510478,4.41681 0,2.11182 13.558535,13.69908 17.922233,15.31652 1.582771,0.58667 6.04481,2.86718 9.91564,5.06781 6.480595,3.68431 11.693347,5.81051 24.394318,9.95005 2.62104,0.85426 5.23704,2.02471 5.813333,2.601 0.576295,0.5763 2.415644,1.04781 4.087444,1.04781 5.225202,0 13.600367,5.14073 13.600367,8.348 0,0.88954 0.76214,2.45951 1.69364,3.48881 1.54459,1.70675 2.13129,1.73862 6.66666,0.3622 6.61215,-2.0067 11.90636,-1.99812 11.90636,0.0193 0,0.95379 -1.54125,1.82938 -4,2.27242 -2.2,0.3964 -4.59412,1.19205 -5.32028,1.76809 -0.72614,0.57606 -4.08614,1.59346 -7.46666,2.26092 -4.89332,0.96616 -6.210128,1.65896 -6.459025,3.39821 -0.300236,2.09803 0.09424,2.16685 9.949155,1.73583 6.73675,-0.29465 10.67315,-0.0374 11.45931,0.74869 0.88555,0.88556 0.32474,1.19751 -2.15288,1.19751 -1.84271,0 -3.64704,0.48 -4.00962,1.06666 -0.58957,0.95395 -26.133331,1.63544 -26.133331,0.69722 z M 532.14045,232.79999 c -0.0694,-77.87999 -0.42942,-143.008009 -0.8,-144.728919 l -0.67381,-3.128927 -3.73333,5.467032 c -5.65302,8.278197 -14.15942,11.004104 -20.26128,6.492812 -3.88661,-2.873503 -4.76736,-6.711333 -3.23459,-14.094665 1.59647,-7.690114 3.83567,-9.594611 10.96175,-9.323243 9.26275,0.352736 13.02439,1.497653 13.39815,4.077953 0.2915,2.012349 3.0986,5.48162 3.58872,4.435239 0.10233,-0.218501 0.48331,-18.877274 0.84662,-41.46394 0.36331,-22.586666 0.75957,43.293332 0.88059,146.399998 0.12102,103.10666 -0.02,187.46666 -0.31329,187.46666 -0.29334,0 -0.59013,-63.72 -0.65953,-141.6 z m -9.8318,-142.745023 c 2.29021,-2.290215 2.63968,-3.394212 2.10919,-6.663168 -1.08152,-6.664711 -6.27537,-8.201219 -12.94663,-3.830036 -2.2258,1.458401 -2.67123,2.589488 -2.67123,6.783134 0,2.768083 0.32,5.352879 0.71111,5.743989 0.39111,0.391112 2.81293,0.711112 5.38182,0.711112 3.59542,0 5.30266,-0.631959 7.41574,-2.745031 z M 328.80387,363.46666 c -1.85912,-3.08 -4.11973,-7.38269 -5.02362,-9.56153 -0.90388,-2.17885 -2.4842,-4.38882 -3.51184,-4.91105 -1.02763,-0.52224 -6.3696,-0.89955 -11.87104,-0.83847 -7.49638,0.0832 -10.14112,-0.25 -10.55542,-1.32993 -0.88674,-2.31139 1.93447,-3.32405 9.35804,-3.35902 9.53989,-0.0449 10.73604,-0.95319 8,-6.07441 -2.75111,-5.14944 -7.76916,-6.88535 -12.25082,-4.23797 -3.75009,2.21524 -7.35408,2.28824 -8.16866,0.16547 -0.96986,-2.52741 1.66945,-4.78643 5.59216,-4.78643 3.94202,0 6.11796,-2.39168 7.28332,-8.0054 0.36597,-1.76298 2.45308,-4.93969 4.63803,-7.05938 2.18495,-2.11968 6.92668,-6.67725 10.53718,-10.12793 5.89327,-5.6324 10.57122,-11.35771 28.634,-35.04491 2.93254,-3.84567 5.63743,-8.13459 6.01087,-9.53092 0.37344,-1.39633 2.14248,-5.58963 3.93121,-9.31845 6.9857,-14.5625 9.20574,-31.60275 6.13517,-47.09131 -0.83831,-4.22859 -1.83609,-9.84836 -2.21728,-12.48836 -0.70515,-4.88365 -4.25264,-15.62583 -5.80793,-17.58705 -0.47089,-0.59379 -1.21064,-2.2333 -1.64389,-3.64337 -2.51231,-8.17651 -30.014,-41.70291 -34.20889,-41.70291 -0.39389,0 -2.35625,-1.44 -4.36077,-3.2 -5.20885,-4.57342 -6.41952,-4.16147 -7.83704,2.66667 -1.70331,8.20481 -5.33333,7.74091 -5.33333,-0.68157 0,-1.74556 -0.4523,-5.18631 -1.0051,-7.64609 -0.55281,-2.45979 -1.28195,-5.79234 -1.62033,-7.40568 -0.33837,-1.61333 -1.24768,-2.93333 -2.0207,-2.93333 -1.11633,0 -1.30268,2.84721 -0.90575,13.83933 0.39904,11.05086 0.18161,14.32841 -1.07913,16.26666 -0.86837,1.33504 -2.16642,4.21994 -2.88455,6.41091 -0.86867,2.65022 -3.3327,5.6849 -7.36173,9.06666 -3.33083,2.7957 -6.68326,5.92311 -7.44986,6.94977 -0.7666,1.02667 -2.34166,1.86667 -3.50014,1.86667 -2.54606,0 -4.18888,-3.39632 -1.96461,-4.0616 2.42469,-0.72524 13.45637,-12.81024 15.3647,-16.83176 1.19885,-2.52635 1.79469,-7.03732 1.92614,-14.58228 0.16672,-9.56832 -0.19064,-12.02294 -2.87889,-19.7746 -3.43254,-9.89783 -7.46217,-14.695055 -19.72422,-23.481421 -5.75267,-4.122074 -8.12198,-5.110104 -14.93333,-6.227355 -10.18312,-1.670316 -23.86122,-1.787827 -29.42916,-0.252832 -2.34667,0.646938 -6.33148,2.564763 -8.85513,4.261831 -2.52365,1.697069 -5.88365,3.78014 -7.46666,4.629047 -1.58302,0.848908 -5.75821,4.232752 -9.27821,7.519656 -4.60361,4.298752 -6.9988,5.825609 -8.53334,5.439727 -1.17333,-0.295052 -3.47972,-0.860399 -5.1253,-1.256327 -1.92433,-0.462994 -4.44708,-0.0637 -7.0698,1.118977 -4.70408,2.121247 -7.89769,1.850027 -8.39122,-0.712639 -0.68004,-3.531161 4.80956,-5.676556 13.8659,-5.418945 8.08553,0.229997 8.36272,0.153606 10.64542,-2.93392 1.28905,-1.743536 5.13327,-5.36165 8.54271,-8.040252 6.64859,-5.223442 7.24161,-6.391811 4.33229,-8.535637 -1.76883,-1.303421 -1.75484,-1.585344 0.26667,-5.378849 1.17333,-2.201834 4.94613,-6.075768 8.38401,-8.608744 5.63201,-4.149582 6.84611,-4.60482 12.26667,-4.59946 12.18274,0.01204 18.991,3.883786 17.81862,10.133137 -0.77855,4.149982 -0.25762,4.442333 9.74086,5.466707 7.90302,0.809689 18.55903,6.111074 24.27426,12.076496 4.49891,4.69584 8.70277,4.419221 14.94501,-0.983393 5.73112,-4.960254 13.89075,-10.698896 15.21247,-10.698896 0.5083,0 1.86182,-0.715094 3.00781,-1.589097 3.53949,-2.699437 13.20319,-9.077569 13.75371,-9.077569 0.28684,0 0.95575,0.84 1.48648,1.866666 0.8896,1.720874 0.20626,8.162284 -2.97044,28 -1.11399,6.956637 -1.35236,18.755572 -0.44715,22.133332 0.85627,3.19519 3.19841,3.05612 4.02543,-0.23902 0.36429,-1.45145 1.85634,-4.39844 3.31564,-6.54885 1.45931,-2.1504 2.65328,-4.52087 2.65328,-5.267704 0,-2.679946 10.48764,-13.876868 15.20414,-16.232402 5.98589,-2.989497 10.49839,-3.009866 16.37703,-0.07392 8.14639,4.068501 12.49824,10.495234 7.10684,10.495234 -0.94568,0 -4.7925,-1.4971 -8.54848,-3.326891 -10.09942,-4.920108 -15.37121,-3.478063 -22.67663,6.202966 -1.68391,2.231492 -3.76455,4.849877 -4.62364,5.818627 -0.8591,0.96875 -1.89922,2.88875 -2.31139,4.26666 -0.41217,1.37792 -1.89955,4.51078 -3.3053,6.96191 -3.44477,6.00649 -3.44451,11.79168 5.9e-4,13.10151 1.40608,0.53459 4.40608,3.26236 6.66667,6.06173 2.26059,2.79938 5.31172,6.31011 6.78027,7.80163 3.88335,3.94409 8.1145,9.8354 8.94024,12.44809 0.39451,1.24826 1.90663,3.64826 3.36026,5.33333 1.45365,1.68507 3.41336,5.07292 4.35493,7.52855 0.94156,2.45561 2.39992,4.72878 3.2408,5.05144 0.92579,0.35527 3.55653,-1.506 6.66918,-4.71848 6.61133,-6.82334 12.58594,-9.54402 21.02515,-9.57432 6.05002,-0.0218 6.92774,0.2954 12.00306,4.33642 5.25675,4.18548 7.51832,8.12157 6.04042,10.51286 -1.21881,1.97207 -3.33766,1.23015 -7.2003,-2.52121 -4.72597,-4.5898 -10.72777,-6.47005 -17.43973,-5.46353 -4.08639,0.61279 -6.1351,1.76704 -10.46124,5.89389 -6.35555,6.06277 -5.89734,7.71106 2.65342,9.54487 6.85465,1.47006 10.11995,3.24161 15.22683,8.26114 5.41296,5.32035 7.42905,8.48635 6.66764,10.47057 -1.01279,2.63928 -2.66545,1.89823 -9.02995,-4.04896 -7.42387,-6.9371 -10.27898,-8.74859 -15.23975,-9.66917 -6.47991,-1.20249 -7.02337,0.48329 -4.88534,15.15366 0.9971,6.84165 1.81096,14.26073 1.80859,16.48682 -0.004,4.20574 -2.18146,14.8591 -4.73115,23.15255 -0.81162,2.64 -1.81323,6.48 -2.2258,8.53333 -1.23768,6.15991 -9.9746,22.00804 -16.94774,30.74197 -3.59697,4.50525 -9.33446,11.88139 -12.74996,16.39143 -6.10759,8.0648 -15.96825,18.41522 -20.68299,21.71026 -3.46353,2.42059 -3.12932,6.85849 0.8,10.62301 1.76,1.68619 3.2,3.95843 3.2,5.04943 0,1.82542 7.04033,16.59639 12.90539,27.07618 2.36533,4.22642 2.38868,4.49828 0.61846,7.2 -1.01184,1.54424 -2.20721,2.80772 -2.65641,2.80772 -0.44918,0 -2.33779,-2.52 -4.19689,-5.6 z M 318.93332,99.185531 c 0,-1.196842 -5.12296,-6.385533 -6.30464,-6.385533 -0.48087,0 -2.05694,-0.930246 -3.50236,-2.067211 -3.52441,-2.772303 -8.78567,-4.122177 -8.11997,-2.083329 0.26648,0.81613 1.88906,2.157972 3.60573,2.981872 1.71669,0.8239 3.36479,1.86381 3.66247,2.310912 0.29767,0.447102 2.39484,2.28599 4.66039,4.08642 3.82334,3.038398 5.99838,3.457888 5.99838,1.156869 z m 3.2,-13.318867 c 0,-3.21984 -0.34882,-3.733333 -2.53606,-3.733333 -1.39483,0 -3.1336,-0.72 -3.86394,-1.6 -1.92907,-2.324377 -6.4,-2.08465 -6.4,0.343161 0,1.936067 8.83038,8.629699 11.46667,8.691997 0.81869,0.01935 1.33333,-1.409465 1.33333,-3.701825 z M 221.96984,71.843362 c 0.93673,-0.812947 5.85673,-2.014258 10.93333,-2.669579 5.07658,-0.655322 9.23015,-1.60751 9.23015,-2.115973 0,-1.980233 -4.33412,-5.107131 -8.04339,-5.802996 -2.15106,-0.403541 -5.7003,-0.190177 -7.92524,0.47643 -5.22234,1.564652 -13.43442,8.758692 -12.56988,11.011623 0.75105,1.957222 5.69514,1.42621 8.37503,-0.899505 z m 84.75857,293.056558 c -0.77617,-1.25587 -0.30308,-1.49868 6.23814,-3.20179 4.53469,-1.18067 5.96677,-0.8051 5.96677,1.56481 0,0.90683 -1.03871,1.53705 -2.53333,1.53705 -1.39334,0 -3.97512,0.28835 -5.7373,0.64079 -1.87513,0.37503 -3.50686,0.15071 -3.93428,-0.54086 z m -72.33568,-13.34988 c -6.26603,-3.17919 -18.56085,-14.30235 -21.67306,-19.60768 -2.94642,-5.02269 -5.2266,-14.04442 -4.39087,-17.3728 0.35487,-1.41326 1.37079,-3.52957 2.25761,-4.7029 1.52095,-2.01234 1.61433,-1.87489 1.64633,2.42342 0.0816,10.95563 10.75599,25.95666 22.86336,32.13043 6.7662,3.45022 7.47593,3.58877 15.08768,2.94534 10.93816,-0.92461 16.46824,-3.96415 27.68445,-15.21641 4.76654,-4.78185 7.94412,-16.75598 6.86815,-25.88137 -0.91261,-7.73985 -6.10473,-16.44555 -12.66462,-21.2349 -2.09281,-1.52796 -4.36776,-3.44617 -5.05544,-4.26268 -1.60971,-1.91125 -9.94966,-3.12187 -9.94966,-1.44428 0,0.66392 -0.72,1.20712 -1.6,1.20712 -0.88,0 -1.6,0.37476 -1.6,0.83281 0,0.45804 -1.41834,1.36818 -3.15187,2.0225 -4.17532,1.57601 -5.04674,5.37629 -2.95558,12.88938 2.01272,7.23124 1.28296,10.30531 -1.89255,7.97231 -1.62251,-1.19203 -5.86667,-7.48807 -5.86667,-8.70295 0,-1.60854 -3.71602,-3.28072 -7.29062,-3.28072 -3.95033,0 -13.16683,4.20028 -17.3029,7.88553 -1.71674,1.52963 -4.07317,2.78114 -5.23652,2.78114 -1.20851,0 -2.80095,1.25736 -3.71503,2.93333 -0.87991,1.61333 -3.93726,5.25484 -6.79412,8.09223 -4.71037,4.6783 -6.22836,5.45074 -16.29421,8.29139 -10.29494,2.90532 -11.98954,3.08732 -23.3666,2.50967 -11.55638,-0.58676 -23.39866,-2.66997 -37.7024,-6.63233 -4.90014,-1.35742 -6.45815,-2.31244 -7.27424,-4.45889 -0.57117,-1.50233 -1.7814,-3.5524 -2.68939,-4.5557 -0.90798,-1.00331 -3.21279,-5.3242 -5.12179,-9.60196 -1.909,-4.27776 -6.66528,-14.86801 -10.569512,-23.53387 -3.904231,-8.66587 -8.579449,-20.18587 -10.389374,-25.6 -1.809924,-5.41413 -3.87124,-11.04387 -4.580701,-12.51054 -2.043134,-4.22376 -5.206326,-21.99173 -4.450947,-25.0014 1.663322,-6.6272 5.281056,-1.06922 7.398706,11.36673 2.005338,11.77641 6.316347,19.65069 13.896664,25.383 3.015644,2.28046 6.995944,5.37617 8.845104,6.87937 4.74421,3.85662 11.32779,6.53558 20.85958,8.48813 9.3442,1.91411 23.06206,2.20452 28.58534,0.60516 2.04946,-0.59346 6.82774,-1.57888 10.61839,-2.18982 3.79066,-0.61094 7.39066,-1.4992 8,-1.9739 0.60935,-0.47471 2.48713,-1.1933 4.17283,-1.59688 6.55271,-1.56875 22.83113,-10.14187 28.69844,-15.11418 6.81728,-5.77738 18.56942,-20.04495 21.92318,-26.61563 2.56318,-5.0218 3.71653,-15.79389 2.56576,-23.96391 l -0.82633,-5.86667 -7.44632,0.29101 c -12.56584,0.49107 -20.46021,-1.38727 -26.98636,-6.42101 -10.77422,-8.31036 -13.10295,-18.94373 -6.9792,-31.86827 1.84107,-3.88572 5.11298,-9.0192 7.27088,-11.40774 3.93096,-4.35111 14.77759,-11.0421 19.78169,-12.20279 1.46667,-0.34019 4.82667,-1.3601 7.46667,-2.26647 2.64,-0.90637 6.40229,-2.02522 8.36065,-2.48634 l 3.56064,-0.83839 -3.74638,-3.74129 c -3.81697,-3.81177 -4.36753,-5.63749 -4.07413,-13.5102 0.20074,-5.386896 4.38945,-11.015172 8.19775,-11.015172 4.11629,0 4.10612,1.9602 -0.0339,6.542775 -3.16555,3.503897 -3.77846,4.868597 -3.21556,7.159797 2.37245,9.65666 9.08432,10.16178 9.08432,0.68366 0,-8.153948 8.38711,-12.814646 14.96266,-8.314728 3.68087,2.518968 4.2024,3.509918 4.22101,8.020268 0.0243,5.88567 -5.04186,10.06528 -15.34475,12.65958 -4.42221,1.11352 -4.77537,1.40454 -2.98032,2.45593 7.02892,4.11692 10.96379,7.49735 13.91721,11.9562 3.02947,4.57366 3.35752,5.86429 3.35752,13.20915 0,7.28809 -0.43335,9.02758 -4.13977,16.61713 -4.22193,8.64516 -8.24473,13.23619 -15.27182,17.42902 -2.16971,1.29459 -4.26141,3.35093 -4.64821,4.56965 -1.2704,4.00269 0.59529,19.7502 2.54848,21.51048 3.16353,2.85108 18.52213,5.24696 30.41303,4.74431 8.74114,-0.36951 12.12501,-1.01517 17.53319,-3.34543 8.53715,-3.67848 18.16323,-11.14538 23.40472,-18.15494 5.69666,-7.61828 13.92025,-24.61942 15.2007,-31.42535 1.28241,-6.81642 1.84965,-7.86934 4.00988,-7.44323 1.40545,0.27724 1.69059,3.18416 1.91524,19.52573 0.14519,10.56 1.04554,25.43999 2.00081,33.06666 2.48674,19.8537 4.00503,38.05075 3.38378,40.55555 -0.76659,3.0908 -14.12771,17.27405 -24.1384,25.62369 -8.47779,7.07108 -14.90026,10.83798 -22.61163,13.2621 -4.75716,1.49546 -5.18768,3.8976 -1.6,8.92733 2.12918,2.98498 2.38855,4.5802 2.29852,14.13656 -0.14519,15.41022 -5.07907,27.50425 -12.81145,31.40371 -1.7911,0.90324 -5.62054,3.3776 -8.50987,5.49857 -4.67627,3.43269 -11.49613,6.47568 -21.23682,9.47574 -5.16287,1.59013 -9.27737,1.14175 -14.68097,-1.59987 z m -37.05941,-82.68709 c 0,-4.07205 -0.44795,-7.68058 -0.99546,-8.01895 -1.53992,-0.95172 -12.86804,4.03835 -12.86972,5.66914 -0.002,2.09894 10.00861,9.53799 13.06518,9.7088 0.44,0.0246 0.8,-3.28695 0.8,-7.35899 z m 32.19592,-104.52081 c 11.94657,-5.41683 14.09594,-11.02582 7.84486,-20.47185 -3.6486,-5.5134 -6.80025,-6.1477 -15.47287,-3.11408 -9.95891,3.48356 -11.76791,4.8216 -11.76791,8.70421 0,4.9909 3.15341,14.75965 5.53248,17.13872 2.48024,2.48024 3.93974,2.24263 13.86344,-2.257 z m 24.99875,-57.09106 c 0.99256,-2.58659 -0.50724,-3.94194 -2.92828,-2.64625 -1.7071,0.91362 -1.88254,1.45111 -0.87132,2.66956 1.61946,1.95132 3.04521,1.94258 3.7996,-0.0234 z m 194.6699,189.53163 c -7.4451,-3.72702 -9.19226,-6.49429 -9.21983,-14.60297 -0.0213,-6.269 -0.12116,-6.49328 -3.62799,-8.14945 -1.98335,-0.93668 -4.25348,-2.58842 -5.04476,-3.67054 -1.62769,-2.226 -1.94135,-8.58984 -0.46825,-9.50027 1.56752,-0.96878 4.22917,0.5054 4.93655,2.73413 1.31263,4.13576 5.21836,5.40282 19.22411,6.23652 14.96054,0.89053 18.32508,2.28883 20.05959,8.33672 2.79477,9.74479 -6.70673,21.66665 -17.1564,21.52674 -1.63218,-0.0219 -5.54854,-1.33174 -8.70302,-2.91088 z m 17.05192,-6.44275 c 3.57113,-3.19079 4.41183,-7.45418 2.03471,-10.31842 -2.75541,-3.32009 -16.90015,-5.07035 -21.42133,-2.65069 -2.77285,1.48399 -2.62713,5.68348 0.33679,9.70626 5.09956,6.9214 13.36983,8.33792 19.04983,3.26285 z m 29.76715,-42.83629 c -4.42346,-1.11454 -10.68962,-7.54843 -10.66909,-10.95467 0.0236,-3.90089 1.23582,-7.33222 2.44777,-6.92823 0.61822,0.20607 1.66799,2.0257 2.33282,4.04362 2.1082,6.39882 11.04312,9.06457 21.05896,6.28298 5.00649,-1.3904 6.14589,-3.5187 6.14589,-11.47997 0,-9.79548 0.28879,-9.72324 -19.73333,-4.93694 -9.35601,2.23655 -16.27413,2.09209 -19.66742,-0.4107 -4.02318,-2.96738 -6.64624,-7.00868 -5.86706,-9.03923 1.04391,-2.72036 5.25406,-2.26302 6.61245,0.7183 2.08145,4.56829 12.60857,4.78823 26.76772,0.55922 3.72846,-1.1136 8.63158,-2.02472 10.8958,-2.02472 5.44793,0 6.77008,2.50467 6.75679,12.8 -0.0119,9.2759 -2.37962,14.98467 -7.89833,19.04416 -3.83159,2.81846 -12.87619,3.91524 -19.18297,2.32618 z M 171.10372,236.4004 c -1.27834,-3.33129 0.0151,-5.46707 3.31089,-5.46707 2.8282,0 3.18538,0.35881 3.18538,3.2 0,2.6996 -0.45965,3.25287 -2.9394,3.5381 -1.87582,0.21576 -3.16282,-0.24413 -3.55687,-1.27103 z m -12.47697,-7.72922 c -0.41805,-0.41803 -0.76009,-2.15048 -0.76009,-3.84988 0,-2.84339 0.27647,-3.06315 3.46667,-2.75556 3.06646,0.29566 3.46666,0.70367 3.46666,3.53425 0,2.63189 -0.48052,3.25605 -2.70658,3.51564 -1.48863,0.1736 -3.04863,-0.0264 -3.46666,-0.44445 z m -44.74303,-7.2915 c -7.55346,-2.88804 -18.24248,-9.50313 -23.576542,-14.59075 -2.941924,-2.806 -6.712636,-5.40133 -8.379359,-5.76741 -2.071877,-0.45506 -3.663956,-1.90274 -5.033384,-4.57689 -1.101638,-2.15122 -2.999218,-5.8313 -4.216844,-8.17797 -3.11331,-6.00012 -5.477054,-18.33629 -5.48066,-28.60307 -0.0025,-6.90708 0.574549,-10.17819 2.762826,-15.66359 6.189618,-15.51568 8.908517,-19.17648 14.277579,-19.22373 3.552384,-0.0312 6.607064,-2.63782 9.97255,-8.50961 3.102836,-5.41354 10.197744,-13.16065 13.797394,-15.06571 1.31599,-0.69647 3.37832,-2.205331 4.58294,-3.353023 7.12128,-6.784697 26.17333,-10.159917 37.52639,-6.648092 10.2228,3.162202 14.15005,5.536634 14.15005,8.555175 0,3.66929 -3.10325,3.46719 -10.34025,-0.673399 -5.63498,-3.22401 -6.10889,-3.306564 -16.66317,-2.902725 -7.50154,0.28703 -11.85351,0.965876 -14.06325,2.193667 -1.76,0.977904 -5.03369,2.594817 -7.27488,3.593127 -4.12486,1.83739 -20.991781,19.47945 -20.991781,21.95648 0,0.70052 -0.883519,2.26461 -1.963376,3.47576 -2.382468,2.67212 -7.657891,17.26055 -8.896526,24.60208 -2.039483,12.08822 -2.103608,15.46182 -0.474201,24.94746 2.815381,16.38981 8.447342,24.63849 22.254824,32.59482 6.00976,3.46302 17.01968,6.97151 21.91293,6.9829 3.70945,0.009 16.07075,-3.75214 17.77968,-5.40925 1.26588,-1.22749 6.66897,-1.29293 7.41257,-0.0898 1.07159,1.73387 -2.44096,5.09848 -8.54889,8.18881 -5.35494,2.70935 -7.54108,3.16461 -16.36221,3.40738 -6.86394,0.18889 -11.47927,-0.21601 -14.16441,-1.24267 z M 76.783663,164.50506 c 0.0149,-5.13416 2.634255,-17.97766 5.431474,-26.63218 1.347204,-4.16821 0.445626,-6.30516 -1.854695,-4.39606 -0.870628,0.72255 -3.033223,4.46585 -4.805766,8.31845 -3.074933,6.68333 -3.199199,7.50218 -2.708322,17.84643 0.282967,5.96295 0.868295,11.41419 1.30073,12.11388 1.376055,2.22651 2.618996,-1.19154 2.636579,-7.25052 z M 178.57038,217.2004 c -1.27833,-3.33129 0.0151,-5.46707 3.31089,-5.46707 2.8282,0 3.18539,0.35881 3.18539,3.2 0,2.6996 -0.45965,3.25287 -2.9394,3.5381 -1.87582,0.21576 -3.16282,-0.24413 -3.55688,-1.27103 z m 312.89627,-38.00685 c -1.26595,-0.79091 -1.86667,-2.52227 -1.86667,-5.37989 0,-5.16124 1.91388,-5.52261 4.56672,-0.86229 1.8049,3.17072 2.15212,3.30787 6.93333,2.73876 2.76831,-0.32952 6.47328,-1.35164 8.23328,-2.27138 1.76,-0.91976 3.74797,-1.67523 4.4177,-1.67885 3.01896,-0.0163 2.68329,-10.51186 -0.45183,-14.12782 -2.21415,-2.55373 -8.21075,-1.54876 -18.19427,3.04919 -6.4326,2.96254 -9.09524,3.60248 -14.93334,3.58906 -7.95272,-0.0182 -10.16221,-0.90373 -9.59411,-3.84482 0.32876,-1.70199 1.43431,-2.0229 7.30495,-2.1204 5.15474,-0.0857 10.22369,-1.26119 19.89126,-4.61316 7.13553,-2.47404 14.28806,-4.34234 15.89451,-4.15177 3.89908,0.46254 6.72778,4.53099 7.78052,11.1906 1.18173,7.47559 -0.42129,11.814 -5.74455,15.54702 -3.65438,2.5627 -5.6453,3.09385 -13.33333,3.55726 -5.64057,0.33998 -9.73914,0.10634 -10.90417,-0.62151 z M 150.93291,153.20114 c -4.0774,-1.7933 -5.32728,-3.33964 -7.27955,-9.00615 -1.45391,-4.22 -1.41306,-5.06534 0.50909,-10.53418 2.4362,-6.93143 7.60391,-13.58065 11.98057,-15.41525 2.68351,-1.12486 3.26714,-1.02865 4.57025,0.75348 1.35777,1.85685 1.22325,2.12939 -1.47636,2.99108 -1.63364,0.52144 -4.10811,1.96699 -5.4988,3.21231 -2.82111,2.52621 -6.69,10.61716 -6.05831,12.66968 0.22478,0.73034 0.69791,2.64789 1.05143,4.26122 0.43902,2.00365 1.31643,2.93333 2.76836,2.93333 1.88832,0 2.04817,-0.48429 1.43192,-4.33813 -0.55562,-3.47463 -0.23964,-4.95227 1.5874,-7.42348 1.2546,-1.69694 2.28108,-3.82478 2.28108,-4.72853 0,-0.90376 0.64991,-1.64319 1.44425,-1.64319 0.79432,0 2.73906,-1.2 4.32162,-2.66667 1.58256,-1.46666 3.8442,-2.66666 5.02588,-2.66666 1.18167,0 3.0061,-0.45898 4.05428,-1.01994 1.49058,-0.79774 2.75343,-0.24353 5.79654,2.54386 4.16086,3.81119 4.50966,5.27133 2.76231,11.56342 -1.48648,5.35269 -12.79119,17.48407 -17.05902,18.30646 -7.8244,1.50773 -9.20303,1.53113 -12.21294,0.20734 z m 18.31952,-13.01712 c 4.08814,-2.57463 4.16435,-5.57944 0.24409,-9.62412 -1.93326,-1.99461 -3.90762,-3.62657 -4.38747,-3.62657 -0.47985,0 -2.29163,1.56 -4.02616,3.46667 -7.25122,7.97082 -0.94454,15.52385 8.16954,9.78402 z m 283.77702,-27.94574 c -1.6338,-1.01105 -3.34153,-3.27828 -3.79497,-5.03828 -0.65334,-2.53584 -1.47582,-3.26071 -3.96281,-3.49249 -6.74622,-0.62873 -8.09154,-1.27962 -7.74094,-3.745215 0.27598,-1.94077 1.19243,-2.457466 5.13592,-2.895631 4.90067,-0.544519 11.62901,-4.088143 22.4,-11.797437 10.70904,-7.664959 14.45002,-5.278077 13.64066,8.703231 -0.37478,6.473862 -1.04918,9.155862 -3.06067,12.171752 -4.85714,7.28241 -15.89222,10.25575 -22.61719,6.09407 z m 15.62455,-6.93679 c 5.69029,-4.00957 8.08274,-14.518556 3.8241,-16.797705 -1.83405,-0.981556 -3.16946,-0.512512 -8.24462,2.895804 -3.33083,2.236892 -6.90989,4.413051 -7.95346,4.835909 -1.04355,0.422859 -2.45269,1.987607 -3.1314,3.477217 -1.06319,2.333465 -0.89599,3.068205 1.20789,5.307685 3.95999,4.21521 8.58521,4.30614 14.29749,0.28109 z m -375.142893,-0.4126 c -1.958718,-1.95872 -0.389734,-7.74444 3.832355,-14.132025 7.544598,-11.41419 7.907448,-11.896431 10.351868,-13.757709 1.29957,-0.989537 3.67496,-2.850473 5.27865,-4.135413 1.60368,-1.28494 5.92803,-3.378703 9.60965,-4.652805 7.39283,-2.558442 10.7656,-2.387458 22.18126,1.124481 11.66731,3.589362 16.1594,7.014736 14.58383,11.120641 -0.89246,2.325689 -2.57946,2.112587 -8.79203,-1.110607 -7.18037,-3.725306 -20.56736,-5.53645 -28.54857,-3.862373 -5.01134,1.051139 -6.54731,2.026736 -11.19196,7.108717 -6.53752,7.153091 -10.21901,12.468581 -12.795618,18.474863 -1.875631,4.37225 -3.003456,5.32821 -4.509435,3.82223 z M 419.19998,58.243565 c 0,-0.81937 3.6,-4.98049 8,-9.246932 4.4,-4.266441 8,-8.331315 8,-9.033051 0,-0.701737 0.89896,-2.420617 1.99768,-3.819733 1.09872,-1.399118 3.04446,-6.38385 4.32387,-11.077183 2.34809,-8.6137 6.12869,-15.4202574 10.11624,-18.213249 1.2367,-0.8662116 4.68175,-1.5200838 8.00889,-1.5200838 7.65813,0 12.72351,3.4053743 16.67115,11.2077568 2.43831,4.819217 2.81156,6.693301 2.41765,12.139017 -0.55145,7.623605 -1.80154,9.280888 -10.49627,13.915131 -5.75951,3.069785 -7.03039,3.335165 -14.60711,3.050207 -7.53223,-0.283284 -8.32863,-0.521494 -8.62217,-2.578927 -0.3048,-2.136437 0.21763,-2.29268 9.08332,-2.716553 7.82214,-0.373982 10.0328,-0.890542 13.1234,-3.066521 4.95755,-3.490423 5.28135,-4.044805 5.30035,-9.074612 0.0335,-8.872406 -9.1017,-18.5203656 -16.08402,-16.986792 -3.74564,0.822681 -8.43298,7.12619 -8.43298,11.340624 0,3.094336 -6.19727,16.174155 -10.53613,22.237335 -4.57899,6.398735 -9.04307,10.774161 -13.15471,12.89347 -4.72767,2.436834 -5.10916,2.47791 -5.10916,0.550096 z"
       style="fill:#000000;stroke-width:1.06667" />
  </g>
</svg>
