<?xml version="1.0" encoding="UTF-8" standalone="no"?>
<svg
   xmlns:dc="http://purl.org/dc/elements/1.1/"
   xmlns:cc="http://creativecommons.org/ns#"
   xmlns:rdf="http://www.w3.org/1999/02/22-rdf-syntax-ns#"
   xmlns:svg="http://www.w3.org/2000/svg"
   xmlns="http://www.w3.org/2000/svg"
   xmlns:sodipodi="http://sodipodi.sourceforge.net/DTD/sodipodi-0.dtd"
   xmlns:inkscape="http://www.inkscape.org/namespaces/inkscape"
   inkscape:version="1.0 (4035a4fb49, 2020-05-01)"
   sodipodi:docname="yeshelm-line.svg"
   viewBox="0 0 1120.7383 1446.8632"
   height="1446.8633"
   width="1120.7383"
   id="svg2664"
   version="1.1">
  <metadata
     id="metadata2670">
    <rdf:RDF>
      <cc:Work
         rdf:about="">
        <dc:format>image/svg+xml</dc:format>
        <dc:type
           rdf:resource="http://purl.org/dc/dcmitype/StillImage" />
        <dc:title></dc:title>
      </cc:Work>
    </rdf:RDF>
  </metadata>
  <defs
     id="defs2668" />
  <sodipodi:namedview
     inkscape:current-layer="g2672"
     inkscape:window-maximized="0"
     inkscape:window-y="34"
     inkscape:window-x="10"
     inkscape:cy="1790.9872"
     inkscape:cx="1167.4238"
     inkscape:zoom="0.20868393"
     fit-margin-bottom="0"
     fit-margin-right="0"
     fit-margin-left="0"
     fit-margin-top="0"
     showgrid="false"
     id="namedview2666"
     inkscape:window-height="1034"
     inkscape:window-width="1898"
     inkscape:pageshadow="2"
     inkscape:pageopacity="0"
     guidetolerance="10"
     gridtolerance="10"
     objecttolerance="10"
     borderopacity="1"
     bordercolor="#666666"
     pagecolor="#ffffff" />
  <g
     transform="translate(-212.17182,-0.98238457)"
     id="g2672"
     inkscape:label="Image"
     inkscape:groupmode="layer">
    <path
       id="path3237"
       d="m 401.33332,1447.0666 c -6.05756,-1.0364 -33.93354,-9.7806 -37.53905,-11.7752 -1.94648,-1.077 -4.26569,-1.958 -5.1538,-1.958 -2.3802,0 -19.71515,-8.3394 -26.64048,-12.816 -19.85037,-12.8315 -48.45298,-39.3391 -58.57666,-54.2863 -11.09172,-16.3764 -23.51814,-51.991 -25.20239,-72.2311 l -0.88761,-10.6666 -9.05375,-1.4848 c -10.36931,-1.7005 -13.7526,-4.21 -19.52916,-14.4857 -5.24763,-9.3347 -7.24555,-19.101 -6.38599,-31.2161 1.01799,-14.3478 4.05136,-22.2821 11.42456,-29.8828 6.67692,-6.8829 32.83444,-23.3983 46.72607,-29.502 13.31247,-5.8492 22.73909,-3.4047 37.69495,9.775 4.97465,4.3839 7.32089,5.5161 11.7943,5.6914 3.30428,0.1294 5.86795,0.958 6.27903,2.0292 1.34375,3.5018 4.15027,-0.9373 7.76014,-12.2742 4.21599,-13.2403 4.24599,-13.2837 15.11583,-21.9006 11.43959,-9.0686 15.51613,-10.0886 40.17401,-10.0525 23.1684,0.034 29.8621,1.3391 48.96902,9.5473 17.12897,7.3585 28.9765,15.7401 41.03098,29.0273 5.86667,6.4667 14.63777,16.026 19.49135,21.243 9.49342,10.2043 17.89216,22.7971 22.33304,33.4855 4.12432,9.9265 10.37813,32.9745 12.84334,47.3333 3.91162,22.7834 0.41682,73.7147 -6.29737,91.7743 -3.86527,10.3966 -14.33391,25.4533 -23.24785,33.4366 -13.70695,12.276 -27.02708,19.0939 -50.73724,25.9698 -19.62537,5.6913 -22.25981,6.139 -35.13408,5.971 -7.65481,-0.1 -15.41785,-0.4381 -17.25119,-0.7518 z m 59.7103,-25.2164 c 10.56911,-2.926 29.13514,-14.5292 39.09066,-24.4304 8.18264,-8.1382 9.08904,-9.643 12.90116,-21.4198 12.24705,-37.8346 8.22104,-85.6933 -10.30909,-122.5479 -13.62776,-27.1043 -36.60751,-52.8735 -58.58845,-65.7005 -21.10855,-12.3179 -29.30168,-15.4003 -49.03463,-18.4479 -12.52483,-1.9344 -22.70169,-0.086 -32.43661,5.8916 -8.89743,5.4632 -13.33334,11.4692 -13.33334,18.0527 0,6.596 -5.18829,16.6363 -8.86773,17.1608 -1.72645,0.246 -4.71495,-1.2132 -7.50934,-3.6667 -6.14444,-5.3949 -9.3462,-5.2279 -12.82544,0.669 l -2.79927,4.7444 -8.33244,-6.1585 c -18.55452,-13.7135 -28.17776,-15.1824 -45.51715,-6.948 -14.44933,6.862 -28.58018,15.3469 -29.97177,17.9967 -0.66077,1.2582 -1.61829,7.535 -2.12784,13.9483 -1.21756,15.3249 0.20084,19.4985 8.70217,25.6061 3.62358,2.6033 7.1852,4.7333 7.91472,4.7333 0.72954,0 3.82192,2.25 6.87199,5 6.09651,5.4967 10.38745,13.5357 10.43283,19.5456 0.0528,6.9879 9.23553,33.2959 15.39388,44.1024 11.58428,20.3278 31.82037,43.9184 48.47673,56.5125 5.58726,4.2247 16.6789,12.0979 24.64808,17.4959 20.44381,13.848 32.56177,17.0781 76.84392,20.4837 9.14453,0.7032 22.53909,-0.4535 30.37696,-2.6233 z m -41.99808,-30.8016 c -7.78024,-1.4627 -20.68086,-23.0335 -18.63504,-31.1592 0.44625,-1.7726 3.83941,-6.2031 7.54036,-9.8458 l 6.72898,-6.623 2.70026,2.7002 c 1.48513,1.4852 5.08217,8.2252 7.99341,14.9779 8.95193,20.7643 6.50155,32.3617 -6.32797,29.9499 z m -69.94136,-80.6172 c -18.76397,-19.2642 -22.40021,-37.098 -7.56416,-37.098 10.16362,0 16.19321,5.973 22.07736,21.8703 3.92721,10.6102 4.28225,15.231 1.44722,18.8351 -4.10289,5.216 -8.28745,4.2702 -15.96042,-3.6074 z m 68.07549,-6.7713 c -5.88631,-5.0531 -9.2164,-11.1747 -11.21589,-20.618 -2.86584,-13.5349 -0.82114,-21.7087 5.4305,-21.7087 8.95327,0 21.93904,20.511 21.93904,34.6527 0,9.5606 -8.98409,13.8286 -16.15365,7.674 z m 343.41863,113.0315 c -9.57092,-0.9037 -19.47092,-2.2968 -22,-3.0957 -2.52908,-0.7989 -7.59832,-1.8517 -11.26498,-2.3397 -7.55822,-1.0058 -37.99422,-13.9047 -42.32118,-17.9359 -1.56657,-1.4595 -3.6143,-2.6536 -4.55052,-2.6536 -2.8978,0 -11.11354,-8.1061 -16.11466,-15.8997 -9.65282,-15.0426 -11.84398,-30.8503 -7.68382,-55.4336 4.05678,-23.9724 10.36134,-38.7211 25.56619,-59.8092 5.74052,-7.9617 12.43333,-17.8617 14.87291,-22 2.43958,-4.1383 5.88958,-9.4341 7.66666,-11.7685 1.7771,-2.3344 3.23108,-4.9383 3.23108,-5.7864 0,-0.848 -2.95085,-4.8527 -6.55744,-8.8992 -3.6066,-4.0465 -8.40425,-10.7427 -10.66146,-14.8804 -7.12555,-13.0617 -6.97432,-12.9548 -15.78867,-11.1641 -19.12152,3.8847 -34.39564,4.9269 -70.99243,4.8439 -28.40513,-0.064 -42.03994,-0.6637 -53.99999,-2.3735 -21.89911,-3.1305 -41.16642,-7.03 -50.33864,-10.1879 -4.21959,-1.4528 -8.59939,-2.6414 -9.73288,-2.6414 -1.1335,0 -3.88527,-0.9434 -6.11503,-2.0965 -3.45236,-1.7853 -3.92376,-2.6264 -3.17591,-5.6666 0.48302,-1.9637 2.39684,-6.1789 4.25295,-9.3673 3.93433,-6.7583 4.46488,-6.7865 23.10951,-1.23 12.40557,3.6972 48.83928,9.2295 77.74894,11.8058 12.75367,1.1366 27.7164,1.3285 48.66667,0.6242 16.63808,-0.5594 39.19968,-1.1039 50.1369,-1.21 l 19.88586,-0.1929 2.64368,8 c 2.17042,6.5678 4.33906,9.6708 12.11416,17.3333 16.53651,16.2971 31.54838,21.9334 58.53303,21.9768 14.73254,0.024 36.69752,-3.1941 53.3807,-7.8202 22.65714,-6.2827 38.86457,-23.0833 57.64373,-59.7536 4.91577,-9.5991 5.54162,-12.3016 2.91298,-12.5787 -0.91666,-0.097 -12.52793,-0.033 -25.80282,0.1421 -22.05073,0.2903 -24.21457,0.1134 -25.04371,-2.0473 -0.49916,-1.3007 -0.25932,-3.0133 0.53298,-3.8055 1.73977,-1.7398 19.04048,-3.1729 40.21015,-3.3308 l 15.56327,-0.1161 1.53249,-4.6436 c 0.84288,-2.5539 1.33942,-6.0039 1.1034,-7.6666 -0.42148,-2.9695 -0.7012,-3.0159 -15.76242,-2.6152 -8.43334,0.2244 -21.63333,1.2335 -29.33333,2.2424 -23.56554,3.0879 -26.46218,3.2026 -28.1938,1.1161 -1.22803,-1.4797 -1.15979,-2.2799 0.30833,-3.6153 4.46487,-4.0613 18.8244,-6.1717 55.88546,-8.2135 17.00088,-0.9367 19.50675,-1.3958 20.40574,-3.7385 0.38493,-1.0031 0.1494,-12.5541 -0.52339,-25.6688 -1.16321,-22.6745 -1.05479,-24.7937 2.20872,-43.1694 3.03335,-17.0798 4.33772,-21.2625 11.22935,-36.00938 10.40853,-22.2724 12.80381,-28.68285 13.89616,-37.19009 l 0.92086,-7.17183 -31.06872,0.84861 c -17.0878,0.46675 -43.96871,1.17112 -59.73538,1.56528 -45.81872,1.14547 -40.56663,-0.31932 -57.86257,16.13764 -16.33484,15.5425 -30.20491,24.50032 -64.48425,41.64647 -20.17239,10.09 -28.96814,16.6581 -30.27478,22.6072 -1.2246,5.5755 -11.92606,18.3229 -19.73464,23.5075 -14.61457,9.7035 -45.65006,13.832 -58.31042,7.7567 -12.94779,-6.2133 -19.84173,-15.7986 -24.60095,-34.2051 -4.72196,-18.2623 -4.07777,-40.0003 1.43962,-48.58015 2.3027,-3.58084 7.8297,-5.99791 11.24004,-4.91551 2.12613,0.6748 2.44122,2.87295 2.82389,19.70061 0.3975,17.48005 0.71912,19.55815 4.16958,26.94105 7.81423,16.72 16.29487,21.9458 35.59448,21.9332 20.14031,-0.013 26.87183,-4.9344 39.7117,-29.0323 3.02464,-5.6766 6.87686,-11.5658 8.56049,-13.0871 1.68364,-1.5213 10.86115,-5.59891 20.39448,-9.06138 9.53333,-3.46248 17.89145,-6.83636 18.57361,-7.49752 1.57228,-1.52388 -3.40521,-12.62499 -10.3381,-23.05668 -8.98159,-13.51428 -31.4668,-32.67195 -53.5942,-45.66288 -21.676,-12.72591 -26.27324,-15.20199 -28.2249,-15.20199 -1.13253,0 -4.83953,2.02595 -8.23777,4.50212 -3.39825,2.47616 -12.77864,8.27735 -20.84531,12.89154 -25.52147,14.59842 -43.56577,27.19786 -53.02741,37.02638 -11.51738,11.964 -15.31048,20.0434 -16.41742,34.96963 -0.72168,9.73138 -0.42688,12.35868 2.15094,19.16878 5.30715,14.0204 18.01871,24.6768 29.51818,24.7456 7.72882,0.046 9.10905,1.0577 9.10905,6.6753 0,2.7651 -0.75456,5.6537 -1.67679,6.4191 -4.1786,3.4679 -40.05188,2.0486 -45.969,-1.8188 -3.58445,-2.3427 -11.43056,-18.6302 -14.28944,-29.663 -4.40968,-17.01755 -1.48617,-41.05345 6.42763,-52.8453 5.8406,-8.70269 19.8582,-22.79116 30.91591,-31.07219 4.79329,-3.58965 22.83922,-14.81621 40.10208,-24.9479 43.68805,-25.64083 48.09291,-29.43094 70.01398,-60.24254 11.24948,-15.81192 15.7562,-19.35793 21.02132,-16.54013 1.5332,0.82054 2.78764,2.25609 2.78764,3.19009 0,2.59752 -8.99447,17.01076 -13.59585,21.78678 -4.52152,4.6931 -4.32403,8.42121 0.4461,8.42121 1.61368,0 9.28251,1.45813 17.04186,3.24028 7.75934,1.78216 18.90789,4.28067 24.77456,5.55224 17.74978,3.84719 45.54342,15.88924 53.13591,23.02201 1.66978,1.56868 3.62046,2.85214 4.33484,2.85214 0.71439,0 5.3544,3.6 10.31114,8 9.16612,8.13658 12.15765,9.2243 18.61613,6.7688 3.91599,-1.48886 4.90835,-3.70099 6.32623,-14.10214 0.59981,-4.4 1.69734,-10.7 2.43897,-14 0.74161,-3.3 1.75963,-11.71317 2.26225,-18.69593 0.78012,-10.83811 0.59636,-12.95943 -1.25581,-14.49659 -5.04836,-4.18976 -0.944,-13.49473 5.93532,-13.45595 11.32736,0.0639 13.31533,4.42371 11.84716,25.98181 -0.59932,8.8 -1.49284,17.30849 -1.98563,18.90776 l -0.89596,2.90776 47.79805,0.43169 c 34.21227,0.309 48.30658,0.003 49.58716,-1.0778 1.45782,-1.23001 0.37638,-4.19377 -5.84046,-16.00613 -4.19627,-7.97314 -9.46454,-17.19662 -11.70727,-20.49662 -5.82032,-8.56412 -23.93169,-30.84771 -32.02484,-39.40224 l -6.8832,-7.27559 -30.83673,-1.49564 c -22.83061,-1.10732 -35.21283,-1.10586 -47.69185,0.005 -9.27032,0.82566 -19.83236,1.50121 -23.4712,1.50121 -5.99536,0 -6.69687,-0.32189 -7.47719,-3.43096 -1.37832,-5.49164 1.055,-6.51501 17.20471,-7.23571 15.2647,-0.6812 68.51773,0.64438 76.93893,1.91518 10.16028,1.53322 10.22637,-3.55391 0.16841,-12.96195 l -6.4074,-5.99337 -17.21384,-1.10006 c -26.93762,-1.72146 -65.416,-1.40432 -74.31958,0.61254 -4.27482,0.96834 -8.0796,1.45342 -8.45507,1.07796 -1.78207,-1.78207 1.65445,-6.67975 6.02263,-8.58336 3.93348,-1.71418 10.39145,-2.14004 33.53818,-2.21162 15.76667,-0.0488 34.51667,0.31944 41.66667,0.81823 7.82876,0.54613 13,0.41059 13,-0.34077 0,-0.68622 -3.65424,-4.99431 -8.12053,-9.57355 l -8.12055,-8.32589 h -26.87945 c -14.78371,0 -31.52947,0.38321 -37.2128,0.85158 l -10.33334,0.85159 0.0204,-3.51825 c 0.0107,-1.93504 0.46123,-4.18708 1,-5.00454 1.4894,-2.25981 13.00675,-3.1999 42.01015,-3.42905 l 26.36389,-0.20829 -3.2688,-3.43819 c -4.51866,-4.75283 -5.61025,-9.99127 -2.93333,-14.07676 1.18412,-1.8072 2.82419,-6.45283 3.64459,-10.32363 2.56373,-12.09605 6.14553,-17.05317 27.72536,-38.37113 23.75503,-23.46678 32.91062,-34.01102 30.71179,-35.36996 -0.80817,-0.49948 -21.22545,-1.23623 -45.37173,-1.6372 -24.14626,-0.40072 -43.90232,-1.12531 -43.90232,-1.60995 0,-0.48463 1.95,-2.34399 4.33334,-4.13189 5.32212,-3.99251 12.48757,-4.14962 61.36938,-1.34562 32.40888,1.85907 33.10337,1.84478 36.58259,-0.75284 1.95061,-1.45633 3.76545,-3.30458 4.033,-4.10722 0.77112,-2.31334 -7.18186,-4.08187 -22.31831,-4.96304 -17.56424,-1.0225 -67.57338,-6.8237 -71.36449,-8.27848 -1.12272,-0.43083 -1.96884,-2.45184 -1.96884,-4.70271 0,-3.91768 0.0473,-3.94199 6.33333,-3.25151 3.48334,0.38264 11.43334,1.05372 17.66667,1.49131 6.23333,0.43759 14.03333,1.3682 17.33333,2.06804 8.40198,1.78183 53.97889,7.92465 58.79725,7.92465 2.18756,0 5.73574,-1.3 7.88483,-2.88889 4.43877,-3.28172 11.63117,-3.81788 13.4148,-1 3.04297,4.80744 1.08212,7.90643 -15.76355,24.91304 -43.59386,44.01036 -66.19641,69.1483 -68.6127,76.30919 -2.27512,6.74252 22.25537,41.45799 52.28956,74 28.66836,31.06215 54.12141,71.07172 62.40218,98.08982 2.98039,9.72428 5.35792,27.66704 6.0834,45.91018 0.26247,6.6 0.9017,12.99584 1.42052,14.21299 0.52176,1.22403 0.0133,4.01219 -1.13861,6.23899 -1.14505,2.2143 -3.51865,9.68786 -5.27467,16.60792 -1.756,6.92006 -4.8249,16.2189 -6.8198,20.66409 -4.22497,9.41451 -3.77354,11.26043 2.32596,9.51112 2.36862,-0.67931 19.34052,-1.23511 37.71536,-1.23511 24.20686,0 33.84946,-0.44069 35.00876,-1.6 3.4242,-3.42412 1.1719,-37.59248 -3.4096,-51.72562 -1.8042,-5.56587 -3.0688,-7.36347 -5.657,-8.04139 -4.8109,-1.26011 -20.04241,2.16423 -33.16724,7.45659 -12.95553,5.22409 -16.94493,5.8012 -15.51073,2.24376 0.51739,-1.28334 1.26287,-4.60036 1.65663,-7.37116 0.7872,-5.5394 4.04269,-8.53807 14.09841,-12.98619 6.28787,-2.78143 33.08983,-10.4668 51.58953,-14.79315 6.2334,-1.45772 16.3729,-4.1287 22.5323,-5.9355 28.9937,-8.50506 101.8304,-16.56724 149.4677,-16.54438 36.8991,0.0177 56.912,3.44344 85.7339,14.67558 29.6107,11.53956 42.6664,20.3022 46.9463,31.5091 2.1849,5.72119 2.1624,6.38343 -0.5934,17.37083 -1.5757,6.2826 -3.7177,13.07205 -4.7601,15.08769 -3.3301,6.43967 -14.8969,18.01143 -24.2534,24.26376 -40.6263,27.14797 -94.5484,37.72217 -161.7399,31.71757 -9.1667,-0.8192 -29.2667,-2.0909 -44.6667,-2.826 -15.4,-0.7351 -31.6,-1.6251 -36,-1.9778 -4.4,-0.3526 -28.5733,-0.9575 -53.7184,-1.344 -47.56032,-0.7312 -65.99116,0.3462 -71.87562,4.2019 -4.52653,2.9659 -8.00822,9.1567 -11.22073,19.9518 -1.52764,5.1333 -4.32073,12.1946 -6.20689,15.6917 l -3.42936,6.3583 3.36338,3.6417 c 1.84986,2.0029 3.73119,4.6882 4.18074,5.9673 1.26218,3.5915 8.44212,7.3075 17.04826,8.8235 6.98095,1.2296 15.51198,5.1972 21.2103,9.8644 3.07872,2.5216 6.64833,8.6028 6.64833,11.3261 0,1.3383 0.95368,6.0095 2.11928,10.3802 2.5416,9.5304 2.81163,44.021 0.4902,62.6135 -0.82407,6.6 -1.72756,15.3 -2.00777,19.3333 -2.21858,31.9336 -26.33554,111.0558 -40.49038,132.8396 -2.84982,4.3858 -7.36032,12.2495 -10.02329,17.4748 -2.66299,5.2253 -7.22219,12.3812 -10.13157,15.902 -2.90939,3.5208 -5.2898,6.9167 -5.2898,7.5465 0,3.1122 -12.78506,15.6496 -19.34134,18.9668 -3.98706,2.0174 -8.36476,4.7071 -9.72821,5.9774 -3.68444,3.4325 -22.28008,13.4293 -32.93045,17.7029 -16.24063,6.5169 -24.74127,8.9028 -36.53323,10.2541 -13.71789,1.572 -18.19477,1.502 -40.86845,-0.6392 z m 57.78244,-23.9269 c 24.76897,-5.3069 49.67532,-18.1625 64.92961,-33.5139 21.60387,-21.7413 42.61357,-67.4191 56.68973,-123.2508 11.07952,-43.9458 11.27227,-45.3326 11.30423,-81.3333 0.0313,-35.3591 -1.32664,-46.1632 -6.43951,-51.2313 -2.96541,-2.9394 -19.23088,-7.0143 -22.69398,-5.6854 -1.00995,0.3875 -2.25742,3.5131 -2.77216,6.9457 -1.50615,10.0437 -10.44126,34.877 -17.82327,49.5361 -12.26347,24.3526 -29.30881,48.5507 -42.50928,60.3476 -10.42684,9.3182 -20.12984,13.5748 -43.06613,18.8924 -17.80064,4.127 -21.07743,4.482 -41.33333,4.4781 -22.43202,0 -38.19456,-2.2856 -46.99701,-6.8021 -6.40762,-3.2877 -8.54412,-1.1075 -25.66091,26.1856 -19.55615,31.1827 -25.17775,46.616 -25.25475,69.3333 -0.0397,11.7051 0.43834,15.0599 2.91614,20.4656 10.0627,21.9536 32.04738,36.68 63.94357,42.8327 13.36293,2.5776 14.24934,2.255 15.21596,-5.5375 1.11488,-8.9879 2.84677,-14.1357 11.40402,-33.8975 7.27066,-16.7904 14.09736,-27.3068 16.6872,-25.7062 2.23602,1.3819 0.3721,8.5517 -6.93304,26.6686 -6.6372,16.4604 -12.37928,37.9362 -11.06144,41.3704 0.34963,0.9111 2.83422,1.9296 5.52131,2.2634 8.89871,1.1053 34.06665,-0.2475 43.93304,-2.3615 z M 1181.8743,996.00002 c 0.4636,-3.3 1.1971,-14.1586 1.63,-24.13023 0.6188,-14.25269 0.2933,-20.66882 -1.5218,-30 -2.8787,-14.79838 -9.3616,-32.1103 -12.6921,-33.89274 -2.1821,-1.1678 -10.3255,-1.54474 -35.9571,-1.6643 -15.8953,-0.0741 -32.0908,1.87778 -38.2464,4.60955 -4.1843,1.85692 -8.8402,2.78823 -13.3688,2.67411 -3.8216,-0.0963 -7.2525,0.31688 -7.6241,0.91816 -0.3716,0.60129 -0.1112,4.63149 0.5787,8.95602 1.2457,7.80796 4.7045,42.2888 6.2508,62.31416 0.4439,5.74827 1.4677,10.67223 2.2751,10.94214 0.8074,0.26989 11.068,1.10165 22.8014,1.84834 27.6176,1.75757 48.4511,3.74587 60.7897,5.80177 11.8412,1.973 13.782,0.8952 15.0846,-8.37698 z m 38.5983,3.58307 c 4.6799,-3.06639 5.4048,-8.3902 4.3187,-31.71562 -0.9826,-21.10028 -3.6216,-33.68313 -9.4954,-45.27465 -1.8128,-3.57728 -3.2959,-7.35763 -3.2959,-8.40076 0,-1.04315 -1.0846,-3.23596 -2.4101,-4.87295 -2.1393,-2.64184 -3.7951,-3.01105 -14.7342,-3.28525 -10.8476,-0.27192 -12.2212,-0.0528 -11.4657,1.82861 6.4441,16.04602 13.1128,68.87286 10.3195,81.74671 -0.749,3.45171 -1.0607,7.85055 -0.6928,9.7752 l 0.669,3.49942 11.6921,-0.5356 c 7.9338,-0.3634 12.7858,-1.2522 15.0948,-2.76511 z m 44.8607,-9.58 c 10.7057,-3.05378 25.1762,-11.65506 32.5315,-19.33675 5.4307,-5.67167 7.6758,-9.35695 9.9063,-16.26136 2.0352,-6.29957 2.5376,-9.83936 1.7068,-12.02472 -1.4379,-3.782 -12.7029,-14.38024 -15.2849,-14.38024 -1.0266,0 -2.6442,-0.93701 -3.5946,-2.08225 -6.6136,-7.96888 -57.3628,-23.39047 -66.0292,-20.06484 -2.5378,0.97384 -1.5972,7.10434 2.9773,19.40541 4.504,12.11124 7.1201,31.65037 7.1201,53.17735 0,10.14926 0.334,18.78714 0.7421,19.19528 0.4081,0.40813 5.9581,-0.7561 12.3333,-2.58718 6.3752,-1.83108 14.2913,-4.0994 17.5913,-5.0407 z m -194.0947,-3.3364 c -0.1372,-10.62974 -4.208,-54.0756 -5.8696,-62.64332 -1.9927,-10.27579 -3.1444,-11.06863 -11.7958,-8.12047 -10.4483,3.56051 -10.4715,3.61697 -7.0209,17.05708 1.6531,6.43868 3.8762,15.60671 4.9403,20.37337 1.0641,4.76667 2.5271,11.06667 3.2512,14 0.7241,2.93334 2.003,9.53334 2.842,14.66667 1.8837,11.52467 2.8857,12.91049 8.9667,12.40075 l 4.7808,-0.40075 -0.095,-7.33333 z m -23.7565,4.75984 c 1.2567,-3.27503 -3.2488,-27.5637 -7.9443,-42.82663 -2.4703,-8.02993 -5.0269,-16.99988 -5.6813,-19.93321 -1.0648,-4.77263 -1.6104,-5.33334 -5.1899,-5.33334 -3.5973,0 -4.0445,0.46924 -4.4422,4.66135 -0.2433,2.56373 0.1937,7.96373 0.9711,12 0.7774,4.03625 2.0474,16.93865 2.8222,28.67199 0.7747,11.73333 1.6689,22.08333 1.987,23 0.8603,2.47968 16.5162,2.26454 17.4774,-0.24016 z M 743.83767,975.76471 c 15.63266,-8.83302 26.82898,-17.16232 26.82898,-19.95892 0,-2.62709 -15.5304,-17.55694 -26.66667,-25.63546 -19.76685,-14.33936 -40.65998,-25.74474 -70,-38.21235 -16.654,-7.07688 -22.65873,-7.94312 -27.66666,-3.99121 -2.01667,1.5914 -3.6632,3.59992 -3.65896,4.46336 0.004,0.86344 4.28769,3.66989 9.5188,6.23656 11.33832,5.56321 38.38476,25.86713 53.09153,39.85613 4.77725,4.54409 22.71529,27.29055 22.71529,28.80428 0,0.92385 0.9,2.42667 2,3.33959 1.1,0.91292 2,2.66638 2,3.89658 0,2.02954 2.36331,5.43675 3.77103,5.43675 0.31406,0 3.94406,-1.90589 8.06666,-4.23531 z m 37.80151,-31.2534 c 14.47663,-15.64928 14.52929,-15.72344 11.86616,-16.7086 -1.34797,-0.49864 -4.03408,-3.60817 -5.96911,-6.91005 -5.32773,-9.09108 -15.69362,-17.26559 -32.27741,-25.45383 -20.26025,-10.00349 -35.71174,-14.95476 -56.71616,-18.17408 -9.69824,-1.48644 -18.12912,-3.00914 -18.73529,-3.38377 -2.82983,-1.74893 -16.30175,-3.04355 -18.64143,-1.79139 -4.12665,2.20852 -3.06872,5.24183 1.83404,5.25848 4.52202,0.0153 32.57436,13.49075 49.4696,23.76351 5.02496,3.05531 9.38942,5.55511 9.69882,5.55511 0.3094,0 3.69808,2.1346 7.5304,4.74354 14.25651,9.7055 27.15853,20.19722 36.26223,29.4879 5.15476,5.26062 9.50992,9.61062 9.67815,9.66666 0.16824,0.056 2.86824,-2.66802 6,-6.05348 z m 150.09024,-2.95254 c 1.22301,-0.79703 1.61344,-4.00607 1.33333,-10.95906 l -0.39611,-9.83201 -4.66666,-1.1406 c -2.56667,-0.62733 -27.66254,-1.25005 -55.76859,-1.38384 l -51.10192,-0.24324 -4.23141,4.83792 c -9.39191,10.73808 -13.10728,16.02707 -12.45417,17.72903 0.56002,1.45942 12.22137,1.8205 63.12151,1.95449 34.33902,0.0904 63.21282,-0.34283 64.16402,-0.96269 z m -0.26524,-31.419 c 0.94644,-2.46635 -1.73471,-12.21978 -3.97495,-14.46002 -1.42505,-1.42506 -11.10795,-1.69444 -49.27087,-1.37069 -26.12347,0.2216 -48.89729,0.93521 -50.60847,1.5858 -3.38835,1.28825 -7.40142,11.51365 -5.33115,13.58392 0.63291,0.63291 20.92911,1.31759 45.10265,1.52152 24.17356,0.20392 48.32075,0.51228 53.66043,0.68524 7.29612,0.23633 9.88589,-0.14776 10.42236,-1.54577 z M 329.26179,1144.4499 c -1.35156,-4.0952 -1.05918,-22.9433 0.4668,-30.0931 0.37124,-1.7394 -2.65896,-3.3643 -9.42325,-5.053 -6.09788,-1.5223 -12.30383,-6.5397 -26.89709,-21.7458 -7.6637,-7.9856 -21.39675,-26.655 -21.40522,-29.0994 -0.001,-0.481 -3.65048,-8.581 -8.10846,-18 -4.45799,-9.4189 -9.51912,-20.1252 -11.24698,-23.7919 -12.05148,-25.57451 -17.5664,-54.42031 -16.3331,-85.43045 0.59889,-15.05855 1.22038,-18.68959 4.91914,-28.73951 7.42072,-20.16289 26.58635,-47.31464 50.76636,-71.92014 11.97279,-12.18346 40.50956,-35.53677 63.57681,-52.0286 18.48819,-13.21804 81.09675,-47.19713 91.73556,-49.78696 2.18847,-0.53274 7.15948,-2.4234 11.0467,-4.20144 l 7.06764,-3.23281 5.28663,2.69704 c 3.86778,1.97319 5.28666,3.52797 5.28666,5.79303 0,2.55714 -1.80875,3.94476 -10.39256,7.9729 -5.71589,2.68231 -10.86356,4.87692 -11.43925,4.87692 -0.5757,0 -5.04904,1.57663 -9.94078,3.50362 -20.56854,8.10249 -29.03582,12.77632 -27.53765,15.20042 0.34479,0.55787 13.08064,1.0389 28.30189,1.06894 39.217,0.0775 58.63448,2.37866 54.54837,6.46477 -0.52186,0.52187 -17.28186,0.80239 -37.24443,0.62337 -19.96258,-0.17901 -41.69559,0.25894 -48.29559,0.9732 -19.31852,2.09072 -46.69501,11.90526 -41.78471,14.97992 0.98159,0.61463 10.48471,0.754 21.11804,0.30971 14.393,-0.60139 23.7626,-0.23252 36.66667,1.44348 18.72375,2.43187 42.88157,7.78081 45.08284,9.98208 2.89786,2.89787 -3.38342,2.79685 -30.90328,-0.49692 -41.88469,-5.01305 -66.10288,-4.27576 -86.9452,2.64696 -3.38588,1.1246 -12.04495,5.92727 -19.24237,10.6726 -7.19744,4.74532 -13.59003,8.62785 -14.20579,8.62785 -0.61574,0 -1.11953,0.9 -1.11953,2 0,2.461 0.39079,2.45926 8.62544,-0.0385 13.94432,-4.22975 37.72808,-6.40235 68.16049,-6.22633 28.18657,0.16302 54.74333,1.81133 59.67524,3.70388 7.10372,2.72596 -1.68896,3.49448 -43.83477,3.83134 -47.06743,0.3762 -53.37476,0.93927 -77.75574,6.94139 -10.05622,2.47565 -14.19465,2.99764 -15.26666,1.92563 -3.85803,-3.85803 -7.96432,-1.50518 -21.47812,12.30662 -22.66764,23.16751 -42.90888,54.52561 -43.75709,67.78927 l -0.36879,5.76674 12,1.03208 c 7.05268,0.60657 22.71919,0.37452 38,-0.56287 24.82507,-1.52287 122.66836,-2.41479 136.66666,-1.24583 6.92419,0.57822 10.49762,2.22611 9.23996,4.26103 -0.40186,0.65024 -17.04526,1.21217 -36.98532,1.24873 -76.3682,0.14006 -152.86199,4.19114 -158.05895,8.37075 -1.28388,1.03255 -1.65119,3.85616 -1.2734,9.78909 0.292,4.5859 0.80394,8.59115 1.13765,8.90058 0.33371,0.30941 14.70673,-0.008 31.94007,-0.70523 37.60725,-1.52165 92.45469,-0.42901 122.66666,2.44368 12.1,1.15053 22.28263,2.35912 22.62805,2.68576 0.34543,0.32664 -0.25457,1.19389 -1.33333,1.92724 -1.20759,0.82092 -9.13536,1.05567 -20.62805,0.6108 -61.13455,-2.36644 -100.1794,-2.41237 -123.28769,-0.14503 -12.96563,1.27216 -24.9052,3.12139 -26.93699,4.17207 -3.45635,1.78735 -3.60749,2.25713 -2.85883,8.88547 0.43476,3.84909 1.05647,7.29834 1.38158,7.66501 0.3251,0.36667 37.59104,0.77137 82.81318,0.89933 45.22215,0.128 85.51408,0.72798 89.53765,1.33334 5.36087,0.80657 7.4355,1.72412 7.76443,3.434 0.41943,2.1803 -2.20272,2.33514 -39.98224,2.36096 -22.23709,0.0152 -59.33109,0.6889 -82.43109,1.49713 -23.1,0.80821 -43.96841,1.39469 -46.37425,1.30328 -2.56624,-0.0975 -4.65898,0.57576 -5.0631,1.62888 -0.77226,2.01251 8.85216,25.29953 15.51883,37.54893 4.05984,7.4596 23.37343,37.8598 24.20832,38.1047 0.20728,0.061 16.57687,0.3813 36.37686,0.7123 32.23639,0.5389 77.95735,3.2172 95.98479,5.6229 5.07908,0.6777 6.76657,1.489 7.13843,3.432 0.46381,2.4235 -0.20091,2.4992 -13.9848,1.5943 -43.17776,-2.8347 -57.99336,-3.2039 -84.35314,-2.1023 -15.89749,0.6643 -29.14998,1.7949 -29.90639,2.5513 -2.31623,2.3163 1.6266,7.5795 10.16452,13.5685 9.17463,6.4356 6.77163,6.225 50.88877,4.4612 16.7659,-0.6703 32.4651,-0.4624 46.66666,0.6181 22.23048,1.6914 28.29006,2.9851 28.29006,6.04 0,1.4822 -7.7268,1.7662 -43.44446,1.597 -31.76258,-0.1505 -45.82274,0.275 -52.28929,1.5825 l -8.84487,1.7884 0.61452,11.5449 c 0.53144,9.9845 1.75676,19.945 3.30691,26.8816 0.45525,2.0372 -9.8464,4.9396 -18.46164,5.2015 -3.73028,0.1133 -4.4203,-0.4483 -5.8416,-4.7549 z m 437.73819,-81.7432 c -3.45973,-1.4847 -3.79791,-3.7772 -1.09923,-7.4518 1.82044,-2.4788 3.72238,-2.5776 45,-2.3366 23.70458,0.1383 45.19923,0.5478 47.7659,0.91 2.56666,0.3621 12.01666,0.6989 20.99999,0.7484 l 16.33334,0.09 v 4 4 h -55.13775 c -30.32576,0 -58.67576,0.2987 -63,0.6637 -4.32424,0.3651 -9.21225,0.084 -10.86225,-0.6237 z M 753.43567,1032.79 c -0.91074,-1.0974 -1.45006,-3.074 -1.19849,-4.3926 0.49169,-2.5771 -1.77663,-2.3277 49.7628,-5.4718 20.39199,-1.2441 53.58755,-0.9606 68,0.5806 4.4,0.4705 10.7,0.9619 14,1.0919 4.96472,0.1957 6,0.6821 6,2.8192 0,2.4982 -1.43959,2.5897 -44,2.7975 -38.82777,0.1896 -77.21039,1.8999 -87.45421,3.897 -2.13922,0.4171 -4.0846,-0.086 -5.1101,-1.3218 z M 477.16771,721.32042 c -1.19108,-0.69586 -5.67523,-1.60602 -9.96478,-2.02259 -4.28954,-0.41659 -8.76226,-1.62901 -9.93937,-2.69428 -1.17712,-1.06528 -2.5459,-1.93687 -3.04176,-1.93687 -3.8084,0 -34.43594,-17.34137 -43.55514,-24.661 -4.76667,-3.82603 -13.46667,-10.46983 -19.33334,-14.76401 -5.86666,-4.29419 -14.59993,-11.43028 -19.40726,-15.85798 -4.80732,-4.42769 -11.46304,-10.45034 -14.79048,-13.38368 -23.26766,-20.5118 -39.04109,-70.72112 -33.11864,-105.42178 2.01195,-11.78834 4.55985,-20.4301 10.58804,-35.91155 0.57108,-1.46667 2.42834,-6.26667 4.12724,-10.66667 8.65118,-22.40587 43.12208,-66.22115 67.00764,-85.17212 3.5236,-2.79564 6.2236,-5.96857 6,-7.05096 -0.44876,-2.17239 -5.44915,-4.96975 -26.61343,-14.88832 -15.59247,-7.30736 -16.64411,-8.56616 -15.20024,-18.19456 0.78261,-5.21882 1.33799,-5.88851 6.46497,-7.79564 16.5466,-6.15504 44.57276,-7.68184 165.60883,-9.02207 125.68862,-1.39173 131.07177,-1.21712 187.99999,6.09788 8.06667,1.03652 19.46667,2.20745 25.33333,2.60205 58.49614,3.93452 86.25928,7.03396 90.66667,10.12187 0.73333,0.5138 3.13333,1.36317 5.33333,1.88751 8.13968,1.93996 12.66667,4.89205 12.66667,8.26008 v 3.20854 l -16.04208,-0.19569 c -12.74803,-0.15552 -16.51256,0.22492 -18.33333,1.85276 -1.89783,1.69674 -4.12279,1.85514 -12.95792,0.92252 -5.86667,-0.61926 -14.86667,-2.09377 -20,-3.27668 -6.04159,-1.3922 -20.85447,-2.58377 -42,-3.37857 -56.04943,-2.10671 -81.09171,-4.91519 -90.90791,-10.1953 -5.57306,-2.99773 -21.13674,-3.19897 -46.42542,-0.60026 -13.73304,1.41124 -26.53392,1.60189 -54,0.8043 -49.38581,-1.43412 -57.45665,-1.46217 -98.66666,-0.34298 -41.05752,1.11505 -52.96227,2.07472 -52.3129,4.21708 0.24538,0.80953 3.00527,2.77852 6.13311,4.37549 3.12783,1.59699 7.12673,3.84699 8.88647,5 5.04808,3.30764 10.12044,2.52164 24.18384,-3.74745 15.38697,-6.8591 22.14341,-8.26508 25.17061,-5.23787 3.74445,3.74445 1.756,7.35407 -6.7278,12.2129 -14.5042,8.30682 -29.22067,18.34754 -36.66667,25.01686 -4.03333,3.61262 -10.33333,8.9572 -14,11.87684 -3.66666,2.91966 -12.66666,11.30932 -20,18.64371 -7.33333,7.33439 -16.84938,16.27599 -21.14677,19.87023 -19.24493,16.09597 -31.16832,48.12305 -34.89232,93.72335 -2.21439,27.1149 9.53919,58.15952 28.39403,74.99694 19.61909,17.5199 56.2437,44.32023 72.9784,53.40247 39.67458,21.53218 51.71694,32.36474 41.27059,37.1244 -4.05361,1.84695 -5.88061,1.88884 -8.76954,0.2011 z m 163.1207,-40.98707 c -3.24387,-3.48334 -6.72385,-7.93044 -7.73331,-9.88247 -1.93822,-3.74801 -7.29261,-5.91461 -29.22178,-11.82432 -13.79801,-3.71844 -31.92224,-12.64875 -45.25319,-22.29751 -17.63254,-12.76218 -24.7171,-27.22592 -24.73909,-50.50693 -0.008,-7.85745 0.13596,-8.20659 3.65895,-8.90985 5.06505,-1.01111 7.79413,2.89677 8.80992,12.61534 0.4467,4.27382 1.36061,8.82848 2.03092,10.12148 0.6703,1.293 2.2631,4.88239 3.53954,7.9764 3.4218,8.29423 18.38898,22.1519 29.13095,26.9715 9.74619,4.37281 33.8424,11.54861 44.36661,13.21226 20.80376,3.28863 75.5632,-6.33326 94.67601,-16.6357 14.39455,-7.75914 17.87575,-10.32223 27.22445,-20.04442 15.22842,-15.8368 25.36927,-31.52209 31.36054,-48.50669 3.01653,-8.55156 3.53649,-12.30649 3.68645,-26.62243 0.096,-9.16667 -0.30165,-17.61779 -0.88373,-18.78025 -0.68739,-1.37279 -0.13254,-3.2421 1.58313,-5.33334 3.79448,-4.62518 6.82885,-2.24848 10.33501,8.095 2.86852,8.4624 3.0898,14.35563 1.12718,30.01859 -2.0828,16.62194 -13.54448,41.40235 -27.90596,60.33334 -5.70231,7.51666 -10.78658,13.66666 -11.29835,13.66666 -0.51177,0 -4.79724,3.18519 -9.52325,7.0782 -4.89899,4.0355 -14.83368,10.05644 -23.11092,14.00643 -12.92285,6.16693 -15.77981,7.01807 -26,7.74583 -12.28969,0.87513 -17.48184,2.99985 -17.48184,7.15389 0,1.42424 -1.81941,4.66172 -4.04313,7.19441 -5.72276,6.51786 -22.99742,19.48791 -25.95571,19.48791 -1.3648,0 -5.13553,-2.85 -8.3794,-6.33333 z m 15.12909,-15.60803 c 2.76528,-4.22035 1.53527,-6.05864 -4.05382,-6.05864 -8.53343,0 -10.67315,2.27311 -6.49038,6.89501 3.12627,3.4545 7.98526,3.06908 10.5442,-0.83637 z M 469.29632,634.18863 c -9.20217,-1.98256 -17.76238,-6.90255 -30.7571,-17.67766 -17.05446,-14.14142 -25.63424,-24.31085 -33.11072,-39.24537 -7.06454,-14.11164 -8.12022,-19.63769 -5.29807,-27.73329 1.64815,-4.72787 4.99757,-5.49464 8.14952,-1.86563 1.11464,1.28333 3.29275,6.57748 4.84025,11.76477 4.68662,15.70971 11.3325,25.96555 26.19811,40.4287 10.93747,10.64133 15.58867,14.12405 25.27317,18.92398 l 11.8688,5.88255 h 16.76985 c 9.22343,0 22.31986,-0.53609 29.10319,-1.19131 6.78333,-0.65521 12.33333,-0.76577 12.33333,-0.24568 0,0.5201 -0.5954,2.05814 -1.32309,3.41787 -4.02209,7.51532 -42.91268,12.0944 -64.04724,7.54107 z m 465.2194,-33.42059 c -0.44968,-0.46621 -7.86974,-2.03484 -16.48902,-3.48583 -8.6193,-1.451 -17.55138,-3.51921 -19.84908,-4.59602 -8.13628,-3.81306 -24.24771,-6.22302 -45.51097,-6.8076 -31.46198,-0.86496 -36.54695,-1.8698 -32.73083,-6.46794 1.07007,-1.28936 6.21984,-1.94005 18.00448,-2.27493 9.07816,-0.25797 16.99125,-0.95492 17.58468,-1.54879 0.59341,-0.59385 -2.39992,-4.13125 -6.65185,-7.86086 -7.57352,-6.64319 -23.67506,-25.84235 -30.52696,-36.39978 -6.08556,-9.37663 -10.34619,-25.81389 -10.34619,-39.915 0,-12.59393 3.28673,-32.11311 7.30741,-43.39712 3.03991,-8.53151 15.84066,-32.42823 23.04136,-43.01416 5.41568,-7.96173 6.61431,-9 10.38999,-9 5.55193,0 7.52841,2.41935 6.08581,7.4494 -1.5719,5.48095 -7.83917,17.72844 -11.71392,22.89139 -5.76362,7.67977 -10.91252,20.64686 -13.7131,34.53532 -4.73747,23.49369 -3.42175,31.15576 9.30877,54.20958 12.08356,21.88222 18.80208,30.65401 29.72364,38.80755 10.6675,7.9639 29.37162,18.09827 39.15705,21.21631 16.5752,5.28155 55.16097,6.86665 69.11644,2.83929 4.37976,-1.26394 13.71128,-5.17382 20.73671,-8.68861 10.58496,-5.2956 14.36236,-8.09191 22.04696,-16.32047 10.1291,-10.84616 26.3792,-32.87641 31.2106,-42.31223 3.9284,-7.67202 9.3023,-27.13734 9.3023,-33.6944 0,-2.79709 -0.6926,-7.83618 -1.5391,-11.19801 -1.6117,-6.40064 -0.6487,-17.64964 3.7234,-43.49353 1.4517,-8.58064 2.0425,-23.71495 2.1864,-56.00001 l 0.197,-44.24158 -5.6354,-27.15028 c -10.7376,-51.73092 -16.94,-72.84137 -28.788,-97.98221 -9.3325,-19.80313 -15.3178,-29.68841 -23.8,-39.30788 C 1002.678,153.40184 996.30179,145.2 992.17484,139.33334 980.35315,122.52815 952.94847,96.044999 931.99998,81.181955 898.41552,57.353641 870.44652,44.721386 833.33331,36.618966 c -8.43333,-1.841135 -18.65168,-4.487204 -22.70742,-5.880155 -24.5161,-8.42006 -51.8972,-12.197113 -90.62591,-12.50128 -35.41482,-0.27814 -76.8842,4.536616 -102.6421,11.917151 -14.62144,4.189549 -53.30589,19.229442 -86.02456,33.444966 -21.21016,9.215336 -64.08664,36.873862 -80.56381,51.969662 -9.31099,8.53039 -28.82743,31.86667 -38.62264,46.18203 -15.15707,22.15149 -30.99743,68.48957 -36.3204,106.24867 -2.17617,15.43694 -2.10565,64.82705 0.10907,76.43066 1.89908,9.9496 1.46508,11.09855 -4.64394,12.29379 -6.70856,1.31255 -8.69316,-1.44432 -10.66102,-14.80956 -5.97562,-40.58463 -2.46343,-87.53019 9.23009,-123.37371 14.44972,-44.29196 37.49904,-80.83831 69.54595,-110.27005 24.80812,-22.783686 73.69819,-53.596448 104.37791,-65.783736 5.41264,-2.150127 18.18504,-7.523119 28.38312,-11.939982 51.92901,-22.4908077 86.48296,-29.2761447 150.499,-29.55338891 40.96281,-0.17740405 57.783,1.60969071 90.66666,9.63306491 11.36667,2.773384 25.16667,6.075801 30.66667,7.338705 20.12364,4.620768 63.25332,22.47211 85.05045,35.202322 13.00923,7.597795 40.14095,29.581889 53.05065,42.985489 9.38216,9.741116 19.12152,21.497116 42.95272,51.846386 20.9382,26.66496 30.9599,48.74168 46.2107,101.79658 4.5925,15.97656 12.7337,57.40573 12.7429,64.84641 0,3.31303 0.5744,8.12368 1.2674,10.69035 1.7865,6.61669 2.1001,23.73783 0.9158,50 -0.5622,12.46667 -1.2447,27.76667 -1.5166,34 -0.2719,6.23334 -2.3737,20.03334 -4.6706,30.66667 -5.7894,26.80169 -6.6535,32.52487 -6.6624,44.1246 -0.01,11.61405 -2.2351,19.09923 -10.6703,35.8754 -6.6408,13.20741 -22.6797,34.69326 -32.4922,43.52692 -15.6763,14.11244 -42.22604,28.41331 -62.49094,33.66043 -10.74636,2.78251 -31.75445,5.0502 -33.17184,3.58068 z m -272.84907,-5.65107 c -2.59957,-1.04896 -1.96851,-6.8616 0.91235,-8.40338 4.76704,-2.55124 7.73728,-1.637 9.30652,2.86453 1.14126,3.27383 1.09485,4.48911 -0.2029,5.31292 -1.83904,1.16743 -7.37333,1.29227 -10.01597,0.22593 z m -422.17904,-7.6436 c -1.99792,-7.9604 6.10297,-20.95337 23.44013,-37.59546 9.59203,-9.20747 14.53641,-12.96091 28.40559,-21.56354 4.57804,-2.83963 9.05341,-4.61376 17.32102,-6.8664 9.15942,-2.49564 10.91967,-5.42392 5.08435,-8.45815 -2.05629,-1.06921 -7.31405,-4.13573 -11.68391,-6.81449 -9.3494,-5.73124 -14.45312,-7.41081 -25.63677,-8.43677 -11.49507,-1.05454 -27.08589,2.73386 -34.48063,8.37838 -8.6857,6.62996 -11.16216,7.71744 -12.08684,5.30775 -1.66736,-4.34504 4.46715,-10.91161 14.30167,-15.30899 25.00483,-11.18056 48.88425,-8.47034 75.95865,8.62098 7.6868,4.85245 7.65287,8.92962 -0.14289,17.1725 -5.01216,5.2996 -9.09388,7.9312 -18.64993,12.02412 -8.63123,3.69682 -16.05855,8.26653 -25.22368,15.51903 -15.78943,12.49439 -20.94654,18.35932 -27.50454,31.27963 -5.24208,10.32771 -7.73813,12.17637 -9.10222,6.74141 z m 404.88261,-14.47336 c -2.89721,-3.74429 -2.90262,-6.27617 -0.0177,-8.29684 C 649.6172,561.01565 656,562.8552 656,568.06003 c 0,5.02237 -8.70493,8.71997 -11.62976,4.93998 z m 45.29643,-7.21637 c -2.2612,-0.91241 -2.10725,-5.09145 0.25995,-7.05605 1.05962,-0.87942 3.30962,-1.40288 5,-1.16326 2.37996,0.33739 3.16765,1.41338 3.4912,4.76902 0.38385,3.98113 0.11293,4.32477 -3.33334,4.22806 -2.06313,-0.0579 -4.50114,-0.40789 -5.41781,-0.77777 z m -152.33333,-5.0746 c -25.00532,-7.86128 -44.46417,-20.55115 -50.92096,-33.2075 -5.90865,-11.58189 -4.42933,-34.27402 3.22253,-49.43226 7.71252,-15.27843 28.09275,-31.92667 45.83438,-37.44128 9.28437,-2.88586 30.78508,-3.85635 47.50714,-2.14436 30.37615,3.10988 46.07965,13.48913 58.86177,38.9048 l 6.39807,12.72174 -2.29667,7.94492 c -3.70104,12.80304 -7.72472,20.74882 -14.82628,29.27824 -7.45464,8.95347 -26.75369,25.77275 -33.56162,29.24921 -6.60625,3.37348 -20.40288,5.89878 -36.19631,6.6253 -12.15472,0.55914 -15.35376,0.22638 -24.02205,-2.49881 z m 55.80587,-49.14179 c 0.80616,-0.97135 2.34276,-5.93533 3.41468,-11.03107 1.07192,-5.09573 2.52513,-10.78046 3.22937,-12.63273 0.70422,-1.85228 1.49109,-5.70709 1.74858,-8.56628 0.44872,-4.98263 0.27438,-5.24164 -4.1985,-6.23729 -10.43311,-2.3224 -38.87953,-6.4332 -44.51721,-6.4332 -5.77778,0 -6.05598,0.1803 -6.68602,4.33333 -1.68313,11.09452 -1.95276,36.95351 -0.39584,37.96309 5.20756,3.37683 44.9517,5.56014 47.40494,2.60415 z m 348.23017,-21.90264 c -2.54684,-1.2822 -6.6644,-5.01649 -9.15013,-8.29843 -4.06773,-5.37065 -4.445,-6.59637 -3.77403,-12.26164 0.98127,-8.2853 3.31348,-12.53009 11.8363,-21.54282 5.60342,-5.92554 7.68612,-7.32052 10.01873,-6.71052 4.95072,1.29464 5.25611,5.71818 0.64395,9.32774 -5.1821,4.0556 -11.09446,14.16595 -11.23808,19.21755 -0.21527,7.57116 8.31833,13.37168 14.7665,10.0372 3.69548,-1.91101 10.86071,-13.31181 10.86071,-17.28079 0,-2.88122 3.06419,-2.73025 5.79335,0.28543 3.07721,3.40028 2.75656,7.48183 -1.10552,14.07196 -4.65748,7.94739 -8.49146,11.15451 -16.09036,13.45957 -8.09855,2.45663 -7.02358,2.48275 -12.56142,-0.30525 z M 697.33332,459.61517 c -1.83334,-0.92337 -4.52415,-3.88849 -5.97959,-6.58917 -3.21792,-5.9711 -7.08697,-7.88295 -27.35375,-13.51654 -5.24965,-1.45925 -6.05004,-2.17017 -6.40012,-5.6848 -0.38636,-3.87874 -0.11106,-4.0971 8,-6.34544 6.91834,-1.91772 9.58442,-3.54882 15.11379,-9.24656 4.08349,-4.20784 7.9312,-9.91793 9.82152,-14.57537 2.16665,-5.33831 3.83553,-7.65728 5.51063,-7.65728 4.5902,0 6.55302,1.61587 7.39141,6.08489 0.98895,5.27154 -2.88604,14.34263 -9.19768,21.5312 -3.92423,4.46944 -3.95067,4.59692 -1.45161,6.99938 2.34778,2.25704 18.85813,5.86737 49.21206,10.76124 9.00315,1.45156 13.33123,5.02962 11.86523,9.80913 -1.24728,4.06647 -0.88552,3.94605 -13.6953,4.55849 -9.8779,0.47227 -12.77886,0.11107 -18.13398,-2.25773 -8.24505,-3.64717 -8.70261,-3.5834 -8.70261,1.21307 0,3.10232 -0.78926,4.33308 -3.42014,5.33333 -4.5808,1.74163 -8.55436,1.60964 -12.57986,-0.41784 z M 570.66665,435.07566 c -9.99658,-0.98172 -27.38048,-5.981 -29.54312,-8.49604 -4.53666,-5.27593 0.33376,-10.86032 10.90558,-12.50421 13.23473,-2.05797 18.06321,-5.52724 23.99004,-17.23687 1.06569,-2.10546 2.69868,-4.12017 3.62888,-4.47713 3.18518,-1.22227 8.03096,0.93376 8.81208,3.92079 0.89717,3.43076 -4.46939,13.53498 -8.53832,16.07608 -1.42366,0.88909 -2.58847,1.9994 -2.58847,2.46737 0,1.12463 5.76157,3.24559 14,5.15371 10.4204,2.41349 16.40185,10.01034 10.33333,13.12404 -2.60425,1.33621 -23.76682,2.68261 -31,1.97226 z m 176,-120.91624 c -15.55428,-5.59536 -27.29101,-10.53337 -29.48199,-12.40397 -1.18176,-1.00896 -3.20569,-4.17856 -4.49761,-7.04355 -2.90092,-6.43309 -1.92655,-13.08263 2.53063,-17.26992 2.95556,-2.7766 3.44176,-2.84695 6.97958,-1.00987 2.0915,1.08606 5.16708,3.82826 6.83464,6.09379 1.66756,2.26553 5.26756,5.25084 8,6.63403 4.91335,2.48716 25.50113,8.17341 29.59288,8.17341 5.06523,0 21.07056,-9.26187 27.86993,-16.12757 21.5091,-21.71899 23.20912,-37.92267 4.54786,-43.34766 -9.31526,-2.70801 -27.38164,-1.60966 -38.64619,2.34951 -9.65705,3.39419 -26.50377,4.05924 -28.51592,1.12572 -2.48902,-3.62877 -0.22537,-21.24406 4.73661,-36.85935 8.45002,-26.59201 16.29706,-38.99481 27.67342,-43.73975 5.75252,-2.3993 16.54592,-2.70534 21.95602,-0.62256 2.06442,0.79476 7.33538,2.02911 11.71326,2.74299 4.37789,0.71389 10.89345,2.89467 14.47901,4.84619 8.27545,4.50406 18.22787,15.9175 18.22787,20.90373 0,4.28761 -4.66,11.39541 -7.47104,11.39541 -3.24984,0 -8.52896,-4.14798 -8.52896,-6.70149 0,-3.36681 -7.50462,-9.29795 -11.76898,-9.30136 -1.9604,-0.001 -7.0857,-1.859 -11.38958,-4.12763 -6.4917,-3.42182 -8.7713,-3.98288 -13.37676,-3.29224 -6.55031,0.98228 -13.9304,5.14992 -14.92855,8.43035 -0.38921,1.27915 -1.86608,4.72571 -3.28193,7.65904 -4.21864,8.74007 -7.91948,19.75672 -7.9202,23.57681 -8.7e-4,4.60767 3.53742,5.78106 9.08586,3.01312 3.44203,-1.7171 8.15212,-2.02837 25.44916,-1.68184 l 21.2254,0.42524 7.78612,5.33334 c 8.88268,6.08445 13.38134,13.5214 14.64784,24.21508 0.70083,5.91729 0.24604,7.65021 -4.13898,15.77163 -6.4596,11.96365 -22.7875,32.09908 -30.92894,38.1413 -9.20293,6.83002 -17.86302,12.39652 -22.18986,14.26312 -5.81543,2.50878 -16.75818,1.85687 -26.2706,-1.56505 z m -115.02688,-13.0784 c -8.27309,-1.28269 -9.45863,-1.89004 -14.19699,-7.27311 -9.61718,-10.92569 -10.1125,-12.88096 -10.08453,-39.8079 0.0261,-25.19777 1.23287,-34.99005 6.6804,-54.2113 6.82813,-24.09265 15.96745,-38.59808 25.77455,-40.908 2.6694,-0.62875 7.55345,-1.7816 10.85345,-2.56191 3.3,-0.7803 13.95569,-2.1873 23.67931,-3.12665 18.7998,-1.81615 30.17686,-0.84143 44.61822,3.82261 10.50892,3.394 17.64003,13.84768 12.76914,18.71858 -2.26835,2.26834 -14.56822,1.98208 -24.20755,-0.56342 -11.07656,-2.92502 -28.27205,-2.99268 -43.19304,-0.16992 -6.78367,1.28334 -14.94068,2.33334 -18.12669,2.33334 -4.02127,0 -6.50206,0.78377 -8.11216,2.5629 -4.26071,4.70804 -12.38699,34.97935 -10.76339,40.09484 1.11947,3.52714 3.48959,3.46792 35.17516,-0.87873 21.88884,-3.00275 26.81885,-3.31117 31.76809,-1.98745 9.1881,2.45744 12.39291,5.12486 12.39291,10.31488 0,5.28497 -2.75423,7.22689 -10.24992,7.22689 -2.80055,0 -9.28999,1.213 -14.42099,2.69555 -6.08972,1.75957 -16.96822,3.1808 -31.32909,4.09303 -12.1,0.76861 -22.75,1.63678 -23.66667,1.92928 -2.10737,0.67241 -2.05598,10.63086 0.10774,20.86489 2.22641,10.53081 5.53958,13.62929 16.70786,15.62517 10.05644,1.79719 11.63346,1.57895 28.86195,-3.99425 15.05291,-4.86943 22.34895,-5.53657 23.05583,-2.10821 1.09677,5.31946 -1.0346,8.75558 -7.09336,11.43566 -3.30264,1.46091 -6.3651,3.59512 -6.80546,4.7427 -0.44037,1.14757 -4.54092,4.17816 -9.11233,6.73464 -7.35911,4.11545 -9.67225,4.71389 -20.18359,5.22181 -6.52956,0.31551 -15.93401,-0.0561 -20.8988,-0.82592 z m -105.96286,-5.33368 c -2.22824,-2.68487 -8.34359,-27.1052 -8.34359,-33.31835 0,-2.90348 1.53184,-11.32212 3.40408,-18.70808 1.87224,-7.38594 3.10148,-14.21757 2.73163,-15.18139 -0.36984,-0.9638 -3.01923,-2.94961 -5.8875,-4.41289 -6.34008,-3.23447 -15.64568,-13.34312 -20.50522,-22.27479 -6.28351,-11.54885 -8.00607,-30.6621 -4.3727,-48.5185 2.21596,-10.89044 6.42052,-16.50424 11.78779,-15.73868 2.6982,0.38484 2.88487,1.34938 3.69101,19.07201 1.25815,27.65964 7.30324,43.79396 18.97016,50.63123 8.30344,4.86614 13.17612,4.37974 24.90503,-2.48608 23.03324,-13.48314 31.0628,-30.32322 23.86763,-50.05664 l -2.74143,-7.51862 2.69404,-6.28494 c 1.58807,-3.70482 3.55943,-6.28495 4.80204,-6.28495 6.67724,0 13.29261,15.57352 13.30988,31.33333 0.008,7.84538 -0.67501,10.71502 -4.288,18 -6.73133,13.57259 -15.17484,23.67884 -30.63405,36.66667 -18.74312,15.74676 -19.717,17.49686 -19.72674,35.4495 -0.007,13.32038 0.23663,14.58993 4.32568,22.52061 5.31258,10.30369 5.39923,12.74355 0.54184,15.2554 -5.84608,3.02313 -16.66352,4.10604 -18.53158,1.85516 z"
       style="fill:#000000;stroke-width:1.33333" />
  </g>
</svg>
